<svg xmlns="http://www.w3.org/2000/svg" width="20" height="20" viewBox="0 0 20 20" fill="none">
    <path
        d="M14.321 16.9989H5.68027C5.49707 16.9317 5.42898 16.7966 5.43418 16.6071C5.43992 16.3361 5.43418 16.0648 5.43418 15.7804H5.25753C4.63928 15.7804 4.0213 15.7768 3.40333 15.7826C3.21575 15.7842 3.07738 15.7259 3.00027 15.5496V15.4128C3.07055 15.2307 3.20918 15.1681 3.39649 15.1692C4.02541 15.1725 4.65432 15.1692 5.28187 15.1692H5.42597V13.9572H5.27011C4.64612 13.9572 4.02212 13.9553 3.3984 13.9572C3.21219 13.9572 3.07192 13.8973 3 13.7162V13.5795C3.07547 13.4012 3.21383 13.3405 3.40141 13.3421C4.02076 13.3468 4.64038 13.3438 5.26081 13.3438H5.42488V12.1299H5.26683C4.64284 12.1299 4.01884 12.1274 3.39485 12.1299C3.2059 12.1299 3.06672 12.0683 3.00055 11.8837V11.747C3.08067 11.572 3.2193 11.5162 3.40715 11.5184C4.0306 11.5252 4.65432 11.5209 5.27777 11.5209H5.42543V10.3009H5.26847C4.6494 10.3009 4.03033 10.2963 3.41153 10.3037C3.22422 10.3056 3.08477 10.252 3.00137 10.0802V9.91616C3.08559 9.74442 3.22504 9.69055 3.41153 9.69274C4.03498 9.69985 4.6587 9.6952 5.28214 9.6952H5.42351V8.4739H5.2641C4.64502 8.4739 4.02595 8.46952 3.40715 8.47636C3.21903 8.47855 3.08067 8.42166 3.00055 8.24801V8.11128C3.06781 7.92642 3.2059 7.86379 3.39485 7.86516C4.02377 7.86899 4.65268 7.8668 5.2816 7.8668H5.42871V6.65124H5.26164C4.64229 6.65124 4.02267 6.64824 3.40223 6.65316C3.21465 6.65316 3.07629 6.59382 3.00082 6.41579V6.27906C3.07274 6.09775 3.21301 6.03677 3.39922 6.03786C4.02814 6.04087 4.65706 6.03786 5.28597 6.03786H5.42734V4.82586H5.27011C4.64612 4.82586 4.0224 4.82367 3.3984 4.82586C3.2111 4.82586 3.07246 4.76405 3.00219 4.5822V4.44547C3.0793 4.26881 3.21766 4.21056 3.40524 4.21247C4.02759 4.21794 4.65049 4.21439 5.27312 4.21439H5.43718C5.43718 3.92342 5.44156 3.65542 5.43718 3.3877C5.43308 3.19819 5.50117 3.06309 5.68328 2.99609H14.321C14.5042 3.06309 14.5723 3.19819 14.5671 3.3877C14.5614 3.6587 14.5671 3.92998 14.5671 4.21439H14.7438C15.362 4.21439 15.98 4.21794 16.598 4.21247C16.7856 4.21056 16.9239 4.26881 17.001 4.44547V4.5822C16.9308 4.76405 16.7921 4.82668 16.6048 4.82586C15.9759 4.8223 15.347 4.82586 14.7181 4.82586H14.574V6.03895H14.7312C15.3552 6.03895 15.9792 6.04087 16.6029 6.03895C16.7891 6.03895 16.9294 6.09884 17.0013 6.28015V6.41688C16.9258 6.59491 16.7875 6.65562 16.5999 6.65425C15.9803 6.64933 15.3609 6.65234 14.7405 6.65234H14.5764V7.86762H14.7347C15.3585 7.86762 15.9825 7.87008 16.6065 7.86598C16.7954 7.86598 16.9346 7.92751 17.0008 8.1121V8.24883C16.9206 8.42358 16.782 8.47937 16.5941 8.47718C15.9707 8.47034 15.347 8.47472 14.7235 8.47472H14.5759V9.6952H14.7328C15.3519 9.6952 15.971 9.69985 16.5898 9.69274C16.7771 9.69055 16.9165 9.74442 16.9999 9.91616V10.0802C16.9157 10.252 16.7763 10.3056 16.5898 10.3037C15.9663 10.2965 15.3426 10.3009 14.7192 10.3009H14.5778V11.522H14.7372C15.3563 11.522 15.9753 11.5263 16.5941 11.5195C16.7823 11.5173 16.9206 11.5742 17.0008 11.7481V11.8848C16.9335 12.0694 16.7954 12.131 16.6065 12.131C15.9775 12.1271 15.3486 12.131 14.7197 12.131H14.5726V13.346H14.7397C15.359 13.346 15.9784 13.349 16.5991 13.3443C16.7866 13.3427 16.925 13.4034 17.0005 13.5817V13.7184C16.9286 13.8995 16.7883 13.9605 16.6021 13.9594C15.9732 13.9563 15.3442 13.9594 14.7167 13.9594H14.5753V15.1725H14.7326C15.3566 15.1725 15.9803 15.1746 16.6043 15.1725C16.7916 15.1725 16.9302 15.234 17.0005 15.4161V15.5528C16.9234 15.7292 16.785 15.7875 16.5974 15.7858C15.9751 15.7801 15.3522 15.7837 14.7295 15.7837H14.5655C14.5655 16.0746 14.5611 16.3426 14.5655 16.6103C14.5723 16.7966 14.5042 16.9317 14.321 16.9989ZM13.9527 3.61331H6.05325V16.3842H13.9527V3.61331Z"
        fill="#77787D" />
    <path
        d="M12.7407 9.99957C12.7407 11.5811 12.7407 13.1626 12.7407 14.7439C12.7407 15.0754 12.6486 15.1686 12.321 15.1686H7.68618C7.35805 15.1686 7.26562 15.0751 7.26562 14.7448C7.26562 11.5771 7.26562 8.40954 7.26562 5.24208C7.26562 4.91993 7.35996 4.82422 7.67852 4.82422C9.22802 4.82422 10.7775 4.82422 12.327 4.82422C12.6464 4.82422 12.7407 4.91938 12.7407 5.24125C12.7409 6.82736 12.7409 8.41346 12.7407 9.99957ZM7.87485 14.552H12.1266V5.44089H7.87485V14.552Z"
        fill="#77787D" />
</svg>