<svg xmlns="http://www.w3.org/2000/svg" width="60" height="60" viewBox="0 0 60 60" fill="none">
    <path
        d="M57.1875 33.75C57.1875 33.9986 57.0887 34.2371 56.9129 34.4129C56.7371 34.5887 56.4986 34.6875 56.25 34.6875C56.0014 34.6875 55.7629 34.5887 55.5871 34.4129C55.4113 34.2371 55.3125 33.9986 55.3125 33.75C55.3057 27.5361 52.8342 21.5786 48.4403 17.1847C44.0464 12.7908 38.0889 10.3193 31.875 10.3125C26.1582 10.3187 20.6773 12.5925 16.6349 16.6349C12.5925 20.6773 10.3187 26.1582 10.3125 31.875C10.3181 37.0947 12.3941 42.0991 16.085 45.79C19.7759 49.4809 24.7803 51.5569 30 51.5625C34.7226 51.5575 39.2504 49.6793 42.5899 46.3399C45.9293 43.0004 47.8075 38.4726 47.8125 33.75C47.8082 29.5244 46.1276 25.4732 43.1397 22.4853C40.1518 19.4974 36.1006 17.8168 31.875 17.8125C28.1467 17.8168 24.5724 19.2998 21.9361 21.9361C19.2998 24.5724 17.8168 28.1467 17.8125 31.875C17.8162 35.1062 19.1015 38.204 21.3862 40.4888C23.671 42.7735 26.7688 44.0588 30 44.0625C32.7341 44.0594 35.3553 42.9719 37.2886 41.0386C39.2219 39.1053 40.3094 36.4841 40.3125 33.75C40.3125 31.5122 39.4236 29.3661 37.8412 27.7838C36.2589 26.2014 34.1128 25.3125 31.875 25.3125C30.1345 25.3125 28.4653 26.0039 27.2346 27.2346C26.0039 28.4653 25.3125 30.1345 25.3125 31.875C25.3125 33.1182 25.8064 34.3105 26.6854 35.1896C27.5645 36.0686 28.7568 36.5625 30 36.5625C30.7459 36.5625 31.4613 36.2662 31.9887 35.7387C32.5162 35.2113 32.8125 34.4959 32.8125 33.75C32.8125 33.5014 32.7137 33.2629 32.5379 33.0871C32.3621 32.9113 32.1236 32.8125 31.875 32.8125C31.6264 32.8125 31.3879 32.7137 31.2121 32.5379C31.0363 32.3621 30.9375 32.1236 30.9375 31.875C30.9375 31.6264 31.0363 31.3879 31.2121 31.2121C31.3879 31.0363 31.6264 30.9375 31.875 30.9375C32.6209 30.9375 33.3363 31.2338 33.8637 31.7613C34.3912 32.2887 34.6875 33.0041 34.6875 33.75C34.6875 34.3656 34.5663 34.9751 34.3307 35.5438C34.0951 36.1125 33.7498 36.6293 33.3146 37.0646C32.8793 37.4998 32.3625 37.8451 31.7938 38.0807C31.2251 38.3163 30.6156 38.4375 30 38.4375C28.2595 38.4375 26.5903 37.7461 25.3596 36.5154C24.1289 35.2847 23.4375 33.6155 23.4375 31.875C23.4375 29.6372 24.3264 27.4911 25.9088 25.9088C27.4911 24.3264 29.6372 23.4375 31.875 23.4375C34.6091 23.4406 37.2303 24.5281 39.1636 26.4614C41.0969 28.3947 42.1844 31.0159 42.1875 33.75C42.1838 36.9812 40.8985 40.079 38.6138 42.3638C36.329 44.6485 33.2312 45.9338 30 45.9375C26.2717 45.9332 22.6974 44.4502 20.0611 41.8139C17.4248 39.1776 15.9418 35.6033 15.9375 31.875C15.9418 27.6494 17.6224 23.5982 20.6103 20.6103C23.5982 17.6224 27.6494 15.9418 31.875 15.9375C36.5976 15.9425 41.1254 17.8207 44.4649 21.1601C47.8043 24.4996 49.6825 29.0274 49.6875 33.75C49.6819 38.9697 47.6059 43.9741 43.915 47.665C40.2241 51.3559 35.2197 53.4319 30 53.4375C24.2832 53.4313 18.8023 51.1575 14.7599 47.1151C10.7175 43.0727 8.4437 37.5918 8.4375 31.875C8.44432 25.6611 10.9158 19.7036 15.3097 15.3097C19.7036 10.9158 25.6611 8.44432 31.875 8.4375C38.586 8.44494 45.02 11.1142 49.7654 15.8596C54.5108 20.605 57.1801 27.039 57.1875 33.75Z"
        fill="#77787D" />
</svg>