<svg xmlns="http://www.w3.org/2000/svg" width="60" height="60" viewBox="0 0 60 60" fill="none">
    <path
        d="M9 16.9973C9 12.579 12.5791 9 16.9973 9C20.7737 9 25.4445 9 30 9C34.5555 9 39.2263 9 43.0027 9C47.421 9 51 12.5795 51 16.9978C51 21.1153 51 26.0797 51 30C51 33.9203 51 38.8847 51 43.0022C51 47.4205 47.4209 51 43.0027 51C39.2263 51 34.5555 51 30 51C25.4445 51 20.7737 51 16.9973 51C12.579 51 9 47.4209 9 43.0027C9 39.2263 9 34.5555 9 30C9 25.4445 9 20.7737 9 16.9973Z"
        stroke="#77787D" stroke-width="2" stroke-miterlimit="10" stroke-linecap="round" />
    <path
        d="M17 42C17 42.5523 17.4477 43 18 43H27C27.5523 43 28 42.5523 28 42C28 41.4477 27.5523 41 27 41H19V33C19 32.4477 18.5523 32 18 32C17.4477 32 17 32.4477 17 33V42ZM43 18C43 17.4477 42.5523 17 42 17H33C32.4477 17 32 17.4477 32 18C32 18.5523 32.4477 19 33 19H41V27C41 27.5523 41.4477 28 42 28C42.5523 28 43 27.5523 43 27V18ZM18.7071 42.7071L42.7071 18.7071L41.2929 17.2929L17.2929 41.2929L18.7071 42.7071Z"
        fill="#77787D" />
</svg>