<svg xmlns="http://www.w3.org/2000/svg" width="60" height="60" viewBox="0 0 60 60" fill="none">
    <rect x="24" y="24" width="12" height="12" rx="1" stroke="#77787D" stroke-width="2" stroke-linecap="round"
        stroke-linejoin="round" />
    <path
        d="M9.20586 12.08C8.36545 10.2523 10.2523 8.36545 12.08 9.20586L20.947 13.2831C26.6931 15.9253 33.3069 15.9253 39.053 13.2831L47.92 9.20586C49.7477 8.36545 51.6345 10.2523 50.7941 12.08L46.7169 20.947C44.0747 26.6931 44.0747 33.3069 46.7169 39.053L50.7941 47.92C51.6345 49.7477 49.7477 51.6345 47.92 50.7941L39.053 46.7169C33.3069 44.0747 26.6931 44.0747 20.947 46.7169L12.08 50.7941C10.2523 51.6345 8.36545 49.7477 9.20586 47.92L13.2831 39.053C15.9253 33.3069 15.9253 26.6931 13.2831 20.947L9.20586 12.08Z"
        stroke="#77787D" stroke-width="2" stroke-linecap="round" stroke-linejoin="round" />
    <circle cx="16.5" cy="43.5" r="1.5" fill="#77787D" />
    <circle cx="16.5" cy="16.5" r="1.5" fill="#77787D" />
    <circle cx="43.5" cy="43.5" r="1.5" fill="#77787D" />
    <circle cx="43.5" cy="16.5" r="1.5" fill="#77787D" />
</svg>