<svg xmlns="http://www.w3.org/2000/svg" width="60" height="60" viewBox="0 0 60 60" fill="none">
    <mask id="path-1-inside-1_2982_22229" fill="white">
        <path fill-rule="evenodd" clip-rule="evenodd"
            d="M34.6444 20.874C31.5579 20.5316 28.443 20.5316 25.3565 20.874C23.0499 21.1308 21.18 22.9494 20.9077 25.2842C20.5412 28.4174 20.5412 31.5827 20.9077 34.7159C21.18 37.0533 23.0499 38.8667 25.3565 39.1262C28.4182 39.4678 31.5827 39.4678 34.6444 39.1262C35.7751 39.0018 36.8304 38.4981 37.6383 37.6973C38.4461 36.8964 38.9589 35.8455 39.0932 34.7159C39.4605 31.5823 39.4605 28.4178 39.0932 25.2842C38.9589 24.1546 38.4461 23.1037 37.6383 22.3029C36.8304 21.502 35.7751 20.9983 34.6444 20.874ZM25.7829 24.7037C28.5621 24.3955 31.4388 24.3955 34.218 24.7037C34.4828 24.7329 34.7301 24.85 34.9205 25.0362C35.1109 25.2225 35.2334 25.4671 35.2686 25.7311C35.5999 28.5668 35.5999 31.4333 35.2686 34.269C35.2333 34.5334 35.1104 34.7783 34.9195 34.9646C34.7285 35.1509 34.4807 35.2677 34.2155 35.2964C31.4131 35.605 28.5853 35.605 25.7829 35.2964C25.5181 35.2672 25.2708 35.1501 25.0804 34.9639C24.89 34.7777 24.7675 34.533 24.7323 34.269C24.4004 31.4327 24.4004 28.5674 24.7323 25.7311C24.7676 25.4667 24.8905 25.2218 25.0814 25.0355C25.2724 24.8492 25.5202 24.7324 25.7854 24.7037" />
    </mask>
    <path fill-rule="evenodd" clip-rule="evenodd"
        d="M34.6444 20.874C31.5579 20.5316 28.443 20.5316 25.3565 20.874C23.0499 21.1308 21.18 22.9494 20.9077 25.2842C20.5412 28.4174 20.5412 31.5827 20.9077 34.7159C21.18 37.0533 23.0499 38.8667 25.3565 39.1262C28.4182 39.4678 31.5827 39.4678 34.6444 39.1262C35.7751 39.0018 36.8304 38.4981 37.6383 37.6973C38.4461 36.8964 38.9589 35.8455 39.0932 34.7159C39.4605 31.5823 39.4605 28.4178 39.0932 25.2842C38.9589 24.1546 38.4461 23.1037 37.6383 22.3029C36.8304 21.502 35.7751 20.9983 34.6444 20.874ZM25.7829 24.7037C28.5621 24.3955 31.4388 24.3955 34.218 24.7037C34.4828 24.7329 34.7301 24.85 34.9205 25.0362C35.1109 25.2225 35.2334 25.4671 35.2686 25.7311C35.5999 28.5668 35.5999 31.4333 35.2686 34.269C35.2333 34.5334 35.1104 34.7783 34.9195 34.9646C34.7285 35.1509 34.4807 35.2677 34.2155 35.2964C31.4131 35.605 28.5853 35.605 25.7829 35.2964C25.5181 35.2672 25.2708 35.1501 25.0804 34.9639C24.89 34.7777 24.7675 34.533 24.7323 34.269C24.4004 31.4327 24.4004 28.5674 24.7323 25.7311C24.7676 25.4667 24.8905 25.2218 25.0814 25.0355C25.2724 24.8492 25.5202 24.7324 25.7854 24.7037"
        fill="#77787D" />
    <path
        d="M34.6444 20.874L34.5342 21.8679L34.5351 21.868L34.6444 20.874ZM25.3565 20.874L25.2462 19.88L25.2458 19.8801L25.3565 20.874ZM20.9077 25.2842L21.901 25.4004L21.901 25.4L20.9077 25.2842ZM20.9077 34.7159L21.901 34.6002L21.901 34.5997L20.9077 34.7159ZM25.3565 39.1262L25.2447 40.1199L25.2456 40.12L25.3565 39.1262ZM34.6444 39.1262L34.5351 38.1321L34.5335 38.1323L34.6444 39.1262ZM39.0932 34.7159L40.0862 34.8339L40.0864 34.8324L39.0932 34.7159ZM39.0932 25.2842L40.0864 25.1678L40.0862 25.1662L39.0932 25.2842ZM34.218 24.7037L34.1078 25.6976L34.1082 25.6976L34.218 24.7037ZM35.2686 25.7311L36.2618 25.615L36.2609 25.6071L36.2598 25.5992L35.2686 25.7311ZM35.2686 34.269L36.2598 34.4011L36.2609 34.3931L36.2618 34.3851L35.2686 34.269ZM34.2155 35.2964L34.1078 34.3022L34.106 34.3024L34.2155 35.2964ZM25.7829 35.2964L25.6731 36.2904L25.6734 36.2904L25.7829 35.2964ZM24.7323 34.269L23.7391 34.3852L23.74 34.3931L23.7411 34.4009L24.7323 34.269ZM24.7323 25.7311L23.7411 25.599L23.74 25.6069L23.7391 25.6149L24.7323 25.7311ZM34.7547 19.88C31.5949 19.5296 28.406 19.5296 25.2462 19.88L25.4667 21.8679C28.48 21.5336 31.5209 21.5336 34.5342 21.8679L34.7547 19.88ZM25.2458 19.8801C22.4843 20.1876 20.2416 22.3634 19.9145 25.1683L21.901 25.4C22.1185 23.5353 23.6156 22.074 25.4672 21.8678L25.2458 19.8801ZM19.9145 25.168C19.5389 28.3784 19.5389 31.6217 19.9145 34.8321L21.901 34.5997C21.5434 31.5437 21.5434 28.4564 21.901 25.4004L19.9145 25.168ZM19.9145 34.8316C20.2417 37.6406 22.4854 39.8095 25.2447 40.1199L25.4683 38.1324C23.6145 37.9239 22.1184 36.4661 21.901 34.6002L19.9145 34.8316ZM25.2456 40.12C28.381 40.4698 31.6199 40.4698 34.7553 40.12L34.5335 38.1323C31.5455 38.4657 28.4554 38.4657 25.4674 38.1323L25.2456 40.12ZM34.7538 40.1202C36.1091 39.9711 37.374 39.3674 38.3423 38.4074L36.9342 36.9871C36.2869 37.6289 35.4412 38.0325 34.5351 38.1322L34.7538 40.1202ZM38.3423 38.4074C39.3106 37.4475 39.9253 36.1879 40.0862 34.8339L38.1001 34.598C37.9926 35.5032 37.5816 36.3453 36.9342 36.9871L38.3423 38.4074ZM40.0864 34.8324C40.4627 31.6214 40.4627 28.3787 40.0864 25.1678L38.1 25.4006C38.4582 28.4569 38.4582 31.5432 38.1 34.5995L40.0864 34.8324ZM40.0862 25.1662C39.9253 23.8122 39.3106 22.5526 38.3423 21.5927L36.9342 23.013C37.5816 23.6548 37.9926 24.4969 38.1001 25.4022L40.0862 25.1662ZM38.3423 21.5927C37.374 20.6327 36.1091 20.029 34.7538 19.8799L34.5351 21.868C35.4412 21.9676 36.2869 22.3712 36.9342 23.013L38.3423 21.5927ZM25.8931 25.6976C28.599 25.3975 31.4019 25.3975 34.1078 25.6976L34.3283 23.7098C31.4758 23.3934 28.5251 23.3934 25.6726 23.7098L25.8931 25.6976ZM34.1082 25.6976C34.1508 25.7023 34.1906 25.7212 34.2213 25.7512L35.6197 24.3213C35.2695 23.9788 34.8147 23.7635 34.3278 23.7097L34.1082 25.6976ZM34.2213 25.7512C34.2519 25.7811 34.2717 25.8205 34.2773 25.863L36.2598 25.5992C36.1952 25.1137 35.9699 24.6638 35.6197 24.3213L34.2213 25.7512ZM34.2753 25.8472C34.5977 28.6057 34.5977 31.3944 34.2753 34.1529L36.2618 34.3851C36.6022 31.4723 36.6022 28.5278 36.2618 25.615L34.2753 25.8472ZM34.2773 34.1369C34.2717 34.1794 34.2519 34.2189 34.2212 34.2488L35.6178 35.6804C35.9689 35.3378 36.195 34.8874 36.2598 34.4011L34.2773 34.1369ZM34.2212 34.2488C34.1904 34.2788 34.1505 34.2976 34.1078 34.3022L34.3231 36.2906C34.8108 36.2378 35.2667 36.023 35.6178 35.6804L34.2212 34.2488ZM34.106 34.3024C31.3764 34.603 28.622 34.603 25.8923 34.3024L25.6734 36.2904C28.5486 36.607 31.4498 36.607 34.3249 36.2904L34.106 34.3024ZM25.8927 34.3025C25.8501 34.2978 25.8103 34.2789 25.7796 34.249L24.3812 35.6788C24.7314 36.0213 25.1862 36.2366 25.6731 36.2904L25.8927 34.3025ZM25.7796 34.249C25.749 34.219 25.7293 34.1796 25.7236 34.1371L23.7411 34.4009C23.8057 34.8864 24.031 35.3363 24.3812 35.6788L25.7796 34.249ZM25.7256 34.1528C25.4027 31.3937 25.4027 28.6064 25.7256 25.8473L23.7391 25.6149C23.3982 28.5284 23.3982 31.4717 23.7391 34.3852L25.7256 34.1528ZM25.7236 25.8632C25.7292 25.8207 25.749 25.7813 25.7797 25.7513L24.3831 24.3197C24.032 24.6623 23.8059 25.1127 23.7411 25.599L25.7236 25.8632ZM25.7797 25.7513C25.8105 25.7213 25.8504 25.7025 25.8931 25.6979L25.6778 23.7095C25.1901 23.7623 24.7342 23.9771 24.3831 24.3197L25.7797 25.7513Z"
        fill="#EBF2FC" mask="url(#path-1-inside-1_2982_22229)" />
    <path fill-rule="evenodd" clip-rule="evenodd"
        d="M35.7023 14.4074L36.8188 14.4858V6.88343C36.8188 6.64926 36.9119 6.42468 37.0774 6.2591C37.243 6.09351 37.4676 6.00049 37.7018 6.00049C37.936 6.00049 38.1605 6.09351 38.3261 6.2591C38.4917 6.42468 38.5847 6.64926 38.5847 6.88343V14.6172L39.4412 14.7732C40.8734 15.0342 42.1914 15.7276 43.2176 16.7603C44.2439 17.7929 44.9291 19.1152 45.1811 20.549L45.3328 21.4119H53.1132C53.3473 21.4119 53.5719 21.5049 53.7375 21.6705C53.9031 21.8361 53.9961 22.0606 53.9961 22.2948C53.9961 22.529 53.9031 22.7536 53.7375 22.9191C53.5719 23.0847 53.3473 23.1777 53.1132 23.1777H45.4769L45.5558 24.2948C45.6455 25.5639 45.7073 26.8329 45.7411 28.1019L45.7682 29.1175H50.5446C50.7788 29.1175 51.0033 29.2106 51.1689 29.3762C51.3345 29.5417 51.4275 29.7663 51.4275 30.0005C51.4275 30.2347 51.3345 30.4592 51.1689 30.6248C51.0033 30.7904 50.7788 30.8834 50.5446 30.8834H45.7668L45.7411 31.9005C45.7089 33.1685 45.6472 34.4366 45.5559 35.7048L45.4754 36.8232H53.1132C53.3473 36.8232 53.5719 36.9163 53.7375 37.0818C53.9031 37.2474 53.9961 37.472 53.9961 37.7062C53.9961 37.9404 53.9031 38.1649 53.7375 38.3305C53.5719 38.4961 53.3473 38.5891 53.1132 38.5891H45.3328L45.1811 39.452C44.9291 40.8858 44.2439 42.2081 43.2176 43.2407C42.1914 44.2734 40.8734 44.9668 39.4412 45.2278L38.5847 45.3838V53.1175C38.5847 53.3517 38.4917 53.5763 38.3261 53.7419C38.1605 53.9075 37.936 54.0005 37.7018 54.0005C37.4676 54.0005 37.243 53.9075 37.0774 53.7419C36.9119 53.5763 36.8188 53.3517 36.8188 53.1175V45.5152L35.7023 45.5936C34.4359 45.6825 33.1675 45.7417 31.8983 45.7711L30.879 45.7947V50.549C30.879 50.7832 30.786 51.0077 30.6204 51.1733C30.4548 51.3389 30.2303 51.4319 29.9961 51.4319C29.7619 51.4319 29.5373 51.3389 29.3718 51.1733C29.2062 51.0077 29.1132 50.7832 29.1132 50.549V45.7941L28.0933 45.7711C26.8222 45.7424 25.5547 45.6832 24.2906 45.5936L23.1734 45.5145V53.1175C23.1734 53.3517 23.0803 53.5763 22.9147 53.7419C22.7492 53.9075 22.5246 54.0005 22.2904 54.0005C22.0562 54.0005 21.8317 53.9075 21.6661 53.7419C21.5005 53.5763 21.4075 53.3517 21.4075 53.1175V45.3838L20.551 45.2278C19.1187 44.9668 17.8008 44.2734 16.7746 43.2407C15.7483 42.2081 15.0631 40.8858 14.8111 39.452L14.6594 38.5891H6.87904C6.64487 38.5891 6.42029 38.4961 6.2547 38.3305C6.08912 38.1649 5.99609 37.9403 5.99609 37.7062C5.99609 37.472 6.08912 37.2474 6.2547 37.0818C6.42029 36.9163 6.64487 36.8232 6.87904 36.8232H14.5153L14.4364 35.7062C14.3467 34.4371 14.2849 33.1681 14.2511 31.8991L14.224 30.8834H9.4476C9.21343 30.8834 8.98885 30.7904 8.82326 30.6248C8.65768 30.4592 8.56466 30.2347 8.56466 30.0005C8.56466 29.7663 8.65768 29.5417 8.82326 29.3762C8.98885 29.2106 9.21343 29.1175 9.4476 29.1175H14.2254L14.2511 28.1005C14.2832 26.8324 14.345 25.5643 14.4363 24.2962L14.5168 23.1777H6.87904C6.64487 23.1777 6.42029 23.0847 6.2547 22.9191C6.08912 22.7536 5.99609 22.529 5.99609 22.2948C5.99609 22.0606 6.08912 21.8361 6.2547 21.6705C6.42029 21.5049 6.64487 21.4119 6.87904 21.4119H14.6594L14.8111 20.549C15.0631 19.1152 15.7483 17.7929 16.7746 16.7603C17.8008 15.7276 19.1187 15.0342 20.551 14.7732L21.4075 14.6172V6.88343C21.4075 6.64926 21.5005 6.42468 21.6661 6.2591C21.8317 6.09351 22.0562 6.00049 22.2904 6.00049C22.5246 6.00049 22.7492 6.09351 22.9147 6.2591C23.0803 6.42468 23.1734 6.64926 23.1734 6.88343V14.4858L24.2899 14.4074C25.5563 14.3185 26.8247 14.2593 28.0938 14.2299L29.1132 14.2063V9.45199C29.1132 9.21782 29.2062 8.99324 29.3718 8.82766C29.5373 8.66207 29.7619 8.56905 29.9961 8.56905C30.2303 8.56905 30.4548 8.66207 30.6204 8.82766C30.786 8.99324 30.879 9.21782 30.879 9.45199V14.2063L31.8983 14.2299C33.1675 14.2593 34.4359 14.3185 35.7023 14.4074ZM38.7612 16.4547L38.7593 16.4544C32.9349 15.8097 27.0573 15.8097 21.2329 16.4544L21.2332 16.4573C20.0393 16.591 18.9249 17.1221 18.069 17.9652C17.2128 18.8087 16.665 19.9154 16.5136 21.1077L16.5124 21.1181C15.8231 27.0196 15.823 32.9814 16.5124 38.8829L16.5137 38.8932C16.6649 40.085 17.2122 41.1914 18.0677 42.0348C18.9233 42.8782 20.0374 43.4096 21.2312 43.5438L21.2329 43.544C27.0564 44.1885 32.9332 44.1885 38.7567 43.544L38.7578 43.5438C39.9522 43.4103 41.067 42.8792 41.9232 42.0358C42.7794 41.1923 43.3272 40.0856 43.4786 38.8933L43.4798 38.8829C44.1691 32.9814 44.1691 27.0195 43.4798 21.1179C43.194 18.6741 41.2216 16.7316 38.7612 16.4547Z"
        fill="#77787D" />
</svg>