<svg width="62" height="62" viewBox="0 0 62 62" fill="none" xmlns="http://www.w3.org/2000/svg">
    <path
        d="M2.96924 18.8245V43.1755C2.96861 44.3378 3.27584 45.4798 3.85974 46.4852C4.44363 47.4907 5.28342 48.324 6.29388 48.9005L27.7264 61.1315C28.7233 61.7007 29.8517 62 31 62C32.1482 62 33.2766 61.7007 34.2735 61.1315L55.707 48.9005C56.7171 48.3237 57.5565 47.4903 58.1401 46.4848C58.7239 45.4795 59.0311 44.3377 59.0306 43.1755V18.8245C59.0308 17.6625 58.7234 16.521 58.1398 15.5158C57.5562 14.5105 56.7167 13.6773 55.707 13.1005L34.2735 0.86853C33.2766 0.299377 32.1482 0 31 0C29.8517 0 28.7233 0.299377 27.7264 0.86853L6.29388 13.1005C5.28364 13.677 4.444 14.5102 3.86012 15.5154C3.27625 16.5207 2.96889 17.6623 2.96924 18.8245Z"
        fill="url(#paint0_linear_4028_3543)" />
    <g filter="url(#filter0_d_4028_3543)">
        <path
            d="M10.4458 22.0707V39.9282C10.4454 40.7805 10.6706 41.618 11.0988 42.3553C11.527 43.0927 12.1429 43.7037 12.8839 44.1265L28.6011 53.0958C29.332 53.5132 30.1596 53.7328 31.0017 53.7328C31.8436 53.7328 32.6712 53.5132 33.4023 53.0958L49.1202 44.1265C49.8608 43.7035 50.4765 43.0923 50.9044 42.355C51.3326 41.6177 51.5578 40.7805 51.5575 39.9282V22.0707C51.5577 21.2185 51.3322 20.3815 50.9043 19.6443C50.4761 18.9072 49.8606 18.2962 49.1202 17.8732L33.4023 8.90303C32.6712 8.48566 31.8436 8.26611 31.0017 8.26611C30.1596 8.26611 29.332 8.48566 28.6011 8.90303L12.8839 17.8732C12.143 18.296 11.5273 18.9068 11.0991 19.644C10.6709 20.3813 10.4456 21.2185 10.4458 22.0707Z"
            fill="url(#paint1_linear_4028_3543)" />
    </g>
    <path
        d="M18.0239 25.3701V36.6249C18.0239 37.7204 18.6124 38.7281 19.5623 39.2734L29.4831 44.9263C30.4238 45.4624 31.5728 45.4624 32.5135 44.9263L42.4342 39.2734C43.3841 38.7326 43.9726 37.7204 43.9726 36.6249V25.3701C43.9726 24.2746 43.3841 23.2669 42.4342 22.7261L32.5135 17.0733C31.5728 16.5371 30.4238 16.5371 29.4831 17.0733L19.5623 22.7261C18.6124 23.2669 18.0239 24.2793 18.0239 25.3701Z"
        fill="url(#paint2_linear_4028_3543)" />
    <path
        d="M31.0034 17.9333C31.2837 17.9333 31.564 18.0266 31.8443 18.1666L41.8419 23.8599C42.3558 24.1399 42.6828 24.6999 42.6828 25.3066V36.6933C42.6828 37.2999 42.3558 37.8599 41.8419 38.1399L31.8443 43.8333C31.564 43.9733 31.2837 44.0666 31.0034 44.0666C30.7231 44.0666 30.4428 43.9733 30.1625 43.8333L20.1649 38.1399C19.651 37.8599 19.3239 37.2999 19.3239 36.6933V25.3066C19.3239 24.6999 19.651 24.1399 20.1649 23.8599L30.1625 18.1666C30.4428 18.0266 30.7231 17.9333 31.0034 17.9333ZM31.0034 16.5332C30.4895 16.5332 29.9289 16.6733 29.4617 16.9533L19.464 22.6466C18.5297 23.2066 17.9224 24.2333 17.9224 25.3066V36.6933C17.9224 37.8133 18.5297 38.7933 19.464 39.3533L29.4617 45.0466C29.9289 45.3266 30.4428 45.4666 31.0034 45.4666C31.564 45.4666 32.0779 45.3266 32.5451 45.0466L42.5427 39.3533C43.5238 38.7933 44.0844 37.7666 44.0844 36.6933V25.3066C44.0844 24.1866 43.477 23.2066 42.5427 22.6466L32.5451 16.9533C32.0779 16.6733 31.5173 16.5332 31.0034 16.5332Z"
        fill="black" />
    <path
        d="M27.2974 36.5313H29.3743V24.0503H27.2974V36.5313ZM36.1128 27.2861H33.5282L30.436 31.4003V32.4173L33.5282 36.5313H36.1128L32.4667 31.9088L36.1128 27.2861Z"
        fill="black" />
    <defs>
        <filter id="filter0_d_4028_3543" x="4.4458" y="4.26611" width="53.1116" height="57.4668"
            filterUnits="userSpaceOnUse" color-interpolation-filters="sRGB">
            <feFlood flood-opacity="0" result="BackgroundImageFix" />
            <feColorMatrix in="SourceAlpha" type="matrix" values="0 0 0 0 0 0 0 0 0 0 0 0 0 0 0 0 0 0 127 0"
                result="hardAlpha" />
            <feOffset dy="2" />
            <feGaussianBlur stdDeviation="3" />
            <feComposite in2="hardAlpha" operator="out" />
            <feColorMatrix type="matrix" values="0 0 0 0 0 0 0 0 0 0.137255 0 0 0 0 0.333333 0 0 0 0.2 0" />
            <feBlend mode="normal" in2="BackgroundImageFix" result="effect1_dropShadow_4028_3543" />
            <feBlend mode="normal" in="SourceGraphic" in2="effect1_dropShadow_4028_3543" result="shape" />
        </filter>
        <linearGradient id="paint0_linear_4028_3543" x1="54.0739" y1="3.1747" x2="14.4178" y2="48.6735"
            gradientUnits="userSpaceOnUse">
            <stop stop-color="#00AAFF" />
            <stop offset="1" stop-color="#00D1FF" />
        </linearGradient>
        <linearGradient id="paint1_linear_4028_3543" x1="47.9225" y1="10.5942" x2="18.8414" y2="43.96"
            gradientUnits="userSpaceOnUse">
            <stop stop-color="#00AAFF" />
            <stop offset="1" stop-color="#00D1FF" />
        </linearGradient>
        <linearGradient id="paint2_linear_4028_3543" x1="10.0306" y1="37.6843" x2="36.7417" y2="9.75609"
            gradientUnits="userSpaceOnUse">
            <stop stop-color="#23D1AE" />
            <stop offset="1" stop-color="#7EFF33" />
        </linearGradient>
    </defs>
</svg>