<svg xmlns="http://www.w3.org/2000/svg" width="60" height="60" viewBox="0 0 60 60" fill="none">
    <path
        d="M29.0908 7.50001C32.4726 7.50914 35.6797 8.29308 38.7464 9.68794C41.6914 11.0269 44.3418 12.7986 46.5988 15.1292C49.6609 18.2912 51.6593 22.0299 52.5043 26.3498C53.5686 31.7854 52.8989 37.052 50.6892 42.1085C49.2784 45.3362 47.1984 48.0756 44.2807 50.1117C41.9889 51.7104 39.4504 52.5908 36.6372 52.3487C33.2742 52.0598 30.332 50.8174 28.1572 48.1202C26.9873 46.6682 26.3872 44.9519 26.1514 43.1271C25.9516 41.5821 25.8659 40.0222 25.7369 38.4686C25.6518 37.4643 25.5748 36.4594 25.1922 35.5087C24.869 34.7048 24.2878 34.1955 23.4702 33.926C21.6751 33.3407 19.9696 33.4966 18.352 34.5015C17.7714 34.8624 17.1821 35.2118 16.5821 35.5378C15.0856 36.3486 13.5474 36.4097 12.0081 35.6834C10.5464 34.9937 9.23031 34.0956 8.27509 32.7612C7.29531 31.3909 6.96815 29.8276 7.00241 28.1718C7.04466 26.1135 7.60534 24.175 8.42982 22.3091C10.2226 18.233 12.7731 14.7022 16.24 11.889C18.6798 9.90948 21.5123 8.70246 24.5636 8.00074C26.0494 7.6667 27.5678 7.49876 29.0908 7.50001ZM51.1129 30.6486C51 29 50.9582 28.5932 50.7412 27.3045C50.0246 23.0468 48.1193 19.3789 45.0852 16.3066C42.7665 13.9593 40.031 12.2362 36.9855 11.0034C33.055 9.41502 29.0165 8.9337 24.8559 9.88778C22.2295 10.4896 19.7795 11.523 17.6618 13.1994C14.1395 15.98 11.6204 19.536 9.92175 23.6766C9.28627 25.2256 8.87517 26.8363 8.90086 28.5298C8.92199 29.9338 9.28627 31.2276 10.3111 32.2451C11.0373 32.9612 11.8833 33.5446 12.8108 33.9688C13.842 34.4461 14.8418 34.3588 15.813 33.7975C16.2161 33.5651 16.6226 33.3362 17.012 33.0849C18.8745 31.8905 20.8626 31.3938 23.0734 31.8557C25.5336 32.3695 26.8988 33.6548 27.3322 36.1379C27.5532 37.4072 27.6245 38.7072 27.7279 39.9925C27.8289 41.2532 27.906 42.5156 28.1955 43.7523C28.5466 45.2539 29.1661 46.6282 30.3081 47.6919C32.2139 49.4671 34.5138 50.3549 37.0991 50.4703C39.3076 50.569 41.2929 49.8525 43.0942 48.6192C45.6002 46.9063 47.3913 44.5779 48.704 41.8761C50.3369 38.5171 51.4058 34.9259 51.1129 30.6486Z"
        fill="#77787D" />
    <path
        d="M42.4822 28.6711C42.1545 28.67 41.8344 28.5719 41.5624 28.3892C41.2904 28.2064 41.0785 27.9472 40.9535 27.6443C40.8286 27.3413 40.7961 27.0082 40.8602 26.6868C40.9243 26.3654 41.0821 26.0702 41.3137 25.8383C41.5453 25.6065 41.8403 25.4484 42.1617 25.3839C42.483 25.3195 42.8162 25.3517 43.1193 25.4763C43.4224 25.601 43.6818 25.8126 43.8648 26.0844C44.0478 26.3563 44.1462 26.6762 44.1477 27.0039C44.1479 27.2228 44.105 27.4395 44.0214 27.6418C43.9378 27.8441 43.8152 28.0279 43.6605 28.1827C43.5058 28.3376 43.3221 28.4604 43.12 28.5442C42.9178 28.628 42.7011 28.6711 42.4822 28.6711Z"
        fill="#77787D" />
    <path
        d="M42.4702 37.2336C42.1425 37.2301 41.8232 37.1297 41.5525 36.945C41.2818 36.7603 41.0719 36.4997 40.9491 36.1958C40.8263 35.892 40.7962 35.5587 40.8625 35.2378C40.9289 34.9169 41.0887 34.6228 41.3219 34.3926C41.5551 34.1624 41.8513 34.0064 42.173 33.9442C42.4948 33.882 42.8277 33.9165 43.1299 34.0432C43.4321 34.17 43.69 34.3833 43.8711 34.6564C44.0522 34.9295 44.1485 35.2501 44.1477 35.5778C44.1464 35.7967 44.1019 36.0131 44.0169 36.2148C43.9318 36.4165 43.8079 36.5995 43.6521 36.7533C43.4963 36.907 43.3117 37.0286 43.1089 37.111C42.9061 37.1934 42.6891 37.2351 42.4702 37.2336Z"
        fill="#77787D" />
    <path
        d="M36.7887 42.9446C36.461 42.9454 36.1403 42.8491 35.8672 42.6679C35.5941 42.4867 35.3807 42.2287 35.254 41.9264C35.1273 41.6241 35.093 41.2911 35.1553 40.9693C35.2176 40.6475 35.3738 40.3514 35.6041 40.1182C35.8345 39.8851 36.1287 39.7253 36.4498 39.6592C36.7708 39.593 37.1042 39.6234 37.408 39.7464C37.7118 39.8695 37.9723 40.0797 38.1568 40.3507C38.3412 40.6216 38.4414 40.9411 38.4445 41.2688C38.4459 41.4876 38.4041 41.7045 38.3216 41.9071C38.2391 42.1097 38.1175 42.2941 37.9638 42.4497C37.81 42.6053 37.6271 42.7291 37.4255 42.814C37.2239 42.899 37.0075 42.9433 36.7887 42.9446Z"
        fill="#77787D" />
    <path
        d="M27.2657 17.7225C27.2754 16.7953 28.0308 16.049 28.9432 16.0667C29.2729 16.0688 29.5947 16.1686 29.8678 16.3535C30.1408 16.5384 30.3529 16.8002 30.4772 17.1057C30.6014 17.4112 30.6323 17.7466 30.5659 18.0697C30.4995 18.3927 30.3388 18.6888 30.104 18.9205C29.8693 19.1521 29.5712 19.309 29.2473 19.3712C28.9234 19.4334 28.5884 19.3982 28.2846 19.2699C27.9807 19.1417 27.7217 18.9262 27.5404 18.6508C27.359 18.3753 27.2634 18.0523 27.2657 17.7225Z"
        fill="#77787D" />
    <path
        d="M35.8286 20.5527C35.8366 20.2243 35.9416 19.9056 36.1304 19.6368C36.3192 19.368 36.5834 19.1612 36.8897 19.0423C37.1959 18.9235 37.5305 18.898 37.8512 18.9691C38.1719 19.0401 38.4643 19.2046 38.6917 19.4416C38.9191 19.6787 39.0712 19.9778 39.1288 20.3012C39.1864 20.6246 39.147 20.9578 39.0155 21.2588C38.8839 21.5598 38.6662 21.8151 38.3898 21.9926C38.1134 22.17 37.7906 22.2616 37.4622 22.2559C37.2428 22.2521 37.0264 22.205 36.8254 22.1172C36.6243 22.0294 36.4427 21.9027 36.2908 21.7443C36.139 21.586 36.02 21.3992 35.9406 21.1947C35.8613 20.9902 35.8232 20.772 35.8286 20.5527Z"
        fill="#77787D" />
</svg>