<svg xmlns="http://www.w3.org/2000/svg" width="60" height="60" viewBox="0 0 60 60" fill="none">
    <path
        d="M30 43.8C32.3638 43.8 34.7044 43.3241 36.8883 42.3994C39.0722 41.4747 41.0565 40.1194 42.7279 38.4108C44.3994 36.7022 45.7252 34.6738 46.6298 32.4414C47.5344 30.209 48 27.8163 48 25.4C48 22.9837 47.5344 20.591 46.6298 18.3586C45.7252 16.1262 44.3994 14.0978 42.7279 12.3892C41.0565 10.6806 39.0722 9.3253 36.8883 8.40062C34.7044 7.47593 32.3638 7 30 7C25.2261 7 20.6477 8.93857 17.2721 12.3892C13.8964 15.8399 12 20.52 12 25.4C12 30.28 13.8964 34.9601 17.2721 38.4108C20.6477 41.8614 25.2261 43.8 30 43.8ZM30 43.8V53M18.75 53H41.25M36.75 25.4C36.75 27.23 36.0388 28.985 34.773 30.279C33.5071 31.573 31.7902 32.3 30 32.3C28.2098 32.3 26.4929 31.573 25.227 30.279C23.9612 28.985 23.25 27.23 23.25 25.4C23.25 23.57 23.9612 21.815 25.227 20.521C26.4929 19.227 28.2098 18.5 30 18.5C31.7902 18.5 33.5071 19.227 34.773 20.521C36.0388 21.815 36.75 23.57 36.75 25.4Z"
        stroke="#77787D" stroke-width="2" stroke-linecap="round" stroke-linejoin="round" />
</svg>