<svg xmlns="http://www.w3.org/2000/svg" width="40" height="41" viewBox="0 0 40 41" fill="none">
    <path fill-rule="evenodd" clip-rule="evenodd"
        d="M13.6603 20.6183L17.7603 24.7183L26.3402 16.1383C26.4414 16.0371 26.5692 15.9717 26.8002 15.9717C27.0313 15.9717 27.1591 16.0371 27.2603 16.1383C27.3615 16.2395 27.4269 16.3672 27.4269 16.5983C27.4269 16.8294 27.3615 16.9572 27.2603 17.0584L18.2203 26.0984C18.0635 26.2551 17.9232 26.305 17.7603 26.305C17.5973 26.305 17.457 26.2551 17.3002 26.0984L12.7402 21.5384C12.639 21.4372 12.5736 21.3094 12.5736 21.0783C12.5736 20.8472 12.639 20.7195 12.7402 20.6183C12.8414 20.5171 12.9692 20.4517 13.2003 20.4517C13.4313 20.4517 13.5591 20.5171 13.6603 20.6183ZM20.0012 35.585H20.0003C17.9085 35.585 15.955 35.1885 14.1302 34.4007C12.2871 33.6048 10.6932 32.5303 9.33998 31.1781C7.98709 29.8262 6.91285 28.2327 6.11818 26.3889C5.33109 24.5627 4.9346 22.6088 4.9336 20.5179C4.93259 18.4275 5.32896 16.4742 6.11783 14.6485C6.9148 12.8041 7.98936 11.2102 9.34047 9.85805C10.6912 8.50628 12.2848 7.43195 14.1299 6.63614C15.9571 5.84807 17.9107 5.45166 20.0003 5.45166C22.0898 5.45166 24.0434 5.84807 25.8706 6.63614C27.7157 7.43195 29.3093 8.50628 30.66 9.85805C32.0112 11.2103 33.0864 12.8043 33.8844 14.6489C34.6742 16.4743 35.0699 18.4271 35.0669 20.517C35.0639 22.6085 34.6673 24.563 33.882 26.3897C33.0896 28.2329 32.0157 29.826 30.661 31.1776C29.3052 32.5304 27.7108 33.6056 25.8695 34.4026C24.0476 35.1911 22.0947 35.587 20.0012 35.585ZM20.0003 34.2517C23.8159 34.2517 27.0815 32.917 29.7402 30.2583C32.3989 27.5996 33.7336 24.334 33.7336 20.5183C33.7336 16.7027 32.3989 13.4371 29.7402 10.7784C27.0815 8.11966 23.8159 6.78499 20.0003 6.78499C16.1846 6.78499 12.919 8.11966 10.2603 10.7784C7.60159 13.4371 6.26693 16.7027 6.26693 20.5183C6.26693 24.334 7.60159 27.5996 10.2603 30.2583C12.919 32.917 16.1846 34.2517 20.0003 34.2517Z"
        fill="#77787D" />
</svg>