<svg xmlns="http://www.w3.org/2000/svg" width="60" height="60" viewBox="0 0 60 60" fill="none">
    <path
        d="M29.9994 5.78125L50.9987 17.9056V39.0424C50.9987 39.9883 50.7497 40.9175 50.2768 41.7366C49.8038 42.5557 49.1236 43.236 48.3044 43.7089L32.6937 52.724C31.8745 53.197 30.9453 53.446 29.9994 53.446C29.0535 53.446 28.1242 53.197 27.3051 52.724L11.6943 43.7089C10.8751 43.236 10.1949 42.5557 9.72197 41.7366C9.24902 40.9175 9.00002 39.9883 9 39.0424V17.9056L29.9994 5.78125Z"
        stroke="#77787D" stroke-width="2" stroke-linecap="round" stroke-linejoin="round" />
    <path d="M29.9944 16.5586V30.0301M29.9944 30.0301L18.3281 36.7658M29.9944 30.0301L41.6608 36.7658" stroke="#77787D"
        stroke-width="2" stroke-linecap="round" stroke-linejoin="round" />
</svg>