<svg xmlns="http://www.w3.org/2000/svg" width="60" height="60" viewBox="0 0 60 60" fill="none">
    <path
        d="M51.6 15H8.4C7.76372 15.0008 7.15374 15.2645 6.70382 15.7331C6.25391 16.2018 6.00079 16.8372 6 17.5V42.5C6.00079 43.1628 6.25391 43.7982 6.70382 44.2669C7.15374 44.7355 7.76372 44.9992 8.4 45H51.6C52.2363 44.9992 52.8463 44.7355 53.2962 44.2669C53.7461 43.7982 53.9992 43.1628 54 42.5V17.5C53.9992 16.8372 53.7461 16.2018 53.2962 15.7331C52.8463 15.2645 52.2363 15.0008 51.6 15ZM51.8435 42.7381H8.15652V17.2619H51.8435V42.7381Z"
        fill="#77787D" />
    <path fill-rule="evenodd" clip-rule="evenodd"
        d="M18.5625 35.5303H34.5941V37.826H18.5625V35.5303ZM11.7324 35.5303H14.104V37.826H11.7324V35.5303ZM45.8826 35.5303H48.2542V37.826H45.8826V35.5303ZM39.0526 35.5303H41.4241V37.826H39.0526V35.5303ZM42.4676 28.8521H44.8391V31.1477H42.4676V28.8521ZM35.6376 28.8521H38.0091V31.1477H35.6376V28.8521ZM28.8075 28.8521H31.1791V31.1477H28.8075V28.8521ZM21.9775 28.8521H24.349V31.1477H21.9775V28.8521ZM15.1474 28.8521H17.519V31.1477H15.1474V28.8521ZM39.0526 22.1738H41.4241V24.4695H39.0526V22.1738ZM45.8826 22.1738H48.2542V24.4695H45.8826V22.1738ZM32.2225 22.1738H34.5941V24.4695H32.2225V22.1738ZM25.3925 22.1738H27.764V24.4695H25.3925V22.1738ZM18.5625 22.1738H20.934V24.4695H18.5625V22.1738ZM11.7324 22.1738H14.104V24.4695H11.7324V22.1738Z"
        fill="#77787D" />
</svg>