<svg width="738" height="411" viewBox="0 0 738 411" fill="none" xmlns="http://www.w3.org/2000/svg">
<g clip-path="url(#clip0_2227_11428)">
<path d="M183.32 729.747V-5.41235H186.666V39.0928L190.011 36.895V101.18L194.471 97.3341V165.465L197.816 163.268V241.289L201.162 237.992V487.441L196.701 483.045V561.067L193.356 558.869V625.901L190.011 624.253V687.439L186.666 686.34V729.747H183.32Z" fill="#F2F2F2"/>
<path d="M120.016 -5.41235H124.103V73.7079L127.606 71.5101V145.136L131.11 141.839V228.652L134.613 224.256V501.177L131.11 496.781V582.495L127.606 580.297V653.374L123.519 650.077V729.747H120.016V-5.41235Z" fill="#F2F2F2"/>
<path d="M90.8438 -5.41235V729.746H94.3472V627.077L98.4345 631.469V548.565L101.938 552.957V436.561L105.441 445.346V280.086L101.354 288.871V171.926L97.8506 176.868V95.0612L94.3472 98.3554V-5.41235H90.8438Z" fill="#F2F2F2"/>
<path d="M0 729.747V-5.41235H3.74295V214.366L8.10972 207.773V518.21L4.36678 511.616V729.747H0Z" fill="#F2F2F2"/>
<path d="M29.2109 -5.41235V729.747H34.4012V562.165L37.6451 566.561V430.298L42.1865 442.936V283.596L38.2938 294.585V158.872L33.7524 163.817V-5.41235H29.2109Z" fill="#F2F2F2"/>
<path d="M61.6406 -5.41235V729.746H64.8845V598.527L68.6691 601.821V505.74L71.3723 511.23V214.751L68.1284 220.241V123.062L65.4252 126.905V-5.41235H61.6406Z" fill="#F2F2F2"/>
<path d="M150.844 -5.41235H155.71V54.4773L159.359 53.3784V119.312L163.008 118.213V191.839L166.658 188.542V289.64L170.307 283.047V441.837L166.658 435.793V535.792L163.008 533.045V607.22L159.359 604.473V672.055L155.71 669.857V729.747H150.844V-5.41235Z" fill="#F2F2F2"/>
<path d="M212.477 729.747V-5.41235H216.062V25.9061L220.842 23.7083V85.2463L224.428 84.1474V146.784L228.013 144.586V212.718L231.598 210.52V294.036L235.184 289.64V435.793L231.598 430.298V513.814L228.013 512.715V579.748L224.428 577.55V640.736L220.842 639.088V700.076L216.062 698.428V729.747H212.477Z" fill="#F2F2F2"/>
<path d="M243.305 729.747V-5.41235H247.146V16.016L250.988 14.9172V74.8068L254.829 73.1584V132.499L258.67 131.4V192.938L262.512 191.839V258.871L267.634 256.673V468.21L262.512 465.463V533.594L258.67 531.396V594.033L254.829 591.836V651.725L250.988 651.176V709.417L247.146 708.318V729.747H243.305Z" fill="#F2F2F2"/>
<path d="M274.109 729.747V-5.41235H277.648V9.42269L281.187 8.05342V65.4662L285.905 63.2684V121.51L289.444 120.411V179.751L292.983 178.652V239.091L296.522 237.83V306.124L300.06 303.656V420.408L296.522 418.211V486.342L292.983 485.243V545.682L288.265 544.305V603.923L284.726 602.275V660.516L281.187 658.868V716.56L277.648 716.01V729.747H274.109Z" fill="#F2F2F2"/>
<path d="M303.32 729.747V-5.41235H307.862V3.92823L312.403 2.82934V59.9717L316.296 58.8728V115.466L320.189 114.916V172.059L324.081 170.96V228.102L327.974 227.003L328.623 286.344L332.515 285.245L331.867 439.09L327.974 438.54L328.623 497.88L324.081 496.232V553.924L320.189 553.374V610.517L316.296 609.418V665.461L312.403 664.362V721.505L307.213 720.406V729.747H303.32Z" fill="#F2F2F2"/>
<path d="M334.109 729.747V-5.41235H338.905V0.631554H342.501V56.6751H346.098V111.62H349.694V167.663H353.291V223.707H358.086V278.651H361.682V445.683H356.887V501.726H353.291V556.671H349.694V612.715H346.098V668.758H342.501V723.703H338.905V729.747H334.109Z" fill="#F2F2F2"/>
<path d="M364.945 729.747V-5.41235H368.705V0.0821075H372.465V55.0267L376.225 56.1256V111.07L381.238 111.62V167.663L384.998 168.762V223.707L388.758 224.806V280.849L392.518 281.948V442.386L388.758 443.485V500.628H384.998V556.671H381.238V612.715H376.225V668.758H372.465V724.802H368.705V729.747H364.945Z" fill="#F2F2F2"/>
<path d="M395.781 729.747V-5.41235H399.32V1.73045L403.449 2.27989V57.7739L407.577 58.8728V113.817L411.116 114.916V172.059L414.655 173.158V230.3L418.194 231.399V295.135L421.732 297.332V428.101L418.194 430.298V492.935L414.655 494.034V551.177L411.116 552.275V609.418L407.577 610.517V666.011L402.859 666.56V722.604L399.32 723.703V729.747H395.781Z" fill="#F2F2F2"/>
<path d="M424.961 729.747V-5.41235H429.679V5.02712L433.218 6.12601V61.6201L436.757 62.1695V120.411L440.296 121.51V180.85L443.834 181.949V243.487L447.963 246.488V330.849L450.912 337.183V387.442L447.373 395.134V478.65L443.834 480.847V543.484L440.296 544.583V603.374L436.757 605.022V661.066L433.218 662.165V719.307L429.679 720.406V729.747H424.961Z" fill="#F2F2F2"/>
<path d="M457.406 729.747V-5.41235H460.992V10.5216L464.577 11.6205V69.8618L468.162 70.9607L468.76 129.751L472.943 131.949V194.037L476.528 196.234V266.563L480.113 269.86V455.573L476.528 457.771V529.199L471.748 531.396V594.033L468.162 595.132V654.472L464.577 655.571V713.263L460.992 714.911V729.747H457.406Z" fill="#F2F2F2"/>
<path d="M486.578 729.747V-5.41235H490.163V18.2138L494.944 20.4116V79.7518L498.529 81.9496V142.389L502.115 145.136V212.718L505.7 216.014V310.519L509.285 317.113V408.321L505.7 413.815V508.32L502.115 511.616V579.198L498.529 580.847V643.484L493.749 644.582V705.021L490.163 706.12V729.747H486.578Z" fill="#F2F2F2"/>
<path d="M517.414 729.747V-5.41235H522.28V29.2028L525.929 31.4005V92.9385L529.579 95.1363V160.52L533.228 163.268V241.289L536.877 245.685V478.65L533.228 483.045V561.067L529.579 563.264V629.747L525.929 631.396V694.033L522.28 695.131V729.747H517.414Z" fill="#F2F2F2"/>
<path d="M548.195 729.747V-5.41235H551.845V42.3895L555.494 44.5872V109.971L559.752 112.719V185.245L563.401 189.092V292.387L567.659 298.981V425.903L563.401 432.496V536.341L559.143 539.089V612.715L555.494 614.912V680.296L551.845 681.945V729.747H548.195Z" fill="#F2F2F2"/>
<path d="M577.414 729.747V-5.41235H581.157V58.8728L584.9 61.0706V131.949L589.891 134.696V219.311L593.634 223.707V501.177L589.891 505.023V590.187L584.9 592.385V663.813L581.157 665.461V729.747H577.414Z" fill="#F2F2F2"/>
<path d="M608.25 729.747V-5.41235H613.241V79.7518L616.984 83.0485V159.971L620.727 163.268V270.959L624.469 277.552V446.782L620.727 453.375V561.067L616.984 564.363V642.385L613.241 644.582V729.747H608.25Z" fill="#F2F2F2"/>
<path d="M640.68 729.747V-5.41235H644.265V104.477L647.85 107.224V196.234L652.033 202.278V523.155L647.85 528.1V617.11L644.265 620.407V729.747H640.68Z" fill="#F2F2F2"/>
<path d="M669.883 729.747V-5.41235H674.066V136.345L677.651 139.641V252.278L681.236 259.97V464.914L677.054 473.705V585.242L673.468 589.088V729.747H669.883Z" fill="#F2F2F2"/>
<path d="M700.68 729.747V-5.41235H704.387V175.355L707.167 180.85V544.583L704.387 548.979V729.747H700.68Z" fill="#F2F2F2"/>
<path d="M731.516 729.747V-5.41235H734.76V230.849L738.003 239.641V485.243L734.76 492.386V729.747H731.516Z" fill="#F2F2F2"/>
</g>
<defs>
<clipPath id="clip0_2227_11428">
<rect y="0.277222" width="738" height="735.159" rx="367.579" fill="white"/>
</clipPath>
</defs>
</svg>
