<svg width="396" height="394" viewBox="0 0 396 394" fill="none" xmlns="http://www.w3.org/2000/svg">
<g clip-path="url(#clip0_2227_11265)">
<path d="M98.125 390.472V-3.04552H99.9157V20.7773L101.706 19.6008V54.0115L104.094 51.9528V88.4222L105.885 87.2458V129.009L107.675 127.245V260.77L105.288 258.417V300.18L103.497 299.004V334.885L101.706 334.003V367.825L99.9157 367.237V390.472H98.125Z" fill="#F2F2F2"/>
<path d="M64.2422 -3.04552H66.43V39.3061L68.3054 38.1297V77.5402L70.1807 75.7755V122.245L72.056 119.892V268.122L70.1807 265.77V311.65L68.3054 310.474V349.59L66.1175 347.826V390.472H64.2422V-3.04552Z" fill="#F2F2F2"/>
<path d="M48.625 -3.04552V390.472H50.5003V335.514L52.6882 337.865V293.488L54.5635 295.839V233.535L56.4388 238.237V149.777L54.2509 154.479V91.8805L52.3756 94.5256V50.7361L50.5003 52.4995V-3.04552H48.625Z" fill="#F2F2F2"/>
<path d="M0 390.472V-3.04552H2.00353V114.598L4.34099 111.069V277.24L2.33745 273.71V390.472H0Z" fill="#F2F2F2"/>
<path d="M15.6328 -3.04552V390.472H18.411V300.768L20.1474 303.121V230.182L22.5784 236.947V151.656L20.4947 157.538V84.8929L18.0638 87.5399V-3.04552H15.6328Z" fill="#F2F2F2"/>
<path d="M32.9922 -3.04552V390.472H34.7286V320.232L36.7544 321.995V270.565L38.2014 273.504V114.804L36.465 117.743V65.7244L35.018 67.7817V-3.04552H32.9922Z" fill="#F2F2F2"/>
<path d="M80.7422 -3.04552H83.3468V29.0123L85.3002 28.4241V63.7171L87.2537 63.1289V102.539L89.2071 100.775V154.891L91.1606 151.361V236.359L89.2071 233.124V286.651L87.2537 285.181V324.885L85.3002 323.415V359.59L83.3468 358.414V390.472H80.7422V-3.04552Z" fill="#F2F2F2"/>
<path d="M113.734 390.472V-3.04552H115.654V13.7187L118.212 12.5422V45.4824L120.132 44.8941V78.4225L122.051 77.2461V113.716L123.97 112.539V157.244L125.889 154.891V233.124L123.97 230.182V274.887L122.051 274.299V310.18L120.132 309.003V342.826L118.212 341.944V374.59L115.654 373.707V390.472H113.734Z" fill="#F2F2F2"/>
<path d="M130.234 390.472V-3.04552H132.291V8.42471L134.347 7.83649V39.8943L136.403 39.012V70.7757L138.459 70.1875V103.128L140.516 102.539V138.421L143.257 137.244V250.476L140.516 249.005V285.475L138.459 284.298V317.827L136.403 316.65V348.708L134.347 348.414V379.589L132.291 379.001V390.472H130.234Z" fill="#F2F2F2"/>
<path d="M146.727 390.472V-3.04552H148.621V4.89541L150.515 4.16247V34.8945L153.041 33.718V64.8935L154.935 64.3053V96.069L156.829 95.4808V127.833L158.723 127.157V163.714L160.618 162.393V224.888L158.723 223.712V260.182L156.829 259.593V291.945L154.304 291.208V323.121L152.409 322.238V353.414L150.515 352.532V383.413L148.621 383.119V390.472H146.727Z" fill="#F2F2F2"/>
<path d="M162.359 390.472V-3.04552H164.79V1.95433L167.221 1.36611V31.9534L169.305 31.3652V61.6583L171.389 61.3642V91.9515L173.472 91.3633V121.951L175.556 121.362L175.903 153.126L177.987 152.538L177.64 234.888L175.556 234.594L175.903 266.358L173.472 265.475V296.357L171.389 296.063V326.65L169.305 326.062V356.061L167.221 355.473V386.06L164.443 385.472V390.472H162.359Z" fill="#F2F2F2"/>
<path d="M178.844 390.472V-3.04552H181.411V0.189675H183.336V30.1887H185.261V59.5996H187.186V89.5986H189.111V119.598H191.678V149.009H193.603V238.417H191.036V268.417H189.111V297.827H187.186V327.826H185.261V357.825H183.336V387.236H181.411V390.472H178.844Z" fill="#F2F2F2"/>
<path d="M195.352 390.472V-3.04552H197.364V-0.104433H199.377V29.3064L201.389 29.8946V59.3055L204.073 59.5996V89.5986L206.086 90.1868V119.598L208.098 120.186V150.185L210.111 150.773V236.653L208.098 237.241V267.828H206.086V297.827H204.073V327.826H201.389V357.825H199.377V387.825H197.364V390.472H195.352Z" fill="#F2F2F2"/>
<path d="M211.852 390.472V-3.04552H213.746V0.777892L215.956 1.072V30.7769L218.166 31.3652V60.776L220.06 61.3642V91.9515L221.954 92.5397V123.127L223.848 123.715V157.832L225.743 159.008V229.006L223.848 230.182V263.711L221.954 264.299V294.886L220.06 295.475V326.062L218.166 326.65V356.355L215.64 356.649V386.648L213.746 387.236V390.472H211.852Z" fill="#F2F2F2"/>
<path d="M227.477 390.472V-3.04552H230.002V2.54254L231.896 3.13076V32.8357L233.791 33.1298V64.3053L235.685 64.8935V96.6572L237.579 97.2454V130.186L239.789 131.792V176.949L241.368 180.34V207.242L239.473 211.359V256.064L237.579 257.24V290.769L235.685 291.357V322.827L233.791 323.709V353.708L231.896 354.296V384.883L230.002 385.472V390.472H227.477Z" fill="#F2F2F2"/>
<path d="M244.844 390.472V-3.04552H246.763V5.48363L248.682 6.07184V37.2473L250.601 37.8355L250.921 69.3051L253.16 70.4816V103.716L255.079 104.892V142.538L256.999 144.303V243.711L255.079 244.888V283.122L252.52 284.298V317.827L250.601 318.415V350.179L248.682 350.767V381.648L246.763 382.531V390.472H244.844Z" fill="#F2F2F2"/>
<path d="M260.453 390.472V-3.04552H262.372V9.60114L264.931 10.7776V42.5413L266.85 43.7177V76.0696L268.77 77.5402V113.716L270.689 115.48V166.067L272.608 169.596V218.418L270.689 221.359V271.946L268.77 273.71V309.886L266.85 310.768V344.296L264.291 344.885V377.237L262.372 377.825V390.472H260.453Z" fill="#F2F2F2"/>
<path d="M276.961 390.472V-3.04552H279.566V15.4833L281.519 16.6597V49.5999L283.472 50.7763V85.7752L285.426 87.2458V129.009L287.379 131.362V256.064L285.426 258.417V300.18L283.472 301.357V336.944L281.519 337.826V371.354L279.566 371.943V390.472H276.961Z" fill="#F2F2F2"/>
<path d="M293.438 390.472V-3.04552H295.391V22.5419L297.344 23.7183V58.7172L299.623 60.1878V99.0101L301.577 101.069V156.361L303.856 159.891V227.83L301.577 231.359V286.945L299.298 288.416V327.826L297.344 329.003V364.002L295.391 364.884V390.472H293.438Z" fill="#F2F2F2"/>
<path d="M309.078 390.472V-3.04552H311.082V31.3652L313.085 32.5416V70.4816L315.757 71.9521V117.245L317.76 119.598V268.122L315.757 270.181V315.768L313.085 316.944V355.179L311.082 356.061V390.472H309.078Z" fill="#F2F2F2"/>
<path d="M325.586 390.472V-3.04552H328.257V42.5413L330.261 44.3059V85.4811L332.264 87.2458V144.891L334.268 148.42V239.006L332.264 242.535V300.18L330.261 301.945V343.708L328.257 344.885V390.472H325.586Z" fill="#F2F2F2"/>
<path d="M342.945 390.472V-3.04552H344.864V55.7762L346.784 57.2467V104.892L349.023 108.127V279.887L346.784 282.534V330.179L344.864 331.944V390.472H342.945Z" fill="#F2F2F2"/>
<path d="M358.578 390.472V-3.04552H360.817V72.8344L362.736 74.5991V134.891L364.656 139.009V248.711L362.416 253.417V313.121L360.497 315.18V390.472H358.578Z" fill="#F2F2F2"/>
<path d="M375.062 390.472V-3.04552H377.047V93.7161L378.535 96.6572V291.357L377.047 293.71V390.472H375.062Z" fill="#F2F2F2"/>
<path d="M391.562 390.472V-3.04552H393.299V123.421L395.035 128.127V259.593L393.299 263.417V390.472H391.562Z" fill="#F2F2F2"/>
</g>
<defs>
<clipPath id="clip0_2227_11265">
<rect width="395.038" height="393.517" rx="196.759" fill="white"/>
</clipPath>
</defs>
</svg>
