<svg width="958" height="438" viewBox="0 0 958 438" fill="none" xmlns="http://www.w3.org/2000/svg">
<g clip-path="url(#clip0_2227_11328)">
<path d="M237.727 945.975V-7.37823H242.065V50.336L246.403 47.4859V130.851L252.187 125.863V214.216L256.525 211.366V312.544L260.863 308.269V631.753L255.079 626.053V727.231L250.741 724.381V811.309L246.403 809.171V891.111L242.065 889.686V945.975H237.727Z" fill="#FEFF6A"/>
<path d="M155.641 -7.37823H160.941V95.2248L165.484 92.3747V187.853L170.027 183.577V296.156L174.571 290.456V649.566L170.027 643.866V755.02L165.484 752.169V846.935L160.184 842.66V945.975H155.641V-7.37823Z" fill="#FEFF6A"/>
<path d="M117.805 -7.37823V945.975H122.348V812.833L127.648 818.529V711.019L132.192 716.715V565.773L136.735 577.165V362.856L131.434 374.248V222.594L126.891 229.002V122.916L122.348 127.188V-7.37823H117.805Z" fill="#FEFF6A"/>
<path d="M0 945.975V-7.37823H4.85386V277.63L10.5167 269.08V671.655L5.66283 663.104V945.975H0Z" fill="#FEFF6A"/>
<path d="M37.875 -7.37823V945.975H44.6057V728.656L48.8124 734.356V557.651L54.7017 574.039V367.408L49.6537 381.658V205.666L43.7643 212.078V-7.37823H37.875Z" fill="#FEFF6A"/>
<path d="M79.9297 -7.37823V945.975H84.1364V775.81L89.0441 780.082V655.484L92.5497 662.604V278.129L88.343 285.249V159.227L84.8375 164.211V-7.37823H79.9297Z" fill="#FEFF6A"/>
<path d="M195.617 -7.37823H201.927V70.2866L206.66 68.8615V154.364L211.392 152.939V248.417L216.125 244.142V375.246L220.857 366.695V572.614L216.125 564.776V694.455L211.392 690.893V787.083L206.66 783.52V871.161L201.927 868.31V945.975H195.617V-7.37823Z" fill="#FEFF6A"/>
<path d="M275.539 945.975V-7.37823H280.189V33.2355L286.388 30.3854V110.188L291.037 108.763V189.99L295.687 187.14V275.493L300.336 272.643V380.946L304.986 375.246V564.776L300.336 557.651V665.954L295.687 664.529V751.457L291.037 748.607V830.547L286.388 828.409V907.499L280.189 905.362V945.975H275.539Z" fill="#FEFF6A"/>
<path d="M315.516 945.975V-7.37823H320.497V20.4101L325.479 18.9851V96.6499L330.46 94.5123V171.465L335.442 170.04V249.842L340.424 248.417V335.345L347.066 332.494V606.815L340.424 603.253V691.605L335.442 688.755V769.983L330.46 767.132V844.797L325.479 844.085V919.612L320.497 918.187V945.975H315.516Z" fill="#FEFF6A"/>
<path d="M355.461 945.975V-7.37823H360.05V11.8598L364.639 10.0842V84.537L370.758 81.6869V157.214L375.347 155.789V232.741L379.936 231.316V309.694L384.525 308.058V396.621L389.114 393.421V544.826L384.525 541.976V630.328L379.936 628.903V707.281L373.817 705.495V782.808L369.228 780.67V856.198L364.639 854.06V928.875L360.05 928.162V945.975H355.461Z" fill="#FEFF6A"/>
<path d="M393.352 945.975V-7.37823H399.241V4.73463L405.13 3.30958V77.4118L410.178 75.9868V149.376L415.226 148.664V222.766L420.274 221.341V295.443L425.322 294.018L426.164 370.971L431.212 369.546L430.37 569.052L425.322 568.339L426.164 645.291L420.274 643.154V717.968L415.226 717.256V791.358L410.178 789.933V862.61L405.13 861.185V935.287L398.4 933.862V945.975H393.352Z" fill="#FEFF6A"/>
<path d="M433.273 945.975V-7.37823H439.492V0.459499H444.156V73.1367H448.82V144.389H453.484V217.066H458.148V289.743H464.366V360.995H469.03V577.602H462.812V650.279H458.148V721.531H453.484V794.208H448.82V866.885H444.156V938.138H439.492V945.975H433.273Z" fill="#FEFF6A"/>
<path d="M473.258 945.975V-7.37823H478.134V-0.253022H483.01V70.9991L487.886 72.4241V143.676L494.387 144.389V217.066L499.263 218.491V289.743L504.139 291.168V363.845L509.015 365.27V573.327L504.139 574.752V648.854H499.263V721.531H494.387V794.208H487.886V866.885H483.01V939.563H478.134V945.975H473.258Z" fill="#FEFF6A"/>
<path d="M513.25 945.975V-7.37823H517.839V1.88454L523.193 2.59706V74.5617L528.547 75.9868V147.239L533.136 148.664V222.766L537.725 224.191V298.293L542.314 299.718V382.371L546.903 385.221V554.801L542.314 557.651V638.879L537.725 640.304V714.406L533.136 715.831V789.933L528.547 791.358V863.323L522.428 864.035V936.713L517.839 938.138V945.975H513.25Z" fill="#FEFF6A"/>
<path d="M551.094 945.975V-7.37823H557.213V6.15967L561.802 7.58471V79.5494L566.391 80.2619V155.789L570.98 157.214V234.166L575.569 235.592V315.394L580.923 319.286V428.685L584.747 436.899V502.074L580.158 512.05V620.353L575.569 623.203V704.431L570.98 705.856V782.095L566.391 784.233V856.91L561.802 858.335V932.437L557.213 933.862V945.975H551.094Z" fill="#FEFF6A"/>
<path d="M593.164 945.975V-7.37823H597.814V13.2849L602.463 14.7099V90.2372L607.113 91.6622L607.887 167.902L613.312 170.752V251.267L617.961 254.117V345.32L622.611 349.595V590.427L617.961 593.277V685.905L611.762 688.755V769.983L607.113 771.408V848.36L602.463 849.785V924.6L597.814 926.737V945.975H593.164Z" fill="#FEFF6A"/>
<path d="M630.992 945.975V-7.37823H635.642V23.2602L641.841 26.1103V103.063L646.49 105.913V184.29L651.14 187.853V275.493L655.789 279.768V402.322L660.439 410.872V529.15L655.789 536.276V658.829L651.14 663.104V750.744L646.49 752.882V834.109L640.291 835.534V913.912L635.642 915.337V945.975H630.992Z" fill="#FEFF6A"/>
<path d="M670.984 945.975V-7.37823H677.294V37.5106L682.027 40.3607V120.163L686.759 123.013V207.803L691.492 211.366V312.544L696.224 318.244V620.353L691.492 626.053V727.231L686.759 730.081V816.296L682.027 818.434V899.661L677.294 901.086V945.975H670.984Z" fill="#FEFF6A"/>
<path d="M710.898 945.975V-7.37823H715.631V54.6111L720.363 57.4612V142.251L725.885 145.814V239.867L730.617 244.854V378.808L736.138 387.359V551.951L730.617 560.501V695.168L725.096 698.73V794.208L720.363 797.058V881.848L715.631 883.986V945.975H710.898Z" fill="#FEFF6A"/>
<path d="M748.797 945.975V-7.37823H753.651V75.9868L758.505 78.8368V170.752L764.976 174.315V284.043L769.83 289.743V649.566L764.976 654.554V764.995L758.505 767.845V860.473L753.651 862.61V945.975H748.797Z" fill="#FEFF6A"/>
<path d="M788.781 945.975V-7.37823H795.253V103.063L800.107 107.338V207.091L804.961 211.366V351.02L809.815 359.57V579.027L804.961 587.577V727.231L800.107 731.506V832.684L795.253 835.534V945.975H788.781Z" fill="#FEFF6A"/>
<path d="M830.836 945.975V-7.37823H835.485V135.126L840.135 138.689V254.117L845.559 261.955V678.067L840.135 684.48V799.908L835.485 804.184V945.975H830.836Z" fill="#FEFF6A"/>
<path d="M868.703 945.975V-7.37823H874.128V176.452L878.777 180.727V326.794L883.426 336.77V602.54L878.002 613.94V758.582L873.353 763.57V945.975H868.703Z" fill="#FEFF6A"/>
<path d="M908.641 945.975V-7.37823H913.448V227.041L917.054 234.166V705.856L913.448 711.556V945.975H908.641Z" fill="#FEFF6A"/>
<path d="M948.625 945.975V-7.37823H952.832V299.006L957.038 310.406V628.903L952.832 638.166V945.975H948.625Z" fill="#FEFF6A"/>
</g>
<defs>
<clipPath id="clip0_2227_11328">
<rect width="957.038" height="953.354" rx="476.677" fill="white"/>
</clipPath>
</defs>
</svg>
