<svg width="742" height="740" viewBox="0 0 742 740" fill="none" xmlns="http://www.w3.org/2000/svg">
<g clip-path="url(#clip0_4022_3665)">
<path d="M184.312 733.851V-5.29218H187.676V39.4542L191.039 37.2445V101.878L195.524 98.0111V166.512L198.887 164.302V242.746L202.251 239.432V490.232L197.766 485.813V564.257L194.403 562.047V629.443L191.039 627.786V691.315L187.676 690.21V733.851H184.312Z" fill="#F2F2F2"/>
<path d="M120.672 -5.29218H124.781V74.2569L128.304 72.0472V146.072L131.826 142.758V230.041L135.349 225.621V504.043L131.826 499.624V585.802L128.304 583.592V657.064L124.194 653.75V733.851H120.672V-5.29218Z" fill="#F2F2F2"/>
<path d="M91.3359 -5.29218V733.851H94.8583V630.625L98.9678 635.041V551.688L102.49 556.104V439.077L106.013 447.909V281.754L101.903 290.586V173.008L98.3807 177.976V95.726L94.8583 99.038V-5.29218H91.3359Z" fill="#F2F2F2"/>
<path d="M0 733.851V-5.29218H3.76324V215.678L8.15368 209.048V521.168L4.39044 514.539V733.851H0Z" fill="#F2F2F2"/>
<path d="M29.3672 -5.29218V733.851H34.5855V565.362L37.847 569.781V432.78L42.4131 445.486V285.283L38.4993 296.331V159.883L33.9332 164.854V-5.29218H29.3672Z" fill="#F2F2F2"/>
<path d="M61.9688 -5.29218V733.851H65.2302V601.921L69.0353 605.233V508.631L71.7532 514.151V216.064L68.4917 221.585V123.879L65.7738 127.743V-5.29218H61.9688Z" fill="#F2F2F2"/>
<path d="M151.664 -5.29218H156.556V54.9221L160.225 53.8172V120.108L163.895 119.003V193.028L167.564 189.714V291.36L171.233 284.731V444.381L167.564 438.304V538.846L163.895 536.084V610.661L160.225 607.899V675.847L156.556 673.637V733.851H151.664V-5.29218Z" fill="#F2F2F2"/>
<path d="M213.633 733.851V-5.29218H217.238V26.196L222.044 23.9863V85.8578L225.649 84.753V147.729L229.254 145.52V214.02L232.858 211.811V295.779L236.463 291.36V438.304L232.858 432.78V516.749L229.254 515.644V583.04L225.649 580.83V644.359L222.044 642.701V704.021L217.238 702.363V733.851H213.633Z" fill="#F2F2F2"/>
<path d="M244.625 733.851V-5.29218H248.487V16.2524L252.35 15.1475V75.3618L256.212 73.7045V133.366L260.074 132.261V194.133L263.936 193.028V260.424L269.086 258.214V470.897L263.936 468.135V536.636L260.074 534.426V597.403L256.212 595.193V655.407L252.35 654.855V713.412L248.487 712.307V733.851H244.625Z" fill="#F2F2F2"/>
<path d="M275.594 733.851V-5.29218H279.152V9.62328L282.71 8.24659V65.9705L287.454 63.7608V122.318L291.012 121.213V180.875L294.57 179.77V240.537L298.128 239.268V307.932L301.686 305.451V422.837L298.128 420.627V489.127L294.57 488.023V548.789L289.826 547.405V607.346L286.268 605.689V664.246L282.71 662.589V720.593L279.152 720.041V733.851H275.594Z" fill="#F2F2F2"/>
<path d="M304.969 733.851V-5.29218H309.535V4.09904L314.101 2.99419V60.4463L318.015 59.3415V116.241L321.928 115.689V173.141L325.842 172.036V229.488L329.756 228.383L330.408 288.045L334.322 286.94L333.67 441.619L329.756 441.067L330.408 500.728L325.842 499.071V557.076L321.928 556.523V613.975L318.015 612.87V669.218L314.101 668.113V725.565L308.883 724.46V733.851H304.969Z" fill="#F2F2F2"/>
<path d="M335.922 733.851V-5.29218H340.743V0.784491H344.359V57.1318H347.975V112.374H351.591V168.721H355.207V225.069H360.028V280.311H363.644V448.248H358.823V504.595H355.207V559.838H351.591V616.185H347.975V672.532H344.359V727.775H340.743V733.851H335.922Z" fill="#F2F2F2"/>
<path d="M366.922 733.851V-5.29218H370.702V0.232067H374.483V55.4745L378.263 56.5793V111.822L383.303 112.374V168.721L387.084 169.826V225.069L390.864 226.174V282.521L394.644 283.626V444.934L390.864 446.038V503.491H387.084V559.838H383.303V616.185H378.263V672.532H374.483V728.88H370.702V733.851H366.922Z" fill="#F2F2F2"/>
<path d="M397.93 733.851V-5.29218H401.488V1.88934L405.639 2.44176V58.2366L409.79 59.3415V114.584L413.348 115.689V173.141L416.906 174.246V231.698L420.463 232.803V296.884L424.021 299.094V430.571L420.463 432.78V495.757L416.906 496.861V554.314L413.348 555.418V612.87L409.79 613.975V669.77L405.046 670.323V726.67L401.488 727.775V733.851H397.93Z" fill="#F2F2F2"/>
<path d="M427.266 733.851V-5.29218H432.01V5.20388L435.568 6.30873V62.1036L439.126 62.656V121.213L442.683 122.318V181.98L446.241 183.084V244.956L450.392 247.973V332.791L453.357 339.16V389.691L449.799 397.425V481.394L446.241 483.603V546.58L442.683 547.684V606.794L439.126 608.451V664.798L435.568 665.903V723.355L432.01 724.46V733.851H427.266Z" fill="#F2F2F2"/>
<path d="M459.883 733.851V-5.29218H463.488V10.7281L467.092 11.833V70.3899L470.697 71.4948L471.298 130.604L475.504 132.814V195.238L479.108 197.448V268.158L482.713 271.472V458.192L479.108 460.401V532.217L474.302 534.426V597.403L470.697 598.507V658.169L467.092 659.274V717.279L463.488 718.936V733.851H459.883Z" fill="#F2F2F2"/>
<path d="M489.219 733.851V-5.29218H492.824V18.4621L497.63 20.6718V80.3336L501.235 82.5433V143.31L504.839 146.072V214.02L508.444 217.335V312.352L512.049 318.981V410.683L508.444 416.207V511.224L504.839 514.539V582.487L501.235 584.144V647.121L496.428 648.226V708.992L492.824 710.097V733.851H489.219Z" fill="#F2F2F2"/>
<path d="M520.219 733.851V-5.29218H525.111V29.5105L528.78 31.7202V93.5918L532.449 95.8015V161.54L536.118 164.302V242.746L539.788 247.166V481.394L536.118 485.813V564.257L532.449 566.467V633.31L528.78 634.967V697.944L525.111 699.049V733.851H520.219Z" fill="#F2F2F2"/>
<path d="M551.164 733.851V-5.29218H554.833V42.7687L558.502 44.9784V110.717L562.783 113.479V186.399L566.452 190.266V294.122L570.733 300.751V428.361L566.452 434.99V539.398L562.172 542.16V616.185L558.502 618.395V684.133L554.833 685.79V733.851H551.164Z" fill="#F2F2F2"/>
<path d="M580.547 733.851V-5.29218H584.31V59.3415L588.073 61.5512V132.814L593.091 135.576V220.649L596.854 225.069V504.043L593.091 507.91V593.536L588.073 595.745V667.56L584.31 669.218V733.851H580.547Z" fill="#F2F2F2"/>
<path d="M611.547 733.851V-5.29218H616.565V80.3336L620.328 83.6481V160.988L624.091 164.302V272.577L627.854 279.206V449.353L624.091 455.982V564.257L620.328 567.572V646.016L616.565 648.226V733.851H611.547Z" fill="#F2F2F2"/>
<path d="M644.156 733.851V-5.29218H647.761V105.193L651.366 107.955V197.448L655.571 203.524V526.14L651.366 531.112V620.604L647.761 623.919V733.851H644.156Z" fill="#F2F2F2"/>
<path d="M673.516 733.851V-5.29218H677.721V137.233L681.326 140.548V253.795L684.931 261.529V467.583L680.725 476.422V588.564L677.12 592.431V733.851H673.516Z" fill="#F2F2F2"/>
<path d="M704.477 733.851V-5.29218H708.204V176.455L711 181.98V547.684L708.204 552.104V733.851H704.477Z" fill="#F2F2F2"/>
<path d="M735.477 733.851V-5.29218H738.738V232.25L742 241.089V488.023L738.738 495.204V733.851H735.477Z" fill="#F2F2F2"/>
</g>
<defs>
<clipPath id="clip0_4022_3665">
<rect y="0.428223" width="742" height="739.144" rx="369.572" fill="white"/>
</clipPath>
</defs>
</svg>
