<svg width="958" height="955" viewBox="0 0 958 955" fill="none" xmlns="http://www.w3.org/2000/svg">
<g clip-path="url(#clip0_4023_3695)">
<path d="M237.93 946.786V-6.5675H242.268V51.1467L246.606 48.2966V131.662L252.39 126.674V215.027L256.728 212.177V313.355L261.066 309.079V632.564L255.282 626.864V728.042L250.944 725.192V812.12L246.606 809.982V891.922L242.268 890.497V946.786H237.93Z" fill="#FEFF6A"/>
<path d="M155.844 -6.5675H161.144V96.0356L165.687 93.1855V188.663L170.231 184.388V296.967L174.774 291.266V650.377L170.231 644.677V755.83L165.687 752.98V847.746L160.387 843.47V946.786H155.844V-6.5675Z" fill="#FEFF6A"/>
<path d="M118.008 -6.5675V946.786H122.551V813.644L127.851 819.34V711.83L132.395 717.525V566.584L136.938 577.976V363.667L131.637 375.059V223.405L127.094 229.813V123.727L122.551 127.998V-6.5675H118.008Z" fill="#FEFF6A"/>
<path d="M0.203125 946.786V-6.5675H5.05698V278.441L10.7198 269.891V672.465L5.86596 663.915V946.786H0.203125Z" fill="#FEFF6A"/>
<path d="M38.0781 -6.5675V946.786H44.8088V729.467L49.0155 735.167V558.462L54.9048 574.85V368.219L49.8568 382.469V206.476L43.9675 212.889V-6.5675H38.0781Z" fill="#FEFF6A"/>
<path d="M80.1328 -6.5675V946.786H84.3395V776.621L89.2473 780.893V656.294L92.7528 663.414V278.94L88.5462 286.06V160.038L85.0406 165.022V-6.5675H80.1328Z" fill="#FEFF6A"/>
<path d="M195.82 -6.5675H202.13V71.0973L206.863 69.6723V155.175L211.595 153.75V249.228L216.328 244.953V376.056L221.06 367.506V573.425L216.328 565.587V695.266L211.595 691.703V787.894L206.863 784.331V871.971L202.13 869.121V946.786H195.82V-6.5675Z" fill="#FEFF6A"/>
<path d="M275.742 946.786V-6.5675H280.392V34.0462L286.591 31.1961V110.999L291.24 109.573V190.801L295.89 187.951V276.303L300.539 273.453V381.757L305.189 376.056V565.587L300.539 558.462V666.765L295.89 665.34V752.268L291.24 749.418V831.358L286.591 829.22V908.31L280.392 906.172V946.786H275.742Z" fill="#FEFF6A"/>
<path d="M315.719 946.786V-6.5675H320.7V21.2208L325.682 19.7958V97.4606L330.664 95.323V172.275L335.645 170.85V250.653L340.627 249.228V336.155L347.269 333.305V607.626L340.627 604.063V692.416L335.645 689.566V770.793L330.664 767.943V845.608L325.682 844.895V920.423L320.7 918.998V946.786H315.719Z" fill="#FEFF6A"/>
<path d="M355.664 946.786V-6.5675H360.253V12.6706L364.842 10.8949V85.3477L370.961 82.4977V158.025L375.55 156.6V233.552L380.139 232.127V310.504L384.728 308.869V397.432L389.317 394.232V545.637L384.728 542.786V631.139L380.139 629.714V708.091L374.02 706.306V783.619L369.431 781.481V857.008L364.842 854.871V929.685L360.253 928.973V946.786H355.664Z" fill="#FEFF6A"/>
<path d="M393.555 946.786V-6.5675H399.444V5.54536L405.333 4.12031V78.2225L410.381 76.7975V150.187L415.429 149.475V223.577L420.477 222.152V296.254L425.525 294.829L426.367 371.781L431.415 370.356L430.573 569.862L425.525 569.15L426.367 646.102L420.477 643.964V718.779L415.429 718.067V792.169L410.381 790.744V863.421L405.333 861.996V936.098L398.603 934.673V946.786H393.555Z" fill="#FEFF6A"/>
<path d="M433.477 946.786V-6.5675H439.695V1.27023H444.359V73.9474H449.023V145.2H453.687V217.877H458.351V290.554H464.569V361.806H469.233V578.412H463.015V651.09H458.351V722.342H453.687V795.019H449.023V867.696H444.359V938.948H439.695V946.786H433.477Z" fill="#FEFF6A"/>
<path d="M473.461 946.786V-6.5675H478.337V0.557708H483.213V71.8098L488.089 73.2349V144.487L494.59 145.2V217.877L499.466 219.302V290.554L504.342 291.979V364.656L509.218 366.081V574.137L504.342 575.562V649.665H499.466V722.342H494.59V795.019H488.089V867.696H483.213V940.373H478.337V946.786H473.461Z" fill="#FEFF6A"/>
<path d="M513.453 946.786V-6.5675H518.042V2.69527L523.396 3.40779V75.3724L528.75 76.7975V148.05L533.339 149.475V223.577L537.928 225.002V299.104L542.517 300.529V383.182L547.107 386.032V555.612L542.517 558.462V639.689L537.928 641.114V715.217L533.339 716.642V790.744L528.75 792.169V864.134L522.631 864.846V937.523L518.042 938.948V946.786H513.453Z" fill="#FEFF6A"/>
<path d="M551.297 946.786V-6.5675H557.416V6.9704L562.005 8.39544V80.3601L566.594 81.0726V156.6L571.183 158.025V234.977L575.772 236.402V316.205L581.126 320.096V429.496L584.95 437.71V502.885L580.361 512.861V621.164L575.772 624.014V705.241L571.183 706.666V782.906L566.594 785.044V857.721L562.005 859.146V933.248L557.416 934.673V946.786H551.297Z" fill="#FEFF6A"/>
<path d="M593.367 946.786V-6.5675H598.017V14.0956L602.666 15.5207V91.0479L607.316 92.473L608.091 168.713L613.515 171.563V252.078L618.164 254.928V346.131L622.814 350.406V591.238L618.164 594.088V686.716L611.965 689.566V770.793L607.316 772.218V849.171L602.666 850.596V925.41L598.017 927.548V946.786H593.367Z" fill="#FEFF6A"/>
<path d="M631.195 946.786V-6.5675H635.845V24.0709L642.044 26.921V103.873L646.694 106.723V185.101L651.343 188.663V276.303L655.993 280.579V403.132L660.642 411.682V529.961L655.993 537.086V659.64L651.343 663.915V751.555L646.694 753.693V834.92L640.494 836.345V914.723L635.845 916.148V946.786H631.195Z" fill="#FEFF6A"/>
<path d="M671.188 946.786V-6.5675H677.498V38.3213L682.23 41.1714V120.974L686.963 123.824V208.614L691.695 212.177V313.355L696.428 319.055V621.164L691.695 626.864V728.042L686.963 730.892V817.107L682.23 819.245V900.472L677.498 901.897V946.786H671.188Z" fill="#FEFF6A"/>
<path d="M711.102 946.786V-6.5675H715.834V55.4218L720.567 58.2719V143.062L726.088 146.625V240.677L730.82 245.665V379.619L736.342 388.169V552.762L730.82 561.312V695.979L725.299 699.541V795.019L720.567 797.869V882.659L715.834 884.797V946.786H711.102Z" fill="#FEFF6A"/>
<path d="M749 946.786V-6.5675H753.854V76.7975L758.708 79.6476V171.563L765.18 175.125V284.854L770.033 290.554V650.377L765.18 655.365V765.806L758.708 768.656V861.283L753.854 863.421V946.786H749Z" fill="#FEFF6A"/>
<path d="M788.984 946.786V-6.5675H795.456V103.873L800.31 108.148V207.901L805.164 212.177V351.831L810.018 360.381V579.838L805.164 588.388V728.042L800.31 732.317V833.495L795.456 836.345V946.786H788.984Z" fill="#FEFF6A"/>
<path d="M831.039 946.786V-6.5675H835.689V135.937L840.338 139.499V254.928L845.762 262.766V678.878L840.338 685.291V800.719L835.689 804.994V946.786H831.039Z" fill="#FEFF6A"/>
<path d="M868.906 946.786V-6.5675H874.331V177.263L878.98 181.538V327.605L883.63 337.58V603.351L878.205 614.751V759.393L873.556 764.381V946.786H868.906Z" fill="#FEFF6A"/>
<path d="M908.844 946.786V-6.5675H913.651V227.852L917.257 234.977V706.666L913.651 712.367V946.786H908.844Z" fill="#FEFF6A"/>
<path d="M948.828 946.786V-6.5675H953.035V299.817L957.241 311.217V629.714L953.035 638.977V946.786H948.828Z" fill="#FEFF6A"/>
</g>
<defs>
<clipPath id="clip0_4023_3695">
<rect x="0.203125" y="0.810669" width="957.038" height="953.354" rx="476.677" fill="white"/>
</clipPath>
</defs>
</svg>
