<svg width="200" height="200" viewBox="0 0 200 200" fill="none" xmlns="http://www.w3.org/2000/svg">
<circle cx="100" cy="100" r="100" fill="#FEFF6A"/>
<path d="M151.65 114.65L147.6 113.12C148.12 111.12 149.17 109.57 150.75 108.47C152.33 107.35 154.16 106.79 156.24 106.79C158.54 106.79 160.39 107.4 161.79 108.62C163.21 109.82 163.92 111.53 163.92 113.75C163.92 114.77 163.75 115.73 163.41 116.63C163.07 117.53 162.57 118.35 161.91 119.09C161.27 119.83 160.61 120.48 159.93 121.04C159.25 121.58 158.44 122.15 157.5 122.75L156.09 123.65H164.13V128H147.9V124.61L150.39 122.87C151.69 121.99 153.28 120.87 155.16 119.51C155.86 118.97 156.45 118.49 156.93 118.07C157.43 117.63 157.92 117.04 158.4 116.3C158.88 115.56 159.12 114.85 159.12 114.17C159.12 113.21 158.85 112.49 158.31 112.01C157.77 111.53 157.02 111.29 156.06 111.29C153.98 111.29 152.51 112.41 151.65 114.65Z" fill="black"/>
<path d="M75.56 107.6C75.56 106 74.84 104.72 73.4 103.76C71.92 102.84 69.38 101.92 65.78 101C62.14 100.08 59.64 99.36 58.28 98.84C52.52 96.72 49.64 93.24 49.64 88.4C49.64 85.72 50.58 83.46 52.46 81.62C54.38 79.74 56.74 78.34 59.54 77.42C61.58 76.82 63.76 76.52 66.08 76.52C72.92 76.52 78.34 78.52 82.34 82.52L78.38 87.68C74.9 84.76 70.74 83.3 65.9 83.3C65.02 83.3 64.12 83.38 63.2 83.54C62.32 83.66 61.38 83.88 60.38 84.2C59.42 84.52 58.64 85.04 58.04 85.76C57.44 86.44 57.14 87.26 57.14 88.22C57.14 89.82 58.14 91.1 60.14 92.06C61.14 92.62 63.46 93.36 67.1 94.28C70.74 95.2 73.22 95.92 74.54 96.44C77.26 97.52 79.36 98.9 80.84 100.58C82.32 102.22 83.06 104.38 83.06 107.06C83.06 109.7 82.2 112 80.48 113.96C78.8 115.92 76.76 117.34 74.36 118.22C71.96 119.06 69.48 119.48 66.92 119.48C63.64 119.48 60.22 118.8 56.66 117.44C53.14 116.04 50.4 114.16 48.44 111.8L52.76 106.7C54.64 108.66 56.88 110.16 59.48 111.2C62.08 112.2 64.78 112.7 67.58 112.7C69.58 112.7 71.4 112.3 73.04 111.5C74.72 110.7 75.56 109.4 75.56 107.6ZM95.4716 119H88.6316V87.8H95.4716V119ZM88.0316 78.86C88.0316 77.82 88.4316 76.96 89.2316 76.28C90.0316 75.6 90.9716 75.26 92.0516 75.26C93.1316 75.26 94.0516 75.6 94.8116 76.28C95.6116 76.92 96.0116 77.78 96.0116 78.86C96.0116 79.94 95.6316 80.84 94.8716 81.56C94.1116 82.24 93.1716 82.58 92.0516 82.58C90.9316 82.58 89.9716 82.24 89.1716 81.56C88.4116 80.88 88.0316 79.98 88.0316 78.86ZM107.367 113.24C103.247 109.08 101.187 104 101.187 98C101.187 92 103.267 86.92 107.427 82.76C111.627 78.6 116.707 76.52 122.667 76.52C128.827 76.52 133.947 78.58 138.027 82.7C142.107 86.82 144.147 91.92 144.147 98C144.147 104.08 142.067 109.18 137.907 113.3C133.787 117.42 128.707 119.48 122.667 119.48C116.587 119.48 111.487 117.4 107.367 113.24ZM112.647 87.74C110.047 90.58 108.747 94 108.747 98C108.747 102 110.087 105.42 112.767 108.26C115.447 111.1 118.747 112.52 122.667 112.52C126.787 112.52 130.127 111.14 132.687 108.38C135.287 105.58 136.587 102.12 136.587 98C136.587 93.96 135.247 90.54 132.567 87.74C129.927 84.9 126.627 83.48 122.667 83.48C118.627 83.48 115.287 84.9 112.647 87.74Z" fill="black"/>
</svg>
