<svg width="18" height="18" viewBox="0 0 18 18" xmlns="http://www.w3.org/2000/svg">
    <path fill-rule="evenodd" clip-rule="evenodd"
        d="M2.78125 0.25C2.36704 0.25 2.03125 0.585786 2.03125 1V15.2222C2.03125 15.8926 2.29757 16.5356 2.77162 17.0096C3.24567 17.4837 3.88862 17.75 4.55903 17.75H13.4479C14.1183 17.75 14.7613 17.4837 15.2353 17.0096C15.7094 16.5356 15.9757 15.8926 15.9757 15.2222V5.44444C15.9757 5.24553 15.8967 5.05477 15.756 4.91411L11.3116 0.46967C11.1709 0.329018 10.9802 0.25 10.7812 0.25H2.78125ZM3.53125 15.2222V1.75H9.14062V6.33333C9.14062 6.74755 9.47641 7.08333 9.89062 7.08333H14.4757V15.2222C14.4757 15.4948 14.3674 15.7562 14.1747 15.949C13.9819 16.1417 13.7205 16.25 13.4479 16.25H4.55903C4.28644 16.25 4.02503 16.1417 3.83228 15.949C3.63953 15.7562 3.53125 15.4948 3.53125 15.2222ZM14.3039 5.58333L10.6406 1.92004V5.58333H14.3039Z" />
</svg>