<svg xmlns="http://www.w3.org/2000/svg" width="20" height="20" viewBox="0 0 20 20">
    <path fill-rule="evenodd" clip-rule="evenodd"
        d="M11.7848 1.40371C12.2998 0.861696 13.006 0.550049 13.7505 0.550049C14.1184 0.550049 14.4817 0.626369 14.8194 0.773624C15.1571 0.920835 15.4614 1.13556 15.7162 1.40371C15.9708 1.67177 16.1711 1.98809 16.3071 2.33373C16.3567 2.45972 16.3976 2.58906 16.4296 2.72075H19.4508V4.12075H16.4296C16.3976 4.25243 16.3567 4.38177 16.3071 4.50776C16.1711 4.8534 15.9708 5.16972 15.7162 5.43778C15.4614 5.70593 15.1571 5.92066 14.8194 6.06787C14.4817 6.21512 14.1184 6.29144 13.7505 6.29144C13.006 6.29144 12.2998 5.9798 11.7848 5.43778C11.4337 5.06818 11.1905 4.61199 11.0717 4.12075H0.550781V2.72075H11.0717C11.1905 2.2295 11.4337 1.77331 11.7848 1.40371ZM13.7505 1.95005C13.4012 1.95005 13.0584 2.0958 12.7998 2.36796C12.5401 2.64133 12.3883 3.01944 12.3883 3.42075C12.3883 3.82205 12.5401 4.20016 12.7998 4.47354C13.0584 4.74569 13.4012 4.89144 13.7505 4.89144C13.9243 4.89144 14.0972 4.85547 14.2599 4.78455C14.4226 4.71358 14.5729 4.60853 14.7012 4.47354C14.8295 4.33847 14.9331 4.17619 15.0043 3.99511C15.0762 3.81254 15.1136 3.61716 15.1136 3.42075C15.1136 3.22433 15.0762 3.02895 15.0043 2.84638C14.9331 2.6653 14.8295 2.50302 14.7012 2.36796C14.5729 2.23296 14.4227 2.12791 14.2599 2.05694C14.0972 1.98602 13.9243 1.95005 13.7505 1.95005ZM3.03484 7.98251C3.54975 7.4405 4.25602 7.12885 5.00051 7.12885C5.74501 7.12885 6.45127 7.4405 6.96618 7.98251C7.31705 8.35185 7.56089 8.80798 7.68005 9.29955H19.4508V10.6996H7.68005C7.56089 11.1911 7.31705 11.6473 6.96618 12.0166C6.45127 12.5586 5.74501 12.8702 5.00051 12.8702C4.25602 12.8702 3.54975 12.5586 3.03484 12.0166C2.68372 11.647 2.4405 11.1908 2.3217 10.6996H0.550781V9.29955H2.3217C2.4405 8.80831 2.68372 8.35212 3.03484 7.98251ZM5.00051 8.52885C4.65117 8.52885 4.30839 8.6746 4.04984 8.94676C3.79013 9.22014 3.63835 9.59824 3.63835 9.99955C3.63835 10.4009 3.79013 10.779 4.04984 11.0523C4.30839 11.3245 4.65117 11.4702 5.00051 11.4702C5.34985 11.4702 5.69263 11.3245 5.95118 11.0523C6.21143 10.7784 6.36362 10.4001 6.36362 9.99955C6.36362 9.59904 6.21143 9.2207 5.95118 8.94676C5.69263 8.6746 5.34986 8.52885 5.00051 8.52885ZM9.28471 14.5613C9.79962 14.0193 10.5059 13.7077 11.2504 13.7077C11.995 13.7077 12.7014 14.0194 13.2164 14.5615C13.5674 14.9309 13.811 15.3869 13.93 15.8784H19.4508V17.2784H13.9301C13.8111 17.77 13.5675 18.2266 13.2164 18.5962C12.7014 19.1383 11.995 19.4501 11.2504 19.4501C10.505 19.4501 9.79902 19.1368 9.28471 18.5954C8.93358 18.2258 8.69036 17.7696 8.57157 17.2784H0.550781V15.8784H8.57157C8.69036 15.3871 8.93358 14.9309 9.28471 14.5613ZM11.2504 15.1077C10.901 15.1077 10.5583 15.2534 10.2997 15.5256C10.04 15.7989 9.88821 16.177 9.88821 16.5784C9.88821 16.9797 10.04 17.3578 10.2997 17.6311C10.5589 17.9039 10.9019 18.05 11.2504 18.05C11.5998 18.05 11.9427 17.9042 12.2014 17.632C12.4613 17.3584 12.6135 16.9796 12.6135 16.5784C12.6135 16.1775 12.4616 15.7996 12.2014 15.5257C11.9427 15.2535 11.5998 15.1077 11.2504 15.1077Z" />
</svg>