<svg width="16" height="16" viewBox="0 0 16 16" xmlns="http://www.w3.org/2000/svg">
    <path fill-rule="evenodd" clip-rule="evenodd"
        d="M16 14.9285L14.9285 16L10.5293 11.6008C9.42169 12.4769 8.02193 13 6.5 13C2.91015 13 0 10.0899 0 6.5C0 2.91015 2.91015 0 6.5 0C10.0899 0 13 2.91015 13 6.5C13 8.02193 12.4769 9.42169 11.6008 10.5293L16 14.9285ZM6.51562 11.5156C9.27705 11.5156 11.5156 9.27705 11.5156 6.51562C11.5156 3.7542 9.27705 1.51562 6.51562 1.51562C3.7542 1.51562 1.51562 3.7542 1.51562 6.51562C1.51562 9.27705 3.7542 11.5156 6.51562 11.5156Z" />
</svg>