<svg width="60" height="60" viewBox="0 0 60 60" xmlns="http://www.w3.org/2000/svg">
    <path
        d="M36.1462 34.2696H34.6931C34.1429 34.2696 33.9729 33.8321 32.9846 32.8305C32.1236 31.9969 31.7429 31.8849 31.5315 31.8849C31.2347 31.8849 31.15 31.9696 31.15 32.379V33.6914C31.15 34.0449 31.0373 34.2563 30.1057 34.2563C28.2265 34.1302 26.6113 33.1053 25.6737 31.6115L25.6597 31.5881C24.5714 30.2364 23.7691 28.6072 23.3723 26.8254L23.3577 26.7474C23.3577 26.536 23.4424 26.3379 23.8518 26.3379H25.3049C25.6717 26.3379 25.8131 26.5073 25.9551 26.9021C26.674 28.9774 27.8744 30.7979 28.3685 30.7979C28.5519 30.7979 28.6366 30.7132 28.6366 30.2477V28.1011C28.5799 27.1128 28.0578 27.0288 28.0578 26.676C28.0638 26.4873 28.2185 26.3366 28.4079 26.3366C28.4139 26.3366 28.4192 26.3366 28.4252 26.3372H28.4245H30.7112C31.022 26.3372 31.1347 26.5066 31.1347 26.8734V29.7676C31.1347 30.0777 31.2761 30.1911 31.3607 30.1911C31.5441 30.1911 31.7002 30.0777 32.0383 29.7396C32.7412 28.8813 33.342 27.8997 33.8001 26.8414L33.8308 26.7614C33.9275 26.5193 34.1596 26.3512 34.431 26.3512C34.4437 26.3512 34.4557 26.3519 34.4683 26.3526H34.4663H35.9194C36.3569 26.3526 36.4563 26.5773 36.3569 26.8887C35.7741 28.1725 35.1192 29.2754 34.3603 30.2971L34.395 30.2477C34.2403 30.5018 34.1836 30.6145 34.395 30.8979C34.5497 31.1093 35.0585 31.5468 35.3973 31.9423C35.8874 32.4271 36.2982 32.9912 36.6083 33.6141L36.625 33.6508C36.7664 34.0589 36.5543 34.2709 36.1448 34.2709L36.1462 34.2696ZM33.0699 20H26.9301C21.3264 20 20 21.3264 20 26.9301V33.0699C20 38.6736 21.3264 40 26.9301 40H33.0699C38.6736 40 40 38.6736 40 33.0699V26.9301C40 21.3264 38.6589 20 33.0699 20Z" />
</svg>