<svg width="60" height="60" viewBox="0 0 60 60" xmlns="http://www.w3.org/2000/svg">
    <path fill-rule="evenodd" clip-rule="evenodd"
        d="M29.3177 21.2689C29.7019 20.9104 30.2981 20.9104 30.6823 21.2689L34.1109 24.4689C34.5146 24.8458 34.5365 25.4786 34.1596 25.8823C33.7828 26.2861 33.15 26.3079 32.7463 25.9311L31 24.3012V32.1333C31 32.6856 30.5523 33.1333 30 33.1333C29.4477 33.1333 29 32.6856 29 32.1333V24.3012L27.2537 25.9311C26.85 26.3079 26.2172 26.2861 25.8404 25.8823C25.4635 25.4786 25.4854 24.8458 25.8891 24.4689L29.3177 21.2689ZM22 29.5333C22.5523 29.5333 23 29.981 23 30.5333V35.8667C23 36.1441 23.1175 36.4254 23.3518 36.6441C23.5885 36.865 23.9233 37 24.2857 37H35.7143C36.0767 37 36.4115 36.865 36.6482 36.6441C36.8825 36.4254 37 36.1441 37 35.8667V30.5333C37 29.981 37.4477 29.5333 38 29.5333C38.5523 29.5333 39 29.981 39 30.5333V35.8667C39 36.7208 38.6358 37.5248 38.0128 38.1062C37.3922 38.6855 36.5643 39 35.7143 39H24.2857C23.4357 39 22.6078 38.6855 21.9872 38.1062C21.3642 37.5248 21 36.7208 21 35.8667V30.5333C21 29.981 21.4477 29.5333 22 29.5333Z" />
</svg>