<svg width="60" height="60" viewBox="0 0 60 60" xmlns="http://www.w3.org/2000/svg">
    <path
        d="M30 18C23.376 18 18 23.376 18 30C18 36.624 23.376 42 30 42C36.624 42 42 36.624 42 30C42 23.376 36.624 18 30 18ZM35.568 26.16C35.388 28.056 34.608 32.664 34.212 34.788C34.044 35.688 33.708 35.988 33.396 36.024C32.7 36.084 32.172 35.568 31.5 35.124C30.444 34.428 29.844 33.996 28.824 33.324C27.636 32.544 28.404 32.112 29.088 31.416C29.268 31.236 32.34 28.44 32.4 28.188C32.4083 28.1498 32.4072 28.1102 32.3968 28.0726C32.3863 28.0349 32.3668 28.0004 32.34 27.972C32.268 27.912 32.172 27.936 32.088 27.948C31.98 27.972 30.3 29.088 27.024 31.296C26.544 31.62 26.112 31.788 25.728 31.776C25.296 31.764 24.48 31.536 23.868 31.332C23.112 31.092 22.524 30.96 22.572 30.54C22.596 30.324 22.896 30.108 23.46 29.88C26.964 28.356 29.292 27.348 30.456 26.868C33.792 25.476 34.476 25.236 34.932 25.236C35.028 25.236 35.256 25.26 35.4 25.38C35.52 25.476 35.556 25.608 35.568 25.704C35.556 25.776 35.58 25.992 35.568 26.16Z" />
</svg>