<svg width="70" height="70" viewBox="0 0 70 70" xmlns="http://www.w3.org/2000/svg">
    <path
        d="M42.99 40.5505H41.101C40.3858 40.5505 40.1647 39.9818 38.8799 38.6797C37.7607 37.596 37.2657 37.4504 36.9909 37.4504C36.6051 37.4504 36.495 37.5605 36.495 38.0928V39.7989C36.495 40.2583 36.3485 40.5332 35.1374 40.5332C32.6944 40.3693 30.5947 39.0368 29.3758 37.0949L29.3576 37.0646C27.9428 35.3073 26.8999 33.1894 26.384 30.873L26.365 30.7716C26.365 30.4967 26.4751 30.2393 27.0074 30.2393H28.8964C29.3732 30.2393 29.557 30.4595 29.7417 30.9727C30.6762 33.6706 32.2367 36.0373 32.8791 36.0373C33.1175 36.0373 33.2276 35.9272 33.2276 35.3221V32.5314C33.1539 31.2466 32.4751 31.1374 32.4751 30.6788C32.4829 30.4335 32.684 30.2375 32.9302 30.2375C32.938 30.2375 32.9449 30.2375 32.9528 30.2384H32.9519H35.9246C36.3286 30.2384 36.4751 30.4586 36.4751 30.9354V34.6979C36.4751 35.101 36.6589 35.2484 36.769 35.2484C37.0074 35.2484 37.2102 35.101 37.6498 34.6615C38.5635 33.5457 39.3446 32.2696 39.9402 30.8938L39.9801 30.7898C40.1058 30.4751 40.4075 30.2566 40.7603 30.2566C40.7768 30.2566 40.7924 30.2575 40.8088 30.2583H40.8062H42.6953C43.264 30.2583 43.3932 30.5505 43.264 30.9554C42.5063 32.6242 41.655 34.0581 40.6684 35.3862L40.7135 35.3221C40.5124 35.6524 40.4387 35.7989 40.7135 36.1673C40.9146 36.4421 41.5761 37.0108 42.0165 37.5249C42.6537 38.1552 43.1877 38.8886 43.5908 39.6983L43.6125 39.746C43.7963 40.2765 43.5206 40.5522 42.9883 40.5522L42.99 40.5505ZM38.9909 22H31.0091C23.7243 22 22 23.7243 22 31.0091V38.9909C22 46.2757 23.7243 48 31.0091 48H38.9909C46.2757 48 48 46.2757 48 38.9909V31.0091C48 23.7243 46.2566 22 38.9909 22Z" />
</svg>