<svg width="70" height="70" viewBox="0 0 70 70" xmlns="http://www.w3.org/2000/svg">
    <path fill-rule="evenodd" clip-rule="evenodd"
        d="M32.1838 38.6944V30.6776C34.9729 32.0168 37.133 33.3104 39.6878 34.7052C37.5807 35.8976 34.9729 37.2356 32.1838 38.6944ZM47.7274 26.6904C47.2463 26.0436 46.4263 25.5401 45.5533 25.3734C42.9874 24.8762 26.9794 24.8748 24.4148 25.3734C23.7148 25.5074 23.0914 25.831 22.5559 26.334C20.2995 28.471 21.0065 39.931 21.5504 41.7874C21.7791 42.5909 22.0748 43.1704 22.4471 43.5507C22.9268 44.0536 23.5837 44.3999 24.3381 44.5552C26.4508 45.0011 37.3353 45.2505 45.5087 44.6222C46.2617 44.4883 46.9283 44.1308 47.4541 43.6065C49.5403 41.4781 49.3981 29.3745 47.7274 26.6904Z" />
</svg>