<svg width="60" height="60" viewBox="0 0 60 60" fill="none" xmlns="http://www.w3.org/2000/svg">
<rect x="7.09375" y="12" width="45.8182" height="36" stroke="black" stroke-width="2"/>
<path d="M15.2734 34.091V39.8183H21.4098M15.2734 34.091V28.5683H21.4098V25.9092H38.5916V28.5683H44.728V34.091M15.2734 34.091H21.4098M44.728 34.091V39.8183H39.0007M44.728 34.091H39.0007M21.4098 34.091V39.8183M21.4098 34.091H27.1371M21.4098 39.8183H27.1371M27.1371 34.091V39.8183M27.1371 34.091H33.2734M27.1371 39.8183H33.2734M33.2734 34.091V39.8183M33.2734 34.091H39.0007M33.2734 39.8183H39.0007M39.0007 34.091V39.8183" stroke="black" stroke-width="2"/>
<path d="M21 20.3535H39.4091" stroke="black" stroke-width="2"/>
</svg>
