<svg xmlns="http://www.w3.org/2000/svg" width="60" height="60" viewBox="0 0 60 60" fill="none">
    <path d="M50 12C52.7614 12 55 14.2386 55 17V43C55 45.7614 52.7614 48 50 48H10C7.23858 48 5 45.7614 5 43V17C5 14.2386 7.23858 12 10 12H50ZM32.7734 35.3525C31.0939 36.4722 28.9061 36.4722 27.2266 35.3525L7 21.8682V43C7 44.6569 8.34315 46 10 46H50C51.6569 46 53 44.6569 53 43V21.8682L32.7734 35.3525ZM10 14C8.34315 14 7 15.3431 7 17V19.4639L28.3359 33.6885C29.3436 34.3603 30.6564 34.3603 31.6641 33.6885L53 19.4639V17C53 15.3431 51.6569 14 50 14H10Z"
          fill="#77787D"/>
</svg>