<svg width="216" height="40" viewBox="0 0 216 40" fill="none" xmlns="http://www.w3.org/2000/svg">

    <path
        d="M157.46 20C157.46 6.0417 166.22 0 186.73 0C207.241 0 216 6.0417 216 20C216 33.9583 207.241 40 186.73 40C166.22 40 157.46 33.9583 157.46 20ZM186.73 32.9166C201.472 32.9166 209.377 29.375 209.377 20C209.377 10.8333 201.472 7.08335 186.73 7.08335C171.988 7.08335 164.083 10.8333 164.083 20C164.083 29.375 171.988 32.9166 186.73 32.9166Z"
        fill="black" />
    <path d="M145.494 5.41665V0H136.949V8.125L145.494 5.41665Z" fill="black" />
    <path d="M145.494 39.166V11.041L136.949 13.9577V39.166H145.494Z" fill="black" />
    <path
        d="M116.653 18.125C112.807 15.8334 107.679 15.8334 103.193 15.625C101.056 15.625 98.7057 15.4166 96.3558 15.4166C94.86 15.4166 93.5781 15.4166 92.2962 15.4166H91.4416C90.8009 15.4166 90.1597 15.4166 89.0917 15.4166C84.8186 15.4166 78.1957 15 77.341 11.6666C76.4864 8.33335 83.964 7.29165 92.0828 7.29165C99.5603 7.29165 107.893 8.125 110.456 8.95835C112.593 9.58335 114.089 10.625 114.729 11.6666L123.275 8.95835C122.207 7.29165 120.712 5.4167 118.576 3.95831C113.447 0.83333 102.551 0 94.4327 0C86.1005 0 72.2134 0.625 69.6496 9.79165C69.4356 12.0833 69.4356 14.5834 70.5042 16.6667C72.6407 21.0417 78.623 22.5 83.1094 22.7083C86.1005 22.9166 89.0917 22.9167 92.2962 22.9167C95.7146 22.9167 99.133 22.7083 102.551 22.7083C103.406 22.7083 104.261 22.7083 105.115 22.7083C111.311 22.9166 116.653 25 114.943 28.75C113.875 31.6667 106.397 32.5 98.9196 32.5C91.8689 32.5 84.8186 31.6666 82.2548 30.8333C79.2636 29.7917 77.5544 28.125 77.341 27.2917L68.795 30C69.863 31.875 71.3588 34.375 74.136 36.0416C79.0503 39.1666 90.1596 40 98.065 40C106.397 40 120.285 39.375 122.848 30.2083C123.489 27.9166 123.275 25 121.78 22.7083C120.498 20.8333 118.576 19.1667 116.653 18.125Z"
        fill="black" />
    <path
        d="M0 20C0 6.0417 8.75963 0 29.27 0C49.7805 0 58.5402 6.0417 58.5402 20C58.5402 33.9583 49.7805 40 29.27 40C8.75963 40 0 33.9583 0 20ZM29.27 32.9166C44.0118 32.9166 51.9167 29.375 51.9167 20C51.9167 10.8333 44.0118 7.08335 29.27 7.08335C14.5282 7.08335 6.62311 10.8333 6.62311 20C6.62311 29.375 14.5282 32.9166 29.27 32.9166Z"
        fill="black" />

</svg>