<svg width="881" height="877" viewBox="0 0 881 877" fill="none" xmlns="http://www.w3.org/2000/svg">
<g clip-path="url(#clip0_4028_3498)">
<path d="M219.078 870.213V-6.78735H223.069V46.3046L227.06 43.6828V120.371L232.38 115.783V197.059L236.371 194.438V287.512L240.362 283.58V581.157L235.041 575.913V668.988L231.05 666.366V746.331L227.06 744.365V819.742L223.069 818.432V870.213H219.078Z" fill="#FEFF6A"/>
<path d="M143.562 -6.78735H148.438V87.5983L152.618 84.9765V172.808L156.797 168.875V272.437L160.976 267.193V597.543L156.797 592.299V694.55L152.618 691.929V779.104L147.742 775.172V870.213H143.562V-6.78735Z" fill="#FEFF6A"/>
<path d="M108.766 -6.78735V870.213H112.945V747.734L117.821 752.974V654.074L122 659.313V520.461L126.18 530.94V333.795L121.304 344.275V204.767L117.124 210.661V113.072L112.945 117.001V-6.78735H108.766Z" fill="#FEFF6A"/>
<path d="M0.390625 870.213V-6.78735H4.85574V255.395L10.065 247.53V617.862L5.59992 609.997V870.213H0.390625Z" fill="#FEFF6A"/>
<path d="M35.2344 -6.78735V870.213H41.426V670.299L45.2958 675.542V512.989L50.7134 528.065V337.982L46.0697 351.092V189.194L40.652 195.093V-6.78735H35.2344Z" fill="#FEFF6A"/>
<path d="M73.9219 -6.78735V870.213H77.7916V713.676L82.3064 717.606V602.986L85.5312 609.536V255.854L81.6614 262.404V146.475L78.4366 151.06V-6.78735H73.9219Z" fill="#FEFF6A"/>
<path d="M180.344 -6.78735H186.148V64.6573L190.502 63.3464V142.001L194.855 140.69V228.521L199.209 224.589V345.192L203.562 337.327V526.754L199.209 519.544V638.837L194.855 635.559V724.046L190.502 720.769V801.39L186.148 798.768V870.213H180.344V-6.78735Z" fill="#FEFF6A"/>
<path d="M253.867 870.213V-6.78735H258.144V30.5736L263.847 27.9518V101.363L268.124 100.052V174.774L272.401 172.152V253.429L276.678 250.807V350.436L280.956 345.192V519.544L276.678 512.989V612.618L272.401 611.308V691.273L268.124 688.651V764.029L263.847 762.062V834.818L258.144 832.852V870.213H253.867Z" fill="#FEFF6A"/>
<path d="M290.641 870.213V-6.78735H295.223V18.7754L299.806 17.4645V88.9092L304.388 86.9428V157.732L308.971 156.421V229.832L313.554 228.521V308.487L319.664 305.865V558.216L313.554 554.938V636.215L308.971 633.593V708.315L304.388 705.693V777.138L299.806 776.482V845.961L295.223 844.65V870.213H290.641Z" fill="#FEFF6A"/>
<path d="M327.383 870.213V-6.78735H331.604V10.91L335.826 9.2765V77.7665L341.455 75.1446V144.623L345.676 143.312V214.101L349.898 212.79V284.891L354.119 283.386V364.856L358.341 361.912V501.191L354.119 498.569V579.846L349.898 578.535V650.635L344.269 648.992V720.113L340.047 718.147V787.625L335.826 785.659V854.482L331.604 853.826V870.213H327.383Z" fill="#FEFF6A"/>
<path d="M362.234 870.213V-6.78735H367.652V4.3554L373.07 3.04449V71.2119L377.713 69.901V137.413L382.357 136.757V204.925L387.001 203.614V271.781L391.645 270.47L392.419 341.26L397.062 339.949L396.288 523.476L391.645 522.821L392.419 593.61L387.001 591.644V660.467L382.357 659.811V727.979L377.713 726.668V793.524L373.07 792.213V860.381L366.878 859.07V870.213H362.234Z" fill="#FEFF6A"/>
<path d="M398.961 870.213V-6.78735H404.681V0.422661H408.972V67.2792H413.262V132.825H417.553V199.681H421.843V266.538H427.564V332.083H431.854V531.342H426.133V598.198H421.843V663.744H417.553V730.601H413.262V797.457H408.972V863.003H404.681V870.213H398.961Z" fill="#FEFF6A"/>
<path d="M435.75 870.213V-6.78735H440.235V-0.232795H444.721V65.3128L449.206 66.6237V132.169L455.187 132.825V199.681L459.672 200.992V266.538L464.158 267.849V334.705L468.643 336.016V527.409L464.158 528.72V596.888H459.672V663.744H455.187V730.601H449.206V797.457H444.721V864.314H440.235V870.213H435.75Z" fill="#FEFF6A"/>
<path d="M472.531 870.213V-6.78735H476.753V1.73357L481.678 2.38903V68.5901L486.603 69.901V135.447L490.825 136.757V204.925L495.046 206.236V274.403L499.268 275.714V351.747L503.489 354.369V510.367L499.268 512.989V587.711L495.046 589.022V657.189L490.825 658.5V726.668L486.603 727.979V794.18L480.974 794.835V861.692L476.753 863.003V870.213H472.531Z" fill="#FEFF6A"/>
<path d="M507.344 870.213V-6.78735H512.972V5.66631L517.194 6.97722V73.1783L521.416 73.8337V143.312L525.637 144.623V215.412L529.859 216.723V290.134L534.784 293.714V394.352L538.302 401.908V461.864L534.08 471.04V570.669L529.859 573.291V648.013L525.637 649.324V719.458L521.416 721.424V788.281L517.194 789.592V857.759L512.972 859.07V870.213H507.344Z" fill="#FEFF6A"/>
<path d="M546.047 870.213V-6.78735H550.324V12.2209L554.601 13.5318V83.0101L558.878 84.321L559.591 154.455L564.581 157.077V231.143L568.858 233.765V317.663L573.135 321.596V543.14L568.858 545.762V630.971L563.155 633.593V708.315L558.878 709.626V780.415L554.601 781.726V850.549L550.324 852.515V870.213H546.047Z" fill="#FEFF6A"/>
<path d="M580.852 870.213V-6.78735H585.129V21.3972L590.831 24.0191V94.8083L595.109 97.4301V169.53L599.386 172.808V253.429L603.663 257.361V370.1L607.94 377.965V486.771L603.663 493.326V606.064L599.386 609.997V690.618L595.109 692.584V767.306L589.406 768.617V840.717L585.129 842.028V870.213H580.852Z" fill="#FEFF6A"/>
<path d="M617.633 870.213V-6.78735H623.437V34.5064L627.791 37.1282V110.539L632.144 113.161V191.16L636.498 194.438V287.512L640.851 292.756V570.669L636.498 575.913V668.988L632.144 671.609V750.92L627.791 752.886V827.608L623.437 828.919V870.213H617.633Z" fill="#FEFF6A"/>
<path d="M654.352 870.213V-6.78735H658.705V50.2373L663.059 52.8591V130.858L668.138 134.136V220.656L672.491 225.244V348.47L677.57 356.335V507.746L672.491 515.611V639.492L667.412 642.769V730.601L663.059 733.222V811.222L658.705 813.188V870.213H654.352Z" fill="#FEFF6A"/>
<path d="M689.211 870.213V-6.78735H693.676V69.901L698.141 72.5228V157.077L704.095 160.354V261.294L708.56 266.538V597.543L704.095 602.131V703.727L698.141 706.349V791.558L693.676 793.524V870.213H689.211Z" fill="#FEFF6A"/>
<path d="M726 870.213V-6.78735H731.953V94.8083L736.419 98.741V190.505L740.884 194.438V322.907L745.349 330.772V532.653L740.884 540.518V668.988L736.419 672.92V765.995L731.953 768.617V870.213H726Z" fill="#FEFF6A"/>
<path d="M764.688 870.213V-6.78735H768.965V124.304L773.242 127.581V233.765L778.232 240.975V623.761L773.242 629.66V735.844L768.965 739.777V870.213H764.688Z" fill="#FEFF6A"/>
<path d="M799.516 870.213V-6.78735H804.506V162.32L808.783 166.253V300.621L813.06 309.798V554.283L808.07 564.77V697.828L803.793 702.416V870.213H799.516Z" fill="#FEFF6A"/>
<path d="M836.258 870.213V-6.78735H840.68V208.858L843.997 215.412V649.324L840.68 654.568V870.213H836.258Z" fill="#FEFF6A"/>
<path d="M873.039 870.213V-6.78735H876.909V275.059L880.779 285.546V578.535L876.909 587.056V870.213H873.039Z" fill="#FEFF6A"/>
</g>
<defs>
<clipPath id="clip0_4028_3498">
<rect x="0.390625" width="880.389" height="877" rx="438.5" fill="white"/>
</clipPath>
</defs>
</svg>
