<svg width="552" height="550" viewBox="0 0 552 550" fill="none" xmlns="http://www.w3.org/2000/svg">
<g clip-path="url(#clip0_4028_3470)">
<path d="M137.25 545.425V-3.92822H139.75V29.3286L142.25 27.6863V75.7239L145.583 72.8499V123.762L148.082 122.119V180.421L150.582 177.958V364.36L147.249 361.076V419.378L144.749 417.735V467.826L142.25 466.594V513.811L139.75 512.99V545.425H137.25Z" fill="#FEFF6A"/>
<path d="M89.9531 -3.92822H93.0074V55.195L95.6253 53.5527V108.57L98.2433 106.107V170.978L100.861 167.693V374.625L98.2433 371.34V435.39L95.6253 433.748V488.355L92.5711 485.891V545.425H89.9531V-3.92822Z" fill="#FEFF6A"/>
<path d="M68.1484 -3.92822V545.425H70.7664V468.705L73.8207 471.987V410.036L76.4386 413.318V326.34L79.0565 332.905V209.413L76.0023 215.977V128.589L73.3843 132.282V71.1515L70.7664 73.6131V-3.92822H68.1484Z" fill="#FEFF6A"/>
<path d="M0.265625 545.425V-3.92822H3.06258V160.303L6.32568 155.376V387.353L3.52873 382.426V545.425H0.265625Z" fill="#FEFF6A"/>
<path d="M22.0938 -3.92822V545.425H25.9722V420.199L28.3962 423.484V321.66L31.7898 331.104V212.036L28.881 220.247V118.835L25.4874 122.53V-3.92822H22.0938Z" fill="#FEFF6A"/>
<path d="M46.3281 -3.92822V545.425H48.7521V447.37L51.5802 449.832V378.035L53.6002 382.137V160.591L51.1762 164.693V92.0753L49.1562 94.9472V-3.92822H46.3281Z" fill="#FEFF6A"/>
<path d="M112.984 -3.92822H116.62V40.8248L119.347 40.0036V89.273L122.074 88.4519V143.469L124.801 141.006V216.552L127.529 211.625V330.282L124.801 325.766V400.491L122.074 398.438V453.866L119.347 451.813V502.315L116.62 500.672V545.425H112.984V-3.92822Z" fill="#FEFF6A"/>
<path d="M159.039 545.425V-3.92822H161.718V19.4747L165.29 17.8324V63.8172L167.97 62.996V109.802L170.649 108.16V159.071L173.328 157.429V219.837L176.007 216.552V325.766L173.328 321.66V384.068L170.649 383.247V433.337L167.97 431.695V478.912L165.29 477.68V523.254L161.718 522.022V545.425H159.039Z" fill="#FEFF6A"/>
<path d="M182.078 545.425V-3.92822H184.949V12.0843L187.819 11.2632V56.0162L190.69 54.7844V99.1269L193.56 98.3057V144.29L196.431 143.469V193.56L200.258 191.918V349.99L196.431 347.937V398.849L193.56 397.207V444.012L190.69 442.37V487.123L187.819 486.713V530.234L184.949 529.413V545.425H182.078Z" fill="#FEFF6A"/>
<path d="M205.094 545.425V-3.92822H207.738V7.15739L210.383 6.13419V49.0364L213.908 47.394V90.9153L216.553 90.0942V134.437L219.197 133.615V178.779L221.842 177.836V228.87L224.486 227.026V314.27L221.842 312.628V363.539L219.197 362.718V407.882L215.671 406.853V451.403L213.027 450.171V493.692L210.383 492.461V535.571L207.738 535.161V545.425H205.094Z" fill="#FEFF6A"/>
<path d="M226.922 545.425V-3.92822H230.316V3.05161L233.709 2.23045V44.9306L236.618 44.1094V86.399L239.527 85.9884V128.689L242.436 127.867V170.567L245.344 169.746L245.829 214.089L248.738 213.268L248.253 328.229L245.344 327.819L245.829 372.161L242.436 370.93V414.04L239.527 413.63V456.33L236.618 455.509V497.388L233.709 496.566V539.267L229.831 538.445V545.425H226.922Z" fill="#FEFF6A"/>
<path d="M249.93 545.425V-3.92822H253.513V0.588137H256.201V42.4671H258.888V83.5249H261.576V125.404H264.263V167.283H267.846V208.341H270.534V333.156H266.951V375.035H264.263V416.093H261.576V457.972H258.888V499.851H256.201V540.909H253.513V545.425H249.93Z" fill="#FEFF6A"/>
<path d="M272.977 545.425V-3.92822H275.786V0.177558H278.596V41.2354L281.406 42.0565V83.1143L285.152 83.5249V125.404L287.961 126.225V167.283L290.771 168.104V209.983L293.581 210.804V330.693L290.771 331.514V374.214H287.961V416.093H285.152V457.972H281.406V499.851H278.596V541.73H275.786V545.425H272.977Z" fill="#FEFF6A"/>
<path d="M296.016 545.425V-3.92822H298.66V1.40929L301.745 1.81987V43.2883L304.83 44.1094V85.1672L307.475 85.9884V128.689L310.119 129.51V172.21L312.763 173.031V220.658L315.408 222.3V320.018L312.763 321.66V368.466L310.119 369.287V411.987L307.475 412.809V455.509L304.83 456.33V497.798L301.304 498.209V540.088L298.66 540.909V545.425H296.016Z" fill="#FEFF6A"/>
<path d="M317.82 545.425V-3.92822H321.346V3.87276L323.991 4.69392V46.1623L326.635 46.5729V90.0942L329.279 90.9153V135.258L331.924 136.079V182.064L335.009 184.306V247.346L337.212 252.079V289.635L334.568 295.383V357.791L331.924 359.433V406.239L329.279 407.06V450.992L326.635 452.224V494.103L323.991 494.924V537.624L321.346 538.445V545.425H317.82Z" fill="#FEFF6A"/>
<path d="M342.062 545.425V-3.92822H344.742V7.97854L347.421 8.7997V52.321L350.1 53.1421L350.547 97.074L353.672 98.7163V145.112L356.351 146.754V199.308L359.031 201.771V340.547L356.351 342.189V395.564L352.779 397.207V444.012L350.1 444.834V489.176L347.421 489.997V533.108L344.742 534.34V545.425H342.062Z" fill="#FEFF6A"/>
<path d="M363.867 545.425V-3.92822H366.546V13.7266L370.119 15.3689V59.7114L372.798 61.3537V106.517L375.477 108.57V159.071L378.156 161.535V232.154L380.835 237.081V305.237L378.156 309.343V379.962L375.477 382.426V432.927L372.798 434.159V480.965L369.226 481.786V526.949L366.546 527.77V545.425H363.867Z" fill="#FEFF6A"/>
<path d="M386.906 545.425V-3.92822H390.542V21.9382L393.269 23.5805V69.5653L395.996 71.2076V120.066L398.723 122.119V180.421L401.45 183.706V357.791L398.723 361.076V419.378L395.996 421.02V470.7L393.269 471.932V518.738L390.542 519.559V545.425H386.906Z" fill="#FEFF6A"/>
<path d="M409.906 545.425V-3.92822H412.633V31.7921L415.36 33.4344V82.2932L418.542 84.3461V138.542L421.269 141.416V218.605L424.45 223.532V318.376L421.269 323.303V400.902L418.087 402.955V457.972L415.36 459.614V508.473L412.633 509.705V545.425H409.906Z" fill="#FEFF6A"/>
<path d="M431.742 545.425V-3.92822H434.539V44.1094L437.336 45.7517V98.7163L441.065 100.769V163.998L443.862 167.283V374.625L441.065 377.499V441.138L437.336 442.781V496.156L434.539 497.388V545.425H431.742Z" fill="#FEFF6A"/>
<path d="M454.789 545.425V-3.92822H458.518V59.7114L461.315 62.1749V119.656L464.112 122.119V202.593L466.909 207.52V333.978L464.112 338.904V419.378L461.315 421.841V480.143L458.518 481.786V545.425H454.789Z" fill="#FEFF6A"/>
<path d="M479.023 545.425V-3.92822H481.703V78.1874L484.382 80.2403V146.754L487.508 151.27V391.048L484.382 394.743V461.257L481.703 463.72V545.425H479.023Z" fill="#FEFF6A"/>
<path d="M500.844 545.425V-3.92822H503.969V102.001L506.649 104.464V188.633L509.328 194.381V347.527L506.202 354.096V437.443L503.523 440.317V545.425H500.844Z" fill="#FEFF6A"/>
<path d="M523.852 545.425V-3.92822H526.622V131.152L528.7 135.258V407.06L526.622 410.345V545.425H523.852Z" fill="#FEFF6A"/>
<path d="M546.891 545.425V-3.92822H549.315V172.62L551.739 179.19V362.718L549.315 368.056V545.425H546.891Z" fill="#FEFF6A"/>
</g>
<defs>
<clipPath id="clip0_4028_3470">
<rect x="0.265625" y="0.323242" width="551.477" height="549.354" rx="274.677" fill="white"/>
</clipPath>
</defs>
</svg>
