<svg xmlns="http://www.w3.org/2000/svg" width="60" height="60" viewBox="0 0 60 60" fill="none">
  <path fill-rule="evenodd" clip-rule="evenodd" d="M27.562 52.8613C22.4805 48.7005 11 37.8482 11 24.7249C11 19.7586 12.9948 14.9966 16.5455 11.4849C20.0963 7.97316 24.9123 6 29.9338 6C34.9553 6 39.7708 7.97287 43.3216 11.4846C46.8723 14.9963 48.867 19.7598 48.867 24.7261C48.867 37.8494 37.3871 48.7009 32.3056 52.8617C31.5756 53.4594 31.2102 53.7577 30.6666 53.9108C30.2441 54.0297 29.6223 54.0297 29.1998 53.9108C28.6572 53.758 28.2893 53.4567 27.562 52.8613ZM29.9141 28.8191C33.2278 28.8191 35.9141 26.1328 35.9141 22.8191C35.9141 19.5054 33.2278 16.8191 29.9141 16.8191C26.6004 16.8191 23.9141 19.5054 23.9141 22.8191C23.9141 26.1328 26.6004 28.8191 29.9141 28.8191Z" fill="#77787D"/>
</svg>