<svg xmlns="http://www.w3.org/2000/svg" width="41" height="41" viewBox="0 0 41 41" fill="none">
    <g clip-path="url(#clip0_3133_23140)">
        <path
            d="M12.0459 18.0841L19.0362 25.0745C19.1042 25.1423 19.1963 25.1804 19.2923 25.1804C19.3883 25.1804 19.4804 25.1423 19.5483 25.0745L38.6159 6.00684"
            stroke="#77787D" stroke-width="2" />
        <path
            d="M39.2684 16.7927C40.1154 21.0809 39.4683 25.5299 37.4348 29.3992C35.4014 33.2685 32.1042 36.3247 28.092 38.0593C24.0798 39.7938 19.5946 40.1021 15.3829 38.9328C11.1711 37.7634 7.48679 35.187 4.94308 31.6323C2.39938 28.0776 1.1497 23.759 1.40203 19.3952C1.65436 15.0315 3.39348 10.8857 6.32995 7.64786C9.26642 4.41004 13.2231 2.27547 17.5416 1.59939C21.8601 0.923309 26.2799 1.74649 30.0654 3.93195"
            stroke="#77787D" stroke-width="2" stroke-linecap="round" />
    </g>
    <defs>
        <clipPath id="clip0_3133_23140">
            <rect width="40" height="40" fill="white" transform="translate(0.5 0.5)" />
        </clipPath>
    </defs>
</svg>