<svg xmlns="http://www.w3.org/2000/svg" width="60" height="61" viewBox="0 0 60 61" fill="none">
    <mask id="path-1-inside-1_4518_7360" fill="white">
        <path
            d="M47.4453 5.91235C51.0653 5.91235 54 8.84702 54 12.467C54 13.4826 53.7009 14.4715 53.2031 15.3567C50.7497 19.7198 49.3496 24.7545 49.3496 30.1165C49.3496 35.623 50.8275 40.7836 53.4053 45.2268C53.7817 45.8757 54 46.6075 54 47.3577C54 50.9777 51.0653 53.9124 47.4453 53.9124C46.1383 53.9124 44.8664 53.532 43.71 52.9231C39.5187 50.716 34.7447 49.4661 29.6787 49.4661C24.3829 49.4661 19.4057 50.8315 15.0801 53.2288C14.305 53.6583 13.4409 53.9124 12.5547 53.9124C8.93467 53.9124 6 50.9777 6 47.3577C6 46.6216 6.21465 45.9039 6.58496 45.2678C9.17714 40.8155 10.6631 35.6397 10.6631 30.1165C10.6631 24.7378 9.25465 19.6882 6.78711 15.3157C6.29493 14.4435 6 13.4685 6 12.467C6 8.84702 8.93467 5.91235 12.5547 5.91235C12.9988 5.91235 13.4321 6.04356 13.8096 6.27759C18.4194 9.13566 23.856 10.7874 29.6787 10.7874C35.2716 10.7873 40.5082 9.26376 44.998 6.6106C45.7415 6.17129 46.5818 5.91235 47.4453 5.91235ZM19.3662 38.2493C18.0378 38.2494 16.9609 39.3261 16.9609 40.6545C16.961 41.9829 18.0378 43.0597 19.3662 43.0598C20.6947 43.0598 21.7714 41.983 21.7715 40.6545C21.7715 39.326 20.6947 38.2493 19.3662 38.2493ZM41.4404 38.2493C40.112 38.2494 39.0352 39.3261 39.0352 40.6545C39.0352 41.9829 40.112 43.0597 41.4404 43.0598C42.7689 43.0598 43.8457 41.983 43.8457 40.6545C43.8457 39.326 42.7689 38.2493 41.4404 38.2493ZM19.3662 16.7444C18.0378 16.7445 16.9609 17.8212 16.9609 19.1497C16.961 20.4781 18.0378 21.5548 19.3662 21.5549C20.6947 21.5549 21.7714 20.4781 21.7715 19.1497C21.7715 17.8212 20.6947 16.7444 19.3662 16.7444ZM41.4404 16.7444C40.112 16.7445 39.0352 17.8212 39.0352 19.1497C39.0352 20.4781 40.112 21.5548 41.4404 21.5549C42.7689 21.5549 43.8457 20.4781 43.8457 19.1497C43.8457 17.8212 42.7689 16.7444 41.4404 16.7444Z" />
    </mask>
    <path
        d="M53.2031 15.3567L51.4598 14.3764L51.4598 14.3764L53.2031 15.3567ZM49.3496 30.1165H47.3496V30.1165L49.3496 30.1165ZM53.4053 45.2268L51.6753 46.2305L51.6753 46.2305L53.4053 45.2268ZM43.71 52.9231L42.7781 54.6927L42.7781 54.6928L43.71 52.9231ZM29.6787 49.4661L29.6787 47.4661H29.6787V49.4661ZM15.0801 53.2288L16.0495 54.9781L16.0496 54.9781L15.0801 53.2288ZM6.58496 45.2678L4.85656 44.2615L4.85651 44.2616L6.58496 45.2678ZM10.6631 30.1165L12.6631 30.1165V30.1165H10.6631ZM6.78711 15.3157L5.04531 16.2986L5.04532 16.2986L6.78711 15.3157ZM13.8096 6.27759L14.8634 4.57778L14.8634 4.57774L13.8096 6.27759ZM29.6787 10.7874V12.7874H29.6787L29.6787 10.7874ZM44.998 6.6106L46.0155 8.33244L46.0155 8.33243L44.998 6.6106ZM19.3662 38.2493V36.2493H19.3661L19.3662 38.2493ZM16.9609 40.6545H14.9609V40.6546L16.9609 40.6545ZM19.3662 43.0598L19.3661 45.0598H19.3662V43.0598ZM21.7715 40.6545L23.7715 40.6546V40.6545H21.7715ZM41.4404 38.2493V36.2493H41.4403L41.4404 38.2493ZM39.0352 40.6545H37.0352V40.6546L39.0352 40.6545ZM41.4404 43.0598L41.4403 45.0598H41.4404V43.0598ZM43.8457 40.6545L45.8457 40.6546V40.6545H43.8457ZM19.3662 16.7444V14.7444H19.3661L19.3662 16.7444ZM16.9609 19.1497H14.9609V19.1497L16.9609 19.1497ZM19.3662 21.5549L19.3661 23.5549H19.3662V21.5549ZM21.7715 19.1497L23.7715 19.1497V19.1497H21.7715ZM41.4404 16.7444V14.7444H41.4403L41.4404 16.7444ZM39.0352 19.1497H37.0352V19.1497L39.0352 19.1497ZM41.4404 21.5549L41.4403 23.5549H41.4404V21.5549ZM43.8457 19.1497L45.8457 19.1497V19.1497H43.8457ZM47.4453 5.91235V7.91235C49.9608 7.91235 52 9.95159 52 12.467H54H56C56 7.74245 52.1699 3.91235 47.4453 3.91235V5.91235ZM54 12.467H52C52 13.0881 51.8163 13.7425 51.4598 14.3764L53.2031 15.3567L54.9464 16.337C55.5855 15.2004 56 13.8772 56 12.467H54ZM53.2031 15.3567L51.4598 14.3764C48.8426 19.0308 47.3496 24.402 47.3496 30.1165H49.3496H51.3496C51.3496 25.1069 52.6568 20.4087 54.9464 16.337L53.2031 15.3567ZM49.3496 30.1165L47.3496 30.1165C47.3496 35.9855 48.9257 41.4911 51.6753 46.2305L53.4053 45.2268L55.1352 44.2232C52.7293 40.0761 51.3496 35.2606 51.3496 30.1164L49.3496 30.1165ZM53.4053 45.2268L51.6753 46.2305C51.8946 46.6084 52 46.9972 52 47.3577H54H56C56 46.2177 55.6689 45.143 55.1352 44.2232L53.4053 45.2268ZM54 47.3577H52C52 49.8731 49.9608 51.9124 47.4453 51.9124V53.9124V55.9124C52.1699 55.9124 56 52.0823 56 47.3577H54ZM47.4453 53.9124V51.9124C46.5274 51.9124 45.5738 51.6442 44.6418 51.1534L43.71 52.9231L42.7781 54.6928C44.159 55.4198 45.7493 55.9124 47.4453 55.9124V53.9124ZM43.71 52.9231L44.6418 51.1535C40.1704 48.7988 35.0774 47.4661 29.6787 47.4661L29.6787 49.4661L29.6787 51.4661C34.412 51.4661 38.867 52.6332 42.7781 54.6927L43.71 52.9231ZM29.6787 49.4661V47.4661C24.035 47.4661 18.7252 48.922 14.1106 51.4795L15.0801 53.2288L16.0496 54.9781C20.0862 52.7409 24.7308 51.4661 29.6787 51.4661V49.4661ZM15.0801 53.2288L14.1107 51.4794C13.5902 51.7678 13.0567 51.9124 12.5547 51.9124V53.9124V55.9124C13.825 55.9124 15.0197 55.5488 16.0495 54.9781L15.0801 53.2288ZM12.5547 53.9124V51.9124C10.0392 51.9124 8 49.8731 8 47.3577H6H4C4 52.0823 7.8301 55.9124 12.5547 55.9124V53.9124ZM6 47.3577H8C8 47.0124 8.10118 46.6386 8.31341 46.274L6.58496 45.2678L4.85651 44.2616C4.32811 45.1693 4 46.2308 4 47.3577H6ZM6.58496 45.2678L8.31336 46.2741C11.0784 41.5248 12.6631 36.003 12.6631 30.1165L10.6631 30.1165L8.66309 30.1164C8.66307 35.2764 7.27583 40.1062 4.85656 44.2615L6.58496 45.2678ZM10.6631 30.1165H12.6631C12.6631 24.3843 11.1612 18.9972 8.5289 14.3327L6.78711 15.3157L5.04532 16.2986C7.34807 20.3791 8.66309 25.0912 8.66309 30.1165H10.6631ZM6.78711 15.3157L8.52891 14.3328C8.17947 13.7135 8 13.0739 8 12.467H6H4C4 13.8631 4.41039 15.1735 5.04531 16.2986L6.78711 15.3157ZM6 12.467H8C8 9.95159 10.0392 7.91235 12.5547 7.91235V5.91235V3.91235C7.8301 3.91235 4 7.74245 4 12.467H6ZM12.5547 5.91235V7.91235C12.6032 7.91235 12.6743 7.92695 12.7558 7.97743L13.8096 6.27759L14.8634 4.57774C14.1898 4.16017 13.3945 3.91235 12.5547 3.91235V5.91235ZM13.8096 6.27759L12.7557 7.9774C17.6725 11.0258 23.4726 12.7874 29.6787 12.7874V10.7874V8.78735C24.2395 8.78735 19.1663 7.24553 14.8634 4.57778L13.8096 6.27759ZM29.6787 10.7874L29.6787 12.7874C35.6396 12.7873 41.2262 11.1625 46.0155 8.33244L44.998 6.6106L43.9806 4.88875C39.7901 7.36499 34.9036 8.7873 29.6787 8.78735L29.6787 10.7874ZM44.998 6.6106L46.0155 8.33243C46.4911 8.05139 46.9839 7.91235 47.4453 7.91235V5.91235V3.91235C46.1797 3.91235 44.9918 4.29119 43.9806 4.88876L44.998 6.6106ZM19.3662 38.2493L19.3661 36.2493C16.9333 36.2494 14.9609 38.2214 14.9609 40.6545H16.9609H18.9609C18.9609 40.4308 19.1423 40.2493 19.3664 40.2493L19.3662 38.2493ZM16.9609 40.6545L14.9609 40.6546C14.961 43.0876 16.9333 45.0596 19.3661 45.0598L19.3662 43.0598L19.3664 41.0598C19.1423 41.0598 18.9609 40.8783 18.9609 40.6545L16.9609 40.6545ZM19.3662 43.0598V45.0598C21.7993 45.0598 23.7714 43.0875 23.7715 40.6546L21.7715 40.6545L19.7715 40.6545C19.7715 40.8785 19.5901 41.0598 19.3662 41.0598V43.0598ZM21.7715 40.6545H23.7715C23.7715 38.2215 21.7993 36.2493 19.3662 36.2493V38.2493V40.2493C19.5901 40.2493 19.7715 40.4306 19.7715 40.6545H21.7715ZM41.4404 38.2493L41.4403 36.2493C39.0076 36.2494 37.0352 38.2214 37.0352 40.6545H39.0352H41.0352C41.0352 40.4308 41.2165 40.2493 41.4406 40.2493L41.4404 38.2493ZM39.0352 40.6545L37.0352 40.6546C37.0352 43.0876 39.0075 45.0596 41.4403 45.0598L41.4404 43.0598L41.4406 41.0598C41.2166 41.0598 41.0352 40.8783 41.0352 40.6545L39.0352 40.6545ZM41.4404 43.0598V45.0598C43.8735 45.0598 45.8456 43.0875 45.8457 40.6546L43.8457 40.6545L41.8457 40.6545C41.8457 40.8785 41.6643 41.0598 41.4404 41.0598V43.0598ZM43.8457 40.6545H45.8457C45.8457 38.2215 43.8735 36.2493 41.4404 36.2493V38.2493V40.2493C41.6644 40.2493 41.8457 40.4306 41.8457 40.6545H43.8457ZM19.3662 16.7444L19.3661 14.7444C16.9333 14.7446 14.9609 16.7165 14.9609 19.1497H16.9609H18.9609C18.9609 18.9259 19.1423 18.7444 19.3664 18.7444L19.3662 16.7444ZM16.9609 19.1497L14.9609 19.1497C14.961 21.5827 16.9333 23.5548 19.3661 23.5549L19.3662 21.5549L19.3664 19.5549C19.1423 19.5549 18.9609 19.3734 18.9609 19.1496L16.9609 19.1497ZM19.3662 21.5549V23.5549C21.7993 23.5549 23.7714 21.5826 23.7715 19.1497L21.7715 19.1497L19.7715 19.1496C19.7715 19.3736 19.5901 19.5549 19.3662 19.5549V21.5549ZM21.7715 19.1497H23.7715C23.7715 16.7166 21.7993 14.7444 19.3662 14.7444V16.7444V18.7444C19.5901 18.7444 19.7715 18.9257 19.7715 19.1497H21.7715ZM41.4404 16.7444L41.4403 14.7444C39.0076 14.7446 37.0352 16.7165 37.0352 19.1497H39.0352H41.0352C41.0352 18.9259 41.2165 18.7444 41.4406 18.7444L41.4404 16.7444ZM39.0352 19.1497L37.0352 19.1497C37.0352 21.5827 39.0075 23.5548 41.4403 23.5549L41.4404 21.5549L41.4406 19.5549C41.2166 19.5549 41.0352 19.3734 41.0352 19.1496L39.0352 19.1497ZM41.4404 21.5549V23.5549C43.8735 23.5549 45.8456 21.5826 45.8457 19.1497L43.8457 19.1497L41.8457 19.1496C41.8457 19.3736 41.6643 19.5549 41.4404 19.5549V21.5549ZM43.8457 19.1497H45.8457C45.8457 16.7166 43.8735 14.7444 41.4404 14.7444V16.7444V18.7444C41.6644 18.7444 41.8457 18.9257 41.8457 19.1497H43.8457Z"
        fill="black" mask="url(#path-1-inside-1_4518_7360)" />
</svg>