<svg xmlns="http://www.w3.org/2000/svg" width="60" height="60" viewBox="0 0 60 60" fill="none">
    <path
        d="M29.9937 53.9998C29.9921 53.9998 29.9921 53.9998 29.9937 53.9998C23.5673 53.9998 17.5378 51.5071 13.0129 46.9823C8.48801 42.4574 5.99414 36.4255 5.99414 30.0016C5.99414 23.5777 8.48679 17.5482 13.0129 13.0233C17.5414 8.49361 23.5734 5.99976 29.9949 5.99976C36.4128 5.99976 42.4435 8.49483 46.9733 13.0246C56.3344 22.3869 56.3344 37.6212 46.9733 46.9835C42.4459 51.5071 36.4164 53.9998 29.9937 53.9998ZM29.9949 7.22104C23.8995 7.22104 18.1753 9.5891 13.8763 13.8868C9.58107 18.182 7.21543 23.905 7.21543 30.0016C7.21543 36.0982 9.58107 41.8236 13.8763 46.1188C18.1716 50.4141 23.8946 52.7785 29.9925 52.7785C36.0891 52.7785 41.8133 50.4129 46.1086 46.1188C54.9935 37.2328 54.9935 22.774 46.1086 13.8868C41.8097 9.58788 36.0867 7.22104 29.9949 7.22104Z"
        fill="#77787D" />
    <path
        d="M29.9951 5.74976C36.4791 5.74981 42.5737 8.27075 47.1504 12.8474C56.6091 22.3073 56.6088 37.6999 47.1504 47.1599C42.7189 51.5877 36.8617 54.0899 30.6006 54.2419L29.9941 54.2498H29.9922V54.2488C23.5003 54.2484 17.4075 51.7305 12.8359 47.1589C8.26411 42.5871 5.74417 36.4916 5.74414 30.0017C5.74414 23.5118 8.26278 17.4184 12.8359 12.8464C17.4115 8.26965 23.5075 5.74976 29.9951 5.74976ZM29.9951 6.97144C36.1528 6.97149 41.9393 9.36401 46.2852 13.7097C55.2676 22.6946 55.2677 37.312 46.2852 46.2957C41.9428 50.6367 36.1548 53.0281 29.9922 53.0281C23.8284 53.028 18.0415 50.6379 13.6992 46.2957C9.35698 41.9534 6.96585 36.1642 6.96582 30.0017C6.96582 23.8391 9.35689 18.052 13.6992 13.7097C18.0452 9.36504 23.8335 6.97144 29.9951 6.97144ZM6.24414 30.0017C6.24417 36.3595 8.71177 42.3277 13.1895 46.8054C17.6672 51.2832 23.6337 53.7498 29.9941 53.7498C36.3507 53.7496 42.3167 51.2829 46.7969 46.8064C56.0601 37.5417 56.0603 22.4655 46.7969 13.2009C42.3142 8.71824 36.3467 6.24981 29.9951 6.24976C23.6397 6.24976 17.6709 8.71728 13.1895 13.2C8.71045 17.6777 6.24414 23.6438 6.24414 30.0017ZM7.46582 30.0017C7.46585 36.0322 9.80468 41.694 14.0527 45.9421C18.3008 50.1902 23.9604 52.528 29.9922 52.5281C36.0228 52.5281 41.6835 50.189 45.9316 45.9421C54.7189 37.1537 54.7189 22.8529 45.9316 14.0632C41.6798 9.81154 36.0206 7.47149 29.9951 7.47144C23.9658 7.47144 18.3047 9.81253 14.0527 14.0632C9.80455 18.3114 7.46582 23.9711 7.46582 30.0017Z"
        fill="#77787D" />
    <path
        d="M26.4667 48.9998C26.3555 48.9998 26.2381 48.9824 26.1144 48.9477C25.8388 48.8593 25.6054 48.6768 25.4574 48.4339C25.3094 48.191 25.2567 47.9042 25.3092 47.6264L28.2937 32.841L22.8536 31.3563C22.682 31.3092 22.5236 31.2249 22.3903 31.1096C22.2571 30.9944 22.1524 30.8513 22.0841 30.691C22.0158 30.5308 21.9857 30.3576 21.9962 30.1844C22.0066 30.0112 22.0572 29.8426 22.1442 29.6911L32.4009 11.5875C32.5414 11.3485 32.7643 11.1655 33.0301 11.0708C33.2959 10.9762 33.5875 10.9761 33.8534 11.0704C34.118 11.1648 34.3385 11.3493 34.474 11.5898C34.6095 11.8303 34.6507 12.1105 34.5902 12.3783L31.9193 25.2273L37.0868 26.4238C37.4478 26.5195 37.7315 26.7459 37.8809 27.0499C37.9577 27.2082 37.9964 27.3814 37.994 27.5564C37.9917 27.7315 37.9483 27.9036 37.8672 28.0599L27.5258 48.3603C27.428 48.5523 27.277 48.7139 27.0899 48.8269C26.9027 48.9398 26.6869 48.9997 26.4667 48.9998ZM33.2883 12.5285L23.232 30.2785L29.1824 31.8262C29.4948 31.911 29.6877 32.2161 29.6242 32.5262L26.6197 47.406L36.752 27.5173L31.0431 26.27C30.8858 26.2338 30.7491 26.1395 30.662 26.0071C30.5749 25.8747 30.5442 25.7144 30.5763 25.5603L33.2883 12.5285Z"
        fill="#77787D" />
    <path
        d="M32.9458 10.8357C33.2656 10.7219 33.6161 10.7213 33.936 10.8347C34.2563 10.949 34.5253 11.1736 34.6909 11.4676C34.8558 11.7603 34.9063 12.1013 34.8335 12.4285L32.2124 25.0388L37.1431 26.1804L37.1509 26.1824C37.5226 26.2809 37.8336 26.5001 38.0288 26.8045L38.105 26.9392V26.9412C38.1987 27.1343 38.2466 27.3462 38.2437 27.5603C38.2407 27.7737 38.1866 27.9827 38.0884 28.1726L38.0894 28.1736L27.7485 48.4734C27.6292 48.7076 27.4447 48.9041 27.2183 49.0408C26.9919 49.1774 26.7316 49.2497 26.4663 49.2498C26.3291 49.2498 26.1887 49.2282 26.0464 49.1883L26.0376 49.1863C25.7061 49.0799 25.4235 48.8592 25.2437 48.5642C25.0637 48.2689 24.9989 47.9188 25.063 47.5799L25.064 47.5769L28.0015 33.0203L22.7876 31.5974C22.5806 31.5406 22.3877 31.4384 22.2261 31.2986C22.0644 31.1588 21.9374 30.9845 21.854 30.7888C21.7707 30.5932 21.7339 30.3816 21.7466 30.1697C21.7593 29.9577 21.8211 29.7509 21.9273 29.5662L32.1831 11.4646L32.1851 11.4607C32.3559 11.1702 32.6259 10.9496 32.9458 10.8357ZM33.7691 11.3064C33.5574 11.2314 33.3253 11.2312 33.1138 11.3064C32.9022 11.3817 32.7259 11.5271 32.6157 11.7146L22.3608 29.8142V29.8162C22.2931 29.9342 22.2537 30.0649 22.2456 30.199C22.2375 30.3334 22.2608 30.4688 22.314 30.5935C22.3671 30.7181 22.4486 30.8302 22.5532 30.9207C22.6581 31.0113 22.7834 31.0777 22.9194 31.115L28.3589 32.5994L28.5845 32.6619L25.5542 47.6756C25.5141 47.8912 25.5549 48.1139 25.6704 48.3035C25.7853 48.492 25.9668 48.6355 26.1831 48.7068C26.2875 48.736 26.3816 48.7498 26.4663 48.7498C26.6413 48.7497 26.8127 48.7023 26.9605 48.6131C27.1082 48.5239 27.226 48.3965 27.3023 48.2468L37.6441 27.9461L37.645 27.9451C37.7082 27.8233 37.7418 27.6892 37.7437 27.5535C37.7455 27.4179 37.7154 27.2831 37.6558 27.1599C37.5411 26.9268 37.3197 26.7447 37.023 26.6658L31.8628 25.4705L31.6245 25.4158L34.3452 12.3279L34.3462 12.323C34.393 12.116 34.3606 11.8994 34.2554 11.7127C34.15 11.5257 33.9781 11.381 33.7691 11.3064ZM33.5327 12.5799L30.8208 25.6111C30.8024 25.6996 30.8197 25.7925 30.8706 25.8699C30.9216 25.9473 31.0026 26.004 31.0982 26.0261L37.1216 27.3426L36.9741 27.6306L26.8423 47.5193L26.3745 47.3562L29.3784 32.4763L29.3853 32.4099C29.3859 32.2575 29.2837 32.1129 29.1187 32.0672L22.853 30.4383L23.0142 30.1551L33.0698 12.4051L33.5327 12.5799ZM23.6089 30.1179L29.2446 31.5847H29.2476C29.6549 31.6954 29.9241 32.0794 29.8814 32.4929L29.8687 32.576L27.2261 45.6638L36.3814 27.6922L30.9888 26.5144L30.9868 26.5134C30.7681 26.4631 30.5758 26.3316 30.4526 26.1443C30.3294 25.9568 30.2858 25.7291 30.3316 25.5095L32.7173 14.0418L23.6089 30.1179Z"
        fill="#77787D" />
</svg>