<svg xmlns="http://www.w3.org/2000/svg" width="60" height="60" viewBox="0 0 60 60" fill="none">

    <path
        d="M-26 70.6393L12.6859 32.1711C12.9925 31.8663 13.0646 31.4016 12.9037 31.0004C11.3783 27.1961 10.846 18.8674 19.3892 11.1445C27.7772 3.56191 37.3983 5.9051 42.0674 8.46299C42.6227 8.76725 42.6946 9.51132 42.2455 9.95784L28.3548 23.7704C27.9617 24.1613 27.9616 24.7976 28.3548 25.1886L34.1344 30.936C34.5334 31.3328 35.1812 31.3224 35.5672 30.9129L49.567 16.0638C49.9768 15.6291 50.6735 15.6462 51.0165 16.1354C54.0614 20.4779 57.3175 30.2993 48.2731 40.8921C41.3048 49.0532 32.5384 48.1672 28.1869 47.1765C27.8458 47.0989 27.4902 47.1973 27.2422 47.444L-10.5264 85"
        stroke="#77787D" stroke-width="1.7" />

</svg>