<svg xmlns="http://www.w3.org/2000/svg" width="60" height="60" viewBox="0 0 60 60" fill="none">
    <path
        d="M44.0088 51.7529C44.3273 51.7529 44.5633 51.8564 44.7637 52.0645C44.9671 52.2758 45.0756 52.533 45.0771 52.8828C45.0787 53.2278 44.9723 53.4793 44.7686 53.6865C44.5614 53.8973 44.3223 53.999 44.0088 53.999H16C15.6819 53.9989 15.4463 53.8962 15.2461 53.6885C15.0426 53.4771 14.9342 53.219 14.9326 52.8691C14.9311 52.5242 15.0375 52.2726 15.2412 52.0654C15.4483 51.8549 15.6868 51.753 16 51.7529H44.0088ZM29.5576 42.4082C29.6214 42.4238 29.6867 42.4358 29.7539 42.4443C29.6867 42.4358 29.6214 42.4238 29.5576 42.4082ZM30.5732 42.3682C30.5301 42.3825 30.4862 42.3945 30.4414 42.4053C30.4862 42.3945 30.5301 42.3825 30.5732 42.3682ZM29.2373 42.293C29.2876 42.3173 29.3387 42.3394 29.3916 42.3584C29.3387 42.3394 29.2876 42.3173 29.2373 42.293ZM28.7549 41.9424C28.8637 42.0554 28.9829 42.1475 29.1094 42.2236C28.9829 42.1475 28.8637 42.0554 28.7549 41.9424ZM30.0117 5.99902C30.3029 5.99902 30.5618 6.04861 30.7949 6.1416L30.7988 6.14355C31.0059 6.22462 31.2401 6.37961 31.4961 6.64355L43.4248 18.9502C43.6323 19.1644 43.7281 19.3985 43.7324 19.6836C43.7365 19.9503 43.6478 20.1907 43.4199 20.4307L43.417 20.4336C43.2416 20.6197 43.0278 20.7168 42.7207 20.7168C42.4163 20.7168 42.1901 20.6189 41.9961 20.4189L31.0723 9.25V40.6533C31.0722 40.9972 30.9657 41.2515 30.7607 41.4629C30.5575 41.6726 30.3196 41.7754 30.001 41.7754V41.7793C29.6812 41.7785 29.4459 41.6751 29.2471 41.4688C29.0437 41.2576 28.9365 41.0018 28.9365 40.6562V9.24512L18.0186 20.4863C17.816 20.6935 17.6119 20.7697 17.3711 20.7607C17.1178 20.7512 16.8777 20.6528 16.6348 20.4092C16.4545 20.2269 16.3545 19.9957 16.3545 19.6621C16.3546 19.3336 16.4555 19.0866 16.6533 18.8789L28.5166 6.64355C28.768 6.38431 29.0045 6.22799 29.2207 6.14355L29.2236 6.14258C29.4601 6.04894 29.7206 5.99903 30.0117 5.99902Z"
        fill="#77787D" />
</svg>