<svg xmlns="http://www.w3.org/2000/svg" width="60" height="60" viewBox="0 0 60 60" fill="none">
    <path
        d="M45.7701 36.6592C45.7701 34.956 46.1829 33.2777 46.9723 31.7686L46.9742 31.7646C47.5476 30.6797 48.2512 29.6608 49.0758 28.7305L49.3815 28.3848L47.0084 24.2744L46.5602 24.3672H46.5592C45.348 24.615 44.111 24.7161 42.8756 24.6689H42.8717C41.1705 24.5976 39.5122 24.1152 38.0377 23.2637C36.5631 22.4121 35.316 21.2163 34.4039 19.7783L34.402 19.7754C33.7439 18.7296 33.2137 17.6086 32.8229 16.4365L32.6783 16H27.9303L27.7858 16.4365C27.3949 17.6087 26.8647 18.7296 26.2067 19.7754L26.2047 19.7783C25.2924 21.2166 24.0449 22.4131 22.5699 23.2646C21.095 24.1162 19.4356 24.598 17.734 24.6689H17.7301C16.6505 24.7098 15.5701 24.6377 14.5065 24.4531L14.0514 24.3672L13.6002 24.2734L11.2262 28.3848L11.5328 28.7305C12.3574 29.6608 13.061 30.6797 13.6344 31.7646L13.6363 31.7686C14.4258 33.2777 14.8385 34.956 14.8385 36.6592C14.8385 38.3622 14.4256 40.0398 13.6363 41.5488L13.6344 41.5527C13.0577 42.6447 12.3523 43.664 11.5328 44.5879L11.5318 44.5869L11.2262 44.9326L13.5992 49.043L14.0485 48.9512H14.0494C15.1092 48.7343 16.1883 48.629 17.2692 48.6377L17.733 48.6484L17.7369 48.6494C19.438 48.7208 21.0965 49.2023 22.5709 50.0537C23.9534 50.8521 25.136 51.953 26.0299 53.2725L26.2047 53.5391L26.2057 53.542C26.7775 54.45 27.2557 55.4229 27.6305 56.4414L27.7848 56.8809L27.7858 56.8818L27.9303 57.3184H32.6783L32.8229 56.8818L32.8238 56.8799C33.22 55.6972 33.7465 54.584 34.4029 53.542L34.4039 53.5391C35.3162 52.1008 36.5637 50.9053 38.0387 50.0537C39.5137 49.2021 41.1729 48.7203 42.8746 48.6494L42.8785 48.6484C44.1124 48.6017 45.3476 48.7037 46.5572 48.9512L47.0074 49.043L49.3815 44.9326L49.0758 44.5869C48.2565 43.6632 47.5509 42.6446 46.9742 41.5527L46.9723 41.5488C46.183 40.0398 45.7702 38.3622 45.7701 36.6592ZM47.7701 36.6592C47.7702 38.038 48.1043 39.3961 48.7428 40.6182L48.9361 40.9717C49.3998 41.7894 49.9476 42.5569 50.5719 43.2607H50.5729L50.9625 43.7012C51.483 44.2889 51.5689 45.1433 51.1764 45.8232L48.6774 50.1523C48.2845 50.8329 47.4999 51.1861 46.7301 51.0283L46.1559 50.9102C45.1038 50.695 44.0297 50.606 42.9567 50.6465L42.9576 50.6475C41.5786 50.7049 40.234 51.0951 39.0387 51.7852C37.8444 52.4746 36.8335 53.4423 36.0943 54.6064L36.0953 54.6074C35.5252 55.5125 35.0667 56.4816 34.7203 57.5156L34.7193 57.5146L34.5348 58.0703C34.2862 58.8153 33.5887 59.3184 32.8033 59.3184H27.8053C27.0199 59.3184 26.3224 58.8153 26.0738 58.0703L25.8883 57.5146C25.5442 56.4862 25.0808 55.5086 24.5133 54.6074V54.6064C23.7744 53.4428 22.7646 52.4755 21.5709 51.7861C20.3759 51.096 19.0317 50.7053 17.6529 50.6475V50.6465C16.713 50.6109 15.7723 50.6752 14.8463 50.8359L14.4508 50.9102L13.8785 51.0273C13.1086 51.1853 12.3243 50.833 11.9313 50.1523L9.43224 45.8232C9.03972 45.1433 9.12561 44.2889 9.64611 43.7012L10.0358 43.2607H10.0367C10.7501 42.4565 11.3638 41.5688 11.8658 40.6182C12.5043 39.3961 12.8385 38.038 12.8385 36.6592C12.8385 35.2802 12.5044 33.9214 11.8658 32.6992C11.3667 31.7547 10.7539 30.868 10.0358 30.0576V30.0566L9.64611 29.6172C9.12545 29.0294 9.03962 28.1742 9.43224 27.4941L11.9313 23.165L12.0094 23.041C12.3947 22.4822 13.0603 22.1837 13.734 22.2666L13.8785 22.29L14.4527 22.4072L14.8483 22.4824C15.773 22.6429 16.7124 22.7062 17.651 22.6709L17.9088 22.6562C19.1974 22.5635 20.4492 22.1793 21.5699 21.5322C22.7653 20.8421 23.7759 19.8726 24.5152 18.707C25.0872 17.7976 25.5485 16.8229 25.8883 15.8037L26.0738 15.248L26.1256 15.1113C26.4098 14.442 27.0688 14 27.8053 14H32.8033C33.5398 14 34.1988 14.442 34.483 15.1113L34.5348 15.248L34.7203 15.8037C35.0602 16.8229 35.5214 17.7976 36.0934 18.707L36.235 18.9238C36.9594 19.993 37.9174 20.8852 39.0377 21.5322C40.2327 22.2223 41.577 22.6131 42.9557 22.6709H42.9547C44.0291 22.7117 45.1045 22.6227 46.1578 22.4072L46.7301 22.29L46.8746 22.2666C47.5965 22.1777 48.3089 22.5271 48.6774 23.165L51.1764 27.4941C51.569 28.1742 51.4832 29.0294 50.9625 29.6172L50.5729 30.0566V30.0576C49.8547 30.868 49.242 31.7547 48.7428 32.6992C48.1042 33.9214 47.7701 35.2802 47.7701 36.6592Z"
        fill="#77787D" />
    <path
        d="M36.5273 36.6589C36.5273 35.0085 35.872 33.4257 34.7051 32.2585C33.5379 31.0914 31.9544 30.4353 30.3037 30.4353C28.6531 30.4353 27.0705 31.0914 25.9033 32.2585C24.7362 33.4257 24.0801 35.0083 24.0801 36.6589C24.0801 38.3096 24.7361 39.8931 25.9033 41.0603C27.0704 42.2272 28.6533 42.8825 30.3037 42.8826C31.9544 42.8826 33.5379 42.2275 34.7051 41.0603C35.8723 39.8931 36.5273 38.3096 36.5273 36.6589ZM38.5273 36.6589C38.5273 38.84 37.6614 40.9321 36.1191 42.4744C34.5769 44.0166 32.4848 44.8826 30.3037 44.8826C28.1227 44.8825 26.0305 44.0166 24.4883 42.4744C22.9461 40.9321 22.0801 38.8399 22.0801 36.6589C22.0801 34.4779 22.9461 32.3857 24.4883 30.8435C26.0305 29.3013 28.1227 28.4353 30.3037 28.4353C32.4847 28.4353 34.5769 29.3013 36.1191 30.8435C37.6614 32.3857 38.5273 34.4779 38.5273 36.6589Z"
        fill="#77787D" />
    <path
        d="M29.3027 40.3718V37.5916H26.5898C26.0376 37.5916 25.5898 37.1438 25.5898 36.5916C25.5901 36.0394 26.0377 35.5916 26.5898 35.5916H29.3027V32.946C29.3027 32.3938 29.7505 31.9461 30.3027 31.946C30.855 31.946 31.3027 32.3938 31.3027 32.946V35.5916H34.0156C34.5678 35.5916 35.0154 36.0394 35.0156 36.5916C35.0156 37.1438 34.5679 37.5916 34.0156 37.5916H31.3027V40.3718C31.3027 40.9241 30.855 41.3718 30.3027 41.3718C29.7505 41.3718 29.3027 40.9241 29.3027 40.3718Z"
        fill="#77787D" />
    <path
        d="M17.4999 18.5V7.66113L15.7528 9.6582C15.3893 10.0737 14.7573 10.1163 14.3417 9.75293C13.9262 9.38935 13.8836 8.75744 14.247 8.3418L17.747 4.3418C17.9369 4.12478 18.2115 4 18.4999 4C18.7883 4 19.063 4.12478 19.2528 4.3418L22.7528 8.3418C23.1162 8.75744 23.0736 9.38935 22.6581 9.75293C22.2425 10.1163 21.6106 10.0737 21.247 9.6582L19.4999 7.66113V18.5C19.4999 19.0523 19.0522 19.5 18.4999 19.5C17.9476 19.5 17.4999 19.0523 17.4999 18.5Z"
        fill="#77787D" />
    <path
        d="M41.4999 18.5V7.66113L39.7528 9.6582C39.3893 10.0737 38.7573 10.1163 38.3417 9.75293C37.9262 9.38935 37.8836 8.75744 38.247 8.3418L41.747 4.3418C41.9369 4.12478 42.2115 4 42.4999 4C42.7883 4 43.063 4.12478 43.2528 4.3418L46.7528 8.3418C47.1162 8.75744 47.0736 9.38935 46.6581 9.75293C46.2425 10.1163 45.6106 10.0737 45.247 9.6582L43.4999 7.66113V18.5C43.4999 19.0523 43.0522 19.5 42.4999 19.5C41.9476 19.5 41.4999 19.0523 41.4999 18.5Z"
        fill="#77787D" />
    <path
        d="M29.4999 10.5V4.66113L27.7528 6.6582C27.3893 7.07372 26.7573 7.11629 26.3417 6.75293C25.9262 6.38935 25.8836 5.75744 26.247 5.3418L29.747 1.3418C29.9369 1.12478 30.2115 1 30.4999 1C30.7883 1 31.063 1.12478 31.2528 1.3418L34.7528 5.3418C35.1162 5.75744 35.0736 6.38935 34.6581 6.75293C34.2425 7.11629 33.6106 7.07372 33.247 6.6582L31.4999 4.66113V10.5C31.4999 11.0523 31.0522 11.5 30.4999 11.5C29.9476 11.5 29.4999 11.0523 29.4999 10.5Z"
        fill="#77787D" />
</svg>