<svg xmlns="http://www.w3.org/2000/svg" width="60" height="60" viewBox="0 0 60 60" fill="none">
    <path
        d="M46.4138 53.04L46.4138 40.56L57.0345 40.56C57.2906 40.56 57.5361 40.4589 57.7172 40.2788C57.8983 40.0988 58 39.8546 58 39.6C58 39.3454 57.8983 39.1012 57.7172 38.9212C57.5361 38.7411 57.2906 38.64 57.0345 38.64L46.4138 38.64L46.4138 21.36L57.0345 21.36C57.2906 21.36 57.5361 21.2589 57.7172 21.0788C57.8983 20.8988 58 20.6546 58 20.4C58 20.1454 57.8983 19.9012 57.7172 19.7212C57.5361 19.5411 57.2906 19.44 57.0345 19.44L46.4138 19.44L46.4138 7.092C46.4138 6.0312 45.5472 6 45.4483 6C45.1922 6 44.9466 6.10114 44.7656 6.28118C44.5845 6.46121 44.4828 6.70539 44.4828 6.96L44.4828 11.76L22.2759 11.76C19.9712 11.76 17.761 12.6703 16.1313 14.2906C14.5017 15.9109 13.5862 18.1085 13.5862 20.4L13.5862 29.04L2.96552 29.04C2.70945 29.04 2.46386 29.1411 2.28279 29.3212C2.10173 29.5012 2 29.7454 2 30C2 30.2546 2.10173 30.4988 2.28279 30.6788C2.46386 30.8589 2.70945 30.96 2.96552 30.96L13.5862 30.96L13.5862 39.6C13.5862 41.8915 14.5017 44.0891 16.1313 45.7094C17.761 47.3297 19.9712 48.24 22.2759 48.24L44.4828 48.24L44.4828 53.04C44.4828 53.2946 44.5845 53.5388 44.7655 53.7188C44.9466 53.8989 45.1922 54 45.4483 54C45.7043 54 45.9499 53.8989 46.131 53.7188C46.3121 53.5388 46.4138 53.2946 46.4138 53.04ZM22.2759 46.32C20.4834 46.32 18.7643 45.612 17.4968 44.3518C16.2293 43.0915 15.5172 41.3822 15.5172 39.6L15.5172 20.4C15.5172 18.6177 16.2293 16.9085 17.4968 15.6482C18.7643 14.388 20.4834 13.68 22.2759 13.68L44.4828 13.68L44.4828 46.32L22.2759 46.32Z"
        fill="#77787D" />
    <path d="M30 23.5V30M30 36.5V30M30 30H23.5M30 30H36.5" stroke="#77787D" stroke-width="2" stroke-linecap="round"
        stroke-linejoin="round" />
</svg>