<svg xmlns="http://www.w3.org/2000/svg" width="60" height="60" viewBox="0 0 60 60" fill="none">
    <path
        d="M46.9092 13C49.1926 13 51 14.8925 51 17.1719V40.8281C51 42.089 50.4462 43.2307 49.5654 44H54C54.5523 44 55 44.4477 55 45C55 45.5523 54.5523 46 54 46H6C5.44772 46 5 45.5523 5 45C5 44.4477 5.44772 44 6 44H10.4346C9.55378 43.2307 9 42.089 9 40.8281V17.1719C9 14.8925 10.8074 13 13.0908 13H46.9092ZM13.0908 15C11.9607 15 11 15.9478 11 17.1719V40.8281C11 42.0522 11.9607 43 13.0908 43H46.9092C48.0393 43 49 42.0522 49 40.8281V17.1719C49 15.9478 48.0393 15 46.9092 15H13.0908Z"
        fill="#77787D" />
</svg>