<svg xmlns="http://www.w3.org/2000/svg" width="60" height="40" viewBox="0 0 60 40" fill="none">
    <path
        d="M54 31C54.5523 31 55 31.4477 55 32C55 32.5523 54.5523 33 54 33H6C5.44772 33 5 32.5523 5 32C5 31.4477 5.44772 31 6 31H54Z"
        fill="#77787D" />
    <path
        d="M30.0004 7C44.8591 7.00003 53.4299 18.9952 54.9867 28.3359C55.058 28.7646 54.8448 29.1907 54.4584 29.3896C54.0719 29.5886 53.6008 29.5144 53.2934 29.207C52.8737 28.7874 52.3957 28.3098 51.9027 27.876C51.4004 27.4339 50.9357 27.0858 50.5531 26.8945C50.0592 26.6475 49.8589 26.0467 50.1059 25.5527C50.3529 25.0588 50.9537 24.8585 51.4477 25.1055C51.7194 25.2413 51.9908 25.4123 52.2563 25.6006C49.6629 17.6171 42.0517 9.00003 30.0004 9C17.7886 8.99997 10.7226 17.5301 7.89004 25.5479C8.06286 25.4255 8.24789 25.2998 8.44571 25.168C8.90524 24.8616 9.52608 24.9858 9.83243 25.4453C10.1388 25.9048 10.0146 26.5257 9.55508 26.832C8.13477 27.7789 7.52165 28.3928 6.70743 29.207C6.39305 29.5214 5.90869 29.5909 5.51895 29.377C5.12929 29.163 4.9275 28.7171 5.02383 28.2832C7.07898 19.0351 14.8464 6.99997 30.0004 7Z"
        fill="#77787D" />
    <path
        d="M32.834 23.1499C32.834 22.0206 33.12 21.0856 33.692 20.3449C34.264 19.5969 35.0853 19.2229 36.156 19.2229C36.7133 19.2229 37.2083 19.3292 37.641 19.5419C38.081 19.7546 38.433 20.0479 38.697 20.4219C38.961 20.7886 39.159 21.2029 39.291 21.6649C39.4303 22.1269 39.5 22.6219 39.5 23.1499C39.5 24.2866 39.214 25.2252 38.642 25.9659C38.0773 26.7066 37.256 27.0769 36.178 27.0769C35.4373 27.0769 34.8067 26.8899 34.286 26.5159C33.7727 26.1346 33.4023 25.6579 33.175 25.0859C32.9477 24.5066 32.834 23.8612 32.834 23.1499ZM34.198 23.1499C34.198 23.6192 34.253 24.0446 34.363 24.4259C34.4803 24.7999 34.693 25.1262 35.001 25.4049C35.309 25.6762 35.7013 25.8119 36.178 25.8119C36.552 25.8119 36.871 25.7386 37.135 25.5919C37.4063 25.4379 37.6117 25.2289 37.751 24.9649C37.8903 24.7009 37.9893 24.4222 38.048 24.1289C38.1067 23.8356 38.136 23.5092 38.136 23.1499C38.136 21.3752 37.476 20.4879 36.156 20.4879C35.7893 20.4879 35.474 20.5649 35.21 20.7189C34.946 20.8656 34.7407 21.0709 34.594 21.3349C34.4547 21.5989 34.352 21.8812 34.286 22.1819C34.2273 22.4752 34.198 22.7979 34.198 23.1499Z"
        fill="#77787D" />
    <path
        d="M28.5471 22.4789H28.8661C29.2328 22.4789 29.5738 22.3909 29.8891 22.2149C30.2118 22.0316 30.3731 21.7712 30.3731 21.4339C30.3731 21.2286 30.3181 21.0562 30.2081 20.9169C30.0981 20.7776 29.9514 20.6749 29.7681 20.6089C29.5921 20.5356 29.4161 20.4879 29.2401 20.4659C29.0641 20.4366 28.8808 20.4219 28.6901 20.4219C28.5214 20.4219 28.3454 20.4402 28.1621 20.4769C27.9861 20.5062 27.8064 20.5576 27.6231 20.6309C27.4471 20.6969 27.3004 20.7996 27.1831 20.9389C27.0731 21.0782 27.0181 21.2396 27.0181 21.4229C27.0181 21.7676 27.1794 22.0316 27.5021 22.2149C27.8248 22.3909 28.1731 22.4789 28.5471 22.4789ZM28.8441 23.6119H28.5801C28.3161 23.6119 28.0558 23.6449 27.7991 23.7109C27.5498 23.7696 27.3151 23.8869 27.0951 24.0629C26.8824 24.2389 26.7761 24.4626 26.7761 24.7339C26.7761 24.9539 26.8384 25.1446 26.9631 25.3059C27.0951 25.4672 27.2638 25.5882 27.4691 25.6689C27.6818 25.7422 27.8871 25.7972 28.0851 25.8339C28.2904 25.8706 28.4958 25.8889 28.7011 25.8889C28.9871 25.8889 29.2621 25.8632 29.5261 25.8119C29.7901 25.7606 30.0358 25.6432 30.2631 25.4599C30.4978 25.2766 30.6151 25.0419 30.6151 24.7559C30.6151 24.5286 30.5601 24.3379 30.4501 24.1839C30.3401 24.0226 30.1898 23.9052 29.9991 23.8319C29.8158 23.7512 29.6288 23.6962 29.4381 23.6669C29.2548 23.6302 29.0568 23.6119 28.8441 23.6119ZM28.7121 27.0879C28.3381 27.0879 27.9678 27.0512 27.6011 26.9779C27.2344 26.8972 26.8824 26.7762 26.5451 26.6149C26.2078 26.4462 25.9328 26.2116 25.7201 25.9109C25.5148 25.6029 25.4121 25.2509 25.4121 24.8549C25.4121 24.4296 25.5258 24.0519 25.7531 23.7219C25.9878 23.3846 26.3031 23.1462 26.6991 23.0069C26.0024 22.6989 25.6541 22.1526 25.6541 21.3679C25.6541 20.9719 25.7458 20.6309 25.9291 20.3449C26.1124 20.0516 26.3581 19.8279 26.6661 19.6739C26.9814 19.5126 27.3078 19.3952 27.6451 19.3219C27.9824 19.2486 28.3344 19.2119 28.7011 19.2119C29.0751 19.2119 29.4308 19.2486 29.7681 19.3219C30.1128 19.3879 30.4354 19.5016 30.7361 19.6629C31.0441 19.8169 31.2898 20.0406 31.4731 20.3339C31.6564 20.6272 31.7481 20.9719 31.7481 21.3679C31.7481 21.7419 31.6454 22.0719 31.4401 22.3579C31.2348 22.6366 30.9524 22.8456 30.5931 22.9849C31.5244 23.2122 31.9901 23.8209 31.9901 24.8109C31.9901 25.2216 31.8874 25.5809 31.6821 25.8889C31.4768 26.1969 31.2054 26.4352 30.8681 26.6039C30.5381 26.7652 30.1898 26.8862 29.8231 26.9669C29.4638 27.0476 29.0934 27.0879 28.7121 27.0879Z"
        fill="#77787D" />
    <path d="M21.0731 21.6321L20.6221 20.5321L23.2071 19.2781H24.0431V27.0001H22.7671V20.8511L21.0731 21.6321Z"
        fill="#77787D" />
    <path
        d="M40.6504 18C40.6504 17.641 40.359 17.3496 40 17.3496C39.641 17.3496 39.3496 17.641 39.3496 18C39.3496 18.359 39.641 18.6504 40 18.6504C40.359 18.6504 40.6504 18.359 40.6504 18ZM41.3496 18C41.3496 18.7456 40.7456 19.3496 40 19.3496C39.2544 19.3496 38.6504 18.7456 38.6504 18C38.6504 17.2544 39.2544 16.6504 40 16.6504C40.7456 16.6504 41.3496 17.2544 41.3496 18Z"
        fill="#77787D" />
</svg>