<svg xmlns="http://www.w3.org/2000/svg" width="60" height="60" viewBox="0 0 60 60" fill="none">
    <path
        d="M42.8789 13.001C43.9426 13.0011 44.9704 13.456 45.7344 14.2783C46.4996 15.102 46.9355 16.2261 46.9355 17.4053V42.8525C46.9354 44.0316 46.4995 45.1559 45.7344 45.9795C44.9704 46.8017 43.9425 47.2567 42.8789 47.2568H11.0537C9.99009 47.2567 8.9622 46.8017 8.19824 45.9795C7.43312 45.1559 6.99717 44.0316 6.99707 42.8525V17.4053C6.99709 16.2261 7.43305 15.102 8.19824 14.2783C8.96221 13.456 9.99002 13.0011 11.0537 13.001H42.8789ZM11.0537 15.2852C10.5101 15.2853 9.99665 15.5179 9.62402 15.9189C9.25249 16.3189 9.04982 16.8541 9.0498 17.4053V42.8525C9.0499 43.4037 9.25252 43.939 9.62402 44.3389C9.99664 44.7399 10.5101 44.9725 11.0537 44.9727H42.8789C43.4225 44.9725 43.936 44.7399 44.3086 44.3389C44.6801 43.939 44.8827 43.4037 44.8828 42.8525V17.4053C44.8828 16.8541 44.6801 16.3189 44.3086 15.9189C43.936 15.5179 43.4225 15.2853 42.8789 15.2852H11.0537ZM15.6006 19.5264C15.8606 19.5264 16.1178 19.6371 16.3135 19.8477C16.5102 20.0595 16.627 20.354 16.627 20.668V39.5898C16.6269 39.9038 16.5103 40.1983 16.3135 40.4102C16.1178 40.6207 15.8605 40.7314 15.6006 40.7314C15.3406 40.7314 15.0834 40.6207 14.8877 40.4102C14.6909 40.1983 14.5742 39.9038 14.5742 39.5898V20.668C14.5742 20.354 14.6909 20.0595 14.8877 19.8477C15.0834 19.637 15.3406 19.5264 15.6006 19.5264ZM23.1777 19.5264C23.4377 19.5264 23.695 19.637 23.8906 19.8477C24.0874 20.0595 24.2041 20.354 24.2041 20.668V39.5898C24.2041 39.9038 24.0874 40.1983 23.8906 40.4102C23.695 40.6207 23.4377 40.7314 23.1777 40.7314C22.9178 40.7314 22.6605 40.6207 22.4648 40.4102C22.2681 40.1983 22.1514 39.9038 22.1514 39.5898V20.668C22.1514 20.354 22.2681 20.0595 22.4648 19.8477C22.6605 19.637 22.9177 19.5264 23.1777 19.5264ZM30.0449 19.5254C30.3048 19.5255 30.5622 19.6371 30.7578 19.8477C30.9544 20.0595 31.0703 20.3541 31.0703 20.668V39.5898C31.0702 39.9037 30.9546 40.1984 30.7578 40.4102C30.5622 40.6207 30.3048 40.7313 30.0449 40.7314C29.7849 40.7314 29.5267 40.6208 29.3311 40.4102C29.1344 40.1984 29.0186 39.9037 29.0186 39.5898V20.668C29.0186 20.3542 29.1345 20.0595 29.3311 19.8477C29.5267 19.637 29.7849 19.5254 30.0449 19.5254ZM51.9707 19.5264C52.2307 19.5264 52.4889 19.637 52.6846 19.8477C52.8812 20.0595 52.9971 20.3542 52.9971 20.668V39.5898C52.997 39.9037 52.8813 40.1984 52.6846 40.4102C52.4889 40.6208 52.2307 40.7314 51.9707 40.7314C51.7108 40.7313 51.4534 40.6207 51.2578 40.4102C51.0611 40.1984 50.9453 39.9038 50.9453 39.5898V20.668C50.9453 20.3541 51.0611 20.0595 51.2578 19.8477C51.4534 19.6371 51.7108 19.5265 51.9707 19.5264Z"
        fill="#77787D" />
</svg>