<svg xmlns="http://www.w3.org/2000/svg" width="60" height="60" viewBox="0 0 60 60" fill="none">
    <path
        d="M45.7696 36.6592C45.7696 34.956 46.1824 33.2777 46.9718 31.7686L46.9737 31.7646C47.5471 30.6797 48.2508 29.6608 49.0753 28.7305L49.381 28.3848L47.0079 24.2744L46.5597 24.3672H46.5587C45.3475 24.615 44.1105 24.7161 42.8751 24.6689H42.8712C41.1701 24.5976 39.5117 24.1152 38.0372 23.2637C36.5627 22.4121 35.3155 21.2163 34.4034 19.7783L34.4015 19.7754C33.7435 18.7296 33.2132 17.6086 32.8224 16.4365L32.6778 16H27.9298L27.7853 16.4365C27.3944 17.6087 26.8642 18.7296 26.2062 19.7754L26.2042 19.7783C25.2919 21.2166 24.0444 22.4131 22.5694 23.2646C21.0945 24.1162 19.4351 24.598 17.7335 24.6689H17.7296C16.65 24.7098 15.5696 24.6377 14.506 24.4531L14.0509 24.3672L13.5997 24.2734L11.2257 28.3848L11.5323 28.7305C12.3569 29.6608 13.0605 30.6797 13.6339 31.7646L13.6359 31.7686C14.4253 33.2777 14.838 34.956 14.838 36.6592C14.838 38.3622 14.4252 40.0398 13.6359 41.5488L13.6339 41.5527C13.0572 42.6447 12.3518 43.664 11.5323 44.5879L11.5314 44.5869L11.2257 44.9326L13.5987 49.043L14.048 48.9512H14.0489C15.1087 48.7343 16.1879 48.629 17.2687 48.6377L17.7325 48.6484L17.7364 48.6494C19.4375 48.7208 21.096 49.2023 22.5704 50.0537C23.9529 50.8521 25.1355 51.953 26.0294 53.2725L26.2042 53.5391L26.2052 53.542C26.777 54.45 27.2552 55.4229 27.63 56.4414L27.7843 56.8809L27.7853 56.8818L27.9298 57.3184H32.6778L32.8224 56.8818L32.8234 56.8799C33.2196 55.6972 33.746 54.584 34.4025 53.542L34.4034 53.5391C35.3157 52.1008 36.5632 50.9053 38.0382 50.0537C39.5132 49.2021 41.1724 48.7203 42.8741 48.6494L42.878 48.6484C44.1119 48.6017 45.3471 48.7037 46.5568 48.9512L47.0069 49.043L49.381 44.9326L49.0753 44.5869C48.256 43.6632 47.5504 42.6446 46.9737 41.5527L46.9718 41.5488C46.1825 40.0398 45.7697 38.3622 45.7696 36.6592ZM47.7696 36.6592C47.7697 38.038 48.1039 39.3961 48.7423 40.6182L48.9357 40.9717C49.3993 41.7894 49.9471 42.5569 50.5714 43.2607H50.5724L50.962 43.7012C51.4825 44.2889 51.5684 45.1433 51.1759 45.8232L48.6769 50.1523C48.284 50.8329 47.4994 51.1861 46.7296 51.0283L46.1554 50.9102C45.1033 50.695 44.0292 50.606 42.9562 50.6465L42.9571 50.6475C41.5781 50.7049 40.2335 51.0951 39.0382 51.7852C37.844 52.4746 36.833 53.4423 36.0939 54.6064L36.0948 54.6074C35.5247 55.5125 35.0662 56.4816 34.7198 57.5156L34.7189 57.5146L34.5343 58.0703C34.2857 58.8153 33.5883 59.3184 32.8028 59.3184H27.8048C27.0194 59.3184 26.3219 58.8153 26.0734 58.0703L25.8878 57.5146C25.5437 56.4862 25.0803 55.5086 24.5128 54.6074V54.6064C23.7739 53.4428 22.7641 52.4755 21.5704 51.7861C20.3754 51.096 19.0312 50.7053 17.6525 50.6475V50.6465C16.7125 50.6109 15.7718 50.6752 14.8458 50.8359L14.4503 50.9102L13.878 51.0273C13.1081 51.1853 12.3238 50.833 11.9308 50.1523L9.43175 45.8232C9.03923 45.1433 9.12512 44.2889 9.64562 43.7012L10.0353 43.2607H10.0362C10.7496 42.4565 11.3633 41.5688 11.8653 40.6182C12.5038 39.3961 12.838 38.038 12.838 36.6592C12.838 35.2802 12.504 33.9214 11.8653 32.6992C11.3662 31.7547 10.7535 30.868 10.0353 30.0576V30.0566L9.64562 29.6172C9.12497 29.0294 9.03913 28.1742 9.43175 27.4941L11.9308 23.165L12.0089 23.041C12.3942 22.4822 13.0598 22.1837 13.7335 22.2666L13.878 22.29L14.4523 22.4072L14.8478 22.4824C15.7725 22.6429 16.7119 22.7062 17.6505 22.6709L17.9083 22.6562C19.1969 22.5635 20.4487 22.1793 21.5694 21.5322C22.7648 20.8421 23.7754 19.8726 24.5148 18.707C25.0867 17.7976 25.548 16.8229 25.8878 15.8037L26.0734 15.248L26.1251 15.1113C26.4093 14.442 27.0683 14 27.8048 14H32.8028C33.5393 14 34.1983 14.442 34.4825 15.1113L34.5343 15.248L34.7198 15.8037C35.0597 16.8229 35.5209 17.7976 36.0929 18.707L36.2345 18.9238C36.9589 19.993 37.9169 20.8852 39.0372 21.5322C40.2322 22.2223 41.5765 22.6131 42.9552 22.6709H42.9542C44.0286 22.7117 45.104 22.6227 46.1573 22.4072L46.7296 22.29L46.8741 22.2666C47.596 22.1777 48.3084 22.5271 48.6769 23.165L51.1759 27.4941C51.5685 28.1742 51.4827 29.0294 50.962 29.6172L50.5724 30.0566V30.0576C49.8542 30.868 49.2415 31.7547 48.7423 32.6992C48.1037 33.9214 47.7696 35.2802 47.7696 36.6592Z"
        fill="#77787D" />
    <path
        d="M36.5273 36.6589C36.5273 35.0085 35.872 33.4257 34.7051 32.2585C33.5379 31.0914 31.9544 30.4353 30.3037 30.4353C28.6531 30.4353 27.0705 31.0914 25.9033 32.2585C24.7362 33.4257 24.0801 35.0083 24.0801 36.6589C24.0801 38.3096 24.7361 39.8931 25.9033 41.0603C27.0704 42.2272 28.6533 42.8825 30.3037 42.8826C31.9544 42.8826 33.5379 42.2275 34.7051 41.0603C35.8723 39.8931 36.5273 38.3096 36.5273 36.6589ZM38.5273 36.6589C38.5273 38.84 37.6614 40.9321 36.1191 42.4744C34.5769 44.0166 32.4848 44.8826 30.3037 44.8826C28.1227 44.8825 26.0305 44.0166 24.4883 42.4744C22.9461 40.9321 22.0801 38.8399 22.0801 36.6589C22.0801 34.4779 22.9461 32.3857 24.4883 30.8435C26.0305 29.3013 28.1227 28.4353 30.3037 28.4353C32.4847 28.4353 34.5769 29.3013 36.1191 30.8435C37.6614 32.3857 38.5273 34.4779 38.5273 36.6589Z"
        fill="#77787D" />
    <path
        d="M29.3027 40.3718V37.5916H26.5898C26.0376 37.5916 25.5898 37.1438 25.5898 36.5916C25.5901 36.0394 26.0377 35.5916 26.5898 35.5916H29.3027V32.946C29.3027 32.3938 29.7505 31.9461 30.3027 31.946C30.855 31.946 31.3027 32.3938 31.3027 32.946V35.5916H34.0156C34.5678 35.5916 35.0154 36.0394 35.0156 36.5916C35.0156 37.1438 34.5679 37.5916 34.0156 37.5916H31.3027V40.3718C31.3027 40.9241 30.855 41.3718 30.3027 41.3718C29.7505 41.3718 29.3027 40.9241 29.3027 40.3718Z"
        fill="#77787D" />
    <path
        d="M17.4999 18.5V7.66113L15.7528 9.6582C15.3893 10.0737 14.7573 10.1163 14.3417 9.75293C13.9262 9.38935 13.8836 8.75744 14.247 8.3418L17.747 4.3418C17.9369 4.12478 18.2115 4 18.4999 4C18.7883 4 19.063 4.12478 19.2528 4.3418L22.7528 8.3418C23.1162 8.75744 23.0736 9.38935 22.6581 9.75293C22.2425 10.1163 21.6106 10.0737 21.247 9.6582L19.4999 7.66113V18.5C19.4999 19.0523 19.0522 19.5 18.4999 19.5C17.9476 19.5 17.4999 19.0523 17.4999 18.5Z"
        fill="#77787D" />
    <path
        d="M41.4999 18.5V7.66113L39.7528 9.6582C39.3893 10.0737 38.7573 10.1163 38.3417 9.75293C37.9262 9.38935 37.8836 8.75744 38.247 8.3418L41.747 4.3418C41.9369 4.12478 42.2115 4 42.4999 4C42.7883 4 43.063 4.12478 43.2528 4.3418L46.7528 8.3418C47.1162 8.75744 47.0736 9.38935 46.6581 9.75293C46.2425 10.1163 45.6106 10.0737 45.247 9.6582L43.4999 7.66113V18.5C43.4999 19.0523 43.0522 19.5 42.4999 19.5C41.9476 19.5 41.4999 19.0523 41.4999 18.5Z"
        fill="#77787D" />
    <path
        d="M29.4999 10.5V4.66113L27.7528 6.6582C27.3893 7.07372 26.7573 7.11629 26.3417 6.75293C25.9262 6.38935 25.8836 5.75744 26.247 5.3418L29.747 1.3418C29.9369 1.12478 30.2115 1 30.4999 1C30.7883 1 31.063 1.12478 31.2528 1.3418L34.7528 5.3418C35.1162 5.75744 35.0736 6.38935 34.6581 6.75293C34.2425 7.11629 33.6106 7.07372 33.247 6.6582L31.4999 4.66113V10.5C31.4999 11.0523 31.0522 11.5 30.4999 11.5C29.9476 11.5 29.4999 11.0523 29.4999 10.5Z"
        fill="#77787D" />
</svg>