<svg xmlns="http://www.w3.org/2000/svg" width="60" height="60" viewBox="0 0 60 60" fill="none">
    <path
        d="M31.7578 6L31.9209 6.00684C32.2991 6.03852 32.6618 6.17916 32.9629 6.41406C33.307 6.68263 33.552 7.05902 33.6582 7.48242L34.9961 12.8271L35.2598 12.9092C36.3405 13.243 37.3731 13.6714 38.3574 14.1953L38.4648 14.2529H38.7256L38.8418 14.1836L43.3311 11.4893L43.4746 11.4121C43.8153 11.2446 44.1981 11.1791 44.5771 11.2256C45.0105 11.2788 45.4147 11.4748 45.7236 11.7832L48.2158 14.2764L48.3262 14.3965C48.5711 14.6865 48.7278 15.0428 48.7744 15.4219C48.8209 15.801 48.7555 16.1847 48.5879 16.5254L48.5098 16.6689L45.6738 21.3945L45.8037 21.6387C46.3277 22.6231 46.756 23.6565 47.0898 24.7373L47.1719 25.001L52.5166 26.3389L52.6719 26.3848C53.0314 26.5073 53.3498 26.732 53.585 27.0332C53.8536 27.3774 53.9989 27.8026 53.999 28.2393V31.7617L53.9922 31.9238C53.9606 32.3024 53.8201 32.6655 53.585 32.9668C53.3498 33.2681 53.0314 33.4926 52.6719 33.6152L52.5166 33.6611L47.1719 34.999L47.0898 35.2627C46.756 36.3436 46.3277 37.3769 45.8037 38.3613L45.6738 38.6064L48.5098 43.332L48.5879 43.4756C48.7553 43.8161 48.8209 44.1992 48.7744 44.5781C48.7278 44.9572 48.5711 45.3135 48.3262 45.6035L48.2158 45.7246L45.7236 48.2168C45.4147 48.5252 45.0105 48.7222 44.5771 48.7754C44.1982 48.8218 43.8151 48.7562 43.4746 48.5889L43.3311 48.5107L38.6055 45.6748L38.3604 45.8047C37.3759 46.3287 36.3426 46.757 35.2617 47.0908L34.998 47.1729L33.6602 52.5176C33.554 52.941 33.3099 53.3174 32.9658 53.5859C32.6645 53.8211 32.3014 53.9616 31.9229 53.9932L31.7607 54H28.2383C27.8016 53.9999 27.3764 53.8546 27.0322 53.5859C26.731 53.3508 26.5064 53.0323 26.3838 52.6729L26.3379 52.5176L25 47.1729L24.7363 47.0908L24.3369 46.9619C23.4072 46.6505 22.5033 46.2634 21.6367 45.8037L21.3936 45.6748L16.668 48.5107C16.2936 48.7353 15.8542 48.8285 15.4209 48.7754C15.0418 48.7288 14.6855 48.5721 14.3955 48.3271L14.2754 48.2168L11.7822 45.7246C11.4738 45.4157 11.2778 45.0114 11.2246 44.5781C11.1715 44.145 11.2639 43.7063 11.4883 43.332L14.3242 38.6064L14.1953 38.3623C13.6701 37.3721 13.2392 36.3336 12.9082 35.2627L12.8262 34.999L7.48145 33.6611C7.05842 33.555 6.68257 33.3105 6.41406 32.9668C6.1791 32.6659 6.03779 32.3039 6.00586 31.9258L5.99902 31.7627V28.2422C5.99903 27.8055 6.14449 27.3804 6.41309 27.0361C6.68166 26.692 7.05806 26.447 7.48145 26.3408L12.8262 25.0039L12.9082 24.7393C13.242 23.6586 13.6705 22.6259 14.1943 21.6416L14.3242 21.3975L11.4883 16.6699C11.264 16.2956 11.1714 15.857 11.2246 15.4238C11.2779 14.9907 11.474 14.5872 11.7822 14.2783L14.2754 11.7832L14.3955 11.6729C14.6855 11.428 15.0418 11.2722 15.4209 11.2256C15.8542 11.1725 16.2936 11.2647 16.668 11.4893L21.3936 14.3252L21.6377 14.1953C22.6221 13.6714 23.6555 13.243 24.7363 12.9092L25 12.8271L26.3379 7.48242L26.3838 7.32715C26.5063 6.96792 26.7313 6.65016 27.0322 6.41504C27.376 6.14656 27.8001 6.00052 28.2363 6H31.7578ZM28.2383 7.95898L26.6318 14.376L25.3115 14.7842L24.9561 14.8984C24.2474 15.1352 23.5561 15.422 22.8877 15.7559L22.5557 15.9258L21.332 16.5732L15.6572 13.168L15.3877 13.4385L13.168 15.6611L13.3643 15.9893L16.5723 21.3359L15.9248 22.5557C15.5162 23.3264 15.1724 24.1302 14.8955 24.957L14.7812 25.3135L14.373 26.6338L7.95801 28.2393V31.7617L14.375 33.3662L14.7832 34.6855C15.0384 35.5234 15.3619 36.3324 15.7539 37.1123L15.9258 37.4453L16.5723 38.666L13.167 44.3418L13.4375 44.6113L15.6602 46.8311L15.9883 46.6348L21.335 43.4268L22.5547 44.0732C23.4358 44.5416 24.3559 44.923 25.3125 45.2178L26.6328 45.625L28.2383 52.041H31.7607L33.3652 45.623L34.6865 45.2158C35.6388 44.9224 36.5615 44.5402 37.4424 44.0742L38.665 43.4268L44.3408 46.832L44.6104 46.5615L46.8301 44.3389L46.6338 44.0107L43.4258 38.6631L44.0732 37.4443L44.0723 37.4434C44.5404 36.5625 44.9221 35.6429 45.2168 34.6865L45.624 33.3652L52.04 31.7617V28.2393L45.6221 26.6328L45.2148 25.3125C44.958 24.479 44.6326 23.6685 44.2432 22.8887L44.0732 22.5566L43.4258 21.333L46.8311 15.6582L46.5605 15.3887L44.3379 13.1689L44.0098 13.3652L38.6621 16.5732L37.4434 15.9258C36.6727 15.5173 35.8696 15.1733 35.043 14.8965L34.6855 14.7822L33.3643 14.374L31.7607 7.95898H28.2383ZM29.999 20.6943C32.4671 20.6943 34.8349 21.6738 36.5801 23.4189C38.3253 25.1642 39.3056 27.5319 39.3057 30C39.3057 32.4681 38.3253 34.8358 36.5801 36.5811C34.8348 38.3263 32.4672 39.3066 29.999 39.3066C27.5309 39.3066 25.1632 38.3263 23.418 36.5811C21.6728 34.8358 20.6934 32.4681 20.6934 30C20.6934 27.5319 21.6728 25.1642 23.418 23.4189C25.1632 21.6737 27.5309 20.6944 29.999 20.6943ZM29.999 22.6533C28.0505 22.6533 26.1815 23.4269 24.8037 24.8047C23.4259 26.1825 22.6524 28.0515 22.6523 30C22.6523 31.9485 23.426 33.8175 24.8037 35.1953C26.1815 36.5731 28.0505 37.3467 29.999 37.3467C31.9476 37.3467 33.8165 36.5731 35.1943 35.1953C36.486 33.9036 37.2478 32.1801 37.3379 30.3643L37.3457 30C37.3457 28.0515 36.5721 26.1825 35.1943 24.8047C33.8165 23.4269 31.9475 22.6533 29.999 22.6533Z"
        fill="#77787D" />
</svg>