<svg xmlns="http://www.w3.org/2000/svg" width="60" height="61" viewBox="0 0 60 61" fill="none">
    <rect x="24" y="24.4084" width="12" height="12" rx="1" stroke="#77787D" stroke-width="2" stroke-linecap="round"
        stroke-linejoin="round" />
    <path
        d="M9.20586 12.4884C8.36545 10.6607 10.2523 8.7739 12.08 9.6143L20.947 13.6915C26.6931 16.3337 33.3069 16.3337 39.053 13.6915L47.92 9.6143C49.7477 8.7739 51.6345 10.6607 50.7941 12.4884L46.7169 21.3554C44.0747 27.1016 44.0747 33.7153 46.7169 39.4615L50.7941 48.3285C51.6345 50.1561 49.7477 52.043 47.92 51.2026L39.053 47.1254C33.3069 44.4832 26.6931 44.4832 20.947 47.1254L12.08 51.2026C10.2523 52.043 8.36545 50.1561 9.20586 48.3285L13.2831 39.4615C15.9253 33.7153 15.9253 27.1016 13.2831 21.3554L9.20586 12.4884Z"
        stroke="#77787D" stroke-width="2" stroke-linecap="round" stroke-linejoin="round" />
    <circle cx="16.5" cy="43.9084" r="1.5" fill="#77787D" />
    <circle cx="16.5" cy="16.9084" r="1.5" fill="#77787D" />
    <circle cx="43.5" cy="43.9084" r="1.5" fill="#77787D" />
    <circle cx="43.5" cy="16.9084" r="1.5" fill="#77787D" />
</svg>