<svg xmlns="http://www.w3.org/2000/svg" width="60" height="60" viewBox="0 0 60 60" fill="none">
    <path fill-rule="evenodd" clip-rule="evenodd"
        d="M34.6444 20.874C31.5579 20.5316 28.443 20.5316 25.3565 20.874C23.0499 21.1308 21.18 22.9494 20.9077 25.2842C20.5412 28.4174 20.5412 31.5827 20.9077 34.7159C21.18 37.0533 23.0499 38.8667 25.3565 39.1262C28.4182 39.4678 31.5827 39.4678 34.6444 39.1262C35.7751 39.0018 36.8304 38.4981 37.6383 37.6973C38.4461 36.8964 38.9589 35.8455 39.0932 34.7159C39.4605 31.5823 39.4605 28.4178 39.0932 25.2842C38.9589 24.1546 38.4461 23.1037 37.6383 22.3029C36.8304 21.502 35.7751 20.9983 34.6444 20.874ZM25.7829 24.7037C28.5621 24.3955 31.4388 24.3955 34.218 24.7037C34.4828 24.7329 34.7301 24.85 34.9205 25.0362C35.1109 25.2225 35.2334 25.4671 35.2686 25.7311C35.5999 28.5668 35.5999 31.4333 35.2686 34.269C35.2333 34.5334 35.1104 34.7783 34.9195 34.9646C34.7285 35.1509 34.4807 35.2677 34.2155 35.2964C31.4131 35.605 28.5853 35.605 25.7829 35.2964C25.5181 35.2672 25.2708 35.1501 25.0804 34.9639C24.89 34.7777 24.7675 34.533 24.7323 34.269C24.4004 31.4327 24.4004 28.5674 24.7323 25.7311C24.7676 25.4667 24.8905 25.2218 25.0814 25.0355C25.2724 24.8492 25.5202 24.7324 25.7854 24.7037"
        fill="#77787D" />
    <path
        d="M25.3565 20.874C28.443 20.5316 31.558 20.5316 34.6446 20.874C35.7752 20.9984 36.8309 21.5018 37.6387 22.3027C38.4465 23.1035 38.9586 24.1546 39.0928 25.2841C39.4601 28.4177 39.4601 31.5821 39.0928 34.7158C38.9586 35.8453 38.4464 36.8964 37.6387 37.6972C36.8309 38.498 35.7752 39.0015 34.6446 39.1259C31.5828 39.4675 28.4182 39.4675 25.3565 39.1259C23.0499 38.8665 21.1805 37.0531 20.9082 34.7158C20.5417 31.5825 20.5417 28.4173 20.9082 25.2841C21.1805 22.9493 23.0499 21.1308 25.3565 20.874ZM34.5342 21.8681C31.7093 21.5548 28.8602 21.5353 26.0323 21.8095L25.4668 21.8681C23.6154 22.0745 22.1188 23.5358 21.9014 25.4003C21.5439 28.4563 21.5439 31.5435 21.9014 34.5995V34.6005C22.1188 36.4657 23.6139 37.9227 25.4668 38.1318C28.4548 38.4652 31.5453 38.4651 34.5332 38.1318H34.5352C35.4413 38.0321 36.2872 37.629 36.9346 36.9872C37.5816 36.3459 37.9918 35.5041 38.0996 34.5995L38.1631 34.0263C38.457 31.1576 38.4355 28.2657 38.0996 25.4003V25.3993C37.9916 24.4952 37.5813 23.6538 36.9346 23.0126C36.2872 22.3709 35.4413 21.9678 34.5352 21.8681H34.5342ZM26.209 23.6542C28.8938 23.3948 31.6541 23.4133 34.3281 23.7099L34.5088 23.7372C34.9268 23.8192 35.3137 24.0216 35.6201 24.3212C35.9265 24.6209 36.1374 25.0029 36.2285 25.4189L36.2598 25.5995L36.2617 25.6152C36.6021 28.5278 36.6021 31.472 36.2617 34.3847L36.2608 34.3935L36.2598 34.4013C36.1949 34.8874 35.9692 35.3381 35.6182 35.6806C35.2671 36.0231 34.8109 36.2381 34.3233 36.2909L34.3223 36.29C31.4481 36.6062 28.548 36.6064 25.6739 36.29H25.6729C25.1861 36.2361 24.731 36.0211 24.3809 35.6786C24.0309 35.3363 23.8059 34.8865 23.7412 34.4013L23.7403 34.3925L23.7393 34.3847C23.3984 31.4714 23.3984 28.5284 23.7393 25.6152L23.7403 25.6064L23.7412 25.5986C23.8061 25.1124 24.0318 24.6617 24.3828 24.3193C24.7328 23.9779 25.1871 23.7636 25.6729 23.7099L26.209 23.6542ZM34.2178 24.704C31.786 24.4343 29.2796 24.4002 26.8291 24.6025L25.7852 24.704C25.5201 24.7328 25.2719 24.8489 25.0811 25.0351C24.8902 25.2214 24.7677 25.467 24.7324 25.7314C24.4006 28.5674 24.4006 31.4324 24.7324 34.2685C24.7676 34.5324 24.8898 34.7776 25.0801 34.9638C25.2705 35.15 25.5185 35.2676 25.7832 35.2968C28.5855 35.6053 31.4136 35.6053 34.2158 35.2968C34.4809 35.268 34.7291 35.151 34.9199 34.9648C35.1108 34.7785 35.2333 34.5328 35.2686 34.2685C35.5999 31.433 35.5999 28.5668 35.2686 25.7314C35.2335 25.4674 35.1112 25.2223 34.9209 25.0361C34.7305 24.8498 34.4825 24.7333 34.2178 24.704Z"
        fill="#EBF2FC" />
    <path
        d="M37.7021 6.00049C37.9363 6.00049 38.1606 6.09379 38.3262 6.25928C38.4917 6.42483 38.5849 6.64918 38.585 6.8833V14.6177L39.4414 14.7729C40.8736 15.0339 42.1916 15.7277 43.2178 16.7603C44.244 17.7929 44.9296 19.1154 45.1816 20.5493L45.333 21.4116H53.1133C53.3475 21.4116 53.5727 21.5048 53.7383 21.6704C53.9037 21.8359 53.997 22.0604 53.9971 22.2944C53.9971 22.5286 53.9039 22.7539 53.7383 22.9194C53.5727 23.085 53.3475 23.1782 53.1133 23.1782H45.4775L45.5566 24.2944C45.6463 25.5635 45.7074 26.8331 45.7412 28.1021L45.7686 29.1177H50.5449C50.7791 29.1177 51.0043 29.2109 51.1699 29.3765C51.3353 29.542 51.4277 29.7665 51.4277 30.0005C51.4277 30.2345 51.3353 30.459 51.1699 30.6245C51.0043 30.7901 50.7791 30.8833 50.5449 30.8833H45.7676L45.7412 31.9009C45.7091 33.1687 45.6479 34.4366 45.5566 35.7046L45.4756 36.8237H53.1133C53.3474 36.8237 53.5727 36.916 53.7383 37.0815C53.9039 37.2471 53.9971 37.4724 53.9971 37.7065C53.997 37.9405 53.9037 38.1651 53.7383 38.3306C53.5727 38.4961 53.3475 38.5894 53.1133 38.5894H45.333L45.1816 39.4517C44.9296 40.8855 44.244 42.2081 43.2178 43.2407C42.1916 44.2733 40.8736 44.9671 39.4414 45.228L38.585 45.3843V53.1177C38.5849 53.3518 38.4917 53.5761 38.3262 53.7417C38.1606 53.9072 37.9363 54.0005 37.7021 54.0005C37.468 54.0005 37.2437 53.9072 37.0781 53.7417C36.9126 53.5761 36.8194 53.3518 36.8193 53.1177V45.5151L35.7031 45.5933C34.4367 45.6822 33.1676 45.7416 31.8984 45.771L30.8799 45.7944V50.5493C30.8798 50.7833 30.7866 51.0078 30.6211 51.1733C30.4556 51.3388 30.2311 51.432 29.9971 51.4321C29.7629 51.4321 29.5377 51.3389 29.3721 51.1733C29.2066 51.0078 29.1134 50.7833 29.1133 50.5493V45.7944L28.0938 45.771C26.8227 45.7423 25.5551 45.6828 24.291 45.5933L23.1738 45.5142V53.1177C23.1738 53.3518 23.0806 53.5761 22.915 53.7417C22.7495 53.9072 22.5252 54.0005 22.291 54.0005C22.0569 54.0005 21.8326 53.9072 21.667 53.7417C21.5014 53.5761 21.4082 53.3518 21.4082 53.1177V45.3843L20.5518 45.228C19.1196 44.9671 17.8016 44.2733 16.7754 43.2407C15.7492 42.2081 15.0635 40.8855 14.8115 39.4517L14.6602 38.5894H6.87988C6.64571 38.5894 6.42047 38.4961 6.25488 38.3306C6.08947 38.1651 5.99716 37.9405 5.99707 37.7065C5.99707 37.4724 6.0893 37.2471 6.25488 37.0815C6.42047 36.916 6.64571 36.8237 6.87988 36.8237H14.5156L14.4365 35.7065C14.3468 34.4375 14.2858 33.1679 14.252 31.8989L14.2246 30.8833H9.44824C9.2141 30.8833 8.9898 30.7901 8.82422 30.6245C8.65863 30.4589 8.56543 30.2347 8.56543 30.0005C8.56544 29.7663 8.65864 29.542 8.82422 29.3765C8.9898 29.2109 9.21411 29.1177 9.44824 29.1177H14.2256L14.252 28.1001C14.2841 26.8323 14.3452 25.5643 14.4365 24.2964L14.5176 23.1782H6.87988C6.64571 23.1782 6.42047 23.085 6.25488 22.9194C6.08932 22.7539 5.99707 22.5286 5.99707 22.2944C5.99717 22.0605 6.08947 21.8359 6.25488 21.6704C6.42047 21.5048 6.64571 21.4116 6.87988 21.4116H14.6602L14.8115 20.5493C15.0635 19.1154 15.7492 17.7929 16.7754 16.7603C17.8016 15.7277 19.1196 15.0339 20.5518 14.7729L21.4082 14.6177V6.8833C21.4082 6.64919 21.5014 6.42483 21.667 6.25928C21.8326 6.09377 22.0569 6.00049 22.291 6.00049C22.5251 6.00051 22.7495 6.09373 22.915 6.25928C23.0806 6.42483 23.1738 6.64918 23.1738 6.8833V14.4858L24.29 14.4077C25.5565 14.3188 26.8255 14.2594 28.0947 14.23L29.1133 14.2065V9.45166C29.1134 9.21766 29.2066 8.99313 29.3721 8.82764C29.5377 8.66205 29.7629 8.56885 29.9971 8.56885C30.2311 8.56897 30.4556 8.66216 30.6211 8.82764C30.7866 8.99313 30.8798 9.21765 30.8799 9.45166V14.2065L31.8984 14.23C33.1676 14.2594 34.4367 14.3188 35.7031 14.4077L36.8193 14.4858V6.8833C36.8194 6.64918 36.9126 6.42483 37.0781 6.25928C37.2437 6.09373 37.468 6.00053 37.7021 6.00049ZM35.7754 46.6343C35.0338 46.6863 34.2915 46.7264 33.5488 46.7583C33.9435 46.7413 34.3381 46.7233 34.7324 46.7007C35.0802 46.6807 35.4279 46.6587 35.7754 46.6343ZM38.7598 16.4546C32.9354 15.8098 27.0577 15.8098 21.2334 16.4546V16.4575C20.0396 16.5913 18.9251 17.1223 18.0693 17.9653C17.2132 18.8088 16.665 19.9157 16.5137 21.1079L16.5127 21.1177C15.8233 27.0192 15.8233 32.9817 16.5127 38.8833L16.5146 38.8931C16.6659 40.0848 17.2128 41.1913 18.0684 42.0347C18.9238 42.878 20.0377 43.4092 21.2314 43.5435L21.2334 43.5444C27.0567 44.189 32.9335 44.189 38.7568 43.5444L38.7588 43.5435C39.953 43.4099 41.0678 42.879 41.9238 42.0356C42.7799 41.1922 43.3281 40.0853 43.4795 38.8931L43.4805 38.8833C44.1698 32.9817 44.1698 27.0192 43.4805 21.1177C43.1946 18.674 41.2221 16.7315 38.7617 16.4546H38.7598ZM21.3506 17.4946C21.2227 17.5089 21.096 17.5287 20.9707 17.5542C21.0953 17.5289 21.2214 17.5089 21.3486 17.4946H21.3506L21.3486 17.4917H21.3506C21.6857 17.4546 22.021 17.419 22.3564 17.3862L21.3506 17.4946ZM29.9971 17.0142C31.08 17.0142 32.1629 17.0368 33.2451 17.0815L34.3262 17.1333C32.8842 17.0538 31.4406 17.0142 29.9971 17.0142ZM25.2607 13.3003C24.913 13.3203 24.5653 13.3423 24.2178 13.3667C24.959 13.3147 25.701 13.2736 26.4434 13.2417C26.0491 13.2587 25.6548 13.2777 25.2607 13.3003ZM33.5488 13.2417C34.2915 13.2736 35.0338 13.3146 35.7754 13.3667L34.7324 13.3003C34.3381 13.2776 33.9435 13.2587 33.5488 13.2417ZM46.7295 33.481C46.7126 33.8628 46.6931 34.2446 46.6709 34.6265C46.6931 34.2446 46.7126 33.8628 46.7295 33.481ZM46.666 34.7358C46.6682 34.6994 46.6688 34.6629 46.6709 34.6265C46.6678 34.6798 46.6653 34.7332 46.6621 34.7866C46.6631 34.7698 46.665 34.7526 46.666 34.7358Z"
        fill="#77787D" />
</svg>