<svg width="766" height="326" viewBox="0 0 766 326" fill="none" xmlns="http://www.w3.org/2000/svg">
<path d="M2.29954 11.5605V0.651456H3.62056V5.50941H9.43732V0.651456H10.7583V11.5605H9.43732V6.68129H3.62056V11.5605H2.29954ZM15.6403 11.7523C15.1218 11.7523 14.6513 11.6547 14.2287 11.4593C13.8061 11.2605 13.4705 10.9746 13.2219 10.6017C12.9734 10.2253 12.8491 9.77077 12.8491 9.2381C12.8491 8.76935 12.9414 8.38938 13.1261 8.09819C13.3107 7.80344 13.5575 7.57262 13.8665 7.40572C14.1754 7.23881 14.5163 7.11452 14.8892 7.03285C15.2656 6.94762 15.6438 6.88015 16.0238 6.83043C16.521 6.76651 16.924 6.71857 17.233 6.68661C17.5455 6.6511 17.7727 6.59251 17.9148 6.51083C18.0604 6.42915 18.1332 6.28711 18.1332 6.08469V6.04208C18.1332 5.51651 17.9893 5.10813 17.7017 4.81694C17.4176 4.52575 16.9862 4.38015 16.4073 4.38015C15.8072 4.38015 15.3366 4.51154 14.9957 4.77433C14.6548 5.03711 14.4151 5.31765 14.2766 5.61594L13.0835 5.18981C13.2965 4.69265 13.5806 4.30558 13.9357 4.02859C14.2944 3.74805 14.685 3.55273 15.1076 3.44265C15.5337 3.32901 15.9528 3.27219 16.3647 3.27219C16.6275 3.27219 16.9293 3.30415 17.2702 3.36807C17.6147 3.42844 17.9467 3.55451 18.2663 3.74627C18.5895 3.93803 18.8576 4.22745 19.0707 4.61452C19.2837 5.0016 19.3903 5.52006 19.3903 6.16992V11.5605H18.1332V10.4526H18.0692C17.984 10.6301 17.842 10.8201 17.6431 11.0225C17.4442 11.225 17.1797 11.3972 16.8494 11.5392C16.5192 11.6813 16.1161 11.7523 15.6403 11.7523ZM15.832 10.623C16.3292 10.623 16.7482 10.5254 17.0891 10.3301C17.4336 10.1348 17.6928 9.88263 17.8668 9.57369C18.0444 9.26474 18.1332 8.93981 18.1332 8.5989V7.44833C18.0799 7.51225 17.9627 7.57085 17.7816 7.62411C17.604 7.67383 17.3981 7.71822 17.1637 7.75728C16.9329 7.79279 16.7074 7.82475 16.4872 7.85316C16.2706 7.87802 16.0948 7.89933 15.9599 7.91708C15.6332 7.95969 15.3278 8.02894 15.0437 8.12482C14.7631 8.21715 14.5359 8.35742 14.3619 8.54563C14.1914 8.73029 14.1062 8.98242 14.1062 9.30202C14.1062 9.73881 14.2678 10.0691 14.5909 10.2928C14.9176 10.513 15.3313 10.623 15.832 10.623ZM29.2274 11.731C28.4887 11.731 27.8406 11.5552 27.2831 11.2037C26.7291 10.8521 26.2959 10.3603 25.9834 9.72816C25.6744 9.09606 25.52 8.35742 25.52 7.51225C25.52 6.65998 25.6744 5.91602 25.9834 5.28036C26.2959 4.64471 26.7291 4.1511 27.2831 3.79954C27.8406 3.44798 28.4887 3.27219 29.2274 3.27219C29.966 3.27219 30.6123 3.44798 31.1663 3.79954C31.7238 4.1511 32.157 4.64471 32.466 5.28036C32.7785 5.91602 32.9347 6.65998 32.9347 7.51225C32.9347 8.35742 32.7785 9.09606 32.466 9.72816C32.157 10.3603 31.7238 10.8521 31.1663 11.2037C30.6123 11.5552 29.966 11.731 29.2274 11.731ZM29.2274 10.6017C29.7884 10.6017 30.2501 10.4579 30.6123 10.1703C30.9745 9.88263 31.2426 9.50444 31.4166 9.03569C31.5906 8.56694 31.6776 8.05913 31.6776 7.51225C31.6776 6.96538 31.5906 6.45579 31.4166 5.98349C31.2426 5.51119 30.9745 5.12944 30.6123 4.83825C30.2501 4.54705 29.7884 4.40146 29.2274 4.40146C28.6663 4.40146 28.2046 4.54705 27.8424 4.83825C27.4802 5.12944 27.2121 5.51119 27.0381 5.98349C26.8641 6.45579 26.7771 6.96538 26.7771 7.51225C26.7771 8.05913 26.8641 8.56694 27.0381 9.03569C27.2121 9.50444 27.4802 9.88263 27.8424 10.1703C28.2046 10.4579 28.6663 10.6017 29.2274 10.6017ZM38.1776 11.731C37.4105 11.731 36.75 11.5499 36.196 11.1877C35.642 10.8255 35.2159 10.3265 34.9176 9.69087C34.6193 9.05522 34.4702 8.32901 34.4702 7.51225C34.4702 6.68129 34.6229 5.94798 34.9283 5.31232C35.2372 4.67312 35.6669 4.17418 36.2173 3.81552C36.7713 3.4533 37.4176 3.27219 38.1562 3.27219C38.7315 3.27219 39.25 3.37873 39.7116 3.5918C40.1733 3.80487 40.5515 4.10316 40.8462 4.48668C41.141 4.87021 41.3239 5.31765 41.3949 5.82901H40.1378C40.0419 5.45614 39.8288 5.12589 39.4986 4.83825C39.1719 4.54705 38.7315 4.40146 38.1776 4.40146C37.6875 4.40146 37.2578 4.5293 36.8885 4.78498C36.5227 5.03711 36.2369 5.394 36.0309 5.85565C35.8285 6.31374 35.7273 6.85174 35.7273 7.46964C35.7273 8.10174 35.8267 8.65217 36.0256 9.12092C36.228 9.58967 36.5121 9.95366 36.8778 10.2129C37.2472 10.4721 37.6804 10.6017 38.1776 10.6017C38.5043 10.6017 38.8008 10.5449 39.0671 10.4313C39.3335 10.3176 39.5589 10.1543 39.7436 9.94123C39.9283 9.72816 40.0597 9.47248 40.1378 9.17418H41.3949C41.3239 9.65714 41.1481 10.0922 40.8675 10.4792C40.5906 10.8627 40.223 11.1681 39.7649 11.3954C39.3104 11.6191 38.7813 11.731 38.1776 11.731ZM48.7085 6.89435V8.06623H44.1914V6.89435H48.7085ZM44.4897 3.37873V11.5605H43.2326V3.37873H44.4897ZM49.6673 3.37873V11.5605H48.4102V3.37873H49.6673ZM55.2869 11.731C54.5483 11.731 53.9002 11.5552 53.3427 11.2037C52.7887 10.8521 52.3555 10.3603 52.043 9.72816C51.734 9.09606 51.5795 8.35742 51.5795 7.51225C51.5795 6.65998 51.734 5.91602 52.043 5.28036C52.3555 4.64471 52.7887 4.1511 53.3427 3.79954C53.9002 3.44798 54.5483 3.27219 55.2869 3.27219C56.0256 3.27219 56.6719 3.44798 57.2259 3.79954C57.7834 4.1511 58.2166 4.64471 58.5256 5.28036C58.8381 5.91602 58.9943 6.65998 58.9943 7.51225C58.9943 8.35742 58.8381 9.09606 58.5256 9.72816C58.2166 10.3603 57.7834 10.8521 57.2259 11.2037C56.6719 11.5552 56.0256 11.731 55.2869 11.731ZM55.2869 10.6017C55.848 10.6017 56.3097 10.4579 56.6719 10.1703C57.0341 9.88263 57.3022 9.50444 57.4762 9.03569C57.6502 8.56694 57.7372 8.05913 57.7372 7.51225C57.7372 6.96538 57.6502 6.45579 57.4762 5.98349C57.3022 5.51119 57.0341 5.12944 56.6719 4.83825C56.3097 4.54705 55.848 4.40146 55.2869 4.40146C54.7259 4.40146 54.2642 4.54705 53.902 4.83825C53.5398 5.12944 53.2717 5.51119 53.0977 5.98349C52.9237 6.45579 52.8366 6.96538 52.8366 7.51225C52.8366 8.05913 52.9237 8.56694 53.0977 9.03569C53.2717 9.50444 53.5398 9.88263 53.902 10.1703C54.2642 10.4579 54.7259 10.6017 55.2869 10.6017ZM60.9133 11.5605V3.37873H64.2584C65.1391 3.37873 65.8387 3.57759 66.3572 3.97532C66.8756 4.37305 67.1349 4.89862 67.1349 5.55202C67.1349 6.04918 66.9875 6.43448 66.6927 6.70792C66.398 6.97781 66.0198 7.16069 65.5582 7.25657C65.86 7.29918 66.153 7.40572 66.4371 7.57617C66.7247 7.74663 66.9626 7.981 67.1508 8.2793C67.339 8.57404 67.4331 8.93626 67.4331 9.36594C67.4331 9.78498 67.3266 10.1596 67.1135 10.4899C66.9005 10.8201 66.5951 11.0811 66.1974 11.2729C65.7996 11.4647 65.3238 11.5605 64.7698 11.5605H60.9133ZM62.1064 10.41H64.7698C65.203 10.41 65.5422 10.307 65.7872 10.101C66.0322 9.89506 66.1547 9.61452 66.1547 9.25941C66.1547 8.83683 66.0322 8.50479 65.7872 8.26332C65.5422 8.01829 65.203 7.89577 64.7698 7.89577H62.1064V10.41ZM62.1064 6.80913H64.2584C64.5958 6.80913 64.8852 6.76296 65.1267 6.67063C65.3682 6.57475 65.5528 6.43981 65.6807 6.2658C65.8121 6.08825 65.8778 5.87873 65.8778 5.63725C65.8778 5.29279 65.7339 5.0229 65.4463 4.82759C65.1586 4.62873 64.7627 4.5293 64.2584 4.5293H62.1064V6.80913ZM72.7665 11.731C71.9782 11.731 71.2981 11.557 70.7264 11.209C70.1582 10.8574 69.7196 10.3674 69.4107 9.73881C69.1053 9.10671 68.9526 8.37163 68.9526 7.53356C68.9526 6.69549 69.1053 5.95685 69.4107 5.31765C69.7196 4.67489 70.1493 4.17418 70.6998 3.81552C71.2537 3.4533 71.9 3.27219 72.6387 3.27219C73.0648 3.27219 73.4856 3.34322 73.9011 3.48526C74.3166 3.62731 74.6948 3.85813 75.0357 4.17773C75.3766 4.49379 75.6483 4.91282 75.8507 5.43484C76.0531 5.95685 76.1543 6.59961 76.1543 7.3631V7.89577H69.8475V6.80913H74.8759C74.8759 6.34748 74.7836 5.93555 74.5989 5.57333C74.4178 5.21111 74.1586 4.92525 73.8212 4.71573C73.4874 4.50621 73.0932 4.40146 72.6387 4.40146C72.138 4.40146 71.7047 4.52575 71.339 4.77433C70.9767 5.01935 70.698 5.33896 70.5027 5.73313C70.3074 6.12731 70.2097 6.54989 70.2097 7.00089V7.72532C70.2097 8.34322 70.3162 8.86701 70.5293 9.2967C70.7459 9.72283 71.046 10.0478 71.4295 10.2715C71.813 10.4917 72.2587 10.6017 72.7665 10.6017C73.0968 10.6017 73.3951 10.5556 73.6614 10.4632C73.9313 10.3674 74.1639 10.2253 74.3592 10.0371C74.5545 9.84535 74.7054 9.60742 74.812 9.32333L76.0265 9.66424C75.8986 10.0762 75.6838 10.4384 75.3819 10.7509C75.0801 11.0598 74.7072 11.3013 74.2633 11.4753C73.8194 11.6458 73.3205 11.731 72.7665 11.731ZM91.2342 4.06055H89.9132C89.8351 3.68058 89.6983 3.34677 89.503 3.05913C89.3113 2.77148 89.0769 2.53001 88.7999 2.33469C88.5265 2.13583 88.2228 1.98668 87.889 1.88725C87.5552 1.78782 87.2072 1.7381 86.845 1.7381C86.1845 1.7381 85.5861 1.90501 85.0499 2.23881C84.5172 2.57262 84.0929 3.06445 83.7768 3.71431C83.4643 4.36417 83.3081 5.1614 83.3081 6.106C83.3081 7.0506 83.4643 7.84783 83.7768 8.49769C84.0929 9.14755 84.5172 9.63938 85.0499 9.97319C85.5861 10.307 86.1845 10.4739 86.845 10.4739C87.2072 10.4739 87.5552 10.4242 87.889 10.3248C88.2228 10.2253 88.5265 10.0779 88.7999 9.88263C89.0769 9.68377 89.3113 9.44052 89.503 9.15288C89.6983 8.86168 89.8351 8.52788 89.9132 8.15146H91.2342C91.1348 8.70898 90.9537 9.20792 90.6909 9.64826C90.4281 10.0886 90.1014 10.4632 89.7108 10.7722C89.3201 11.0776 88.8816 11.3102 88.3951 11.47C87.9121 11.6298 87.3954 11.7097 86.845 11.7097C85.9146 11.7097 85.0872 11.4824 84.3627 11.0279C83.6383 10.5733 83.0684 9.92702 82.6529 9.08896C82.2374 8.25089 82.0297 7.25657 82.0297 6.106C82.0297 4.95543 82.2374 3.96112 82.6529 3.12305C83.0684 2.28498 83.6383 1.63867 84.3627 1.18413C85.0872 0.729581 85.9146 0.502308 86.845 0.502308C87.3954 0.502308 87.9121 0.582208 88.3951 0.74201C88.8816 0.901811 89.3201 1.13619 89.7108 1.44513C90.1014 1.75053 90.4281 2.1234 90.6909 2.56374C90.9537 3.00053 91.1348 3.49947 91.2342 4.06055ZM93.3689 11.5605V0.651456H97.055C97.9108 0.651456 98.6104 0.80593 99.1537 1.11488C99.7006 1.42028 100.105 1.83398 100.368 2.356C100.631 2.87802 100.762 3.4604 100.762 4.10316C100.762 4.74592 100.631 5.33008 100.368 5.85565C100.109 6.38121 99.7077 6.80025 99.1643 7.11275C98.621 7.4217 97.925 7.57617 97.0763 7.57617H94.4342V6.4043H97.0336C97.6196 6.4043 98.0901 6.30309 98.4452 6.10067C98.8003 5.89826 99.0578 5.62482 99.2176 5.28036C99.3809 4.93235 99.4626 4.53995 99.4626 4.10316C99.4626 3.66637 99.3809 3.27575 99.2176 2.93129C99.0578 2.58683 98.7986 2.31694 98.4399 2.12163C98.0812 1.92276 97.6054 1.82333 97.0123 1.82333H94.6899V11.5605H93.3689ZM110.049 0.651456H111.37V7.87447C111.37 8.62021 111.195 9.28604 110.843 9.87198C110.495 10.4544 110.003 10.9142 109.368 11.2516C108.732 11.5854 107.986 11.7523 107.13 11.7523C106.275 11.7523 105.529 11.5854 104.893 11.2516C104.258 10.9142 103.764 10.4544 103.412 9.87198C103.064 9.28604 102.89 8.62021 102.89 7.87447V0.651456H104.211V7.76793C104.211 8.3006 104.329 8.77468 104.563 9.19016C104.797 9.6021 105.131 9.92702 105.564 10.165C106.001 10.3993 106.523 10.5165 107.13 10.5165C107.738 10.5165 108.26 10.3993 108.696 10.165C109.133 9.92702 109.467 9.6021 109.698 9.19016C109.932 8.77468 110.049 8.3006 110.049 7.76793V0.651456ZM114.009 0.651456H115.585L119.293 9.70685H119.42L123.128 0.651456H124.705V11.5605H123.469V3.27219H123.362L119.953 11.5605H118.76L115.351 3.27219H115.244V11.5605H114.009V0.651456ZM129.59 11.7523C129.072 11.7523 128.601 11.6547 128.179 11.4593C127.756 11.2605 127.421 10.9746 127.172 10.6017C126.924 10.2253 126.799 9.77077 126.799 9.2381C126.799 8.76935 126.892 8.38938 127.076 8.09819C127.261 7.80344 127.508 7.57262 127.817 7.40572C128.126 7.23881 128.467 7.11452 128.839 7.03285C129.216 6.94762 129.594 6.88015 129.974 6.83043C130.471 6.76651 130.874 6.71857 131.183 6.68661C131.496 6.6511 131.723 6.59251 131.865 6.51083C132.011 6.42915 132.083 6.28711 132.083 6.08469V6.04208C132.083 5.51651 131.94 5.10813 131.652 4.81694C131.368 4.52575 130.936 4.38015 130.358 4.38015C129.757 4.38015 129.287 4.51154 128.946 4.77433C128.605 5.03711 128.365 5.31765 128.227 5.61594L127.034 5.18981C127.247 4.69265 127.531 4.30558 127.886 4.02859C128.245 3.74805 128.635 3.55273 129.058 3.44265C129.484 3.32901 129.903 3.27219 130.315 3.27219C130.578 3.27219 130.88 3.30415 131.22 3.36807C131.565 3.42844 131.897 3.55451 132.217 3.74627C132.54 3.93803 132.808 4.22745 133.021 4.61452C133.234 5.0016 133.34 5.52006 133.34 6.16992V11.5605H132.083V10.4526H132.019C131.934 10.6301 131.792 10.8201 131.593 11.0225C131.394 11.225 131.13 11.3972 130.8 11.5392C130.469 11.6813 130.066 11.7523 129.59 11.7523ZM129.782 10.623C130.279 10.623 130.698 10.5254 131.039 10.3301C131.384 10.1348 131.643 9.88263 131.817 9.57369C131.995 9.26474 132.083 8.93981 132.083 8.5989V7.44833C132.03 7.51225 131.913 7.57085 131.732 7.62411C131.554 7.67383 131.348 7.71822 131.114 7.75728C130.883 7.79279 130.658 7.82475 130.437 7.85316C130.221 7.87802 130.045 7.89933 129.91 7.91708C129.583 7.95969 129.278 8.02894 128.994 8.12482C128.713 8.21715 128.486 8.35742 128.312 8.54563C128.142 8.73029 128.056 8.98242 128.056 9.30202C128.056 9.73881 128.218 10.0691 128.541 10.2928C128.868 10.513 129.282 10.623 129.782 10.623ZM135.635 11.5605V3.37873H136.849V4.61452H136.935C137.084 4.20969 137.354 3.88121 137.744 3.62908C138.135 3.37695 138.575 3.25089 139.065 3.25089C139.158 3.25089 139.273 3.25266 139.412 3.25621C139.55 3.25977 139.655 3.26509 139.726 3.27219V4.5506C139.683 4.53995 139.586 4.52397 139.433 4.50266C139.284 4.47781 139.126 4.46538 138.959 4.46538C138.561 4.46538 138.206 4.54883 137.893 4.71573C137.585 4.87908 137.339 5.10636 137.158 5.39755C136.981 5.68519 136.892 6.01367 136.892 6.38299V11.5605H135.635ZM142.388 8.57759L142.367 7.02219H142.622L146.202 3.37873H147.757L143.943 7.23526H143.837L142.388 8.57759ZM141.216 11.5605V0.651456H142.473V11.5605H141.216ZM146.415 11.5605L143.219 7.51225L144.114 6.63867L148.013 11.5605H146.415ZM150.291 11.6458C150.029 11.6458 149.803 11.5517 149.615 11.3635C149.427 11.1752 149.333 10.9498 149.333 10.687C149.333 10.4242 149.427 10.1987 149.615 10.0105C149.803 9.82227 150.029 9.72816 150.291 9.72816C150.554 9.72816 150.78 9.82227 150.968 10.0105C151.156 10.1987 151.25 10.4242 151.25 10.687C151.25 10.861 151.206 11.0208 151.117 11.1664C151.032 11.312 150.916 11.4292 150.771 11.5179C150.629 11.6032 150.469 11.6458 150.291 11.6458ZM150.291 5.57333C150.029 5.57333 149.803 5.47923 149.615 5.29102C149.427 5.10281 149.333 4.87731 149.333 4.61452C149.333 4.35174 149.427 4.12624 149.615 3.93803C149.803 3.74982 150.029 3.65572 150.291 3.65572C150.554 3.65572 150.78 3.74982 150.968 3.93803C151.156 4.12624 151.25 4.35174 151.25 4.61452C151.25 4.78853 151.206 4.94833 151.117 5.09393C151.032 5.23952 150.916 5.35671 150.771 5.44549C150.629 5.53072 150.469 5.57333 150.291 5.57333Z" fill="white"/>
<path d="M5.38192 53.3787V71.5605H3.18022V53.3787H5.38192ZM10.6075 63.3574V71.5605H8.51234V57.9242H10.5365V60.0549H10.714C11.0336 59.3624 11.519 58.806 12.17 58.3858C12.8211 57.9597 13.6615 57.7466 14.6913 57.7466C15.6146 57.7466 16.4225 57.936 17.115 58.3148C17.8074 58.6877 18.346 59.2559 18.7307 60.0194C19.1154 60.7769 19.3078 61.7357 19.3078 62.8958V71.5605H17.2126V63.0378C17.2126 61.9666 16.9345 61.132 16.3781 60.5343C15.8218 59.9306 15.0583 59.6287 14.0876 59.6287C13.4188 59.6287 12.8211 59.7737 12.2943 60.0637C11.7735 60.3538 11.3621 60.7769 11.0603 61.3333C10.7584 61.8896 10.6075 62.5643 10.6075 63.3574ZM28.0668 57.9242V59.6998H21V57.9242H28.0668ZM23.0597 54.6571H25.1548V67.6543C25.1548 68.2462 25.2406 68.69 25.4123 68.986C25.5898 69.276 25.8147 69.4713 26.087 69.5719C26.3652 69.6666 26.6581 69.714 26.9659 69.714C27.1967 69.714 27.3861 69.7021 27.5341 69.6784C27.6821 69.6489 27.8004 69.6252 27.8892 69.6074L28.3153 71.4895C28.1733 71.5428 27.975 71.5961 27.7205 71.6493C27.466 71.7085 27.1435 71.7381 26.7528 71.7381C26.161 71.7381 25.581 71.6109 25.0128 71.3564C24.4505 71.1019 23.983 70.7142 23.6101 70.1934C23.2431 69.6725 23.0597 69.0156 23.0597 68.2225V54.6571ZM35.7892 71.8446C34.4753 71.8446 33.3419 71.5546 32.389 70.9746C31.4421 70.3887 30.7111 69.5719 30.1962 68.5243C29.6872 67.4708 29.4327 66.2457 29.4327 64.8489C29.4327 63.4521 29.6872 62.2211 30.1962 61.1557C30.7111 60.0845 31.4273 59.2499 32.3446 58.6522C33.2679 58.0485 34.3451 57.7466 35.5762 57.7466C36.2864 57.7466 36.9877 57.865 37.6802 58.1017C38.3727 58.3385 39.003 58.7232 39.5712 59.2559C40.1394 59.7826 40.5922 60.481 40.9295 61.351C41.2669 62.2211 41.4355 63.2923 41.4355 64.5648V65.4526H30.9242V63.6415H39.3049C39.3049 62.8721 39.151 62.1855 38.8432 61.5819C38.5414 60.9782 38.1093 60.5017 37.5471 60.1525C36.9907 59.8033 36.3337 59.6287 35.5762 59.6287C34.7417 59.6287 34.0196 59.8359 33.41 60.2502C32.8063 60.6586 32.3417 61.1912 32.0162 61.8482C31.6906 62.5051 31.5279 63.2095 31.5279 63.9611V65.1685C31.5279 66.1983 31.7054 67.0713 32.0605 67.7875C32.4216 68.4977 32.9217 69.0392 33.5609 69.4121C34.2001 69.7791 34.9429 69.9625 35.7892 69.9625C36.3397 69.9625 36.8368 69.8856 37.2807 69.7317C37.7305 69.5719 38.1182 69.3352 38.4437 69.0215C38.7692 68.7019 39.0208 68.3053 39.1983 67.8319L41.2225 68.4C41.0094 69.0866 40.6513 69.6903 40.1483 70.2111C39.6452 70.726 39.0237 71.1285 38.2839 71.4185C37.5441 71.7026 36.7125 71.8446 35.7892 71.8446ZM45.7179 53.3787V71.5605H43.6227V53.3787H45.7179ZM69.2883 53.3787V71.5605H67.1576L57.2499 57.285H57.0724V71.5605H54.8706V53.3787H57.0013L66.9445 67.6898H67.1221V53.3787H69.2883ZM78.7663 53.3787V71.5605H76.5646V55.687H76.4581L72.0192 58.6344V56.3972L76.5646 53.3787H78.7663ZM88.9258 71.8091C87.5882 71.8091 86.4489 71.4451 85.5078 70.7172C84.5668 69.9833 83.8477 68.9209 83.3505 67.53C82.8533 66.1332 82.6048 64.4464 82.6048 62.4696C82.6048 60.5047 82.8533 58.8268 83.3505 57.4359C83.8536 56.0391 84.5756 54.9738 85.5167 54.2399C86.4637 53.5001 87.6 53.1301 88.9258 53.1301C90.2515 53.1301 91.3849 53.5001 92.326 54.2399C93.273 54.9738 93.995 56.0391 94.4922 57.4359C94.9953 58.8268 95.2468 60.5047 95.2468 62.4696C95.2468 64.4464 94.9982 66.1332 94.5011 67.53C94.0039 68.9209 93.2848 69.9833 92.3438 70.7172C91.4027 71.4451 90.2634 71.8091 88.9258 71.8091ZM88.9258 69.856C90.2515 69.856 91.2814 69.2168 92.0153 67.9384C92.7492 66.66 93.1161 64.8371 93.1161 62.4696C93.1161 60.8953 92.9474 59.5547 92.6101 58.448C92.2786 57.3412 91.7992 56.4978 91.1719 55.9178C90.5504 55.3378 89.8017 55.0478 88.9258 55.0478C87.6119 55.0478 86.585 55.6958 85.8452 56.992C85.1054 58.2823 84.7354 60.1081 84.7354 62.4696C84.7354 64.044 84.9012 65.3816 85.2326 66.4824C85.564 67.5833 86.0405 68.4208 86.6619 68.9949C87.2893 69.569 88.0439 69.856 88.9258 69.856ZM103.551 71.8091C102.213 71.8091 101.074 71.4451 100.133 70.7172C99.1918 69.9833 98.4727 68.9209 97.9755 67.53C97.4783 66.1332 97.2298 64.4464 97.2298 62.4696C97.2298 60.5047 97.4783 58.8268 97.9755 57.4359C98.4786 56.0391 99.2006 54.9738 100.142 54.2399C101.089 53.5001 102.225 53.1301 103.551 53.1301C104.877 53.1301 106.01 53.5001 106.951 54.2399C107.898 54.9738 108.62 56.0391 109.117 57.4359C109.62 58.8268 109.872 60.5047 109.872 62.4696C109.872 64.4464 109.623 66.1332 109.126 67.53C108.629 68.9209 107.91 69.9833 106.969 70.7172C106.028 71.4451 104.888 71.8091 103.551 71.8091ZM103.551 69.856C104.877 69.856 105.906 69.2168 106.64 67.9384C107.374 66.66 107.741 64.8371 107.741 62.4696C107.741 60.8953 107.572 59.5547 107.235 58.448C106.904 57.3412 106.424 56.4978 105.797 55.9178C105.175 55.3378 104.427 55.0478 103.551 55.0478C102.237 55.0478 101.21 55.6958 100.47 56.992C99.7304 58.2823 99.3604 60.1081 99.3604 62.4696C99.3604 64.044 99.5262 65.3816 99.8576 66.4824C100.189 67.5833 100.665 68.4208 101.287 68.9949C101.914 69.569 102.669 69.856 103.551 69.856Z" fill="white"/>
<path d="M632.291 71.8091C631.25 71.8091 630.312 71.602 629.477 71.1877C628.643 70.7734 627.974 70.2052 627.471 69.4831C626.968 68.7611 626.693 67.9384 626.645 67.0151H628.776C628.859 67.8378 629.232 68.5184 629.894 69.057C630.563 69.5897 631.362 69.856 632.291 69.856C633.037 69.856 633.7 69.6814 634.28 69.3322C634.866 68.983 635.325 68.5036 635.656 67.894C635.994 67.2785 636.162 66.583 636.162 65.8077C636.162 65.0146 635.988 64.3074 635.638 63.6859C635.295 63.0585 634.822 62.5643 634.218 62.2033C633.614 61.8423 632.925 61.6588 632.149 61.6529C631.593 61.647 631.022 61.7328 630.436 61.9103C629.85 62.082 629.368 62.3039 628.989 62.5762L626.929 62.3276L628.03 53.3787H637.476V55.3319H629.877L629.237 60.6941H629.344C629.717 60.3981 630.184 60.1525 630.747 59.9572C631.309 59.7619 631.895 59.6642 632.505 59.6642C633.617 59.6642 634.609 59.9306 635.479 60.4632C636.355 60.99 637.041 61.7121 637.538 62.6294C638.041 63.5468 638.293 64.5944 638.293 65.7722C638.293 66.9322 638.032 67.968 637.512 68.8794C636.997 69.785 636.286 70.5011 635.381 71.0279C634.475 71.5487 633.446 71.8091 632.291 71.8091ZM646.501 71.8091C645.46 71.8091 644.522 71.602 643.687 71.1877C642.853 70.7734 642.184 70.2052 641.681 69.4831C641.178 68.7611 640.902 67.9384 640.855 67.0151H642.986C643.069 67.8378 643.442 68.5184 644.104 69.057C644.773 69.5897 645.572 69.856 646.501 69.856C647.247 69.856 647.91 69.6814 648.49 69.3322C649.076 68.983 649.535 68.5036 649.866 67.894C650.203 67.2785 650.372 66.583 650.372 65.8077C650.372 65.0146 650.198 64.3074 649.848 63.6859C649.505 63.0585 649.032 62.5643 648.428 62.2033C647.824 61.8423 647.135 61.6588 646.359 61.6529C645.803 61.647 645.232 61.7328 644.646 61.9103C644.06 62.082 643.578 62.3039 643.199 62.5762L641.139 62.3276L642.24 53.3787H651.686V55.3319H644.087L643.447 60.6941H643.554C643.927 60.3981 644.394 60.1525 644.957 59.9572C645.519 59.7619 646.105 59.6642 646.714 59.6642C647.827 59.6642 648.819 59.9306 649.689 60.4632C650.565 60.99 651.251 61.7121 651.748 62.6294C652.251 63.5468 652.503 64.5944 652.503 65.7722C652.503 66.9322 652.242 67.968 651.722 68.8794C651.207 69.785 650.496 70.5011 649.591 71.0279C648.685 71.5487 647.656 71.8091 646.501 71.8091ZM660.711 71.8091C659.67 71.8091 658.732 71.602 657.897 71.1877C657.063 70.7734 656.394 70.2052 655.891 69.4831C655.388 68.7611 655.112 67.9384 655.065 67.0151H657.196C657.279 67.8378 657.651 68.5184 658.314 69.057C658.983 69.5897 659.782 69.856 660.711 69.856C661.457 69.856 662.12 69.6814 662.7 69.3322C663.286 68.983 663.745 68.5036 664.076 67.894C664.413 67.2785 664.582 66.583 664.582 65.8077C664.582 65.0146 664.408 64.3074 664.058 63.6859C663.715 63.0585 663.242 62.5643 662.638 62.2033C662.034 61.8423 661.345 61.6588 660.569 61.6529C660.013 61.647 659.442 61.7328 658.856 61.9103C658.27 62.082 657.788 62.3039 657.409 62.5762L655.349 62.3276L656.45 53.3787H665.896V55.3319H658.297L657.657 60.6941H657.764C658.137 60.3981 658.604 60.1525 659.167 59.9572C659.729 59.7619 660.315 59.6642 660.924 59.6642C662.037 59.6642 663.028 59.9306 663.899 60.4632C664.774 60.99 665.461 61.7121 665.958 62.6294C666.461 63.5468 666.713 64.5944 666.713 65.7722C666.713 66.9322 666.452 67.968 665.932 68.8794C665.417 69.785 664.706 70.5011 663.801 71.0279C662.895 71.5487 661.866 71.8091 660.711 71.8091ZM675.632 53.3787V71.5605H673.43V55.687H673.323L668.884 58.6344V56.3972L673.43 53.3787H675.632Z" fill="white"/>
<rect x="0.978516" y="86.5605" width="678" height="5" rx="2.5" fill="url(#paint0_linear_4021_3464)"/>
<path d="M5.38192 131.379V149.561H3.18022V131.379H5.38192ZM10.6075 141.357V149.561H8.51234V135.924H10.5365V138.055H10.714C11.0336 137.362 11.519 136.806 12.17 136.386C12.8211 135.96 13.6615 135.747 14.6913 135.747C15.6146 135.747 16.4225 135.936 17.115 136.315C17.8074 136.688 18.346 137.256 18.7307 138.019C19.1154 138.777 19.3078 139.736 19.3078 140.896V149.561H17.2126V141.038C17.2126 139.967 16.9345 139.132 16.3781 138.534C15.8218 137.931 15.0583 137.629 14.0876 137.629C13.4188 137.629 12.8211 137.774 12.2943 138.064C11.7735 138.354 11.3621 138.777 11.0603 139.333C10.7584 139.89 10.6075 140.564 10.6075 141.357ZM28.0668 135.924V137.7H21V135.924H28.0668ZM23.0597 132.657H25.1548V145.654C25.1548 146.246 25.2406 146.69 25.4123 146.986C25.5898 147.276 25.8147 147.471 26.087 147.572C26.3652 147.667 26.6581 147.714 26.9659 147.714C27.1967 147.714 27.3861 147.702 27.5341 147.678C27.6821 147.649 27.8004 147.625 27.8892 147.607L28.3153 149.49C28.1733 149.543 27.975 149.596 27.7205 149.649C27.466 149.709 27.1435 149.738 26.7528 149.738C26.161 149.738 25.581 149.611 25.0128 149.356C24.4505 149.102 23.983 148.714 23.6101 148.193C23.2431 147.673 23.0597 147.016 23.0597 146.222V132.657ZM35.7892 149.845C34.4753 149.845 33.3419 149.555 32.389 148.975C31.4421 148.389 30.7111 147.572 30.1962 146.524C29.6872 145.471 29.4327 144.246 29.4327 142.849C29.4327 141.452 29.6872 140.221 30.1962 139.156C30.7111 138.084 31.4273 137.25 32.3446 136.652C33.2679 136.048 34.3451 135.747 35.5762 135.747C36.2864 135.747 36.9877 135.865 37.6802 136.102C38.3727 136.338 39.003 136.723 39.5712 137.256C40.1394 137.783 40.5922 138.481 40.9295 139.351C41.2669 140.221 41.4355 141.292 41.4355 142.565V143.453H30.9242V141.642H39.3049C39.3049 140.872 39.151 140.186 38.8432 139.582C38.5414 138.978 38.1093 138.502 37.5471 138.153C36.9907 137.803 36.3337 137.629 35.5762 137.629C34.7417 137.629 34.0196 137.836 33.41 138.25C32.8063 138.659 32.3417 139.191 32.0162 139.848C31.6906 140.505 31.5279 141.209 31.5279 141.961V143.169C31.5279 144.198 31.7054 145.071 32.0605 145.787C32.4216 146.498 32.9217 147.039 33.5609 147.412C34.2001 147.779 34.9429 147.963 35.7892 147.963C36.3397 147.963 36.8368 147.886 37.2807 147.732C37.7305 147.572 38.1182 147.335 38.4437 147.021C38.7692 146.702 39.0208 146.305 39.1983 145.832L41.2225 146.4C41.0094 147.087 40.6513 147.69 40.1483 148.211C39.6452 148.726 39.0237 149.128 38.2839 149.419C37.5441 149.703 36.7125 149.845 35.7892 149.845ZM45.7179 131.379V149.561H43.6227V131.379H45.7179ZM69.5013 137.061H67.2996C67.1694 136.427 66.9416 135.871 66.616 135.392C66.2964 134.912 65.9058 134.51 65.4442 134.184C64.9884 133.853 64.4824 133.604 63.926 133.438C63.3697 133.273 62.7897 133.19 62.186 133.19C61.0851 133.19 60.0879 133.468 59.1942 134.024C58.3064 134.581 57.5991 135.4 57.0724 136.483C56.5515 137.567 56.2911 138.895 56.2911 140.47C56.2911 142.044 56.5515 143.373 57.0724 144.456C57.5991 145.539 58.3064 146.359 59.1942 146.915C60.0879 147.471 61.0851 147.749 62.186 147.749C62.7897 147.749 63.3697 147.667 63.926 147.501C64.4824 147.335 64.9884 147.09 65.4442 146.764C65.9058 146.433 66.2964 146.027 66.616 145.548C66.9416 145.062 67.1694 144.506 67.2996 143.879H69.5013C69.3356 144.808 69.0338 145.64 68.5958 146.373C68.1578 147.107 67.6133 147.732 66.9623 148.247C66.3112 148.756 65.5803 149.143 64.7694 149.41C63.9645 149.676 63.1034 149.809 62.186 149.809C60.6353 149.809 59.2563 149.43 58.0489 148.673C56.8415 147.915 55.8916 146.838 55.1991 145.441C54.5067 144.044 54.1604 142.387 54.1604 140.47C54.1604 138.552 54.5067 136.895 55.1991 135.498C55.8916 134.101 56.8415 133.024 58.0489 132.267C59.2563 131.509 60.6353 131.13 62.186 131.13C63.1034 131.13 63.9645 131.263 64.7694 131.53C65.5803 131.796 66.3112 132.187 66.9623 132.702C67.6133 133.211 68.1578 133.832 68.5958 134.566C69.0338 135.294 69.3356 136.125 69.5013 137.061ZM77.3148 149.845C76.0837 149.845 75.0036 149.552 74.0744 148.966C73.1511 148.38 72.429 147.56 71.9082 146.507C71.3933 145.453 71.1358 144.222 71.1358 142.813C71.1358 141.393 71.3933 140.153 71.9082 139.094C72.429 138.034 73.1511 137.211 74.0744 136.626C75.0036 136.04 76.0837 135.747 77.3148 135.747C78.5459 135.747 79.623 136.04 80.5463 136.626C81.4756 137.211 82.1976 138.034 82.7125 139.094C83.2334 140.153 83.4938 141.393 83.4938 142.813C83.4938 144.222 83.2334 145.453 82.7125 146.507C82.1976 147.56 81.4756 148.38 80.5463 148.966C79.623 149.552 78.5459 149.845 77.3148 149.845ZM77.3148 147.963C78.2499 147.963 79.0194 147.723 79.623 147.243C80.2267 146.764 80.6736 146.134 80.9636 145.352C81.2536 144.571 81.3986 143.725 81.3986 142.813C81.3986 141.902 81.2536 141.053 80.9636 140.265C80.6736 139.478 80.2267 138.842 79.623 138.357C79.0194 137.871 78.2499 137.629 77.3148 137.629C76.3797 137.629 75.6103 137.871 75.0066 138.357C74.4029 138.842 73.956 139.478 73.666 140.265C73.376 141.053 73.231 141.902 73.231 142.813C73.231 143.725 73.376 144.571 73.666 145.352C73.956 146.134 74.4029 146.764 75.0066 147.243C75.6103 147.723 76.3797 147.963 77.3148 147.963ZM85.692 149.561V135.924H87.7162V137.984H87.8582C88.1068 137.309 88.5566 136.762 89.2077 136.341C89.8587 135.921 90.5926 135.711 91.4094 135.711C91.5632 135.711 91.7556 135.714 91.9864 135.72C92.2172 135.726 92.3918 135.735 92.5102 135.747V137.877C92.4392 137.86 92.2764 137.833 92.0219 137.797C91.7733 137.756 91.51 137.735 91.2318 137.735C90.5689 137.735 89.9771 137.874 89.4562 138.153C88.9413 138.425 88.5329 138.804 88.2311 139.289C87.9352 139.768 87.7872 140.316 87.7872 140.931V149.561H85.692ZM99.2961 149.845C97.9822 149.845 96.8488 149.555 95.8959 148.975C94.9489 148.389 94.218 147.572 93.703 146.524C93.194 145.471 92.9395 144.246 92.9395 142.849C92.9395 141.452 93.194 140.221 93.703 139.156C94.218 138.084 94.9341 137.25 95.8515 136.652C96.7748 136.048 97.8519 135.747 99.083 135.747C99.7932 135.747 100.495 135.865 101.187 136.102C101.88 136.338 102.51 136.723 103.078 137.256C103.646 137.783 104.099 138.481 104.436 139.351C104.774 140.221 104.942 141.292 104.942 142.565V143.453H94.431V141.642H102.812C102.812 140.872 102.658 140.186 102.35 139.582C102.048 138.978 101.616 138.502 101.054 138.153C100.498 137.803 99.8406 137.629 99.083 137.629C98.2485 137.629 97.5264 137.836 96.9168 138.25C96.3131 138.659 95.8485 139.191 95.523 139.848C95.1975 140.505 95.0347 141.209 95.0347 141.961V143.169C95.0347 144.198 95.2123 145.071 95.5674 145.787C95.9284 146.498 96.4285 147.039 97.0677 147.412C97.7069 147.779 98.4497 147.963 99.2961 147.963C99.8465 147.963 100.344 147.886 100.788 147.732C101.237 147.572 101.625 147.335 101.951 147.021C102.276 146.702 102.528 146.305 102.705 145.832L104.729 146.4C104.516 147.087 104.158 147.69 103.655 148.211C103.152 148.726 102.531 149.128 101.791 149.419C101.051 149.703 100.219 149.845 99.2961 149.845ZM113.161 149.561V135.924H115.256V149.561H113.161ZM114.226 133.651C113.818 133.651 113.466 133.512 113.17 133.234C112.88 132.956 112.735 132.622 112.735 132.231C112.735 131.84 112.88 131.506 113.17 131.228C113.466 130.95 113.818 130.811 114.226 130.811C114.634 130.811 114.984 130.95 115.274 131.228C115.57 131.506 115.718 131.84 115.718 132.231C115.718 132.622 115.57 132.956 115.274 133.234C114.984 133.512 114.634 133.651 114.226 133.651ZM123.74 149.809C122.698 149.809 121.76 149.602 120.925 149.188C120.091 148.773 119.422 148.205 118.919 147.483C118.416 146.761 118.141 145.938 118.093 145.015H120.224C120.307 145.838 120.68 146.518 121.343 147.057C122.011 147.59 122.81 147.856 123.74 147.856C124.485 147.856 125.148 147.681 125.728 147.332C126.314 146.983 126.773 146.504 127.104 145.894C127.442 145.278 127.61 144.583 127.61 143.808C127.61 143.015 127.436 142.307 127.087 141.686C126.743 141.059 126.27 140.564 125.666 140.203C125.063 139.842 124.373 139.659 123.598 139.653C123.041 139.647 122.47 139.733 121.884 139.91C121.298 140.082 120.816 140.304 120.437 140.576L118.377 140.328L119.478 131.379H128.924V133.332H121.325L120.686 138.694H120.792C121.165 138.398 121.633 138.153 122.195 137.957C122.757 137.762 123.343 137.664 123.953 137.664C125.065 137.664 126.057 137.931 126.927 138.463C127.803 138.99 128.489 139.712 128.987 140.629C129.49 141.547 129.741 142.594 129.741 143.772C129.741 144.932 129.481 145.968 128.96 146.879C128.445 147.785 127.735 148.501 126.829 149.028C125.924 149.549 124.894 149.809 123.74 149.809ZM140.116 139.493V141.446H132.161V139.493H140.116ZM148.591 149.809C147.372 149.809 146.294 149.593 145.359 149.161C144.43 148.723 143.705 148.122 143.184 147.359C142.663 146.589 142.406 145.713 142.412 144.731C142.406 143.962 142.557 143.251 142.865 142.6C143.172 141.943 143.593 141.396 144.125 140.958C144.664 140.514 145.265 140.233 145.927 140.115V140.008C145.057 139.783 144.365 139.295 143.85 138.543C143.335 137.786 143.081 136.924 143.086 135.96C143.081 135.036 143.314 134.211 143.788 133.483C144.261 132.755 144.912 132.181 145.741 131.76C146.575 131.34 147.525 131.13 148.591 131.13C149.644 131.13 150.585 131.34 151.414 131.76C152.242 132.181 152.894 132.755 153.367 133.483C153.846 134.211 154.089 135.036 154.095 135.96C154.089 136.924 153.826 137.786 153.305 138.543C152.79 139.295 152.106 139.783 151.254 140.008V140.115C151.911 140.233 152.503 140.514 153.03 140.958C153.556 141.396 153.977 141.943 154.29 142.6C154.604 143.251 154.764 143.962 154.77 144.731C154.764 145.713 154.497 146.589 153.971 147.359C153.45 148.122 152.725 148.723 151.796 149.161C150.872 149.593 149.804 149.809 148.591 149.809ZM148.591 147.856C149.413 147.856 150.124 147.723 150.721 147.456C151.319 147.19 151.781 146.814 152.106 146.329C152.432 145.844 152.598 145.276 152.604 144.624C152.598 143.938 152.42 143.331 152.071 142.805C151.722 142.278 151.245 141.863 150.642 141.562C150.044 141.26 149.36 141.109 148.591 141.109C147.815 141.109 147.123 141.26 146.513 141.562C145.91 141.863 145.433 142.278 145.084 142.805C144.741 143.331 144.572 143.938 144.578 144.624C144.572 145.276 144.729 145.844 145.048 146.329C145.374 146.814 145.839 147.19 146.442 147.456C147.046 147.723 147.762 147.856 148.591 147.856ZM148.591 139.227C149.242 139.227 149.819 139.097 150.322 138.836C150.831 138.576 151.23 138.212 151.52 137.744C151.81 137.277 151.958 136.729 151.964 136.102C151.958 135.486 151.813 134.951 151.529 134.495C151.245 134.033 150.852 133.678 150.349 133.43C149.845 133.175 149.26 133.048 148.591 133.048C147.91 133.048 147.315 133.175 146.806 133.43C146.297 133.678 145.904 134.033 145.626 134.495C145.347 134.951 145.211 135.486 145.217 136.102C145.211 136.729 145.35 137.277 145.634 137.744C145.924 138.212 146.324 138.576 146.833 138.836C147.342 139.097 147.928 139.227 148.591 139.227ZM157.172 149.561V147.963L163.174 141.393C163.878 140.624 164.458 139.955 164.914 139.387C165.369 138.812 165.707 138.274 165.926 137.771C166.151 137.262 166.263 136.729 166.263 136.173C166.263 135.534 166.109 134.98 165.801 134.513C165.5 134.045 165.085 133.684 164.559 133.43C164.032 133.175 163.44 133.048 162.783 133.048C162.085 133.048 161.475 133.193 160.954 133.483C160.439 133.767 160.04 134.166 159.756 134.681C159.477 135.196 159.338 135.8 159.338 136.492H157.243C157.243 135.427 157.489 134.492 157.98 133.687C158.471 132.882 159.14 132.255 159.986 131.805C160.839 131.355 161.795 131.13 162.854 131.13C163.919 131.13 164.863 131.355 165.686 131.805C166.509 132.255 167.154 132.861 167.621 133.625C168.089 134.388 168.323 135.238 168.323 136.173C168.323 136.842 168.201 137.496 167.959 138.135C167.722 138.768 167.308 139.475 166.716 140.257C166.13 141.032 165.316 141.979 164.274 143.097L160.191 147.465V147.607H168.642V149.561H157.172ZM176.991 149.809C175.949 149.809 175.011 149.602 174.176 149.188C173.342 148.773 172.673 148.205 172.17 147.483C171.667 146.761 171.392 145.938 171.344 145.015H173.475C173.558 145.838 173.931 146.518 174.594 147.057C175.262 147.59 176.061 147.856 176.991 147.856C177.736 147.856 178.399 147.681 178.979 147.332C179.565 146.983 180.024 146.504 180.355 145.894C180.693 145.278 180.861 144.583 180.861 143.808C180.861 143.015 180.687 142.307 180.338 141.686C179.994 141.059 179.521 140.564 178.917 140.203C178.313 139.842 177.624 139.659 176.849 139.653C176.292 139.647 175.721 139.733 175.135 139.91C174.549 140.082 174.067 140.304 173.688 140.576L171.628 140.328L172.729 131.379H182.175V133.332H174.576L173.937 138.694H174.043C174.416 138.398 174.884 138.153 175.446 137.957C176.008 137.762 176.594 137.664 177.204 137.664C178.316 137.664 179.308 137.931 180.178 138.463C181.054 138.99 181.74 139.712 182.237 140.629C182.741 141.547 182.992 142.594 182.992 143.772C182.992 144.932 182.732 145.968 182.211 146.879C181.696 147.785 180.986 148.501 180.08 149.028C179.175 149.549 178.145 149.809 176.991 149.809ZM191.449 149.809C190.112 149.809 188.972 149.445 188.031 148.717C187.09 147.983 186.371 146.921 185.874 145.53C185.377 144.133 185.128 142.446 185.128 140.47C185.128 138.505 185.377 136.827 185.874 135.436C186.377 134.039 187.099 132.974 188.04 132.24C188.987 131.5 190.123 131.13 191.449 131.13C192.775 131.13 193.908 131.5 194.849 132.24C195.796 132.974 196.518 134.039 197.016 135.436C197.519 136.827 197.77 138.505 197.77 140.47C197.77 142.446 197.522 144.133 197.025 145.53C196.527 146.921 195.808 147.983 194.867 148.717C193.926 149.445 192.787 149.809 191.449 149.809ZM191.449 147.856C192.775 147.856 193.805 147.217 194.539 145.938C195.273 144.66 195.64 142.837 195.64 140.47C195.64 138.895 195.471 137.555 195.134 136.448C194.802 135.341 194.323 134.498 193.695 133.918C193.074 133.338 192.325 133.048 191.449 133.048C190.135 133.048 189.108 133.696 188.369 134.992C187.629 136.282 187.259 138.108 187.259 140.47C187.259 142.044 187.425 143.382 187.756 144.482C188.087 145.583 188.564 146.421 189.185 146.995C189.813 147.569 190.567 147.856 191.449 147.856ZM212.395 131.379H214.597V143.417C214.597 144.66 214.304 145.77 213.718 146.746C213.138 147.717 212.318 148.483 211.259 149.046C210.199 149.602 208.957 149.88 207.53 149.88C206.104 149.88 204.861 149.602 203.801 149.046C202.742 148.483 201.919 147.717 201.333 146.746C200.753 145.77 200.463 144.66 200.463 143.417V131.379H202.665V143.24C202.665 144.127 202.86 144.917 203.251 145.61C203.642 146.296 204.198 146.838 204.92 147.235C205.648 147.625 206.518 147.82 207.53 147.82C208.542 147.82 209.412 147.625 210.14 147.235C210.868 146.838 211.425 146.296 211.809 145.61C212.2 144.917 212.395 144.127 212.395 143.24V131.379Z" fill="white"/>
<path d="M650.312 149.809C649.27 149.809 648.332 149.602 647.498 149.188C646.663 148.773 645.994 148.205 645.491 147.483C644.988 146.761 644.713 145.938 644.666 145.015H646.796C646.879 145.838 647.252 146.518 647.915 147.057C648.584 147.59 649.383 147.856 650.312 147.856C651.058 147.856 651.721 147.681 652.301 147.332C652.887 146.983 653.345 146.504 653.677 145.894C654.014 145.278 654.183 144.583 654.183 143.808C654.183 143.015 654.008 142.307 653.659 141.686C653.316 141.059 652.842 140.564 652.238 140.203C651.635 139.842 650.945 139.659 650.17 139.653C649.614 139.647 649.042 139.733 648.456 139.91C647.871 140.082 647.388 140.304 647.009 140.576L644.95 140.328L646.051 131.379H655.497V133.332H647.897L647.258 138.694H647.365C647.737 138.398 648.205 138.153 648.767 137.957C649.329 137.762 649.915 137.664 650.525 137.664C651.638 137.664 652.629 137.931 653.499 138.463C654.375 138.99 655.062 139.712 655.559 140.629C656.062 141.547 656.313 142.594 656.313 143.772C656.313 144.932 656.053 145.968 655.532 146.879C655.017 147.785 654.307 148.501 653.401 149.028C652.496 149.549 651.466 149.809 650.312 149.809ZM664.664 149.809C663.445 149.809 662.368 149.593 661.432 149.161C660.503 148.723 659.778 148.122 659.257 147.359C658.737 146.589 658.479 145.713 658.485 144.731C658.479 143.962 658.63 143.251 658.938 142.6C659.246 141.943 659.666 141.396 660.198 140.958C660.737 140.514 661.338 140.233 662.001 140.115V140.008C661.131 139.783 660.438 139.295 659.923 138.543C659.408 137.786 659.154 136.924 659.16 135.96C659.154 135.036 659.388 134.211 659.861 133.483C660.335 132.755 660.986 132.181 661.814 131.76C662.649 131.34 663.599 131.13 664.664 131.13C665.717 131.13 666.659 131.34 667.487 131.76C668.316 132.181 668.967 132.755 669.44 133.483C669.92 134.211 670.162 135.036 670.168 135.96C670.162 136.924 669.899 137.786 669.378 138.543C668.863 139.295 668.18 139.783 667.327 140.008V140.115C667.984 140.233 668.576 140.514 669.103 140.958C669.63 141.396 670.05 141.943 670.364 142.6C670.677 143.251 670.837 143.962 670.843 144.731C670.837 145.713 670.571 146.589 670.044 147.359C669.523 148.122 668.798 148.723 667.869 149.161C666.946 149.593 665.877 149.809 664.664 149.809ZM664.664 147.856C665.487 147.856 666.197 147.723 666.795 147.456C667.392 147.19 667.854 146.814 668.18 146.329C668.505 145.844 668.671 145.276 668.677 144.624C668.671 143.938 668.493 143.331 668.144 142.805C667.795 142.278 667.318 141.863 666.715 141.562C666.117 141.26 665.433 141.109 664.664 141.109C663.889 141.109 663.196 141.26 662.587 141.562C661.983 141.863 661.506 142.278 661.157 142.805C660.814 143.331 660.645 143.938 660.651 144.624C660.645 145.276 660.802 145.844 661.122 146.329C661.447 146.814 661.912 147.19 662.516 147.456C663.119 147.723 663.835 147.856 664.664 147.856ZM664.664 139.227C665.315 139.227 665.892 139.097 666.395 138.836C666.904 138.576 667.304 138.212 667.594 137.744C667.884 137.277 668.032 136.729 668.038 136.102C668.032 135.486 667.887 134.951 667.603 134.495C667.318 134.033 666.925 133.678 666.422 133.43C665.919 133.175 665.333 133.048 664.664 133.048C663.983 133.048 663.389 133.175 662.88 133.43C662.371 133.678 661.977 134.033 661.699 134.495C661.421 134.951 661.284 135.486 661.29 136.102C661.284 136.729 661.424 137.277 661.708 137.744C661.998 138.212 662.397 138.576 662.906 138.836C663.415 139.097 664.001 139.227 664.664 139.227ZM679.069 149.809C677.85 149.809 676.773 149.593 675.838 149.161C674.908 148.723 674.183 148.122 673.663 147.359C673.142 146.589 672.884 145.713 672.89 144.731C672.884 143.962 673.035 143.251 673.343 142.6C673.651 141.943 674.071 141.396 674.604 140.958C675.142 140.514 675.743 140.233 676.406 140.115V140.008C675.536 139.783 674.843 139.295 674.328 138.543C673.814 137.786 673.559 136.924 673.565 135.96C673.559 135.036 673.793 134.211 674.266 133.483C674.74 132.755 675.391 132.181 676.219 131.76C677.054 131.34 678.004 131.13 679.069 131.13C680.123 131.13 681.064 131.34 681.892 131.76C682.721 132.181 683.372 132.755 683.846 133.483C684.325 134.211 684.568 135.036 684.574 135.96C684.568 136.924 684.304 137.786 683.783 138.543C683.268 139.295 682.585 139.783 681.733 140.008V140.115C682.39 140.233 682.981 140.514 683.508 140.958C684.035 141.396 684.455 141.943 684.769 142.6C685.083 143.251 685.242 143.962 685.248 144.731C685.242 145.713 684.976 146.589 684.449 147.359C683.928 148.122 683.203 148.723 682.274 149.161C681.351 149.593 680.283 149.809 679.069 149.809ZM679.069 147.856C679.892 147.856 680.602 147.723 681.2 147.456C681.798 147.19 682.259 146.814 682.585 146.329C682.91 145.844 683.076 145.276 683.082 144.624C683.076 143.938 682.899 143.331 682.549 142.805C682.2 142.278 681.724 141.863 681.12 141.562C680.522 141.26 679.839 141.109 679.069 141.109C678.294 141.109 677.601 141.26 676.992 141.562C676.388 141.863 675.912 142.278 675.562 142.805C675.219 143.331 675.051 143.938 675.056 144.624C675.051 145.276 675.207 145.844 675.527 146.329C675.853 146.814 676.317 147.19 676.921 147.456C677.525 147.723 678.241 147.856 679.069 147.856ZM679.069 139.227C679.72 139.227 680.297 139.097 680.8 138.836C681.309 138.576 681.709 138.212 681.999 137.744C682.289 137.277 682.437 136.729 682.443 136.102C682.437 135.486 682.292 134.951 682.008 134.495C681.724 134.033 681.33 133.678 680.827 133.43C680.324 133.175 679.738 133.048 679.069 133.048C678.389 133.048 677.794 133.175 677.285 133.43C676.776 133.678 676.382 134.033 676.104 134.495C675.826 134.951 675.69 135.486 675.696 136.102C675.69 136.729 675.829 137.277 676.113 137.744C676.403 138.212 676.802 138.576 677.311 138.836C677.82 139.097 678.406 139.227 679.069 139.227ZM693.332 149.809C692.291 149.809 691.353 149.602 690.518 149.188C689.684 148.773 689.015 148.205 688.512 147.483C688.009 146.761 687.734 145.938 687.686 145.015H689.817C689.9 145.838 690.273 146.518 690.935 147.057C691.604 147.59 692.403 147.856 693.332 147.856C694.078 147.856 694.741 147.681 695.321 147.332C695.907 146.983 696.366 146.504 696.697 145.894C697.035 145.278 697.203 144.583 697.203 143.808C697.203 143.015 697.029 142.307 696.679 141.686C696.336 141.059 695.863 140.564 695.259 140.203C694.655 139.842 693.966 139.659 693.19 139.653C692.634 139.647 692.063 139.733 691.477 139.91C690.891 140.082 690.409 140.304 690.03 140.576L687.97 140.328L689.071 131.379H698.517V133.332H690.918L690.278 138.694H690.385C690.758 138.398 691.225 138.153 691.788 137.957C692.35 137.762 692.936 137.664 693.546 137.664C694.658 137.664 695.65 137.931 696.52 138.463C697.396 138.99 698.082 139.712 698.579 140.629C699.082 141.547 699.334 142.594 699.334 143.772C699.334 144.932 699.073 145.968 698.553 146.879C698.038 147.785 697.328 148.501 696.422 149.028C695.516 149.549 694.487 149.809 693.332 149.809Z" fill="white"/>
<rect x="0.978516" y="164.561" width="700" height="5" rx="2.5" fill="#77787D"/>
<path d="M5.38192 209.379V227.561H3.18022V209.379H5.38192ZM10.6075 219.357V227.561H8.51234V213.924H10.5365V216.055H10.714C11.0336 215.362 11.519 214.806 12.17 214.386C12.8211 213.96 13.6615 213.747 14.6913 213.747C15.6146 213.747 16.4225 213.936 17.115 214.315C17.8074 214.688 18.346 215.256 18.7307 216.019C19.1154 216.777 19.3078 217.736 19.3078 218.896V227.561H17.2126V219.038C17.2126 217.967 16.9345 217.132 16.3781 216.534C15.8218 215.931 15.0583 215.629 14.0876 215.629C13.4188 215.629 12.8211 215.774 12.2943 216.064C11.7735 216.354 11.3621 216.777 11.0603 217.333C10.7584 217.89 10.6075 218.564 10.6075 219.357ZM28.0668 213.924V215.7H21V213.924H28.0668ZM23.0597 210.657H25.1548V223.654C25.1548 224.246 25.2406 224.69 25.4123 224.986C25.5898 225.276 25.8147 225.471 26.087 225.572C26.3652 225.667 26.6581 225.714 26.9659 225.714C27.1967 225.714 27.3861 225.702 27.5341 225.678C27.6821 225.649 27.8004 225.625 27.8892 225.607L28.3153 227.49C28.1733 227.543 27.975 227.596 27.7205 227.649C27.466 227.709 27.1435 227.738 26.7528 227.738C26.161 227.738 25.581 227.611 25.0128 227.356C24.4505 227.102 23.983 226.714 23.6101 226.193C23.2431 225.673 23.0597 225.016 23.0597 224.222V210.657ZM35.7892 227.845C34.4753 227.845 33.3419 227.555 32.389 226.975C31.4421 226.389 30.7111 225.572 30.1962 224.524C29.6872 223.471 29.4327 222.246 29.4327 220.849C29.4327 219.452 29.6872 218.221 30.1962 217.156C30.7111 216.084 31.4273 215.25 32.3446 214.652C33.2679 214.048 34.3451 213.747 35.5762 213.747C36.2864 213.747 36.9877 213.865 37.6802 214.102C38.3727 214.338 39.003 214.723 39.5712 215.256C40.1394 215.783 40.5922 216.481 40.9295 217.351C41.2669 218.221 41.4355 219.292 41.4355 220.565V221.453H30.9242V219.642H39.3049C39.3049 218.872 39.151 218.186 38.8432 217.582C38.5414 216.978 38.1093 216.502 37.5471 216.153C36.9907 215.803 36.3337 215.629 35.5762 215.629C34.7417 215.629 34.0196 215.836 33.41 216.25C32.8063 216.659 32.3417 217.191 32.0162 217.848C31.6906 218.505 31.5279 219.209 31.5279 219.961V221.169C31.5279 222.198 31.7054 223.071 32.0605 223.787C32.4216 224.498 32.9217 225.039 33.5609 225.412C34.2001 225.779 34.9429 225.963 35.7892 225.963C36.3397 225.963 36.8368 225.886 37.2807 225.732C37.7305 225.572 38.1182 225.335 38.4437 225.021C38.7692 224.702 39.0208 224.305 39.1983 223.832L41.2225 224.4C41.0094 225.087 40.6513 225.69 40.1483 226.211C39.6452 226.726 39.0237 227.128 38.2839 227.419C37.5441 227.703 36.7125 227.845 35.7892 227.845ZM45.7179 209.379V227.561H43.6227V209.379H45.7179ZM69.5013 215.061H67.2996C67.1694 214.427 66.9416 213.871 66.616 213.392C66.2964 212.912 65.9058 212.51 65.4442 212.184C64.9884 211.853 64.4824 211.604 63.926 211.438C63.3697 211.273 62.7897 211.19 62.186 211.19C61.0851 211.19 60.0879 211.468 59.1942 212.024C58.3064 212.581 57.5991 213.4 57.0724 214.483C56.5515 215.567 56.2911 216.895 56.2911 218.47C56.2911 220.044 56.5515 221.373 57.0724 222.456C57.5991 223.539 58.3064 224.359 59.1942 224.915C60.0879 225.471 61.0851 225.749 62.186 225.749C62.7897 225.749 63.3697 225.667 63.926 225.501C64.4824 225.335 64.9884 225.09 65.4442 224.764C65.9058 224.433 66.2964 224.027 66.616 223.548C66.9416 223.062 67.1694 222.506 67.2996 221.879H69.5013C69.3356 222.808 69.0338 223.64 68.5958 224.373C68.1578 225.107 67.6133 225.732 66.9623 226.247C66.3112 226.756 65.5803 227.143 64.7694 227.41C63.9645 227.676 63.1034 227.809 62.186 227.809C60.6353 227.809 59.2563 227.43 58.0489 226.673C56.8415 225.915 55.8916 224.838 55.1991 223.441C54.5067 222.044 54.1604 220.387 54.1604 218.47C54.1604 216.552 54.5067 214.895 55.1991 213.498C55.8916 212.101 56.8415 211.024 58.0489 210.267C59.2563 209.509 60.6353 209.13 62.186 209.13C63.1034 209.13 63.9645 209.263 64.7694 209.53C65.5803 209.796 66.3112 210.187 66.9623 210.702C67.6133 211.211 68.1578 211.832 68.5958 212.566C69.0338 213.294 69.3356 214.125 69.5013 215.061ZM77.3148 227.845C76.0837 227.845 75.0036 227.552 74.0744 226.966C73.1511 226.38 72.429 225.56 71.9082 224.507C71.3933 223.453 71.1358 222.222 71.1358 220.813C71.1358 219.393 71.3933 218.153 71.9082 217.094C72.429 216.034 73.1511 215.211 74.0744 214.626C75.0036 214.04 76.0837 213.747 77.3148 213.747C78.5459 213.747 79.623 214.04 80.5463 214.626C81.4756 215.211 82.1976 216.034 82.7125 217.094C83.2334 218.153 83.4938 219.393 83.4938 220.813C83.4938 222.222 83.2334 223.453 82.7125 224.507C82.1976 225.56 81.4756 226.38 80.5463 226.966C79.623 227.552 78.5459 227.845 77.3148 227.845ZM77.3148 225.963C78.2499 225.963 79.0194 225.723 79.623 225.243C80.2267 224.764 80.6736 224.134 80.9636 223.352C81.2536 222.571 81.3986 221.725 81.3986 220.813C81.3986 219.902 81.2536 219.053 80.9636 218.265C80.6736 217.478 80.2267 216.842 79.623 216.357C79.0194 215.871 78.2499 215.629 77.3148 215.629C76.3797 215.629 75.6103 215.871 75.0066 216.357C74.4029 216.842 73.956 217.478 73.666 218.265C73.376 219.053 73.231 219.902 73.231 220.813C73.231 221.725 73.376 222.571 73.666 223.352C73.956 224.134 74.4029 224.764 75.0066 225.243C75.6103 225.723 76.3797 225.963 77.3148 225.963ZM85.692 227.561V213.924H87.7162V215.984H87.8582C88.1068 215.309 88.5566 214.762 89.2077 214.341C89.8587 213.921 90.5926 213.711 91.4094 213.711C91.5632 213.711 91.7556 213.714 91.9864 213.72C92.2172 213.726 92.3918 213.735 92.5102 213.747V215.877C92.4392 215.86 92.2764 215.833 92.0219 215.797C91.7733 215.756 91.51 215.735 91.2318 215.735C90.5689 215.735 89.9771 215.874 89.4562 216.153C88.9413 216.425 88.5329 216.804 88.2311 217.289C87.9352 217.768 87.7872 218.316 87.7872 218.931V227.561H85.692ZM99.2961 227.845C97.9822 227.845 96.8488 227.555 95.8959 226.975C94.9489 226.389 94.218 225.572 93.703 224.524C93.194 223.471 92.9395 222.246 92.9395 220.849C92.9395 219.452 93.194 218.221 93.703 217.156C94.218 216.084 94.9341 215.25 95.8515 214.652C96.7748 214.048 97.8519 213.747 99.083 213.747C99.7932 213.747 100.495 213.865 101.187 214.102C101.88 214.338 102.51 214.723 103.078 215.256C103.646 215.783 104.099 216.481 104.436 217.351C104.774 218.221 104.942 219.292 104.942 220.565V221.453H94.431V219.642H102.812C102.812 218.872 102.658 218.186 102.35 217.582C102.048 216.978 101.616 216.502 101.054 216.153C100.498 215.803 99.8406 215.629 99.083 215.629C98.2485 215.629 97.5264 215.836 96.9168 216.25C96.3131 216.659 95.8485 217.191 95.523 217.848C95.1975 218.505 95.0347 219.209 95.0347 219.961V221.169C95.0347 222.198 95.2123 223.071 95.5674 223.787C95.9284 224.498 96.4285 225.039 97.0677 225.412C97.7069 225.779 98.4497 225.963 99.2961 225.963C99.8465 225.963 100.344 225.886 100.788 225.732C101.237 225.572 101.625 225.335 101.951 225.021C102.276 224.702 102.528 224.305 102.705 223.832L104.729 224.4C104.516 225.087 104.158 225.69 103.655 226.211C103.152 226.726 102.531 227.128 101.791 227.419C101.051 227.703 100.219 227.845 99.2961 227.845ZM113.161 227.561V213.924H115.256V227.561H113.161ZM114.226 211.651C113.818 211.651 113.466 211.512 113.17 211.234C112.88 210.956 112.735 210.622 112.735 210.231C112.735 209.84 112.88 209.506 113.17 209.228C113.466 208.95 113.818 208.811 114.226 208.811C114.634 208.811 114.984 208.95 115.274 209.228C115.57 209.506 115.718 209.84 115.718 210.231C115.718 210.622 115.57 210.956 115.274 211.234C114.984 211.512 114.634 211.651 114.226 211.651ZM124.201 227.809C123.029 227.809 121.985 227.608 121.067 227.205C120.156 226.803 119.431 226.244 118.892 225.528C118.36 224.805 118.07 223.968 118.022 223.015H120.26C120.307 223.601 120.508 224.107 120.863 224.533C121.218 224.953 121.683 225.279 122.257 225.51C122.831 225.741 123.467 225.856 124.166 225.856C124.947 225.856 125.64 225.72 126.243 225.448C126.847 225.175 127.32 224.797 127.664 224.311C128.007 223.826 128.179 223.264 128.179 222.624C128.179 221.956 128.013 221.367 127.681 220.858C127.35 220.343 126.865 219.94 126.225 219.65C125.586 219.36 124.805 219.215 123.882 219.215H122.426V217.262H123.882C124.604 217.262 125.237 217.132 125.782 216.872C126.332 216.611 126.761 216.244 127.069 215.771C127.383 215.297 127.539 214.741 127.539 214.102C127.539 213.486 127.403 212.951 127.131 212.495C126.859 212.039 126.474 211.684 125.977 211.43C125.486 211.175 124.906 211.048 124.237 211.048C123.609 211.048 123.018 211.163 122.461 211.394C121.911 211.619 121.461 211.947 121.112 212.379C120.763 212.806 120.573 213.32 120.544 213.924H118.413C118.449 212.971 118.736 212.137 119.274 211.421C119.813 210.699 120.517 210.136 121.387 209.734C122.263 209.331 123.225 209.13 124.272 209.13C125.397 209.13 126.362 209.358 127.167 209.814C127.971 210.264 128.59 210.858 129.022 211.598C129.454 212.338 129.67 213.137 129.67 213.995C129.67 215.019 129.401 215.892 128.862 216.614C128.33 217.336 127.605 217.836 126.687 218.115V218.257C127.835 218.446 128.732 218.934 129.377 219.721C130.022 220.503 130.345 221.47 130.345 222.624C130.345 223.613 130.076 224.501 129.537 225.288C129.004 226.069 128.276 226.685 127.353 227.134C126.43 227.584 125.379 227.809 124.201 227.809ZM140.824 217.493V219.446H132.869V217.493H140.824ZM149.867 209.379V227.561H147.665V211.687H147.559L143.12 214.634V212.397L147.665 209.379H149.867ZM160.026 227.809C158.689 227.809 157.549 227.445 156.608 226.717C155.667 225.983 154.948 224.921 154.451 223.53C153.954 222.133 153.705 220.446 153.705 218.47C153.705 216.505 153.954 214.827 154.451 213.436C154.954 212.039 155.676 210.974 156.617 210.24C157.564 209.5 158.701 209.13 160.026 209.13C161.352 209.13 162.486 209.5 163.427 210.24C164.374 210.974 165.096 212.039 165.593 213.436C166.096 214.827 166.347 216.505 166.347 218.47C166.347 220.446 166.099 222.133 165.602 223.53C165.104 224.921 164.385 225.983 163.444 226.717C162.503 227.445 161.364 227.809 160.026 227.809ZM160.026 225.856C161.352 225.856 162.382 225.217 163.116 223.938C163.85 222.66 164.217 220.837 164.217 218.47C164.217 216.895 164.048 215.555 163.711 214.448C163.379 213.341 162.9 212.498 162.272 211.918C161.651 211.338 160.902 211.048 160.026 211.048C158.712 211.048 157.686 211.696 156.946 212.992C156.206 214.282 155.836 216.108 155.836 218.47C155.836 220.044 156.002 221.382 156.333 222.482C156.665 223.583 157.141 224.421 157.763 224.995C158.39 225.569 159.145 225.856 160.026 225.856ZM174.651 227.809C173.314 227.809 172.174 227.445 171.233 226.717C170.292 225.983 169.573 224.921 169.076 223.53C168.579 222.133 168.33 220.446 168.33 218.47C168.33 216.505 168.579 214.827 169.076 213.436C169.579 212.039 170.301 210.974 171.242 210.24C172.189 209.5 173.326 209.13 174.651 209.13C175.977 209.13 177.111 209.5 178.052 210.24C178.999 210.974 179.721 212.039 180.218 213.436C180.721 214.827 180.972 216.505 180.972 218.47C180.972 220.446 180.724 222.133 180.227 223.53C179.729 224.921 179.01 225.983 178.069 226.717C177.128 227.445 175.989 227.809 174.651 227.809ZM174.651 225.856C175.977 225.856 177.007 225.217 177.741 223.938C178.475 222.66 178.842 220.837 178.842 218.47C178.842 216.895 178.673 215.555 178.336 214.448C178.004 213.341 177.525 212.498 176.897 211.918C176.276 211.338 175.527 211.048 174.651 211.048C173.337 211.048 172.311 211.696 171.571 212.992C170.831 214.282 170.461 216.108 170.461 218.47C170.461 220.044 170.627 221.382 170.958 222.482C171.29 223.583 171.766 224.421 172.388 224.995C173.015 225.569 173.77 225.856 174.651 225.856ZM189.028 227.809C187.986 227.809 187.048 227.602 186.214 227.188C185.379 226.773 184.71 226.205 184.207 225.483C183.704 224.761 183.429 223.938 183.381 223.015H185.512C185.595 223.838 185.968 224.518 186.631 225.057C187.3 225.59 188.099 225.856 189.028 225.856C189.774 225.856 190.436 225.681 191.016 225.332C191.602 224.983 192.061 224.504 192.392 223.894C192.73 223.278 192.899 222.583 192.899 221.808C192.899 221.015 192.724 220.307 192.375 219.686C192.031 219.059 191.558 218.564 190.954 218.203C190.351 217.842 189.661 217.659 188.886 217.653C188.329 217.647 187.758 217.733 187.172 217.91C186.586 218.082 186.104 218.304 185.725 218.576L183.666 218.328L184.766 209.379H194.212V211.332H186.613L185.974 216.694H186.08C186.453 216.398 186.921 216.153 187.483 215.957C188.045 215.762 188.631 215.664 189.241 215.664C190.354 215.664 191.345 215.931 192.215 216.463C193.091 216.99 193.777 217.712 194.275 218.629C194.778 219.547 195.029 220.594 195.029 221.772C195.029 222.932 194.769 223.968 194.248 224.879C193.733 225.785 193.023 226.501 192.117 227.028C191.212 227.549 190.182 227.809 189.028 227.809ZM210.305 215.061C210.109 214.463 209.852 213.927 209.532 213.454C209.218 212.974 208.843 212.566 208.405 212.229C207.973 211.891 207.481 211.634 206.931 211.456C206.381 211.279 205.777 211.19 205.12 211.19C204.043 211.19 203.063 211.468 202.181 212.024C201.299 212.581 200.598 213.4 200.077 214.483C199.556 215.567 199.296 216.895 199.296 218.47C199.296 220.044 199.559 221.373 200.086 222.456C200.613 223.539 201.326 224.359 202.226 224.915C203.125 225.471 204.137 225.749 205.262 225.749C206.304 225.749 207.221 225.528 208.014 225.084C208.813 224.634 209.434 224.001 209.878 223.184C210.328 222.361 210.553 221.393 210.553 220.281L211.228 220.423H205.759V218.47H212.684V220.423C212.684 221.92 212.364 223.222 211.725 224.329C211.092 225.436 210.216 226.294 209.097 226.904C207.984 227.507 206.706 227.809 205.262 227.809C203.652 227.809 202.238 227.43 201.018 226.673C199.805 225.915 198.858 224.838 198.177 223.441C197.503 222.044 197.165 220.387 197.165 218.47C197.165 217.031 197.358 215.738 197.742 214.59C198.133 213.436 198.683 212.453 199.394 211.643C200.104 210.832 200.944 210.21 201.915 209.778C202.886 209.346 203.954 209.13 205.12 209.13C206.079 209.13 206.972 209.275 207.801 209.565C208.635 209.849 209.378 210.255 210.029 210.781C210.686 211.302 211.234 211.927 211.672 212.655C212.11 213.377 212.412 214.179 212.577 215.061H210.305ZM221.527 209.379V227.561H219.325V211.687H219.219L214.78 214.634V212.397L219.325 209.379H221.527Z" fill="white"/>
<path d="M591.958 223.832V222.021L599.948 209.379H601.262V212.184H600.374L594.337 221.737V221.879H605.097V223.832H591.958ZM600.516 227.561V223.281V222.438V209.379H602.611V227.561H600.516ZM613.212 209.13C613.958 209.136 614.704 209.278 615.45 209.556C616.195 209.834 616.876 210.296 617.492 210.941C618.107 211.58 618.601 212.453 618.974 213.56C619.347 214.667 619.533 216.055 619.533 217.724C619.533 219.34 619.38 220.775 619.072 222.03C618.77 223.278 618.332 224.332 617.758 225.19C617.19 226.048 616.497 226.699 615.68 227.143C614.87 227.587 613.952 227.809 612.928 227.809C611.91 227.809 611.002 227.608 610.203 227.205C609.41 226.797 608.759 226.232 608.25 225.51C607.747 224.782 607.424 223.938 607.282 222.98H609.448C609.644 223.814 610.031 224.504 610.611 225.048C611.197 225.587 611.97 225.856 612.928 225.856C614.331 225.856 615.438 225.243 616.249 224.018C617.065 222.793 617.474 221.062 617.474 218.825H617.332C617 219.322 616.607 219.751 616.151 220.112C615.695 220.473 615.189 220.751 614.633 220.947C614.077 221.142 613.485 221.24 612.857 221.24C611.816 221.24 610.86 220.982 609.99 220.467C609.126 219.946 608.433 219.233 607.912 218.328C607.397 217.416 607.14 216.374 607.14 215.203C607.14 214.09 607.389 213.072 607.886 212.149C608.389 211.219 609.093 210.48 609.999 209.929C610.91 209.379 611.981 209.112 613.212 209.13ZM613.212 211.083C612.467 211.083 611.795 211.27 611.197 211.643C610.605 212.01 610.135 212.507 609.786 213.134C609.442 213.756 609.271 214.445 609.271 215.203C609.271 215.96 609.436 216.65 609.768 217.271C610.105 217.887 610.564 218.378 611.144 218.745C611.73 219.106 612.396 219.286 613.141 219.286C613.704 219.286 614.227 219.177 614.713 218.958C615.198 218.733 615.621 218.428 615.982 218.044C616.349 217.653 616.636 217.212 616.843 216.721C617.051 216.224 617.154 215.706 617.154 215.167C617.154 214.457 616.983 213.791 616.639 213.17C616.302 212.548 615.834 212.045 615.237 211.66C614.645 211.276 613.97 211.083 613.212 211.083ZM628.168 227.809C626.996 227.809 625.952 227.608 625.034 227.205C624.123 226.803 623.398 226.244 622.859 225.528C622.327 224.805 622.037 223.968 621.989 223.015H624.226C624.274 223.601 624.475 224.107 624.83 224.533C625.185 224.953 625.65 225.279 626.224 225.51C626.798 225.741 627.434 225.856 628.133 225.856C628.914 225.856 629.606 225.72 630.21 225.448C630.814 225.175 631.287 224.797 631.631 224.311C631.974 223.826 632.145 223.264 632.145 222.624C632.145 221.956 631.98 221.367 631.648 220.858C631.317 220.343 630.831 219.94 630.192 219.65C629.553 219.36 628.772 219.215 627.849 219.215H626.393V217.262H627.849C628.571 217.262 629.204 217.132 629.748 216.872C630.299 216.611 630.728 216.244 631.036 215.771C631.349 215.297 631.506 214.741 631.506 214.102C631.506 213.486 631.37 212.951 631.098 212.495C630.826 212.039 630.441 211.684 629.944 211.43C629.452 211.175 628.872 211.048 628.204 211.048C627.576 211.048 626.984 211.163 626.428 211.394C625.878 211.619 625.428 211.947 625.079 212.379C624.729 212.806 624.54 213.32 624.51 213.924H622.38C622.415 212.971 622.702 212.137 623.241 211.421C623.78 210.699 624.484 210.136 625.354 209.734C626.23 209.331 627.192 209.13 628.239 209.13C629.364 209.13 630.328 209.358 631.133 209.814C631.938 210.264 632.557 210.858 632.989 211.598C633.421 212.338 633.637 213.137 633.637 213.995C633.637 215.019 633.368 215.892 632.829 216.614C632.296 217.336 631.571 217.836 630.654 218.115V218.257C631.802 218.446 632.699 218.934 633.344 219.721C633.989 220.503 634.312 221.47 634.312 222.624C634.312 223.613 634.042 224.501 633.504 225.288C632.971 226.069 632.243 226.685 631.32 227.134C630.396 227.584 629.346 227.809 628.168 227.809ZM643.086 227.809C641.914 227.809 640.87 227.608 639.952 227.205C639.041 226.803 638.316 226.244 637.777 225.528C637.244 224.805 636.954 223.968 636.907 223.015H639.144C639.192 223.601 639.393 224.107 639.748 224.533C640.103 224.953 640.568 225.279 641.142 225.51C641.716 225.741 642.352 225.856 643.051 225.856C643.832 225.856 644.524 225.72 645.128 225.448C645.732 225.175 646.205 224.797 646.548 224.311C646.892 223.826 647.063 223.264 647.063 222.624C647.063 221.956 646.898 221.367 646.566 220.858C646.235 220.343 645.749 219.94 645.11 219.65C644.471 219.36 643.69 219.215 642.767 219.215H641.311V217.262H642.767C643.489 217.262 644.122 217.132 644.666 216.872C645.217 216.611 645.646 216.244 645.954 215.771C646.267 215.297 646.424 214.741 646.424 214.102C646.424 213.486 646.288 212.951 646.016 212.495C645.744 212.039 645.359 211.684 644.862 211.43C644.37 211.175 643.79 211.048 643.122 211.048C642.494 211.048 641.902 211.163 641.346 211.394C640.796 211.619 640.346 211.947 639.997 212.379C639.647 212.806 639.458 213.32 639.428 213.924H637.298C637.333 212.971 637.62 212.137 638.159 211.421C638.698 210.699 639.402 210.136 640.272 209.734C641.148 209.331 642.11 209.13 643.157 209.13C644.282 209.13 645.246 209.358 646.051 209.814C646.856 210.264 647.475 210.858 647.907 211.598C648.339 212.338 648.555 213.137 648.555 213.995C648.555 215.019 648.286 215.892 647.747 216.614C647.214 217.336 646.489 217.836 645.572 218.115V218.257C646.72 218.446 647.617 218.934 648.262 219.721C648.907 220.503 649.23 221.47 649.23 222.624C649.23 223.613 648.96 224.501 648.422 225.288C647.889 226.069 647.161 226.685 646.238 227.134C645.314 227.584 644.264 227.809 643.086 227.809Z" fill="white"/>
<rect x="0.978516" y="242.561" width="650" height="5" rx="2.5" fill="#77787D"/>
<path d="M682.269 226.921L681.039 223.921L688.089 220.501H690.369V241.561H686.889V224.791L682.269 226.921ZM694.012 231.631C694.012 228.311 694.892 225.591 696.652 223.471C698.412 221.351 700.882 220.291 704.062 220.291C706.922 220.291 709.202 221.201 710.902 223.021L708.892 225.571C707.512 224.391 705.882 223.801 704.002 223.801C702.042 223.801 700.482 224.421 699.322 225.661C698.182 226.901 697.612 228.491 697.612 230.431C698.272 229.451 699.192 228.671 700.372 228.091C701.572 227.511 702.772 227.221 703.972 227.221C706.332 227.221 708.252 227.831 709.732 229.051C711.232 230.251 711.982 232.001 711.982 234.301C711.982 236.621 711.162 238.461 709.522 239.821C707.902 241.161 705.922 241.831 703.582 241.831C700.522 241.831 698.162 240.891 696.502 239.011C694.842 237.131 694.012 234.671 694.012 231.631ZM698.182 233.911C698.422 235.331 699.042 236.431 700.042 237.211C701.042 237.971 702.272 238.351 703.732 238.351C704.952 238.351 706.012 238.001 706.912 237.301C707.812 236.601 708.262 235.661 708.262 234.481C708.262 233.121 707.832 232.141 706.972 231.541C706.112 230.921 704.982 230.611 703.582 230.611C702.602 230.611 701.522 230.941 700.342 231.601C699.162 232.261 698.442 233.031 698.182 233.911ZM720.203 242.161L717.503 240.601L732.923 219.721L735.503 221.581L720.203 242.161ZM713.993 225.811C713.993 224.211 714.553 222.921 715.673 221.941C716.793 220.961 718.153 220.471 719.753 220.471C720.293 220.471 720.913 220.551 721.613 220.711C722.793 221.051 723.733 221.681 724.433 222.601C725.133 223.521 725.483 224.591 725.483 225.811C725.483 227.411 724.923 228.701 723.803 229.681C722.703 230.641 721.353 231.121 719.753 231.121C718.153 231.121 716.793 230.631 715.673 229.651C714.553 228.651 713.993 227.371 713.993 225.811ZM718.073 224.101C717.613 224.581 717.383 225.151 717.383 225.811C717.383 226.471 717.613 227.051 718.073 227.551C718.533 228.031 719.093 228.271 719.753 228.271C720.453 228.271 721.013 228.041 721.433 227.581C721.873 227.101 722.093 226.511 722.093 225.811C722.093 225.151 721.863 224.581 721.403 224.101C720.963 223.621 720.413 223.381 719.753 223.381C719.093 223.381 718.533 223.621 718.073 224.101ZM729.173 240.211C728.053 239.211 727.493 237.921 727.493 236.341C727.493 234.761 728.053 233.481 729.173 232.501C730.313 231.521 731.673 231.031 733.253 231.031C733.793 231.031 734.413 231.111 735.113 231.271C736.293 231.611 737.233 232.241 737.933 233.161C738.633 234.061 738.983 235.121 738.983 236.341C738.983 237.901 738.423 239.181 737.303 240.181C736.183 241.181 734.833 241.681 733.253 241.681C731.653 241.681 730.293 241.191 729.173 240.211ZM730.883 236.341C730.883 237.001 731.113 237.571 731.573 238.051C732.033 238.531 732.593 238.771 733.253 238.771C733.913 238.771 734.463 238.531 734.903 238.051C735.363 237.571 735.593 237.001 735.593 236.341C735.593 235.661 735.373 235.081 734.933 234.601C734.493 234.121 733.933 233.881 733.253 233.881C732.573 233.881 732.003 234.121 731.543 234.601C731.103 235.081 730.883 235.661 730.883 236.341Z" fill="#01BEFB"/>
<path d="M750.979 228.669L758.304 215.561L765.979 228.669H761.046C760.602 235.725 760.064 244.214 750.979 247.561C752.681 245.554 756.702 239.018 756.074 228.669H750.979Z" fill="#01BEFB"/>
<path d="M3.92596 305.561H1.61772L8.29386 287.379H10.5666L17.2427 305.561H14.9345L9.50124 290.255H9.3592L3.92596 305.561ZM4.77823 298.458H14.0822V300.411H4.77823V298.458ZM19.0748 287.379H21.7026L27.8816 302.471H28.0946L34.2736 287.379H36.9015V305.561H34.8418V291.747H34.6642L28.9824 305.561H26.9938L21.312 291.747H21.1344V305.561H19.0748V287.379ZM45.9268 305.561H40.316V287.379H46.1753C47.9391 287.379 49.4483 287.743 50.703 288.471C51.9578 289.193 52.9195 290.231 53.5883 291.587C54.2571 292.936 54.5915 294.552 54.5915 296.434C54.5915 298.328 54.2542 299.959 53.5795 301.326C52.9047 302.687 51.9223 303.735 50.632 304.469C49.3418 305.197 47.7733 305.561 45.9268 305.561ZM42.5177 303.607H45.7847C47.288 303.607 48.5339 303.317 49.5223 302.737C50.5107 302.157 51.2475 301.332 51.7329 300.26C52.2182 299.189 52.4608 297.914 52.4608 296.434C52.4608 294.966 52.2211 293.703 51.7417 292.643C51.2623 291.578 50.5462 290.761 49.5933 290.193C48.6404 289.619 47.4537 289.332 46.0333 289.332H42.5177V303.607ZM63.316 305.561V287.379H69.4594C70.8799 287.379 72.0458 287.621 72.9573 288.107C73.8688 288.586 74.5435 289.246 74.9814 290.086C75.4194 290.927 75.6384 291.883 75.6384 292.954C75.6384 294.025 75.4194 294.975 74.9814 295.804C74.5435 296.632 73.8717 297.283 72.9662 297.757C72.0606 298.224 70.9036 298.458 69.4949 298.458H64.5233V296.47H69.4239C70.3946 296.47 71.1758 296.328 71.7677 296.044C72.3654 295.759 72.7975 295.357 73.0638 294.836C73.3361 294.309 73.4722 293.682 73.4722 292.954C73.4722 292.226 73.3361 291.59 73.0638 291.045C72.7916 290.501 72.3566 290.081 71.7588 289.785C71.161 289.483 70.3709 289.332 69.3884 289.332H65.5177V305.561H63.316ZM71.8742 297.393L76.3486 305.561H73.7918L69.3884 297.393H71.8742ZM79.3725 310.674C79.0174 310.674 78.7008 310.645 78.4226 310.585C78.1444 310.532 77.9521 310.479 77.8455 310.426L78.3782 308.579C78.8872 308.709 79.337 308.757 79.7276 308.721C80.1183 308.686 80.4645 308.511 80.7663 308.197C81.0741 307.89 81.3552 307.389 81.6097 306.697L82.0004 305.632L76.9577 291.924H79.2305L82.9947 302.791H83.1367L86.9009 291.924H89.1737L83.3853 307.549C83.1249 308.253 82.8023 308.836 82.4176 309.298C82.0329 309.766 81.5861 310.112 81.0771 310.337C80.574 310.562 80.0058 310.674 79.3725 310.674ZM90.5485 305.561V303.963L98.29 294.019V293.877H90.7971V291.924H100.989V293.593L93.4604 303.465V303.607H101.237V305.561H90.5485ZM108.791 305.845C107.477 305.845 106.344 305.555 105.391 304.975C104.444 304.389 103.713 303.572 103.198 302.524C102.689 301.471 102.435 300.246 102.435 298.849C102.435 297.452 102.689 296.221 103.198 295.156C103.713 294.084 104.429 293.25 105.347 292.652C106.27 292.048 107.347 291.747 108.578 291.747C109.288 291.747 109.99 291.865 110.682 292.102C111.375 292.338 112.005 292.723 112.573 293.256C113.141 293.783 113.594 294.481 113.931 295.351C114.269 296.221 114.438 297.292 114.438 298.565V299.453H103.926V297.642H112.307C112.307 296.872 112.153 296.186 111.845 295.582C111.543 294.978 111.111 294.502 110.549 294.153C109.993 293.803 109.336 293.629 108.578 293.629C107.744 293.629 107.022 293.836 106.412 294.25C105.808 294.659 105.344 295.191 105.018 295.848C104.693 296.505 104.53 297.209 104.53 297.961V299.169C104.53 300.198 104.707 301.071 105.062 301.787C105.424 302.498 105.924 303.039 106.563 303.412C107.202 303.779 107.945 303.963 108.791 303.963C109.342 303.963 109.839 303.886 110.283 303.732C110.732 303.572 111.12 303.335 111.446 303.021C111.771 302.702 112.023 302.305 112.2 301.832L114.224 302.4C114.011 303.087 113.653 303.69 113.15 304.211C112.647 304.726 112.026 305.128 111.286 305.419C110.546 305.703 109.714 305.845 108.791 305.845ZM118.72 297.357V305.561H116.625V291.924H118.649V294.055H118.826C119.146 293.362 119.631 292.806 120.282 292.386C120.933 291.96 121.774 291.747 122.804 291.747C123.727 291.747 124.535 291.936 125.227 292.315C125.92 292.688 126.458 293.256 126.843 294.019C127.228 294.777 127.42 295.736 127.42 296.896V305.561H125.325V297.038C125.325 295.967 125.047 295.132 124.49 294.534C123.934 293.931 123.171 293.629 122.2 293.629C121.531 293.629 120.933 293.774 120.407 294.064C119.886 294.354 119.474 294.777 119.173 295.333C118.871 295.89 118.72 296.564 118.72 297.357ZM142.388 305.809C141.216 305.809 140.171 305.608 139.254 305.205C138.343 304.803 137.618 304.244 137.079 303.528C136.546 302.805 136.256 301.968 136.209 301.015H138.446C138.493 301.601 138.695 302.107 139.05 302.533C139.405 302.953 139.87 303.279 140.444 303.51C141.018 303.741 141.654 303.856 142.352 303.856C143.134 303.856 143.826 303.72 144.43 303.448C145.033 303.175 145.507 302.797 145.85 302.311C146.194 301.826 146.365 301.264 146.365 300.624C146.365 299.956 146.199 299.367 145.868 298.858C145.537 298.343 145.051 297.94 144.412 297.65C143.773 297.36 142.992 297.215 142.068 297.215H140.612V295.262H142.068C142.79 295.262 143.424 295.132 143.968 294.872C144.519 294.611 144.948 294.244 145.255 293.771C145.569 293.297 145.726 292.741 145.726 292.102C145.726 291.486 145.59 290.951 145.318 290.495C145.045 290.039 144.661 289.684 144.163 289.43C143.672 289.175 143.092 289.048 142.423 289.048C141.796 289.048 141.204 289.163 140.648 289.394C140.097 289.619 139.648 289.947 139.298 290.379C138.949 290.806 138.76 291.32 138.73 291.924H136.6C136.635 290.971 136.922 290.137 137.461 289.421C137.999 288.699 138.704 288.136 139.574 287.734C140.45 287.331 141.411 287.13 142.459 287.13C143.583 287.13 144.548 287.358 145.353 287.814C146.158 288.264 146.776 288.858 147.209 289.598C147.641 290.338 147.857 291.137 147.857 291.995C147.857 293.019 147.587 293.892 147.049 294.614C146.516 295.336 145.791 295.836 144.874 296.115V296.257C146.022 296.446 146.919 296.934 147.564 297.721C148.209 298.503 148.531 299.47 148.531 300.624C148.531 301.613 148.262 302.501 147.723 303.288C147.191 304.069 146.463 304.685 145.54 305.134C144.616 305.584 143.566 305.809 142.388 305.809ZM163.337 305.809C162.165 305.809 161.121 305.608 160.203 305.205C159.292 304.803 158.567 304.244 158.028 303.528C157.495 302.805 157.205 301.968 157.158 301.015H159.395C159.443 301.601 159.644 302.107 159.999 302.533C160.354 302.953 160.819 303.279 161.393 303.51C161.967 303.741 162.603 303.856 163.302 303.856C164.083 303.856 164.775 303.72 165.379 303.448C165.983 303.175 166.456 302.797 166.799 302.311C167.143 301.826 167.314 301.264 167.314 300.624C167.314 299.956 167.149 299.367 166.817 298.858C166.486 298.343 166 297.94 165.361 297.65C164.722 297.36 163.941 297.215 163.017 297.215H161.562V295.262H163.017C163.74 295.262 164.373 295.132 164.917 294.872C165.468 294.611 165.897 294.244 166.205 293.771C166.518 293.297 166.675 292.741 166.675 292.102C166.675 291.486 166.539 290.951 166.267 290.495C165.995 290.039 165.61 289.684 165.113 289.43C164.621 289.175 164.041 289.048 163.373 289.048C162.745 289.048 162.153 289.163 161.597 289.394C161.047 289.619 160.597 289.947 160.248 290.379C159.898 290.806 159.709 291.32 159.679 291.924H157.549C157.584 290.971 157.871 290.137 158.41 289.421C158.948 288.699 159.653 288.136 160.523 287.734C161.399 287.331 162.361 287.13 163.408 287.13C164.533 287.13 165.497 287.358 166.302 287.814C167.107 288.264 167.726 288.858 168.158 289.598C168.59 290.338 168.806 291.137 168.806 291.995C168.806 293.019 168.537 293.892 167.998 294.614C167.465 295.336 166.74 295.836 165.823 296.115V296.257C166.971 296.446 167.868 296.934 168.513 297.721C169.158 298.503 169.481 299.47 169.481 300.624C169.481 301.613 169.211 302.501 168.673 303.288C168.14 304.069 167.412 304.685 166.489 305.134C165.565 305.584 164.515 305.809 163.337 305.809ZM172.112 305.561V303.963L178.113 297.393C178.817 296.624 179.397 295.955 179.853 295.387C180.309 294.812 180.646 294.274 180.865 293.771C181.09 293.262 181.203 292.729 181.203 292.173C181.203 291.534 181.049 290.98 180.741 290.513C180.439 290.045 180.025 289.684 179.498 289.43C178.971 289.175 178.379 289.048 177.722 289.048C177.024 289.048 176.414 289.193 175.894 289.483C175.379 289.767 174.979 290.166 174.695 290.681C174.417 291.196 174.278 291.8 174.278 292.492H172.183C172.183 291.427 172.428 290.492 172.919 289.687C173.411 288.882 174.08 288.255 174.926 287.805C175.778 287.355 176.734 287.13 177.793 287.13C178.859 287.13 179.803 287.355 180.625 287.805C181.448 288.255 182.093 288.861 182.561 289.625C183.028 290.388 183.262 291.238 183.262 292.173C183.262 292.842 183.141 293.496 182.898 294.135C182.661 294.768 182.247 295.475 181.655 296.257C181.069 297.032 180.256 297.979 179.214 299.097L175.13 303.465V303.607H183.582V305.561H172.112ZM192.179 305.809C190.841 305.809 189.702 305.445 188.761 304.717C187.82 303.983 187.101 302.921 186.603 301.53C186.106 300.133 185.858 298.446 185.858 296.47C185.858 294.505 186.106 292.827 186.603 291.436C187.107 290.039 187.829 288.974 188.77 288.24C189.717 287.5 190.853 287.13 192.179 287.13C193.504 287.13 194.638 287.5 195.579 288.24C196.526 288.974 197.248 290.039 197.745 291.436C198.248 292.827 198.5 294.505 198.5 296.47C198.5 298.446 198.251 300.133 197.754 301.53C197.257 302.921 196.538 303.983 195.597 304.717C194.656 305.445 193.516 305.809 192.179 305.809ZM192.179 303.856C193.504 303.856 194.534 303.217 195.268 301.938C196.002 300.66 196.369 298.837 196.369 296.47C196.369 294.895 196.2 293.555 195.863 292.448C195.532 291.341 195.052 290.498 194.425 289.918C193.803 289.338 193.055 289.048 192.179 289.048C190.865 289.048 189.838 289.696 189.098 290.992C188.358 292.282 187.988 294.108 187.988 296.47C187.988 298.044 188.154 299.382 188.486 300.482C188.817 301.583 189.293 302.421 189.915 302.995C190.542 303.569 191.297 303.856 192.179 303.856ZM206.804 305.809C205.466 305.809 204.327 305.445 203.386 304.717C202.445 303.983 201.726 302.921 201.228 301.53C200.731 300.133 200.483 298.446 200.483 296.47C200.483 294.505 200.731 292.827 201.228 291.436C201.732 290.039 202.454 288.974 203.395 288.24C204.342 287.5 205.478 287.13 206.804 287.13C208.129 287.13 209.263 287.5 210.204 288.24C211.151 288.974 211.873 290.039 212.37 291.436C212.873 292.827 213.125 294.505 213.125 296.47C213.125 298.446 212.876 300.133 212.379 301.53C211.882 302.921 211.163 303.983 210.222 304.717C209.281 305.445 208.141 305.809 206.804 305.809ZM206.804 303.856C208.129 303.856 209.159 303.217 209.893 301.938C210.627 300.66 210.994 298.837 210.994 296.47C210.994 294.895 210.825 293.555 210.488 292.448C210.157 291.341 209.677 290.498 209.05 289.918C208.428 289.338 207.68 289.048 206.804 289.048C205.49 289.048 204.463 289.696 203.723 290.992C202.983 292.282 202.613 294.108 202.613 296.47C202.613 298.044 202.779 299.382 203.111 300.482C203.442 301.583 203.918 302.421 204.54 302.995C205.167 303.569 205.922 303.856 206.804 303.856ZM227.75 287.379H229.951V299.417C229.951 300.66 229.658 301.77 229.073 302.746C228.493 303.717 227.673 304.483 226.613 305.046C225.554 305.602 224.311 305.88 222.885 305.88C221.458 305.88 220.215 305.602 219.156 305.046C218.097 304.483 217.274 303.717 216.688 302.746C216.108 301.77 215.818 300.66 215.818 299.417V287.379H218.02V299.24C218.02 300.127 218.215 300.917 218.606 301.61C218.996 302.296 219.553 302.838 220.275 303.235C221.003 303.625 221.873 303.82 222.885 303.82C223.897 303.82 224.767 303.625 225.495 303.235C226.223 302.838 226.779 302.296 227.164 301.61C227.554 300.917 227.75 300.127 227.75 299.24V287.379Z" fill="white"/>
<path d="M530.459 305.809C529.287 305.809 528.243 305.608 527.325 305.205C526.414 304.803 525.689 304.244 525.15 303.528C524.618 302.805 524.328 301.968 524.28 301.015H526.517C526.565 301.601 526.766 302.107 527.121 302.533C527.476 302.953 527.941 303.279 528.515 303.51C529.089 303.741 529.725 303.856 530.424 303.856C531.205 303.856 531.897 303.72 532.501 303.448C533.105 303.175 533.578 302.797 533.922 302.311C534.265 301.826 534.436 301.264 534.436 300.624C534.436 299.956 534.271 299.367 533.939 298.858C533.608 298.343 533.123 297.94 532.483 297.65C531.844 297.36 531.063 297.215 530.14 297.215H528.684V295.262H530.14C530.862 295.262 531.495 295.132 532.039 294.872C532.59 294.611 533.019 294.244 533.327 293.771C533.64 293.297 533.797 292.741 533.797 292.102C533.797 291.486 533.661 290.951 533.389 290.495C533.117 290.039 532.732 289.684 532.235 289.43C531.743 289.175 531.163 289.048 530.495 289.048C529.867 289.048 529.275 289.163 528.719 289.394C528.169 289.619 527.719 289.947 527.37 290.379C527.02 290.806 526.831 291.32 526.801 291.924H524.671C524.706 290.971 524.993 290.137 525.532 289.421C526.071 288.699 526.775 288.136 527.645 287.734C528.521 287.331 529.483 287.13 530.53 287.13C531.655 287.13 532.619 287.358 533.424 287.814C534.229 288.264 534.848 288.858 535.28 289.598C535.712 290.338 535.928 291.137 535.928 291.995C535.928 293.019 535.659 293.892 535.12 294.614C534.587 295.336 533.862 295.836 532.945 296.115V296.257C534.093 296.446 534.99 296.934 535.635 297.721C536.28 298.503 536.603 299.47 536.603 300.624C536.603 301.613 536.333 302.501 535.795 303.288C535.262 304.069 534.534 304.685 533.611 305.134C532.688 305.584 531.637 305.809 530.459 305.809ZM545.058 305.809C543.838 305.809 542.761 305.593 541.826 305.161C540.897 304.723 540.172 304.122 539.651 303.359C539.13 302.589 538.873 301.713 538.879 300.731C538.873 299.962 539.024 299.251 539.331 298.6C539.639 297.943 540.059 297.396 540.592 296.958C541.131 296.514 541.731 296.233 542.394 296.115V296.008C541.524 295.783 540.832 295.295 540.317 294.543C539.802 293.786 539.547 292.924 539.553 291.96C539.547 291.036 539.781 290.211 540.255 289.483C540.728 288.755 541.379 288.181 542.208 287.76C543.042 287.34 543.992 287.13 545.058 287.13C546.111 287.13 547.052 287.34 547.881 287.76C548.709 288.181 549.36 288.755 549.834 289.483C550.313 290.211 550.556 291.036 550.562 291.96C550.556 292.924 550.292 293.786 549.772 294.543C549.257 295.295 548.573 295.783 547.721 296.008V296.115C548.378 296.233 548.97 296.514 549.496 296.958C550.023 297.396 550.443 297.943 550.757 298.6C551.071 299.251 551.231 299.962 551.237 300.731C551.231 301.713 550.964 302.589 550.438 303.359C549.917 304.122 549.192 304.723 548.262 305.161C547.339 305.593 546.271 305.809 545.058 305.809ZM545.058 303.856C545.88 303.856 546.59 303.723 547.188 303.456C547.786 303.19 548.248 302.814 548.573 302.329C548.899 301.844 549.064 301.276 549.07 300.624C549.064 299.938 548.887 299.331 548.538 298.805C548.188 298.278 547.712 297.863 547.108 297.562C546.511 297.26 545.827 297.109 545.058 297.109C544.282 297.109 543.59 297.26 542.98 297.562C542.376 297.863 541.9 298.278 541.551 298.805C541.208 299.331 541.039 299.938 541.045 300.624C541.039 301.276 541.196 301.844 541.515 302.329C541.841 302.814 542.305 303.19 542.909 303.456C543.513 303.723 544.229 303.856 545.058 303.856ZM545.058 295.227C545.709 295.227 546.286 295.097 546.789 294.836C547.298 294.576 547.697 294.212 547.987 293.744C548.277 293.277 548.425 292.729 548.431 292.102C548.425 291.486 548.28 290.951 547.996 290.495C547.712 290.033 547.318 289.678 546.815 289.43C546.312 289.175 545.726 289.048 545.058 289.048C544.377 289.048 543.782 289.175 543.273 289.43C542.764 289.678 542.371 290.033 542.092 290.495C541.814 290.951 541.678 291.486 541.684 292.102C541.678 292.729 541.817 293.277 542.101 293.744C542.391 294.212 542.791 294.576 543.3 294.836C543.809 295.097 544.395 295.227 545.058 295.227ZM560.031 287.379V305.561H557.829V289.687H557.723L553.284 292.634V290.397L557.829 287.379H560.031ZM570.297 305.809C569.551 305.797 568.805 305.655 568.06 305.383C567.314 305.111 566.633 304.652 566.018 304.007C565.402 303.356 564.908 302.477 564.535 301.37C564.162 300.258 563.976 298.861 563.976 297.18C563.976 295.57 564.127 294.144 564.429 292.901C564.731 291.652 565.169 290.601 565.743 289.749C566.317 288.891 567.009 288.24 567.82 287.796C568.637 287.352 569.557 287.13 570.581 287.13C571.599 287.13 572.505 287.334 573.298 287.743C574.097 288.145 574.748 288.707 575.251 289.43C575.754 290.152 576.079 290.983 576.227 291.924H574.061C573.86 291.107 573.469 290.43 572.889 289.891C572.309 289.353 571.54 289.083 570.581 289.083C569.172 289.083 568.063 289.696 567.252 290.921C566.447 292.146 566.042 293.865 566.036 296.079H566.178C566.509 295.576 566.903 295.147 567.358 294.792C567.82 294.431 568.329 294.153 568.885 293.957C569.442 293.762 570.031 293.664 570.652 293.664C571.694 293.664 572.647 293.925 573.511 294.445C574.375 294.96 575.067 295.674 575.588 296.585C576.109 297.491 576.369 298.529 576.369 299.701C576.369 300.826 576.118 301.856 575.615 302.791C575.112 303.72 574.404 304.46 573.493 305.01C572.587 305.555 571.522 305.821 570.297 305.809ZM570.297 303.856C571.043 303.856 571.711 303.67 572.303 303.297C572.901 302.924 573.372 302.424 573.715 301.796C574.064 301.169 574.239 300.471 574.239 299.701C574.239 298.95 574.07 298.266 573.733 297.65C573.401 297.029 572.943 296.535 572.357 296.168C571.777 295.801 571.114 295.617 570.368 295.617C569.806 295.617 569.282 295.73 568.797 295.955C568.311 296.174 567.885 296.476 567.518 296.86C567.157 297.245 566.873 297.686 566.666 298.183C566.459 298.674 566.355 299.192 566.355 299.737C566.355 300.459 566.524 301.133 566.861 301.761C567.205 302.388 567.672 302.894 568.264 303.279C568.862 303.664 569.539 303.856 570.297 303.856Z" fill="white"/>
<rect x="0.978516" y="320.561" width="577" height="5" rx="2.5" fill="#77787D"/>
<path d="M612.209 304.561L609.119 303.181C609.699 301.561 610.739 300.341 612.239 299.521C613.759 298.701 615.449 298.291 617.309 298.291C618.489 298.291 619.629 298.451 620.729 298.771C621.829 299.091 622.799 299.671 623.639 300.511C624.479 301.351 624.899 302.371 624.899 303.571C624.899 304.691 624.589 305.701 623.969 306.601C623.369 307.481 622.549 308.071 621.509 308.371C622.709 308.611 623.649 309.181 624.329 310.081C625.009 310.981 625.349 312.051 625.349 313.291C625.349 315.331 624.559 316.931 622.979 318.091C621.399 319.231 619.559 319.801 617.459 319.801C615.499 319.801 613.689 319.361 612.029 318.481C610.389 317.581 609.279 316.281 608.699 314.581L611.999 313.201C612.199 313.641 612.539 314.101 613.019 314.581C613.459 315.081 614.079 315.501 614.879 315.841C615.699 316.161 616.459 316.321 617.159 316.321C618.279 316.321 619.299 316.081 620.219 315.601C621.139 315.101 621.599 314.341 621.599 313.321C621.599 312.701 621.439 312.181 621.119 311.761C620.799 311.341 620.339 311.051 619.739 310.891C619.159 310.711 618.629 310.601 618.149 310.561C617.689 310.501 617.139 310.471 616.499 310.471H614.459V307.171H616.619C617.699 307.171 618.729 306.941 619.709 306.481C620.689 306.001 621.179 305.281 621.179 304.321C621.179 303.401 620.739 302.741 619.859 302.341C618.999 301.921 618.049 301.711 617.009 301.711C614.769 301.711 613.169 302.661 612.209 304.561ZM631.03 310.351L628 310.051L628.96 298.561H642.67V301.951H632.14L631.69 306.601C632.67 306.101 633.91 305.851 635.41 305.851C637.73 305.851 639.62 306.441 641.08 307.621C642.54 308.781 643.27 310.491 643.27 312.751C643.27 314.951 642.48 316.681 640.9 317.941C639.34 319.181 637.44 319.801 635.2 319.801C633.26 319.801 631.55 319.381 630.07 318.541C628.59 317.681 627.55 316.401 626.95 314.701L630.31 313.471C630.69 314.411 631.35 315.121 632.29 315.601C633.25 316.081 634.28 316.321 635.38 316.321C636.52 316.321 637.5 316.021 638.32 315.421C639.14 314.821 639.55 313.971 639.55 312.871C639.55 311.591 639.12 310.651 638.26 310.051C637.4 309.431 636.31 309.121 634.99 309.121C633.35 309.121 632.03 309.531 631.03 310.351ZM651.861 320.161L649.161 318.601L664.581 297.721L667.161 299.581L651.861 320.161ZM645.651 303.811C645.651 302.211 646.211 300.921 647.331 299.941C648.451 298.961 649.811 298.471 651.411 298.471C651.951 298.471 652.571 298.551 653.271 298.711C654.451 299.051 655.391 299.681 656.091 300.601C656.791 301.521 657.141 302.591 657.141 303.811C657.141 305.411 656.581 306.701 655.461 307.681C654.361 308.641 653.011 309.121 651.411 309.121C649.811 309.121 648.451 308.631 647.331 307.651C646.211 306.651 645.651 305.371 645.651 303.811ZM649.731 302.101C649.271 302.581 649.041 303.151 649.041 303.811C649.041 304.471 649.271 305.051 649.731 305.551C650.191 306.031 650.751 306.271 651.411 306.271C652.111 306.271 652.671 306.041 653.091 305.581C653.531 305.101 653.751 304.511 653.751 303.811C653.751 303.151 653.521 302.581 653.061 302.101C652.621 301.621 652.071 301.381 651.411 301.381C650.751 301.381 650.191 301.621 649.731 302.101ZM660.831 318.211C659.711 317.211 659.151 315.921 659.151 314.341C659.151 312.761 659.711 311.481 660.831 310.501C661.971 309.521 663.331 309.031 664.911 309.031C665.451 309.031 666.071 309.111 666.771 309.271C667.951 309.611 668.891 310.241 669.591 311.161C670.291 312.061 670.641 313.121 670.641 314.341C670.641 315.901 670.081 317.181 668.961 318.181C667.841 319.181 666.491 319.681 664.911 319.681C663.311 319.681 661.951 319.191 660.831 318.211ZM662.541 314.341C662.541 315.001 662.771 315.571 663.231 316.051C663.691 316.531 664.251 316.771 664.911 316.771C665.571 316.771 666.121 316.531 666.561 316.051C667.021 315.571 667.251 315.001 667.251 314.341C667.251 313.661 667.031 313.081 666.591 312.601C666.151 312.121 665.591 311.881 664.911 311.881C664.231 311.881 663.661 312.121 663.201 312.601C662.761 313.081 662.541 313.661 662.541 314.341Z" fill="#01BEFB"/>
<path d="M681.979 306.669L689.304 293.561L696.979 306.669H692.046C691.602 313.725 691.064 322.214 681.979 325.561C683.681 323.554 687.702 317.018 687.074 306.669H681.979Z" fill="#01BEFB"/>
<defs>
<linearGradient id="paint0_linear_4021_3464" x1="0.978516" y1="89.0605" x2="678.979" y2="89.0605" gradientUnits="userSpaceOnUse">
<stop stop-color="#004AF0"/>
<stop offset="1" stop-color="#00BFFB"/>
</linearGradient>
</defs>
</svg>
