<svg width="343" height="192" viewBox="0 0 343 192" fill="none" xmlns="http://www.w3.org/2000/svg">
<path d="M2.81818 0.363636V12H1.40909V0.363636H2.81818ZM5.80256 6.75V12H4.46165V3.27273H5.7571V4.63636H5.87074C6.07528 4.19318 6.38589 3.83712 6.80256 3.56818C7.21922 3.29545 7.7571 3.15909 8.41619 3.15909C9.0071 3.15909 9.52415 3.2803 9.96733 3.52273C10.4105 3.76136 10.7552 4.125 11.0014 4.61364C11.2476 5.09848 11.3707 5.71212 11.3707 6.45455V12H10.0298V6.54545C10.0298 5.85985 9.8518 5.32576 9.49574 4.94318C9.13968 4.55682 8.65104 4.36364 8.02983 4.36364C7.6018 4.36364 7.21922 4.45644 6.8821 4.64205C6.54877 4.82765 6.28551 5.09848 6.09233 5.45455C5.89915 5.81061 5.80256 6.24242 5.80256 6.75ZM16.6165 3.27273V4.40909H12.0938V3.27273H16.6165ZM13.4119 1.18182H14.7528V9.5C14.7528 9.87879 14.8078 10.1629 14.9176 10.3523C15.0313 10.5379 15.1752 10.6629 15.3494 10.7273C15.5275 10.7879 15.715 10.8182 15.9119 10.8182C16.0597 10.8182 16.1809 10.8106 16.2756 10.7955C16.3703 10.7765 16.446 10.7614 16.5028 10.75L16.7756 11.9545C16.6847 11.9886 16.5578 12.0227 16.3949 12.0568C16.232 12.0947 16.0256 12.1136 15.7756 12.1136C15.3968 12.1136 15.0256 12.0322 14.6619 11.8693C14.3021 11.7064 14.0028 11.4583 13.7642 11.125C13.5294 10.7917 13.4119 10.3712 13.4119 9.86364V1.18182ZM21.1989 12.1818C20.358 12.1818 19.6326 11.9962 19.0227 11.625C18.4167 11.25 17.9489 10.7273 17.6193 10.0568C17.2936 9.38258 17.1307 8.59848 17.1307 7.70455C17.1307 6.81061 17.2936 6.02273 17.6193 5.34091C17.9489 4.6553 18.4072 4.12121 18.9943 3.73864C19.5852 3.35227 20.2746 3.15909 21.0625 3.15909C21.517 3.15909 21.9659 3.23485 22.4091 3.38636C22.8523 3.53788 23.2557 3.78409 23.6193 4.125C23.983 4.46212 24.2727 4.90909 24.4886 5.46591C24.7045 6.02273 24.8125 6.70833 24.8125 7.52273V8.09091H18.0852V6.93182H23.4489C23.4489 6.43939 23.3504 6 23.1534 5.61364C22.9602 5.22727 22.6837 4.92235 22.3239 4.69886C21.9678 4.47538 21.5473 4.36364 21.0625 4.36364C20.5284 4.36364 20.0663 4.49621 19.6761 4.76136C19.2898 5.02273 18.9924 5.36364 18.7841 5.78409C18.5758 6.20455 18.4716 6.6553 18.4716 7.13636V7.90909C18.4716 8.56818 18.5852 9.12689 18.8125 9.58523C19.0436 10.0398 19.3636 10.3864 19.7727 10.625C20.1818 10.8598 20.6572 10.9773 21.1989 10.9773C21.5511 10.9773 21.8693 10.928 22.1534 10.8295C22.4413 10.7273 22.6894 10.5758 22.8977 10.375C23.1061 10.1705 23.267 9.91667 23.3807 9.61364L24.6761 9.97727C24.5398 10.4167 24.3106 10.803 23.9886 11.1364C23.6667 11.4659 23.2689 11.7235 22.7955 11.9091C22.322 12.0909 21.7898 12.1818 21.1989 12.1818ZM27.1932 0.363636V12H25.8523V0.363636H27.1932ZM41.5582 0.363636V12H40.1946L33.8537 2.86364H33.7401V12H32.331V0.363636H33.6946L40.0582 9.52273H40.1719V0.363636H41.5582ZM47.2642 0.363636V12H45.8551V1.84091H45.7869L42.946 3.72727V2.29545L45.8551 0.363636H47.2642ZM53.4062 12.1591C52.5502 12.1591 51.821 11.9261 51.2188 11.4602C50.6165 10.9905 50.1563 10.3106 49.8381 9.42045C49.5199 8.52652 49.3608 7.44697 49.3608 6.18182C49.3608 4.92424 49.5199 3.85038 49.8381 2.96023C50.16 2.06629 50.6222 1.38447 51.2244 0.914772C51.8305 0.441287 52.5578 0.204545 53.4062 0.204545C54.2547 0.204545 54.9801 0.441287 55.5824 0.914772C56.1884 1.38447 56.6506 2.06629 56.9688 2.96023C57.2907 3.85038 57.4517 4.92424 57.4517 6.18182C57.4517 7.44697 57.2926 8.52652 56.9744 9.42045C56.6562 10.3106 56.196 10.9905 55.5938 11.4602C54.9915 11.9261 54.2623 12.1591 53.4062 12.1591ZM53.4062 10.9091C54.2547 10.9091 54.9138 10.5 55.3835 9.68182C55.8532 8.86364 56.0881 7.69697 56.0881 6.18182C56.0881 5.17424 55.9801 4.31629 55.7642 3.60795C55.5521 2.89962 55.2453 2.35985 54.8438 1.98864C54.446 1.61742 53.9669 1.43182 53.4062 1.43182C52.5653 1.43182 51.9081 1.84659 51.4347 2.67614C50.9612 3.50189 50.7244 4.67045 50.7244 6.18182C50.7244 7.18939 50.8305 8.04545 51.0426 8.75C51.2547 9.45455 51.5597 9.99053 51.9574 10.358C52.3589 10.7254 52.8419 10.9091 53.4062 10.9091ZM62.4062 12.1591C61.5502 12.1591 60.821 11.9261 60.2188 11.4602C59.6165 10.9905 59.1563 10.3106 58.8381 9.42045C58.5199 8.52652 58.3608 7.44697 58.3608 6.18182C58.3608 4.92424 58.5199 3.85038 58.8381 2.96023C59.16 2.06629 59.6222 1.38447 60.2244 0.914772C60.8305 0.441287 61.5578 0.204545 62.4062 0.204545C63.2547 0.204545 63.9801 0.441287 64.5824 0.914772C65.1884 1.38447 65.6506 2.06629 65.9688 2.96023C66.2907 3.85038 66.4517 4.92424 66.4517 6.18182C66.4517 7.44697 66.2926 8.52652 65.9744 9.42045C65.6562 10.3106 65.196 10.9905 64.5938 11.4602C63.9915 11.9261 63.2623 12.1591 62.4062 12.1591ZM62.4062 10.9091C63.2547 10.9091 63.9138 10.5 64.3835 9.68182C64.8532 8.86364 65.0881 7.69697 65.0881 6.18182C65.0881 5.17424 64.9801 4.31629 64.7642 3.60795C64.5521 2.89962 64.2453 2.35985 63.8438 1.98864C63.446 1.61742 62.9669 1.43182 62.4062 1.43182C61.5653 1.43182 60.9081 1.84659 60.4347 2.67614C59.9612 3.50189 59.7244 4.67045 59.7244 6.18182C59.7244 7.18939 59.8305 8.04545 60.0426 8.75C60.2547 9.45455 60.5597 9.99053 60.9574 10.358C61.3589 10.7254 61.8419 10.9091 62.4062 10.9091Z" fill="black"/>
<path d="M260.2 12.1591C259.534 12.1591 258.933 12.0265 258.399 11.7614C257.865 11.4962 257.437 11.1326 257.115 10.6705C256.793 10.2083 256.617 9.68182 256.587 9.09091H257.95C258.003 9.61742 258.242 10.053 258.666 10.3977C259.094 10.7386 259.606 10.9091 260.2 10.9091C260.678 10.9091 261.102 10.7973 261.473 10.5739C261.848 10.3504 262.142 10.0436 262.354 9.65341C262.57 9.25947 262.678 8.81439 262.678 8.31818C262.678 7.81061 262.566 7.35795 262.342 6.96023C262.123 6.55871 261.82 6.24242 261.433 6.01136C261.047 5.7803 260.606 5.66288 260.109 5.65909C259.753 5.6553 259.388 5.71023 259.013 5.82386C258.638 5.93371 258.329 6.07576 258.087 6.25L256.768 6.09091L257.473 0.363636H263.518V1.61364H258.655L258.246 5.04545H258.314C258.553 4.85606 258.852 4.69886 259.212 4.57386C259.571 4.44886 259.946 4.38636 260.337 4.38636C261.049 4.38636 261.683 4.55682 262.24 4.89773C262.801 5.23485 263.24 5.69697 263.558 6.28409C263.88 6.87121 264.041 7.54167 264.041 8.29545C264.041 9.03788 263.875 9.70076 263.541 10.2841C263.212 10.8636 262.757 11.322 262.178 11.6591C261.598 11.9924 260.939 12.1591 260.2 12.1591ZM268.935 12.1591C268.268 12.1591 267.668 12.0265 267.134 11.7614C266.599 11.4962 266.171 11.1326 265.849 10.6705C265.527 10.2083 265.351 9.68182 265.321 9.09091H266.685C266.738 9.61742 266.976 10.053 267.401 10.3977C267.829 10.7386 268.34 10.9091 268.935 10.9091C269.412 10.9091 269.836 10.7973 270.207 10.5739C270.582 10.3504 270.876 10.0436 271.088 9.65341C271.304 9.25947 271.412 8.81439 271.412 8.31818C271.412 7.81061 271.3 7.35795 271.077 6.96023C270.857 6.55871 270.554 6.24242 270.168 6.01136C269.781 5.7803 269.34 5.66288 268.844 5.65909C268.488 5.6553 268.122 5.71023 267.747 5.82386C267.372 5.93371 267.063 6.07576 266.821 6.25L265.503 6.09091L266.207 0.363636H272.253V1.61364H267.389L266.98 5.04545H267.048C267.287 4.85606 267.586 4.69886 267.946 4.57386C268.306 4.44886 268.681 4.38636 269.071 4.38636C269.783 4.38636 270.418 4.55682 270.974 4.89773C271.535 5.23485 271.974 5.69697 272.293 6.28409C272.615 6.87121 272.776 7.54167 272.776 8.29545C272.776 9.03788 272.609 9.70076 272.276 10.2841C271.946 10.8636 271.491 11.322 270.912 11.6591C270.332 11.9924 269.673 12.1591 268.935 12.1591ZM277.669 12.1591C277.002 12.1591 276.402 12.0265 275.868 11.7614C275.334 11.4962 274.906 11.1326 274.584 10.6705C274.262 10.2083 274.086 9.68182 274.055 9.09091H275.419C275.472 9.61742 275.711 10.053 276.135 10.3977C276.563 10.7386 277.074 10.9091 277.669 10.9091C278.146 10.9091 278.571 10.7973 278.942 10.5739C279.317 10.3504 279.61 10.0436 279.822 9.65341C280.038 9.25947 280.146 8.81439 280.146 8.31818C280.146 7.81061 280.035 7.35795 279.811 6.96023C279.591 6.55871 279.288 6.24242 278.902 6.01136C278.516 5.7803 278.074 5.66288 277.578 5.65909C277.222 5.6553 276.857 5.71023 276.482 5.82386C276.107 5.93371 275.798 6.07576 275.555 6.25L274.237 6.09091L274.942 0.363636H280.987V1.61364H276.124L275.714 5.04545H275.783C276.021 4.85606 276.321 4.69886 276.68 4.57386C277.04 4.44886 277.415 4.38636 277.805 4.38636C278.518 4.38636 279.152 4.55682 279.709 4.89773C280.269 5.23485 280.709 5.69697 281.027 6.28409C281.349 6.87121 281.51 7.54167 281.51 8.29545C281.51 9.03788 281.343 9.70076 281.01 10.2841C280.68 10.8636 280.226 11.322 279.646 11.6591C279.067 11.9924 278.408 12.1591 277.669 12.1591ZM286.858 0.363636V12H285.449V1.84091H285.381L282.54 3.72727V2.29545L285.449 0.363636H286.858Z" fill="black"/>
<rect y="28" width="289" height="5" rx="2.5" fill="url(#paint0_linear_2577_66399)"/>
<path d="M2.81818 53.3636V65H1.40909V53.3636H2.81818ZM5.80256 59.75V65H4.46165V56.2727H5.7571V57.6364H5.87074C6.07528 57.1932 6.38589 56.8371 6.80256 56.5682C7.21922 56.2955 7.7571 56.1591 8.41619 56.1591C9.0071 56.1591 9.52415 56.2803 9.96733 56.5227C10.4105 56.7614 10.7552 57.125 11.0014 57.6136C11.2476 58.0985 11.3707 58.7121 11.3707 59.4545V65H10.0298V59.5455C10.0298 58.8598 9.8518 58.3258 9.49574 57.9432C9.13968 57.5568 8.65104 57.3636 8.02983 57.3636C7.6018 57.3636 7.21922 57.4564 6.8821 57.642C6.54877 57.8277 6.28551 58.0985 6.09233 58.4545C5.89915 58.8106 5.80256 59.2424 5.80256 59.75ZM16.6165 56.2727V57.4091H12.0938V56.2727H16.6165ZM13.4119 54.1818H14.7528V62.5C14.7528 62.8788 14.8078 63.1629 14.9176 63.3523C15.0313 63.5379 15.1752 63.6629 15.3494 63.7273C15.5275 63.7879 15.715 63.8182 15.9119 63.8182C16.0597 63.8182 16.1809 63.8106 16.2756 63.7955C16.3703 63.7765 16.446 63.7614 16.5028 63.75L16.7756 64.9545C16.6847 64.9886 16.5578 65.0227 16.3949 65.0568C16.232 65.0947 16.0256 65.1136 15.7756 65.1136C15.3968 65.1136 15.0256 65.0322 14.6619 64.8693C14.3021 64.7064 14.0028 64.4583 13.7642 64.125C13.5294 63.7917 13.4119 63.3712 13.4119 62.8636V54.1818ZM21.1989 65.1818C20.358 65.1818 19.6326 64.9962 19.0227 64.625C18.4167 64.25 17.9489 63.7273 17.6193 63.0568C17.2936 62.3826 17.1307 61.5985 17.1307 60.7045C17.1307 59.8106 17.2936 59.0227 17.6193 58.3409C17.9489 57.6553 18.4072 57.1212 18.9943 56.7386C19.5852 56.3523 20.2746 56.1591 21.0625 56.1591C21.517 56.1591 21.9659 56.2348 22.4091 56.3864C22.8523 56.5379 23.2557 56.7841 23.6193 57.125C23.983 57.4621 24.2727 57.9091 24.4886 58.4659C24.7045 59.0227 24.8125 59.7083 24.8125 60.5227V61.0909H18.0852V59.9318H23.4489C23.4489 59.4394 23.3504 59 23.1534 58.6136C22.9602 58.2273 22.6837 57.9223 22.3239 57.6989C21.9678 57.4754 21.5473 57.3636 21.0625 57.3636C20.5284 57.3636 20.0663 57.4962 19.6761 57.7614C19.2898 58.0227 18.9924 58.3636 18.7841 58.7841C18.5758 59.2045 18.4716 59.6553 18.4716 60.1364V60.9091C18.4716 61.5682 18.5852 62.1269 18.8125 62.5852C19.0436 63.0398 19.3636 63.3864 19.7727 63.625C20.1818 63.8598 20.6572 63.9773 21.1989 63.9773C21.5511 63.9773 21.8693 63.928 22.1534 63.8295C22.4413 63.7273 22.6894 63.5758 22.8977 63.375C23.1061 63.1705 23.267 62.9167 23.3807 62.6136L24.6761 62.9773C24.5398 63.4167 24.3106 63.803 23.9886 64.1364C23.6667 64.4659 23.2689 64.7235 22.7955 64.9091C22.322 65.0909 21.7898 65.1818 21.1989 65.1818ZM27.1932 53.3636V65H25.8523V53.3636H27.1932ZM41.6946 57H40.2855C40.2022 56.5947 40.0563 56.2386 39.848 55.9318C39.6435 55.625 39.3935 55.3674 39.098 55.1591C38.8063 54.947 38.4825 54.7879 38.1264 54.6818C37.7704 54.5758 37.3991 54.5227 37.0128 54.5227C36.3082 54.5227 35.67 54.7008 35.098 55.0568C34.5298 55.4129 34.0772 55.9375 33.7401 56.6307C33.4067 57.3239 33.2401 58.1742 33.2401 59.1818C33.2401 60.1894 33.4067 61.0398 33.7401 61.733C34.0772 62.4261 34.5298 62.9508 35.098 63.3068C35.67 63.6629 36.3082 63.8409 37.0128 63.8409C37.3991 63.8409 37.7704 63.7879 38.1264 63.6818C38.4825 63.5758 38.8063 63.4186 39.098 63.2102C39.3935 62.9981 39.6435 62.7386 39.848 62.4318C40.0563 62.1212 40.2022 61.7652 40.2855 61.3636H41.6946C41.5885 61.9583 41.3954 62.4905 41.1151 62.9602C40.8348 63.4299 40.4863 63.8295 40.0696 64.1591C39.6529 64.4848 39.1851 64.733 38.6662 64.9034C38.151 65.0739 37.5999 65.1591 37.0128 65.1591C36.0204 65.1591 35.1378 64.9167 34.3651 64.4318C33.5923 63.947 32.9844 63.2576 32.5412 62.3636C32.098 61.4697 31.8764 60.4091 31.8764 59.1818C31.8764 57.9545 32.098 56.8939 32.5412 56C32.9844 55.1061 33.5923 54.4167 34.3651 53.9318C35.1378 53.447 36.0204 53.2045 37.0128 53.2045C37.5999 53.2045 38.151 53.2898 38.6662 53.4602C39.1851 53.6307 39.6529 53.8807 40.0696 54.2102C40.4863 54.536 40.8348 54.9337 41.1151 55.4034C41.3954 55.8693 41.5885 56.4015 41.6946 57ZM46.3352 65.1818C45.5473 65.1818 44.8561 64.9943 44.2614 64.6193C43.6705 64.2443 43.2083 63.7197 42.875 63.0455C42.5455 62.3712 42.3807 61.5833 42.3807 60.6818C42.3807 59.7727 42.5455 58.9792 42.875 58.3011C43.2083 57.6231 43.6705 57.0966 44.2614 56.7216C44.8561 56.3466 45.5473 56.1591 46.3352 56.1591C47.1231 56.1591 47.8125 56.3466 48.4034 56.7216C48.9981 57.0966 49.4602 57.6231 49.7898 58.3011C50.1231 58.9792 50.2898 59.7727 50.2898 60.6818C50.2898 61.5833 50.1231 62.3712 49.7898 63.0455C49.4602 63.7197 48.9981 64.2443 48.4034 64.6193C47.8125 64.9943 47.1231 65.1818 46.3352 65.1818ZM46.3352 63.9773C46.9337 63.9773 47.4261 63.8239 47.8125 63.517C48.1989 63.2102 48.4848 62.8068 48.6705 62.3068C48.8561 61.8068 48.9489 61.2652 48.9489 60.6818C48.9489 60.0985 48.8561 59.5549 48.6705 59.0511C48.4848 58.5473 48.1989 58.1402 47.8125 57.8295C47.4261 57.5189 46.9337 57.3636 46.3352 57.3636C45.7367 57.3636 45.2443 57.5189 44.858 57.8295C44.4716 58.1402 44.1856 58.5473 44 59.0511C43.8144 59.5549 43.7216 60.0985 43.7216 60.6818C43.7216 61.2652 43.8144 61.8068 44 62.3068C44.1856 62.8068 44.4716 63.2102 44.858 63.517C45.2443 63.8239 45.7367 63.9773 46.3352 63.9773ZM51.3366 65V56.2727H52.6321V57.5909H52.723C52.8821 57.1591 53.17 56.8087 53.5866 56.5398C54.0033 56.2708 54.473 56.1364 54.9957 56.1364C55.0942 56.1364 55.2173 56.1383 55.3651 56.142C55.5128 56.1458 55.6245 56.1515 55.7003 56.1591V57.5227C55.6548 57.5114 55.5507 57.4943 55.3878 57.4716C55.2287 57.4451 55.0601 57.4318 54.8821 57.4318C54.4579 57.4318 54.0791 57.5208 53.7457 57.6989C53.4162 57.8731 53.1548 58.1155 52.9616 58.4261C52.7723 58.733 52.6776 59.0833 52.6776 59.4773V65H51.3366ZM59.6832 65.1818C58.8423 65.1818 58.117 64.9962 57.5071 64.625C56.901 64.25 56.4332 63.7273 56.1037 63.0568C55.7779 62.3826 55.6151 61.5985 55.6151 60.7045C55.6151 59.8106 55.7779 59.0227 56.1037 58.3409C56.4332 57.6553 56.8916 57.1212 57.4787 56.7386C58.0696 56.3523 58.759 56.1591 59.5469 56.1591C60.0014 56.1591 60.4503 56.2348 60.8935 56.3864C61.3366 56.5379 61.7401 56.7841 62.1037 57.125C62.4673 57.4621 62.7571 57.9091 62.973 58.4659C63.1889 59.0227 63.2969 59.7083 63.2969 60.5227V61.0909H56.5696V59.9318H61.9332C61.9332 59.4394 61.8348 59 61.6378 58.6136C61.4446 58.2273 61.1681 57.9223 60.8082 57.6989C60.4522 57.4754 60.0317 57.3636 59.5469 57.3636C59.0128 57.3636 58.5507 57.4962 58.1605 57.7614C57.7741 58.0227 57.4768 58.3636 57.2685 58.7841C57.0601 59.2045 56.956 59.6553 56.956 60.1364V60.9091C56.956 61.5682 57.0696 62.1269 57.2969 62.5852C57.5279 63.0398 57.848 63.3864 58.2571 63.625C58.6662 63.8598 59.1416 63.9773 59.6832 63.9773C60.0355 63.9773 60.3537 63.928 60.6378 63.8295C60.9257 63.7273 61.1738 63.5758 61.3821 63.375C61.5904 63.1705 61.7514 62.9167 61.8651 62.6136L63.1605 62.9773C63.0241 63.4167 62.795 63.803 62.473 64.1364C62.151 64.4659 61.7533 64.7235 61.2798 64.9091C60.8063 65.0909 60.2741 65.1818 59.6832 65.1818ZM67.8366 65V56.2727H69.1776V65H67.8366ZM68.5185 54.8182C68.2571 54.8182 68.0317 54.7292 67.8423 54.5511C67.6567 54.3731 67.5639 54.1591 67.5639 53.9091C67.5639 53.6591 67.6567 53.4451 67.8423 53.267C68.0317 53.089 68.2571 53 68.5185 53C68.7798 53 69.0033 53.089 69.1889 53.267C69.3783 53.4451 69.473 53.6591 69.473 53.9091C69.473 54.1591 69.3783 54.3731 69.1889 54.5511C69.0033 54.7292 68.7798 54.8182 68.5185 54.8182ZM74.2472 65.1591C73.5805 65.1591 72.9801 65.0265 72.446 64.7614C71.9119 64.4962 71.4839 64.1326 71.1619 63.6705C70.84 63.2083 70.6638 62.6818 70.6335 62.0909H71.9972C72.0502 62.6174 72.2888 63.053 72.7131 63.3977C73.1411 63.7386 73.6525 63.9091 74.2472 63.9091C74.7244 63.9091 75.1487 63.7973 75.5199 63.5739C75.8949 63.3504 76.1884 63.0436 76.4006 62.6534C76.6165 62.2595 76.7244 61.8144 76.7244 61.3182C76.7244 60.8106 76.6127 60.358 76.3892 59.9602C76.1695 59.5587 75.8665 59.2424 75.4801 59.0114C75.0938 58.7803 74.6525 58.6629 74.1562 58.6591C73.8002 58.6553 73.4347 58.7102 73.0597 58.8239C72.6847 58.9337 72.3759 59.0758 72.1335 59.25L70.8153 59.0909L71.5199 53.3636H77.5653V54.6136H72.7017L72.2926 58.0455H72.3608C72.5994 57.8561 72.8987 57.6989 73.2585 57.5739C73.6184 57.4489 73.9934 57.3864 74.3835 57.3864C75.0956 57.3864 75.7301 57.5568 76.2869 57.8977C76.8475 58.2348 77.2869 58.697 77.6051 59.2841C77.9271 59.8712 78.0881 60.5417 78.0881 61.2955C78.0881 62.0379 77.9214 62.7008 77.5881 63.2841C77.2585 63.8636 76.804 64.322 76.2244 64.6591C75.6449 64.9924 74.9858 65.1591 74.2472 65.1591ZM84.3679 58.5568V59.8068H79.277V58.5568H84.3679ZM89.4318 65.1591C88.6515 65.1591 87.9621 65.0208 87.3636 64.7443C86.7689 64.464 86.3049 64.0795 85.9716 63.5909C85.6383 63.0985 85.4735 62.5379 85.4773 61.9091C85.4735 61.4167 85.5701 60.9621 85.767 60.5455C85.964 60.125 86.233 59.7746 86.5739 59.4943C86.9186 59.2102 87.303 59.0303 87.7273 58.9545V58.8864C87.1705 58.7424 86.7273 58.4299 86.3977 57.9489C86.0682 57.464 85.9053 56.9129 85.9091 56.2955C85.9053 55.7045 86.0549 55.1761 86.358 54.7102C86.661 54.2443 87.0777 53.8769 87.608 53.608C88.142 53.339 88.75 53.2045 89.4318 53.2045C90.1061 53.2045 90.7083 53.339 91.2386 53.608C91.7689 53.8769 92.1856 54.2443 92.4886 54.7102C92.7955 55.1761 92.9508 55.7045 92.9545 56.2955C92.9508 56.9129 92.7822 57.464 92.4489 57.9489C92.1193 58.4299 91.6818 58.7424 91.1364 58.8864V58.9545C91.5568 59.0303 91.9356 59.2102 92.2727 59.4943C92.6098 59.7746 92.8788 60.125 93.0795 60.5455C93.2803 60.9621 93.3826 61.4167 93.3864 61.9091C93.3826 62.5379 93.2121 63.0985 92.875 63.5909C92.5417 64.0795 92.0777 64.464 91.483 64.7443C90.892 65.0208 90.2083 65.1591 89.4318 65.1591ZM89.4318 63.9091C89.9583 63.9091 90.4129 63.8239 90.7955 63.6534C91.178 63.483 91.4735 63.2424 91.6818 62.9318C91.8902 62.6212 91.9962 62.2576 92 61.8409C91.9962 61.4015 91.8826 61.0133 91.6591 60.6761C91.4356 60.339 91.1307 60.0739 90.7443 59.8807C90.3617 59.6875 89.9242 59.5909 89.4318 59.5909C88.9356 59.5909 88.4924 59.6875 88.1023 59.8807C87.7159 60.0739 87.411 60.339 87.1875 60.6761C86.9678 61.0133 86.8598 61.4015 86.8636 61.8409C86.8598 62.2576 86.9602 62.6212 87.1648 62.9318C87.3731 63.2424 87.6705 63.483 88.0568 63.6534C88.4432 63.8239 88.9015 63.9091 89.4318 63.9091ZM89.4318 58.3864C89.8485 58.3864 90.2178 58.303 90.5398 58.1364C90.8655 57.9697 91.1212 57.7367 91.3068 57.4375C91.4924 57.1383 91.5871 56.7879 91.5909 56.3864C91.5871 55.9924 91.4943 55.6496 91.3125 55.358C91.1307 55.0625 90.8788 54.8352 90.5568 54.6761C90.2348 54.5133 89.8598 54.4318 89.4318 54.4318C88.9962 54.4318 88.6155 54.5133 88.2898 54.6761C87.964 54.8352 87.7121 55.0625 87.5341 55.358C87.3561 55.6496 87.2689 55.9924 87.2727 56.3864C87.2689 56.7879 87.358 57.1383 87.5398 57.4375C87.7254 57.7367 87.9811 57.9697 88.3068 58.1364C88.6326 58.303 89.0076 58.3864 89.4318 58.3864ZM94.5639 65V63.9773L98.4048 59.7727C98.8556 59.2803 99.2268 58.8523 99.5185 58.4886C99.8101 58.1212 100.026 57.7765 100.166 57.4545C100.31 57.1288 100.382 56.7879 100.382 56.4318C100.382 56.0227 100.284 55.6686 100.087 55.3693C99.8935 55.0701 99.6283 54.839 99.2912 54.6761C98.9541 54.5133 98.5753 54.4318 98.1548 54.4318C97.7079 54.4318 97.3177 54.5246 96.9844 54.7102C96.6548 54.892 96.3991 55.1477 96.2173 55.4773C96.0393 55.8068 95.9503 56.1932 95.9503 56.6364H94.6094C94.6094 55.9545 94.7666 55.3561 95.081 54.8409C95.3954 54.3258 95.8234 53.9242 96.3651 53.6364C96.9105 53.3485 97.5223 53.2045 98.2003 53.2045C98.8821 53.2045 99.4863 53.3485 100.013 53.6364C100.539 53.9242 100.952 54.3125 101.251 54.8011C101.551 55.2898 101.7 55.8333 101.7 56.4318C101.7 56.8598 101.623 57.2784 101.467 57.6875C101.316 58.0928 101.051 58.5455 100.672 59.0455C100.297 59.5417 99.776 60.1477 99.1094 60.8636L96.4957 63.6591V63.75H101.905V65H94.5639ZM106.888 65.1591C106.221 65.1591 105.621 65.0265 105.087 64.7614C104.553 64.4962 104.125 64.1326 103.803 63.6705C103.481 63.2083 103.304 62.6818 103.274 62.0909H104.638C104.691 62.6174 104.929 63.053 105.354 63.3977C105.782 63.7386 106.293 63.9091 106.888 63.9091C107.365 63.9091 107.789 63.7973 108.161 63.5739C108.536 63.3504 108.829 63.0436 109.041 62.6534C109.257 62.2595 109.365 61.8144 109.365 61.3182C109.365 60.8106 109.253 60.358 109.03 59.9602C108.81 59.5587 108.507 59.2424 108.121 59.0114C107.734 58.7803 107.293 58.6629 106.797 58.6591C106.441 58.6553 106.075 58.7102 105.7 58.8239C105.325 58.9337 105.017 59.0758 104.774 59.25L103.456 59.0909L104.161 53.3636H110.206V54.6136H105.342L104.933 58.0455H105.001C105.24 57.8561 105.539 57.6989 105.899 57.5739C106.259 57.4489 106.634 57.3864 107.024 57.3864C107.736 57.3864 108.371 57.5568 108.928 57.8977C109.488 58.2348 109.928 58.697 110.246 59.2841C110.568 59.8712 110.729 60.5417 110.729 61.2955C110.729 62.0379 110.562 62.7008 110.229 63.2841C109.899 63.8636 109.445 64.322 108.865 64.6591C108.286 64.9924 107.626 65.1591 106.888 65.1591ZM115.781 65.1591C114.925 65.1591 114.196 64.9261 113.594 64.4602C112.991 63.9905 112.531 63.3106 112.213 62.4205C111.895 61.5265 111.736 60.447 111.736 59.1818C111.736 57.9242 111.895 56.8504 112.213 55.9602C112.535 55.0663 112.997 54.3845 113.599 53.9148C114.205 53.4413 114.933 53.2045 115.781 53.2045C116.63 53.2045 117.355 53.4413 117.957 53.9148C118.563 54.3845 119.026 55.0663 119.344 55.9602C119.666 56.8504 119.827 57.9242 119.827 59.1818C119.827 60.447 119.668 61.5265 119.349 62.4205C119.031 63.3106 118.571 63.9905 117.969 64.4602C117.366 64.9261 116.637 65.1591 115.781 65.1591ZM115.781 63.9091C116.63 63.9091 117.289 63.5 117.759 62.6818C118.228 61.8636 118.463 60.697 118.463 59.1818C118.463 58.1742 118.355 57.3163 118.139 56.608C117.927 55.8996 117.62 55.3598 117.219 54.9886C116.821 54.6174 116.342 54.4318 115.781 54.4318C114.94 54.4318 114.283 54.8466 113.81 55.6761C113.336 56.5019 113.099 57.6705 113.099 59.1818C113.099 60.1894 113.205 61.0455 113.418 61.75C113.63 62.4545 113.935 62.9905 114.332 63.358C114.734 63.7254 115.217 63.9091 115.781 63.9091ZM128.827 53.3636H130.236V61.0682C130.236 61.8636 130.048 62.5739 129.673 63.1989C129.302 63.8201 128.777 64.3106 128.099 64.6705C127.421 65.0265 126.626 65.2045 125.713 65.2045C124.8 65.2045 124.005 65.0265 123.327 64.6705C122.649 64.3106 122.122 63.8201 121.747 63.1989C121.376 62.5739 121.19 61.8636 121.19 61.0682V53.3636H122.599V60.9545C122.599 61.5227 122.724 62.0284 122.974 62.4716C123.224 62.911 123.58 63.2576 124.043 63.5114C124.509 63.7614 125.065 63.8864 125.713 63.8864C126.361 63.8864 126.918 63.7614 127.384 63.5114C127.849 63.2576 128.205 62.911 128.452 62.4716C128.702 62.0284 128.827 61.5227 128.827 60.9545V53.3636Z" fill="black"/>
<path d="M267.653 65.1591C266.987 65.1591 266.386 65.0265 265.852 64.7614C265.318 64.4962 264.89 64.1326 264.568 63.6705C264.246 63.2083 264.07 62.6818 264.04 62.0909H265.403C265.456 62.6174 265.695 63.053 266.119 63.3977C266.547 63.7386 267.059 63.9091 267.653 63.9091C268.131 63.9091 268.555 63.7973 268.926 63.5739C269.301 63.3504 269.595 63.0436 269.807 62.6534C270.023 62.2595 270.131 61.8144 270.131 61.3182C270.131 60.8106 270.019 60.358 269.795 59.9602C269.576 59.5587 269.273 59.2424 268.886 59.0114C268.5 58.7803 268.059 58.6629 267.562 58.6591C267.206 58.6553 266.841 58.7102 266.466 58.8239C266.091 58.9337 265.782 59.0758 265.54 59.25L264.222 59.0909L264.926 53.3636H270.972V54.6136H266.108L265.699 58.0455H265.767C266.006 57.8561 266.305 57.6989 266.665 57.5739C267.025 57.4489 267.4 57.3864 267.79 57.3864C268.502 57.3864 269.136 57.5568 269.693 57.8977C270.254 58.2348 270.693 58.697 271.011 59.2841C271.333 59.8712 271.494 60.5417 271.494 61.2955C271.494 62.0379 271.328 62.7008 270.994 63.2841C270.665 63.8636 270.21 64.322 269.631 64.6591C269.051 64.9924 268.392 65.1591 267.653 65.1591ZM276.479 65.1591C275.698 65.1591 275.009 65.0208 274.411 64.7443C273.816 64.464 273.352 64.0795 273.018 63.5909C272.685 63.0985 272.52 62.5379 272.524 61.9091C272.52 61.4167 272.617 60.9621 272.814 60.5455C273.011 60.125 273.28 59.7746 273.621 59.4943C273.965 59.2102 274.35 59.0303 274.774 58.9545V58.8864C274.217 58.7424 273.774 58.4299 273.445 57.9489C273.115 57.464 272.952 56.9129 272.956 56.2955C272.952 55.7045 273.102 55.1761 273.405 54.7102C273.708 54.2443 274.125 53.8769 274.655 53.608C275.189 53.339 275.797 53.2045 276.479 53.2045C277.153 53.2045 277.755 53.339 278.286 53.608C278.816 53.8769 279.232 54.2443 279.536 54.7102C279.842 55.1761 279.998 55.7045 280.001 56.2955C279.998 56.9129 279.829 57.464 279.496 57.9489C279.166 58.4299 278.729 58.7424 278.183 58.8864V58.9545C278.604 59.0303 278.982 59.2102 279.32 59.4943C279.657 59.7746 279.926 60.125 280.126 60.5455C280.327 60.9621 280.429 61.4167 280.433 61.9091C280.429 62.5379 280.259 63.0985 279.922 63.5909C279.589 64.0795 279.125 64.464 278.53 64.7443C277.939 65.0208 277.255 65.1591 276.479 65.1591ZM276.479 63.9091C277.005 63.9091 277.46 63.8239 277.842 63.6534C278.225 63.483 278.52 63.2424 278.729 62.9318C278.937 62.6212 279.043 62.2576 279.047 61.8409C279.043 61.4015 278.929 61.0133 278.706 60.6761C278.482 60.339 278.178 60.0739 277.791 59.8807C277.409 59.6875 276.971 59.5909 276.479 59.5909C275.982 59.5909 275.539 59.6875 275.149 59.8807C274.763 60.0739 274.458 60.339 274.234 60.6761C274.015 61.0133 273.907 61.4015 273.911 61.8409C273.907 62.2576 274.007 62.6212 274.212 62.9318C274.42 63.2424 274.717 63.483 275.104 63.6534C275.49 63.8239 275.948 63.9091 276.479 63.9091ZM276.479 58.3864C276.895 58.3864 277.265 58.303 277.587 58.1364C277.912 57.9697 278.168 57.7367 278.354 57.4375C278.539 57.1383 278.634 56.7879 278.638 56.3864C278.634 55.9924 278.541 55.6496 278.359 55.358C278.178 55.0625 277.926 54.8352 277.604 54.6761C277.282 54.5133 276.907 54.4318 276.479 54.4318C276.043 54.4318 275.662 54.5133 275.337 54.6761C275.011 54.8352 274.759 55.0625 274.581 55.358C274.403 55.6496 274.316 55.9924 274.32 56.3864C274.316 56.7879 274.405 57.1383 274.587 57.4375C274.772 57.7367 275.028 57.9697 275.354 58.1364C275.679 58.303 276.054 58.3864 276.479 58.3864ZM285.338 65.1591C284.558 65.1591 283.868 65.0208 283.27 64.7443C282.675 64.464 282.211 64.0795 281.878 63.5909C281.545 63.0985 281.38 62.5379 281.384 61.9091C281.38 61.4167 281.476 60.9621 281.673 60.5455C281.87 60.125 282.139 59.7746 282.48 59.4943C282.825 59.2102 283.209 59.0303 283.634 58.9545V58.8864C283.077 58.7424 282.634 58.4299 282.304 57.9489C281.974 57.464 281.812 56.9129 281.815 56.2955C281.812 55.7045 281.961 55.1761 282.264 54.7102C282.567 54.2443 282.984 53.8769 283.514 53.608C284.048 53.339 284.656 53.2045 285.338 53.2045C286.012 53.2045 286.615 53.339 287.145 53.608C287.675 53.8769 288.092 54.2443 288.395 54.7102C288.702 55.1761 288.857 55.7045 288.861 56.2955C288.857 56.9129 288.688 57.464 288.355 57.9489C288.026 58.4299 287.588 58.7424 287.043 58.8864V58.9545C287.463 59.0303 287.842 59.2102 288.179 59.4943C288.516 59.7746 288.785 60.125 288.986 60.5455C289.187 60.9621 289.289 61.4167 289.293 61.9091C289.289 62.5379 289.118 63.0985 288.781 63.5909C288.448 64.0795 287.984 64.464 287.389 64.7443C286.798 65.0208 286.115 65.1591 285.338 65.1591ZM285.338 63.9091C285.865 63.9091 286.319 63.8239 286.702 63.6534C287.084 63.483 287.38 63.2424 287.588 62.9318C287.796 62.6212 287.902 62.2576 287.906 61.8409C287.902 61.4015 287.789 61.0133 287.565 60.6761C287.342 60.339 287.037 60.0739 286.651 59.8807C286.268 59.6875 285.83 59.5909 285.338 59.5909C284.842 59.5909 284.399 59.6875 284.009 59.8807C283.622 60.0739 283.317 60.339 283.094 60.6761C282.874 61.0133 282.766 61.4015 282.77 61.8409C282.766 62.2576 282.866 62.6212 283.071 62.9318C283.279 63.2424 283.577 63.483 283.963 63.6534C284.349 63.8239 284.808 63.9091 285.338 63.9091ZM285.338 58.3864C285.755 58.3864 286.124 58.303 286.446 58.1364C286.772 57.9697 287.027 57.7367 287.213 57.4375C287.399 57.1383 287.493 56.7879 287.497 56.3864C287.493 55.9924 287.401 55.6496 287.219 55.358C287.037 55.0625 286.785 54.8352 286.463 54.6761C286.141 54.5133 285.766 54.4318 285.338 54.4318C284.902 54.4318 284.522 54.5133 284.196 54.6761C283.87 54.8352 283.618 55.0625 283.44 55.358C283.262 55.6496 283.175 55.9924 283.179 56.3864C283.175 56.7879 283.264 57.1383 283.446 57.4375C283.632 57.7367 283.887 57.9697 284.213 58.1364C284.539 58.303 284.914 58.3864 285.338 58.3864ZM294.107 65.1591C293.44 65.1591 292.839 65.0265 292.305 64.7614C291.771 64.4962 291.343 64.1326 291.021 63.6705C290.699 63.2083 290.523 62.6818 290.493 62.0909H291.857C291.91 62.6174 292.148 63.053 292.572 63.3977C293 63.7386 293.512 63.9091 294.107 63.9091C294.584 63.9091 295.008 63.7973 295.379 63.5739C295.754 63.3504 296.048 63.0436 296.26 62.6534C296.476 62.2595 296.584 61.8144 296.584 61.3182C296.584 60.8106 296.472 60.358 296.249 59.9602C296.029 59.5587 295.726 59.2424 295.339 59.0114C294.953 58.7803 294.512 58.6629 294.016 58.6591C293.66 58.6553 293.294 58.7102 292.919 58.8239C292.544 58.9337 292.235 59.0758 291.993 59.25L290.675 59.0909L291.379 53.3636H297.425V54.6136H292.561L292.152 58.0455H292.22C292.459 57.8561 292.758 57.6989 293.118 57.5739C293.478 57.4489 293.853 57.3864 294.243 57.3864C294.955 57.3864 295.589 57.5568 296.146 57.8977C296.707 58.2348 297.146 58.697 297.464 59.2841C297.786 59.8712 297.947 60.5417 297.947 61.2955C297.947 62.0379 297.781 62.7008 297.447 63.2841C297.118 63.8636 296.663 64.322 296.084 64.6591C295.504 64.9924 294.845 65.1591 294.107 65.1591Z" fill="black"/>
<rect y="81" width="299" height="5" rx="2.5" fill="#77787D"/>
<path d="M2.81818 106.364V118H1.40909V106.364H2.81818ZM5.80256 112.75V118H4.46165V109.273H5.7571V110.636H5.87074C6.07528 110.193 6.38589 109.837 6.80256 109.568C7.21922 109.295 7.7571 109.159 8.41619 109.159C9.0071 109.159 9.52415 109.28 9.96733 109.523C10.4105 109.761 10.7552 110.125 11.0014 110.614C11.2476 111.098 11.3707 111.712 11.3707 112.455V118H10.0298V112.545C10.0298 111.86 9.8518 111.326 9.49574 110.943C9.13968 110.557 8.65104 110.364 8.02983 110.364C7.6018 110.364 7.21922 110.456 6.8821 110.642C6.54877 110.828 6.28551 111.098 6.09233 111.455C5.89915 111.811 5.80256 112.242 5.80256 112.75ZM16.6165 109.273V110.409H12.0938V109.273H16.6165ZM13.4119 107.182H14.7528V115.5C14.7528 115.879 14.8078 116.163 14.9176 116.352C15.0313 116.538 15.1752 116.663 15.3494 116.727C15.5275 116.788 15.715 116.818 15.9119 116.818C16.0597 116.818 16.1809 116.811 16.2756 116.795C16.3703 116.777 16.446 116.761 16.5028 116.75L16.7756 117.955C16.6847 117.989 16.5578 118.023 16.3949 118.057C16.232 118.095 16.0256 118.114 15.7756 118.114C15.3968 118.114 15.0256 118.032 14.6619 117.869C14.3021 117.706 14.0028 117.458 13.7642 117.125C13.5294 116.792 13.4119 116.371 13.4119 115.864V107.182ZM21.1989 118.182C20.358 118.182 19.6326 117.996 19.0227 117.625C18.4167 117.25 17.9489 116.727 17.6193 116.057C17.2936 115.383 17.1307 114.598 17.1307 113.705C17.1307 112.811 17.2936 112.023 17.6193 111.341C17.9489 110.655 18.4072 110.121 18.9943 109.739C19.5852 109.352 20.2746 109.159 21.0625 109.159C21.517 109.159 21.9659 109.235 22.4091 109.386C22.8523 109.538 23.2557 109.784 23.6193 110.125C23.983 110.462 24.2727 110.909 24.4886 111.466C24.7045 112.023 24.8125 112.708 24.8125 113.523V114.091H18.0852V112.932H23.4489C23.4489 112.439 23.3504 112 23.1534 111.614C22.9602 111.227 22.6837 110.922 22.3239 110.699C21.9678 110.475 21.5473 110.364 21.0625 110.364C20.5284 110.364 20.0663 110.496 19.6761 110.761C19.2898 111.023 18.9924 111.364 18.7841 111.784C18.5758 112.205 18.4716 112.655 18.4716 113.136V113.909C18.4716 114.568 18.5852 115.127 18.8125 115.585C19.0436 116.04 19.3636 116.386 19.7727 116.625C20.1818 116.86 20.6572 116.977 21.1989 116.977C21.5511 116.977 21.8693 116.928 22.1534 116.83C22.4413 116.727 22.6894 116.576 22.8977 116.375C23.1061 116.17 23.267 115.917 23.3807 115.614L24.6761 115.977C24.5398 116.417 24.3106 116.803 23.9886 117.136C23.6667 117.466 23.2689 117.723 22.7955 117.909C22.322 118.091 21.7898 118.182 21.1989 118.182ZM27.1932 106.364V118H25.8523V106.364H27.1932ZM41.6946 110H40.2855C40.2022 109.595 40.0563 109.239 39.848 108.932C39.6435 108.625 39.3935 108.367 39.098 108.159C38.8063 107.947 38.4825 107.788 38.1264 107.682C37.7704 107.576 37.3991 107.523 37.0128 107.523C36.3082 107.523 35.67 107.701 35.098 108.057C34.5298 108.413 34.0772 108.938 33.7401 109.631C33.4067 110.324 33.2401 111.174 33.2401 112.182C33.2401 113.189 33.4067 114.04 33.7401 114.733C34.0772 115.426 34.5298 115.951 35.098 116.307C35.67 116.663 36.3082 116.841 37.0128 116.841C37.3991 116.841 37.7704 116.788 38.1264 116.682C38.4825 116.576 38.8063 116.419 39.098 116.21C39.3935 115.998 39.6435 115.739 39.848 115.432C40.0563 115.121 40.2022 114.765 40.2855 114.364H41.6946C41.5885 114.958 41.3954 115.491 41.1151 115.96C40.8348 116.43 40.4863 116.83 40.0696 117.159C39.6529 117.485 39.1851 117.733 38.6662 117.903C38.151 118.074 37.5999 118.159 37.0128 118.159C36.0204 118.159 35.1378 117.917 34.3651 117.432C33.5923 116.947 32.9844 116.258 32.5412 115.364C32.098 114.47 31.8764 113.409 31.8764 112.182C31.8764 110.955 32.098 109.894 32.5412 109C32.9844 108.106 33.5923 107.417 34.3651 106.932C35.1378 106.447 36.0204 106.205 37.0128 106.205C37.5999 106.205 38.151 106.29 38.6662 106.46C39.1851 106.631 39.6529 106.881 40.0696 107.21C40.4863 107.536 40.8348 107.934 41.1151 108.403C41.3954 108.869 41.5885 109.402 41.6946 110ZM46.3352 118.182C45.5473 118.182 44.8561 117.994 44.2614 117.619C43.6705 117.244 43.2083 116.72 42.875 116.045C42.5455 115.371 42.3807 114.583 42.3807 113.682C42.3807 112.773 42.5455 111.979 42.875 111.301C43.2083 110.623 43.6705 110.097 44.2614 109.722C44.8561 109.347 45.5473 109.159 46.3352 109.159C47.1231 109.159 47.8125 109.347 48.4034 109.722C48.9981 110.097 49.4602 110.623 49.7898 111.301C50.1231 111.979 50.2898 112.773 50.2898 113.682C50.2898 114.583 50.1231 115.371 49.7898 116.045C49.4602 116.72 48.9981 117.244 48.4034 117.619C47.8125 117.994 47.1231 118.182 46.3352 118.182ZM46.3352 116.977C46.9337 116.977 47.4261 116.824 47.8125 116.517C48.1989 116.21 48.4848 115.807 48.6705 115.307C48.8561 114.807 48.9489 114.265 48.9489 113.682C48.9489 113.098 48.8561 112.555 48.6705 112.051C48.4848 111.547 48.1989 111.14 47.8125 110.83C47.4261 110.519 46.9337 110.364 46.3352 110.364C45.7367 110.364 45.2443 110.519 44.858 110.83C44.4716 111.14 44.1856 111.547 44 112.051C43.8144 112.555 43.7216 113.098 43.7216 113.682C43.7216 114.265 43.8144 114.807 44 115.307C44.1856 115.807 44.4716 116.21 44.858 116.517C45.2443 116.824 45.7367 116.977 46.3352 116.977ZM51.3366 118V109.273H52.6321V110.591H52.723C52.8821 110.159 53.17 109.809 53.5866 109.54C54.0033 109.271 54.473 109.136 54.9957 109.136C55.0942 109.136 55.2173 109.138 55.3651 109.142C55.5128 109.146 55.6245 109.152 55.7003 109.159V110.523C55.6548 110.511 55.5507 110.494 55.3878 110.472C55.2287 110.445 55.0601 110.432 54.8821 110.432C54.4579 110.432 54.0791 110.521 53.7457 110.699C53.4162 110.873 53.1548 111.116 52.9616 111.426C52.7723 111.733 52.6776 112.083 52.6776 112.477V118H51.3366ZM59.6832 118.182C58.8423 118.182 58.117 117.996 57.5071 117.625C56.901 117.25 56.4332 116.727 56.1037 116.057C55.7779 115.383 55.6151 114.598 55.6151 113.705C55.6151 112.811 55.7779 112.023 56.1037 111.341C56.4332 110.655 56.8916 110.121 57.4787 109.739C58.0696 109.352 58.759 109.159 59.5469 109.159C60.0014 109.159 60.4503 109.235 60.8935 109.386C61.3366 109.538 61.7401 109.784 62.1037 110.125C62.4673 110.462 62.7571 110.909 62.973 111.466C63.1889 112.023 63.2969 112.708 63.2969 113.523V114.091H56.5696V112.932H61.9332C61.9332 112.439 61.8348 112 61.6378 111.614C61.4446 111.227 61.1681 110.922 60.8082 110.699C60.4522 110.475 60.0317 110.364 59.5469 110.364C59.0128 110.364 58.5507 110.496 58.1605 110.761C57.7741 111.023 57.4768 111.364 57.2685 111.784C57.0601 112.205 56.956 112.655 56.956 113.136V113.909C56.956 114.568 57.0696 115.127 57.2969 115.585C57.5279 116.04 57.848 116.386 58.2571 116.625C58.6662 116.86 59.1416 116.977 59.6832 116.977C60.0355 116.977 60.3537 116.928 60.6378 116.83C60.9257 116.727 61.1738 116.576 61.3821 116.375C61.5904 116.17 61.7514 115.917 61.8651 115.614L63.1605 115.977C63.0241 116.417 62.795 116.803 62.473 117.136C62.151 117.466 61.7533 117.723 61.2798 117.909C60.8063 118.091 60.2741 118.182 59.6832 118.182ZM67.8366 118V109.273H69.1776V118H67.8366ZM68.5185 107.818C68.2571 107.818 68.0317 107.729 67.8423 107.551C67.6567 107.373 67.5639 107.159 67.5639 106.909C67.5639 106.659 67.6567 106.445 67.8423 106.267C68.0317 106.089 68.2571 106 68.5185 106C68.7798 106 69.0033 106.089 69.1889 106.267C69.3783 106.445 69.473 106.659 69.473 106.909C69.473 107.159 69.3783 107.373 69.1889 107.551C69.0033 107.729 68.7798 107.818 68.5185 107.818ZM74.5426 118.159C73.7926 118.159 73.1241 118.03 72.5369 117.773C71.9536 117.515 71.4896 117.157 71.1449 116.699C70.804 116.237 70.6184 115.701 70.5881 115.091H72.0199C72.0502 115.466 72.179 115.79 72.4062 116.062C72.6335 116.331 72.9309 116.54 73.2983 116.688C73.6657 116.835 74.0729 116.909 74.5199 116.909C75.0199 116.909 75.4631 116.822 75.8494 116.648C76.2358 116.473 76.5388 116.231 76.7585 115.92C76.9782 115.61 77.0881 115.25 77.0881 114.841C77.0881 114.413 76.982 114.036 76.7699 113.71C76.5578 113.381 76.2472 113.123 75.8381 112.938C75.429 112.752 74.929 112.659 74.3381 112.659H73.4062V111.409H74.3381C74.8002 111.409 75.2055 111.326 75.554 111.159C75.9063 110.992 76.1809 110.758 76.3778 110.455C76.5786 110.152 76.679 109.795 76.679 109.386C76.679 108.992 76.5919 108.65 76.4176 108.358C76.2434 108.066 75.9972 107.839 75.679 107.676C75.3646 107.513 74.9934 107.432 74.5653 107.432C74.1638 107.432 73.785 107.506 73.429 107.653C73.0767 107.797 72.7888 108.008 72.5653 108.284C72.3419 108.557 72.2206 108.886 72.2017 109.273H70.8381C70.8608 108.663 71.0445 108.129 71.3892 107.67C71.7339 107.208 72.1847 106.848 72.7415 106.591C73.3021 106.333 73.9176 106.205 74.5881 106.205C75.3078 106.205 75.9252 106.35 76.4403 106.642C76.9555 106.93 77.3513 107.311 77.6278 107.784C77.9044 108.258 78.0426 108.769 78.0426 109.318C78.0426 109.973 77.8703 110.532 77.5256 110.994C77.1847 111.456 76.7206 111.777 76.1335 111.955V112.045C76.8684 112.167 77.4422 112.479 77.8551 112.983C78.268 113.483 78.4744 114.102 78.4744 114.841C78.4744 115.473 78.3021 116.042 77.9574 116.545C77.6165 117.045 77.1506 117.439 76.5597 117.727C75.9688 118.015 75.2964 118.159 74.5426 118.159ZM84.821 111.557V112.807H79.7301V111.557H84.821ZM90.2486 106.364V118H88.8395V107.841H88.7713L85.9304 109.727V108.295L88.8395 106.364H90.2486ZM96.3906 118.159C95.5346 118.159 94.8054 117.926 94.2031 117.46C93.6009 116.991 93.1406 116.311 92.8224 115.42C92.5043 114.527 92.3452 113.447 92.3452 112.182C92.3452 110.924 92.5043 109.85 92.8224 108.96C93.1444 108.066 93.6065 107.384 94.2088 106.915C94.8149 106.441 95.5421 106.205 96.3906 106.205C97.2391 106.205 97.9645 106.441 98.5668 106.915C99.1728 107.384 99.6349 108.066 99.9531 108.96C100.275 109.85 100.436 110.924 100.436 112.182C100.436 113.447 100.277 114.527 99.9588 115.42C99.6406 116.311 99.1804 116.991 98.5781 117.46C97.9759 117.926 97.2467 118.159 96.3906 118.159ZM96.3906 116.909C97.2391 116.909 97.8982 116.5 98.3679 115.682C98.8376 114.864 99.0724 113.697 99.0724 112.182C99.0724 111.174 98.9645 110.316 98.7486 109.608C98.5365 108.9 98.2296 108.36 97.8281 107.989C97.4304 107.617 96.9512 107.432 96.3906 107.432C95.5497 107.432 94.8925 107.847 94.419 108.676C93.9455 109.502 93.7088 110.67 93.7088 112.182C93.7088 113.189 93.8149 114.045 94.027 114.75C94.2391 115.455 94.544 115.991 94.9418 116.358C95.3433 116.725 95.8262 116.909 96.3906 116.909ZM105.391 118.159C104.535 118.159 103.805 117.926 103.203 117.46C102.601 116.991 102.141 116.311 101.822 115.42C101.504 114.527 101.345 113.447 101.345 112.182C101.345 110.924 101.504 109.85 101.822 108.96C102.144 108.066 102.607 107.384 103.209 106.915C103.815 106.441 104.542 106.205 105.391 106.205C106.239 106.205 106.964 106.441 107.567 106.915C108.173 107.384 108.635 108.066 108.953 108.96C109.275 109.85 109.436 110.924 109.436 112.182C109.436 113.447 109.277 114.527 108.959 115.42C108.641 116.311 108.18 116.991 107.578 117.46C106.976 117.926 106.247 118.159 105.391 118.159ZM105.391 116.909C106.239 116.909 106.898 116.5 107.368 115.682C107.838 114.864 108.072 113.697 108.072 112.182C108.072 111.174 107.964 110.316 107.749 109.608C107.536 108.9 107.23 108.36 106.828 107.989C106.43 107.617 105.951 107.432 105.391 107.432C104.55 107.432 103.893 107.847 103.419 108.676C102.946 109.502 102.709 110.67 102.709 112.182C102.709 113.189 102.815 114.045 103.027 114.75C103.239 115.455 103.544 115.991 103.942 116.358C104.343 116.725 104.826 116.909 105.391 116.909ZM114.232 118.159C113.565 118.159 112.964 118.027 112.43 117.761C111.896 117.496 111.468 117.133 111.146 116.67C110.824 116.208 110.648 115.682 110.618 115.091H111.982C112.035 115.617 112.273 116.053 112.697 116.398C113.125 116.739 113.637 116.909 114.232 116.909C114.709 116.909 115.133 116.797 115.504 116.574C115.879 116.35 116.173 116.044 116.385 115.653C116.601 115.259 116.709 114.814 116.709 114.318C116.709 113.811 116.597 113.358 116.374 112.96C116.154 112.559 115.851 112.242 115.464 112.011C115.078 111.78 114.637 111.663 114.141 111.659C113.785 111.655 113.419 111.71 113.044 111.824C112.669 111.934 112.36 112.076 112.118 112.25L110.8 112.091L111.504 106.364H117.55V107.614H112.686L112.277 111.045H112.345C112.584 110.856 112.883 110.699 113.243 110.574C113.603 110.449 113.978 110.386 114.368 110.386C115.08 110.386 115.714 110.557 116.271 110.898C116.832 111.235 117.271 111.697 117.589 112.284C117.911 112.871 118.072 113.542 118.072 114.295C118.072 115.038 117.906 115.701 117.572 116.284C117.243 116.864 116.788 117.322 116.209 117.659C115.629 117.992 114.97 118.159 114.232 118.159ZM127.489 110C127.364 109.617 127.199 109.275 126.994 108.972C126.794 108.665 126.553 108.403 126.273 108.188C125.996 107.972 125.682 107.807 125.33 107.693C124.977 107.58 124.591 107.523 124.17 107.523C123.481 107.523 122.854 107.701 122.29 108.057C121.725 108.413 121.277 108.938 120.943 109.631C120.61 110.324 120.443 111.174 120.443 112.182C120.443 113.189 120.612 114.04 120.949 114.733C121.286 115.426 121.742 115.951 122.318 116.307C122.894 116.663 123.542 116.841 124.261 116.841C124.928 116.841 125.515 116.699 126.023 116.415C126.534 116.127 126.932 115.722 127.216 115.199C127.504 114.672 127.648 114.053 127.648 113.341L128.08 113.432H124.58V112.182H129.011V113.432C129.011 114.39 128.807 115.223 128.398 115.932C127.992 116.64 127.432 117.189 126.716 117.58C126.004 117.966 125.186 118.159 124.261 118.159C123.231 118.159 122.326 117.917 121.545 117.432C120.769 116.947 120.163 116.258 119.727 115.364C119.295 114.47 119.08 113.409 119.08 112.182C119.08 111.261 119.203 110.434 119.449 109.699C119.699 108.96 120.051 108.331 120.506 107.812C120.96 107.294 121.498 106.896 122.119 106.619C122.741 106.343 123.424 106.205 124.17 106.205C124.784 106.205 125.356 106.297 125.886 106.483C126.42 106.665 126.896 106.924 127.312 107.261C127.733 107.595 128.083 107.994 128.364 108.46C128.644 108.922 128.837 109.436 128.943 110H127.489ZM134.311 106.364V118H132.902V107.841H132.834L129.993 109.727V108.295L132.902 106.364H134.311Z" fill="black"/>
<path d="M241.307 115.614V114.455L246.42 106.364H247.261V108.159H246.693L242.83 114.273V114.364H249.716V115.614H241.307ZM246.784 118V115.261V114.722V106.364H248.125V118H246.784ZM254.55 106.205C255.027 106.208 255.504 106.299 255.982 106.477C256.459 106.655 256.894 106.951 257.288 107.364C257.682 107.773 257.999 108.331 258.237 109.04C258.476 109.748 258.595 110.636 258.595 111.705C258.595 112.739 258.497 113.657 258.3 114.46C258.107 115.259 257.826 115.934 257.459 116.483C257.095 117.032 256.652 117.449 256.129 117.733C255.61 118.017 255.023 118.159 254.368 118.159C253.716 118.159 253.135 118.03 252.624 117.773C252.116 117.511 251.699 117.15 251.374 116.688C251.052 116.222 250.845 115.682 250.754 115.068H252.141C252.266 115.602 252.514 116.044 252.885 116.392C253.26 116.737 253.754 116.909 254.368 116.909C255.266 116.909 255.974 116.517 256.493 115.733C257.016 114.949 257.277 113.841 257.277 112.409H257.186C256.974 112.727 256.722 113.002 256.43 113.233C256.139 113.464 255.815 113.642 255.459 113.767C255.103 113.892 254.724 113.955 254.322 113.955C253.656 113.955 253.044 113.79 252.487 113.46C251.934 113.127 251.491 112.67 251.158 112.091C250.828 111.508 250.663 110.841 250.663 110.091C250.663 109.379 250.822 108.727 251.141 108.136C251.463 107.542 251.913 107.068 252.493 106.716C253.076 106.364 253.762 106.193 254.55 106.205ZM254.55 107.455C254.072 107.455 253.643 107.574 253.26 107.812C252.881 108.047 252.58 108.366 252.357 108.767C252.137 109.165 252.027 109.606 252.027 110.091C252.027 110.576 252.133 111.017 252.345 111.415C252.561 111.809 252.855 112.123 253.226 112.358C253.601 112.589 254.027 112.705 254.504 112.705C254.864 112.705 255.199 112.634 255.51 112.494C255.821 112.35 256.091 112.155 256.322 111.909C256.557 111.659 256.741 111.377 256.874 111.062C257.006 110.744 257.072 110.413 257.072 110.068C257.072 109.614 256.963 109.187 256.743 108.79C256.527 108.392 256.228 108.07 255.845 107.824C255.466 107.578 255.035 107.455 254.55 107.455ZM263.761 118.159C263.011 118.159 262.343 118.03 261.756 117.773C261.172 117.515 260.708 117.157 260.364 116.699C260.023 116.237 259.837 115.701 259.807 115.091H261.239C261.269 115.466 261.398 115.79 261.625 116.062C261.852 116.331 262.15 116.54 262.517 116.688C262.884 116.835 263.292 116.909 263.739 116.909C264.239 116.909 264.682 116.822 265.068 116.648C265.455 116.473 265.758 116.231 265.977 115.92C266.197 115.61 266.307 115.25 266.307 114.841C266.307 114.413 266.201 114.036 265.989 113.71C265.777 113.381 265.466 113.123 265.057 112.938C264.648 112.752 264.148 112.659 263.557 112.659H262.625V111.409H263.557C264.019 111.409 264.424 111.326 264.773 111.159C265.125 110.992 265.4 110.758 265.597 110.455C265.797 110.152 265.898 109.795 265.898 109.386C265.898 108.992 265.811 108.65 265.636 108.358C265.462 108.066 265.216 107.839 264.898 107.676C264.583 107.513 264.212 107.432 263.784 107.432C263.383 107.432 263.004 107.506 262.648 107.653C262.295 107.797 262.008 108.008 261.784 108.284C261.561 108.557 261.439 108.886 261.42 109.273H260.057C260.08 108.663 260.263 108.129 260.608 107.67C260.953 107.208 261.403 106.848 261.96 106.591C262.521 106.333 263.136 106.205 263.807 106.205C264.527 106.205 265.144 106.35 265.659 106.642C266.174 106.93 266.57 107.311 266.847 107.784C267.123 108.258 267.261 108.769 267.261 109.318C267.261 109.973 267.089 110.532 266.744 110.994C266.403 111.456 265.939 111.777 265.352 111.955V112.045C266.087 112.167 266.661 112.479 267.074 112.983C267.487 113.483 267.693 114.102 267.693 114.841C267.693 115.473 267.521 116.042 267.176 116.545C266.835 117.045 266.369 117.439 265.778 117.727C265.188 118.015 264.515 118.159 263.761 118.159ZM272.949 118.159C272.199 118.159 271.53 118.03 270.943 117.773C270.36 117.515 269.896 117.157 269.551 116.699C269.21 116.237 269.025 115.701 268.994 115.091H270.426C270.456 115.466 270.585 115.79 270.812 116.062C271.04 116.331 271.337 116.54 271.705 116.688C272.072 116.835 272.479 116.909 272.926 116.909C273.426 116.909 273.869 116.822 274.256 116.648C274.642 116.473 274.945 116.231 275.165 115.92C275.384 115.61 275.494 115.25 275.494 114.841C275.494 114.413 275.388 114.036 275.176 113.71C274.964 113.381 274.653 113.123 274.244 112.938C273.835 112.752 273.335 112.659 272.744 112.659H271.812V111.409H272.744C273.206 111.409 273.612 111.326 273.96 111.159C274.313 110.992 274.587 110.758 274.784 110.455C274.985 110.152 275.085 109.795 275.085 109.386C275.085 108.992 274.998 108.65 274.824 108.358C274.65 108.066 274.403 107.839 274.085 107.676C273.771 107.513 273.4 107.432 272.972 107.432C272.57 107.432 272.191 107.506 271.835 107.653C271.483 107.797 271.195 108.008 270.972 108.284C270.748 108.557 270.627 108.886 270.608 109.273H269.244C269.267 108.663 269.451 108.129 269.795 107.67C270.14 107.208 270.591 106.848 271.148 106.591C271.708 106.333 272.324 106.205 272.994 106.205C273.714 106.205 274.331 106.35 274.847 106.642C275.362 106.93 275.758 107.311 276.034 107.784C276.311 108.258 276.449 108.769 276.449 109.318C276.449 109.973 276.277 110.532 275.932 110.994C275.591 111.456 275.127 111.777 274.54 111.955V112.045C275.275 112.167 275.848 112.479 276.261 112.983C276.674 113.483 276.881 114.102 276.881 114.841C276.881 115.473 276.708 116.042 276.364 116.545C276.023 117.045 275.557 117.439 274.966 117.727C274.375 118.015 273.703 118.159 272.949 118.159Z" fill="black"/>
<rect y="134" width="278" height="5" rx="2.5" fill="#77787D"/>
<path d="M288.86 126.24L288.04 124.24L292.74 121.96H294.26V136H291.94V124.82L288.86 126.24ZM296.689 129.38C296.689 127.167 297.276 125.353 298.449 123.94C299.623 122.527 301.269 121.82 303.389 121.82C305.296 121.82 306.816 122.427 307.949 123.64L306.609 125.34C305.689 124.553 304.603 124.16 303.349 124.16C302.043 124.16 301.003 124.573 300.229 125.4C299.469 126.227 299.089 127.287 299.089 128.58C299.529 127.927 300.143 127.407 300.929 127.02C301.729 126.633 302.529 126.44 303.329 126.44C304.903 126.44 306.183 126.847 307.169 127.66C308.169 128.46 308.669 129.627 308.669 131.16C308.669 132.707 308.123 133.933 307.029 134.84C305.949 135.733 304.629 136.18 303.069 136.18C301.029 136.18 299.456 135.553 298.349 134.3C297.243 133.047 296.689 131.407 296.689 129.38ZM299.469 130.9C299.629 131.847 300.043 132.58 300.709 133.1C301.376 133.607 302.196 133.86 303.169 133.86C303.983 133.86 304.689 133.627 305.289 133.16C305.889 132.693 306.189 132.067 306.189 131.28C306.189 130.373 305.903 129.72 305.329 129.32C304.756 128.907 304.003 128.7 303.069 128.7C302.416 128.7 301.696 128.92 300.909 129.36C300.123 129.8 299.643 130.313 299.469 130.9ZM314.15 136.4L312.35 135.36L322.63 121.44L324.35 122.68L314.15 136.4ZM310.01 125.5C310.01 124.433 310.383 123.573 311.13 122.92C311.876 122.267 312.783 121.94 313.85 121.94C314.21 121.94 314.623 121.993 315.09 122.1C315.876 122.327 316.503 122.747 316.97 123.36C317.436 123.973 317.67 124.687 317.67 125.5C317.67 126.567 317.296 127.427 316.55 128.08C315.816 128.72 314.916 129.04 313.85 129.04C312.783 129.04 311.876 128.713 311.13 128.06C310.383 127.393 310.01 126.54 310.01 125.5ZM312.73 124.36C312.423 124.68 312.27 125.06 312.27 125.5C312.27 125.94 312.423 126.327 312.73 126.66C313.036 126.98 313.41 127.14 313.85 127.14C314.316 127.14 314.69 126.987 314.97 126.68C315.263 126.36 315.41 125.967 315.41 125.5C315.41 125.06 315.256 124.68 314.95 124.36C314.656 124.04 314.29 123.88 313.85 123.88C313.41 123.88 313.036 124.04 312.73 124.36ZM320.13 135.1C319.383 134.433 319.01 133.573 319.01 132.52C319.01 131.467 319.383 130.613 320.13 129.96C320.89 129.307 321.796 128.98 322.85 128.98C323.21 128.98 323.623 129.033 324.09 129.14C324.876 129.367 325.503 129.787 325.97 130.4C326.436 131 326.67 131.707 326.67 132.52C326.67 133.56 326.296 134.413 325.55 135.08C324.803 135.747 323.903 136.08 322.85 136.08C321.783 136.08 320.876 135.753 320.13 135.1ZM321.27 132.52C321.27 132.96 321.423 133.34 321.73 133.66C322.036 133.98 322.41 134.14 322.85 134.14C323.29 134.14 323.656 133.98 323.95 133.66C324.256 133.34 324.41 132.96 324.41 132.52C324.41 132.067 324.263 131.68 323.97 131.36C323.676 131.04 323.303 130.88 322.85 130.88C322.396 130.88 322.016 131.04 321.71 131.36C321.416 131.68 321.27 132.067 321.27 132.52Z" fill="#01BEFB"/>
<path d="M334 127.193L338.395 119L343 127.193H340.04C339.774 131.603 339.451 136.908 334 139C335.021 137.746 337.434 133.661 337.057 127.193H334Z" fill="#01BEFB"/>
<path d="M1.88636 171H0.409091L4.68182 159.364H6.13636L10.4091 171H8.93182L5.45455 161.205H5.36364L1.88636 171ZM2.43182 166.455H8.38636V167.705H2.43182V166.455ZM11.2216 159.364H12.9034L16.858 169.023H16.9943L20.9489 159.364H22.6307V171H21.3125V162.159H21.1989L17.5625 171H16.2898L12.6534 162.159H12.5398V171H11.2216V159.364ZM28.0469 171H24.456V159.364H28.206C29.3348 159.364 30.3007 159.597 31.1037 160.062C31.9067 160.525 32.5223 161.189 32.9503 162.057C33.3783 162.92 33.5923 163.955 33.5923 165.159C33.5923 166.371 33.3764 167.415 32.9446 168.29C32.5128 169.161 31.884 169.831 31.0582 170.301C30.2325 170.767 29.2287 171 28.0469 171ZM25.8651 169.75H27.956C28.9181 169.75 29.7154 169.564 30.348 169.193C30.9806 168.822 31.4522 168.294 31.7628 167.608C32.0734 166.922 32.2287 166.106 32.2287 165.159C32.2287 164.22 32.0753 163.411 31.7685 162.733C31.4616 162.051 31.0033 161.528 30.3935 161.165C29.7836 160.797 29.0241 160.614 28.1151 160.614H25.8651V169.75ZM38.456 171V159.364H42.3878C43.2969 159.364 44.0431 159.519 44.6264 159.83C45.2098 160.136 45.6416 160.559 45.9219 161.097C46.2022 161.634 46.3423 162.246 46.3423 162.932C46.3423 163.617 46.2022 164.225 45.9219 164.756C45.6416 165.286 45.2116 165.703 44.6321 166.006C44.0526 166.305 43.312 166.455 42.4105 166.455H39.2287V165.182H42.3651C42.9863 165.182 43.4863 165.091 43.8651 164.909C44.2476 164.727 44.5241 164.47 44.6946 164.136C44.8688 163.799 44.956 163.398 44.956 162.932C44.956 162.466 44.8688 162.059 44.6946 161.71C44.5204 161.362 44.242 161.093 43.8594 160.903C43.4768 160.71 42.9711 160.614 42.3423 160.614H39.8651V171H38.456ZM43.9332 165.773L46.7969 171H45.1605L42.3423 165.773H43.9332ZM48.3722 174.273C48.1449 174.273 47.9422 174.254 47.7642 174.216C47.5862 174.182 47.4631 174.148 47.3949 174.114L47.7358 172.932C48.0616 173.015 48.3494 173.045 48.5994 173.023C48.8494 173 49.071 172.888 49.2642 172.688C49.4612 172.491 49.6411 172.17 49.804 171.727L50.054 171.045L46.8267 162.273H48.2812L50.6903 169.227H50.7812L53.1903 162.273H54.6449L50.9403 172.273C50.7737 172.723 50.5672 173.097 50.321 173.392C50.0748 173.691 49.7888 173.913 49.4631 174.057C49.1411 174.201 48.7775 174.273 48.3722 174.273ZM55.1648 171V169.977L60.1193 163.614V163.523H55.3239V162.273H61.8466V163.341L57.0284 169.659V169.75H62.0057V171H55.1648ZM66.4801 171.182C65.6392 171.182 64.9138 170.996 64.304 170.625C63.6979 170.25 63.2301 169.727 62.9006 169.057C62.5748 168.383 62.4119 167.598 62.4119 166.705C62.4119 165.811 62.5748 165.023 62.9006 164.341C63.2301 163.655 63.6884 163.121 64.2756 162.739C64.8665 162.352 65.5559 162.159 66.3438 162.159C66.7983 162.159 67.2472 162.235 67.6903 162.386C68.1335 162.538 68.5369 162.784 68.9006 163.125C69.2642 163.462 69.554 163.909 69.7699 164.466C69.9858 165.023 70.0938 165.708 70.0938 166.523V167.091H63.3665V165.932H68.7301C68.7301 165.439 68.6316 165 68.4347 164.614C68.2415 164.227 67.965 163.922 67.6051 163.699C67.2491 163.475 66.8286 163.364 66.3438 163.364C65.8097 163.364 65.3475 163.496 64.9574 163.761C64.571 164.023 64.2737 164.364 64.0653 164.784C63.857 165.205 63.7528 165.655 63.7528 166.136V166.909C63.7528 167.568 63.8665 168.127 64.0938 168.585C64.3248 169.04 64.6449 169.386 65.054 169.625C65.4631 169.86 65.9384 169.977 66.4801 169.977C66.8324 169.977 67.1506 169.928 67.4347 169.83C67.7225 169.727 67.9706 169.576 68.179 169.375C68.3873 169.17 68.5483 168.917 68.6619 168.614L69.9574 168.977C69.821 169.417 69.5919 169.803 69.2699 170.136C68.9479 170.466 68.5502 170.723 68.0767 170.909C67.6032 171.091 67.071 171.182 66.4801 171.182ZM72.4744 165.75V171H71.1335V162.273H72.429V163.636H72.5426C72.7472 163.193 73.0578 162.837 73.4744 162.568C73.8911 162.295 74.429 162.159 75.0881 162.159C75.679 162.159 76.196 162.28 76.6392 162.523C77.0824 162.761 77.4271 163.125 77.6733 163.614C77.9195 164.098 78.0426 164.712 78.0426 165.455V171H76.7017V165.545C76.7017 164.86 76.5237 164.326 76.1676 163.943C75.8116 163.557 75.3229 163.364 74.7017 163.364C74.2737 163.364 73.8911 163.456 73.554 163.642C73.2206 163.828 72.9574 164.098 72.7642 164.455C72.571 164.811 72.4744 165.242 72.4744 165.75ZM86.902 171.159C86.152 171.159 85.4834 171.03 84.8963 170.773C84.313 170.515 83.849 170.157 83.5043 169.699C83.1634 169.237 82.9777 168.701 82.9474 168.091H84.3793C84.4096 168.466 84.5384 168.79 84.7656 169.062C84.9929 169.331 85.2902 169.54 85.6577 169.688C86.0251 169.835 86.4323 169.909 86.8793 169.909C87.3793 169.909 87.8224 169.822 88.2088 169.648C88.5952 169.473 88.8982 169.231 89.1179 168.92C89.3376 168.61 89.4474 168.25 89.4474 167.841C89.4474 167.413 89.3414 167.036 89.1293 166.71C88.9171 166.381 88.6065 166.123 88.1974 165.938C87.7884 165.752 87.2884 165.659 86.6974 165.659H85.7656V164.409H86.6974C87.1596 164.409 87.5649 164.326 87.9134 164.159C88.2656 163.992 88.5402 163.758 88.7372 163.455C88.938 163.152 89.0384 162.795 89.0384 162.386C89.0384 161.992 88.9512 161.65 88.777 161.358C88.6027 161.066 88.3565 160.839 88.0384 160.676C87.724 160.513 87.3527 160.432 86.9247 160.432C86.5232 160.432 86.1444 160.506 85.7884 160.653C85.4361 160.797 85.1482 161.008 84.9247 161.284C84.7012 161.557 84.58 161.886 84.5611 162.273H83.1974C83.2202 161.663 83.4039 161.129 83.7486 160.67C84.0933 160.208 84.544 159.848 85.1009 159.591C85.6615 159.333 86.277 159.205 86.9474 159.205C87.6671 159.205 88.2846 159.35 88.7997 159.642C89.3149 159.93 89.7107 160.311 89.9872 160.784C90.2637 161.258 90.402 161.769 90.402 162.318C90.402 162.973 90.2296 163.532 89.8849 163.994C89.544 164.456 89.08 164.777 88.4929 164.955V165.045C89.2277 165.167 89.8016 165.479 90.2145 165.983C90.6274 166.483 90.8338 167.102 90.8338 167.841C90.8338 168.473 90.6615 169.042 90.3168 169.545C89.9759 170.045 89.5099 170.439 88.919 170.727C88.3281 171.015 87.6558 171.159 86.902 171.159ZM99.5895 171.159C98.8395 171.159 98.1709 171.03 97.5838 170.773C97.0005 170.515 96.5365 170.157 96.1918 169.699C95.8509 169.237 95.6652 168.701 95.6349 168.091H97.0668C97.0971 168.466 97.2259 168.79 97.4531 169.062C97.6804 169.331 97.9777 169.54 98.3452 169.688C98.7126 169.835 99.1198 169.909 99.5668 169.909C100.067 169.909 100.51 169.822 100.896 169.648C101.283 169.473 101.586 169.231 101.805 168.92C102.025 168.61 102.135 168.25 102.135 167.841C102.135 167.413 102.029 167.036 101.817 166.71C101.605 166.381 101.294 166.123 100.885 165.938C100.476 165.752 99.9759 165.659 99.3849 165.659H98.4531V164.409H99.3849C99.8471 164.409 100.252 164.326 100.601 164.159C100.953 163.992 101.228 163.758 101.425 163.455C101.625 163.152 101.726 162.795 101.726 162.386C101.726 161.992 101.639 161.65 101.464 161.358C101.29 161.066 101.044 160.839 100.726 160.676C100.411 160.513 100.04 160.432 99.6122 160.432C99.2107 160.432 98.8319 160.506 98.4759 160.653C98.1236 160.797 97.8357 161.008 97.6122 161.284C97.3887 161.557 97.2675 161.886 97.2486 162.273H95.8849C95.9077 161.663 96.0914 161.129 96.4361 160.67C96.7808 160.208 97.2315 159.848 97.7884 159.591C98.349 159.333 98.9645 159.205 99.6349 159.205C100.355 159.205 100.972 159.35 101.487 159.642C102.002 159.93 102.398 160.311 102.675 160.784C102.951 161.258 103.089 161.769 103.089 162.318C103.089 162.973 102.917 163.532 102.572 163.994C102.232 164.456 101.768 164.777 101.18 164.955V165.045C101.915 165.167 102.489 165.479 102.902 165.983C103.315 166.483 103.521 167.102 103.521 167.841C103.521 168.473 103.349 169.042 103.004 169.545C102.663 170.045 102.197 170.439 101.607 170.727C101.016 171.015 100.343 171.159 99.5895 171.159ZM104.845 171V169.977L108.686 165.773C109.137 165.28 109.508 164.852 109.8 164.489C110.091 164.121 110.307 163.777 110.447 163.455C110.591 163.129 110.663 162.788 110.663 162.432C110.663 162.023 110.565 161.669 110.368 161.369C110.175 161.07 109.91 160.839 109.572 160.676C109.235 160.513 108.857 160.432 108.436 160.432C107.989 160.432 107.599 160.525 107.266 160.71C106.936 160.892 106.68 161.148 106.499 161.477C106.321 161.807 106.232 162.193 106.232 162.636H104.891C104.891 161.955 105.048 161.356 105.362 160.841C105.677 160.326 106.105 159.924 106.646 159.636C107.192 159.348 107.804 159.205 108.482 159.205C109.163 159.205 109.768 159.348 110.294 159.636C110.821 159.924 111.233 160.312 111.533 160.801C111.832 161.29 111.982 161.833 111.982 162.432C111.982 162.86 111.904 163.278 111.749 163.688C111.597 164.093 111.332 164.545 110.953 165.045C110.578 165.542 110.057 166.148 109.391 166.864L106.777 169.659V169.75H112.186V171H104.845ZM117.328 171.159C116.472 171.159 115.743 170.926 115.141 170.46C114.538 169.991 114.078 169.311 113.76 168.42C113.442 167.527 113.283 166.447 113.283 165.182C113.283 163.924 113.442 162.85 113.76 161.96C114.082 161.066 114.544 160.384 115.146 159.915C115.752 159.441 116.48 159.205 117.328 159.205C118.177 159.205 118.902 159.441 119.504 159.915C120.11 160.384 120.572 161.066 120.891 161.96C121.213 162.85 121.374 163.924 121.374 165.182C121.374 166.447 121.214 167.527 120.896 168.42C120.578 169.311 120.118 169.991 119.516 170.46C118.913 170.926 118.184 171.159 117.328 171.159ZM117.328 169.909C118.177 169.909 118.836 169.5 119.305 168.682C119.775 167.864 120.01 166.697 120.01 165.182C120.01 164.174 119.902 163.316 119.686 162.608C119.474 161.9 119.167 161.36 118.766 160.989C118.368 160.617 117.889 160.432 117.328 160.432C116.487 160.432 115.83 160.847 115.357 161.676C114.883 162.502 114.646 163.67 114.646 165.182C114.646 166.189 114.752 167.045 114.964 167.75C115.177 168.455 115.482 168.991 115.879 169.358C116.281 169.725 116.764 169.909 117.328 169.909ZM126.328 171.159C125.472 171.159 124.743 170.926 124.141 170.46C123.538 169.991 123.078 169.311 122.76 168.42C122.442 167.527 122.283 166.447 122.283 165.182C122.283 163.924 122.442 162.85 122.76 161.96C123.082 161.066 123.544 160.384 124.146 159.915C124.752 159.441 125.48 159.205 126.328 159.205C127.177 159.205 127.902 159.441 128.504 159.915C129.11 160.384 129.572 161.066 129.891 161.96C130.213 162.85 130.374 163.924 130.374 165.182C130.374 166.447 130.214 167.527 129.896 168.42C129.578 169.311 129.118 169.991 128.516 170.46C127.913 170.926 127.184 171.159 126.328 171.159ZM126.328 169.909C127.177 169.909 127.836 169.5 128.305 168.682C128.775 167.864 129.01 166.697 129.01 165.182C129.01 164.174 128.902 163.316 128.686 162.608C128.474 161.9 128.167 161.36 127.766 160.989C127.368 160.617 126.889 160.432 126.328 160.432C125.487 160.432 124.83 160.847 124.357 161.676C123.883 162.502 123.646 163.67 123.646 165.182C123.646 166.189 123.752 167.045 123.964 167.75C124.177 168.455 124.482 168.991 124.879 169.358C125.281 169.725 125.764 169.909 126.328 169.909ZM139.374 159.364H140.783V167.068C140.783 167.864 140.595 168.574 140.22 169.199C139.849 169.82 139.324 170.311 138.646 170.67C137.968 171.027 137.173 171.205 136.26 171.205C135.347 171.205 134.552 171.027 133.874 170.67C133.196 170.311 132.669 169.82 132.294 169.199C131.923 168.574 131.737 167.864 131.737 167.068V159.364H133.146V166.955C133.146 167.523 133.271 168.028 133.521 168.472C133.771 168.911 134.127 169.258 134.589 169.511C135.055 169.761 135.612 169.886 136.26 169.886C136.908 169.886 137.464 169.761 137.93 169.511C138.396 169.258 138.752 168.911 138.999 168.472C139.249 168.028 139.374 167.523 139.374 166.955V159.364Z" fill="black"/>
<path d="M216.668 171.159C215.918 171.159 215.249 171.03 214.662 170.773C214.079 170.515 213.615 170.157 213.27 169.699C212.929 169.237 212.743 168.701 212.713 168.091H214.145C214.175 168.466 214.304 168.79 214.531 169.062C214.759 169.331 215.056 169.54 215.423 169.688C215.791 169.835 216.198 169.909 216.645 169.909C217.145 169.909 217.588 169.822 217.974 169.648C218.361 169.473 218.664 169.231 218.884 168.92C219.103 168.61 219.213 168.25 219.213 167.841C219.213 167.413 219.107 167.036 218.895 166.71C218.683 166.381 218.372 166.123 217.963 165.938C217.554 165.752 217.054 165.659 216.463 165.659H215.531V164.409H216.463C216.925 164.409 217.33 164.326 217.679 164.159C218.031 163.992 218.306 163.758 218.503 163.455C218.704 163.152 218.804 162.795 218.804 162.386C218.804 161.992 218.717 161.65 218.543 161.358C218.368 161.066 218.122 160.839 217.804 160.676C217.49 160.513 217.118 160.432 216.69 160.432C216.289 160.432 215.91 160.506 215.554 160.653C215.202 160.797 214.914 161.008 214.69 161.284C214.467 161.557 214.346 161.886 214.327 162.273H212.963C212.986 161.663 213.17 161.129 213.514 160.67C213.859 160.208 214.31 159.848 214.866 159.591C215.427 159.333 216.043 159.205 216.713 159.205C217.433 159.205 218.05 159.35 218.565 159.642C219.08 159.93 219.476 160.311 219.753 160.784C220.029 161.258 220.168 161.769 220.168 162.318C220.168 162.973 219.995 163.532 219.651 163.994C219.31 164.456 218.846 164.777 218.259 164.955V165.045C218.993 165.167 219.567 165.479 219.98 165.983C220.393 166.483 220.599 167.102 220.599 167.841C220.599 168.473 220.427 169.042 220.082 169.545C219.741 170.045 219.276 170.439 218.685 170.727C218.094 171.015 217.421 171.159 216.668 171.159ZM225.651 171.159C224.87 171.159 224.181 171.021 223.582 170.744C222.988 170.464 222.524 170.08 222.19 169.591C221.857 169.098 221.692 168.538 221.696 167.909C221.692 167.417 221.789 166.962 221.986 166.545C222.183 166.125 222.452 165.775 222.793 165.494C223.137 165.21 223.522 165.03 223.946 164.955V164.886C223.389 164.742 222.946 164.43 222.616 163.949C222.287 163.464 222.124 162.913 222.128 162.295C222.124 161.705 222.274 161.176 222.577 160.71C222.88 160.244 223.296 159.877 223.827 159.608C224.361 159.339 224.969 159.205 225.651 159.205C226.325 159.205 226.927 159.339 227.457 159.608C227.988 159.877 228.404 160.244 228.707 160.71C229.014 161.176 229.17 161.705 229.173 162.295C229.17 162.913 229.001 163.464 228.668 163.949C228.338 164.43 227.901 164.742 227.355 164.886V164.955C227.776 165.03 228.154 165.21 228.491 165.494C228.829 165.775 229.098 166.125 229.298 166.545C229.499 166.962 229.601 167.417 229.605 167.909C229.601 168.538 229.431 169.098 229.094 169.591C228.76 170.08 228.296 170.464 227.702 170.744C227.111 171.021 226.427 171.159 225.651 171.159ZM225.651 169.909C226.177 169.909 226.632 169.824 227.014 169.653C227.397 169.483 227.692 169.242 227.901 168.932C228.109 168.621 228.215 168.258 228.219 167.841C228.215 167.402 228.101 167.013 227.878 166.676C227.654 166.339 227.349 166.074 226.963 165.881C226.58 165.687 226.143 165.591 225.651 165.591C225.154 165.591 224.711 165.687 224.321 165.881C223.935 166.074 223.63 166.339 223.406 166.676C223.187 167.013 223.079 167.402 223.082 167.841C223.079 168.258 223.179 168.621 223.384 168.932C223.592 169.242 223.889 169.483 224.276 169.653C224.662 169.824 225.12 169.909 225.651 169.909ZM225.651 164.386C226.067 164.386 226.437 164.303 226.759 164.136C227.084 163.97 227.34 163.737 227.526 163.438C227.711 163.138 227.806 162.788 227.81 162.386C227.806 161.992 227.713 161.65 227.531 161.358C227.349 161.062 227.098 160.835 226.776 160.676C226.454 160.513 226.079 160.432 225.651 160.432C225.215 160.432 224.834 160.513 224.509 160.676C224.183 160.835 223.931 161.062 223.753 161.358C223.575 161.65 223.488 161.992 223.491 162.386C223.488 162.788 223.577 163.138 223.759 163.438C223.944 163.737 224.2 163.97 224.526 164.136C224.851 164.303 225.226 164.386 225.651 164.386ZM234.874 159.364V171H233.464V160.841H233.396L230.555 162.727V161.295L233.464 159.364H234.874ZM241.084 171.159C240.607 171.152 240.129 171.061 239.652 170.886C239.175 170.712 238.739 170.419 238.345 170.006C237.951 169.589 237.635 169.027 237.396 168.318C237.158 167.606 237.038 166.712 237.038 165.636C237.038 164.606 237.135 163.693 237.328 162.898C237.521 162.098 237.802 161.426 238.169 160.881C238.536 160.331 238.98 159.915 239.499 159.631C240.021 159.347 240.61 159.205 241.266 159.205C241.917 159.205 242.497 159.335 243.004 159.597C243.516 159.854 243.932 160.214 244.254 160.676C244.576 161.138 244.785 161.67 244.879 162.273H243.493C243.364 161.75 243.114 161.316 242.743 160.972C242.372 160.627 241.879 160.455 241.266 160.455C240.364 160.455 239.654 160.847 239.135 161.631C238.62 162.415 238.36 163.515 238.357 164.932H238.447C238.66 164.61 238.911 164.335 239.203 164.108C239.499 163.877 239.824 163.699 240.18 163.574C240.536 163.449 240.913 163.386 241.311 163.386C241.978 163.386 242.588 163.553 243.141 163.886C243.694 164.216 244.137 164.672 244.47 165.256C244.804 165.835 244.97 166.5 244.97 167.25C244.97 167.97 244.809 168.629 244.487 169.227C244.165 169.822 243.713 170.295 243.129 170.648C242.55 170.996 241.868 171.167 241.084 171.159ZM241.084 169.909C241.561 169.909 241.989 169.79 242.368 169.551C242.75 169.312 243.052 168.992 243.271 168.591C243.495 168.189 243.607 167.742 243.607 167.25C243.607 166.769 243.499 166.331 243.283 165.938C243.071 165.54 242.777 165.223 242.402 164.989C242.031 164.754 241.607 164.636 241.129 164.636C240.769 164.636 240.434 164.708 240.124 164.852C239.813 164.992 239.54 165.186 239.305 165.432C239.074 165.678 238.893 165.96 238.76 166.278C238.627 166.593 238.561 166.924 238.561 167.273C238.561 167.735 238.669 168.167 238.885 168.568C239.105 168.97 239.404 169.294 239.783 169.54C240.165 169.786 240.599 169.909 241.084 169.909Z" fill="black"/>
<rect y="187" width="246" height="5" rx="2.5" fill="#77787D"/>
<path d="M258.82 179L256.76 178.08C257.147 177 257.84 176.187 258.84 175.64C259.853 175.093 260.98 174.82 262.22 174.82C263.007 174.82 263.767 174.927 264.5 175.14C265.233 175.353 265.88 175.74 266.44 176.3C267 176.86 267.28 177.54 267.28 178.34C267.28 179.087 267.073 179.76 266.66 180.36C266.26 180.947 265.713 181.34 265.02 181.54C265.82 181.7 266.447 182.08 266.9 182.68C267.353 183.28 267.58 183.993 267.58 184.82C267.58 186.18 267.053 187.247 266 188.02C264.947 188.78 263.72 189.16 262.32 189.16C261.013 189.16 259.807 188.867 258.7 188.28C257.607 187.68 256.867 186.813 256.48 185.68L258.68 184.76C258.813 185.053 259.04 185.36 259.36 185.68C259.653 186.013 260.067 186.293 260.6 186.52C261.147 186.733 261.653 186.84 262.12 186.84C262.867 186.84 263.547 186.68 264.16 186.36C264.773 186.027 265.08 185.52 265.08 184.84C265.08 184.427 264.973 184.08 264.76 183.8C264.547 183.52 264.24 183.327 263.84 183.22C263.453 183.1 263.1 183.027 262.78 183C262.473 182.96 262.107 182.94 261.68 182.94H260.32V180.74H261.76C262.48 180.74 263.167 180.587 263.82 180.28C264.473 179.96 264.8 179.48 264.8 178.84C264.8 178.227 264.507 177.787 263.92 177.52C263.347 177.24 262.713 177.1 262.02 177.1C260.527 177.1 259.46 177.733 258.82 179ZM271.368 182.86L269.348 182.66L269.988 175H279.128V177.26H272.108L271.808 180.36C272.461 180.027 273.288 179.86 274.288 179.86C275.834 179.86 277.094 180.253 278.068 181.04C279.041 181.813 279.528 182.953 279.528 184.46C279.528 185.927 279.001 187.08 277.948 187.92C276.908 188.747 275.641 189.16 274.148 189.16C272.854 189.16 271.714 188.88 270.728 188.32C269.741 187.747 269.048 186.893 268.648 185.76L270.888 184.94C271.141 185.567 271.581 186.04 272.208 186.36C272.848 186.68 273.534 186.84 274.268 186.84C275.028 186.84 275.681 186.64 276.228 186.24C276.774 185.84 277.048 185.273 277.048 184.54C277.048 183.687 276.761 183.06 276.188 182.66C275.614 182.247 274.888 182.04 274.008 182.04C272.914 182.04 272.034 182.313 271.368 182.86ZM285.255 189.4L283.455 188.36L293.735 174.44L295.455 175.68L285.255 189.4ZM281.115 178.5C281.115 177.433 281.488 176.573 282.235 175.92C282.982 175.267 283.888 174.94 284.955 174.94C285.315 174.94 285.728 174.993 286.195 175.1C286.982 175.327 287.608 175.747 288.075 176.36C288.542 176.973 288.775 177.687 288.775 178.5C288.775 179.567 288.402 180.427 287.655 181.08C286.922 181.72 286.022 182.04 284.955 182.04C283.888 182.04 282.982 181.713 282.235 181.06C281.488 180.393 281.115 179.54 281.115 178.5ZM283.835 177.36C283.528 177.68 283.375 178.06 283.375 178.5C283.375 178.94 283.528 179.327 283.835 179.66C284.142 179.98 284.515 180.14 284.955 180.14C285.422 180.14 285.795 179.987 286.075 179.68C286.368 179.36 286.515 178.967 286.515 178.5C286.515 178.06 286.362 177.68 286.055 177.36C285.762 177.04 285.395 176.88 284.955 176.88C284.515 176.88 284.142 177.04 283.835 177.36ZM291.235 188.1C290.488 187.433 290.115 186.573 290.115 185.52C290.115 184.467 290.488 183.613 291.235 182.96C291.995 182.307 292.902 181.98 293.955 181.98C294.315 181.98 294.728 182.033 295.195 182.14C295.982 182.367 296.608 182.787 297.075 183.4C297.542 184 297.775 184.707 297.775 185.52C297.775 186.56 297.402 187.413 296.655 188.08C295.908 188.747 295.008 189.08 293.955 189.08C292.888 189.08 291.982 188.753 291.235 188.1ZM292.375 185.52C292.375 185.96 292.528 186.34 292.835 186.66C293.142 186.98 293.515 187.14 293.955 187.14C294.395 187.14 294.762 186.98 295.055 186.66C295.362 186.34 295.515 185.96 295.515 185.52C295.515 185.067 295.368 184.68 295.075 184.36C294.782 184.04 294.408 183.88 293.955 183.88C293.502 183.88 293.122 184.04 292.815 184.36C292.522 184.68 292.375 185.067 292.375 185.52Z" fill="#01BEFB"/>
<path d="M305 180.193L309.395 172L314 180.193H311.04C310.774 184.603 310.451 189.908 305 192C306.021 190.746 308.434 186.661 308.057 180.193H305Z" fill="#01BEFB"/>
<defs>
<linearGradient id="paint0_linear_2577_66399" x1="0" y1="30.5" x2="289" y2="30.5" gradientUnits="userSpaceOnUse">
<stop stop-color="#004AF0"/>
<stop offset="1" stop-color="#00BFFB"/>
</linearGradient>
</defs>
</svg>
