<svg width="343" height="243" viewBox="0 0 343 243" fill="none" xmlns="http://www.w3.org/2000/svg">
<path d="M1.23295 11V0.818182H2.46591V5.35227H7.89489V0.818182H9.12784V11H7.89489V6.44602H2.46591V11H1.23295ZM13.6843 11.179C13.2004 11.179 12.7612 11.0878 12.3668 10.9055C11.9724 10.7199 11.6592 10.4531 11.4272 10.1051C11.1952 9.75379 11.0792 9.32955 11.0792 8.83239C11.0792 8.39489 11.1654 8.04025 11.3377 7.76847C11.5101 7.49337 11.7404 7.27794 12.0288 7.12216C12.3171 6.96638 12.6353 6.85038 12.9833 6.77415C13.3346 6.6946 13.6876 6.63163 14.0423 6.58523C14.5063 6.52557 14.8825 6.48082 15.1708 6.45099C15.4625 6.41785 15.6746 6.36316 15.8072 6.28693C15.9431 6.2107 16.011 6.07812 16.011 5.8892V5.84943C16.011 5.3589 15.8768 4.97775 15.6083 4.70597C15.3432 4.43419 14.9405 4.2983 14.4002 4.2983C13.8401 4.2983 13.4009 4.42093 13.0827 4.66619C12.7646 4.91146 12.5408 5.1733 12.4116 5.4517L11.2979 5.05398C11.4968 4.58996 11.762 4.22869 12.0934 3.97017C12.4281 3.70833 12.7927 3.52604 13.1871 3.4233C13.5849 3.31723 13.976 3.2642 14.3604 3.2642C14.6057 3.2642 14.8874 3.29403 15.2056 3.35369C15.5271 3.41004 15.837 3.5277 16.1353 3.70668C16.4369 3.88565 16.6871 4.15578 16.886 4.51705C17.0849 4.87831 17.1843 5.36222 17.1843 5.96875V11H16.011V9.96591H15.9513C15.8718 10.1316 15.7392 10.3089 15.5536 10.4979C15.368 10.6868 15.1211 10.8475 14.8129 10.9801C14.5046 11.1127 14.1284 11.179 13.6843 11.179ZM13.8633 10.125C14.3273 10.125 14.7184 10.0339 15.0366 9.85156C15.3581 9.66927 15.6 9.43395 15.7624 9.1456C15.9281 8.85724 16.011 8.55398 16.011 8.2358V7.16193C15.9613 7.22159 15.8519 7.27628 15.6829 7.32599C15.5172 7.3724 15.3249 7.41383 15.1062 7.45028C14.8907 7.48343 14.6803 7.51326 14.4748 7.53977C14.2726 7.56297 14.1085 7.58286 13.9826 7.59943C13.6777 7.6392 13.3926 7.70384 13.1275 7.79332C12.8656 7.8795 12.6535 8.01042 12.4911 8.18608C12.332 8.35843 12.2525 8.59375 12.2525 8.89205C12.2525 9.29972 12.4033 9.60795 12.7049 9.81676C13.0098 10.0223 13.396 10.125 13.8633 10.125ZM26.3656 11.1591C25.6762 11.1591 25.0713 10.995 24.551 10.6669C24.0339 10.3388 23.6296 9.87973 23.3379 9.28977C23.0495 8.69981 22.9054 8.01042 22.9054 7.22159C22.9054 6.42614 23.0495 5.73177 23.3379 5.13849C23.6296 4.54522 24.0339 4.08452 24.551 3.75639C25.0713 3.42827 25.6762 3.2642 26.3656 3.2642C27.055 3.2642 27.6582 3.42827 28.1752 3.75639C28.6956 4.08452 29.1 4.54522 29.3883 5.13849C29.68 5.73177 29.8258 6.42614 29.8258 7.22159C29.8258 8.01042 29.68 8.69981 29.3883 9.28977C29.1 9.87973 28.6956 10.3388 28.1752 10.6669C27.6582 10.995 27.055 11.1591 26.3656 11.1591ZM26.3656 10.1051C26.8893 10.1051 27.3201 9.97088 27.6582 9.70241C27.9963 9.43395 28.2465 9.08097 28.4089 8.64347C28.5713 8.20597 28.6525 7.73201 28.6525 7.22159C28.6525 6.71117 28.5713 6.23556 28.4089 5.79474C28.2465 5.35393 27.9963 4.99763 27.6582 4.72585C27.3201 4.45407 26.8893 4.31818 26.3656 4.31818C25.8419 4.31818 25.411 4.45407 25.073 4.72585C24.7349 4.99763 24.4847 5.35393 24.3223 5.79474C24.1599 6.23556 24.0787 6.71117 24.0787 7.22159C24.0787 7.73201 24.1599 8.20597 24.3223 8.64347C24.4847 9.08097 24.7349 9.43395 25.073 9.70241C25.411 9.97088 25.8419 10.1051 26.3656 10.1051ZM34.7191 11.1591C34.0032 11.1591 33.3867 10.9901 32.8697 10.652C32.3526 10.3139 31.9549 9.84825 31.6765 9.25497C31.3981 8.66169 31.2589 7.9839 31.2589 7.22159C31.2589 6.44602 31.4014 5.7616 31.6864 5.16832C31.9748 4.57173 32.3758 4.10606 32.8896 3.77131C33.4066 3.43324 34.0098 3.2642 34.6992 3.2642C35.2362 3.2642 35.7201 3.36364 36.1509 3.5625C36.5818 3.76136 36.9348 4.03977 37.2099 4.39773C37.485 4.75568 37.6557 5.1733 37.7219 5.65057H36.5487C36.4592 5.30256 36.2603 4.99432 35.9521 4.72585C35.6471 4.45407 35.2362 4.31818 34.7191 4.31818C34.2617 4.31818 33.8607 4.4375 33.516 4.67614C33.1746 4.91146 32.9078 5.24455 32.7156 5.67543C32.5266 6.10298 32.4322 6.60511 32.4322 7.18182C32.4322 7.77178 32.525 8.28551 32.7106 8.72301C32.8995 9.16051 33.1647 9.50024 33.506 9.74219C33.8507 9.98414 34.2551 10.1051 34.7191 10.1051C35.024 10.1051 35.3008 10.0521 35.5494 9.94602C35.7979 9.83996 36.0084 9.6875 36.1808 9.48864C36.3531 9.28977 36.4757 9.05114 36.5487 8.77273H37.7219C37.6557 9.22348 37.4916 9.6295 37.2298 9.99077C36.9712 10.3487 36.6282 10.6338 36.2006 10.8459C35.7764 11.0547 35.2826 11.1591 34.7191 11.1591ZM44.5479 6.64489V7.73864H40.332V6.64489H44.5479ZM40.6104 3.36364V11H39.4371V3.36364H40.6104ZM45.4428 3.36364V11H44.2695V3.36364H45.4428ZM50.6879 11.1591C49.9985 11.1591 49.3936 10.995 48.8732 10.6669C48.3562 10.3388 47.9518 9.87973 47.6602 9.28977C47.3718 8.69981 47.2276 8.01042 47.2276 7.22159C47.2276 6.42614 47.3718 5.73177 47.6602 5.13849C47.9518 4.54522 48.3562 4.08452 48.8732 3.75639C49.3936 3.42827 49.9985 3.2642 50.6879 3.2642C51.3772 3.2642 51.9805 3.42827 52.4975 3.75639C53.0179 4.08452 53.4222 4.54522 53.7106 5.13849C54.0022 5.73177 54.1481 6.42614 54.1481 7.22159C54.1481 8.01042 54.0022 8.69981 53.7106 9.28977C53.4222 9.87973 53.0179 10.3388 52.4975 10.6669C51.9805 10.995 51.3772 11.1591 50.6879 11.1591ZM50.6879 10.1051C51.2115 10.1051 51.6424 9.97088 51.9805 9.70241C52.3185 9.43395 52.5688 9.08097 52.7312 8.64347C52.8936 8.20597 52.9748 7.73201 52.9748 7.22159C52.9748 6.71117 52.8936 6.23556 52.7312 5.79474C52.5688 5.35393 52.3185 4.99763 51.9805 4.72585C51.6424 4.45407 51.2115 4.31818 50.6879 4.31818C50.1642 4.31818 49.7333 4.45407 49.3952 4.72585C49.0572 4.99763 48.8069 5.35393 48.6445 5.79474C48.4821 6.23556 48.4009 6.71117 48.4009 7.22159C48.4009 7.73201 48.4821 8.20597 48.6445 8.64347C48.8069 9.08097 49.0572 9.43395 49.3952 9.70241C49.7333 9.97088 50.1642 10.1051 50.6879 10.1051ZM55.9391 11V3.36364H59.0613C59.8832 3.36364 60.5362 3.54924 61.0201 3.92045C61.504 4.29167 61.7459 4.7822 61.7459 5.39205C61.7459 5.85606 61.6084 6.21567 61.3333 6.47088C61.0582 6.72277 60.7052 6.89347 60.2743 6.98295C60.556 7.02273 60.8295 7.12216 61.0946 7.28125C61.3631 7.44034 61.5852 7.65909 61.7608 7.9375C61.9365 8.21259 62.0243 8.55066 62.0243 8.9517C62.0243 9.3428 61.9249 9.69247 61.726 10.0007C61.5272 10.3089 61.2421 10.5526 60.8709 10.7315C60.4997 10.9105 60.0556 11 59.5385 11H55.9391ZM57.0527 9.92614H59.5385C59.9429 9.92614 60.2594 9.83002 60.4881 9.63778C60.7168 9.44555 60.8311 9.18371 60.8311 8.85227C60.8311 8.45786 60.7168 8.14796 60.4881 7.92259C60.2594 7.69389 59.9429 7.57955 59.5385 7.57955H57.0527V9.92614ZM57.0527 6.56534H59.0613C59.3761 6.56534 59.6462 6.52225 59.8716 6.43608C60.097 6.34659 60.2694 6.22064 60.3887 6.05824C60.5113 5.89252 60.5726 5.69697 60.5726 5.47159C60.5726 5.15009 60.4384 4.8982 60.1699 4.71591C59.9015 4.5303 59.5319 4.4375 59.0613 4.4375H57.0527V6.56534ZM67.0021 11.1591C66.2663 11.1591 65.6316 10.9967 65.098 10.6719C64.5677 10.3438 64.1584 9.88636 63.87 9.29972C63.585 8.70975 63.4425 8.02367 63.4425 7.24148C63.4425 6.45928 63.585 5.76989 63.87 5.1733C64.1584 4.57339 64.5594 4.10606 65.0732 3.77131C65.5902 3.43324 66.1934 3.2642 66.8828 3.2642C67.2805 3.2642 67.6733 3.33049 68.0611 3.46307C68.4489 3.59564 68.8018 3.81108 69.12 4.10938C69.4382 4.40436 69.6918 4.79545 69.8807 5.28267C70.0696 5.76989 70.1641 6.36979 70.1641 7.08239V7.57955H64.2777V6.56534H68.9709C68.9709 6.13447 68.8847 5.75 68.7124 5.41193C68.5433 5.07386 68.3014 4.80705 67.9865 4.61151C67.675 4.41596 67.3071 4.31818 66.8828 4.31818C66.4155 4.31818 66.0111 4.43419 65.6697 4.66619C65.3317 4.89489 65.0715 5.19318 64.8892 5.56108C64.7069 5.92898 64.6158 6.32339 64.6158 6.74432V7.42045C64.6158 7.99716 64.7152 8.48603 64.9141 8.88707C65.1162 9.2848 65.3963 9.58807 65.7543 9.79688C66.1122 10.0024 66.5282 10.1051 67.0021 10.1051C67.3104 10.1051 67.5888 10.062 67.8374 9.97585C68.0893 9.88636 68.3063 9.75379 68.4886 9.57812C68.6709 9.39915 68.8118 9.17708 68.9112 8.91193L70.0447 9.23011C69.9254 9.61458 69.7249 9.95265 69.4432 10.2443C69.1615 10.5327 68.8134 10.758 68.3991 10.9205C67.9848 11.0795 67.5192 11.1591 67.0021 11.1591ZM84.2386 4H83.0057C82.9328 3.64536 82.8052 3.33381 82.6229 3.06534C82.4439 2.79688 82.2251 2.5715 81.9666 2.3892C81.7114 2.2036 81.428 2.06439 81.1165 1.97159C80.8049 1.87879 80.4801 1.83239 80.142 1.83239C79.5256 1.83239 78.9671 1.98816 78.4666 2.29972C77.9695 2.61127 77.5734 3.07031 77.2784 3.67685C76.9867 4.28338 76.8409 5.02746 76.8409 5.90909C76.8409 6.79072 76.9867 7.5348 77.2784 8.14134C77.5734 8.74787 77.9695 9.20691 78.4666 9.51847C78.9671 9.83002 79.5256 9.9858 80.142 9.9858C80.4801 9.9858 80.8049 9.93939 81.1165 9.84659C81.428 9.75379 81.7114 9.61624 81.9666 9.43395C82.2251 9.24834 82.4439 9.02131 82.6229 8.75284C82.8052 8.48106 82.9328 8.16951 83.0057 7.81818H84.2386C84.1458 8.33854 83.9768 8.80421 83.7315 9.2152C83.4863 9.62618 83.1813 9.97585 82.8168 10.2642C82.4522 10.5492 82.0429 10.7663 81.5888 10.9155C81.138 11.0646 80.6558 11.1392 80.142 11.1392C79.2737 11.1392 78.5014 10.9271 77.8253 10.5028C77.1491 10.0786 76.6172 9.47538 76.2294 8.69318C75.8416 7.91098 75.6477 6.98295 75.6477 5.90909C75.6477 4.83523 75.8416 3.9072 76.2294 3.125C76.6172 2.3428 77.1491 1.73958 77.8253 1.31534C78.5014 0.891098 79.2737 0.678977 80.142 0.678977C80.6558 0.678977 81.138 0.753551 81.5888 0.902699C82.0429 1.05185 82.4522 1.2706 82.8168 1.55895C83.1813 1.84399 83.4863 2.192 83.7315 2.60298C83.9768 3.01065 84.1458 3.47633 84.2386 4ZM86.231 11V0.818182H89.6713C90.4701 0.818182 91.123 0.962358 91.6301 1.25071C92.1406 1.53575 92.5184 1.92188 92.7637 2.40909C93.0089 2.89631 93.1316 3.43987 93.1316 4.03977C93.1316 4.63968 93.0089 5.1849 92.7637 5.67543C92.5217 6.16596 92.1472 6.55705 91.6401 6.84872C91.133 7.13707 90.4834 7.28125 89.6912 7.28125H87.2253V6.1875H89.6515C90.1983 6.1875 90.6375 6.09304 90.9689 5.90412C91.3004 5.7152 91.5407 5.45999 91.6898 5.13849C91.8423 4.81368 91.9185 4.44744 91.9185 4.03977C91.9185 3.6321 91.8423 3.26752 91.6898 2.94602C91.5407 2.62453 91.2987 2.37263 90.964 2.19034C90.6292 2.00473 90.1851 1.91193 89.6316 1.91193H87.464V11H86.231ZM101.8 0.818182H103.032V7.55966C103.032 8.25568 102.868 8.87713 102.54 9.42401C102.215 9.96757 101.756 10.3968 101.163 10.7116C100.57 11.0232 99.8739 11.179 99.0751 11.179C98.2763 11.179 97.5803 11.0232 96.987 10.7116C96.3938 10.3968 95.9331 9.96757 95.6049 9.42401C95.2801 8.87713 95.1177 8.25568 95.1177 7.55966V0.818182H96.3507V7.46023C96.3507 7.95739 96.46 8.39986 96.6788 8.78764C96.8975 9.17211 97.2091 9.47538 97.6135 9.69744C98.0211 9.91619 98.5083 10.0256 99.0751 10.0256C99.6419 10.0256 100.129 9.91619 100.537 9.69744C100.944 9.47538 101.256 9.17211 101.471 8.78764C101.69 8.39986 101.8 7.95739 101.8 7.46023V0.818182ZM105.495 0.818182H106.966L110.426 9.26989H110.546L114.006 0.818182H115.478V11H114.324V3.2642H114.225L111.043 11H109.929L106.748 3.2642H106.648V11H105.495V0.818182ZM120.038 11.179C119.554 11.179 119.115 11.0878 118.72 10.9055C118.326 10.7199 118.013 10.4531 117.781 10.1051C117.549 9.75379 117.433 9.32955 117.433 8.83239C117.433 8.39489 117.519 8.04025 117.691 7.76847C117.864 7.49337 118.094 7.27794 118.382 7.12216C118.671 6.96638 118.989 6.85038 119.337 6.77415C119.688 6.6946 120.041 6.63163 120.396 6.58523C120.86 6.52557 121.236 6.48082 121.524 6.45099C121.816 6.41785 122.028 6.36316 122.161 6.28693C122.297 6.2107 122.365 6.07812 122.365 5.8892V5.84943C122.365 5.3589 122.23 4.97775 121.962 4.70597C121.697 4.43419 121.294 4.2983 120.754 4.2983C120.194 4.2983 119.754 4.42093 119.436 4.66619C119.118 4.91146 118.894 5.1733 118.765 5.4517L117.651 5.05398C117.85 4.58996 118.115 4.22869 118.447 3.97017C118.782 3.70833 119.146 3.52604 119.541 3.4233C119.938 3.31723 120.329 3.2642 120.714 3.2642C120.959 3.2642 121.241 3.29403 121.559 3.35369C121.881 3.41004 122.191 3.5277 122.489 3.70668C122.79 3.88565 123.041 4.15578 123.24 4.51705C123.438 4.87831 123.538 5.36222 123.538 5.96875V11H122.365V9.96591H122.305C122.225 10.1316 122.093 10.3089 121.907 10.4979C121.722 10.6868 121.475 10.8475 121.166 10.9801C120.858 11.1127 120.482 11.179 120.038 11.179ZM120.217 10.125C120.681 10.125 121.072 10.0339 121.39 9.85156C121.712 9.66927 121.954 9.43395 122.116 9.1456C122.282 8.85724 122.365 8.55398 122.365 8.2358V7.16193C122.315 7.22159 122.205 7.27628 122.036 7.32599C121.871 7.3724 121.678 7.41383 121.46 7.45028C121.244 7.48343 121.034 7.51326 120.828 7.53977C120.626 7.56297 120.462 7.58286 120.336 7.59943C120.031 7.6392 119.746 7.70384 119.481 7.79332C119.219 7.8795 119.007 8.01042 118.845 8.18608C118.686 8.35843 118.606 8.59375 118.606 8.89205C118.606 9.29972 118.757 9.60795 119.058 9.81676C119.363 10.0223 119.749 10.125 120.217 10.125ZM125.679 11V3.36364H126.813V4.51705H126.892C127.032 4.1392 127.283 3.83262 127.648 3.5973C128.013 3.36198 128.424 3.24432 128.881 3.24432C128.967 3.24432 129.075 3.24597 129.204 3.24929C129.333 3.2526 129.431 3.25758 129.498 3.2642V4.45739C129.458 4.44744 129.367 4.43253 129.224 4.41264C129.085 4.38944 128.937 4.37784 128.782 4.37784C128.41 4.37784 128.079 4.45573 127.787 4.61151C127.499 4.76397 127.27 4.97609 127.101 5.24787C126.935 5.51634 126.853 5.82292 126.853 6.16761V11H125.679ZM131.982 8.21591L131.962 6.7642H132.201L135.542 3.36364H136.993L133.434 6.96307H133.334L131.982 8.21591ZM130.888 11V0.818182H132.062V11H130.888ZM135.741 11L132.758 7.22159L133.593 6.40625L137.232 11H135.741ZM139.359 11.0795C139.113 11.0795 138.903 10.9917 138.727 10.8161C138.552 10.6404 138.464 10.4299 138.464 10.1847C138.464 9.93939 138.552 9.72893 138.727 9.55327C138.903 9.3776 139.113 9.28977 139.359 9.28977C139.604 9.28977 139.814 9.3776 139.99 9.55327C140.166 9.72893 140.254 9.93939 140.254 10.1847C140.254 10.3471 140.212 10.4962 140.129 10.6321C140.05 10.768 139.942 10.8774 139.806 10.9602C139.674 11.0398 139.524 11.0795 139.359 11.0795ZM139.359 5.41193C139.113 5.41193 138.903 5.3241 138.727 5.14844C138.552 4.97277 138.464 4.76231 138.464 4.51705C138.464 4.27178 138.552 4.06132 138.727 3.88565C138.903 3.70999 139.113 3.62216 139.359 3.62216C139.604 3.62216 139.814 3.70999 139.99 3.88565C140.166 4.06132 140.254 4.27178 140.254 4.51705C140.254 4.67945 140.212 4.8286 140.129 4.96449C140.05 5.10038 139.942 5.20975 139.806 5.29261C139.674 5.37216 139.524 5.41193 139.359 5.41193Z" fill="black"/>
<path d="M2.81818 51.3636V63H1.40909V51.3636H2.81818ZM5.80256 57.75V63H4.46165V54.2727H5.7571V55.6364H5.87074C6.07528 55.1932 6.38589 54.8371 6.80256 54.5682C7.21922 54.2955 7.7571 54.1591 8.41619 54.1591C9.0071 54.1591 9.52415 54.2803 9.96733 54.5227C10.4105 54.7614 10.7552 55.125 11.0014 55.6136C11.2476 56.0985 11.3707 56.7121 11.3707 57.4545V63H10.0298V57.5455C10.0298 56.8598 9.8518 56.3258 9.49574 55.9432C9.13968 55.5568 8.65104 55.3636 8.02983 55.3636C7.6018 55.3636 7.21922 55.4564 6.8821 55.642C6.54877 55.8277 6.28551 56.0985 6.09233 56.4545C5.89915 56.8106 5.80256 57.2424 5.80256 57.75ZM16.6165 54.2727V55.4091H12.0938V54.2727H16.6165ZM13.4119 52.1818H14.7528V60.5C14.7528 60.8788 14.8078 61.1629 14.9176 61.3523C15.0313 61.5379 15.1752 61.6629 15.3494 61.7273C15.5275 61.7879 15.715 61.8182 15.9119 61.8182C16.0597 61.8182 16.1809 61.8106 16.2756 61.7955C16.3703 61.7765 16.446 61.7614 16.5028 61.75L16.7756 62.9545C16.6847 62.9886 16.5578 63.0227 16.3949 63.0568C16.232 63.0947 16.0256 63.1136 15.7756 63.1136C15.3968 63.1136 15.0256 63.0322 14.6619 62.8693C14.3021 62.7064 14.0028 62.4583 13.7642 62.125C13.5294 61.7917 13.4119 61.3712 13.4119 60.8636V52.1818ZM21.1989 63.1818C20.358 63.1818 19.6326 62.9962 19.0227 62.625C18.4167 62.25 17.9489 61.7273 17.6193 61.0568C17.2936 60.3826 17.1307 59.5985 17.1307 58.7045C17.1307 57.8106 17.2936 57.0227 17.6193 56.3409C17.9489 55.6553 18.4072 55.1212 18.9943 54.7386C19.5852 54.3523 20.2746 54.1591 21.0625 54.1591C21.517 54.1591 21.9659 54.2348 22.4091 54.3864C22.8523 54.5379 23.2557 54.7841 23.6193 55.125C23.983 55.4621 24.2727 55.9091 24.4886 56.4659C24.7045 57.0227 24.8125 57.7083 24.8125 58.5227V59.0909H18.0852V57.9318H23.4489C23.4489 57.4394 23.3504 57 23.1534 56.6136C22.9602 56.2273 22.6837 55.9223 22.3239 55.6989C21.9678 55.4754 21.5473 55.3636 21.0625 55.3636C20.5284 55.3636 20.0663 55.4962 19.6761 55.7614C19.2898 56.0227 18.9924 56.3636 18.7841 56.7841C18.5758 57.2045 18.4716 57.6553 18.4716 58.1364V58.9091C18.4716 59.5682 18.5852 60.1269 18.8125 60.5852C19.0436 61.0398 19.3636 61.3864 19.7727 61.625C20.1818 61.8598 20.6572 61.9773 21.1989 61.9773C21.5511 61.9773 21.8693 61.928 22.1534 61.8295C22.4413 61.7273 22.6894 61.5758 22.8977 61.375C23.1061 61.1705 23.267 60.9167 23.3807 60.6136L24.6761 60.9773C24.5398 61.4167 24.3106 61.803 23.9886 62.1364C23.6667 62.4659 23.2689 62.7235 22.7955 62.9091C22.322 63.0909 21.7898 63.1818 21.1989 63.1818ZM27.1932 51.3636V63H25.8523V51.3636H27.1932ZM41.5582 51.3636V63H40.1946L33.8537 53.8636H33.7401V63H32.331V51.3636H33.6946L40.0582 60.5227H40.1719V51.3636H41.5582ZM47.2642 51.3636V63H45.8551V52.8409H45.7869L42.946 54.7273V53.2955L45.8551 51.3636H47.2642ZM53.4062 63.1591C52.5502 63.1591 51.821 62.9261 51.2188 62.4602C50.6165 61.9905 50.1563 61.3106 49.8381 60.4205C49.5199 59.5265 49.3608 58.447 49.3608 57.1818C49.3608 55.9242 49.5199 54.8504 49.8381 53.9602C50.16 53.0663 50.6222 52.3845 51.2244 51.9148C51.8305 51.4413 52.5578 51.2045 53.4062 51.2045C54.2547 51.2045 54.9801 51.4413 55.5824 51.9148C56.1884 52.3845 56.6506 53.0663 56.9688 53.9602C57.2907 54.8504 57.4517 55.9242 57.4517 57.1818C57.4517 58.447 57.2926 59.5265 56.9744 60.4205C56.6562 61.3106 56.196 61.9905 55.5938 62.4602C54.9915 62.9261 54.2623 63.1591 53.4062 63.1591ZM53.4062 61.9091C54.2547 61.9091 54.9138 61.5 55.3835 60.6818C55.8532 59.8636 56.0881 58.697 56.0881 57.1818C56.0881 56.1742 55.9801 55.3163 55.7642 54.608C55.5521 53.8996 55.2453 53.3598 54.8438 52.9886C54.446 52.6174 53.9669 52.4318 53.4062 52.4318C52.5653 52.4318 51.9081 52.8466 51.4347 53.6761C50.9612 54.5019 50.7244 55.6705 50.7244 57.1818C50.7244 58.1894 50.8305 59.0455 51.0426 59.75C51.2547 60.4545 51.5597 60.9905 51.9574 61.358C52.3589 61.7254 52.8419 61.9091 53.4062 61.9091ZM62.4062 63.1591C61.5502 63.1591 60.821 62.9261 60.2188 62.4602C59.6165 61.9905 59.1563 61.3106 58.8381 60.4205C58.5199 59.5265 58.3608 58.447 58.3608 57.1818C58.3608 55.9242 58.5199 54.8504 58.8381 53.9602C59.16 53.0663 59.6222 52.3845 60.2244 51.9148C60.8305 51.4413 61.5578 51.2045 62.4062 51.2045C63.2547 51.2045 63.9801 51.4413 64.5824 51.9148C65.1884 52.3845 65.6506 53.0663 65.9688 53.9602C66.2907 54.8504 66.4517 55.9242 66.4517 57.1818C66.4517 58.447 66.2926 59.5265 65.9744 60.4205C65.6562 61.3106 65.196 61.9905 64.5938 62.4602C63.9915 62.9261 63.2623 63.1591 62.4062 63.1591ZM62.4062 61.9091C63.2547 61.9091 63.9138 61.5 64.3835 60.6818C64.8532 59.8636 65.0881 58.697 65.0881 57.1818C65.0881 56.1742 64.9801 55.3163 64.7642 54.608C64.5521 53.8996 64.2453 53.3598 63.8438 52.9886C63.446 52.6174 62.9669 52.4318 62.4062 52.4318C61.5653 52.4318 60.9081 52.8466 60.4347 53.6761C59.9612 54.5019 59.7244 55.6705 59.7244 57.1818C59.7244 58.1894 59.8305 59.0455 60.0426 59.75C60.2547 60.4545 60.5597 60.9905 60.9574 61.358C61.3589 61.7254 61.8419 61.9091 62.4062 61.9091Z" fill="black"/>
<path d="M260.2 63.1591C259.534 63.1591 258.933 63.0265 258.399 62.7614C257.865 62.4962 257.437 62.1326 257.115 61.6705C256.793 61.2083 256.617 60.6818 256.587 60.0909H257.95C258.003 60.6174 258.242 61.053 258.666 61.3977C259.094 61.7386 259.606 61.9091 260.2 61.9091C260.678 61.9091 261.102 61.7973 261.473 61.5739C261.848 61.3504 262.142 61.0436 262.354 60.6534C262.57 60.2595 262.678 59.8144 262.678 59.3182C262.678 58.8106 262.566 58.358 262.342 57.9602C262.123 57.5587 261.82 57.2424 261.433 57.0114C261.047 56.7803 260.606 56.6629 260.109 56.6591C259.753 56.6553 259.388 56.7102 259.013 56.8239C258.638 56.9337 258.329 57.0758 258.087 57.25L256.768 57.0909L257.473 51.3636H263.518V52.6136H258.655L258.246 56.0455H258.314C258.553 55.8561 258.852 55.6989 259.212 55.5739C259.571 55.4489 259.946 55.3864 260.337 55.3864C261.049 55.3864 261.683 55.5568 262.24 55.8977C262.801 56.2348 263.24 56.697 263.558 57.2841C263.88 57.8712 264.041 58.5417 264.041 59.2955C264.041 60.0379 263.875 60.7008 263.541 61.2841C263.212 61.8636 262.757 62.322 262.178 62.6591C261.598 62.9924 260.939 63.1591 260.2 63.1591ZM268.935 63.1591C268.268 63.1591 267.668 63.0265 267.134 62.7614C266.599 62.4962 266.171 62.1326 265.849 61.6705C265.527 61.2083 265.351 60.6818 265.321 60.0909H266.685C266.738 60.6174 266.976 61.053 267.401 61.3977C267.829 61.7386 268.34 61.9091 268.935 61.9091C269.412 61.9091 269.836 61.7973 270.207 61.5739C270.582 61.3504 270.876 61.0436 271.088 60.6534C271.304 60.2595 271.412 59.8144 271.412 59.3182C271.412 58.8106 271.3 58.358 271.077 57.9602C270.857 57.5587 270.554 57.2424 270.168 57.0114C269.781 56.7803 269.34 56.6629 268.844 56.6591C268.488 56.6553 268.122 56.7102 267.747 56.8239C267.372 56.9337 267.063 57.0758 266.821 57.25L265.503 57.0909L266.207 51.3636H272.253V52.6136H267.389L266.98 56.0455H267.048C267.287 55.8561 267.586 55.6989 267.946 55.5739C268.306 55.4489 268.681 55.3864 269.071 55.3864C269.783 55.3864 270.418 55.5568 270.974 55.8977C271.535 56.2348 271.974 56.697 272.293 57.2841C272.615 57.8712 272.776 58.5417 272.776 59.2955C272.776 60.0379 272.609 60.7008 272.276 61.2841C271.946 61.8636 271.491 62.322 270.912 62.6591C270.332 62.9924 269.673 63.1591 268.935 63.1591ZM277.669 63.1591C277.002 63.1591 276.402 63.0265 275.868 62.7614C275.334 62.4962 274.906 62.1326 274.584 61.6705C274.262 61.2083 274.086 60.6818 274.055 60.0909H275.419C275.472 60.6174 275.711 61.053 276.135 61.3977C276.563 61.7386 277.074 61.9091 277.669 61.9091C278.146 61.9091 278.571 61.7973 278.942 61.5739C279.317 61.3504 279.61 61.0436 279.822 60.6534C280.038 60.2595 280.146 59.8144 280.146 59.3182C280.146 58.8106 280.035 58.358 279.811 57.9602C279.591 57.5587 279.288 57.2424 278.902 57.0114C278.516 56.7803 278.074 56.6629 277.578 56.6591C277.222 56.6553 276.857 56.7102 276.482 56.8239C276.107 56.9337 275.798 57.0758 275.555 57.25L274.237 57.0909L274.942 51.3636H280.987V52.6136H276.124L275.714 56.0455H275.783C276.021 55.8561 276.321 55.6989 276.68 55.5739C277.04 55.4489 277.415 55.3864 277.805 55.3864C278.518 55.3864 279.152 55.5568 279.709 55.8977C280.269 56.2348 280.709 56.697 281.027 57.2841C281.349 57.8712 281.51 58.5417 281.51 59.2955C281.51 60.0379 281.343 60.7008 281.01 61.2841C280.68 61.8636 280.226 62.322 279.646 62.6591C279.067 62.9924 278.408 63.1591 277.669 63.1591ZM286.858 51.3636V63H285.449V52.8409H285.381L282.54 54.7273V53.2955L285.449 51.3636H286.858Z" fill="black"/>
<rect y="79" width="289" height="5" rx="2.5" fill="url(#paint0_linear_2577_66397)"/>
<path d="M2.81818 104.364V116H1.40909V104.364H2.81818ZM5.80256 110.75V116H4.46165V107.273H5.7571V108.636H5.87074C6.07528 108.193 6.38589 107.837 6.80256 107.568C7.21922 107.295 7.7571 107.159 8.41619 107.159C9.0071 107.159 9.52415 107.28 9.96733 107.523C10.4105 107.761 10.7552 108.125 11.0014 108.614C11.2476 109.098 11.3707 109.712 11.3707 110.455V116H10.0298V110.545C10.0298 109.86 9.8518 109.326 9.49574 108.943C9.13968 108.557 8.65104 108.364 8.02983 108.364C7.6018 108.364 7.21922 108.456 6.8821 108.642C6.54877 108.828 6.28551 109.098 6.09233 109.455C5.89915 109.811 5.80256 110.242 5.80256 110.75ZM16.6165 107.273V108.409H12.0938V107.273H16.6165ZM13.4119 105.182H14.7528V113.5C14.7528 113.879 14.8078 114.163 14.9176 114.352C15.0313 114.538 15.1752 114.663 15.3494 114.727C15.5275 114.788 15.715 114.818 15.9119 114.818C16.0597 114.818 16.1809 114.811 16.2756 114.795C16.3703 114.777 16.446 114.761 16.5028 114.75L16.7756 115.955C16.6847 115.989 16.5578 116.023 16.3949 116.057C16.232 116.095 16.0256 116.114 15.7756 116.114C15.3968 116.114 15.0256 116.032 14.6619 115.869C14.3021 115.706 14.0028 115.458 13.7642 115.125C13.5294 114.792 13.4119 114.371 13.4119 113.864V105.182ZM21.1989 116.182C20.358 116.182 19.6326 115.996 19.0227 115.625C18.4167 115.25 17.9489 114.727 17.6193 114.057C17.2936 113.383 17.1307 112.598 17.1307 111.705C17.1307 110.811 17.2936 110.023 17.6193 109.341C17.9489 108.655 18.4072 108.121 18.9943 107.739C19.5852 107.352 20.2746 107.159 21.0625 107.159C21.517 107.159 21.9659 107.235 22.4091 107.386C22.8523 107.538 23.2557 107.784 23.6193 108.125C23.983 108.462 24.2727 108.909 24.4886 109.466C24.7045 110.023 24.8125 110.708 24.8125 111.523V112.091H18.0852V110.932H23.4489C23.4489 110.439 23.3504 110 23.1534 109.614C22.9602 109.227 22.6837 108.922 22.3239 108.699C21.9678 108.475 21.5473 108.364 21.0625 108.364C20.5284 108.364 20.0663 108.496 19.6761 108.761C19.2898 109.023 18.9924 109.364 18.7841 109.784C18.5758 110.205 18.4716 110.655 18.4716 111.136V111.909C18.4716 112.568 18.5852 113.127 18.8125 113.585C19.0436 114.04 19.3636 114.386 19.7727 114.625C20.1818 114.86 20.6572 114.977 21.1989 114.977C21.5511 114.977 21.8693 114.928 22.1534 114.83C22.4413 114.727 22.6894 114.576 22.8977 114.375C23.1061 114.17 23.267 113.917 23.3807 113.614L24.6761 113.977C24.5398 114.417 24.3106 114.803 23.9886 115.136C23.6667 115.466 23.2689 115.723 22.7955 115.909C22.322 116.091 21.7898 116.182 21.1989 116.182ZM27.1932 104.364V116H25.8523V104.364H27.1932ZM41.6946 108H40.2855C40.2022 107.595 40.0563 107.239 39.848 106.932C39.6435 106.625 39.3935 106.367 39.098 106.159C38.8063 105.947 38.4825 105.788 38.1264 105.682C37.7704 105.576 37.3991 105.523 37.0128 105.523C36.3082 105.523 35.67 105.701 35.098 106.057C34.5298 106.413 34.0772 106.938 33.7401 107.631C33.4067 108.324 33.2401 109.174 33.2401 110.182C33.2401 111.189 33.4067 112.04 33.7401 112.733C34.0772 113.426 34.5298 113.951 35.098 114.307C35.67 114.663 36.3082 114.841 37.0128 114.841C37.3991 114.841 37.7704 114.788 38.1264 114.682C38.4825 114.576 38.8063 114.419 39.098 114.21C39.3935 113.998 39.6435 113.739 39.848 113.432C40.0563 113.121 40.2022 112.765 40.2855 112.364H41.6946C41.5885 112.958 41.3954 113.491 41.1151 113.96C40.8348 114.43 40.4863 114.83 40.0696 115.159C39.6529 115.485 39.1851 115.733 38.6662 115.903C38.151 116.074 37.5999 116.159 37.0128 116.159C36.0204 116.159 35.1378 115.917 34.3651 115.432C33.5923 114.947 32.9844 114.258 32.5412 113.364C32.098 112.47 31.8764 111.409 31.8764 110.182C31.8764 108.955 32.098 107.894 32.5412 107C32.9844 106.106 33.5923 105.417 34.3651 104.932C35.1378 104.447 36.0204 104.205 37.0128 104.205C37.5999 104.205 38.151 104.29 38.6662 104.46C39.1851 104.631 39.6529 104.881 40.0696 105.21C40.4863 105.536 40.8348 105.934 41.1151 106.403C41.3954 106.869 41.5885 107.402 41.6946 108ZM46.3352 116.182C45.5473 116.182 44.8561 115.994 44.2614 115.619C43.6705 115.244 43.2083 114.72 42.875 114.045C42.5455 113.371 42.3807 112.583 42.3807 111.682C42.3807 110.773 42.5455 109.979 42.875 109.301C43.2083 108.623 43.6705 108.097 44.2614 107.722C44.8561 107.347 45.5473 107.159 46.3352 107.159C47.1231 107.159 47.8125 107.347 48.4034 107.722C48.9981 108.097 49.4602 108.623 49.7898 109.301C50.1231 109.979 50.2898 110.773 50.2898 111.682C50.2898 112.583 50.1231 113.371 49.7898 114.045C49.4602 114.72 48.9981 115.244 48.4034 115.619C47.8125 115.994 47.1231 116.182 46.3352 116.182ZM46.3352 114.977C46.9337 114.977 47.4261 114.824 47.8125 114.517C48.1989 114.21 48.4848 113.807 48.6705 113.307C48.8561 112.807 48.9489 112.265 48.9489 111.682C48.9489 111.098 48.8561 110.555 48.6705 110.051C48.4848 109.547 48.1989 109.14 47.8125 108.83C47.4261 108.519 46.9337 108.364 46.3352 108.364C45.7367 108.364 45.2443 108.519 44.858 108.83C44.4716 109.14 44.1856 109.547 44 110.051C43.8144 110.555 43.7216 111.098 43.7216 111.682C43.7216 112.265 43.8144 112.807 44 113.307C44.1856 113.807 44.4716 114.21 44.858 114.517C45.2443 114.824 45.7367 114.977 46.3352 114.977ZM51.3366 116V107.273H52.6321V108.591H52.723C52.8821 108.159 53.17 107.809 53.5866 107.54C54.0033 107.271 54.473 107.136 54.9957 107.136C55.0942 107.136 55.2173 107.138 55.3651 107.142C55.5128 107.146 55.6245 107.152 55.7003 107.159V108.523C55.6548 108.511 55.5507 108.494 55.3878 108.472C55.2287 108.445 55.0601 108.432 54.8821 108.432C54.4579 108.432 54.0791 108.521 53.7457 108.699C53.4162 108.873 53.1548 109.116 52.9616 109.426C52.7723 109.733 52.6776 110.083 52.6776 110.477V116H51.3366ZM59.6832 116.182C58.8423 116.182 58.117 115.996 57.5071 115.625C56.901 115.25 56.4332 114.727 56.1037 114.057C55.7779 113.383 55.6151 112.598 55.6151 111.705C55.6151 110.811 55.7779 110.023 56.1037 109.341C56.4332 108.655 56.8916 108.121 57.4787 107.739C58.0696 107.352 58.759 107.159 59.5469 107.159C60.0014 107.159 60.4503 107.235 60.8935 107.386C61.3366 107.538 61.7401 107.784 62.1037 108.125C62.4673 108.462 62.7571 108.909 62.973 109.466C63.1889 110.023 63.2969 110.708 63.2969 111.523V112.091H56.5696V110.932H61.9332C61.9332 110.439 61.8348 110 61.6378 109.614C61.4446 109.227 61.1681 108.922 60.8082 108.699C60.4522 108.475 60.0317 108.364 59.5469 108.364C59.0128 108.364 58.5507 108.496 58.1605 108.761C57.7741 109.023 57.4768 109.364 57.2685 109.784C57.0601 110.205 56.956 110.655 56.956 111.136V111.909C56.956 112.568 57.0696 113.127 57.2969 113.585C57.5279 114.04 57.848 114.386 58.2571 114.625C58.6662 114.86 59.1416 114.977 59.6832 114.977C60.0355 114.977 60.3537 114.928 60.6378 114.83C60.9257 114.727 61.1738 114.576 61.3821 114.375C61.5904 114.17 61.7514 113.917 61.8651 113.614L63.1605 113.977C63.0241 114.417 62.795 114.803 62.473 115.136C62.151 115.466 61.7533 115.723 61.2798 115.909C60.8063 116.091 60.2741 116.182 59.6832 116.182ZM67.8366 116V107.273H69.1776V116H67.8366ZM68.5185 105.818C68.2571 105.818 68.0317 105.729 67.8423 105.551C67.6567 105.373 67.5639 105.159 67.5639 104.909C67.5639 104.659 67.6567 104.445 67.8423 104.267C68.0317 104.089 68.2571 104 68.5185 104C68.7798 104 69.0033 104.089 69.1889 104.267C69.3783 104.445 69.473 104.659 69.473 104.909C69.473 105.159 69.3783 105.373 69.1889 105.551C69.0033 105.729 68.7798 105.818 68.5185 105.818ZM74.2472 116.159C73.5805 116.159 72.9801 116.027 72.446 115.761C71.9119 115.496 71.4839 115.133 71.1619 114.67C70.84 114.208 70.6638 113.682 70.6335 113.091H71.9972C72.0502 113.617 72.2888 114.053 72.7131 114.398C73.1411 114.739 73.6525 114.909 74.2472 114.909C74.7244 114.909 75.1487 114.797 75.5199 114.574C75.8949 114.35 76.1884 114.044 76.4006 113.653C76.6165 113.259 76.7244 112.814 76.7244 112.318C76.7244 111.811 76.6127 111.358 76.3892 110.96C76.1695 110.559 75.8665 110.242 75.4801 110.011C75.0938 109.78 74.6525 109.663 74.1562 109.659C73.8002 109.655 73.4347 109.71 73.0597 109.824C72.6847 109.934 72.3759 110.076 72.1335 110.25L70.8153 110.091L71.5199 104.364H77.5653V105.614H72.7017L72.2926 109.045H72.3608C72.5994 108.856 72.8987 108.699 73.2585 108.574C73.6184 108.449 73.9934 108.386 74.3835 108.386C75.0956 108.386 75.7301 108.557 76.2869 108.898C76.8475 109.235 77.2869 109.697 77.6051 110.284C77.9271 110.871 78.0881 111.542 78.0881 112.295C78.0881 113.038 77.9214 113.701 77.5881 114.284C77.2585 114.864 76.804 115.322 76.2244 115.659C75.6449 115.992 74.9858 116.159 74.2472 116.159ZM84.3679 109.557V110.807H79.277V109.557H84.3679ZM89.4318 116.159C88.6515 116.159 87.9621 116.021 87.3636 115.744C86.7689 115.464 86.3049 115.08 85.9716 114.591C85.6383 114.098 85.4735 113.538 85.4773 112.909C85.4735 112.417 85.5701 111.962 85.767 111.545C85.964 111.125 86.233 110.775 86.5739 110.494C86.9186 110.21 87.303 110.03 87.7273 109.955V109.886C87.1705 109.742 86.7273 109.43 86.3977 108.949C86.0682 108.464 85.9053 107.913 85.9091 107.295C85.9053 106.705 86.0549 106.176 86.358 105.71C86.661 105.244 87.0777 104.877 87.608 104.608C88.142 104.339 88.75 104.205 89.4318 104.205C90.1061 104.205 90.7083 104.339 91.2386 104.608C91.7689 104.877 92.1856 105.244 92.4886 105.71C92.7955 106.176 92.9508 106.705 92.9545 107.295C92.9508 107.913 92.7822 108.464 92.4489 108.949C92.1193 109.43 91.6818 109.742 91.1364 109.886V109.955C91.5568 110.03 91.9356 110.21 92.2727 110.494C92.6098 110.775 92.8788 111.125 93.0795 111.545C93.2803 111.962 93.3826 112.417 93.3864 112.909C93.3826 113.538 93.2121 114.098 92.875 114.591C92.5417 115.08 92.0777 115.464 91.483 115.744C90.892 116.021 90.2083 116.159 89.4318 116.159ZM89.4318 114.909C89.9583 114.909 90.4129 114.824 90.7955 114.653C91.178 114.483 91.4735 114.242 91.6818 113.932C91.8902 113.621 91.9962 113.258 92 112.841C91.9962 112.402 91.8826 112.013 91.6591 111.676C91.4356 111.339 91.1307 111.074 90.7443 110.881C90.3617 110.687 89.9242 110.591 89.4318 110.591C88.9356 110.591 88.4924 110.687 88.1023 110.881C87.7159 111.074 87.411 111.339 87.1875 111.676C86.9678 112.013 86.8598 112.402 86.8636 112.841C86.8598 113.258 86.9602 113.621 87.1648 113.932C87.3731 114.242 87.6705 114.483 88.0568 114.653C88.4432 114.824 88.9015 114.909 89.4318 114.909ZM89.4318 109.386C89.8485 109.386 90.2178 109.303 90.5398 109.136C90.8655 108.97 91.1212 108.737 91.3068 108.438C91.4924 108.138 91.5871 107.788 91.5909 107.386C91.5871 106.992 91.4943 106.65 91.3125 106.358C91.1307 106.062 90.8788 105.835 90.5568 105.676C90.2348 105.513 89.8598 105.432 89.4318 105.432C88.9962 105.432 88.6155 105.513 88.2898 105.676C87.964 105.835 87.7121 106.062 87.5341 106.358C87.3561 106.65 87.2689 106.992 87.2727 107.386C87.2689 107.788 87.358 108.138 87.5398 108.438C87.7254 108.737 87.9811 108.97 88.3068 109.136C88.6326 109.303 89.0076 109.386 89.4318 109.386ZM94.5639 116V114.977L98.4048 110.773C98.8556 110.28 99.2268 109.852 99.5185 109.489C99.8101 109.121 100.026 108.777 100.166 108.455C100.31 108.129 100.382 107.788 100.382 107.432C100.382 107.023 100.284 106.669 100.087 106.369C99.8935 106.07 99.6283 105.839 99.2912 105.676C98.9541 105.513 98.5753 105.432 98.1548 105.432C97.7079 105.432 97.3177 105.525 96.9844 105.71C96.6548 105.892 96.3991 106.148 96.2173 106.477C96.0393 106.807 95.9503 107.193 95.9503 107.636H94.6094C94.6094 106.955 94.7666 106.356 95.081 105.841C95.3954 105.326 95.8234 104.924 96.3651 104.636C96.9105 104.348 97.5223 104.205 98.2003 104.205C98.8821 104.205 99.4863 104.348 100.013 104.636C100.539 104.924 100.952 105.312 101.251 105.801C101.551 106.29 101.7 106.833 101.7 107.432C101.7 107.86 101.623 108.278 101.467 108.688C101.316 109.093 101.051 109.545 100.672 110.045C100.297 110.542 99.776 111.148 99.1094 111.864L96.4957 114.659V114.75H101.905V116H94.5639ZM106.888 116.159C106.221 116.159 105.621 116.027 105.087 115.761C104.553 115.496 104.125 115.133 103.803 114.67C103.481 114.208 103.304 113.682 103.274 113.091H104.638C104.691 113.617 104.929 114.053 105.354 114.398C105.782 114.739 106.293 114.909 106.888 114.909C107.365 114.909 107.789 114.797 108.161 114.574C108.536 114.35 108.829 114.044 109.041 113.653C109.257 113.259 109.365 112.814 109.365 112.318C109.365 111.811 109.253 111.358 109.03 110.96C108.81 110.559 108.507 110.242 108.121 110.011C107.734 109.78 107.293 109.663 106.797 109.659C106.441 109.655 106.075 109.71 105.7 109.824C105.325 109.934 105.017 110.076 104.774 110.25L103.456 110.091L104.161 104.364H110.206V105.614H105.342L104.933 109.045H105.001C105.24 108.856 105.539 108.699 105.899 108.574C106.259 108.449 106.634 108.386 107.024 108.386C107.736 108.386 108.371 108.557 108.928 108.898C109.488 109.235 109.928 109.697 110.246 110.284C110.568 110.871 110.729 111.542 110.729 112.295C110.729 113.038 110.562 113.701 110.229 114.284C109.899 114.864 109.445 115.322 108.865 115.659C108.286 115.992 107.626 116.159 106.888 116.159ZM115.781 116.159C114.925 116.159 114.196 115.926 113.594 115.46C112.991 114.991 112.531 114.311 112.213 113.42C111.895 112.527 111.736 111.447 111.736 110.182C111.736 108.924 111.895 107.85 112.213 106.96C112.535 106.066 112.997 105.384 113.599 104.915C114.205 104.441 114.933 104.205 115.781 104.205C116.63 104.205 117.355 104.441 117.957 104.915C118.563 105.384 119.026 106.066 119.344 106.96C119.666 107.85 119.827 108.924 119.827 110.182C119.827 111.447 119.668 112.527 119.349 113.42C119.031 114.311 118.571 114.991 117.969 115.46C117.366 115.926 116.637 116.159 115.781 116.159ZM115.781 114.909C116.63 114.909 117.289 114.5 117.759 113.682C118.228 112.864 118.463 111.697 118.463 110.182C118.463 109.174 118.355 108.316 118.139 107.608C117.927 106.9 117.62 106.36 117.219 105.989C116.821 105.617 116.342 105.432 115.781 105.432C114.94 105.432 114.283 105.847 113.81 106.676C113.336 107.502 113.099 108.67 113.099 110.182C113.099 111.189 113.205 112.045 113.418 112.75C113.63 113.455 113.935 113.991 114.332 114.358C114.734 114.725 115.217 114.909 115.781 114.909ZM128.827 104.364H130.236V112.068C130.236 112.864 130.048 113.574 129.673 114.199C129.302 114.82 128.777 115.311 128.099 115.67C127.421 116.027 126.626 116.205 125.713 116.205C124.8 116.205 124.005 116.027 123.327 115.67C122.649 115.311 122.122 114.82 121.747 114.199C121.376 113.574 121.19 112.864 121.19 112.068V104.364H122.599V111.955C122.599 112.523 122.724 113.028 122.974 113.472C123.224 113.911 123.58 114.258 124.043 114.511C124.509 114.761 125.065 114.886 125.713 114.886C126.361 114.886 126.918 114.761 127.384 114.511C127.849 114.258 128.205 113.911 128.452 113.472C128.702 113.028 128.827 112.523 128.827 111.955V104.364Z" fill="black"/>
<path d="M267.653 116.159C266.987 116.159 266.386 116.027 265.852 115.761C265.318 115.496 264.89 115.133 264.568 114.67C264.246 114.208 264.07 113.682 264.04 113.091H265.403C265.456 113.617 265.695 114.053 266.119 114.398C266.547 114.739 267.059 114.909 267.653 114.909C268.131 114.909 268.555 114.797 268.926 114.574C269.301 114.35 269.595 114.044 269.807 113.653C270.023 113.259 270.131 112.814 270.131 112.318C270.131 111.811 270.019 111.358 269.795 110.96C269.576 110.559 269.273 110.242 268.886 110.011C268.5 109.78 268.059 109.663 267.562 109.659C267.206 109.655 266.841 109.71 266.466 109.824C266.091 109.934 265.782 110.076 265.54 110.25L264.222 110.091L264.926 104.364H270.972V105.614H266.108L265.699 109.045H265.767C266.006 108.856 266.305 108.699 266.665 108.574C267.025 108.449 267.4 108.386 267.79 108.386C268.502 108.386 269.136 108.557 269.693 108.898C270.254 109.235 270.693 109.697 271.011 110.284C271.333 110.871 271.494 111.542 271.494 112.295C271.494 113.038 271.328 113.701 270.994 114.284C270.665 114.864 270.21 115.322 269.631 115.659C269.051 115.992 268.392 116.159 267.653 116.159ZM276.479 116.159C275.698 116.159 275.009 116.021 274.411 115.744C273.816 115.464 273.352 115.08 273.018 114.591C272.685 114.098 272.52 113.538 272.524 112.909C272.52 112.417 272.617 111.962 272.814 111.545C273.011 111.125 273.28 110.775 273.621 110.494C273.965 110.21 274.35 110.03 274.774 109.955V109.886C274.217 109.742 273.774 109.43 273.445 108.949C273.115 108.464 272.952 107.913 272.956 107.295C272.952 106.705 273.102 106.176 273.405 105.71C273.708 105.244 274.125 104.877 274.655 104.608C275.189 104.339 275.797 104.205 276.479 104.205C277.153 104.205 277.755 104.339 278.286 104.608C278.816 104.877 279.232 105.244 279.536 105.71C279.842 106.176 279.998 106.705 280.001 107.295C279.998 107.913 279.829 108.464 279.496 108.949C279.166 109.43 278.729 109.742 278.183 109.886V109.955C278.604 110.03 278.982 110.21 279.32 110.494C279.657 110.775 279.926 111.125 280.126 111.545C280.327 111.962 280.429 112.417 280.433 112.909C280.429 113.538 280.259 114.098 279.922 114.591C279.589 115.08 279.125 115.464 278.53 115.744C277.939 116.021 277.255 116.159 276.479 116.159ZM276.479 114.909C277.005 114.909 277.46 114.824 277.842 114.653C278.225 114.483 278.52 114.242 278.729 113.932C278.937 113.621 279.043 113.258 279.047 112.841C279.043 112.402 278.929 112.013 278.706 111.676C278.482 111.339 278.178 111.074 277.791 110.881C277.409 110.687 276.971 110.591 276.479 110.591C275.982 110.591 275.539 110.687 275.149 110.881C274.763 111.074 274.458 111.339 274.234 111.676C274.015 112.013 273.907 112.402 273.911 112.841C273.907 113.258 274.007 113.621 274.212 113.932C274.42 114.242 274.717 114.483 275.104 114.653C275.49 114.824 275.948 114.909 276.479 114.909ZM276.479 109.386C276.895 109.386 277.265 109.303 277.587 109.136C277.912 108.97 278.168 108.737 278.354 108.438C278.539 108.138 278.634 107.788 278.638 107.386C278.634 106.992 278.541 106.65 278.359 106.358C278.178 106.062 277.926 105.835 277.604 105.676C277.282 105.513 276.907 105.432 276.479 105.432C276.043 105.432 275.662 105.513 275.337 105.676C275.011 105.835 274.759 106.062 274.581 106.358C274.403 106.65 274.316 106.992 274.32 107.386C274.316 107.788 274.405 108.138 274.587 108.438C274.772 108.737 275.028 108.97 275.354 109.136C275.679 109.303 276.054 109.386 276.479 109.386ZM285.338 116.159C284.558 116.159 283.868 116.021 283.27 115.744C282.675 115.464 282.211 115.08 281.878 114.591C281.545 114.098 281.38 113.538 281.384 112.909C281.38 112.417 281.476 111.962 281.673 111.545C281.87 111.125 282.139 110.775 282.48 110.494C282.825 110.21 283.209 110.03 283.634 109.955V109.886C283.077 109.742 282.634 109.43 282.304 108.949C281.974 108.464 281.812 107.913 281.815 107.295C281.812 106.705 281.961 106.176 282.264 105.71C282.567 105.244 282.984 104.877 283.514 104.608C284.048 104.339 284.656 104.205 285.338 104.205C286.012 104.205 286.615 104.339 287.145 104.608C287.675 104.877 288.092 105.244 288.395 105.71C288.702 106.176 288.857 106.705 288.861 107.295C288.857 107.913 288.688 108.464 288.355 108.949C288.026 109.43 287.588 109.742 287.043 109.886V109.955C287.463 110.03 287.842 110.21 288.179 110.494C288.516 110.775 288.785 111.125 288.986 111.545C289.187 111.962 289.289 112.417 289.293 112.909C289.289 113.538 289.118 114.098 288.781 114.591C288.448 115.08 287.984 115.464 287.389 115.744C286.798 116.021 286.115 116.159 285.338 116.159ZM285.338 114.909C285.865 114.909 286.319 114.824 286.702 114.653C287.084 114.483 287.38 114.242 287.588 113.932C287.796 113.621 287.902 113.258 287.906 112.841C287.902 112.402 287.789 112.013 287.565 111.676C287.342 111.339 287.037 111.074 286.651 110.881C286.268 110.687 285.83 110.591 285.338 110.591C284.842 110.591 284.399 110.687 284.009 110.881C283.622 111.074 283.317 111.339 283.094 111.676C282.874 112.013 282.766 112.402 282.77 112.841C282.766 113.258 282.866 113.621 283.071 113.932C283.279 114.242 283.577 114.483 283.963 114.653C284.349 114.824 284.808 114.909 285.338 114.909ZM285.338 109.386C285.755 109.386 286.124 109.303 286.446 109.136C286.772 108.97 287.027 108.737 287.213 108.438C287.399 108.138 287.493 107.788 287.497 107.386C287.493 106.992 287.401 106.65 287.219 106.358C287.037 106.062 286.785 105.835 286.463 105.676C286.141 105.513 285.766 105.432 285.338 105.432C284.902 105.432 284.522 105.513 284.196 105.676C283.87 105.835 283.618 106.062 283.44 106.358C283.262 106.65 283.175 106.992 283.179 107.386C283.175 107.788 283.264 108.138 283.446 108.438C283.632 108.737 283.887 108.97 284.213 109.136C284.539 109.303 284.914 109.386 285.338 109.386ZM294.107 116.159C293.44 116.159 292.839 116.027 292.305 115.761C291.771 115.496 291.343 115.133 291.021 114.67C290.699 114.208 290.523 113.682 290.493 113.091H291.857C291.91 113.617 292.148 114.053 292.572 114.398C293 114.739 293.512 114.909 294.107 114.909C294.584 114.909 295.008 114.797 295.379 114.574C295.754 114.35 296.048 114.044 296.26 113.653C296.476 113.259 296.584 112.814 296.584 112.318C296.584 111.811 296.472 111.358 296.249 110.96C296.029 110.559 295.726 110.242 295.339 110.011C294.953 109.78 294.512 109.663 294.016 109.659C293.66 109.655 293.294 109.71 292.919 109.824C292.544 109.934 292.235 110.076 291.993 110.25L290.675 110.091L291.379 104.364H297.425V105.614H292.561L292.152 109.045H292.22C292.459 108.856 292.758 108.699 293.118 108.574C293.478 108.449 293.853 108.386 294.243 108.386C294.955 108.386 295.589 108.557 296.146 108.898C296.707 109.235 297.146 109.697 297.464 110.284C297.786 110.871 297.947 111.542 297.947 112.295C297.947 113.038 297.781 113.701 297.447 114.284C297.118 114.864 296.663 115.322 296.084 115.659C295.504 115.992 294.845 116.159 294.107 116.159Z" fill="black"/>
<rect y="132" width="299" height="5" rx="2.5" fill="#77787D"/>
<path d="M2.81818 157.364V169H1.40909V157.364H2.81818ZM5.80256 163.75V169H4.46165V160.273H5.7571V161.636H5.87074C6.07528 161.193 6.38589 160.837 6.80256 160.568C7.21922 160.295 7.7571 160.159 8.41619 160.159C9.0071 160.159 9.52415 160.28 9.96733 160.523C10.4105 160.761 10.7552 161.125 11.0014 161.614C11.2476 162.098 11.3707 162.712 11.3707 163.455V169H10.0298V163.545C10.0298 162.86 9.8518 162.326 9.49574 161.943C9.13968 161.557 8.65104 161.364 8.02983 161.364C7.6018 161.364 7.21922 161.456 6.8821 161.642C6.54877 161.828 6.28551 162.098 6.09233 162.455C5.89915 162.811 5.80256 163.242 5.80256 163.75ZM16.6165 160.273V161.409H12.0938V160.273H16.6165ZM13.4119 158.182H14.7528V166.5C14.7528 166.879 14.8078 167.163 14.9176 167.352C15.0313 167.538 15.1752 167.663 15.3494 167.727C15.5275 167.788 15.715 167.818 15.9119 167.818C16.0597 167.818 16.1809 167.811 16.2756 167.795C16.3703 167.777 16.446 167.761 16.5028 167.75L16.7756 168.955C16.6847 168.989 16.5578 169.023 16.3949 169.057C16.232 169.095 16.0256 169.114 15.7756 169.114C15.3968 169.114 15.0256 169.032 14.6619 168.869C14.3021 168.706 14.0028 168.458 13.7642 168.125C13.5294 167.792 13.4119 167.371 13.4119 166.864V158.182ZM21.1989 169.182C20.358 169.182 19.6326 168.996 19.0227 168.625C18.4167 168.25 17.9489 167.727 17.6193 167.057C17.2936 166.383 17.1307 165.598 17.1307 164.705C17.1307 163.811 17.2936 163.023 17.6193 162.341C17.9489 161.655 18.4072 161.121 18.9943 160.739C19.5852 160.352 20.2746 160.159 21.0625 160.159C21.517 160.159 21.9659 160.235 22.4091 160.386C22.8523 160.538 23.2557 160.784 23.6193 161.125C23.983 161.462 24.2727 161.909 24.4886 162.466C24.7045 163.023 24.8125 163.708 24.8125 164.523V165.091H18.0852V163.932H23.4489C23.4489 163.439 23.3504 163 23.1534 162.614C22.9602 162.227 22.6837 161.922 22.3239 161.699C21.9678 161.475 21.5473 161.364 21.0625 161.364C20.5284 161.364 20.0663 161.496 19.6761 161.761C19.2898 162.023 18.9924 162.364 18.7841 162.784C18.5758 163.205 18.4716 163.655 18.4716 164.136V164.909C18.4716 165.568 18.5852 166.127 18.8125 166.585C19.0436 167.04 19.3636 167.386 19.7727 167.625C20.1818 167.86 20.6572 167.977 21.1989 167.977C21.5511 167.977 21.8693 167.928 22.1534 167.83C22.4413 167.727 22.6894 167.576 22.8977 167.375C23.1061 167.17 23.267 166.917 23.3807 166.614L24.6761 166.977C24.5398 167.417 24.3106 167.803 23.9886 168.136C23.6667 168.466 23.2689 168.723 22.7955 168.909C22.322 169.091 21.7898 169.182 21.1989 169.182ZM27.1932 157.364V169H25.8523V157.364H27.1932ZM41.6946 161H40.2855C40.2022 160.595 40.0563 160.239 39.848 159.932C39.6435 159.625 39.3935 159.367 39.098 159.159C38.8063 158.947 38.4825 158.788 38.1264 158.682C37.7704 158.576 37.3991 158.523 37.0128 158.523C36.3082 158.523 35.67 158.701 35.098 159.057C34.5298 159.413 34.0772 159.938 33.7401 160.631C33.4067 161.324 33.2401 162.174 33.2401 163.182C33.2401 164.189 33.4067 165.04 33.7401 165.733C34.0772 166.426 34.5298 166.951 35.098 167.307C35.67 167.663 36.3082 167.841 37.0128 167.841C37.3991 167.841 37.7704 167.788 38.1264 167.682C38.4825 167.576 38.8063 167.419 39.098 167.21C39.3935 166.998 39.6435 166.739 39.848 166.432C40.0563 166.121 40.2022 165.765 40.2855 165.364H41.6946C41.5885 165.958 41.3954 166.491 41.1151 166.96C40.8348 167.43 40.4863 167.83 40.0696 168.159C39.6529 168.485 39.1851 168.733 38.6662 168.903C38.151 169.074 37.5999 169.159 37.0128 169.159C36.0204 169.159 35.1378 168.917 34.3651 168.432C33.5923 167.947 32.9844 167.258 32.5412 166.364C32.098 165.47 31.8764 164.409 31.8764 163.182C31.8764 161.955 32.098 160.894 32.5412 160C32.9844 159.106 33.5923 158.417 34.3651 157.932C35.1378 157.447 36.0204 157.205 37.0128 157.205C37.5999 157.205 38.151 157.29 38.6662 157.46C39.1851 157.631 39.6529 157.881 40.0696 158.21C40.4863 158.536 40.8348 158.934 41.1151 159.403C41.3954 159.869 41.5885 160.402 41.6946 161ZM46.3352 169.182C45.5473 169.182 44.8561 168.994 44.2614 168.619C43.6705 168.244 43.2083 167.72 42.875 167.045C42.5455 166.371 42.3807 165.583 42.3807 164.682C42.3807 163.773 42.5455 162.979 42.875 162.301C43.2083 161.623 43.6705 161.097 44.2614 160.722C44.8561 160.347 45.5473 160.159 46.3352 160.159C47.1231 160.159 47.8125 160.347 48.4034 160.722C48.9981 161.097 49.4602 161.623 49.7898 162.301C50.1231 162.979 50.2898 163.773 50.2898 164.682C50.2898 165.583 50.1231 166.371 49.7898 167.045C49.4602 167.72 48.9981 168.244 48.4034 168.619C47.8125 168.994 47.1231 169.182 46.3352 169.182ZM46.3352 167.977C46.9337 167.977 47.4261 167.824 47.8125 167.517C48.1989 167.21 48.4848 166.807 48.6705 166.307C48.8561 165.807 48.9489 165.265 48.9489 164.682C48.9489 164.098 48.8561 163.555 48.6705 163.051C48.4848 162.547 48.1989 162.14 47.8125 161.83C47.4261 161.519 46.9337 161.364 46.3352 161.364C45.7367 161.364 45.2443 161.519 44.858 161.83C44.4716 162.14 44.1856 162.547 44 163.051C43.8144 163.555 43.7216 164.098 43.7216 164.682C43.7216 165.265 43.8144 165.807 44 166.307C44.1856 166.807 44.4716 167.21 44.858 167.517C45.2443 167.824 45.7367 167.977 46.3352 167.977ZM51.3366 169V160.273H52.6321V161.591H52.723C52.8821 161.159 53.17 160.809 53.5866 160.54C54.0033 160.271 54.473 160.136 54.9957 160.136C55.0942 160.136 55.2173 160.138 55.3651 160.142C55.5128 160.146 55.6245 160.152 55.7003 160.159V161.523C55.6548 161.511 55.5507 161.494 55.3878 161.472C55.2287 161.445 55.0601 161.432 54.8821 161.432C54.4579 161.432 54.0791 161.521 53.7457 161.699C53.4162 161.873 53.1548 162.116 52.9616 162.426C52.7723 162.733 52.6776 163.083 52.6776 163.477V169H51.3366ZM59.6832 169.182C58.8423 169.182 58.117 168.996 57.5071 168.625C56.901 168.25 56.4332 167.727 56.1037 167.057C55.7779 166.383 55.6151 165.598 55.6151 164.705C55.6151 163.811 55.7779 163.023 56.1037 162.341C56.4332 161.655 56.8916 161.121 57.4787 160.739C58.0696 160.352 58.759 160.159 59.5469 160.159C60.0014 160.159 60.4503 160.235 60.8935 160.386C61.3366 160.538 61.7401 160.784 62.1037 161.125C62.4673 161.462 62.7571 161.909 62.973 162.466C63.1889 163.023 63.2969 163.708 63.2969 164.523V165.091H56.5696V163.932H61.9332C61.9332 163.439 61.8348 163 61.6378 162.614C61.4446 162.227 61.1681 161.922 60.8082 161.699C60.4522 161.475 60.0317 161.364 59.5469 161.364C59.0128 161.364 58.5507 161.496 58.1605 161.761C57.7741 162.023 57.4768 162.364 57.2685 162.784C57.0601 163.205 56.956 163.655 56.956 164.136V164.909C56.956 165.568 57.0696 166.127 57.2969 166.585C57.5279 167.04 57.848 167.386 58.2571 167.625C58.6662 167.86 59.1416 167.977 59.6832 167.977C60.0355 167.977 60.3537 167.928 60.6378 167.83C60.9257 167.727 61.1738 167.576 61.3821 167.375C61.5904 167.17 61.7514 166.917 61.8651 166.614L63.1605 166.977C63.0241 167.417 62.795 167.803 62.473 168.136C62.151 168.466 61.7533 168.723 61.2798 168.909C60.8063 169.091 60.2741 169.182 59.6832 169.182ZM67.8366 169V160.273H69.1776V169H67.8366ZM68.5185 158.818C68.2571 158.818 68.0317 158.729 67.8423 158.551C67.6567 158.373 67.5639 158.159 67.5639 157.909C67.5639 157.659 67.6567 157.445 67.8423 157.267C68.0317 157.089 68.2571 157 68.5185 157C68.7798 157 69.0033 157.089 69.1889 157.267C69.3783 157.445 69.473 157.659 69.473 157.909C69.473 158.159 69.3783 158.373 69.1889 158.551C69.0033 158.729 68.7798 158.818 68.5185 158.818ZM74.5426 169.159C73.7926 169.159 73.1241 169.03 72.5369 168.773C71.9536 168.515 71.4896 168.157 71.1449 167.699C70.804 167.237 70.6184 166.701 70.5881 166.091H72.0199C72.0502 166.466 72.179 166.79 72.4062 167.062C72.6335 167.331 72.9309 167.54 73.2983 167.688C73.6657 167.835 74.0729 167.909 74.5199 167.909C75.0199 167.909 75.4631 167.822 75.8494 167.648C76.2358 167.473 76.5388 167.231 76.7585 166.92C76.9782 166.61 77.0881 166.25 77.0881 165.841C77.0881 165.413 76.982 165.036 76.7699 164.71C76.5578 164.381 76.2472 164.123 75.8381 163.938C75.429 163.752 74.929 163.659 74.3381 163.659H73.4062V162.409H74.3381C74.8002 162.409 75.2055 162.326 75.554 162.159C75.9063 161.992 76.1809 161.758 76.3778 161.455C76.5786 161.152 76.679 160.795 76.679 160.386C76.679 159.992 76.5919 159.65 76.4176 159.358C76.2434 159.066 75.9972 158.839 75.679 158.676C75.3646 158.513 74.9934 158.432 74.5653 158.432C74.1638 158.432 73.785 158.506 73.429 158.653C73.0767 158.797 72.7888 159.008 72.5653 159.284C72.3419 159.557 72.2206 159.886 72.2017 160.273H70.8381C70.8608 159.663 71.0445 159.129 71.3892 158.67C71.7339 158.208 72.1847 157.848 72.7415 157.591C73.3021 157.333 73.9176 157.205 74.5881 157.205C75.3078 157.205 75.9252 157.35 76.4403 157.642C76.9555 157.93 77.3513 158.311 77.6278 158.784C77.9044 159.258 78.0426 159.769 78.0426 160.318C78.0426 160.973 77.8703 161.532 77.5256 161.994C77.1847 162.456 76.7206 162.777 76.1335 162.955V163.045C76.8684 163.167 77.4422 163.479 77.8551 163.983C78.268 164.483 78.4744 165.102 78.4744 165.841C78.4744 166.473 78.3021 167.042 77.9574 167.545C77.6165 168.045 77.1506 168.439 76.5597 168.727C75.9688 169.015 75.2964 169.159 74.5426 169.159ZM84.821 162.557V163.807H79.7301V162.557H84.821ZM90.2486 157.364V169H88.8395V158.841H88.7713L85.9304 160.727V159.295L88.8395 157.364H90.2486ZM96.3906 169.159C95.5346 169.159 94.8054 168.926 94.2031 168.46C93.6009 167.991 93.1406 167.311 92.8224 166.42C92.5043 165.527 92.3452 164.447 92.3452 163.182C92.3452 161.924 92.5043 160.85 92.8224 159.96C93.1444 159.066 93.6065 158.384 94.2088 157.915C94.8149 157.441 95.5421 157.205 96.3906 157.205C97.2391 157.205 97.9645 157.441 98.5668 157.915C99.1728 158.384 99.6349 159.066 99.9531 159.96C100.275 160.85 100.436 161.924 100.436 163.182C100.436 164.447 100.277 165.527 99.9588 166.42C99.6406 167.311 99.1804 167.991 98.5781 168.46C97.9759 168.926 97.2467 169.159 96.3906 169.159ZM96.3906 167.909C97.2391 167.909 97.8982 167.5 98.3679 166.682C98.8376 165.864 99.0724 164.697 99.0724 163.182C99.0724 162.174 98.9645 161.316 98.7486 160.608C98.5365 159.9 98.2296 159.36 97.8281 158.989C97.4304 158.617 96.9512 158.432 96.3906 158.432C95.5497 158.432 94.8925 158.847 94.419 159.676C93.9455 160.502 93.7088 161.67 93.7088 163.182C93.7088 164.189 93.8149 165.045 94.027 165.75C94.2391 166.455 94.544 166.991 94.9418 167.358C95.3433 167.725 95.8262 167.909 96.3906 167.909ZM105.391 169.159C104.535 169.159 103.805 168.926 103.203 168.46C102.601 167.991 102.141 167.311 101.822 166.42C101.504 165.527 101.345 164.447 101.345 163.182C101.345 161.924 101.504 160.85 101.822 159.96C102.144 159.066 102.607 158.384 103.209 157.915C103.815 157.441 104.542 157.205 105.391 157.205C106.239 157.205 106.964 157.441 107.567 157.915C108.173 158.384 108.635 159.066 108.953 159.96C109.275 160.85 109.436 161.924 109.436 163.182C109.436 164.447 109.277 165.527 108.959 166.42C108.641 167.311 108.18 167.991 107.578 168.46C106.976 168.926 106.247 169.159 105.391 169.159ZM105.391 167.909C106.239 167.909 106.898 167.5 107.368 166.682C107.838 165.864 108.072 164.697 108.072 163.182C108.072 162.174 107.964 161.316 107.749 160.608C107.536 159.9 107.23 159.36 106.828 158.989C106.43 158.617 105.951 158.432 105.391 158.432C104.55 158.432 103.893 158.847 103.419 159.676C102.946 160.502 102.709 161.67 102.709 163.182C102.709 164.189 102.815 165.045 103.027 165.75C103.239 166.455 103.544 166.991 103.942 167.358C104.343 167.725 104.826 167.909 105.391 167.909ZM114.232 169.159C113.565 169.159 112.964 169.027 112.43 168.761C111.896 168.496 111.468 168.133 111.146 167.67C110.824 167.208 110.648 166.682 110.618 166.091H111.982C112.035 166.617 112.273 167.053 112.697 167.398C113.125 167.739 113.637 167.909 114.232 167.909C114.709 167.909 115.133 167.797 115.504 167.574C115.879 167.35 116.173 167.044 116.385 166.653C116.601 166.259 116.709 165.814 116.709 165.318C116.709 164.811 116.597 164.358 116.374 163.96C116.154 163.559 115.851 163.242 115.464 163.011C115.078 162.78 114.637 162.663 114.141 162.659C113.785 162.655 113.419 162.71 113.044 162.824C112.669 162.934 112.36 163.076 112.118 163.25L110.8 163.091L111.504 157.364H117.55V158.614H112.686L112.277 162.045H112.345C112.584 161.856 112.883 161.699 113.243 161.574C113.603 161.449 113.978 161.386 114.368 161.386C115.08 161.386 115.714 161.557 116.271 161.898C116.832 162.235 117.271 162.697 117.589 163.284C117.911 163.871 118.072 164.542 118.072 165.295C118.072 166.038 117.906 166.701 117.572 167.284C117.243 167.864 116.788 168.322 116.209 168.659C115.629 168.992 114.97 169.159 114.232 169.159ZM127.489 161C127.364 160.617 127.199 160.275 126.994 159.972C126.794 159.665 126.553 159.403 126.273 159.188C125.996 158.972 125.682 158.807 125.33 158.693C124.977 158.58 124.591 158.523 124.17 158.523C123.481 158.523 122.854 158.701 122.29 159.057C121.725 159.413 121.277 159.938 120.943 160.631C120.61 161.324 120.443 162.174 120.443 163.182C120.443 164.189 120.612 165.04 120.949 165.733C121.286 166.426 121.742 166.951 122.318 167.307C122.894 167.663 123.542 167.841 124.261 167.841C124.928 167.841 125.515 167.699 126.023 167.415C126.534 167.127 126.932 166.722 127.216 166.199C127.504 165.672 127.648 165.053 127.648 164.341L128.08 164.432H124.58V163.182H129.011V164.432C129.011 165.39 128.807 166.223 128.398 166.932C127.992 167.64 127.432 168.189 126.716 168.58C126.004 168.966 125.186 169.159 124.261 169.159C123.231 169.159 122.326 168.917 121.545 168.432C120.769 167.947 120.163 167.258 119.727 166.364C119.295 165.47 119.08 164.409 119.08 163.182C119.08 162.261 119.203 161.434 119.449 160.699C119.699 159.96 120.051 159.331 120.506 158.812C120.96 158.294 121.498 157.896 122.119 157.619C122.741 157.343 123.424 157.205 124.17 157.205C124.784 157.205 125.356 157.297 125.886 157.483C126.42 157.665 126.896 157.924 127.312 158.261C127.733 158.595 128.083 158.994 128.364 159.46C128.644 159.922 128.837 160.436 128.943 161H127.489ZM134.311 157.364V169H132.902V158.841H132.834L129.993 160.727V159.295L132.902 157.364H134.311Z" fill="black"/>
<path d="M241.307 166.614V165.455L246.42 157.364H247.261V159.159H246.693L242.83 165.273V165.364H249.716V166.614H241.307ZM246.784 169V166.261V165.722V157.364H248.125V169H246.784ZM254.55 157.205C255.027 157.208 255.504 157.299 255.982 157.477C256.459 157.655 256.894 157.951 257.288 158.364C257.682 158.773 257.999 159.331 258.237 160.04C258.476 160.748 258.595 161.636 258.595 162.705C258.595 163.739 258.497 164.657 258.3 165.46C258.107 166.259 257.826 166.934 257.459 167.483C257.095 168.032 256.652 168.449 256.129 168.733C255.61 169.017 255.023 169.159 254.368 169.159C253.716 169.159 253.135 169.03 252.624 168.773C252.116 168.511 251.699 168.15 251.374 167.688C251.052 167.222 250.845 166.682 250.754 166.068H252.141C252.266 166.602 252.514 167.044 252.885 167.392C253.26 167.737 253.754 167.909 254.368 167.909C255.266 167.909 255.974 167.517 256.493 166.733C257.016 165.949 257.277 164.841 257.277 163.409H257.186C256.974 163.727 256.722 164.002 256.43 164.233C256.139 164.464 255.815 164.642 255.459 164.767C255.103 164.892 254.724 164.955 254.322 164.955C253.656 164.955 253.044 164.79 252.487 164.46C251.934 164.127 251.491 163.67 251.158 163.091C250.828 162.508 250.663 161.841 250.663 161.091C250.663 160.379 250.822 159.727 251.141 159.136C251.463 158.542 251.913 158.068 252.493 157.716C253.076 157.364 253.762 157.193 254.55 157.205ZM254.55 158.455C254.072 158.455 253.643 158.574 253.26 158.812C252.881 159.047 252.58 159.366 252.357 159.767C252.137 160.165 252.027 160.606 252.027 161.091C252.027 161.576 252.133 162.017 252.345 162.415C252.561 162.809 252.855 163.123 253.226 163.358C253.601 163.589 254.027 163.705 254.504 163.705C254.864 163.705 255.199 163.634 255.51 163.494C255.821 163.35 256.091 163.155 256.322 162.909C256.557 162.659 256.741 162.377 256.874 162.062C257.006 161.744 257.072 161.413 257.072 161.068C257.072 160.614 256.963 160.187 256.743 159.79C256.527 159.392 256.228 159.07 255.845 158.824C255.466 158.578 255.035 158.455 254.55 158.455ZM263.761 169.159C263.011 169.159 262.343 169.03 261.756 168.773C261.172 168.515 260.708 168.157 260.364 167.699C260.023 167.237 259.837 166.701 259.807 166.091H261.239C261.269 166.466 261.398 166.79 261.625 167.062C261.852 167.331 262.15 167.54 262.517 167.688C262.884 167.835 263.292 167.909 263.739 167.909C264.239 167.909 264.682 167.822 265.068 167.648C265.455 167.473 265.758 167.231 265.977 166.92C266.197 166.61 266.307 166.25 266.307 165.841C266.307 165.413 266.201 165.036 265.989 164.71C265.777 164.381 265.466 164.123 265.057 163.938C264.648 163.752 264.148 163.659 263.557 163.659H262.625V162.409H263.557C264.019 162.409 264.424 162.326 264.773 162.159C265.125 161.992 265.4 161.758 265.597 161.455C265.797 161.152 265.898 160.795 265.898 160.386C265.898 159.992 265.811 159.65 265.636 159.358C265.462 159.066 265.216 158.839 264.898 158.676C264.583 158.513 264.212 158.432 263.784 158.432C263.383 158.432 263.004 158.506 262.648 158.653C262.295 158.797 262.008 159.008 261.784 159.284C261.561 159.557 261.439 159.886 261.42 160.273H260.057C260.08 159.663 260.263 159.129 260.608 158.67C260.953 158.208 261.403 157.848 261.96 157.591C262.521 157.333 263.136 157.205 263.807 157.205C264.527 157.205 265.144 157.35 265.659 157.642C266.174 157.93 266.57 158.311 266.847 158.784C267.123 159.258 267.261 159.769 267.261 160.318C267.261 160.973 267.089 161.532 266.744 161.994C266.403 162.456 265.939 162.777 265.352 162.955V163.045C266.087 163.167 266.661 163.479 267.074 163.983C267.487 164.483 267.693 165.102 267.693 165.841C267.693 166.473 267.521 167.042 267.176 167.545C266.835 168.045 266.369 168.439 265.778 168.727C265.188 169.015 264.515 169.159 263.761 169.159ZM272.949 169.159C272.199 169.159 271.53 169.03 270.943 168.773C270.36 168.515 269.896 168.157 269.551 167.699C269.21 167.237 269.025 166.701 268.994 166.091H270.426C270.456 166.466 270.585 166.79 270.812 167.062C271.04 167.331 271.337 167.54 271.705 167.688C272.072 167.835 272.479 167.909 272.926 167.909C273.426 167.909 273.869 167.822 274.256 167.648C274.642 167.473 274.945 167.231 275.165 166.92C275.384 166.61 275.494 166.25 275.494 165.841C275.494 165.413 275.388 165.036 275.176 164.71C274.964 164.381 274.653 164.123 274.244 163.938C273.835 163.752 273.335 163.659 272.744 163.659H271.812V162.409H272.744C273.206 162.409 273.612 162.326 273.96 162.159C274.313 161.992 274.587 161.758 274.784 161.455C274.985 161.152 275.085 160.795 275.085 160.386C275.085 159.992 274.998 159.65 274.824 159.358C274.65 159.066 274.403 158.839 274.085 158.676C273.771 158.513 273.4 158.432 272.972 158.432C272.57 158.432 272.191 158.506 271.835 158.653C271.483 158.797 271.195 159.008 270.972 159.284C270.748 159.557 270.627 159.886 270.608 160.273H269.244C269.267 159.663 269.451 159.129 269.795 158.67C270.14 158.208 270.591 157.848 271.148 157.591C271.708 157.333 272.324 157.205 272.994 157.205C273.714 157.205 274.331 157.35 274.847 157.642C275.362 157.93 275.758 158.311 276.034 158.784C276.311 159.258 276.449 159.769 276.449 160.318C276.449 160.973 276.277 161.532 275.932 161.994C275.591 162.456 275.127 162.777 274.54 162.955V163.045C275.275 163.167 275.848 163.479 276.261 163.983C276.674 164.483 276.881 165.102 276.881 165.841C276.881 166.473 276.708 167.042 276.364 167.545C276.023 168.045 275.557 168.439 274.966 168.727C274.375 169.015 273.703 169.159 272.949 169.159Z" fill="black"/>
<rect y="185" width="278" height="5" rx="2.5" fill="#77787D"/>
<path d="M288.86 177.24L288.04 175.24L292.74 172.96H294.26V187H291.94V175.82L288.86 177.24ZM296.689 180.38C296.689 178.167 297.276 176.353 298.449 174.94C299.623 173.527 301.269 172.82 303.389 172.82C305.296 172.82 306.816 173.427 307.949 174.64L306.609 176.34C305.689 175.553 304.603 175.16 303.349 175.16C302.043 175.16 301.003 175.573 300.229 176.4C299.469 177.227 299.089 178.287 299.089 179.58C299.529 178.927 300.143 178.407 300.929 178.02C301.729 177.633 302.529 177.44 303.329 177.44C304.903 177.44 306.183 177.847 307.169 178.66C308.169 179.46 308.669 180.627 308.669 182.16C308.669 183.707 308.123 184.933 307.029 185.84C305.949 186.733 304.629 187.18 303.069 187.18C301.029 187.18 299.456 186.553 298.349 185.3C297.243 184.047 296.689 182.407 296.689 180.38ZM299.469 181.9C299.629 182.847 300.043 183.58 300.709 184.1C301.376 184.607 302.196 184.86 303.169 184.86C303.983 184.86 304.689 184.627 305.289 184.16C305.889 183.693 306.189 183.067 306.189 182.28C306.189 181.373 305.903 180.72 305.329 180.32C304.756 179.907 304.003 179.7 303.069 179.7C302.416 179.7 301.696 179.92 300.909 180.36C300.123 180.8 299.643 181.313 299.469 181.9ZM314.15 187.4L312.35 186.36L322.63 172.44L324.35 173.68L314.15 187.4ZM310.01 176.5C310.01 175.433 310.383 174.573 311.13 173.92C311.876 173.267 312.783 172.94 313.85 172.94C314.21 172.94 314.623 172.993 315.09 173.1C315.876 173.327 316.503 173.747 316.97 174.36C317.436 174.973 317.67 175.687 317.67 176.5C317.67 177.567 317.296 178.427 316.55 179.08C315.816 179.72 314.916 180.04 313.85 180.04C312.783 180.04 311.876 179.713 311.13 179.06C310.383 178.393 310.01 177.54 310.01 176.5ZM312.73 175.36C312.423 175.68 312.27 176.06 312.27 176.5C312.27 176.94 312.423 177.327 312.73 177.66C313.036 177.98 313.41 178.14 313.85 178.14C314.316 178.14 314.69 177.987 314.97 177.68C315.263 177.36 315.41 176.967 315.41 176.5C315.41 176.06 315.256 175.68 314.95 175.36C314.656 175.04 314.29 174.88 313.85 174.88C313.41 174.88 313.036 175.04 312.73 175.36ZM320.13 186.1C319.383 185.433 319.01 184.573 319.01 183.52C319.01 182.467 319.383 181.613 320.13 180.96C320.89 180.307 321.796 179.98 322.85 179.98C323.21 179.98 323.623 180.033 324.09 180.14C324.876 180.367 325.503 180.787 325.97 181.4C326.436 182 326.67 182.707 326.67 183.52C326.67 184.56 326.296 185.413 325.55 186.08C324.803 186.747 323.903 187.08 322.85 187.08C321.783 187.08 320.876 186.753 320.13 186.1ZM321.27 183.52C321.27 183.96 321.423 184.34 321.73 184.66C322.036 184.98 322.41 185.14 322.85 185.14C323.29 185.14 323.656 184.98 323.95 184.66C324.256 184.34 324.41 183.96 324.41 183.52C324.41 183.067 324.263 182.68 323.97 182.36C323.676 182.04 323.303 181.88 322.85 181.88C322.396 181.88 322.016 182.04 321.71 182.36C321.416 182.68 321.27 183.067 321.27 183.52Z" fill="#01BEFB"/>
<path d="M334 178.193L338.395 170L343 178.193H340.04C339.774 182.603 339.451 187.908 334 190C335.021 188.746 337.434 184.661 337.057 178.193H334Z" fill="#01BEFB"/>
<path d="M1.88636 222H0.409091L4.68182 210.364H6.13636L10.4091 222H8.93182L5.45455 212.205H5.36364L1.88636 222ZM2.43182 217.455H8.38636V218.705H2.43182V217.455ZM11.2216 210.364H12.9034L16.858 220.023H16.9943L20.9489 210.364H22.6307V222H21.3125V213.159H21.1989L17.5625 222H16.2898L12.6534 213.159H12.5398V222H11.2216V210.364ZM28.0469 222H24.456V210.364H28.206C29.3348 210.364 30.3007 210.597 31.1037 211.062C31.9067 211.525 32.5223 212.189 32.9503 213.057C33.3783 213.92 33.5923 214.955 33.5923 216.159C33.5923 217.371 33.3764 218.415 32.9446 219.29C32.5128 220.161 31.884 220.831 31.0582 221.301C30.2325 221.767 29.2287 222 28.0469 222ZM25.8651 220.75H27.956C28.9181 220.75 29.7154 220.564 30.348 220.193C30.9806 219.822 31.4522 219.294 31.7628 218.608C32.0734 217.922 32.2287 217.106 32.2287 216.159C32.2287 215.22 32.0753 214.411 31.7685 213.733C31.4616 213.051 31.0033 212.528 30.3935 212.165C29.7836 211.797 29.0241 211.614 28.1151 211.614H25.8651V220.75ZM38.456 222V210.364H42.3878C43.2969 210.364 44.0431 210.519 44.6264 210.83C45.2098 211.136 45.6416 211.559 45.9219 212.097C46.2022 212.634 46.3423 213.246 46.3423 213.932C46.3423 214.617 46.2022 215.225 45.9219 215.756C45.6416 216.286 45.2116 216.703 44.6321 217.006C44.0526 217.305 43.312 217.455 42.4105 217.455H39.2287V216.182H42.3651C42.9863 216.182 43.4863 216.091 43.8651 215.909C44.2476 215.727 44.5241 215.47 44.6946 215.136C44.8688 214.799 44.956 214.398 44.956 213.932C44.956 213.466 44.8688 213.059 44.6946 212.71C44.5204 212.362 44.242 212.093 43.8594 211.903C43.4768 211.71 42.9711 211.614 42.3423 211.614H39.8651V222H38.456ZM43.9332 216.773L46.7969 222H45.1605L42.3423 216.773H43.9332ZM48.3722 225.273C48.1449 225.273 47.9422 225.254 47.7642 225.216C47.5862 225.182 47.4631 225.148 47.3949 225.114L47.7358 223.932C48.0616 224.015 48.3494 224.045 48.5994 224.023C48.8494 224 49.071 223.888 49.2642 223.688C49.4612 223.491 49.6411 223.17 49.804 222.727L50.054 222.045L46.8267 213.273H48.2812L50.6903 220.227H50.7812L53.1903 213.273H54.6449L50.9403 223.273C50.7737 223.723 50.5672 224.097 50.321 224.392C50.0748 224.691 49.7888 224.913 49.4631 225.057C49.1411 225.201 48.7775 225.273 48.3722 225.273ZM55.1648 222V220.977L60.1193 214.614V214.523H55.3239V213.273H61.8466V214.341L57.0284 220.659V220.75H62.0057V222H55.1648ZM66.4801 222.182C65.6392 222.182 64.9138 221.996 64.304 221.625C63.6979 221.25 63.2301 220.727 62.9006 220.057C62.5748 219.383 62.4119 218.598 62.4119 217.705C62.4119 216.811 62.5748 216.023 62.9006 215.341C63.2301 214.655 63.6884 214.121 64.2756 213.739C64.8665 213.352 65.5559 213.159 66.3438 213.159C66.7983 213.159 67.2472 213.235 67.6903 213.386C68.1335 213.538 68.5369 213.784 68.9006 214.125C69.2642 214.462 69.554 214.909 69.7699 215.466C69.9858 216.023 70.0938 216.708 70.0938 217.523V218.091H63.3665V216.932H68.7301C68.7301 216.439 68.6316 216 68.4347 215.614C68.2415 215.227 67.965 214.922 67.6051 214.699C67.2491 214.475 66.8286 214.364 66.3438 214.364C65.8097 214.364 65.3475 214.496 64.9574 214.761C64.571 215.023 64.2737 215.364 64.0653 215.784C63.857 216.205 63.7528 216.655 63.7528 217.136V217.909C63.7528 218.568 63.8665 219.127 64.0938 219.585C64.3248 220.04 64.6449 220.386 65.054 220.625C65.4631 220.86 65.9384 220.977 66.4801 220.977C66.8324 220.977 67.1506 220.928 67.4347 220.83C67.7225 220.727 67.9706 220.576 68.179 220.375C68.3873 220.17 68.5483 219.917 68.6619 219.614L69.9574 219.977C69.821 220.417 69.5919 220.803 69.2699 221.136C68.9479 221.466 68.5502 221.723 68.0767 221.909C67.6032 222.091 67.071 222.182 66.4801 222.182ZM72.4744 216.75V222H71.1335V213.273H72.429V214.636H72.5426C72.7472 214.193 73.0578 213.837 73.4744 213.568C73.8911 213.295 74.429 213.159 75.0881 213.159C75.679 213.159 76.196 213.28 76.6392 213.523C77.0824 213.761 77.4271 214.125 77.6733 214.614C77.9195 215.098 78.0426 215.712 78.0426 216.455V222H76.7017V216.545C76.7017 215.86 76.5237 215.326 76.1676 214.943C75.8116 214.557 75.3229 214.364 74.7017 214.364C74.2737 214.364 73.8911 214.456 73.554 214.642C73.2206 214.828 72.9574 215.098 72.7642 215.455C72.571 215.811 72.4744 216.242 72.4744 216.75ZM86.902 222.159C86.152 222.159 85.4834 222.03 84.8963 221.773C84.313 221.515 83.849 221.157 83.5043 220.699C83.1634 220.237 82.9777 219.701 82.9474 219.091H84.3793C84.4096 219.466 84.5384 219.79 84.7656 220.062C84.9929 220.331 85.2902 220.54 85.6577 220.688C86.0251 220.835 86.4323 220.909 86.8793 220.909C87.3793 220.909 87.8224 220.822 88.2088 220.648C88.5952 220.473 88.8982 220.231 89.1179 219.92C89.3376 219.61 89.4474 219.25 89.4474 218.841C89.4474 218.413 89.3414 218.036 89.1293 217.71C88.9171 217.381 88.6065 217.123 88.1974 216.938C87.7884 216.752 87.2884 216.659 86.6974 216.659H85.7656V215.409H86.6974C87.1596 215.409 87.5649 215.326 87.9134 215.159C88.2656 214.992 88.5402 214.758 88.7372 214.455C88.938 214.152 89.0384 213.795 89.0384 213.386C89.0384 212.992 88.9512 212.65 88.777 212.358C88.6027 212.066 88.3565 211.839 88.0384 211.676C87.724 211.513 87.3527 211.432 86.9247 211.432C86.5232 211.432 86.1444 211.506 85.7884 211.653C85.4361 211.797 85.1482 212.008 84.9247 212.284C84.7012 212.557 84.58 212.886 84.5611 213.273H83.1974C83.2202 212.663 83.4039 212.129 83.7486 211.67C84.0933 211.208 84.544 210.848 85.1009 210.591C85.6615 210.333 86.277 210.205 86.9474 210.205C87.6671 210.205 88.2846 210.35 88.7997 210.642C89.3149 210.93 89.7107 211.311 89.9872 211.784C90.2637 212.258 90.402 212.769 90.402 213.318C90.402 213.973 90.2296 214.532 89.8849 214.994C89.544 215.456 89.08 215.777 88.4929 215.955V216.045C89.2277 216.167 89.8016 216.479 90.2145 216.983C90.6274 217.483 90.8338 218.102 90.8338 218.841C90.8338 219.473 90.6615 220.042 90.3168 220.545C89.9759 221.045 89.5099 221.439 88.919 221.727C88.3281 222.015 87.6558 222.159 86.902 222.159ZM99.5895 222.159C98.8395 222.159 98.1709 222.03 97.5838 221.773C97.0005 221.515 96.5365 221.157 96.1918 220.699C95.8509 220.237 95.6652 219.701 95.6349 219.091H97.0668C97.0971 219.466 97.2259 219.79 97.4531 220.062C97.6804 220.331 97.9777 220.54 98.3452 220.688C98.7126 220.835 99.1198 220.909 99.5668 220.909C100.067 220.909 100.51 220.822 100.896 220.648C101.283 220.473 101.586 220.231 101.805 219.92C102.025 219.61 102.135 219.25 102.135 218.841C102.135 218.413 102.029 218.036 101.817 217.71C101.605 217.381 101.294 217.123 100.885 216.938C100.476 216.752 99.9759 216.659 99.3849 216.659H98.4531V215.409H99.3849C99.8471 215.409 100.252 215.326 100.601 215.159C100.953 214.992 101.228 214.758 101.425 214.455C101.625 214.152 101.726 213.795 101.726 213.386C101.726 212.992 101.639 212.65 101.464 212.358C101.29 212.066 101.044 211.839 100.726 211.676C100.411 211.513 100.04 211.432 99.6122 211.432C99.2107 211.432 98.8319 211.506 98.4759 211.653C98.1236 211.797 97.8357 212.008 97.6122 212.284C97.3887 212.557 97.2675 212.886 97.2486 213.273H95.8849C95.9077 212.663 96.0914 212.129 96.4361 211.67C96.7808 211.208 97.2315 210.848 97.7884 210.591C98.349 210.333 98.9645 210.205 99.6349 210.205C100.355 210.205 100.972 210.35 101.487 210.642C102.002 210.93 102.398 211.311 102.675 211.784C102.951 212.258 103.089 212.769 103.089 213.318C103.089 213.973 102.917 214.532 102.572 214.994C102.232 215.456 101.768 215.777 101.18 215.955V216.045C101.915 216.167 102.489 216.479 102.902 216.983C103.315 217.483 103.521 218.102 103.521 218.841C103.521 219.473 103.349 220.042 103.004 220.545C102.663 221.045 102.197 221.439 101.607 221.727C101.016 222.015 100.343 222.159 99.5895 222.159ZM104.845 222V220.977L108.686 216.773C109.137 216.28 109.508 215.852 109.8 215.489C110.091 215.121 110.307 214.777 110.447 214.455C110.591 214.129 110.663 213.788 110.663 213.432C110.663 213.023 110.565 212.669 110.368 212.369C110.175 212.07 109.91 211.839 109.572 211.676C109.235 211.513 108.857 211.432 108.436 211.432C107.989 211.432 107.599 211.525 107.266 211.71C106.936 211.892 106.68 212.148 106.499 212.477C106.321 212.807 106.232 213.193 106.232 213.636H104.891C104.891 212.955 105.048 212.356 105.362 211.841C105.677 211.326 106.105 210.924 106.646 210.636C107.192 210.348 107.804 210.205 108.482 210.205C109.163 210.205 109.768 210.348 110.294 210.636C110.821 210.924 111.233 211.312 111.533 211.801C111.832 212.29 111.982 212.833 111.982 213.432C111.982 213.86 111.904 214.278 111.749 214.688C111.597 215.093 111.332 215.545 110.953 216.045C110.578 216.542 110.057 217.148 109.391 217.864L106.777 220.659V220.75H112.186V222H104.845ZM117.328 222.159C116.472 222.159 115.743 221.926 115.141 221.46C114.538 220.991 114.078 220.311 113.76 219.42C113.442 218.527 113.283 217.447 113.283 216.182C113.283 214.924 113.442 213.85 113.76 212.96C114.082 212.066 114.544 211.384 115.146 210.915C115.752 210.441 116.48 210.205 117.328 210.205C118.177 210.205 118.902 210.441 119.504 210.915C120.11 211.384 120.572 212.066 120.891 212.96C121.213 213.85 121.374 214.924 121.374 216.182C121.374 217.447 121.214 218.527 120.896 219.42C120.578 220.311 120.118 220.991 119.516 221.46C118.913 221.926 118.184 222.159 117.328 222.159ZM117.328 220.909C118.177 220.909 118.836 220.5 119.305 219.682C119.775 218.864 120.01 217.697 120.01 216.182C120.01 215.174 119.902 214.316 119.686 213.608C119.474 212.9 119.167 212.36 118.766 211.989C118.368 211.617 117.889 211.432 117.328 211.432C116.487 211.432 115.83 211.847 115.357 212.676C114.883 213.502 114.646 214.67 114.646 216.182C114.646 217.189 114.752 218.045 114.964 218.75C115.177 219.455 115.482 219.991 115.879 220.358C116.281 220.725 116.764 220.909 117.328 220.909ZM126.328 222.159C125.472 222.159 124.743 221.926 124.141 221.46C123.538 220.991 123.078 220.311 122.76 219.42C122.442 218.527 122.283 217.447 122.283 216.182C122.283 214.924 122.442 213.85 122.76 212.96C123.082 212.066 123.544 211.384 124.146 210.915C124.752 210.441 125.48 210.205 126.328 210.205C127.177 210.205 127.902 210.441 128.504 210.915C129.11 211.384 129.572 212.066 129.891 212.96C130.213 213.85 130.374 214.924 130.374 216.182C130.374 217.447 130.214 218.527 129.896 219.42C129.578 220.311 129.118 220.991 128.516 221.46C127.913 221.926 127.184 222.159 126.328 222.159ZM126.328 220.909C127.177 220.909 127.836 220.5 128.305 219.682C128.775 218.864 129.01 217.697 129.01 216.182C129.01 215.174 128.902 214.316 128.686 213.608C128.474 212.9 128.167 212.36 127.766 211.989C127.368 211.617 126.889 211.432 126.328 211.432C125.487 211.432 124.83 211.847 124.357 212.676C123.883 213.502 123.646 214.67 123.646 216.182C123.646 217.189 123.752 218.045 123.964 218.75C124.177 219.455 124.482 219.991 124.879 220.358C125.281 220.725 125.764 220.909 126.328 220.909ZM139.374 210.364H140.783V218.068C140.783 218.864 140.595 219.574 140.22 220.199C139.849 220.82 139.324 221.311 138.646 221.67C137.968 222.027 137.173 222.205 136.26 222.205C135.347 222.205 134.552 222.027 133.874 221.67C133.196 221.311 132.669 220.82 132.294 220.199C131.923 219.574 131.737 218.864 131.737 218.068V210.364H133.146V217.955C133.146 218.523 133.271 219.028 133.521 219.472C133.771 219.911 134.127 220.258 134.589 220.511C135.055 220.761 135.612 220.886 136.26 220.886C136.908 220.886 137.464 220.761 137.93 220.511C138.396 220.258 138.752 219.911 138.999 219.472C139.249 219.028 139.374 218.523 139.374 217.955V210.364Z" fill="black"/>
<path d="M216.668 222.159C215.918 222.159 215.249 222.03 214.662 221.773C214.079 221.515 213.615 221.157 213.27 220.699C212.929 220.237 212.743 219.701 212.713 219.091H214.145C214.175 219.466 214.304 219.79 214.531 220.062C214.759 220.331 215.056 220.54 215.423 220.688C215.791 220.835 216.198 220.909 216.645 220.909C217.145 220.909 217.588 220.822 217.974 220.648C218.361 220.473 218.664 220.231 218.884 219.92C219.103 219.61 219.213 219.25 219.213 218.841C219.213 218.413 219.107 218.036 218.895 217.71C218.683 217.381 218.372 217.123 217.963 216.938C217.554 216.752 217.054 216.659 216.463 216.659H215.531V215.409H216.463C216.925 215.409 217.33 215.326 217.679 215.159C218.031 214.992 218.306 214.758 218.503 214.455C218.704 214.152 218.804 213.795 218.804 213.386C218.804 212.992 218.717 212.65 218.543 212.358C218.368 212.066 218.122 211.839 217.804 211.676C217.49 211.513 217.118 211.432 216.69 211.432C216.289 211.432 215.91 211.506 215.554 211.653C215.202 211.797 214.914 212.008 214.69 212.284C214.467 212.557 214.346 212.886 214.327 213.273H212.963C212.986 212.663 213.17 212.129 213.514 211.67C213.859 211.208 214.31 210.848 214.866 210.591C215.427 210.333 216.043 210.205 216.713 210.205C217.433 210.205 218.05 210.35 218.565 210.642C219.08 210.93 219.476 211.311 219.753 211.784C220.029 212.258 220.168 212.769 220.168 213.318C220.168 213.973 219.995 214.532 219.651 214.994C219.31 215.456 218.846 215.777 218.259 215.955V216.045C218.993 216.167 219.567 216.479 219.98 216.983C220.393 217.483 220.599 218.102 220.599 218.841C220.599 219.473 220.427 220.042 220.082 220.545C219.741 221.045 219.276 221.439 218.685 221.727C218.094 222.015 217.421 222.159 216.668 222.159ZM225.651 222.159C224.87 222.159 224.181 222.021 223.582 221.744C222.988 221.464 222.524 221.08 222.19 220.591C221.857 220.098 221.692 219.538 221.696 218.909C221.692 218.417 221.789 217.962 221.986 217.545C222.183 217.125 222.452 216.775 222.793 216.494C223.137 216.21 223.522 216.03 223.946 215.955V215.886C223.389 215.742 222.946 215.43 222.616 214.949C222.287 214.464 222.124 213.913 222.128 213.295C222.124 212.705 222.274 212.176 222.577 211.71C222.88 211.244 223.296 210.877 223.827 210.608C224.361 210.339 224.969 210.205 225.651 210.205C226.325 210.205 226.927 210.339 227.457 210.608C227.988 210.877 228.404 211.244 228.707 211.71C229.014 212.176 229.17 212.705 229.173 213.295C229.17 213.913 229.001 214.464 228.668 214.949C228.338 215.43 227.901 215.742 227.355 215.886V215.955C227.776 216.03 228.154 216.21 228.491 216.494C228.829 216.775 229.098 217.125 229.298 217.545C229.499 217.962 229.601 218.417 229.605 218.909C229.601 219.538 229.431 220.098 229.094 220.591C228.76 221.08 228.296 221.464 227.702 221.744C227.111 222.021 226.427 222.159 225.651 222.159ZM225.651 220.909C226.177 220.909 226.632 220.824 227.014 220.653C227.397 220.483 227.692 220.242 227.901 219.932C228.109 219.621 228.215 219.258 228.219 218.841C228.215 218.402 228.101 218.013 227.878 217.676C227.654 217.339 227.349 217.074 226.963 216.881C226.58 216.687 226.143 216.591 225.651 216.591C225.154 216.591 224.711 216.687 224.321 216.881C223.935 217.074 223.63 217.339 223.406 217.676C223.187 218.013 223.079 218.402 223.082 218.841C223.079 219.258 223.179 219.621 223.384 219.932C223.592 220.242 223.889 220.483 224.276 220.653C224.662 220.824 225.12 220.909 225.651 220.909ZM225.651 215.386C226.067 215.386 226.437 215.303 226.759 215.136C227.084 214.97 227.34 214.737 227.526 214.438C227.711 214.138 227.806 213.788 227.81 213.386C227.806 212.992 227.713 212.65 227.531 212.358C227.349 212.062 227.098 211.835 226.776 211.676C226.454 211.513 226.079 211.432 225.651 211.432C225.215 211.432 224.834 211.513 224.509 211.676C224.183 211.835 223.931 212.062 223.753 212.358C223.575 212.65 223.488 212.992 223.491 213.386C223.488 213.788 223.577 214.138 223.759 214.438C223.944 214.737 224.2 214.97 224.526 215.136C224.851 215.303 225.226 215.386 225.651 215.386ZM234.874 210.364V222H233.464V211.841H233.396L230.555 213.727V212.295L233.464 210.364H234.874ZM241.084 222.159C240.607 222.152 240.129 222.061 239.652 221.886C239.175 221.712 238.739 221.419 238.345 221.006C237.951 220.589 237.635 220.027 237.396 219.318C237.158 218.606 237.038 217.712 237.038 216.636C237.038 215.606 237.135 214.693 237.328 213.898C237.521 213.098 237.802 212.426 238.169 211.881C238.536 211.331 238.98 210.915 239.499 210.631C240.021 210.347 240.61 210.205 241.266 210.205C241.917 210.205 242.497 210.335 243.004 210.597C243.516 210.854 243.932 211.214 244.254 211.676C244.576 212.138 244.785 212.67 244.879 213.273H243.493C243.364 212.75 243.114 212.316 242.743 211.972C242.372 211.627 241.879 211.455 241.266 211.455C240.364 211.455 239.654 211.847 239.135 212.631C238.62 213.415 238.36 214.515 238.357 215.932H238.447C238.66 215.61 238.911 215.335 239.203 215.108C239.499 214.877 239.824 214.699 240.18 214.574C240.536 214.449 240.913 214.386 241.311 214.386C241.978 214.386 242.588 214.553 243.141 214.886C243.694 215.216 244.137 215.672 244.47 216.256C244.804 216.835 244.97 217.5 244.97 218.25C244.97 218.97 244.809 219.629 244.487 220.227C244.165 220.822 243.713 221.295 243.129 221.648C242.55 221.996 241.868 222.167 241.084 222.159ZM241.084 220.909C241.561 220.909 241.989 220.79 242.368 220.551C242.75 220.312 243.052 219.992 243.271 219.591C243.495 219.189 243.607 218.742 243.607 218.25C243.607 217.769 243.499 217.331 243.283 216.938C243.071 216.54 242.777 216.223 242.402 215.989C242.031 215.754 241.607 215.636 241.129 215.636C240.769 215.636 240.434 215.708 240.124 215.852C239.813 215.992 239.54 216.186 239.305 216.432C239.074 216.678 238.893 216.96 238.76 217.278C238.627 217.593 238.561 217.924 238.561 218.273C238.561 218.735 238.669 219.167 238.885 219.568C239.105 219.97 239.404 220.294 239.783 220.54C240.165 220.786 240.599 220.909 241.084 220.909Z" fill="black"/>
<rect y="238" width="246" height="5" rx="2.5" fill="#77787D"/>
<path d="M258.82 230L256.76 229.08C257.147 228 257.84 227.187 258.84 226.64C259.853 226.093 260.98 225.82 262.22 225.82C263.007 225.82 263.767 225.927 264.5 226.14C265.233 226.353 265.88 226.74 266.44 227.3C267 227.86 267.28 228.54 267.28 229.34C267.28 230.087 267.073 230.76 266.66 231.36C266.26 231.947 265.713 232.34 265.02 232.54C265.82 232.7 266.447 233.08 266.9 233.68C267.353 234.28 267.58 234.993 267.58 235.82C267.58 237.18 267.053 238.247 266 239.02C264.947 239.78 263.72 240.16 262.32 240.16C261.013 240.16 259.807 239.867 258.7 239.28C257.607 238.68 256.867 237.813 256.48 236.68L258.68 235.76C258.813 236.053 259.04 236.36 259.36 236.68C259.653 237.013 260.067 237.293 260.6 237.52C261.147 237.733 261.653 237.84 262.12 237.84C262.867 237.84 263.547 237.68 264.16 237.36C264.773 237.027 265.08 236.52 265.08 235.84C265.08 235.427 264.973 235.08 264.76 234.8C264.547 234.52 264.24 234.327 263.84 234.22C263.453 234.1 263.1 234.027 262.78 234C262.473 233.96 262.107 233.94 261.68 233.94H260.32V231.74H261.76C262.48 231.74 263.167 231.587 263.82 231.28C264.473 230.96 264.8 230.48 264.8 229.84C264.8 229.227 264.507 228.787 263.92 228.52C263.347 228.24 262.713 228.1 262.02 228.1C260.527 228.1 259.46 228.733 258.82 230ZM271.368 233.86L269.348 233.66L269.988 226H279.128V228.26H272.108L271.808 231.36C272.461 231.027 273.288 230.86 274.288 230.86C275.834 230.86 277.094 231.253 278.068 232.04C279.041 232.813 279.528 233.953 279.528 235.46C279.528 236.927 279.001 238.08 277.948 238.92C276.908 239.747 275.641 240.16 274.148 240.16C272.854 240.16 271.714 239.88 270.728 239.32C269.741 238.747 269.048 237.893 268.648 236.76L270.888 235.94C271.141 236.567 271.581 237.04 272.208 237.36C272.848 237.68 273.534 237.84 274.268 237.84C275.028 237.84 275.681 237.64 276.228 237.24C276.774 236.84 277.048 236.273 277.048 235.54C277.048 234.687 276.761 234.06 276.188 233.66C275.614 233.247 274.888 233.04 274.008 233.04C272.914 233.04 272.034 233.313 271.368 233.86ZM285.255 240.4L283.455 239.36L293.735 225.44L295.455 226.68L285.255 240.4ZM281.115 229.5C281.115 228.433 281.488 227.573 282.235 226.92C282.982 226.267 283.888 225.94 284.955 225.94C285.315 225.94 285.728 225.993 286.195 226.1C286.982 226.327 287.608 226.747 288.075 227.36C288.542 227.973 288.775 228.687 288.775 229.5C288.775 230.567 288.402 231.427 287.655 232.08C286.922 232.72 286.022 233.04 284.955 233.04C283.888 233.04 282.982 232.713 282.235 232.06C281.488 231.393 281.115 230.54 281.115 229.5ZM283.835 228.36C283.528 228.68 283.375 229.06 283.375 229.5C283.375 229.94 283.528 230.327 283.835 230.66C284.142 230.98 284.515 231.14 284.955 231.14C285.422 231.14 285.795 230.987 286.075 230.68C286.368 230.36 286.515 229.967 286.515 229.5C286.515 229.06 286.362 228.68 286.055 228.36C285.762 228.04 285.395 227.88 284.955 227.88C284.515 227.88 284.142 228.04 283.835 228.36ZM291.235 239.1C290.488 238.433 290.115 237.573 290.115 236.52C290.115 235.467 290.488 234.613 291.235 233.96C291.995 233.307 292.902 232.98 293.955 232.98C294.315 232.98 294.728 233.033 295.195 233.14C295.982 233.367 296.608 233.787 297.075 234.4C297.542 235 297.775 235.707 297.775 236.52C297.775 237.56 297.402 238.413 296.655 239.08C295.908 239.747 295.008 240.08 293.955 240.08C292.888 240.08 291.982 239.753 291.235 239.1ZM292.375 236.52C292.375 236.96 292.528 237.34 292.835 237.66C293.142 237.98 293.515 238.14 293.955 238.14C294.395 238.14 294.762 237.98 295.055 237.66C295.362 237.34 295.515 236.96 295.515 236.52C295.515 236.067 295.368 235.68 295.075 235.36C294.782 235.04 294.408 234.88 293.955 234.88C293.502 234.88 293.122 235.04 292.815 235.36C292.522 235.68 292.375 236.067 292.375 236.52Z" fill="#01BEFB"/>
<path d="M305 231.193L309.395 223L314 231.193H311.04C310.774 235.603 310.451 240.908 305 243C306.021 241.746 308.434 237.661 308.057 231.193H305Z" fill="#01BEFB"/>
<defs>
<linearGradient id="paint0_linear_2577_66397" x1="0" y1="81.5" x2="289" y2="81.5" gradientUnits="userSpaceOnUse">
<stop stop-color="#004AF0"/>
<stop offset="1" stop-color="#00BFFB"/>
</linearGradient>
</defs>
</svg>
