<svg width="1920" height="186" viewBox="0 0 1920 186" fill="none" xmlns="http://www.w3.org/2000/svg">
<g filter="url(#filter0_d_2571_63561)">
<path d="M-86.4195 26.2562V26.06L-89.584 27.4015C-97.9534 30.9494 -105.378 35.8481 -111.855 41.7767C-112.4 42.2175 -112.892 42.6948 -113.304 43.2149C-113.594 43.505 -114.002 43.9216 -114.421 44.4342C-119.239 49.4637 -123.311 55.3096 -126.545 61.6558C-129.8 68.0457 -132.011 75.0603 -132.968 82.2896C-133.372 84.1148 -133.693 85.9203 -133.807 87.7627C-134.016 89.5639 -134.12 91.4573 -134.12 93.3436L-134.12 93.4431C-134.12 95.1829 -134.12 97.3484 -133.791 99.2563C-133.582 101.017 -133.273 102.866 -132.974 104.651L-132.973 104.658C-131.919 111.898 -129.707 118.828 -126.443 125.234C-123.193 131.614 -119.1 137.477 -114.165 142.713L-114.03 142.857L-113.872 142.975C-113.637 143.15 -113.486 143.302 -113.31 143.535L-111.491 142.167L-113.31 143.535C-112.906 144.073 -112.396 144.581 -111.939 145.036L-111.877 145.098L-111.843 145.132L-111.808 145.165C-105.307 151.126 -97.8615 155.937 -89.4823 159.489C-81.0453 163.065 -71.9898 164.846 -62.4404 164.846H102.621H104.898V162.57V139.427V137.151H102.621H-62.5422C-67.6686 137.151 -72.5956 136.284 -77.2326 134.648C-81.914 132.895 -86.1712 130.572 -89.9274 127.594C-93.6737 124.624 -96.8674 120.965 -99.4962 116.888C-102.119 112.72 -104.04 108.296 -105.096 103.511L-105.097 103.507C-105.491 101.736 -105.788 100.058 -106.095 98.3268L-106.097 98.3148L-106.099 98.3028C-106.385 96.7809 -106.569 95.1998 -106.569 93.6481V93.3436C-106.569 91.7919 -106.385 90.2107 -106.099 88.6889L-106.097 88.6769L-106.095 88.6649C-105.792 86.9526 -105.495 85.3784 -105.103 83.7157L-105.099 83.6996L-105.096 83.6834C-104.037 78.8837 -102.109 74.3554 -99.4899 70.1951C-96.8769 66.0442 -93.6907 62.4827 -89.9274 59.499L-89.9161 59.4901L-89.9049 59.481C-86.2699 56.5231 -81.9203 54.1983 -77.2129 52.4375C-72.6207 50.7198 -67.7064 49.9427 -62.5422 49.9427H102.52H104.796V47.6665V24.4219V22.1457H102.52H-62.5422C-70.9082 22.1457 -78.8953 23.5125 -86.4195 26.2562Z" stroke="#8000FF" stroke-width="4.55237"/>
<path d="M217.04 85.469L232.181 95.909L238.648 100.592V162.464V164.74H240.924H264.024H266.301V162.464V100.582L272.674 95.9026L287.711 85.4649L287.716 85.4614L339.616 49.2242L339.622 49.2197L339.628 49.2152L372.295 26.0721L378.129 21.9387H370.979H330.884H330.157L329.565 22.3594L299.158 43.9657L299.138 43.9799L252.225 76.5569L205.712 43.9824L205.696 43.9709L175.692 22.5649L175.662 22.5432L175.63 22.5225L175.325 22.3195L174.752 21.9387H174.065H133.562H126.346L132.257 26.0791L217.026 85.4594L217.033 85.4642L217.04 85.469Z" stroke="#8000FF" stroke-width="4.55237"/>
<path d="M620.958 87.6678C620.437 87.2542 619.896 86.8676 619.348 86.5075C619.609 85.9294 619.907 85.4199 620.237 84.8562C620.337 84.6851 620.44 84.5089 620.545 84.3244L620.557 84.3036L620.569 84.2825C623.903 78.1673 625.629 71.4999 625.629 64.516C625.629 57.555 623.914 50.8898 620.576 44.9658C617.034 38.0245 611.876 32.3489 605.228 28.1779C598.545 23.9851 591 21.841 582.851 21.841H402.016H399.739V24.1172V162.367V164.643H402.016H595.673C604.014 164.643 611.663 162.505 618.355 158.306C624.99 154.143 630.271 148.564 633.828 141.576L633.839 141.554L633.85 141.533C635.256 138.619 636.317 135.427 637.153 132.3L637.156 132.291L637.158 132.282C638.022 128.944 638.452 125.504 638.452 121.968C638.452 118.432 638.022 114.992 637.158 111.653C636.315 108.396 635.251 105.306 633.85 102.403L631.838 98.2363L631.477 98.9576C630.903 98.089 630.303 97.2236 629.662 96.3556C628.161 94.3246 626.558 92.5131 624.961 90.9197L624.922 90.8815L624.882 90.8451C623.723 89.7937 622.447 88.7321 620.958 87.6678ZM427.494 107.293H595.673C597.743 107.293 599.673 107.65 601.495 108.429C603.387 109.238 604.971 110.299 606.278 111.602C607.63 112.95 608.747 114.515 609.422 116.284L609.446 116.346L609.474 116.407C610.234 118.093 610.595 119.998 610.595 122.069V122.171C610.595 124.233 610.237 126.156 609.457 127.971C608.647 129.857 607.584 131.437 606.278 132.74C604.971 134.043 603.387 135.104 601.495 135.912C599.673 136.691 597.743 137.049 595.673 137.049H427.494V107.293ZM596.817 59.273L596.825 59.292L596.833 59.3109C597.521 60.9411 597.875 62.7694 597.875 64.6175C597.875 66.4801 597.516 68.4078 596.833 70.0256C596.096 71.7714 595.21 73.251 594.011 74.5324C592.732 75.8993 591.303 77.0508 589.629 77.9294C587.916 78.8285 586.202 79.4163 584.564 79.5972H427.392V49.8409H584.468C586.199 50.0214 587.921 50.6063 589.671 51.4293C591.377 52.3303 592.784 53.3909 594.011 54.7027C595.205 55.9789 596.085 57.4479 596.817 59.273Z" stroke="#8000FF" stroke-width="4.55237"/>
<path d="M672.568 162.464V164.74H674.844H909.309H911.585V162.464V139.423V137.146H909.309H700.322V107.289H909.309H911.585V105.013V81.8695V79.5933H909.309H700.322V49.8371H909.309H911.585V47.5609V24.2148V21.9387H909.309H674.844H672.568V24.2148V162.464Z" stroke="#8000FF" stroke-width="4.55237"/>
<path d="M973.557 162.464V107.289H1141.74C1143.92 107.289 1145.83 107.652 1147.52 108.409C1149.37 109.24 1151.05 110.316 1152.34 111.598C1153.69 112.947 1154.81 114.511 1155.48 116.28L1155.51 116.342L1155.54 116.404C1156.3 118.089 1156.66 119.994 1156.66 122.065V162.464V164.74H1158.93H1182.14H1184.41V162.464V122.065C1184.41 115.031 1182.91 108.475 1179.78 102.441L1179.75 102.378L1179.71 102.317C1178.49 100.283 1177.22 98.2783 1175.73 96.3567C1174.96 95.2526 1174.12 94.2421 1173.28 93.2997C1174.12 92.3805 1174.92 91.3919 1175.71 90.3428L1175.73 90.3264L1175.74 90.3097C1176.55 89.1884 1177.37 88.0205 1178.17 86.808L1178.5 87.1423L1179.9 84.2962C1182.9 78.2095 1184.51 71.6747 1184.51 64.6137C1184.51 57.5889 1183.02 51.0313 1179.88 45.0921C1176.34 38.138 1171.18 32.4496 1164.41 28.2713C1157.72 24.0737 1149.97 21.9387 1141.74 21.9387H948.078H945.802V24.2148V162.464V164.74H948.078H971.28H973.557V162.464ZM1153.26 74.4722L1153.23 74.4999L1153.2 74.5286C1151.92 75.8954 1150.49 77.0469 1148.82 77.9256C1147.08 78.8369 1145.47 79.4146 1143.86 79.5933H973.455V49.8371H1143.75C1145.39 50.0174 1147.11 50.6007 1148.86 51.4255C1150.55 52.3194 1151.95 53.3706 1153.17 54.6684C1154.33 56.0032 1155.31 57.5171 1156.13 59.3134C1156.83 61.0728 1157.17 62.8023 1157.17 64.6137C1157.17 66.4763 1156.81 68.4039 1156.12 70.0218C1155.39 71.7522 1154.42 73.3089 1153.26 74.4722Z" stroke="#8000FF" stroke-width="4.55237"/>
<path d="M1246.7 24.2148V21.9387H1244.42H1221.22H1218.94V24.2148V162.464V164.74H1221.22H1441.03H1443.31V162.464V139.423V137.146H1441.03H1246.7V24.2148Z" stroke="#8000FF" stroke-width="4.55237"/>
<path d="M1505.38 24.2148V21.9387H1503.1H1479.8H1477.52V24.2148V162.464V164.74H1479.8H1503.1H1505.38V162.464V24.2148Z" stroke="#8000FF" stroke-width="4.55237"/>
<path d="M1751.56 24.218V122.385L1566.27 32.0182L1566.27 32.018L1543.58 20.954L1540.3 19.358V23V161.655V163.932H1542.58H1565.88H1568.16V161.655V63.694L1658.2 107.67L1658.2 107.671L1753.45 154.057L1753.45 154.059L1776.04 165.121L1779.32 166.726V163.076V24.218V21.9419H1777.04H1753.84H1751.56V24.218Z" stroke="#8000FF" stroke-width="4.55237"/>
<path d="M2051 49.8371H2053.28V47.5609V24.2148V21.9387H2051H1816.54H1814.26V24.2148V162.464V164.74H1816.54H2051H2053.28V162.464V139.423V137.146H2051H1842.02V107.289H2051H2053.28V105.013V81.8695V79.5933H2051H1842.02V49.8371H2051Z" stroke="#8000FF" stroke-width="4.55237"/>
</g>
<defs>
<filter id="filter0_d_2571_63561" x="-151.745" y="0.367558" width="2222.65" height="185.356" filterUnits="userSpaceOnUse" color-interpolation-filters="sRGB">
<feFlood flood-opacity="0" result="BackgroundImageFix"/>
<feColorMatrix in="SourceAlpha" type="matrix" values="0 0 0 0 0 0 0 0 0 0 0 0 0 0 0 0 0 0 127 0" result="hardAlpha"/>
<feOffset/>
<feGaussianBlur stdDeviation="7.67419"/>
<feComposite in2="hardAlpha" operator="out"/>
<feColorMatrix type="matrix" values="0 0 0 0 0.833333 0 0 0 0 0 0 0 0 0 1 0 0 0 1 0"/>
<feBlend mode="normal" in2="BackgroundImageFix" result="effect1_dropShadow_2571_63561"/>
<feBlend mode="normal" in="SourceGraphic" in2="effect1_dropShadow_2571_63561" result="shape"/>
</filter>
</defs>
</svg>
