<svg xmlns="http://www.w3.org/2000/svg" width="20" height="20" viewBox="0 0 20 20" fill="none">
    <path fill-rule="evenodd" clip-rule="evenodd"
        d="M1.30078 6.00005C1.30078 4.50888 2.50961 3.30005 4.00078 3.30005H16.0008C17.492 3.30005 18.7008 4.50888 18.7008 6.00005V12.174C18.7008 13.6651 17.492 14.874 16.0008 14.874H15.7642C15.5015 14.874 15.2449 14.9536 15.0283 15.1023L11.7733 17.3377C10.6651 18.0987 9.24576 16.9524 9.75648 15.7089C9.92001 15.3107 9.62723 14.874 9.19679 14.874H4.00078C2.50961 14.874 1.30078 13.6651 1.30078 12.174V6.00005ZM4.00078 4.70005C3.28281 4.70005 2.70078 5.28208 2.70078 6.00005V12.174C2.70078 12.8919 3.28281 13.474 4.00078 13.474H9.19679C10.5723 13.474 11.5236 14.8199 11.1038 16.0991L14.2358 13.9483C14.6856 13.6393 15.2185 13.474 15.7642 13.474H16.0008C16.7188 13.474 17.3008 12.8919 17.3008 12.174V6.00005C17.3008 5.28208 16.7188 4.70005 16.0008 4.70005H4.00078Z"
        fill="white" />
</svg>