<svg xmlns="http://www.w3.org/2000/svg" width="20" height="20" viewBox="0 0 20 20" fill="none">
    <path fill-rule="evenodd" clip-rule="evenodd"
        d="M16 3.41H13C12.6742 3.41 12.41 3.67415 12.41 4V7C12.41 7.32585 12.6742 7.59 13 7.59H16C16.3258 7.59 16.59 7.32585 16.59 7V4C16.59 3.67415 16.3258 3.41 16 3.41ZM13 2C11.8954 2 11 2.89543 11 4V7C11 8.10457 11.8954 9 13 9H16C17.1046 9 18 8.10457 18 7V4C18 2.89543 17.1046 2 16 2H13Z"
        fill="white" />
    <path fill-rule="evenodd" clip-rule="evenodd"
        d="M7 3.41H4C3.67415 3.41 3.41 3.67415 3.41 4V7C3.41 7.32585 3.67415 7.59 4 7.59H7C7.32585 7.59 7.59 7.32585 7.59 7V4C7.59 3.67415 7.32585 3.41 7 3.41ZM4 2C2.89543 2 2 2.89543 2 4V7C2 8.10457 2.89543 9 4 9H7C8.10457 9 9 8.10457 9 7V4C9 2.89543 8.10457 2 7 2H4Z"
        fill="white" />
    <path fill-rule="evenodd" clip-rule="evenodd"
        d="M16 12.41H13C12.6742 12.41 12.41 12.6742 12.41 13V16C12.41 16.3258 12.6742 16.59 13 16.59H16C16.3258 16.59 16.59 16.3258 16.59 16V13C16.59 12.6742 16.3258 12.41 16 12.41ZM13 11C11.8954 11 11 11.8954 11 13V16C11 17.1046 11.8954 18 13 18H16C17.1046 18 18 17.1046 18 16V13C18 11.8954 17.1046 11 16 11H13Z"
        fill="white" />
    <path fill-rule="evenodd" clip-rule="evenodd"
        d="M7 12.41H4C3.67415 12.41 3.41 12.6742 3.41 13V16C3.41 16.3258 3.67415 16.59 4 16.59H7C7.32585 16.59 7.59 16.3258 7.59 16V13C7.59 12.6742 7.32585 12.41 7 12.41ZM4 11C2.89543 11 2 11.8954 2 13V16C2 17.1046 2.89543 18 4 18H7C8.10457 18 9 17.1046 9 16V13C9 11.8954 8.10457 11 7 11H4Z"
        fill="white" />
</svg>