<svg xmlns="http://www.w3.org/2000/svg" width="20" height="20" viewBox="0 0 20 20" fill="none">
    <path
        d="M17.2889 7.35682V5.25663C17.2889 5.12096 17.2894 4.89061 17.1111 4.71396C16.9333 4.53777 16.7013 4.53718 16.5644 4.53777H14.4444V3.83301H16.5644C16.9733 3.83301 17.3147 3.96897 17.5884 4.24089C17.8622 4.51281 17.9994 4.85139 18 5.25663V7.35682H17.2889ZM2 7.35682V5.25663C2 4.8508 2.13719 4.51222 2.41156 4.24089C2.68593 3.96956 3.02726 3.8336 3.43556 3.83301H5.55556V4.53777H3.43645C3.29956 4.53777 3.06759 4.53777 2.88889 4.71396C2.69753 4.90263 2.71052 5.10628 2.71111 5.24253V7.35682H2ZM14.4444 16.1663L14.4444 15.4616H16.5778C16.7141 15.4616 16.9095 15.4842 17.1111 15.2854C17.2889 15.1101 17.2895 14.8931 17.2889 14.7568V12.6425H18V14.7436C18 15.1488 17.8631 15.4871 17.5893 15.7585C17.3156 16.0298 16.9739 16.1658 16.5644 16.1663H14.4444ZM3.43556 16.1663C3.02667 16.1663 2.68504 16.0307 2.41067 15.7593C2.1363 15.488 1.99941 15.1491 2 14.7427V12.6425H2.71111V14.7568C2.71111 14.8919 2.71111 15.1092 2.88889 15.2854C3.06621 15.4611 3.29867 15.4622 3.43556 15.4616H5.55556V16.1663H3.43556ZM5.41867 12.7782V7.22115H14.5813V12.7782H5.41867ZM6.13156 12.0752H13.872V7.92415H6.13156V12.0752Z"
        fill="#77787D" stroke="#77787D" stroke-width="0.3" />
</svg>