<svg xmlns="http://www.w3.org/2000/svg" width="20" height="20" viewBox="0 0 20 20" fill="none">
    <path fill-rule="evenodd" clip-rule="evenodd"
        d="M8.67168 12.5613L6.72492 10.6145L6.72479 10.6147L8.67168 12.5613ZM3.31997 4.93779V14.1185L6.72498 10.7055L8.67168 12.6522L12.5652 8.75874L16.6865 12.8801V4.93779C16.6865 4.50768 16.5157 4.09519 16.2115 3.79106C15.9074 3.48692 15.4949 3.31606 15.0648 3.31606H4.9417C4.51159 3.31606 4.09909 3.48692 3.79496 3.79106C3.49083 4.09519 3.31997 4.50768 3.31997 4.93779ZM12.5651 9.6826L8.67168 13.5761L6.72492 11.6293L3.31997 15.0343V15.0609C3.31997 15.491 3.49083 15.9035 3.79496 16.2076C4.09909 16.5118 4.51159 16.6826 4.9417 16.6826H15.0648C15.4949 16.6826 15.9074 16.5118 16.2115 16.2076C16.5157 15.9035 16.6865 15.491 16.6865 15.0609V13.7961L12.5651 9.6826ZM4.9417 2.66602H15.0648C15.6673 2.66602 16.2452 2.90536 16.6712 3.3314C17.0972 3.75744 17.3366 4.33528 17.3366 4.93779V15.0609C17.3366 15.6634 17.0972 16.2413 16.6712 16.6673C16.2452 17.0933 15.6673 17.3327 15.0648 17.3327H4.9417C4.33919 17.3327 3.76135 17.0933 3.33531 16.6673C2.90927 16.2413 2.66992 15.6634 2.66992 15.0609V4.93779C2.66992 4.33528 2.90927 3.75744 3.33531 3.3314C3.76135 2.90536 4.33919 2.66602 4.9417 2.66602ZM6.88845 5.00212C7.3877 5.00212 7.8665 5.20045 8.21953 5.55347C8.57255 5.90649 8.77088 6.38529 8.77088 6.88454C8.77088 7.38379 8.57255 7.8626 8.21953 8.21562C7.8665 8.56864 7.3877 8.76697 6.88845 8.76697C6.3892 8.76697 5.9104 8.56864 5.55737 8.21562C5.20435 7.8626 5.00603 7.38379 5.00603 6.88454C5.00603 6.38529 5.20435 5.90649 5.55737 5.55347C5.9104 5.20045 6.3892 5.00212 6.88845 5.00212ZM6.88845 5.65217C6.5616 5.65217 6.24814 5.782 6.01703 6.01312C5.78591 6.24424 5.65607 6.5577 5.65607 6.88454C5.65607 7.21139 5.78591 7.52485 6.01703 7.75597C6.24814 7.98708 6.5616 8.11692 6.88845 8.11692C7.2153 8.11692 7.52876 7.98708 7.75987 7.75597C7.99099 7.52485 8.12083 7.21139 8.12083 6.88454C8.12083 6.5577 7.99099 6.24424 7.75987 6.01312C7.52876 5.782 7.2153 5.65217 6.88845 5.65217Z"
        fill="#77787D" />
    <path
        d="M6.72492 10.6145L6.83099 10.5085L6.72492 10.4024L6.61886 10.5085L6.72492 10.6145ZM8.67168 12.5613L8.56562 12.6673L8.77774 12.4552L8.67168 12.5613ZM6.72479 10.6147L6.61873 10.5086L6.51265 10.6147L6.61873 10.7207L6.72479 10.6147ZM3.31997 14.1185H3.16997V14.4812L3.42616 14.2244L3.31997 14.1185ZM6.72498 10.7055L6.83104 10.5995L6.72485 10.4933L6.61879 10.5996L6.72498 10.7055ZM8.67168 12.6522L8.56561 12.7583L8.67168 12.8644L8.77774 12.7583L8.67168 12.6522ZM12.5652 8.75874L12.6712 8.65268L12.5652 8.54661L12.4591 8.65268L12.5652 8.75874ZM16.6865 12.8801L16.5805 12.9862L16.8365 13.2422V12.8801H16.6865ZM16.2115 3.79106L16.3176 3.68499V3.68499L16.2115 3.79106ZM3.79496 3.79106L3.90103 3.89712L3.79496 3.79106ZM8.67168 13.5761L8.56561 13.6821L8.67168 13.7882L8.77774 13.6821L8.67168 13.5761ZM12.5651 9.6826L12.6711 9.57643L12.565 9.47057L12.4591 9.57653L12.5651 9.6826ZM6.72492 11.6293L6.83099 11.5232L6.72492 11.4172L6.61886 11.5232L6.72492 11.6293ZM3.31997 15.0343L3.2139 14.9282L3.16997 14.9721V15.0343H3.31997ZM3.79496 16.2076L3.6889 16.3137H3.6889L3.79496 16.2076ZM16.2115 16.2076L16.3176 16.3137L16.2115 16.2076ZM16.6865 13.7961H16.8365V13.7339L16.7925 13.6899L16.6865 13.7961ZM16.6712 3.3314L16.5651 3.43747V3.43747L16.6712 3.3314ZM16.6712 16.6673L16.5651 16.5612L16.6712 16.6673ZM3.33531 16.6673L3.44138 16.5612H3.44138L3.33531 16.6673ZM3.33531 3.3314L3.44138 3.43747L3.33531 3.3314ZM8.21953 8.21562L8.11346 8.10955L8.11346 8.10955L8.21953 8.21562ZM5.55737 5.55347L5.45131 5.4474L5.55737 5.55347ZM6.01703 7.75597L6.12309 7.6499L6.12309 7.6499L6.01703 7.75597ZM7.75987 7.75597L7.65381 7.6499L7.65381 7.6499L7.75987 7.75597ZM7.75987 6.01312L7.65381 6.11919L7.65381 6.11919L7.75987 6.01312ZM6.61886 10.7206L8.56561 12.6673L8.77774 12.4552L6.83099 10.5085L6.61886 10.7206ZM6.83086 10.7207L6.83099 10.7206L6.61886 10.5085L6.61873 10.5086L6.83086 10.7207ZM6.61873 10.7207L8.56562 12.6673L8.77774 12.4552L6.83085 10.5086L6.61873 10.7207ZM3.46997 14.1185V4.93779H3.16997V14.1185H3.46997ZM6.61879 10.5996L3.21378 14.0126L3.42616 14.2244L6.83117 10.8115L6.61879 10.5996ZM8.77774 12.5462L6.83104 10.5995L6.61891 10.8116L8.56561 12.7583L8.77774 12.5462ZM12.4591 8.65268L8.56561 12.5462L8.77774 12.7583L12.6712 8.86481L12.4591 8.65268ZM16.7926 12.774L12.6712 8.65268L12.4591 8.86481L16.5805 12.9862L16.7926 12.774ZM16.5365 4.93779V12.8801H16.8365V4.93779H16.5365ZM16.1055 3.89712C16.3815 4.17312 16.5365 4.54746 16.5365 4.93779H16.8365C16.8365 4.4679 16.6499 4.01725 16.3176 3.68499L16.1055 3.89712ZM15.0648 3.46606C15.4551 3.46606 15.8295 3.62112 16.1055 3.89712L16.3176 3.68499C15.9854 3.35273 15.5347 3.16606 15.0648 3.16606V3.46606ZM4.9417 3.46606H15.0648V3.16606H4.9417V3.46606ZM3.90103 3.89712C4.17703 3.62112 4.55137 3.46606 4.9417 3.46606V3.16606C4.47181 3.16606 4.02116 3.35273 3.6889 3.68499L3.90103 3.89712ZM3.46997 4.93779C3.46997 4.54746 3.62502 4.17312 3.90103 3.89712L3.6889 3.68499C3.35663 4.01725 3.16997 4.4679 3.16997 4.93779H3.46997ZM8.77774 13.6821L12.6712 9.78866L12.4591 9.57653L8.56561 13.47L8.77774 13.6821ZM6.61886 11.7354L8.56561 13.6821L8.77774 13.47L6.83099 11.5232L6.61886 11.7354ZM3.42603 15.1403L6.83099 11.7354L6.61886 11.5232L3.2139 14.9282L3.42603 15.1403ZM3.46997 15.0609V15.0343H3.16997V15.0609H3.46997ZM3.90103 16.1016C3.62502 15.8256 3.46997 15.4512 3.46997 15.0609H3.16997C3.16997 15.5308 3.35663 15.9814 3.6889 16.3137L3.90103 16.1016ZM4.9417 16.5326C4.55137 16.5326 4.17703 16.3776 3.90103 16.1016L3.6889 16.3137C4.02116 16.646 4.47181 16.8326 4.9417 16.8326V16.5326ZM15.0648 16.5326H4.9417V16.8326H15.0648V16.5326ZM16.1055 16.1016C15.8295 16.3776 15.4551 16.5326 15.0648 16.5326V16.8326C15.5347 16.8326 15.9854 16.646 16.3176 16.3137L16.1055 16.1016ZM16.5365 15.0609C16.5365 15.4512 16.3815 15.8256 16.1055 16.1016L16.3176 16.3137C16.6499 15.9814 16.8365 15.5308 16.8365 15.0609H16.5365ZM16.5365 13.7961V15.0609H16.8365V13.7961H16.5365ZM12.4592 9.78876L16.5806 13.9023L16.7925 13.6899L12.6711 9.57643L12.4592 9.78876ZM15.0648 2.51602H4.9417V2.81602H15.0648V2.51602ZM16.7773 3.22534C16.3231 2.77117 15.7071 2.51602 15.0648 2.51602V2.81602C15.6275 2.81602 16.1672 3.03956 16.5651 3.43747L16.7773 3.22534ZM17.4866 4.93779C17.4866 4.2955 17.2314 3.67951 16.7773 3.22534L16.5651 3.43747C16.963 3.83538 17.1866 4.37506 17.1866 4.93779H17.4866ZM17.4866 15.0609V4.93779H17.1866V15.0609H17.4866ZM16.7773 16.7734C17.2314 16.3192 17.4866 15.7032 17.4866 15.0609H17.1866C17.1866 15.6236 16.963 16.1633 16.5651 16.5612L16.7773 16.7734ZM15.0648 17.4827C15.7071 17.4827 16.3231 17.2275 16.7773 16.7734L16.5651 16.5612C16.1672 16.9591 15.6275 17.1827 15.0648 17.1827V17.4827ZM4.9417 17.4827H15.0648V17.1827H4.9417V17.4827ZM3.22924 16.7734C3.68341 17.2275 4.2994 17.4827 4.9417 17.4827V17.1827C4.37897 17.1827 3.83929 16.9591 3.44138 16.5612L3.22924 16.7734ZM2.51992 15.0609C2.51992 15.7032 2.77507 16.3192 3.22924 16.7734L3.44138 16.5612C3.04347 16.1633 2.81992 15.6236 2.81992 15.0609H2.51992ZM2.51992 4.93779V15.0609H2.81992V4.93779H2.51992ZM3.22924 3.22534C2.77507 3.67951 2.51992 4.2955 2.51992 4.93779H2.81992C2.81992 4.37506 3.04347 3.83538 3.44138 3.43747L3.22924 3.22534ZM4.9417 2.51602C4.2994 2.51602 3.68341 2.77117 3.22924 3.22534L3.44138 3.43747C3.83929 3.03956 4.37897 2.81602 4.9417 2.81602V2.51602ZM8.32559 5.4474C7.94444 5.06625 7.42748 4.85212 6.88845 4.85212V5.15212C7.34792 5.15212 7.78857 5.33464 8.11346 5.65953L8.32559 5.4474ZM8.92088 6.88454C8.92088 6.34551 8.70675 5.82856 8.32559 5.4474L8.11346 5.65953C8.43835 5.98443 8.62088 6.42508 8.62088 6.88454H8.92088ZM8.32559 8.32169C8.70675 7.94053 8.92088 7.42358 8.92088 6.88454H8.62088C8.62088 7.34401 8.43835 7.78466 8.11346 8.10955L8.32559 8.32169ZM6.88845 8.91697C7.42748 8.91697 7.94444 8.70284 8.32559 8.32169L8.11346 8.10955C7.78857 8.43445 7.34792 8.61697 6.88845 8.61697V8.91697ZM5.45131 8.32169C5.83246 8.70284 6.34942 8.91697 6.88845 8.91697V8.61697C6.42898 8.61697 5.98833 8.43445 5.66344 8.10955L5.45131 8.32169ZM4.85603 6.88454C4.85603 7.42358 5.07016 7.94053 5.45131 8.32169L5.66344 8.10955C5.33855 7.78466 5.15603 7.34401 5.15603 6.88454H4.85603ZM5.45131 5.4474C5.07016 5.82856 4.85603 6.34551 4.85603 6.88454H5.15603C5.15603 6.42508 5.33855 5.98443 5.66344 5.65953L5.45131 5.4474ZM6.88845 4.85212C6.34942 4.85212 5.83246 5.06625 5.45131 5.4474L5.66344 5.65953C5.98833 5.33464 6.42898 5.15212 6.88845 5.15212V4.85212ZM6.12309 6.11919C6.32608 5.9162 6.60139 5.80217 6.88845 5.80217V5.50217C6.52182 5.50217 6.17021 5.64781 5.91096 5.90705L6.12309 6.11919ZM5.80607 6.88454C5.80607 6.59748 5.92011 6.32217 6.12309 6.11919L5.91096 5.90705C5.65171 6.1663 5.50607 6.51792 5.50607 6.88454H5.80607ZM6.12309 7.6499C5.92011 7.44692 5.80607 7.17161 5.80607 6.88454H5.50607C5.50607 7.25117 5.65171 7.60279 5.91096 7.86203L6.12309 7.6499ZM6.88845 7.96692C6.60139 7.96692 6.32608 7.85289 6.12309 7.6499L5.91096 7.86203C6.17021 8.12128 6.52182 8.26692 6.88845 8.26692V7.96692ZM7.65381 7.6499C7.45082 7.85289 7.17552 7.96692 6.88845 7.96692V8.26692C7.25508 8.26692 7.60669 8.12128 7.86594 7.86203L7.65381 7.6499ZM7.97083 6.88454C7.97083 7.17161 7.85679 7.44692 7.65381 7.6499L7.86594 7.86203C8.12519 7.60279 8.27083 7.25117 8.27083 6.88454H7.97083ZM7.65381 6.11919C7.85679 6.32217 7.97083 6.59748 7.97083 6.88454H8.27083C8.27083 6.51792 8.12519 6.1663 7.86594 5.90705L7.65381 6.11919ZM6.88845 5.80217C7.17552 5.80217 7.45082 5.9162 7.65381 6.11919L7.86594 5.90705C7.60669 5.64781 7.25508 5.50217 6.88845 5.50217V5.80217Z"
        fill="#77787D" />
</svg>