<svg width="1233" height="796" viewBox="0 0 1233 796" fill="none" xmlns="http://www.w3.org/2000/svg">
<rect x="189" y="23" width="994" height="584" fill="white" stroke="#0153F1" stroke-width="1.5"/>
<rect x="371" y="507" width="630" height="100" fill="white" stroke="#0153F1" stroke-width="1.5"/>
<rect x="615" y="333" width="138" height="420" fill="white" stroke="#0153F1" stroke-width="1.5"/>
<rect x="474" y="753" width="420" height="20" fill="white" stroke="#0153F1" stroke-width="1.5"/>
<path d="M543.281 236.487C545.112 201.657 572.657 174.112 607.487 172.281C631.065 171.041 658.926 170 686 170C713.074 170 740.935 171.041 764.513 172.281C799.343 174.112 826.888 201.657 828.719 236.487C829.959 260.065 831 287.926 831 315C831 342.074 829.959 369.935 828.719 393.513C826.888 428.343 799.343 455.888 764.513 457.719C740.935 458.959 713.074 460 686 460C658.926 460 631.065 458.959 607.487 457.719C572.657 455.888 545.112 428.343 543.281 393.513C542.041 369.935 541 342.074 541 315C541 287.926 542.041 260.065 543.281 236.487Z" fill="white" stroke="#0153F1" stroke-width="1.5"/>
<path d="M551.857 244.995C553.618 210.162 581.165 182.615 615.998 180.854C637.315 179.776 661.989 178.903 686.003 178.903C710.017 178.903 734.69 179.776 756.008 180.854C790.841 182.615 818.388 210.162 820.149 244.995C821.227 266.312 822.099 290.986 822.099 315C822.099 339.014 821.227 363.687 820.149 385.005C818.388 419.838 790.841 447.385 756.008 449.146C734.69 450.224 710.017 451.096 686.003 451.096C661.989 451.096 637.315 450.224 615.998 449.146C581.165 447.385 553.618 419.838 551.857 385.005C550.779 363.687 549.906 339.014 549.906 315C549.906 290.986 550.779 266.312 551.857 244.995Z" fill="#F0F5FE"/>
<path d="M684.052 305.582L684.083 304.833L684.083 304.833L684.052 305.582ZM690.744 306.892L690.366 307.54L690.379 307.548L690.393 307.555L690.744 306.892ZM683.373 305.553L683.407 304.804L683.39 304.803H683.373V305.553ZM681.589 305.499L681.556 306.249L681.556 306.249L681.589 305.499ZM669.215 303.433L669.941 303.243L669.941 303.243L669.215 303.433ZM687.351 301.983L687.123 302.698L687.134 302.701L687.144 302.704L687.351 301.983ZM689.691 303.433L689.056 303.833L689.363 304.32L689.913 304.15L689.691 303.433ZM694.371 301.983L694.593 302.699L695.544 302.405L694.998 301.572L694.371 301.983ZM691.797 299.305L692.214 298.682L692.198 298.671L692.181 298.661L691.797 299.305ZM665.003 302.429L664.282 302.223L664.263 302.289L664.257 302.358L665.003 302.429ZM665.471 306.111L666.142 305.776L666.139 305.769L666.136 305.763L665.471 306.111ZM672.374 309.346L672.425 308.598L672.417 308.598L672.408 308.597L672.374 309.346ZM684.426 309.346L684.45 308.597L684.438 308.596H684.426V309.346ZM689.808 312.582L689.128 312.265L689.115 312.292L689.105 312.319L689.808 312.582ZM671.906 313.698L671.665 314.408L671.672 314.41L671.679 314.412L671.906 313.698ZM669.215 311.801L669.941 311.611L669.742 310.852L668.993 311.085L669.215 311.801ZM664.535 313.251L664.313 312.535L663.413 312.814L663.887 313.629L664.535 313.251ZM667.46 316.487L667.856 315.85L667.848 315.845L667.84 315.84L667.46 316.487ZM694.137 313.363L693.416 313.157L693.416 313.157L694.137 313.363ZM693.552 309.346L694.176 308.93L694.171 308.923L694.167 308.917L693.552 309.346ZM706.538 297.186H707.288V296.436H706.538V297.186ZM706.538 300.086L706.76 300.803L707.288 300.639V300.086H706.538ZM701.859 297.186V296.436H701.109V297.186H701.859ZM701.859 301.537H701.109V302.554L702.081 302.253L701.859 301.537ZM706.538 318.16V318.91H707.288V318.16H706.538ZM706.538 303.098H707.288V302.057L706.301 302.387L706.538 303.098ZM701.859 318.16H701.109V318.91H701.859V318.16ZM701.859 304.66L701.621 303.949L701.109 304.12V304.66H701.859ZM627.609 307.896C627.609 304.34 628.735 301.93 631.079 300.361C633.492 298.745 637.312 297.936 642.889 297.936V296.436C637.233 296.436 633.038 297.244 630.245 299.114C627.382 301.031 626.109 303.978 626.109 307.896H627.609ZM642.889 317.857C637.312 317.857 633.492 317.047 631.079 315.431C628.735 313.862 627.609 311.453 627.609 307.896H626.109C626.109 311.815 627.382 314.761 630.245 316.678C633.038 318.548 637.233 319.357 642.889 319.357V317.857ZM658.168 307.896C658.168 311.453 657.042 313.862 654.698 315.431C652.285 317.047 648.465 317.857 642.889 317.857V319.357C648.544 319.357 652.739 318.548 655.533 316.678C658.396 314.761 659.668 311.815 659.668 307.896H658.168ZM642.889 297.936C648.465 297.936 652.285 298.745 654.698 300.361C657.042 301.93 658.168 304.34 658.168 307.896H659.668C659.668 303.978 658.396 301.031 655.533 299.114C652.739 297.244 648.544 296.436 642.889 296.436V297.936ZM642.889 315.563C646.955 315.563 650.208 315.091 652.467 313.901C653.611 313.298 654.516 312.503 655.131 311.482C655.745 310.461 656.041 309.261 656.041 307.896H654.541C654.541 309.041 654.295 309.962 653.846 310.708C653.396 311.455 652.715 312.075 651.768 312.574C649.844 313.587 646.896 314.063 642.889 314.063V315.563ZM629.736 307.896C629.736 309.261 630.032 310.461 630.646 311.482C631.261 312.503 632.166 313.298 633.311 313.901C635.569 315.091 638.823 315.563 642.889 315.563V314.063C638.881 314.063 635.934 313.587 634.01 312.574C633.062 312.075 632.381 311.455 631.932 310.708C631.482 309.962 631.236 309.041 631.236 307.896H629.736ZM642.889 300.229C638.817 300.229 635.565 300.73 633.307 301.935C632.165 302.544 631.261 303.342 630.647 304.356C630.033 305.37 629.736 306.556 629.736 307.896H631.236C631.236 306.782 631.481 305.875 631.931 305.133C632.381 304.389 633.064 303.765 634.013 303.258C635.938 302.231 638.887 301.729 642.889 301.729V300.229ZM656.041 307.896C656.041 306.556 655.744 305.37 655.13 304.356C654.516 303.342 653.613 302.544 652.47 301.935C650.212 300.73 646.96 300.229 642.889 300.229V301.729C646.891 301.729 649.839 302.231 651.764 303.258C652.713 303.765 653.397 304.389 653.847 305.133C654.296 305.875 654.541 306.782 654.541 307.896H656.041ZM684.022 306.331C686.354 306.426 688.644 306.536 690.366 307.54L691.121 306.244C689.016 305.017 686.317 304.924 684.083 304.833L684.022 306.331ZM683.339 306.302C683.565 306.313 683.793 306.322 684.022 306.331L684.083 304.833C683.854 304.823 683.629 304.814 683.407 304.804L683.339 306.302ZM681.556 306.249C682.166 306.276 682.782 306.303 683.373 306.303V304.803C682.821 304.803 682.239 304.777 681.623 304.75L681.556 306.249ZM679.629 306.192C680.268 306.192 680.91 306.22 681.556 306.249L681.623 304.75C680.982 304.722 680.307 304.692 679.629 304.692V306.192ZM677.405 306.192H679.629V304.692H677.405V306.192ZM676.937 306.192H677.405V304.692H676.937V306.192ZM675.651 306.192H676.937V304.692H675.651V306.192ZM668.49 303.624C668.671 304.315 669.149 304.803 669.697 305.139C670.238 305.472 670.899 305.691 671.569 305.839C672.91 306.137 674.47 306.192 675.651 306.192V304.692C674.492 304.692 673.068 304.635 671.893 304.375C671.305 304.244 670.825 304.072 670.482 303.861C670.145 303.654 669.994 303.444 669.941 303.243L668.49 303.624ZM677.289 300.34C675.05 300.34 672.844 300.479 671.235 300.863C670.442 301.052 669.708 301.32 669.192 301.724C668.926 301.932 668.689 302.199 668.551 302.537C668.409 302.886 668.394 303.257 668.49 303.624L669.941 303.243C669.92 303.164 669.931 303.127 669.94 303.103C669.954 303.07 669.995 303 670.116 302.905C670.375 302.702 670.855 302.496 671.583 302.322C673.017 301.98 675.081 301.84 677.289 301.84V300.34ZM687.578 301.268C686.788 301.017 685.219 300.789 683.397 300.622C681.548 300.453 679.361 300.34 677.289 300.34V301.84C679.311 301.84 681.453 301.951 683.26 302.116C685.095 302.284 686.509 302.503 687.123 302.698L687.578 301.268ZM690.326 303.034C689.837 302.257 688.816 301.622 687.557 301.262L687.144 302.704C688.225 303.013 688.843 303.494 689.056 303.833L690.326 303.034ZM694.149 301.267L689.469 302.717L689.913 304.15L694.593 302.699L694.149 301.267ZM691.381 299.929C692.438 300.635 693.192 301.552 693.744 302.394L694.998 301.572C694.38 300.629 693.495 299.537 692.214 298.682L691.381 299.929ZM678.575 297.936C680.777 297.936 683.346 298.046 685.701 298.361C688.083 298.68 690.147 299.195 691.413 299.95L692.181 298.661C690.638 297.742 688.315 297.197 685.9 296.874C683.458 296.548 680.82 296.436 678.575 296.436V297.936ZM665.724 302.635C666.315 300.572 668.229 299.368 670.796 298.692C673.341 298.021 676.298 297.936 678.575 297.936V296.436C676.29 296.436 673.163 296.517 670.414 297.241C667.686 297.96 665.096 299.378 664.282 302.223L665.724 302.635ZM666.136 305.763C665.659 304.853 665.635 303.705 665.75 302.501L664.257 302.358C664.137 303.608 664.114 305.137 664.807 306.459L666.136 305.763ZM672.408 308.597C671.235 308.544 669.889 308.331 668.716 307.868C667.538 307.403 666.614 306.72 666.142 305.776L664.8 306.446C665.499 307.845 666.798 308.724 668.165 309.263C669.537 309.804 671.057 310.037 672.34 310.096L672.408 308.597ZM677.405 308.708C675.646 308.708 674.034 308.708 672.425 308.598L672.323 310.095C673.991 310.208 675.655 310.208 677.405 310.208V308.708ZM680.191 308.653C679.253 308.681 678.328 308.708 677.405 308.708V310.208C678.355 310.208 679.302 310.18 680.236 310.152L680.191 308.653ZM683.022 308.596C682.073 308.596 681.125 308.625 680.191 308.653L680.236 310.152C681.174 310.124 682.099 310.096 683.022 310.096V308.596ZM684.426 308.596H683.022V310.096H684.426V308.596ZM690.487 312.899C690.805 312.218 690.821 311.529 690.509 310.908C690.215 310.324 689.68 309.898 689.088 309.589C687.906 308.969 686.197 308.654 684.45 308.597L684.401 310.096C686.047 310.15 687.497 310.449 688.392 310.917C688.839 311.151 689.071 311.388 689.169 311.582C689.248 311.738 689.279 311.942 689.128 312.265L690.487 312.899ZM681.033 315.34C683.098 315.34 685.2 315.228 686.877 314.909C687.713 314.749 688.482 314.531 689.097 314.227C689.7 313.93 690.266 313.496 690.51 312.845L689.105 312.319C689.057 312.449 688.892 312.656 688.434 312.882C687.989 313.101 687.368 313.288 686.596 313.435C685.056 313.729 683.063 313.84 681.033 313.84V315.34ZM671.679 314.412C672.46 314.661 673.842 314.889 675.471 315.057C677.119 315.227 679.075 315.34 681.033 315.34V313.84C679.129 313.84 677.224 313.73 675.625 313.565C674.008 313.398 672.757 313.181 672.134 312.983L671.679 314.412ZM668.49 311.991C668.559 312.256 668.719 312.496 668.88 312.688C669.051 312.893 669.272 313.101 669.533 313.302C670.056 313.704 670.774 314.104 671.665 314.408L672.148 312.988C671.401 312.733 670.832 312.408 670.448 312.113C670.255 311.965 670.118 311.831 670.03 311.726C669.932 311.608 669.93 311.569 669.941 311.611L668.49 311.991ZM664.757 313.968L669.437 312.517L668.993 311.085L664.313 312.535L664.757 313.968ZM667.84 315.84C666.501 315.054 665.764 313.87 665.183 312.874L663.887 313.629C664.477 314.641 665.378 316.134 667.081 317.134L667.84 315.84ZM680.565 317.857C678.422 317.857 675.853 317.746 673.498 317.431C671.11 317.112 669.056 316.596 667.856 315.85L667.064 317.124C668.556 318.051 670.889 318.595 673.299 318.918C675.74 319.244 678.379 319.357 680.565 319.357V317.857ZM693.416 313.157C692.826 315.221 690.912 316.424 688.344 317.1C685.799 317.771 682.842 317.857 680.565 317.857V319.357C682.85 319.357 685.977 319.275 688.727 318.551C691.454 317.832 694.044 316.414 694.858 313.569L693.416 313.157ZM692.928 309.763C693.607 310.78 693.716 312.109 693.416 313.157L694.858 313.569C695.26 312.163 695.135 310.367 694.176 308.93L692.928 309.763ZM690.393 307.555C691.35 308.062 692.309 308.878 692.937 309.776L694.167 308.917C693.391 307.807 692.244 306.838 691.095 306.229L690.393 307.555ZM705.788 297.186V300.086H707.288V297.186H705.788ZM701.859 297.936H706.538V296.436H701.859V297.936ZM702.609 301.537V297.186H701.109V301.537H702.609ZM706.316 299.37L701.636 300.82L702.081 302.253L706.76 300.803L706.316 299.37ZM729.122 296.436C723.466 296.436 719.271 297.244 716.478 299.114C713.615 301.031 712.342 303.978 712.342 307.896H713.842C713.842 304.34 714.968 301.93 717.312 300.361C719.725 298.745 723.545 297.936 729.122 297.936V296.436ZM745.901 307.896C745.901 303.978 744.629 301.031 741.766 299.114C738.972 297.244 734.777 296.436 729.122 296.436V297.936C734.698 297.936 738.518 298.745 740.931 300.361C743.275 301.93 744.401 304.34 744.401 307.896H745.901ZM729.122 319.357C734.777 319.357 738.972 318.548 741.766 316.678C744.629 314.761 745.901 311.815 745.901 307.896H744.401C744.401 311.453 743.275 313.862 740.931 315.431C738.518 317.047 734.698 317.857 729.122 317.857V319.357ZM712.342 307.896C712.342 311.815 713.615 314.761 716.478 316.678C719.271 318.548 723.466 319.357 729.122 319.357V317.857C723.545 317.857 719.725 317.047 717.312 315.431C714.968 313.862 713.842 311.453 713.842 307.896H712.342ZM740.774 307.896C740.774 309.041 740.528 309.962 740.079 310.708C739.629 311.455 738.948 312.075 738.001 312.574C736.077 313.587 733.129 314.063 729.122 314.063V315.563C733.188 315.563 736.441 315.091 738.7 313.901C739.844 313.298 740.749 312.503 741.364 311.482C741.978 310.461 742.274 309.261 742.274 307.896H740.774ZM729.122 301.729C733.124 301.729 736.072 302.231 737.997 303.258C738.946 303.765 739.63 304.389 740.08 305.133C740.529 305.875 740.774 306.782 740.774 307.896H742.274C742.274 306.556 741.977 305.37 741.363 304.356C740.749 303.342 739.845 302.544 738.703 301.935C736.445 300.73 733.193 300.229 729.122 300.229V301.729ZM717.47 307.896C717.47 306.782 717.714 305.875 718.164 305.133C718.614 304.389 719.297 303.765 720.246 303.258C722.171 302.231 725.12 301.729 729.122 301.729V300.229C725.05 300.229 721.798 300.73 719.54 301.935C718.398 302.544 717.494 303.342 716.88 304.356C716.266 305.37 715.97 306.556 715.97 307.896H717.47ZM729.122 314.063C725.114 314.063 722.167 313.587 720.243 312.574C719.295 312.075 718.614 311.455 718.165 310.708C717.715 309.962 717.47 309.041 717.47 307.896H715.97C715.97 309.261 716.265 310.461 716.879 311.482C717.494 312.503 718.399 313.298 719.544 313.901C721.802 315.091 725.056 315.563 729.122 315.563V314.063ZM707.288 318.16V303.098H705.788V318.16H707.288ZM701.859 318.91H706.538V317.41H701.859V318.91ZM701.109 304.66V318.16H702.609V304.66H701.109ZM706.301 302.387L701.621 303.949L702.096 305.372L706.776 303.81L706.301 302.387Z" fill="#0153F1"/>
<rect x="523" y="507" width="48" height="8" fill="white" stroke="#0153F1" stroke-width="1.5"/>
<rect x="773" y="507" width="48" height="8" fill="white" stroke="#0153F1" stroke-width="1.5"/>
<rect x="579" y="507" width="6" height="8" fill="white" stroke="#0153F1" stroke-width="1.5"/>
<rect x="589" y="507" width="6" height="8" fill="white" stroke="#0153F1" stroke-width="1.5"/>
<rect x="44" y="155" width="298" height="320" rx="20" fill="#F0F5FE"/>
<path d="M75.0568 337.273H76.3182L79.2841 344.517H79.3864L82.3523 337.273H83.6136V346H82.625V339.369H82.5398L79.8125 346H78.858L76.1307 339.369H76.0455V346H75.0568V337.273ZM87.7326 346V337.273H92.9996V338.21H88.7894V341.159H92.7269V342.097H88.7894V345.062H93.0678V346H87.7326ZM96.4272 338.21V337.273H102.973V338.21H100.228V346H99.1715V338.21H96.4272ZM105.942 346H104.834L108.039 337.273H109.13L112.334 346H111.226L108.618 338.653H108.55L105.942 346ZM106.351 342.591H110.817V343.528H106.351V342.591ZM114.944 346V345.028H115.199C115.563 345.028 115.846 344.912 116.047 344.679C116.249 344.446 116.394 344.07 116.482 343.55C116.573 343.03 116.634 342.341 116.665 341.483L116.819 337.273H122.137V346H121.08V338.21H117.824L117.688 341.688C117.654 342.602 117.57 343.381 117.436 344.023C117.303 344.665 117.069 345.155 116.733 345.493C116.398 345.831 115.909 346 115.267 346H114.944ZM125.498 346V345.028H125.754C126.118 345.028 126.4 344.912 126.602 344.679C126.804 344.446 126.949 344.07 127.037 343.55C127.127 343.03 127.189 342.341 127.22 341.483L127.373 337.273H132.691V346H131.635V338.21H128.379L128.243 341.688C128.208 342.602 128.125 343.381 127.991 344.023C127.858 344.665 127.623 345.155 127.288 345.493C126.953 345.831 126.464 346 125.822 346H125.498ZM136.803 337.273H137.843V344.142H137.928L142.701 337.273H143.723V346H142.667V339.148H142.581L137.826 346H136.803V337.273ZM147.923 337.273H148.98V340.188C148.98 340.619 149.055 340.959 149.206 341.206C149.357 341.45 149.57 341.624 149.845 341.726C150.121 341.825 150.446 341.875 150.821 341.875C151.057 341.875 151.286 341.866 151.507 341.849C151.729 341.83 151.945 341.803 152.155 341.768C152.368 341.734 152.575 341.693 152.777 341.645C152.982 341.597 153.182 341.543 153.378 341.483V342.438C153.188 342.497 152.999 342.551 152.811 342.599C152.626 342.648 152.433 342.689 152.232 342.723C152.033 342.757 151.818 342.784 151.588 342.804C151.358 342.821 151.102 342.83 150.821 342.83C150.219 342.83 149.7 342.743 149.266 342.57C148.834 342.396 148.501 342.116 148.268 341.73C148.038 341.344 147.923 340.83 147.923 340.188V337.273ZM153.241 337.273H154.298V346H153.241V337.273ZM158.416 346V337.273H163.683V338.21H159.473V341.159H163.411V342.097H159.473V345.062H163.751V346H158.416ZM174.611 340H173.554C173.491 339.696 173.382 339.429 173.226 339.199C173.072 338.969 172.885 338.776 172.663 338.619C172.445 338.46 172.202 338.341 171.935 338.261C171.668 338.182 171.389 338.142 171.099 338.142C170.571 338.142 170.092 338.276 169.663 338.543C169.237 338.81 168.898 339.203 168.645 339.723C168.395 340.243 168.27 340.881 168.27 341.636C168.27 342.392 168.395 343.03 168.645 343.55C168.898 344.07 169.237 344.463 169.663 344.73C170.092 344.997 170.571 345.131 171.099 345.131C171.389 345.131 171.668 345.091 171.935 345.011C172.202 344.932 172.445 344.814 172.663 344.658C172.885 344.499 173.072 344.304 173.226 344.074C173.382 343.841 173.491 343.574 173.554 343.273H174.611C174.531 343.719 174.386 344.118 174.176 344.47C173.966 344.822 173.705 345.122 173.392 345.369C173.08 345.614 172.729 345.8 172.339 345.928C171.953 346.055 171.54 346.119 171.099 346.119C170.355 346.119 169.693 345.938 169.114 345.574C168.534 345.21 168.078 344.693 167.746 344.023C167.413 343.352 167.247 342.557 167.247 341.636C167.247 340.716 167.413 339.92 167.746 339.25C168.078 338.58 168.534 338.062 169.114 337.699C169.693 337.335 170.355 337.153 171.099 337.153C171.54 337.153 171.953 337.217 172.339 337.345C172.729 337.473 173.08 337.661 173.392 337.908C173.705 338.152 173.966 338.45 174.176 338.803C174.386 339.152 174.531 339.551 174.611 340ZM183.449 346L180.449 341.994H179.375V346H178.319V337.273H179.375V341.057H179.836L183.33 337.273H184.591L181.063 341.108L184.711 346H183.449ZM188.434 346H187.326L190.531 337.273H191.622L194.826 346H193.718L191.11 338.653H191.042L188.434 346ZM188.843 342.591H193.309V343.528H188.843V342.591ZM204.118 346H203.061V338.21H201.203C200.731 338.21 200.352 338.283 200.065 338.428C199.778 338.57 199.569 338.771 199.439 339.033C199.308 339.294 199.243 339.599 199.243 339.949C199.243 340.298 199.306 340.599 199.434 340.852C199.565 341.102 199.772 341.295 200.056 341.432C200.343 341.568 200.72 341.636 201.186 341.636H203.538V342.591H201.152C200.475 342.591 199.92 342.479 199.485 342.254C199.051 342.027 198.728 341.714 198.518 341.317C198.308 340.919 198.203 340.463 198.203 339.949C198.203 339.435 198.308 338.976 198.518 338.572C198.728 338.169 199.052 337.852 199.49 337.622C199.927 337.389 200.487 337.273 201.169 337.273H204.118V346ZM200.01 342.08H201.203L199.089 346H197.862L200.01 342.08ZM220.14 337.273V346H219.083V338.21H214.685V346H213.629V337.273H220.14ZM223.522 346V345.028H223.777C224.141 345.028 224.424 344.912 224.625 344.679C224.827 344.446 224.972 344.07 225.06 343.55C225.151 343.03 225.212 342.341 225.243 341.483L225.397 337.273H230.715V346H229.658V338.21H226.402L226.266 341.688C226.232 342.602 226.148 343.381 226.015 344.023C225.881 344.665 225.647 345.155 225.311 345.493C224.976 345.831 224.488 346 223.846 346H223.522ZM235.184 346H234.076L237.281 337.273H238.372L241.576 346H240.468L237.86 338.653H237.792L235.184 346ZM235.593 342.591H240.059V343.528H235.593V342.591ZM244.936 346V337.273H245.993V341.159H250.646V337.273H251.703V346H250.646V342.097H245.993V346H244.936ZM260.949 346L257.949 341.994H256.875V346H255.819V337.273H256.875V341.057H257.336L260.83 337.273H262.091L258.563 341.108L262.211 346H260.949ZM265.934 346H264.826L268.031 337.273H269.122L272.326 346H271.218L268.61 338.653H268.542L265.934 346ZM266.343 342.591H270.809V343.528H266.343V342.591Z" fill="black"/>
<path d="M503.333 376C503.333 377.473 504.527 378.667 506 378.667C507.473 378.667 508.667 377.473 508.667 376C508.667 374.527 507.473 373.333 506 373.333C504.527 373.333 503.333 374.527 503.333 376ZM74 376.5L506 376.5L506 375.5L74 375.5L74 376.5Z" fill="black" fill-opacity="0.2"/>
<rect x="75" y="408" width="30" height="10" rx="1" fill="#F0F5FE" stroke="#0153F1" stroke-width="1.5"/>
<rect x="82" y="418" width="16" height="26" rx="1" fill="#F0F5FE" stroke="#0153F1" stroke-width="1.5"/>
<path d="M82 438L98 423" stroke="#0153F1" stroke-width="1.5"/>
<path d="M82 428L92.5 418.156" stroke="#0153F1" stroke-width="1.5"/>
<path d="M98 433L86 444.25" stroke="#0153F1" stroke-width="1.5"/>
<path d="M122.699 419.71V418.841L126.534 412.773H127.165V414.119H126.739L123.841 418.705V418.773H129.006V419.71H122.699ZM126.807 421.5V419.446V419.041V412.773H127.812V421.5H126.807ZM133.267 412.773L135.517 416.403H135.586L137.836 412.773H139.08L136.336 417.136L139.08 421.5H137.836L135.586 417.938H135.517L133.267 421.5H132.023L134.836 417.136L132.023 412.773H133.267ZM147.83 421.5V412.773H150.881C151.489 412.773 151.991 412.878 152.386 413.088C152.781 413.295 153.075 413.575 153.268 413.928C153.461 414.277 153.558 414.665 153.558 415.091C153.558 415.466 153.491 415.776 153.357 416.02C153.227 416.264 153.053 416.457 152.837 416.599C152.624 416.741 152.393 416.847 152.143 416.915V417C152.41 417.017 152.678 417.111 152.948 417.281C153.218 417.452 153.444 417.696 153.626 418.014C153.808 418.332 153.898 418.722 153.898 419.182C153.898 419.619 153.799 420.013 153.6 420.362C153.401 420.712 153.087 420.989 152.658 421.193C152.229 421.398 151.671 421.5 150.984 421.5H147.83ZM148.887 420.562H150.984C151.674 420.562 152.164 420.429 152.454 420.162C152.746 419.892 152.893 419.565 152.893 419.182C152.893 418.886 152.817 418.614 152.667 418.364C152.516 418.111 152.302 417.909 152.023 417.759C151.745 417.605 151.415 417.528 151.035 417.528H148.887V420.562ZM148.887 416.608H150.847C151.165 416.608 151.452 416.545 151.708 416.42C151.967 416.295 152.171 416.119 152.322 415.892C152.475 415.665 152.552 415.398 152.552 415.091C152.552 414.707 152.418 414.382 152.151 414.115C151.884 413.845 151.461 413.71 150.881 413.71H148.887V416.608ZM157.635 412.773H158.675V419.642H158.76L163.533 412.773H164.555V421.5H163.499V414.648H163.413L158.658 421.5H157.635V412.773ZM168.67 421.5V412.773H169.727V416.659H174.38V412.773H175.437V421.5H174.38V417.597H169.727V421.5H168.67ZM179.076 413.71V412.773H185.621V413.71H182.877V421.5H181.82V413.71H179.076ZM194.627 412.773H195.888L198.854 420.017H198.957L201.923 412.773H203.184V421.5H202.195V414.869H202.11L199.383 421.5H198.428L195.701 414.869H195.616V421.5H194.627V412.773ZM206.945 419.71V418.841L210.78 412.773H211.411V414.119H210.985L208.087 418.705V418.773H213.252V419.71H206.945ZM211.053 421.5V419.446V419.041V412.773H212.059V421.5H211.053ZM122.903 439.5V438.733L125.784 435.58C126.122 435.21 126.401 434.889 126.619 434.616C126.838 434.341 127 434.082 127.105 433.841C127.213 433.597 127.267 433.341 127.267 433.074C127.267 432.767 127.193 432.501 127.045 432.277C126.901 432.053 126.702 431.879 126.449 431.757C126.196 431.635 125.912 431.574 125.597 431.574C125.261 431.574 124.969 431.643 124.719 431.783C124.472 431.919 124.28 432.111 124.143 432.358C124.01 432.605 123.943 432.895 123.943 433.227H122.938C122.938 432.716 123.055 432.267 123.291 431.881C123.527 431.494 123.848 431.193 124.254 430.977C124.663 430.761 125.122 430.653 125.631 430.653C126.142 430.653 126.595 430.761 126.99 430.977C127.385 431.193 127.695 431.484 127.919 431.851C128.143 432.217 128.256 432.625 128.256 433.074C128.256 433.395 128.197 433.709 128.081 434.016C127.967 434.32 127.768 434.659 127.484 435.034C127.203 435.406 126.812 435.861 126.312 436.398L124.352 438.494V438.562H128.409V439.5H122.903ZM132.834 430.773L135.084 434.403H135.152L137.402 430.773H138.646L135.902 435.136L138.646 439.5H137.402L135.152 435.938H135.084L132.834 439.5H131.589L134.402 435.136L131.589 430.773H132.834ZM150.397 431.812H151.777C152.425 431.812 153 431.957 153.503 432.247C154.006 432.537 154.401 432.94 154.688 433.457C154.975 433.974 155.118 434.574 155.118 435.256C155.118 435.938 154.975 436.538 154.688 437.058C154.401 437.578 154.006 437.984 153.503 438.277C153 438.57 152.425 438.716 151.777 438.716H150.397C149.749 438.716 149.174 438.571 148.671 438.281C148.168 437.991 147.773 437.588 147.486 437.071C147.199 436.554 147.056 435.955 147.056 435.273C147.056 434.591 147.199 433.99 147.486 433.47C147.773 432.95 148.168 432.544 148.671 432.251C149.174 431.959 149.749 431.812 150.397 431.812ZM150.397 432.75C149.902 432.75 149.485 432.854 149.144 433.061C148.806 433.268 148.549 433.561 148.373 433.939C148.199 434.317 148.113 434.761 148.113 435.273C148.113 435.778 148.199 436.219 148.373 436.594C148.549 436.969 148.806 437.26 149.144 437.467C149.485 437.675 149.902 437.778 150.397 437.778H151.777C152.272 437.778 152.688 437.675 153.026 437.467C153.367 437.26 153.624 436.967 153.797 436.589C153.973 436.212 154.061 435.767 154.061 435.256C154.061 434.75 153.973 434.31 153.797 433.935C153.624 433.56 153.367 433.268 153.026 433.061C152.688 432.854 152.272 432.75 151.777 432.75H150.397ZM151.624 430.619V439.858H150.567V430.619H151.624ZM158.889 430.773H159.929V437.642H160.014L164.787 430.773H165.809V439.5H164.752V432.648H164.667L159.912 439.5H158.889V430.773ZM175.191 430.773V431.71H170.981V439.5H169.924V430.773H175.191ZM179.287 439.619V438.631H179.832C180.042 438.631 180.218 438.589 180.36 438.507C180.505 438.425 180.625 438.318 180.718 438.188C180.815 438.057 180.895 437.92 180.957 437.778L181.093 437.455L178.076 430.773H179.218L181.622 436.193L183.821 430.773H184.946L181.929 438.085C181.809 438.358 181.673 438.611 181.52 438.844C181.369 439.077 181.163 439.264 180.902 439.406C180.643 439.548 180.292 439.619 179.849 439.619H179.287ZM188.315 439.5V430.773H191.263C191.948 430.773 192.508 430.896 192.942 431.143C193.38 431.388 193.704 431.719 193.914 432.136C194.124 432.554 194.229 433.02 194.229 433.534C194.229 434.048 194.124 434.516 193.914 434.936C193.707 435.357 193.386 435.692 192.951 435.942C192.516 436.189 191.96 436.312 191.281 436.312H189.167V435.375H191.246C191.715 435.375 192.092 435.294 192.376 435.132C192.66 434.97 192.866 434.751 192.994 434.476C193.124 434.197 193.19 433.884 193.19 433.534C193.19 433.185 193.124 432.872 192.994 432.597C192.866 432.321 192.658 432.105 192.371 431.949C192.085 431.79 191.704 431.71 191.229 431.71H189.371V439.5H188.315ZM197.932 439.5V430.773H198.989V434.659H203.642V430.773H204.699V439.5H203.642V435.597H198.989V439.5H197.932ZM209.599 434.438H212.087C212.712 434.438 213.239 434.54 213.668 434.744C214.1 434.949 214.427 435.237 214.648 435.609C214.873 435.982 214.985 436.42 214.985 436.926C214.985 437.432 214.873 437.878 214.648 438.264C214.427 438.651 214.1 438.953 213.668 439.172C213.239 439.391 212.712 439.5 212.087 439.5H208.815V430.773H209.871V438.58H212.087C212.485 438.58 212.822 438.5 213.097 438.341C213.376 438.179 213.586 437.972 213.728 437.719C213.873 437.463 213.945 437.193 213.945 436.909C213.945 436.491 213.785 436.132 213.464 435.831C213.143 435.527 212.684 435.375 212.087 435.375H209.599V434.438ZM216.894 430.773V439.5H215.837V430.773H216.894ZM221.01 430.773H222.05V437.642H222.135L226.908 430.773H227.93V439.5H226.874V432.648H226.788L222.033 439.5H221.01V430.773ZM225.305 428.591H226.243C226.243 429.051 226.084 429.428 225.766 429.72C225.447 430.013 225.016 430.159 224.47 430.159C223.933 430.159 223.506 430.013 223.188 429.72C222.872 429.428 222.714 429.051 222.714 428.591H223.652C223.652 428.812 223.713 429.007 223.835 429.175C223.96 429.342 224.172 429.426 224.47 429.426C224.768 429.426 224.982 429.342 225.109 429.175C225.24 429.007 225.305 428.812 225.305 428.591ZM237.42 439.5V430.773H240.471C241.079 430.773 241.581 430.878 241.975 431.088C242.37 431.295 242.664 431.575 242.858 431.928C243.051 432.277 243.147 432.665 243.147 433.091C243.147 433.466 243.081 433.776 242.947 434.02C242.816 434.264 242.643 434.457 242.427 434.599C242.214 434.741 241.983 434.847 241.733 434.915V435C242 435.017 242.268 435.111 242.538 435.281C242.808 435.452 243.034 435.696 243.216 436.014C243.397 436.332 243.488 436.722 243.488 437.182C243.488 437.619 243.389 438.013 243.19 438.362C242.991 438.712 242.677 438.989 242.248 439.193C241.819 439.398 241.261 439.5 240.574 439.5H237.42ZM238.477 438.562H240.574C241.264 438.562 241.754 438.429 242.044 438.162C242.336 437.892 242.483 437.565 242.483 437.182C242.483 436.886 242.407 436.614 242.257 436.364C242.106 436.111 241.892 435.909 241.613 435.759C241.335 435.605 241.005 435.528 240.625 435.528H238.477V438.562ZM238.477 434.608H240.437C240.755 434.608 241.042 434.545 241.298 434.42C241.556 434.295 241.761 434.119 241.912 433.892C242.065 433.665 242.142 433.398 242.142 433.091C242.142 432.707 242.008 432.382 241.741 432.115C241.474 431.845 241.051 431.71 240.471 431.71H238.477V434.608ZM247.225 430.773H248.265V437.642H248.35L253.123 430.773H254.145V439.5H253.088V432.648H253.003L248.248 439.5H247.225V430.773ZM258.26 439.5V430.773H259.317V434.659H263.97V430.773H265.027V439.5H263.97V435.597H259.317V439.5H258.26ZM268.665 431.71V430.773H275.211V431.71H272.467V439.5H271.41V431.71H268.665ZM284.217 430.773H285.478L288.444 438.017H288.547L291.512 430.773H292.774V439.5H291.785V432.869H291.7L288.973 439.5H288.018L285.291 432.869H285.206V439.5H284.217V430.773ZM296.535 437.71V436.841L300.37 430.773H301.001V432.119H300.575L297.677 436.705V436.773H302.842V437.71H296.535ZM300.643 439.5V437.446V437.041V430.773H301.648V439.5H300.643Z" fill="black"/>
<path d="M74 203C74 193.059 82.0589 185 92 185H294C303.941 185 312 193.059 312 203V299C312 308.941 303.941 317 294 317H92C82.0589 317 74 308.941 74 299V203Z" fill="#F0F5FE" stroke="#0153F1" stroke-width="1.5"/>
<path d="M113 185H273V223C273 229.627 267.627 235 261 235H125C118.373 235 113 229.627 113 223V185Z" fill="#F0F5FE" stroke="#0153F1" stroke-width="1.5"/>
<path fill-rule="evenodd" clip-rule="evenodd" d="M140.406 212.311C143.122 211.019 145 208.25 145 205.043C145 200.601 141.399 197 136.957 197C132.515 197 128.914 200.601 128.914 205.043C128.914 208.252 130.794 211.023 133.512 212.313V219.98C133.512 221.884 135.056 223.427 136.959 223.427C138.863 223.427 140.406 221.884 140.406 219.98V212.311Z" fill="#F0F5FE"/>
<path d="M140.406 212.311L140.084 211.633L139.656 211.837V212.311H140.406ZM133.512 212.313H134.262V211.839L133.834 211.636L133.512 212.313ZM144.25 205.043C144.25 207.95 142.549 210.462 140.084 211.633L140.728 212.988C143.696 211.577 145.75 208.551 145.75 205.043H144.25ZM136.957 197.75C140.985 197.75 144.25 201.015 144.25 205.043H145.75C145.75 200.187 141.813 196.25 136.957 196.25V197.75ZM129.664 205.043C129.664 201.015 132.929 197.75 136.957 197.75V196.25C132.101 196.25 128.164 200.187 128.164 205.043H129.664ZM133.834 211.636C131.367 210.465 129.664 207.952 129.664 205.043H128.164C128.164 208.553 130.22 211.581 133.191 212.991L133.834 211.636ZM134.262 219.98V212.313H132.762V219.98H134.262ZM136.959 222.677C135.47 222.677 134.262 221.469 134.262 219.98H132.762C132.762 222.298 134.641 224.177 136.959 224.177V222.677ZM139.656 219.98C139.656 221.469 138.449 222.677 136.959 222.677V224.177C139.277 224.177 141.156 222.298 141.156 219.98H139.656ZM139.656 212.311V219.98H141.156V212.311H139.656Z" fill="#0153F1"/>
<path fill-rule="evenodd" clip-rule="evenodd" d="M252.492 212.311C255.208 211.019 257.086 208.25 257.086 205.043C257.086 200.601 253.485 197 249.043 197C244.601 197 241 200.601 241 205.043C241 208.252 242.88 211.023 245.598 212.313V219.98C245.598 221.884 247.142 223.427 249.045 223.427C250.949 223.427 252.492 221.884 252.492 219.98V212.311Z" fill="#F0F5FE"/>
<path d="M252.492 212.311L252.17 211.633L251.742 211.837V212.311H252.492ZM245.598 212.313H246.348V211.839L245.92 211.636L245.598 212.313ZM256.336 205.043C256.336 207.95 254.635 210.462 252.17 211.633L252.814 212.988C255.782 211.577 257.836 208.551 257.836 205.043H256.336ZM249.043 197.75C253.071 197.75 256.336 201.015 256.336 205.043H257.836C257.836 200.187 253.899 196.25 249.043 196.25V197.75ZM241.75 205.043C241.75 201.015 245.015 197.75 249.043 197.75V196.25C244.187 196.25 240.25 200.187 240.25 205.043H241.75ZM245.92 211.636C243.453 210.465 241.75 207.952 241.75 205.043H240.25C240.25 208.553 242.306 211.581 245.277 212.991L245.92 211.636ZM246.348 219.98V212.313H244.848V219.98H246.348ZM249.045 222.677C247.556 222.677 246.348 221.469 246.348 219.98H244.848C244.848 222.298 246.727 224.177 249.045 224.177V222.677ZM251.742 219.98C251.742 221.469 250.535 222.677 249.045 222.677V224.177C251.363 224.177 253.242 222.298 253.242 219.98H251.742ZM251.742 212.311V219.98H253.242V212.311H251.742Z" fill="#0153F1"/>
<path fill-rule="evenodd" clip-rule="evenodd" d="M91.4897 295.483C88.423 290.206 90.2429 283.46 95.5547 280.414L123.34 264.48C128.651 261.434 135.444 263.241 138.51 268.517C141.577 273.794 139.757 280.54 134.445 283.586L106.66 299.52C101.349 302.566 94.5565 300.759 91.4897 295.483ZM105.382 287.516C106.745 289.861 105.936 292.859 103.576 294.213C101.215 295.567 98.196 294.763 96.833 292.418C95.47 290.073 96.2788 287.075 98.6396 285.721C101 284.367 104.019 285.171 105.382 287.516ZM131.36 278.279C133.721 276.925 134.53 273.927 133.167 271.582C131.804 269.237 128.785 268.433 126.424 269.787C124.064 271.141 123.255 274.139 124.618 276.484C125.981 278.829 129 279.633 131.36 278.279Z" fill="#F0F5FE" stroke="#0153F1" stroke-width="1.5"/>
<path fill-rule="evenodd" clip-rule="evenodd" d="M294.51 295.483C297.577 290.206 295.757 283.46 290.445 280.414L262.66 264.48C257.349 261.434 250.556 263.241 247.49 268.517C244.423 273.794 246.243 280.54 251.555 283.586L279.34 299.52C284.651 302.566 291.444 300.759 294.51 295.483ZM280.618 287.516C279.255 289.861 280.064 292.859 282.424 294.213C284.785 295.567 287.804 294.763 289.167 292.418C290.53 290.073 289.721 287.075 287.36 285.721C285 284.367 281.981 285.171 280.618 287.516ZM254.64 278.279C252.279 276.925 251.47 273.927 252.833 271.582C254.196 269.237 257.215 268.433 259.576 269.787C261.936 271.141 262.745 274.139 261.382 276.484C260.019 278.829 257 279.633 254.64 278.279Z" fill="#F0F5FE" stroke="#0153F1" stroke-width="1.5"/>
</svg>
