<svg width="345" height="354" viewBox="0 0 345 354" fill="none" xmlns="http://www.w3.org/2000/svg">
<rect x="1" width="343" height="54" rx="8" fill="#F0F5FE"/>
<path d="M13 16.2537C13 14.0281 14.7797 12.2239 16.975 12.2239H53.5833C55.7786 12.2239 57.5583 14.0281 57.5583 16.2537V37.7463C57.5583 39.9719 55.7786 41.7761 53.5833 41.7761H16.975C14.7797 41.7761 13 39.9719 13 37.7463V16.2537Z" fill="#F0F5FE" stroke="#0153F1" stroke-width="0.75"/>
<path d="M21.6094 12.2239H48.9427V20.7313C48.9427 22.2151 47.7562 23.4179 46.2927 23.4179H24.2594C22.7958 23.4179 21.6094 22.2151 21.6094 20.7313V12.2239Z" fill="#F0F5FE" stroke="#0153F1" stroke-width="0.75"/>
<path fill-rule="evenodd" clip-rule="evenodd" d="M27.6629 18.3382C28.2627 18.0491 28.6773 17.4292 28.6773 16.7111C28.6773 15.7166 27.8821 14.9104 26.9011 14.9104C25.9202 14.9104 25.125 15.7166 25.125 16.7111C25.125 17.4296 25.5401 18.0498 26.1405 18.3387V20.0551C26.1405 20.4814 26.4813 20.8268 26.9017 20.8268C27.3221 20.8268 27.6629 20.4814 27.6629 20.0551V18.3382Z" fill="#F0F5FE" stroke="#0153F1" stroke-width="0.75"/>
<path fill-rule="evenodd" clip-rule="evenodd" d="M44.4206 18.3382C45.0204 18.0491 45.4351 17.4292 45.4351 16.7111C45.4351 15.7166 44.6399 14.9104 43.659 14.9104C42.678 14.9104 41.8828 15.7166 41.8828 16.7111C41.8828 17.4296 42.298 18.0498 42.8982 18.3387V20.0551C42.8982 20.4814 43.2392 20.8268 43.6594 20.8268C44.0799 20.8268 44.4206 20.4814 44.4206 20.0551V18.3382Z" fill="#F0F5FE" stroke="#0153F1" stroke-width="0.75"/>
<path fill-rule="evenodd" clip-rule="evenodd" d="M16.8602 36.9588C16.183 35.7774 16.5849 34.2671 17.7579 33.5851L23.8937 30.0178C25.0668 29.3358 26.5667 29.7405 27.2439 30.9218C27.9212 32.103 27.5193 33.6134 26.3463 34.2954L20.2104 37.8626C19.0374 38.5446 17.5375 38.14 16.8602 36.9588ZM19.9282 35.1752C20.2292 35.7002 20.0505 36.3714 19.5292 36.6745C19.0078 36.9776 18.3412 36.7976 18.0402 36.2726C17.7392 35.7476 17.9178 35.0764 18.4392 34.7733C18.9605 34.4702 19.6272 34.6502 19.9282 35.1752ZM25.665 33.1072C26.1864 32.8041 26.365 32.1328 26.064 31.6078C25.763 31.0828 25.0963 30.9029 24.575 31.206C24.0537 31.5091 23.875 32.1804 24.176 32.7054C24.477 33.2304 25.1436 33.4103 25.665 33.1072Z" fill="#F0F5FE" stroke="#0153F1" stroke-width="0.75"/>
<path fill-rule="evenodd" clip-rule="evenodd" d="M53.697 36.9588C54.3743 35.7774 53.9724 34.2671 52.7993 33.5851L46.6634 30.0178C45.4906 29.3358 43.9905 29.7405 43.3134 30.9218C42.6361 32.103 43.038 33.6134 44.2111 34.2954L50.3469 37.8626C51.5198 38.5446 53.0199 38.14 53.697 36.9588ZM50.6292 35.1752C50.3282 35.7002 50.5068 36.3714 51.028 36.6745C51.5494 36.9776 52.2161 36.7976 52.5171 36.2726C52.8181 35.7476 52.6394 35.0764 52.118 34.7733C51.5968 34.4702 50.9302 34.6502 50.6292 35.1752ZM44.8923 33.1072C44.371 32.8041 44.1923 32.1328 44.4933 31.6078C44.7943 31.0828 45.461 30.9029 45.9824 31.206C46.5036 31.5091 46.6822 32.1804 46.3812 32.7054C46.0802 33.2304 45.4135 33.4103 44.8923 33.1072Z" fill="#F0F5FE" stroke="#0153F1" stroke-width="0.75"/>
<path d="M70.7045 18.1818H71.5455L73.5227 23.0114H73.5909L75.5682 18.1818H76.4091V24H75.75V19.5795H75.6932L73.875 24H73.2386L71.4205 19.5795H71.3636V24H70.7045V18.1818ZM79.8217 24V18.1818H83.3331V18.8068H80.5263V20.7727H83.1513V21.3977H80.5263V23.375H83.3786V24H79.8217ZM86.2848 18.8068V18.1818H90.6484V18.8068H88.8189V24H88.1143V18.8068H86.2848ZM93.2947 24H92.5561L94.6925 18.1818H95.4197L97.5561 24H96.8175L95.0788 19.1023H95.0334L93.2947 24ZM93.5675 21.7273H96.5447V22.3523H93.5675V21.7273ZM99.9624 24V23.3523H100.133C100.375 23.3523 100.564 23.2746 100.698 23.1193C100.833 22.964 100.929 22.7131 100.988 22.3665C101.049 22.0199 101.089 21.5606 101.11 20.9886L101.212 18.1818H104.758V24H104.053V18.8068H101.883L101.792 21.125C101.769 21.7348 101.713 22.2538 101.624 22.6818C101.535 23.1098 101.379 23.4366 101.156 23.6619C100.932 23.8873 100.606 24 100.178 24H99.9624ZM107.665 24V23.3523H107.836C108.078 23.3523 108.267 23.2746 108.401 23.1193C108.536 22.964 108.632 22.7131 108.691 22.3665C108.752 22.0199 108.792 21.5606 108.813 20.9886L108.915 18.1818H112.461V24H111.756V18.8068H109.586L109.495 21.125C109.472 21.7348 109.416 22.2538 109.327 22.6818C109.238 23.1098 109.082 23.4366 108.859 23.6619C108.635 23.8873 108.309 24 107.881 24H107.665ZM115.869 18.1818H116.562V22.7614H116.619L119.8 18.1818H120.482V24H119.778V19.4318H119.721L116.55 24H115.869V18.1818ZM123.949 18.1818H124.653V20.125C124.653 20.4129 124.704 20.6392 124.804 20.804C124.904 20.9669 125.046 21.0824 125.23 21.1506C125.414 21.2169 125.631 21.25 125.881 21.25C126.038 21.25 126.19 21.2443 126.338 21.233C126.486 21.2197 126.63 21.2017 126.77 21.179C126.912 21.1562 127.05 21.1288 127.185 21.0966C127.321 21.0644 127.455 21.0284 127.585 20.9886V21.625C127.458 21.6648 127.332 21.7008 127.207 21.733C127.084 21.7652 126.955 21.7926 126.821 21.8153C126.688 21.8381 126.545 21.8561 126.392 21.8693C126.239 21.8807 126.068 21.8864 125.881 21.8864C125.479 21.8864 125.134 21.8286 124.844 21.7131C124.556 21.5975 124.334 21.411 124.179 21.1534C124.026 20.8958 123.949 20.553 123.949 20.125V18.1818ZM127.494 18.1818H128.199V24H127.494V18.1818ZM131.611 24V18.1818H135.122V18.8068H132.315V20.7727H134.94V21.3977H132.315V23.375H135.168V24H131.611ZM143.074 20H142.369C142.328 19.7973 142.255 19.6193 142.151 19.4659C142.048 19.3125 141.923 19.1837 141.776 19.0795C141.63 18.9735 141.468 18.8939 141.29 18.8409C141.112 18.7879 140.926 18.7614 140.733 18.7614C140.381 18.7614 140.062 18.8504 139.776 19.0284C139.491 19.2064 139.265 19.4688 139.097 19.8153C138.93 20.1619 138.847 20.5871 138.847 21.0909C138.847 21.5947 138.93 22.0199 139.097 22.3665C139.265 22.7131 139.491 22.9754 139.776 23.1534C140.062 23.3314 140.381 23.4205 140.733 23.4205C140.926 23.4205 141.112 23.3939 141.29 23.3409C141.468 23.2879 141.63 23.2093 141.776 23.1051C141.923 22.9991 142.048 22.8693 142.151 22.7159C142.255 22.5606 142.328 22.3826 142.369 22.1818H143.074C143.021 22.4792 142.924 22.7453 142.784 22.9801C142.644 23.215 142.47 23.4148 142.261 23.5795C142.053 23.7424 141.819 23.8665 141.56 23.9517C141.302 24.0369 141.027 24.0795 140.733 24.0795C140.237 24.0795 139.795 23.9583 139.409 23.7159C139.023 23.4735 138.719 23.1288 138.497 22.6818C138.276 22.2348 138.165 21.7045 138.165 21.0909C138.165 20.4773 138.276 19.947 138.497 19.5C138.719 19.053 139.023 18.7083 139.409 18.4659C139.795 18.2235 140.237 18.1023 140.733 18.1023C141.027 18.1023 141.302 18.1449 141.56 18.2301C141.819 18.3153 142.053 18.4403 142.261 18.6051C142.47 18.768 142.644 18.9669 142.784 19.2017C142.924 19.4347 143.021 19.7008 143.074 20ZM149.633 24L147.633 21.3295H146.917V24H146.212V18.1818H146.917V20.7045H147.224L149.553 18.1818H150.394L148.042 20.7386L150.474 24H149.633ZM153.623 24H152.884L155.021 18.1818H155.748L157.884 24H157.146L155.407 19.1023H155.362L153.623 24ZM153.896 21.7273H156.873V22.3523H153.896V21.7273ZM164.745 24H164.04V18.8068H162.802C162.487 18.8068 162.235 18.8551 162.043 18.9517C161.852 19.0464 161.713 19.1809 161.626 19.3551C161.539 19.5294 161.495 19.733 161.495 19.9659C161.495 20.1989 161.538 20.3996 161.623 20.5682C161.71 20.7348 161.848 20.8636 162.038 20.9545C162.229 21.0455 162.48 21.0909 162.79 21.0909H164.359V21.7273H162.768C162.317 21.7273 161.947 21.6525 161.657 21.5028C161.367 21.3513 161.152 21.143 161.012 20.8778C160.872 20.6127 160.802 20.3087 160.802 19.9659C160.802 19.6231 160.872 19.3172 161.012 19.0483C161.152 18.7794 161.368 18.5682 161.66 18.4148C161.951 18.2595 162.325 18.1818 162.779 18.1818H164.745V24ZM162.006 21.3864H162.802L161.393 24H160.575L162.006 21.3864ZM75.0568 30.1818V36H74.3523V30.8068H71.4205V36H70.7159V30.1818H75.0568ZM77.978 36V35.3523H78.1484C78.3909 35.3523 78.5793 35.2746 78.7138 35.1193C78.8482 34.964 78.9448 34.7131 79.0036 34.3665C79.0642 34.0199 79.1049 33.5606 79.1257 32.9886L79.228 30.1818H82.7734V36H82.0689V30.8068H79.8984L79.8075 33.125C79.7848 33.7348 79.7289 34.2538 79.6399 34.6818C79.5509 35.1098 79.3946 35.4366 79.1712 35.6619C78.9477 35.8873 78.6219 36 78.1939 36H77.978ZM86.4197 36H85.6811L87.8175 30.1818H88.5447L90.6811 36H89.9425L88.2038 31.1023H88.1584L86.4197 36ZM86.6925 33.7273H89.6697V34.3523H86.6925V33.7273ZM93.5874 36V30.1818H94.2919V32.7727H97.3942V30.1818H98.0987V36H97.3942V33.3977H94.2919V36H93.5874ZM104.93 36L102.93 33.3295H102.214V36H101.509V30.1818H102.214V32.7045H102.521L104.85 30.1818H105.691L103.339 32.7386L105.771 36H104.93ZM108.92 36H108.181L110.317 30.1818H111.045L113.181 36H112.442L110.704 31.1023H110.658L108.92 36ZM109.192 33.7273H112.17V34.3523H109.192V33.7273Z" fill="black"/>
<rect x="179.25" y="13.5" width="22.5" height="7.5" rx="1" stroke="#0153F1" stroke-width="0.75"/>
<path d="M184.5 21H196.5V39.5C196.5 40.0523 196.052 40.5 195.5 40.5H185.5C184.948 40.5 184.5 40.0523 184.5 39.5V21Z" stroke="#0153F1" stroke-width="0.75"/>
<path d="M184.5 36L196.5 24.75" stroke="#0153F1" stroke-width="0.75"/>
<path d="M184.5 28.5L192.375 21.1172" stroke="#0153F1" stroke-width="0.75"/>
<path d="M196.5 32.25L187.5 40.6875" stroke="#0153F1" stroke-width="0.75"/>
<path d="M214.966 17.8068V17.2273L217.523 13.1818H217.943V14.0795H217.659L215.727 17.1364V17.1818H219.17V17.8068H214.966ZM217.705 19V17.6307V17.3608V13.1818H218.375V19H217.705ZM222.678 13.1818L224.178 15.6023H224.224L225.724 13.1818H226.553L224.724 16.0909L226.553 19H225.724L224.224 16.625H224.178L222.678 19H221.849L223.724 16.0909L221.849 13.1818H222.678ZM233.72 19V13.1818H235.754C236.16 13.1818 236.494 13.2519 236.757 13.392C237.02 13.5303 237.216 13.7169 237.345 13.9517C237.474 14.1847 237.538 14.4432 237.538 14.7273C237.538 14.9773 237.494 15.1837 237.405 15.3466C237.318 15.5095 237.202 15.6383 237.058 15.733C236.916 15.8277 236.762 15.8977 236.595 15.9432V16C236.773 16.0114 236.952 16.0739 237.132 16.1875C237.312 16.3011 237.463 16.464 237.584 16.6761C237.705 16.8883 237.766 17.1477 237.766 17.4545C237.766 17.7462 237.699 18.0085 237.567 18.2415C237.434 18.4744 237.225 18.6591 236.939 18.7955C236.653 18.9318 236.281 19 235.822 19H233.72ZM234.425 18.375H235.822C236.283 18.375 236.609 18.286 236.803 18.108C236.998 17.928 237.095 17.7102 237.095 17.4545C237.095 17.2576 237.045 17.0758 236.945 16.9091C236.844 16.7405 236.701 16.6061 236.516 16.5057C236.33 16.4034 236.11 16.3523 235.857 16.3523H234.425V18.375ZM234.425 15.7386H235.732C235.944 15.7386 236.135 15.697 236.305 15.6136C236.478 15.5303 236.614 15.4129 236.714 15.2614C236.817 15.1098 236.868 14.9318 236.868 14.7273C236.868 14.4716 236.779 14.2547 236.601 14.0767C236.423 13.8968 236.141 13.8068 235.754 13.8068H234.425V15.7386ZM240.923 13.1818H241.616V17.7614H241.673L244.855 13.1818H245.537V19H244.832V14.4318H244.776L241.605 19H240.923V13.1818ZM248.947 19V13.1818H249.651V15.7727H252.754V13.1818H253.458V19H252.754V16.3977H249.651V19H248.947ZM256.55 13.8068V13.1818H260.914V13.8068H259.085V19H258.38V13.8068H256.55ZM268.251 13.1818H269.092L271.07 18.0114H271.138L273.115 13.1818H273.956V19H273.297V14.5795H273.24L271.422 19H270.786L268.967 14.5795H268.911V19H268.251V13.1818ZM277.13 17.8068V17.2273L279.687 13.1818H280.107V14.0795H279.823L277.891 17.1364V17.1818H281.335V17.8068H277.13ZM279.869 19V17.6307V17.3608V13.1818H280.539V19H279.869ZM215.102 33V32.4886L217.023 30.3864C217.248 30.1402 217.434 29.9261 217.58 29.7443C217.725 29.5606 217.833 29.3883 217.903 29.2273C217.975 29.0644 218.011 28.8939 218.011 28.7159C218.011 28.5114 217.962 28.3343 217.864 28.1847C217.767 28.035 217.634 27.9195 217.466 27.8381C217.297 27.7566 217.108 27.7159 216.898 27.7159C216.674 27.7159 216.479 27.7623 216.312 27.8551C216.148 27.946 216.02 28.0739 215.929 28.2386C215.84 28.4034 215.795 28.5966 215.795 28.8182H215.125C215.125 28.4773 215.204 28.178 215.361 27.9205C215.518 27.6629 215.732 27.4621 216.003 27.3182C216.276 27.1742 216.581 27.1023 216.92 27.1023C217.261 27.1023 217.563 27.1742 217.827 27.3182C218.09 27.4621 218.296 27.6562 218.446 27.9006C218.596 28.1449 218.67 28.4167 218.67 28.7159C218.67 28.9299 218.632 29.1392 218.554 29.3438C218.478 29.5464 218.346 29.7727 218.156 30.0227C217.969 30.2708 217.708 30.5739 217.375 30.9318L216.068 32.3295V32.375H218.773V33H215.102ZM222.389 27.1818L223.889 29.6023H223.935L225.435 27.1818H226.264L224.435 30.0909L226.264 33H225.435L223.935 30.625H223.889L222.389 33H221.56L223.435 30.0909L221.56 27.1818H222.389ZM235.431 27.875H236.352C236.783 27.875 237.167 27.9716 237.502 28.1648C237.837 28.358 238.101 28.6269 238.292 28.9716C238.483 29.3163 238.579 29.7159 238.579 30.1705C238.579 30.625 238.483 31.0256 238.292 31.3722C238.101 31.7187 237.837 31.9896 237.502 32.1847C237.167 32.3797 236.783 32.4773 236.352 32.4773H235.431C234.999 32.4773 234.616 32.3807 234.281 32.1875C233.945 31.9943 233.682 31.7254 233.491 31.3807C233.299 31.036 233.204 30.6364 233.204 30.1818C233.204 29.7273 233.299 29.3267 233.491 28.9801C233.682 28.6335 233.945 28.3627 234.281 28.1676C234.616 27.9725 234.999 27.875 235.431 27.875ZM235.431 28.5C235.102 28.5 234.823 28.5691 234.596 28.7074C234.371 28.8456 234.199 29.0407 234.082 29.2926C233.966 29.5445 233.908 29.8409 233.908 30.1818C233.908 30.5189 233.966 30.8125 234.082 31.0625C234.199 31.3125 234.371 31.5066 234.596 31.6449C234.823 31.7831 235.102 31.8523 235.431 31.8523H236.352C236.681 31.8523 236.959 31.7831 237.184 31.6449C237.411 31.5066 237.583 31.3116 237.698 31.0597C237.816 30.8078 237.874 30.5114 237.874 30.1705C237.874 29.8333 237.816 29.5398 237.698 29.2898C237.583 29.0398 237.411 28.8456 237.184 28.7074C236.959 28.5691 236.681 28.5 236.352 28.5H235.431ZM236.249 27.0795V33.2386H235.545V27.0795H236.249ZM241.759 27.1818H242.452V31.7614H242.509L245.691 27.1818H246.373V33H245.668V28.4318H245.612L242.441 33H241.759V27.1818ZM253.294 27.1818V27.8068H250.487V33H249.783V27.1818H253.294ZM256.691 33.0795V32.4205H257.055C257.195 32.4205 257.312 32.393 257.407 32.3381C257.504 32.2831 257.583 32.2121 257.646 32.125C257.71 32.0379 257.763 31.947 257.805 31.8523L257.896 31.6364L255.884 27.1818H256.646L258.248 30.7955L259.714 27.1818H260.464L258.452 32.0568C258.373 32.2386 258.282 32.4072 258.18 32.5625C258.079 32.7178 257.942 32.8428 257.768 32.9375C257.595 33.0322 257.362 33.0795 257.066 33.0795H256.691ZM263.376 33V27.1818H265.342C265.799 27.1818 266.172 27.2642 266.462 27.429C266.753 27.5919 266.969 27.8125 267.109 28.0909C267.25 28.3693 267.32 28.6799 267.32 29.0227C267.32 29.3655 267.25 29.6771 267.109 29.9574C266.971 30.2377 266.757 30.4612 266.467 30.6278C266.178 30.7926 265.806 30.875 265.354 30.875H263.945V30.25H265.331C265.643 30.25 265.894 30.196 266.084 30.0881C266.273 29.9801 266.411 29.8343 266.496 29.6506C266.583 29.465 266.626 29.2557 266.626 29.0227C266.626 28.7898 266.583 28.5814 266.496 28.3977C266.411 28.214 266.272 28.0701 266.081 27.9659C265.89 27.8598 265.636 27.8068 265.32 27.8068H264.081V33H263.376ZM270.455 33V27.1818H271.159V29.7727H274.261V27.1818H274.966V33H274.261V30.3977H271.159V33H270.455ZM278.899 29.625H280.558C280.975 29.625 281.326 29.6932 281.612 29.8295C281.9 29.9659 282.118 30.1581 282.266 30.4062C282.415 30.6544 282.49 30.947 282.49 31.2841C282.49 31.6212 282.415 31.9186 282.266 32.1761C282.118 32.4337 281.9 32.6354 281.612 32.7812C281.326 32.9271 280.975 33 280.558 33H278.376V27.1818H279.081V32.3864H280.558C280.823 32.3864 281.048 32.3333 281.232 32.2273C281.417 32.1193 281.557 31.9811 281.652 31.8125C281.749 31.642 281.797 31.4621 281.797 31.2727C281.797 30.9943 281.69 30.7547 281.476 30.554C281.262 30.3513 280.956 30.25 280.558 30.25H278.899V29.625ZM283.763 27.1818V33H283.058V27.1818H283.763ZM287.173 27.1818H287.866V31.7614H287.923L291.105 27.1818H291.787V33H291.082V28.4318H291.026L287.855 33H287.173V27.1818ZM290.037 25.7273H290.662C290.662 26.0341 290.556 26.285 290.344 26.4801C290.132 26.6752 289.844 26.7727 289.48 26.7727C289.122 26.7727 288.837 26.6752 288.625 26.4801C288.415 26.285 288.31 26.0341 288.31 25.7273H288.935C288.935 25.875 288.975 26.0047 289.057 26.1165C289.14 26.2282 289.281 26.2841 289.48 26.2841C289.679 26.2841 289.821 26.2282 289.906 26.1165C289.993 26.0047 290.037 25.875 290.037 25.7273ZM299.447 33V27.1818H301.481C301.886 27.1818 302.22 27.2519 302.484 27.392C302.747 27.5303 302.943 27.7169 303.072 27.9517C303.201 28.1847 303.265 28.4432 303.265 28.7273C303.265 28.9773 303.22 29.1837 303.131 29.3466C303.044 29.5095 302.929 29.6383 302.785 29.733C302.643 29.8277 302.488 29.8977 302.322 29.9432V30C302.5 30.0114 302.679 30.0739 302.859 30.1875C303.039 30.3011 303.189 30.464 303.31 30.6761C303.432 30.8883 303.492 31.1477 303.492 31.4545C303.492 31.7462 303.426 32.0085 303.293 32.2415C303.161 32.4744 302.951 32.6591 302.665 32.7955C302.379 32.9318 302.007 33 301.549 33H299.447ZM300.151 32.375H301.549C302.009 32.375 302.336 32.286 302.529 32.108C302.724 31.928 302.822 31.7102 302.822 31.4545C302.822 31.2576 302.772 31.0758 302.671 30.9091C302.571 30.7405 302.428 30.6061 302.242 30.5057C302.057 30.4034 301.837 30.3523 301.583 30.3523H300.151V32.375ZM300.151 29.7386H301.458C301.67 29.7386 301.862 29.697 302.032 29.6136C302.204 29.5303 302.341 29.4129 302.441 29.2614C302.543 29.1098 302.594 28.9318 302.594 28.7273C302.594 28.4716 302.505 28.2547 302.327 28.0767C302.149 27.8968 301.867 27.8068 301.481 27.8068H300.151V29.7386ZM306.65 27.1818H307.343V31.7614H307.4L310.582 27.1818H311.263V33H310.559V28.4318H310.502L307.332 33H306.65V27.1818ZM314.673 33V27.1818H315.378V29.7727H318.48V27.1818H319.185V33H318.48V30.3977H315.378V33H314.673ZM322.277 27.8068V27.1818H326.641V27.8068H324.811V33H324.107V27.8068H322.277ZM215.205 35.1818H216.045L218.023 40.0114H218.091L220.068 35.1818H220.909V41H220.25V36.5795H220.193L218.375 41H217.739L215.92 36.5795H215.864V41H215.205V35.1818ZM224.083 39.8068V39.2273L226.64 35.1818H227.06V36.0795H226.776L224.844 39.1364V39.1818H228.288V39.8068H224.083ZM226.822 41V39.6307V39.3608V35.1818H227.492V41H226.822Z" fill="black"/>
<path d="M343.655 94.3445H1.34375V295.483H343.655V94.3445Z" fill="white" stroke="#0153F1"/>
<path d="M280.981 261.041H64.0234V295.483H280.981V261.041Z" fill="white" stroke="#0153F1"/>
<path d="M195.571 201.113H148.047V345.767H195.571V201.113Z" fill="white" stroke="#0153F1"/>
<path d="M244.131 345.767H99.4922V352.655H244.131V345.767Z" fill="white" stroke="#0153F1"/>
<path d="M123.348 167.873C123.979 155.877 133.464 146.39 145.459 145.759C153.579 145.332 163.174 144.973 172.497 144.973C181.821 144.973 191.416 145.332 199.535 145.759C211.53 146.39 221.016 155.877 221.646 167.873C222.073 175.993 222.432 185.589 222.432 194.914C222.432 204.238 222.073 213.834 221.646 221.955C221.016 233.951 211.53 243.437 199.535 244.068C191.416 244.495 181.821 244.854 172.497 244.854C163.174 244.854 153.579 244.495 145.459 244.068C133.464 243.437 123.979 233.951 123.348 221.955C122.921 213.834 122.562 204.238 122.562 194.914C122.562 185.589 122.921 175.993 123.348 167.873Z" fill="white" stroke="#0153F1"/>
<path d="M126.305 170.803C126.911 158.806 136.398 149.318 148.393 148.712C155.734 148.34 164.232 148.04 172.502 148.04C180.771 148.04 189.268 148.34 196.61 148.712C208.605 149.318 218.092 158.806 218.698 170.803C219.07 178.145 219.37 186.643 219.37 194.914C219.37 203.184 219.07 211.682 218.698 219.024C218.092 231.021 208.605 240.509 196.61 241.115C189.268 241.487 180.771 241.787 172.502 241.787C164.232 241.787 155.734 241.487 148.393 241.115C136.398 240.509 126.911 231.021 126.305 219.024C125.933 211.682 125.633 203.184 125.633 194.914C125.633 186.643 125.933 178.145 126.305 170.803Z" fill="#F0F5FE"/>
<path d="M174.134 194.511L174.002 194.733L174.006 194.736L174.011 194.738L174.134 194.511ZM171.595 194.04L171.607 193.781H171.601H171.595V194.04ZM172.965 192.782L172.885 193.028L172.889 193.029L172.893 193.03L172.965 192.782ZM173.771 193.293L173.551 193.428L173.657 193.6L173.849 193.539L173.771 193.293ZM175.383 192.782L175.461 193.028L175.782 192.927L175.6 192.643L175.383 192.782ZM174.496 191.839L174.642 191.626L174.637 191.622L174.631 191.618L174.496 191.839ZM165.269 192.939L165.021 192.87L165.014 192.892L165.012 192.915L165.269 192.939ZM165.43 194.236L165.662 194.123L165.661 194.12L165.66 194.118L165.43 194.236ZM167.808 195.376L167.826 195.118L167.823 195.118L167.82 195.117L167.808 195.376ZM171.958 195.376L171.967 195.117H171.962H171.958V195.376ZM173.812 196.515L173.576 196.408L173.572 196.417L173.569 196.426L173.812 196.515ZM167.646 196.908L167.562 197.152L167.564 197.153L167.567 197.154L167.646 196.908ZM166.72 196.24L166.97 196.176L166.902 195.911L166.642 195.994L166.72 196.24ZM165.108 196.751L165.03 196.505L164.726 196.601L164.884 196.879L165.108 196.751ZM166.115 197.89L166.254 197.673L166.251 197.671L166.248 197.669L166.115 197.89ZM175.101 195.376L175.317 195.234L175.316 195.232L175.314 195.23L175.101 195.376ZM179.573 191.093H179.831V190.834H179.573V191.093ZM179.573 192.114L179.651 192.36L179.831 192.303V192.114H179.573ZM177.962 191.093V190.834H177.703V191.093H177.962ZM177.962 192.625H177.703V192.978L178.039 192.871L177.962 192.625ZM179.573 198.48V198.738H179.831V198.48H179.573ZM179.573 193.175H179.831V192.814L179.49 192.931L179.573 193.175ZM177.962 198.48H177.703V198.738H177.962V198.48ZM177.962 193.725L177.878 193.481L177.703 193.54V193.725H177.962ZM152.392 194.865C152.392 193.608 152.781 192.757 153.589 192.204C154.419 191.636 155.734 191.351 157.654 191.351V190.834C155.705 190.834 154.26 191.119 153.297 191.778C152.312 192.453 151.875 193.488 151.875 194.865H152.392ZM157.654 198.379C155.734 198.379 154.419 198.094 153.589 197.525C152.781 196.972 152.392 196.121 152.392 194.865H151.875C151.875 196.241 152.312 197.277 153.297 197.951C154.26 198.61 155.705 198.895 157.654 198.895V198.379ZM162.915 194.865C162.915 196.121 162.526 196.972 161.718 197.525C160.888 198.094 159.574 198.379 157.654 198.379V198.895C159.602 198.895 161.047 198.61 162.01 197.951C162.995 197.277 163.432 196.241 163.432 194.865H162.915ZM157.654 191.351C159.574 191.351 160.888 191.636 161.718 192.204C162.526 192.757 162.915 193.608 162.915 194.865H163.432C163.432 193.488 162.995 192.453 162.01 191.778C161.047 191.119 159.602 190.834 157.654 190.834V191.351ZM157.654 197.559C159.054 197.559 160.176 197.393 160.954 196.973C161.348 196.761 161.66 196.481 161.871 196.122C162.082 195.764 162.183 195.344 162.183 194.865H161.666C161.666 195.27 161.581 195.596 161.426 195.86C161.27 196.124 161.035 196.343 160.709 196.518C160.047 196.875 159.033 197.043 157.654 197.043V197.559ZM153.124 194.865C153.124 195.344 153.226 195.764 153.436 196.122C153.647 196.481 153.958 196.761 154.353 196.973C155.131 197.393 156.253 197.559 157.654 197.559V197.043C156.274 197.043 155.26 196.875 154.598 196.518C154.272 196.343 154.037 196.124 153.881 195.86C153.726 195.596 153.641 195.27 153.641 194.865H153.124ZM157.654 192.17C156.251 192.17 155.13 192.347 154.352 192.772C153.958 192.986 153.648 193.267 153.437 193.623C153.226 193.979 153.124 194.394 153.124 194.865H153.641C153.641 194.471 153.725 194.149 153.881 193.886C154.037 193.623 154.273 193.403 154.599 193.225C155.261 192.864 156.276 192.687 157.654 192.687V192.17ZM162.183 194.865C162.183 194.394 162.081 193.979 161.871 193.623C161.66 193.267 161.349 192.986 160.955 192.772C160.177 192.347 159.056 192.17 157.654 192.17V192.687C159.031 192.687 160.046 192.864 160.708 193.225C161.034 193.403 161.27 193.623 161.426 193.886C161.582 194.149 161.666 194.471 161.666 194.865H162.183ZM171.819 194.308C172.622 194.341 173.409 194.38 174.002 194.733L174.266 194.289C173.54 193.856 172.61 193.824 171.84 193.792L171.819 194.308ZM171.583 194.298C171.661 194.301 171.74 194.305 171.819 194.308L171.84 193.792C171.761 193.788 171.684 193.785 171.607 193.781L171.583 194.298ZM170.969 194.279C171.179 194.288 171.392 194.298 171.595 194.298V193.781C171.406 193.781 171.205 193.772 170.993 193.762L170.969 194.279ZM170.306 194.258C170.526 194.258 170.747 194.268 170.969 194.279L170.993 193.762C170.772 193.752 170.54 193.742 170.306 193.742V194.258ZM169.54 194.258H170.306V193.742H169.54V194.258ZM169.379 194.258H169.54V193.742H169.379V194.258ZM168.936 194.258H169.379V193.742H168.936V194.258ZM166.47 193.357C166.531 193.597 166.694 193.769 166.883 193.887C167.07 194.005 167.298 194.082 167.529 194.134C167.992 194.239 168.529 194.258 168.936 194.258V193.742C168.537 193.742 168.047 193.722 167.643 193.631C167.441 193.585 167.276 193.524 167.158 193.45C167.043 193.377 166.989 193.303 166.97 193.229L166.47 193.357ZM169.5 192.209C168.729 192.209 167.969 192.258 167.414 192.394C167.141 192.46 166.887 192.555 166.71 192.697C166.618 192.771 166.537 192.864 166.49 192.981C166.442 193.102 166.437 193.23 166.47 193.357L166.97 193.229C166.963 193.199 166.966 193.183 166.97 193.173C166.976 193.159 166.991 193.134 167.032 193.1C167.122 193.029 167.286 192.957 167.537 192.896C168.03 192.775 168.74 192.726 169.5 192.726V192.209ZM173.045 192.536C172.773 192.448 172.232 192.368 171.604 192.309C170.967 192.249 170.214 192.209 169.5 192.209V192.726C170.197 192.726 170.934 192.765 171.556 192.823C172.188 192.882 172.674 192.959 172.885 193.028L173.045 192.536ZM173.991 193.158C173.824 192.885 173.473 192.661 173.038 192.534L172.893 193.03C173.264 193.139 173.477 193.308 173.551 193.428L173.991 193.158ZM175.305 192.536L173.693 193.047L173.849 193.539L175.461 193.028L175.305 192.536ZM174.351 192.052C174.715 192.301 174.975 192.624 175.165 192.921L175.6 192.643C175.388 192.311 175.084 191.927 174.642 191.626L174.351 192.052ZM169.943 191.351C170.701 191.351 171.585 191.39 172.396 191.501C173.216 191.613 173.927 191.794 174.362 192.06L174.631 191.618C174.099 191.294 173.298 191.103 172.466 190.989C171.625 190.874 170.716 190.834 169.943 190.834V191.351ZM165.518 193.009C165.722 192.278 166.384 191.854 167.266 191.617C168.141 191.381 169.159 191.351 169.943 191.351V190.834C169.156 190.834 168.079 190.863 167.131 191.118C166.19 191.372 165.3 191.872 165.021 192.87L165.518 193.009ZM165.66 194.118C165.495 193.795 165.487 193.388 165.526 192.963L165.012 192.915C164.971 193.355 164.963 193.891 165.201 194.354L165.66 194.118ZM167.82 195.117C167.416 195.099 166.953 195.024 166.55 194.861C166.145 194.698 165.826 194.457 165.662 194.123L165.198 194.349C165.438 194.84 165.885 195.15 166.356 195.34C166.829 195.531 167.353 195.613 167.796 195.634L167.82 195.117ZM169.54 195.157C168.934 195.157 168.379 195.156 167.826 195.118L167.79 195.633C168.364 195.673 168.938 195.673 169.54 195.673V195.157ZM170.5 195.137C170.177 195.147 169.858 195.157 169.54 195.157V195.673C169.867 195.673 170.193 195.663 170.515 195.653L170.5 195.137ZM171.475 195.117C171.147 195.117 170.821 195.127 170.5 195.137L170.515 195.653C170.838 195.644 171.157 195.634 171.475 195.634V195.117ZM171.958 195.117H171.475V195.634H171.958V195.117ZM174.046 196.622C174.154 196.385 174.16 196.146 174.054 195.93C173.954 195.726 173.77 195.576 173.566 195.467C173.158 195.249 172.569 195.138 171.967 195.117L171.949 195.634C172.516 195.653 173.014 195.758 173.322 195.923C173.475 196.005 173.556 196.088 173.59 196.158C173.619 196.216 173.629 196.292 173.576 196.408L174.046 196.622ZM170.79 197.481C171.501 197.481 172.225 197.441 172.803 197.329C173.091 197.272 173.357 197.196 173.569 197.088C173.777 196.983 173.971 196.83 174.054 196.604L173.569 196.426C173.551 196.475 173.493 196.548 173.336 196.627C173.183 196.704 172.97 196.77 172.704 196.822C172.174 196.925 171.488 196.964 170.79 196.964V197.481ZM167.567 197.154C167.836 197.241 168.312 197.322 168.873 197.381C169.441 197.441 170.115 197.481 170.79 197.481V196.964C170.134 196.964 169.478 196.925 168.928 196.867C168.371 196.808 167.941 196.732 167.726 196.662L167.567 197.154ZM166.47 196.304C166.493 196.395 166.547 196.479 166.602 196.547C166.661 196.619 166.737 196.692 166.827 196.762C167.007 196.904 167.254 197.045 167.562 197.152L167.732 196.664C167.475 196.575 167.279 196.46 167.146 196.356C167.08 196.304 167.033 196.257 167.002 196.219C166.968 196.178 166.967 196.163 166.97 196.176L166.47 196.304ZM165.186 196.997L166.798 196.486L166.642 195.994L165.03 196.505L165.186 196.997ZM166.248 197.669C165.787 197.392 165.533 196.974 165.333 196.623L164.884 196.879C165.086 197.234 165.396 197.76 165.982 198.112L166.248 197.669ZM170.628 198.379C169.89 198.379 169.006 198.34 168.195 198.229C167.374 198.117 166.667 197.935 166.254 197.673L165.977 198.108C166.491 198.435 167.295 198.627 168.125 198.741C168.966 198.856 169.875 198.895 170.628 198.895V198.379ZM175.054 196.721C174.849 197.452 174.188 197.875 173.306 198.112C172.43 198.348 171.413 198.379 170.628 198.379V198.895C171.415 198.895 172.493 198.867 173.441 198.611C174.382 198.358 175.272 197.858 175.551 196.86L175.054 196.721ZM174.885 195.517C175.12 195.877 175.158 196.349 175.054 196.721L175.551 196.86C175.689 196.367 175.646 195.738 175.317 195.234L174.885 195.517ZM174.011 194.738C174.34 194.917 174.671 195.204 174.888 195.521L175.314 195.23C175.047 194.84 174.653 194.498 174.257 194.284L174.011 194.738ZM179.315 191.093V192.114H179.831V191.093H179.315ZM177.962 191.351H179.573V190.834H177.962V191.351ZM178.22 192.625V191.093H177.703V192.625H178.22ZM179.495 191.868L177.883 192.379L178.039 192.871L179.651 192.36L179.495 191.868ZM187.35 190.834C185.402 190.834 183.957 191.119 182.994 191.778C182.008 192.453 181.572 193.488 181.572 194.865H182.088C182.088 193.608 182.478 192.757 183.286 192.204C184.116 191.636 185.43 191.351 187.35 191.351V190.834ZM193.129 194.865C193.129 193.488 192.692 192.453 191.707 191.778C190.744 191.119 189.299 190.834 187.35 190.834V191.351C189.27 191.351 190.584 191.636 191.415 192.204C192.223 192.757 192.612 193.608 192.612 194.865H193.129ZM187.35 198.895C189.299 198.895 190.744 198.61 191.707 197.951C192.692 197.277 193.129 196.241 193.129 194.865H192.612C192.612 196.121 192.223 196.972 191.415 197.525C190.584 198.094 189.27 198.379 187.35 198.379V198.895ZM181.572 194.865C181.572 196.241 182.008 197.277 182.994 197.951C183.957 198.61 185.402 198.895 187.35 198.895V198.379C185.43 198.379 184.116 198.094 183.286 197.525C182.478 196.972 182.088 196.121 182.088 194.865H181.572ZM191.363 194.865C191.363 195.27 191.278 195.596 191.122 195.86C190.967 196.124 190.731 196.343 190.406 196.518C189.744 196.875 188.73 197.043 187.35 197.043V197.559C188.751 197.559 189.872 197.393 190.651 196.973C191.045 196.761 191.356 196.481 191.568 196.122C191.778 195.764 191.88 195.344 191.88 194.865H191.363ZM187.35 192.687C188.728 192.687 189.742 192.864 190.405 193.225C190.731 193.403 190.967 193.623 191.123 193.886C191.278 194.149 191.363 194.471 191.363 194.865H191.88C191.88 194.394 191.778 193.979 191.567 193.623C191.357 193.267 191.046 192.986 190.652 192.772C189.874 192.347 188.753 192.17 187.35 192.17V192.687ZM183.338 194.865C183.338 194.471 183.422 194.149 183.578 193.886C183.733 193.623 183.969 193.403 184.296 193.225C184.958 192.864 185.973 192.687 187.35 192.687V192.17C185.948 192.17 184.827 192.347 184.048 192.772C183.655 192.986 183.344 193.267 183.133 193.623C182.923 193.979 182.821 194.394 182.821 194.865H183.338ZM187.35 197.043C185.971 197.043 184.957 196.875 184.295 196.518C183.969 196.343 183.734 196.124 183.578 195.86C183.423 195.596 183.338 195.27 183.338 194.865H182.821C182.821 195.344 182.922 195.764 183.133 196.122C183.344 196.481 183.655 196.761 184.049 196.973C184.828 197.393 185.95 197.559 187.35 197.559V197.043ZM179.831 198.48V193.175H179.315V198.48H179.831ZM177.962 198.738H179.573V198.222H177.962V198.738ZM177.703 193.725V198.48H178.22V193.725H177.703ZM179.49 192.931L177.878 193.481L178.045 193.969L179.657 193.419L179.49 192.931Z" fill="#0153F1"/>
<path d="M132.897 261.041H116.367V263.797H132.897V261.041Z" fill="white" stroke="#0153F1"/>
<path d="M218.991 261.041H202.461V263.797H218.991V261.041Z" fill="white" stroke="#0153F1"/>
<path d="M137.715 261.041H135.648V263.797H137.715V261.041Z" fill="white" stroke="#0153F1"/>
<path d="M141.16 261.041H139.094V263.797H141.16V261.041Z" fill="white" stroke="#0153F1"/>
</svg>
