<svg width="375" height="303" viewBox="0 0 375 303" fill="none" xmlns="http://www.w3.org/2000/svg">
<path d="M17.125 118.278V160.022C17.125 165.577 20.5362 171.13 27.3579 175.602C44.0016 186.51 67.5946 201.544 91.4877 215.335C115.381 229.126 141.427 242.743 160.327 252.349C175.82 260.225 198.818 260.225 214.311 252.349C233.209 242.743 259.255 229.126 283.15 215.335C307.042 201.544 330.635 186.51 347.279 175.602C354.103 171.13 357.513 165.577 357.513 160.022V117.756" stroke="#0153F1" stroke-width="0.75"/>
<path d="M27.3578 133.857C13.7141 124.914 13.7141 111.641 27.3578 102.698C44.0015 91.7897 67.5946 76.7563 91.4876 62.9654C115.381 49.1746 141.427 35.5573 160.327 25.9507C175.82 18.0757 198.817 18.0757 214.311 25.9507C233.209 35.5573 259.255 49.1746 283.15 62.9654C307.042 76.7563 330.635 91.7897 347.279 102.698C360.923 111.641 360.923 124.914 347.279 133.857C330.635 144.766 307.042 159.799 283.15 173.59C259.255 187.381 233.209 200.998 214.311 210.605C198.817 218.48 175.82 218.48 160.327 210.605C141.427 200.998 115.381 187.381 91.4876 173.59C67.5946 159.799 44.0015 144.766 27.3578 133.857Z" fill="#EBF2FC" stroke="#0153F1" stroke-width="0.75"/>
<path d="M53.7241 143.079C40.6785 134.386 41.1176 121.672 54.2916 113.042C69.89 102.826 91.8489 88.8449 114.085 76.0104C136.321 63.1762 160.544 50.502 178.245 41.4986C193.195 33.8948 215.223 33.6414 230.285 41.1713C243.346 47.7006 260.309 56.578 278.912 67.3135C296.788 77.6315 311.131 86.7552 321.671 93.8001C334.536 102.401 333.983 114.921 320.972 123.448C305.351 133.685 283.23 147.779 260.828 160.709C238.425 173.639 214.008 186.407 196.273 195.423C181.499 202.933 159.807 203.252 144.906 195.825C132.701 189.743 116.893 181.463 99.0172 171.145C80.4173 160.41 65.0364 150.618 53.7241 143.079Z" fill="#DDE8FB"/>
<path fill-rule="evenodd" clip-rule="evenodd" d="M191.987 209.161C188.117 206.927 188.117 203.306 191.987 201.072C195.856 198.839 202.13 198.839 206 201.072C209.869 203.306 209.869 206.927 206 209.161C202.13 211.394 195.856 211.394 191.987 209.161ZM191.535 200.811C187.415 203.189 187.415 207.044 191.535 209.421C195.654 211.799 202.332 211.799 206.452 209.421C210.571 207.044 210.571 203.189 206.452 200.811C202.332 198.434 195.654 198.434 191.535 200.811ZM330.913 128.975C327.044 126.742 327.044 123.12 330.913 120.887C334.783 118.654 341.057 118.654 344.926 120.887C348.796 123.12 348.796 126.742 344.926 128.975C341.057 131.208 334.783 131.208 330.913 128.975ZM330.461 120.626C326.341 123.004 326.341 126.858 330.461 129.236C334.581 131.614 341.258 131.614 345.379 129.236C349.499 126.858 349.499 123.004 345.379 120.626C341.258 118.248 334.581 118.248 330.461 120.626Z" fill="#0153F1"/>
<path fill-rule="evenodd" clip-rule="evenodd" d="M29.7837 115.538C25.9142 113.305 25.9142 109.684 29.7837 107.45C33.6532 105.217 39.9272 105.217 43.7967 107.45C47.6661 109.684 47.6661 113.305 43.7967 115.538C39.9272 117.772 33.6532 117.772 29.7837 115.538ZM29.3317 107.189C25.2124 109.567 25.2124 113.421 29.3317 115.799C33.451 118.177 40.1294 118.177 44.2487 115.799C48.368 113.421 48.368 109.567 44.2487 107.189C40.1294 104.812 33.451 104.812 29.3317 107.189ZM168.71 35.3529C164.841 33.1194 164.841 29.4982 168.71 27.2648C172.58 25.0313 178.854 25.0313 182.723 27.2648C186.593 29.4982 186.593 33.1194 182.723 35.3529C178.854 37.5863 172.58 37.5863 168.71 35.3529ZM168.258 27.0039C164.139 29.3814 164.139 33.2362 168.258 35.6138C172.377 37.9915 179.056 37.9915 183.175 35.6138C187.294 33.2362 187.294 29.3814 183.175 27.0039C179.056 24.6263 172.377 24.6263 168.258 27.0039Z" fill="#0153F1"/>
<path d="M73.7067 93.0571C69.7123 90.7517 69.7123 87.0134 73.7067 84.708C77.7012 82.4027 84.1773 82.4027 88.1717 84.708L97.5138 90.1001L83.0488 98.4491L73.7067 93.0571Z" fill="#D3E1F7"/>
<path d="M129.16 61.0522C125.165 58.7468 125.165 55.0085 129.16 52.7032C133.154 50.3978 139.63 50.3978 143.625 52.7032L152.967 58.0952L138.502 66.4443L129.16 61.0522Z" fill="#D3E1F7"/>
<path d="M259.941 168.546C263.936 170.851 270.412 170.851 274.407 168.546C278.401 166.24 278.401 162.502 274.407 160.197L265.067 154.805L250.602 163.154L259.941 168.546Z" fill="#D3E1F7"/>
<path d="M271.694 166.981C274.19 165.54 274.19 163.203 271.694 161.763C269.197 160.322 265.15 160.322 262.653 161.763C260.157 163.203 260.157 165.54 262.653 166.981C265.15 168.422 269.197 168.422 271.694 166.981Z" fill="#EBF2FC"/>
<path d="M264.383 164.49C264.195 164.449 264.195 164.293 264.383 164.253C265.584 163.996 266.53 163.45 266.976 162.758C267.045 162.648 267.317 162.648 267.386 162.758C267.828 163.45 268.775 163.996 269.975 164.253C270.166 164.293 270.166 164.449 269.975 164.49C268.775 164.746 267.828 165.292 267.386 165.985C267.317 166.095 267.045 166.095 266.976 165.985C266.53 165.292 265.584 164.746 264.383 164.49Z" fill="#B1C5E5"/>
<path d="M85.4594 91.4914C87.9559 90.0504 87.9559 87.7142 85.4594 86.2733C82.9629 84.8323 78.9153 84.8323 76.4188 86.2733C73.9223 87.7142 73.9223 90.0504 76.4188 91.4914C78.9153 92.9323 82.9629 92.9323 85.4594 91.4914Z" fill="#EBF2FC"/>
<path d="M78.143 89.001C77.9523 88.9603 77.9523 88.8045 78.143 88.7638C79.3428 88.5074 80.2886 87.9616 80.7327 87.269C80.8033 87.159 81.073 87.159 81.1436 87.269C81.5876 87.9616 82.5334 88.5074 83.7332 88.7638C83.9239 88.8045 83.9239 88.9603 83.7332 89.001C82.5334 89.2574 81.5876 89.8032 81.1436 90.4959C81.073 90.6058 80.8033 90.6058 80.7327 90.4959C80.2886 89.8032 79.3428 89.2574 78.143 89.001Z" fill="#B1C5E5"/>
<path d="M140.913 59.487C143.409 58.0461 143.409 55.7098 140.913 54.2689C138.416 52.8279 134.368 52.8279 131.872 54.2689C129.375 55.7098 129.375 58.0461 131.872 59.487C134.368 60.9279 138.416 60.9279 140.913 59.487Z" fill="#EBF2FC"/>
<path d="M133.596 56.9962C133.405 56.9555 133.405 56.7996 133.596 56.7589C134.796 56.5025 135.742 55.9567 136.186 55.2641C136.256 55.1542 136.526 55.1542 136.597 55.2641C137.041 55.9567 137.987 56.5025 139.186 56.7589C139.377 56.7996 139.377 56.9555 139.186 56.9962C137.987 57.2525 137.041 57.7984 136.597 58.491C136.526 58.6009 136.256 58.6009 136.186 58.491C135.742 57.7984 134.796 57.2525 133.596 56.9962Z" fill="#B1C5E5"/>
<path d="M53.7241 143.079C40.6785 134.386 41.1176 121.672 54.2916 113.042C69.89 102.826 91.8489 88.8449 114.085 76.0104C136.321 63.1762 160.544 50.502 178.245 41.4986C193.195 33.8948 215.223 33.6414 230.285 41.1713C243.346 47.7006 260.309 56.578 278.912 67.3135C296.788 77.6315 311.131 86.7552 321.671 93.8001C334.536 102.401 333.983 114.921 320.972 123.448C305.351 133.685 283.23 147.779 260.828 160.709C238.425 173.639 214.008 186.407 196.273 195.423C181.499 202.933 159.807 203.252 144.906 195.825C132.701 189.743 116.893 181.463 99.0172 171.145C80.4173 160.41 65.0364 150.618 53.7241 143.079Z" fill="#D4E1F7"/>
<mask id="mask0_3057_3309" style="mask-type:alpha" maskUnits="userSpaceOnUse" x="44" y="35" width="288" height="167">
<path d="M53.7241 143.079C40.6785 134.386 41.1176 121.672 54.2916 113.042C69.89 102.826 91.8489 88.8449 114.085 76.0104C136.321 63.1762 160.544 50.502 178.245 41.4986C193.195 33.8948 215.223 33.6414 230.285 41.1713C243.346 47.7006 260.309 56.578 278.912 67.3135C296.788 77.6315 311.131 86.7552 321.671 93.8001C334.536 102.401 333.983 114.921 320.972 123.448C305.351 133.685 283.23 147.779 260.828 160.709C238.425 173.639 214.008 186.407 196.273 195.423C181.499 202.933 159.807 203.252 144.906 195.825C132.701 189.743 116.893 181.463 99.0172 171.145C80.4173 160.41 65.0364 150.618 53.7241 143.079Z" fill="#D4E1F7"/>
</mask>
<g mask="url(#mask0_3057_3309)">
<path d="M53.8647 153.433C40.8191 144.74 41.2582 132.025 54.4322 123.397C70.0309 113.18 91.9896 99.1987 114.226 86.3645C136.462 73.5303 160.684 60.8558 178.385 51.8528C193.335 44.2489 215.364 43.9953 230.426 51.5251C243.488 58.0544 260.451 66.9322 279.051 77.6676C296.926 87.9856 311.273 97.1094 321.81 104.154C334.678 112.755 334.125 125.275 321.114 133.803C305.493 144.039 283.373 158.133 260.97 171.063C238.567 183.994 214.148 196.762 196.414 205.776C181.64 213.287 159.947 213.606 145.047 206.18C132.842 200.097 117.034 191.818 99.1579 181.5C80.5579 170.764 65.177 160.972 53.8647 153.433Z" fill="#DDE8FB"/>
<mask id="mask1_3057_3309" style="mask-type:alpha" maskUnits="userSpaceOnUse" x="44" y="46" width="288" height="166">
<path d="M53.8647 153.433C40.8191 144.74 41.2582 132.025 54.4322 123.397C70.0309 113.18 91.9896 99.1987 114.226 86.3645C136.462 73.5303 160.684 60.8558 178.385 51.8528C193.335 44.2489 215.364 43.9953 230.426 51.5251C243.488 58.0544 260.451 66.9322 279.051 77.6676C296.926 87.9856 311.273 97.1094 321.81 104.154C334.678 112.755 334.125 125.275 321.114 133.803C305.493 144.039 283.373 158.133 260.97 171.063C238.567 183.994 214.148 196.762 196.414 205.776C181.64 213.287 159.947 213.606 145.047 206.18C132.842 200.097 117.034 191.818 99.1579 181.5C80.5579 170.764 65.177 160.972 53.8647 153.433Z" fill="#F0F5FE"/>
</mask>
<g mask="url(#mask1_3057_3309)">
<path d="M231.306 173.595C231.971 173.979 233.052 173.979 233.716 173.595C234.381 173.21 234.381 172.587 233.716 172.203C233.052 171.819 231.971 171.819 231.306 172.203C230.64 172.587 230.64 173.21 231.306 173.595ZM232.285 172.769L200.061 191.367L200.513 191.628L232.737 173.03L232.285 172.769ZM199.344 192.368V205.947H199.983V192.368H199.344ZM200.061 191.367C199.602 191.633 199.344 191.993 199.344 192.368H199.983C199.983 192.09 200.174 191.825 200.513 191.628L200.061 191.367Z" fill="white"/>
<path d="M46.7188 127.066L84.6679 148.97C85.0677 149.201 85.2922 149.513 85.2922 149.84V158.04C85.2922 158.366 85.5166 158.679 85.9164 158.909L95.9687 164.711C96.3686 164.942 96.593 165.255 96.593 165.581V184.205" stroke="white" stroke-width="0.75"/>
<path d="M48.6797 125.066L85.8755 146.535C86.2753 146.765 86.8171 146.895 87.3822 146.895H104.904C105.469 146.895 106.011 147.025 106.411 147.255L116.765 153.231C117.164 153.462 117.706 153.592 118.271 153.592H150.839H162.29" stroke="white" stroke-width="0.75"/>
<path d="M51.5469 123.587L87.6883 144.447C88.0878 144.678 88.6299 144.808 89.195 144.808H167.289C167.854 144.808 168.396 144.678 168.796 144.447L214.731 117.934L257.953 92.9865C258.353 92.7559 258.896 92.6265 259.46 92.6265H308.301" stroke="white" stroke-width="0.75"/>
<path d="M164.4 135.328C165.066 135.712 166.146 135.712 166.811 135.328C167.477 134.944 167.477 134.321 166.811 133.937C166.146 133.552 165.066 133.552 164.4 133.937C163.735 134.321 163.735 134.944 164.4 135.328ZM99.3586 135.329C100.024 135.713 101.104 135.713 101.769 135.329C102.435 134.944 102.435 134.321 101.769 133.937C101.104 133.553 100.024 133.553 99.3586 133.937C98.693 134.321 98.693 134.944 99.3586 135.329ZM100.564 134.817L165.606 134.817V134.448L100.564 134.448V134.817Z" fill="white"/>
<path d="M58.7805 139.242C59.4462 139.626 60.5256 139.626 61.1913 139.242C61.857 138.857 61.857 138.234 61.1913 137.85C60.5256 137.466 59.4462 137.466 58.7805 137.85C58.1148 138.234 58.1148 138.857 58.7805 139.242ZM77.0123 153.592C77.6783 153.976 78.7574 153.976 79.4234 153.592C80.0891 153.207 80.0891 152.584 79.4234 152.2C78.7574 151.816 77.6783 151.816 77.0123 152.2C76.3466 152.584 76.3466 153.207 77.0123 153.592ZM59.6661 138.546V141.863H60.3057V138.546H59.6661ZM60.384 142.863L77.9919 153.026L78.4439 152.765L60.836 142.602L60.384 142.863ZM59.6661 141.863C59.6661 142.238 59.9243 142.598 60.384 142.863L60.836 142.602C60.4964 142.406 60.3057 142.14 60.3057 141.863H59.6661Z" fill="white"/>
<path d="M45.5156 128.979L53.0284 133.315C53.4279 133.546 53.6523 133.859 53.6523 134.185V143.764" stroke="white" stroke-width="0.75"/>
<path d="M89.3667 153.592C90.0324 153.976 91.1118 153.976 91.7775 153.592C92.4431 153.208 92.4431 152.584 91.7775 152.2C91.1118 151.816 90.0324 151.816 89.3667 152.2C88.7007 152.584 88.7007 153.208 89.3667 153.592ZM125.831 168.551C126.496 168.935 127.576 168.935 128.241 168.551C128.907 168.166 128.907 167.543 128.241 167.159C127.576 166.775 126.496 166.775 125.831 167.159C125.165 167.543 125.165 168.166 125.831 168.551ZM90.3459 153.027L105.844 161.972L106.296 161.711L90.7979 152.766L90.3459 153.027ZM107.577 162.386H116.359V162.017H107.577V162.386ZM117.64 162.692L126.81 167.985L127.262 167.724L118.092 162.431L117.64 162.692ZM116.359 162.386C116.84 162.386 117.3 162.496 117.64 162.692L118.092 162.431C117.632 162.166 117.009 162.017 116.359 162.017V162.386ZM105.844 161.972C106.304 162.237 106.927 162.386 107.577 162.386V162.017C107.097 162.017 106.636 161.907 106.296 161.711L105.844 161.972Z" fill="white"/>
<path d="M91.1711 158.81C91.8368 159.194 92.9162 159.194 93.5819 158.81C94.2476 158.426 94.2476 157.803 93.5819 157.419C92.9162 157.034 91.8368 157.034 91.1711 157.419C90.5055 157.803 90.5055 158.426 91.1711 158.81ZM104.581 166.55C105.247 166.934 106.326 166.934 106.992 166.55C107.658 166.166 107.658 165.543 106.992 165.159C106.326 164.775 105.247 164.775 104.581 165.159C103.916 165.543 103.916 166.166 104.581 166.55ZM92.1503 158.245L105.561 165.985L106.013 165.724L92.6023 157.984L92.1503 158.245Z" fill="white"/>
<path d="M105.484 172.812C106.15 173.196 107.229 173.196 107.895 172.812C108.56 172.428 108.56 171.805 107.895 171.421C107.229 171.036 106.15 171.036 105.484 171.421C104.818 171.805 104.818 172.428 105.484 172.812ZM119.949 172.812C120.615 173.196 121.694 173.196 122.36 172.812C123.025 172.428 123.025 171.805 122.36 171.421C121.694 171.036 120.615 171.036 119.949 171.421C119.283 171.805 119.283 172.428 119.949 172.812ZM106.689 172.301H121.154V171.932H106.689V172.301Z" fill="white"/>
<path d="M101.116 177.769C101.782 178.153 102.862 178.153 103.527 177.769C104.193 177.385 104.193 176.762 103.527 176.378C102.862 175.993 101.782 175.993 101.116 176.378C100.451 176.762 100.451 177.385 101.116 177.769ZM135.019 169.333C135.685 169.717 136.764 169.717 137.43 169.333C138.095 168.949 138.095 168.326 137.43 167.942C136.764 167.557 135.685 167.557 135.019 167.942C134.353 168.326 134.353 168.949 135.019 169.333ZM102.322 177.258H120.726V176.889H102.322V177.258ZM122.459 176.843L136.45 168.768L135.998 168.507L122.007 176.583L122.459 176.843ZM120.726 177.258C121.376 177.258 121.999 177.109 122.459 176.843L122.007 176.583C121.667 176.779 121.206 176.889 120.726 176.889V177.258Z" fill="white"/>
<path d="M250.892 153.244C251.56 153.628 252.639 153.628 253.304 153.244C253.972 152.859 253.972 152.236 253.304 151.852C252.639 151.468 251.56 151.468 250.892 151.852C250.228 152.236 250.228 152.859 250.892 153.244ZM101.647 185.379L108.858 181.216L108.406 180.956L101.195 185.118L101.647 185.379ZM110.139 180.91H124.346V180.541H110.139V180.91ZM126.078 180.496L147.884 167.91L147.432 167.649L125.626 180.235L126.078 180.496ZM149.165 167.604H176.932V167.235H149.165V167.604ZM178.665 167.19L198.813 155.561L198.361 155.3L178.213 166.929L178.665 167.19ZM200.094 155.254H246.845V154.885H200.094V155.254ZM248.578 154.84L252.326 152.678L251.873 152.418L248.126 154.579L248.578 154.84ZM246.845 155.254C247.496 155.254 248.119 155.106 248.578 154.84L248.126 154.579C247.788 154.775 247.325 154.885 246.845 154.885V155.254ZM198.813 155.561C199.153 155.365 199.614 155.254 200.094 155.254V154.885C199.444 154.885 198.82 155.035 198.361 155.3L198.813 155.561ZM176.932 167.604C177.582 167.604 178.205 167.455 178.665 167.19L178.213 166.929C177.873 167.125 177.413 167.235 176.932 167.235V167.604ZM147.884 167.91C148.223 167.714 148.684 167.604 149.165 167.604V167.235C148.515 167.235 147.892 167.384 147.432 167.649L147.884 167.91ZM124.346 180.91C124.996 180.91 125.619 180.761 126.078 180.496L125.626 180.235C125.287 180.431 124.826 180.541 124.346 180.541V180.91ZM108.858 181.216C109.198 181.021 109.659 180.91 110.139 180.91V180.541C109.489 180.541 108.866 180.69 108.406 180.956L108.858 181.216Z" fill="white"/>
<path d="M112.265 186.814C112.931 187.198 114.01 187.198 114.676 186.814C115.341 186.43 115.341 185.807 114.676 185.423C114.01 185.038 112.931 185.038 112.265 185.423C111.599 185.807 111.599 186.43 112.265 186.814ZM261.135 154.288C261.8 154.672 262.878 154.672 263.546 154.288C264.211 153.903 264.211 153.28 263.546 152.896C262.878 152.512 261.8 152.512 261.135 152.896C260.47 153.28 260.47 153.903 261.135 154.288ZM113.47 186.303H120.121V185.934H113.47V186.303ZM121.854 185.888L149.536 169.911L149.084 169.65L121.402 185.628L121.854 185.888ZM150.817 169.605H178.584V169.236H150.817V169.605ZM180.317 169.19L200.314 157.648L199.862 157.387L179.865 168.929L180.317 169.19ZM201.595 157.342H255.279V156.973H201.595V157.342ZM257.011 156.928L262.565 153.722L262.113 153.462L256.559 156.667L257.011 156.928ZM255.279 157.342C255.929 157.342 256.552 157.193 257.011 156.928L256.559 156.667C256.222 156.863 255.759 156.973 255.279 156.973V157.342ZM200.314 157.648C200.654 157.452 201.115 157.342 201.595 157.342V156.973C200.945 156.973 200.322 157.122 199.862 157.387L200.314 157.648ZM178.584 169.605C179.234 169.605 179.858 169.456 180.317 169.19L179.865 168.929C179.525 169.126 179.065 169.236 178.584 169.236V169.605ZM149.536 169.911C149.876 169.715 150.337 169.605 150.817 169.605V169.236C150.167 169.236 149.544 169.385 149.084 169.65L149.536 169.911ZM120.121 186.303C120.771 186.303 121.395 186.154 121.854 185.888L121.402 185.628C121.062 185.824 120.602 185.934 120.121 185.934V186.303Z" fill="white"/>
<path d="M114.523 192.815L150.816 171.867C151.215 171.637 151.757 171.507 152.322 171.507H179.788C180.353 171.507 180.896 171.378 181.295 171.147L201.594 159.431C201.993 159.2 202.535 159.071 203.101 159.071H273.661C274.224 159.071 274.767 158.941 275.167 158.71L310.083 138.558C310.48 138.328 311.023 138.198 311.59 138.198H317.036" stroke="white" stroke-width="0.75"/>
<path d="M117.695 193.772L152.179 173.868C152.579 173.637 153.121 173.508 153.686 173.508H181.152C181.717 173.508 182.259 173.378 182.659 173.147L202.958 161.431C203.357 161.201 203.899 161.071 204.464 161.071H280.728" stroke="white" stroke-width="0.75"/>
<path d="M258.724 163.854C259.392 164.238 260.471 164.238 261.135 163.854C261.8 163.47 261.8 162.847 261.135 162.463C260.471 162.078 259.392 162.078 258.724 162.463C258.059 162.847 258.059 163.47 258.724 163.854ZM121.382 195.032L154.144 176.123L153.692 175.862L120.93 194.772L121.382 195.032ZM155.555 175.819L180.646 176.864L180.692 176.496L155.601 175.451L155.555 175.819ZM182.558 176.452L204.685 163.65L204.233 163.389L182.105 176.192L182.558 176.452ZM205.968 163.343H259.931V162.974H205.968V163.343ZM204.685 163.65C205.025 163.453 205.486 163.343 205.968 163.343V162.974C205.316 162.974 204.692 163.123 204.233 163.389L204.685 163.65ZM180.646 176.864C181.357 176.894 182.054 176.743 182.558 176.452L182.105 176.192C181.733 176.407 181.217 176.518 180.692 176.496L180.646 176.864ZM154.144 176.123C154.515 175.908 155.03 175.797 155.555 175.819L155.601 175.451C154.891 175.422 154.194 175.572 153.692 175.862L154.144 176.123Z" fill="white"/>
<path d="M160.035 180.987C160.701 181.371 161.78 181.371 162.446 180.987C163.111 180.603 163.111 179.979 162.446 179.595C161.78 179.211 160.701 179.211 160.035 179.595C159.369 179.979 159.369 180.603 160.035 180.987ZM124.249 196.163L128.296 193.827L127.844 193.566L123.797 195.902L124.249 196.163ZM129.576 193.521H137.756V193.152H129.576V193.521ZM139.489 193.107L161.466 180.422L161.014 180.161L139.037 192.846L139.489 193.107ZM137.756 193.521C138.406 193.521 139.029 193.372 139.489 193.107L139.037 192.846C138.697 193.042 138.236 193.152 137.756 193.152V193.521ZM128.296 193.827C128.635 193.631 129.096 193.521 129.576 193.521V193.152C128.927 193.152 128.303 193.301 127.844 193.566L128.296 193.827Z" fill="white"/>
<path d="M154.913 193.337C155.579 193.721 156.658 193.721 157.324 193.337C157.99 192.952 157.99 192.329 157.324 191.945C156.658 191.561 155.579 191.561 154.913 191.945C154.248 192.329 154.248 192.952 154.913 193.337ZM252.855 169.507C253.52 169.891 254.599 169.891 255.264 169.507C255.932 169.123 255.932 168.5 255.264 168.116C254.599 167.731 253.52 167.731 252.855 168.116C252.187 168.5 252.187 169.123 252.855 169.507ZM156.438 192.641V187.932H155.799V192.641H156.438ZM156.969 187.193L172.596 178.173L172.144 177.912L156.517 186.932L156.969 187.193ZM173.877 177.867H184.166V177.498H173.877V177.867ZM185.899 177.452L206.047 165.823L205.595 165.562L185.447 177.191L185.899 177.452ZM207.328 165.517H222.438V165.148H207.328V165.517ZM223.719 165.823L228.498 168.581L228.95 168.321L224.171 165.562L223.719 165.823ZM230.231 168.996H254.059V168.627H230.231V168.996ZM228.498 168.581C228.958 168.847 229.581 168.996 230.231 168.996V168.627C229.75 168.627 229.29 168.517 228.95 168.321L228.498 168.581ZM222.438 165.517C222.919 165.517 223.38 165.627 223.719 165.823L224.171 165.562C223.712 165.297 223.088 165.148 222.438 165.148V165.517ZM206.047 165.823C206.387 165.627 206.847 165.517 207.328 165.517V165.148C206.678 165.148 206.055 165.297 205.595 165.562L206.047 165.823ZM184.166 177.867C184.816 177.867 185.439 177.718 185.899 177.452L185.447 177.191C185.107 177.388 184.646 177.498 184.166 177.498V177.867ZM172.596 178.173C172.936 177.977 173.397 177.867 173.877 177.867V177.498C173.227 177.498 172.604 177.647 172.144 177.912L172.596 178.173ZM156.438 187.932C156.438 187.655 156.629 187.389 156.969 187.193L156.517 186.932C156.057 187.197 155.799 187.557 155.799 187.932H156.438Z" fill="white"/>
<path d="M187.605 193.423C188.271 193.808 189.35 193.808 190.016 193.423C190.681 193.039 190.681 192.416 190.016 192.032C189.35 191.648 188.271 191.648 187.605 192.032C186.939 192.416 186.939 193.039 187.605 193.423ZM137.429 197.337C138.095 197.721 139.174 197.721 139.84 197.337C140.506 196.953 140.506 196.33 139.84 195.946C139.174 195.561 138.095 195.561 137.429 195.946C136.763 196.33 136.763 196.953 137.429 197.337ZM144.963 196.826H159.45V196.457H144.963V196.826ZM161.182 196.411L166.715 193.218L166.263 192.957L160.73 196.15L161.182 196.411ZM167.995 192.912H179.468V192.543H167.995V192.912ZM179.468 192.912H188.81V192.543H179.468V192.912ZM144.963 196.457H138.634V196.826H144.963V196.457ZM166.715 193.218C167.054 193.022 167.515 192.912 167.995 192.912V192.543C167.345 192.543 166.722 192.692 166.263 192.957L166.715 193.218ZM159.45 196.826C160.099 196.826 160.723 196.677 161.182 196.411L160.73 196.15C160.39 196.347 159.93 196.457 159.45 196.457V196.826Z" fill="white"/>
<path d="M163.195 189.597C163.86 189.981 164.94 189.981 165.605 189.597C166.271 189.213 166.271 188.589 165.605 188.205C164.94 187.821 163.86 187.821 163.195 188.205C162.529 188.589 162.529 189.213 163.195 189.597ZM221.658 173.943C222.323 174.327 223.403 174.327 224.068 173.943C224.734 173.558 224.734 172.935 224.068 172.551C223.403 172.167 222.323 172.167 221.658 172.551C220.992 172.935 220.992 173.558 221.658 173.943ZM164.626 189.032L168.974 186.522L168.522 186.261L164.174 188.771L164.626 189.032ZM170.255 186.216H199.831V185.846H170.255V186.216ZM201.563 185.801L223.089 173.377L222.637 173.116L201.111 185.54L201.563 185.801ZM199.831 186.216C200.481 186.216 201.104 186.067 201.563 185.801L201.111 185.54C200.772 185.737 200.311 185.846 199.831 185.846V186.216ZM168.974 186.522C169.314 186.326 169.775 186.216 170.255 186.216V185.846C169.605 185.846 168.982 185.996 168.522 186.261L168.974 186.522Z" fill="white"/>
<path d="M169.827 180.03C170.493 180.414 171.572 180.414 172.238 180.03C172.904 179.646 172.904 179.023 172.238 178.639C171.572 178.254 170.493 178.254 169.827 178.639C169.162 179.023 169.162 179.646 169.827 180.03ZM209.003 166.985C209.669 167.369 210.749 167.369 211.414 166.985C212.08 166.601 212.08 165.978 211.414 165.593C210.749 165.209 209.669 165.209 209.003 165.593C208.338 165.978 208.338 166.601 209.003 166.985ZM171.033 179.519H186.725V179.15H171.033V179.519ZM188.458 179.105L210.435 166.42L209.983 166.159L188.005 178.844L188.458 179.105ZM186.725 179.519C187.375 179.519 187.998 179.37 188.458 179.105L188.005 178.844C187.666 179.04 187.205 179.15 186.725 179.15V179.519Z" fill="white"/>
<path d="M96.4446 151.07C97.1102 151.454 98.1897 151.454 98.8553 151.07C99.521 150.685 99.521 150.062 98.8553 149.678C98.1897 149.294 97.1102 149.294 96.4446 149.678C95.7789 150.062 95.7789 150.685 96.4446 151.07ZM237.026 150.635C237.694 151.019 238.772 151.019 239.437 150.635C240.105 150.25 240.105 149.627 239.437 149.243C238.772 148.859 237.694 148.859 237.026 149.243C236.361 149.627 236.361 150.25 237.026 150.635ZM97.4241 150.504L109.909 157.71L110.361 157.449L97.8761 150.244L97.4241 150.504ZM111.642 158.125H119.52V157.756H111.642V158.125ZM120.8 158.431L132.36 165.103L132.812 164.842L121.252 158.17L120.8 158.431ZM134.093 165.517H175.421V165.148H134.093V165.517ZM177.154 165.103L197.302 153.474L196.85 153.213L176.702 164.842L177.154 165.103ZM198.583 153.167H216.104V152.798H198.583V153.167ZM217.837 152.753L221.863 150.43L221.41 150.169L217.385 152.492L217.837 152.753ZM223.143 150.124H238.233V149.754H223.143V150.124ZM221.863 150.43C222.202 150.234 222.663 150.124 223.143 150.124V149.754C222.493 149.754 221.87 149.904 221.41 150.169L221.863 150.43ZM216.104 153.167C216.754 153.167 217.377 153.019 217.837 152.753L217.385 152.492C217.045 152.688 216.584 152.798 216.104 152.798V153.167ZM197.302 153.474C197.642 153.278 198.102 153.167 198.583 153.167V152.798C197.933 152.798 197.309 152.948 196.85 153.213L197.302 153.474ZM175.421 165.517C176.071 165.517 176.694 165.368 177.154 165.103L176.702 164.842C176.362 165.038 175.902 165.148 175.421 165.148V165.517ZM132.36 165.103C132.819 165.368 133.443 165.517 134.093 165.517V165.148C133.612 165.148 133.151 165.038 132.812 164.842L132.36 165.103ZM119.52 158.125C120 158.125 120.461 158.235 120.8 158.431L121.252 158.17C120.793 157.905 120.17 157.756 119.52 157.756V158.125ZM109.909 157.71C110.368 157.976 110.992 158.125 111.642 158.125V157.756C111.161 157.756 110.7 157.646 110.361 157.449L109.909 157.71Z" fill="white"/>
<path d="M139.085 157.941C139.751 158.325 140.83 158.325 141.496 157.941C142.162 157.556 142.162 156.933 141.496 156.549C140.83 156.165 139.751 156.165 139.085 156.549C138.42 156.933 138.42 157.556 139.085 157.941ZM170.878 162.028C171.544 162.412 172.623 162.412 173.289 162.028C173.955 161.644 173.955 161.021 173.289 160.637C172.623 160.252 171.544 160.252 170.878 160.637C170.212 161.021 170.212 161.644 170.878 162.028ZM140.291 157.429H147.846V157.06H140.291V157.429ZM149.127 157.735L154.96 161.102L155.412 160.841L149.579 157.474L149.127 157.735ZM156.693 161.517H172.084V161.148H156.693V161.517ZM154.96 161.102C155.42 161.368 156.043 161.517 156.693 161.517V161.148C156.213 161.148 155.752 161.038 155.412 160.841L154.96 161.102ZM147.846 157.429C148.326 157.429 148.787 157.539 149.127 157.735L149.579 157.474C149.119 157.209 148.496 157.06 147.846 157.06V157.429Z" fill="white"/>
<path d="M121.312 151.331C121.977 151.715 123.057 151.715 123.723 151.331C124.389 150.946 124.389 150.323 123.723 149.939C123.057 149.555 121.977 149.555 121.312 149.939C120.646 150.323 120.646 150.946 121.312 151.331ZM122.743 150.765L126.64 148.516L126.188 148.255L122.291 150.504L122.743 150.765ZM127.92 148.21H170.153V147.841H127.92V148.21ZM171.886 147.796L207.403 127.296L206.951 127.035L171.433 147.535L171.886 147.796ZM208.683 126.99H267.167V126.621H208.683V126.99ZM207.403 127.296C207.743 127.1 208.203 126.99 208.683 126.99V126.621C208.033 126.621 207.41 126.77 206.951 127.035L207.403 127.296ZM170.153 148.21C170.803 148.21 171.426 148.061 171.886 147.796L171.433 147.535C171.094 147.731 170.633 147.841 170.153 147.841V148.21ZM126.64 148.516C126.979 148.32 127.44 148.21 127.92 148.21V147.841C127.27 147.841 126.647 147.99 126.188 148.255L126.64 148.516Z" fill="white"/>
<path d="M111.359 140.373C112.024 140.757 113.104 140.757 113.769 140.373C114.435 139.988 114.435 139.365 113.769 138.981C113.104 138.597 112.024 138.597 111.359 138.981C110.693 139.365 110.693 139.988 111.359 140.373ZM112.338 139.807L116.837 142.404L117.289 142.143L112.79 139.547L112.338 139.807ZM118.57 142.818H139.105V142.449H118.57V142.818ZM140.838 142.404L145.767 139.559L145.315 139.298L140.386 142.143L140.838 142.404ZM147.048 139.253H168.487V138.883H147.048V139.253ZM170.22 138.838L214.497 113.282L214.045 113.021L169.768 138.577L170.22 138.838ZM168.487 139.253C169.137 139.253 169.76 139.104 170.22 138.838L169.768 138.577C169.428 138.774 168.967 138.883 168.487 138.883V139.253ZM145.767 139.559C146.107 139.363 146.567 139.253 147.048 139.253V138.883C146.398 138.883 145.775 139.033 145.315 139.298L145.767 139.559ZM139.105 142.818C139.755 142.818 140.378 142.669 140.838 142.404L140.386 142.143C140.046 142.339 139.585 142.449 139.105 142.449V142.818ZM116.837 142.404C117.296 142.669 117.92 142.818 118.57 142.818V142.449C118.09 142.449 117.629 142.339 117.289 142.143L116.837 142.404Z" fill="white"/>
<path d="M65.8589 126.631C66.5246 127.016 67.604 127.016 68.2697 126.631C68.9353 126.247 68.9353 125.624 68.2697 125.24C67.604 124.856 66.5246 124.856 65.8589 125.24C65.1929 125.624 65.1929 126.247 65.8589 126.631ZM83.6387 136.894C84.3044 137.278 85.3838 137.278 86.0495 136.894C86.7155 136.509 86.7155 135.886 86.0495 135.502C85.3838 135.118 84.3044 135.118 83.6387 135.502C82.973 135.886 82.973 136.509 83.6387 136.894ZM66.8381 126.066L84.6182 136.329L85.0703 136.068L67.2901 125.805L66.8381 126.066Z" fill="white"/>
<path d="M112.416 130.023C113.081 130.408 114.161 130.408 114.826 130.023C115.492 129.639 115.492 129.016 114.826 128.632C114.161 128.248 113.081 128.248 112.416 128.632C111.75 129.016 111.75 129.639 112.416 130.023ZM68.8516 110.629V117.425H69.4908V110.629H68.8516ZM69.5691 118.425L88.0598 129.098L88.5118 128.837L70.0211 118.164L69.5691 118.425ZM89.7924 129.512H113.621V129.143H89.7924V129.512ZM88.0598 129.098C88.5195 129.363 89.1427 129.512 89.7924 129.512V129.143C89.3122 129.143 88.8514 129.033 88.5118 128.837L88.0598 129.098ZM68.8516 117.425C68.8516 117.801 69.1098 118.16 69.5691 118.425L70.0211 118.164C69.6815 117.969 69.4908 117.702 69.4908 117.425H68.8516Z" fill="white"/>
<path d="M75.4995 119.674C76.1652 120.058 77.2446 120.058 77.9103 119.674C78.576 119.29 78.576 118.666 77.9103 118.282C77.2446 117.898 76.1652 117.898 75.4995 118.282C74.8335 118.666 74.8335 119.29 75.4995 119.674ZM108.648 127.327C109.314 127.711 110.393 127.711 111.059 127.327C111.725 126.943 111.725 126.32 111.059 125.936C110.393 125.551 109.314 125.551 108.648 125.936C107.983 126.32 107.983 126.943 108.648 127.327ZM76.4787 119.109L89.1144 126.402L89.5664 126.141L76.9307 118.848L76.4787 119.109ZM90.847 126.816H109.854V126.447H90.847V126.816ZM89.1144 126.402C89.5737 126.667 90.1973 126.816 90.847 126.816V126.447C90.3668 126.447 89.906 126.337 89.5664 126.141L89.1144 126.402Z" fill="white"/>
<path d="M83.3357 118.108C84.0013 118.492 85.0808 118.492 85.7464 118.108C86.4125 117.724 86.4125 117.101 85.7464 116.717C85.0808 116.332 84.0013 116.332 83.3357 116.717C82.67 117.101 82.67 117.724 83.3357 118.108ZM88.6096 121.152C89.2752 121.536 90.3547 121.536 91.0204 121.152C91.686 120.768 91.686 120.145 91.0204 119.761C90.3547 119.376 89.2752 119.376 88.6096 119.761C87.9439 120.145 87.9439 120.768 88.6096 121.152ZM74.898 113.064C75.5636 113.448 76.6431 113.448 77.3087 113.064C77.9744 112.68 77.9744 112.057 77.3087 111.673C76.6431 111.288 75.5636 111.288 74.898 111.673C74.2319 112.057 74.2319 112.68 74.898 113.064ZM104.732 124.196C105.398 124.58 106.477 124.58 107.143 124.196C107.808 123.812 107.808 123.189 107.143 122.805C106.477 122.42 105.398 122.42 104.732 122.805C104.066 123.189 104.066 123.812 104.732 124.196ZM84.3152 117.543L89.5888 120.587L90.0408 120.326L84.7672 117.282L84.3152 117.543ZM76.1033 112.553H85.768V112.184H76.1033V112.553ZM87.0489 112.859L105.712 123.631L106.164 123.37L87.5009 112.598L87.0489 112.859ZM85.768 112.553C86.2482 112.553 86.7089 112.663 87.0489 112.859L87.5009 112.598C87.0413 112.333 86.418 112.184 85.768 112.184V112.553Z" fill="white"/>
<path d="M187.008 117.239C187.674 117.623 188.753 117.623 189.419 117.239C190.085 116.855 190.085 116.231 189.419 115.847C188.753 115.463 187.674 115.463 187.008 115.847C186.342 116.231 186.342 116.855 187.008 117.239ZM74 108.9H87.5822V108.531H74V108.9ZM88.8631 109.206L116.846 125.358L117.298 125.097L89.3151 108.946L88.8631 109.206ZM118.579 125.772H163.524V125.403H118.579V125.772ZM165.257 125.358L171.693 121.643L171.241 121.382L164.804 125.097L165.257 125.358ZM172.974 121.337H179.345V120.968H172.974V121.337ZM181.078 120.923L188.44 116.674L187.988 116.413L180.626 120.662L181.078 120.923ZM179.345 121.337C179.995 121.337 180.618 121.188 181.078 120.923L180.626 120.662C180.286 120.858 179.826 120.968 179.345 120.968V121.337ZM171.693 121.643C172.033 121.447 172.493 121.337 172.974 121.337V120.968C172.324 120.968 171.7 121.117 171.241 121.382L171.693 121.643ZM163.524 125.772C164.174 125.772 164.797 125.623 165.257 125.358L164.804 125.097C164.465 125.293 164.004 125.403 163.524 125.403V125.772ZM116.846 125.358C117.306 125.623 117.929 125.772 118.579 125.772V125.403C118.099 125.403 117.638 125.293 117.298 125.097L116.846 125.358ZM87.5822 108.9C88.0627 108.9 88.5234 109.011 88.8631 109.206L89.3151 108.946C88.8554 108.68 88.2322 108.531 87.5822 108.531V108.9Z" fill="white"/>
<path d="M127.187 130.893C127.852 131.277 128.932 131.277 129.598 130.893C130.263 130.509 130.263 129.886 129.598 129.501C128.932 129.117 127.852 129.117 127.187 129.501C126.521 129.886 126.521 130.509 127.187 130.893ZM206.142 112.108L206.368 112.238L206.372 112.236L206.376 112.233L206.142 112.108ZM128.392 130.382H165.179V130.013H128.392V130.382ZM166.912 129.967L173.499 126.165L173.047 125.904L166.46 129.706L166.912 129.967ZM174.779 125.859H181.753V125.49H174.779V125.859ZM183.486 125.445L206.368 112.238L205.916 111.977L183.034 125.184L183.486 125.445ZM206.376 112.233L217.199 105.532L216.732 105.28L205.908 111.982L206.376 112.233ZM181.753 125.859C182.403 125.859 183.027 125.71 183.486 125.445L183.034 125.184C182.695 125.38 182.234 125.49 181.753 125.49V125.859ZM173.499 126.165C173.838 125.97 174.299 125.859 174.779 125.859V125.49C174.13 125.49 173.506 125.639 173.047 125.904L173.499 126.165ZM165.179 130.382C165.829 130.382 166.452 130.233 166.912 129.967L166.46 129.706C166.12 129.903 165.659 130.013 165.179 130.013V130.382Z" fill="white"/>
<path d="M97.6555 110.02C98.3212 110.404 99.4006 110.404 100.066 110.02C100.732 109.636 100.732 109.013 100.066 108.629C99.4006 108.244 98.3212 108.244 97.6555 108.629C96.9898 109.013 96.9898 109.636 97.6555 110.02ZM112.573 118.63C113.239 119.014 114.318 119.014 114.984 118.63C115.649 118.246 115.649 117.623 114.984 117.239C114.318 116.854 113.239 116.854 112.573 117.239C111.907 117.623 111.907 118.246 112.573 118.63ZM97.8062 105.063C98.4719 105.447 99.5513 105.447 100.217 105.063C100.883 104.679 100.883 104.056 100.217 103.672C99.5513 103.287 98.4719 103.287 97.8062 103.672C97.1405 104.056 97.1405 104.679 97.8062 105.063ZM122.517 119.326C123.183 119.71 124.262 119.71 124.928 119.326C125.594 118.942 125.594 118.319 124.928 117.935C124.262 117.55 123.183 117.55 122.517 117.935C121.852 118.319 121.852 118.942 122.517 119.326ZM98.6351 109.455L113.552 118.065L114.004 117.804L99.0871 109.194L98.6351 109.455ZM98.7857 104.498L123.497 118.761L123.949 118.5L99.2378 104.237L98.7857 104.498Z" fill="white"/>
<path d="M97.9524 100.28C98.6181 100.664 99.6975 100.664 100.363 100.28C101.029 99.8955 101.029 99.2725 100.363 98.8884C99.6975 98.504 98.6181 98.504 97.9524 98.8884C97.2867 99.2725 97.2867 99.8955 97.9524 100.28ZM145.868 118.891C146.534 119.275 147.613 119.275 148.279 118.891C148.944 118.507 148.944 117.884 148.279 117.5C147.613 117.115 146.534 117.115 145.868 117.5C145.202 117.884 145.202 118.507 145.868 118.891ZM98.9319 99.7146L130.553 117.966L131.005 117.705L99.384 99.4537L98.9319 99.7146ZM132.285 118.38H147.073V118.011H132.285V118.38ZM130.553 117.966C131.012 118.231 131.636 118.38 132.285 118.38V118.011C131.805 118.011 131.344 117.901 131.005 117.705L130.553 117.966Z" fill="white"/>
<path d="M162.897 118.804C163.562 119.188 164.642 119.188 165.307 118.804C165.973 118.42 165.973 117.797 165.307 117.413C164.642 117.028 163.562 117.028 162.897 117.413C162.231 117.797 162.231 118.42 162.897 118.804ZM164.422 118.108V113.573H163.782V118.108H164.422ZM163.704 112.573L155.007 107.554L154.555 107.815L163.252 112.834L163.704 112.573ZM153.275 107.139H141.479V107.509H153.275V107.139ZM140.198 106.833L119.146 94.6824L118.694 94.9433L139.746 107.094L140.198 106.833ZM117.413 94.2681H94.1875V94.6372H117.413V94.2681ZM119.146 94.6824C118.687 94.4173 118.063 94.2681 117.413 94.2681V94.6372C117.894 94.6372 118.354 94.7474 118.694 94.9433L119.146 94.6824ZM141.479 107.139C140.999 107.139 140.538 107.03 140.198 106.833L139.746 107.094C140.206 107.36 140.829 107.509 141.479 107.509V107.139ZM155.007 107.554C154.548 107.289 153.924 107.139 153.275 107.139V107.509C153.755 107.509 154.216 107.619 154.555 107.815L155.007 107.554ZM164.422 113.573C164.422 113.198 164.164 112.839 163.704 112.573L163.252 112.834C163.592 113.03 163.782 113.296 163.782 113.573H164.422Z" fill="white"/>
<path d="M113.468 100.541C114.134 100.925 115.213 100.925 115.879 100.541C116.544 100.156 116.544 99.5332 115.879 99.1491C115.213 98.7647 114.134 98.7647 113.468 99.1491C112.802 99.5332 112.802 100.156 113.468 100.541ZM145.864 113.673C146.529 114.057 147.609 114.057 148.275 113.673C148.94 113.289 148.94 112.666 148.275 112.281C147.609 111.897 146.529 111.897 145.864 112.281C145.198 112.666 145.198 113.289 145.864 113.673ZM114.447 99.9753L136.576 112.747L137.028 112.486L114.899 99.7144L114.447 99.9753ZM138.308 113.162H147.069V112.792H138.308V113.162ZM136.576 112.747C137.035 113.013 137.659 113.162 138.308 113.162V112.792C137.828 112.792 137.367 112.683 137.028 112.486L136.576 112.747Z" fill="white"/>
<path d="M133.212 115.76C133.877 116.144 134.957 116.144 135.623 115.76C136.288 115.376 136.288 114.753 135.623 114.369C134.957 113.984 133.877 113.984 133.212 114.369C132.546 114.753 132.546 115.376 133.212 115.76ZM105.789 99.9318C106.454 100.316 107.534 100.316 108.199 99.9318C108.865 99.5474 108.865 98.9243 108.199 98.5403C107.534 98.1559 106.454 98.1559 105.789 98.5403C105.123 98.9243 105.123 99.5474 105.789 99.9318ZM134.643 114.934L107.22 99.1056L106.768 99.3665L134.191 115.195L134.643 114.934Z" fill="white"/>
<path d="M132.91 98.1925C133.576 98.5766 134.655 98.5766 135.321 98.1925C135.987 97.8081 135.987 97.1851 135.321 96.801C134.655 96.4166 133.576 96.4166 132.91 96.801C132.244 97.1851 132.244 97.8081 132.91 98.1925ZM165.457 110.368C166.122 110.752 167.202 110.752 167.867 110.368C168.533 109.984 168.533 109.361 167.867 108.977C167.202 108.592 166.122 108.592 165.457 108.977C164.791 109.361 164.791 109.984 165.457 110.368ZM155.512 99.758C156.178 100.142 157.257 100.142 157.923 99.758C158.589 99.3736 158.589 98.7505 157.923 98.3665C157.257 97.9821 156.178 97.9821 155.512 98.3665C154.846 98.7505 154.846 99.3736 155.512 99.758ZM107.898 88.1041C108.563 88.4882 109.643 88.4882 110.308 88.1041C110.974 87.7197 110.974 87.0967 110.308 86.7126C109.643 86.3282 108.563 86.3282 107.898 86.7126C107.232 87.0967 107.232 87.7197 107.898 88.1041ZM133.89 97.6272L144.416 103.703L144.868 103.442L134.342 97.3663L133.89 97.6272ZM146.149 104.117H155.835V103.748H146.149V104.117ZM157.115 104.423L166.436 109.803L166.888 109.542L157.567 104.162L157.115 104.423ZM156.943 98.9318L137.377 87.638L136.925 87.8989L156.491 99.1927L156.943 98.9318ZM135.644 87.2236H109.103V87.5927H135.644V87.2236ZM137.377 87.638C136.917 87.3729 136.294 87.2236 135.644 87.2236V87.5927C136.124 87.5927 136.585 87.703 136.925 87.8989L137.377 87.638ZM155.835 104.117C156.315 104.117 156.776 104.227 157.115 104.423L157.567 104.162C157.108 103.897 156.484 103.748 155.835 103.748V104.117ZM144.416 103.703C144.875 103.968 145.499 104.117 146.149 104.117V103.748C145.668 103.748 145.207 103.638 144.868 103.442L144.416 103.703Z" fill="white"/>
<path d="M163.499 103.324C164.165 103.708 165.244 103.708 165.91 103.324C166.576 102.939 166.576 102.316 165.91 101.932C165.244 101.548 164.165 101.548 163.499 101.932C162.834 102.316 162.834 102.939 163.499 103.324ZM171.937 118.109C172.603 118.493 173.682 118.493 174.348 118.109C175.014 117.724 175.014 117.101 174.348 116.717C173.682 116.333 172.603 116.333 171.937 116.717C171.272 117.101 171.272 117.724 171.937 118.109ZM164.479 102.759L172.293 107.268L172.745 107.008L164.931 102.498L164.479 102.759ZM172.823 108.008V117.413H173.462V108.008H172.823ZM172.293 107.268C172.632 107.465 172.823 107.73 172.823 108.008H173.462C173.462 107.633 173.204 107.273 172.745 107.008L172.293 107.268Z" fill="white"/>
<path d="M178.414 114.369C179.08 114.753 180.16 114.753 180.825 114.369C181.491 113.985 181.491 113.362 180.825 112.978C180.16 112.593 179.08 112.593 178.414 112.978C177.749 113.362 177.749 113.985 178.414 114.369ZM179.94 113.673V106.007H179.3V113.673H179.94ZM179.222 105.007L145.663 85.638L145.211 85.8989L178.77 105.268L179.222 105.007ZM143.931 85.2236H109.555V85.5927H143.931V85.2236ZM145.663 85.638C145.204 85.3729 144.58 85.2236 143.931 85.2236V85.5927C144.411 85.5927 144.872 85.703 145.211 85.8989L145.663 85.638ZM179.94 106.007C179.94 105.632 179.681 105.273 179.222 105.007L178.77 105.268C179.109 105.464 179.3 105.73 179.3 106.007H179.94Z" fill="white"/>
<path d="M126.885 94.8876C127.551 95.2716 128.63 95.2716 129.296 94.8876C129.962 94.5032 129.962 93.8801 129.296 93.4961C128.63 93.1117 127.551 93.1117 126.885 93.4961C126.22 93.8801 126.22 94.5032 126.885 94.8876ZM128.317 94.0614L121.558 90.1599L121.106 90.4208L127.865 94.3223L128.317 94.0614ZM119.825 89.7456H104.133V90.1147H119.825V89.7456ZM121.558 90.1599C121.098 89.8948 120.475 89.7456 119.825 89.7456V90.1147C120.305 90.1147 120.766 90.225 121.106 90.4208L121.558 90.1599Z" fill="white"/>
<path d="M137.58 80.1901C138.246 80.5741 139.325 80.5741 139.991 80.1901C140.657 79.8057 140.657 79.1826 139.991 78.7986C139.325 78.4142 138.246 78.4142 137.58 78.7986C136.914 79.1826 136.914 79.8057 137.58 80.1901ZM138.786 79.3096H122.211V79.6787H138.786V79.3096Z" fill="white"/>
<path d="M149.64 82.4513C150.306 82.8353 151.385 82.8353 152.051 82.4513C152.717 82.0669 152.717 81.4438 152.051 81.0598C151.385 80.6754 150.306 80.6754 149.64 81.0598C148.974 81.4438 148.974 82.0669 149.64 82.4513ZM158.455 85.8866L151.071 81.6251L150.619 81.886L158.003 86.1475L158.455 85.8866Z" fill="white"/>
<path d="M143.617 74.6193C144.282 75.0037 145.362 75.0037 146.027 74.6193C146.693 74.2349 146.693 73.6122 146.027 73.2278C145.362 72.8434 144.282 72.8434 143.617 73.2278C142.951 73.6122 142.951 74.2349 143.617 74.6193ZM162.527 83.8815L145.048 73.7931L144.596 74.054L162.075 84.1424L162.527 83.8815Z" fill="white"/>
<path d="M153.398 72.6237C154.063 73.0077 155.143 73.0077 155.808 72.6237C156.475 72.2393 156.475 71.6162 155.808 71.2321C155.143 70.8477 154.063 70.8477 153.398 71.2321C152.732 71.6162 152.732 72.2393 153.398 72.6237ZM154.284 71.9279V75.071H154.923V71.9279H154.284ZM155.001 76.0711L165.678 82.2337L166.13 81.9728L155.454 75.8102L155.001 76.0711ZM154.284 75.071C154.284 75.4463 154.542 75.806 155.001 76.0711L155.454 75.8102C155.114 75.6143 154.923 75.3482 154.923 75.071H154.284Z" fill="white"/>
<path d="M162.291 75.3199C162.957 75.704 164.037 75.704 164.702 75.3199C165.368 74.9355 165.368 74.3125 164.702 73.9284C164.037 73.544 162.957 73.544 162.291 73.9284C161.625 74.3125 161.625 74.9355 162.291 75.3199ZM163.816 74.6242V65.5669H163.177V74.6242H163.816ZM163.099 64.5667L156.038 60.4917L155.586 60.7526L162.647 64.8276L163.099 64.5667ZM163.816 65.5669C163.816 65.1918 163.558 64.8321 163.099 64.5667L162.647 64.8276C162.986 65.0238 163.177 65.2896 163.177 65.5669H163.816Z" fill="white"/>
<path d="M173.898 52.2729V66.8959C173.898 67.2222 174.123 67.535 174.522 67.7656L179.021 70.3625L185.953 74.3631" stroke="white" stroke-width="0.75"/>
<path d="M183.234 62.5353C183.899 62.9194 184.979 62.9194 185.645 62.5353C186.31 62.1509 186.31 61.5279 185.645 61.1438C184.979 60.7594 183.899 60.7594 183.234 61.1438C182.568 61.5279 182.568 62.1509 183.234 62.5353ZM184.759 61.8396V57.4786H184.12V61.8396H184.759ZM185.289 56.7394L206.062 44.7502L205.61 44.4893L184.837 56.4785L185.289 56.7394ZM184.759 57.4786C184.759 57.2013 184.95 56.9356 185.289 56.7394L184.837 56.4785C184.378 56.7439 184.12 57.1036 184.12 57.4786H184.759Z" fill="white"/>
<path d="M210.66 45.1416L194.257 54.6087C193.858 54.8393 193.633 55.1521 193.633 55.4784V66.6229" stroke="white" stroke-width="0.75"/>
<path d="M198.906 57.317C199.571 57.7011 200.651 57.7011 201.316 57.317C201.982 56.9326 201.982 56.3096 201.316 55.9255C200.651 55.5411 199.571 55.5411 198.906 55.9255C198.24 56.3096 198.24 56.9326 198.906 57.317ZM200.431 62.5352V56.6213H199.791V62.5352H200.431Z" fill="white"/>
<path d="M218.796 53.6647C219.462 54.0487 220.542 54.0487 221.207 53.6647C221.873 53.2803 221.873 52.6572 221.207 52.2732C220.542 51.8888 219.462 51.8888 218.796 52.2732C218.13 52.6572 218.13 53.2803 218.796 53.6647ZM225.275 62.1007C225.941 62.4847 227.021 62.4847 227.686 62.1007C228.352 61.7163 228.352 61.0932 227.686 60.7092C227.021 60.3248 225.941 60.3248 225.275 60.7092C224.61 61.0932 224.61 61.7163 225.275 62.1007ZM219.682 52.9689V57.1556H220.321V52.9689H219.682ZM220.4 58.1557L226.255 61.5354L226.707 61.2745L220.852 57.8948L220.4 58.1557ZM219.682 57.1556C219.682 57.531 219.94 57.8907 220.4 58.1557L220.852 57.8948C220.512 57.699 220.321 57.4329 220.321 57.1556H219.682Z" fill="white"/>
<path d="M268.52 88.278C269.184 88.662 270.263 88.662 270.928 88.278C271.596 87.8936 271.596 87.2705 270.928 86.8865C270.263 86.5021 269.184 86.5021 268.52 86.8865C267.852 87.2705 267.852 87.8936 268.52 88.278ZM234.898 55.1428V67.1567H235.539V55.1428H234.898ZM235.615 68.1568L269.498 87.7127L269.95 87.4518L236.068 67.8959L235.615 68.1568ZM235.539 55.1428V50.9683H234.898V55.1428H235.539ZM234.898 67.1567C234.898 67.532 235.156 67.8917 235.615 68.1568L236.068 67.8959C235.73 67.7001 235.539 67.4339 235.539 67.1567H234.898Z" fill="white"/>
<path d="M253.603 74.4503C254.267 74.8344 255.346 74.8344 256.011 74.4503C256.679 74.0659 256.679 73.4429 256.011 73.0588C255.346 72.6744 254.267 72.6744 253.603 73.0588C252.935 73.4429 252.935 74.0659 253.603 74.4503ZM292.176 83.8322H273.469V84.2013H292.176V83.8322ZM272.188 83.526L255.033 73.6241L254.58 73.885L271.736 83.787L272.188 83.526ZM273.469 83.8322C272.988 83.8322 272.529 83.7222 272.188 83.526L271.736 83.787C272.195 84.0524 272.818 84.2013 273.469 84.2013V83.8322Z" fill="white"/>
<path d="M289.914 80.7986H277.537C276.973 80.7986 276.43 80.6689 276.03 80.4382L246.842 63.591C246.441 63.3603 246.219 63.0476 246.219 62.7213V55.5776" stroke="white" stroke-width="0.75"/>
<path d="M298.803 102.628C299.471 103.012 300.55 103.012 301.215 102.628C301.879 102.244 301.879 101.621 301.215 101.237C300.55 100.852 299.471 100.852 298.803 101.237C298.139 101.621 298.139 102.244 298.803 102.628ZM299.784 102.063L314.831 110.747L315.283 110.486L300.237 101.802L299.784 102.063ZM316.564 111.161H331.349V110.792H316.564V111.161ZM314.831 110.747C315.29 111.013 315.913 111.161 316.564 111.161V110.792C316.084 110.792 315.621 110.682 315.283 110.486L314.831 110.747Z" fill="white"/>
<path d="M280.578 102.889L294.118 95.0739C294.515 94.8433 295.057 94.7139 295.625 94.7139H310.41" stroke="white" stroke-width="0.75"/>
<path d="M280.875 96.6271C281.543 97.0111 282.622 97.0111 283.286 96.6271C283.955 96.2427 283.955 95.6196 283.286 95.2356C282.622 94.8512 281.543 94.8512 280.875 95.2356C280.21 95.6196 280.21 96.2427 280.875 96.6271ZM276.129 99.6275L282.309 96.0618L281.856 95.8009L275.68 99.3666L276.129 99.6275Z" fill="white"/>
<path d="M317.342 107.585C318.007 107.969 319.086 107.969 319.754 107.585C320.418 107.201 320.418 106.578 319.754 106.194C319.086 105.809 318.007 105.809 317.342 106.194C316.678 106.578 316.678 107.201 317.342 107.585ZM329.093 106.705H318.546V107.074H329.093V106.705Z" fill="white"/>
<path d="M311.006 103.933C311.674 104.317 312.753 104.317 313.418 103.933C314.082 103.548 314.082 102.925 313.418 102.541C312.753 102.157 311.674 102.157 311.006 102.541C310.342 102.925 310.342 103.548 311.006 103.933ZM322.761 103.052H312.214V103.421H322.761V103.052Z" fill="white"/>
<path d="M335.119 115.413H297.148" stroke="white" stroke-width="0.75"/>
<path d="M318.389 120.022C319.054 120.406 320.136 120.406 320.801 120.022C321.465 119.637 321.465 119.014 320.801 118.63C320.136 118.246 319.054 118.246 318.389 118.63C317.724 119.014 317.724 119.637 318.389 120.022ZM335.868 119.141H319.597V119.51H335.868V119.141Z" fill="white"/>
<path d="M314.174 127.501C314.839 127.885 315.921 127.885 316.586 127.501C317.251 127.117 317.251 126.494 316.586 126.11C315.921 125.725 314.839 125.725 314.174 126.11C313.51 126.494 313.51 127.117 314.174 127.501ZM315.378 126.621H302.423V126.99H315.378V126.621ZM302.423 126.621H286.148V126.99H302.423V126.621Z" fill="white"/>
<path d="M312.673 133.937C313.341 134.321 314.419 134.321 315.084 133.937C315.749 133.552 315.749 132.929 315.084 132.545C314.419 132.161 313.341 132.161 312.673 132.545C312.008 132.929 312.008 133.552 312.673 133.937ZM182.187 158.288C182.852 158.672 183.932 158.672 184.598 158.288C185.263 157.904 185.263 157.281 184.598 156.896C183.932 156.512 182.852 156.512 182.187 156.896C181.521 157.281 181.521 157.904 182.187 158.288ZM265.512 142.383H279.396V142.014H265.512V142.383ZM281.129 141.969L295.399 133.731L294.947 133.47L280.676 141.708L281.129 141.969ZM296.68 133.425H313.88V133.056H296.68V133.425ZM265.512 142.014H246.804V142.383H265.512V142.014ZM245.071 142.428L241.8 144.317L242.253 144.578L245.524 142.689L245.071 142.428ZM240.52 144.623H217.574V144.992H240.52V144.623ZM215.842 145.037L213.926 146.143L214.378 146.404L216.294 145.298L215.842 145.037ZM212.645 146.449H203.26V146.818H212.645V146.449ZM201.527 146.864L183.166 157.462L183.618 157.723L201.979 147.125L201.527 146.864ZM203.26 146.449C202.61 146.449 201.987 146.599 201.527 146.864L201.979 147.125C202.319 146.929 202.78 146.818 203.26 146.818V146.449ZM213.926 146.143C213.586 146.339 213.125 146.449 212.645 146.449V146.818C213.295 146.818 213.918 146.67 214.378 146.404L213.926 146.143ZM241.8 144.317C241.463 144.513 241 144.623 240.52 144.623V144.992C241.171 144.992 241.794 144.843 242.253 144.578L241.8 144.317ZM246.804 142.014C246.157 142.014 245.534 142.163 245.071 142.428L245.524 142.689C245.865 142.493 246.324 142.383 246.804 142.383V142.014ZM295.399 133.731C295.74 133.536 296.199 133.425 296.68 133.425V133.056C296.029 133.056 295.406 133.205 294.947 133.47L295.399 133.731ZM217.574 144.623C216.924 144.623 216.301 144.772 215.842 145.037L216.294 145.298C216.634 145.102 217.094 144.992 217.574 144.992V144.623ZM279.396 142.383C280.046 142.383 280.669 142.234 281.129 141.969L280.676 141.708C280.335 141.904 279.876 142.014 279.396 142.014V142.383Z" fill="white"/>
<path d="M244.111 140.46C244.776 140.844 245.854 140.844 246.522 140.46C247.187 140.075 247.187 139.452 246.522 139.068C245.854 138.684 244.776 138.684 244.111 139.068C243.446 139.452 243.446 140.075 244.111 140.46ZM170.655 151.635L182.236 144.951L181.784 144.69L170.203 151.374L170.655 151.635ZM183.517 144.645H211.284V144.275H183.517V144.645ZM213.017 144.23L214.782 143.211L214.33 142.95L212.565 143.969L213.017 144.23ZM216.063 142.905H239.309V142.536H216.063V142.905ZM241.042 142.491L245.541 139.894L245.089 139.633L240.589 142.23L241.042 142.491ZM239.309 142.905C239.96 142.905 240.583 142.756 241.042 142.491L240.589 142.23C240.252 142.426 239.789 142.536 239.309 142.536V142.905ZM214.782 143.211C215.122 143.015 215.583 142.905 216.063 142.905V142.536C215.413 142.536 214.79 142.685 214.33 142.95L214.782 143.211ZM211.284 144.645C211.934 144.645 212.558 144.496 213.017 144.23L212.565 143.969C212.225 144.166 211.765 144.275 211.284 144.275V144.645ZM182.236 144.951C182.576 144.755 183.036 144.645 183.517 144.645V144.275C182.867 144.275 182.243 144.425 181.784 144.69L182.236 144.951Z" fill="white"/>
<path d="M174.499 152.809C175.165 153.193 176.244 153.193 176.91 152.809C177.576 152.425 177.576 151.802 176.91 151.418C176.244 151.033 175.165 151.033 174.499 151.418C173.834 151.802 173.834 152.425 174.499 152.809ZM188.964 148.809C189.63 149.193 190.709 149.193 191.375 148.809C192.041 148.424 192.041 147.801 191.375 147.417C190.709 147.033 189.63 147.033 188.964 147.417C188.299 147.801 188.299 148.424 188.964 148.809ZM175.93 152.244L182.238 148.603L181.785 148.343L175.478 151.983L175.93 152.244ZM183.518 148.297H190.17V147.928H183.518V148.297ZM182.238 148.603C182.577 148.408 183.038 148.297 183.518 148.297V147.928C182.868 147.928 182.245 148.077 181.785 148.343L182.238 148.603Z" fill="white"/>
<path d="M303.026 138.111C303.694 138.496 304.772 138.496 305.437 138.111C306.105 137.727 306.105 137.104 305.437 136.72C304.772 136.336 303.694 136.336 303.026 136.72C302.361 137.104 302.361 137.727 303.026 138.111ZM247.579 146.982C248.244 147.366 249.323 147.366 249.987 146.982C250.655 146.598 250.655 145.975 249.987 145.591C249.323 145.206 248.244 145.206 247.579 145.591C246.911 145.975 246.911 146.598 247.579 146.982ZM304.007 137.285L282.332 149.796L282.784 150.057L304.459 137.546L304.007 137.285ZM281.051 150.102H266.54V150.471H281.051V150.102ZM265.26 149.796L259.577 146.516L259.125 146.777L264.807 150.057L265.26 149.796ZM257.844 146.102H248.783V146.471H257.844V146.102ZM259.577 146.516C259.118 146.251 258.495 146.102 257.844 146.102V146.471C258.325 146.471 258.788 146.581 259.125 146.777L259.577 146.516ZM266.54 150.102C266.06 150.102 265.601 149.992 265.26 149.796L264.807 150.057C265.267 150.323 265.893 150.471 266.54 150.471V150.102ZM282.332 149.796C281.99 149.992 281.531 150.102 281.051 150.102V150.471C281.698 150.471 282.321 150.323 282.784 150.057L282.332 149.796Z" fill="white"/>
<path d="M279.217 147.33C279.885 147.714 280.964 147.714 281.629 147.33C282.293 146.946 282.293 146.323 281.629 145.939C280.964 145.554 279.885 145.554 279.217 145.939C278.553 146.323 278.553 146.946 279.217 147.33ZM295.492 137.938C296.157 138.322 297.235 138.322 297.903 137.938C298.568 137.553 298.568 136.93 297.903 136.546C297.235 136.162 296.157 136.162 295.492 136.546C294.827 136.93 294.827 137.553 295.492 137.938ZM280.651 146.765L296.922 137.372L296.47 137.111L280.198 146.504L280.651 146.765Z" fill="white"/>
<path d="M231.46 136.807C232.126 137.191 233.205 137.191 233.87 136.807C234.538 136.422 234.538 135.799 233.87 135.415C233.205 135.031 232.126 135.031 231.46 135.415C230.795 135.799 230.795 136.422 231.46 136.807ZM243.161 135.881L250.973 131.371L250.521 131.11L242.708 135.62L243.161 135.881ZM232.666 136.295H241.428V135.926H232.666V136.295ZM242.708 135.62C242.367 135.816 241.908 135.926 241.428 135.926V136.295C242.075 136.295 242.698 136.147 243.161 135.881L242.708 135.62Z" fill="white"/>
<path d="M205.382 136.894C206.048 137.278 207.127 137.278 207.793 136.894C208.459 136.509 208.459 135.886 207.793 135.502C207.127 135.118 206.048 135.118 205.382 135.502C204.716 135.886 204.716 136.509 205.382 136.894ZM236.723 130.458C237.388 130.842 238.47 130.842 239.135 130.458C239.799 130.074 239.799 129.451 239.135 129.067C238.47 128.682 237.388 128.682 236.723 129.067C236.059 129.451 236.059 130.074 236.723 130.458ZM206.814 136.329L217.34 130.253L216.888 129.992L206.362 136.068L206.814 136.329ZM218.62 129.947H237.927V129.578H218.62V129.947ZM217.34 130.253C217.68 130.057 218.14 129.947 218.62 129.947V129.578C217.97 129.578 217.347 129.727 216.888 129.992L217.34 130.253Z" fill="white"/>
<path d="M187.757 142.025C188.423 142.409 189.502 142.409 190.168 142.025C190.834 141.64 190.834 141.017 190.168 140.633C189.502 140.249 188.423 140.249 187.757 140.633C187.091 141.017 187.091 141.64 187.757 142.025ZM207.496 130.632C208.162 131.016 209.241 131.016 209.907 130.632C210.572 130.248 210.572 129.625 209.907 129.24C209.241 128.856 208.162 128.856 207.496 129.24C206.83 129.625 206.83 130.248 207.496 130.632ZM189.189 141.46L208.928 130.067L208.476 129.806L188.737 141.199L189.189 141.46Z" fill="white"/>
<path d="M222.039 186.245C222.704 186.629 223.784 186.629 224.449 186.245C225.115 185.861 225.115 185.238 224.449 184.854C223.784 184.469 222.704 184.469 222.039 184.854C221.373 185.238 221.373 185.861 222.039 186.245ZM230.231 182.21H244.716V181.841H230.231V182.21ZM228.498 182.256L223.018 185.419L223.47 185.68L228.95 182.517L228.498 182.256ZM230.231 181.841C229.581 181.841 228.958 181.991 228.498 182.256L228.95 182.517C229.29 182.321 229.75 182.21 230.231 182.21V181.841Z" fill="white"/>
</g>
</g>
<path d="M155.374 85.2297C154.542 84.7492 154.542 83.9707 155.374 83.4903L186.414 65.5747C187.246 65.0943 188.595 65.0943 189.427 65.5747L290.683 124.018C291.514 124.498 291.514 125.277 290.683 125.757L259.643 143.673C258.812 144.153 257.462 144.153 256.63 143.673L155.374 85.2297Z" fill="#DDE8FB" stroke="white" stroke-width="0.75"/>
<path d="M223.477 154.457C231.798 149.654 231.798 141.867 223.477 137.063C215.155 132.26 201.663 132.26 193.341 137.063C185.02 141.867 185.02 149.654 193.341 154.457C201.663 159.26 215.155 159.26 223.477 154.457Z" fill="#DDE8FB" stroke="white" stroke-width="0.75"/>
<path d="M125.238 99.1448L98.1162 114.799C97.284 115.28 97.284 116.058 98.1162 116.539L199.372 174.982C200.204 175.462 201.553 175.462 202.385 174.982L229.507 159.327C230.339 158.847 230.339 158.068 229.507 157.588L128.252 99.1448C127.42 98.6645 126.07 98.6645 125.238 99.1448Z" fill="#DDE8FB" stroke="white" stroke-width="0.75"/>
<path d="M78.5227 126.4C77.6903 125.919 77.6903 125.14 78.5227 124.66L88.9776 118.626C89.8096 118.146 91.1587 118.146 91.9911 118.626L100.522 123.55C101.354 124.03 101.354 124.809 100.522 125.289L90.0668 131.324C89.2348 131.804 87.8857 131.804 87.0533 131.324L78.5227 126.4Z" fill="#DDE8FB" stroke="white" stroke-width="0.75"/>
<path d="M150.246 158.805L123.124 174.46C122.292 174.94 122.292 175.719 123.124 176.199L159.588 197.246C160.42 197.726 161.769 197.726 162.602 197.246L189.723 181.591C190.556 181.111 190.556 180.332 189.723 179.852L153.259 158.805C152.427 158.325 151.078 158.325 150.246 158.805Z" fill="#DDE8FB" stroke="white" stroke-width="0.75"/>
<path d="M74.4187 138.802L72.6105 139.846C72.2777 140.038 72.2777 140.35 72.6105 140.542L76.8295 142.977C77.1624 143.169 77.7021 143.169 78.0349 142.977L79.843 141.933C80.1759 141.741 80.1759 141.43 79.843 141.237L75.6241 138.802C75.2912 138.61 74.7515 138.61 74.4187 138.802Z" fill="#DDE8FB" stroke="white" stroke-width="0.75"/>
<path d="M122.223 90.0997L120.415 91.1433C120.082 91.3355 120.082 91.647 120.415 91.8391L122.778 93.203C123.111 93.3951 123.651 93.3951 123.984 93.203L125.792 92.1594C126.125 91.9672 126.125 91.6558 125.792 91.4636L123.429 90.0997C123.096 89.9076 122.556 89.9076 122.223 90.0997Z" fill="#DDE8FB" stroke="white" stroke-width="0.75"/>
<path d="M149.067 86.795L147.259 87.8386C146.926 88.0308 146.926 88.3423 147.259 88.5344L151.478 90.9695C151.811 91.1617 152.35 91.1617 152.683 90.9695L154.491 89.9259C154.824 89.7338 154.824 89.4223 154.491 89.2302L150.273 86.795C149.94 86.6029 149.4 86.6029 149.067 86.795Z" fill="#DDE8FB" stroke="white" stroke-width="0.75"/>
<path d="M241.255 65.9225L239.446 66.9661C239.114 67.1582 239.114 67.4697 239.446 67.6618L243.665 70.097C243.998 70.2891 244.538 70.2891 244.871 70.097L246.679 69.0533C247.012 68.8612 247.012 68.5497 246.679 68.3576L242.46 65.9225C242.127 65.7303 241.587 65.7303 241.255 65.9225Z" fill="#DDE8FB" stroke="white" stroke-width="0.75"/>
<path d="M211.653 180.548L209.845 179.504C209.512 179.312 208.972 179.312 208.639 179.504L204.42 181.939C204.088 182.131 204.088 182.443 204.42 182.635L206.229 183.679C206.561 183.871 207.101 183.871 207.434 183.679L211.653 181.244C211.986 181.051 211.986 180.74 211.653 180.548Z" fill="#DDE8FB" stroke="white" stroke-width="0.75"/>
<path d="M124.333 159.153L122.525 160.197C122.192 160.389 122.192 160.701 122.525 160.893L126.744 163.328C127.076 163.52 127.616 163.52 127.949 163.328L129.757 162.284C130.09 162.092 130.09 161.781 129.757 161.589L125.538 159.153C125.205 158.961 124.666 158.961 124.333 159.153Z" fill="#DDE8FB" stroke="white" stroke-width="0.75"/>
<path d="M112.278 127.844L110.47 128.888C110.137 129.08 110.137 129.392 110.47 129.584L112.278 130.627C112.611 130.819 113.151 130.819 113.483 130.627L115.292 129.584C115.624 129.392 115.624 129.08 115.292 128.888L113.483 127.844C113.151 127.652 112.611 127.652 112.278 127.844Z" fill="#DDE8FB" stroke="white" stroke-width="0.75"/>
<path d="M187.614 115.321L185.806 116.365C185.473 116.557 185.473 116.868 185.806 117.06L187.614 118.104C187.947 118.296 188.487 118.296 188.819 118.104L190.628 117.06C190.96 116.868 190.96 116.557 190.628 116.365L188.819 115.321C188.487 115.129 187.947 115.129 187.614 115.321Z" fill="#DDE8FB" stroke="white" stroke-width="0.75"/>
<path d="M172.544 60.0084L170.736 61.052C170.403 61.2442 170.403 61.5557 170.736 61.7478L172.544 62.7914C172.877 62.9835 173.416 62.9835 173.749 62.7914L175.557 61.7478C175.89 61.5557 175.89 61.2442 175.557 61.052L173.749 60.0084C173.416 59.8163 172.877 59.8163 172.544 60.0084Z" fill="#DDE8FB" stroke="white" stroke-width="0.75"/>
<path d="M192.739 118.278L190.931 119.322C190.598 119.514 190.598 119.825 190.931 120.017L192.739 121.061C193.072 121.253 193.612 121.253 193.944 121.061L195.753 120.017C196.085 119.825 196.085 119.514 195.753 119.322L193.944 118.278C193.612 118.086 193.072 118.086 192.739 118.278Z" fill="#DDE8FB" stroke="white" stroke-width="0.75"/>
<path d="M286.067 86.4474L284.259 87.491C283.926 87.6831 283.926 87.9946 284.259 88.1867L286.067 89.2304C286.4 89.4225 286.94 89.4225 287.273 89.2304L289.081 88.1867C289.414 87.9946 289.414 87.6831 289.081 87.491L287.273 86.4474C286.94 86.2552 286.4 86.2552 286.067 86.4474Z" fill="#DDE8FB" stroke="white" stroke-width="0.75"/>
<path d="M63.2694 128.888L55.4342 133.411C55.2677 133.507 55.2677 133.662 55.4342 133.758L58.4477 135.498C58.6142 135.594 58.884 135.594 59.0504 135.498L66.8857 130.975C67.0521 130.879 67.0521 130.724 66.8857 130.628L63.8721 128.888C63.7057 128.792 63.4358 128.792 63.2694 128.888Z" fill="#DDE8FB" stroke="white" stroke-width="0.75"/>
<g filter="url(#filter0_d_3057_3309)">
<path d="M155.374 80.0114C154.542 79.531 154.542 78.7524 155.374 78.272L186.414 60.3564C187.246 59.876 188.595 59.876 189.427 60.3564L290.682 118.8C291.514 119.28 291.514 120.059 290.682 120.539L259.643 138.455C258.811 138.935 257.461 138.935 256.629 138.455L155.374 80.0114Z" fill="#EBF2FC"/>
</g>
<path d="M259.642 138.454L290.681 120.538C291.099 120.298 291.308 119.984 291.308 119.669V117.756L157.812 75.3149L154.75 77.4022V79.1416C154.75 79.4564 154.958 79.7709 155.374 80.0109L256.628 138.454C257.46 138.934 258.81 138.934 259.642 138.454Z" fill="#C9DDFB" stroke="#0153F1" stroke-width="0.75"/>
<mask id="mask2_3057_3309" style="mask-type:alpha" maskUnits="userSpaceOnUse" x="154" y="57" width="138" height="81">
<path d="M155.374 78.2721C154.542 77.7917 154.542 77.0132 155.374 76.5328L186.414 58.6171C187.246 58.1367 188.595 58.1367 189.427 58.6171L290.682 117.06C291.514 117.541 291.514 118.319 290.682 118.8L259.643 136.715C258.811 137.196 257.461 137.196 256.629 136.715L155.374 78.2721Z" fill="#EBF2FC" stroke="#0153F1" stroke-width="0.75"/>
</mask>
<g mask="url(#mask2_3057_3309)">
<path d="M155.374 78.2721C154.542 77.7917 154.542 77.0132 155.374 76.5328L186.414 58.6171C187.246 58.1367 188.595 58.1367 189.427 58.6171L290.682 117.06C291.514 117.541 291.514 118.319 290.682 118.8L259.643 136.715C258.811 137.196 257.461 137.196 256.629 136.715L155.374 78.2721Z" fill="#EBF2FC" stroke="#0153F1" stroke-width="0.75"/>
<path d="M167.125 77.7503C166.625 77.4623 166.625 76.9947 167.125 76.7067L187.014 65.2268C187.513 64.9387 188.323 64.9387 188.822 65.2268L279.228 117.408C279.729 117.696 279.729 118.164 279.228 118.452L259.341 129.932C258.84 130.22 258.029 130.22 257.531 129.932L167.125 77.7503Z" stroke="#0153F1" stroke-width="0.75"/>
<g filter="url(#filter1_d_3057_3309)">
<path d="M169.976 66.0964C169.144 65.6159 169.144 64.8374 169.976 64.357L201.015 46.4414C201.847 45.961 203.197 45.961 204.029 46.4414L305.284 104.885C306.116 105.365 306.116 106.143 305.284 106.624L274.245 124.54C273.413 125.02 272.063 125.02 271.231 124.54L169.976 66.0964Z" fill="#EBF2FC"/>
</g>
</g>
<path d="M274.191 124.538L305.23 106.623C305.644 106.383 305.853 106.068 305.853 105.753V103.84L172.429 61.3999L169.297 63.4865V65.2258C169.297 65.5407 169.505 65.8551 169.921 66.0952L271.177 124.538C272.009 125.019 273.359 125.019 274.191 124.538Z" fill="#C9DDFB" stroke="#0153F1" stroke-width="0.75"/>
<path d="M169.976 64.3571C169.144 63.8767 169.144 63.0981 169.976 62.6177L201.015 44.7021C201.847 44.2217 203.197 44.2217 204.029 44.7021L305.284 103.145C306.116 103.626 306.116 104.404 305.284 104.885L274.245 122.8C273.413 123.281 272.063 123.281 271.231 122.8L169.976 64.3571Z" fill="#EBF2FC" stroke="#0153F1" stroke-width="0.75"/>
<path d="M181.726 63.8353C181.227 63.5472 181.227 63.0797 181.726 62.7916L201.616 51.3117C202.115 51.0237 202.924 51.0237 203.424 51.3117L293.829 103.493C294.331 103.781 294.331 104.249 293.829 104.537L273.939 116.017C273.442 116.305 272.631 116.305 272.133 116.017L181.726 63.8353Z" stroke="#0153F1" stroke-width="0.75"/>
<defs>
<filter id="filter0_d_3057_3309" x="144.75" y="59.9961" width="156.555" height="98.8188" filterUnits="userSpaceOnUse" color-interpolation-filters="sRGB">
<feFlood flood-opacity="0" result="BackgroundImageFix"/>
<feColorMatrix in="SourceAlpha" type="matrix" values="0 0 0 0 0 0 0 0 0 0 0 0 0 0 0 0 0 0 127 0" result="hardAlpha"/>
<feOffset dy="10"/>
<feGaussianBlur stdDeviation="5"/>
<feComposite in2="hardAlpha" operator="out"/>
<feColorMatrix type="matrix" values="0 0 0 0 0.168553 0 0 0 0 0.168553 0 0 0 0 1 0 0 0 0.1 0"/>
<feBlend mode="normal" in2="BackgroundImageFix" result="effect1_dropShadow_3057_3309"/>
<feBlend mode="normal" in="SourceGraphic" in2="effect1_dropShadow_3057_3309" result="shape"/>
</filter>
<filter id="filter1_d_3057_3309" x="159.352" y="46.0811" width="156.555" height="98.8188" filterUnits="userSpaceOnUse" color-interpolation-filters="sRGB">
<feFlood flood-opacity="0" result="BackgroundImageFix"/>
<feColorMatrix in="SourceAlpha" type="matrix" values="0 0 0 0 0 0 0 0 0 0 0 0 0 0 0 0 0 0 127 0" result="hardAlpha"/>
<feOffset dy="10"/>
<feGaussianBlur stdDeviation="5"/>
<feComposite in2="hardAlpha" operator="out"/>
<feColorMatrix type="matrix" values="0 0 0 0 0.168553 0 0 0 0 0.168553 0 0 0 0 1 0 0 0 0.1 0"/>
<feBlend mode="normal" in2="BackgroundImageFix" result="effect1_dropShadow_3057_3309"/>
<feBlend mode="normal" in="SourceGraphic" in2="effect1_dropShadow_3057_3309" result="shape"/>
</filter>
</defs>
</svg>
