<svg xmlns="http://www.w3.org/2000/svg" width="60" height="60" viewBox="0 0 60 60" fill="none">
    <path fill-rule="evenodd" clip-rule="evenodd"
        d="M11.054 13.001H42.8783C43.9422 13.001 44.9705 13.4556 45.7346 14.278C46.4998 15.1017 46.9353 16.226 46.9353 17.4052V42.852C46.9353 44.0313 46.4998 45.1556 45.7346 45.9793C44.9705 46.8017 43.9422 47.2563 42.8783 47.2563H11.054C9.99017 47.2563 8.9619 46.8017 8.19782 45.9793C7.43261 45.1556 6.99707 44.0313 6.99707 42.852V17.4052C6.99707 16.226 7.43261 15.1017 8.19782 14.278C8.9619 13.4556 9.99017 13.001 11.054 13.001ZM44.3084 44.3386C44.68 43.9386 44.8831 43.4033 44.8831 42.852V17.4052C44.8831 16.854 44.68 16.3187 44.3084 15.9187C43.9357 15.5175 43.4221 15.2847 42.8783 15.2847H11.054C10.5102 15.2847 9.99666 15.5175 9.62394 15.9187C9.25235 16.3187 9.04923 16.854 9.04923 17.4052V42.852C9.04923 43.4033 9.25235 43.9386 9.62394 44.3386C9.99666 44.7397 10.5102 44.9726 11.054 44.9726H42.8783C43.4221 44.9726 43.9357 44.7397 44.3084 44.3386ZM24.2037 20.6676V39.5896C24.2037 39.9036 24.0874 40.1982 23.8906 40.41C23.695 40.6206 23.4376 40.7315 23.1776 40.7315C22.9176 40.7315 22.6602 40.6206 22.4645 40.41C22.2677 40.1981 22.1515 39.9036 22.1515 39.5896V20.6676C22.1515 20.3537 22.2677 20.0591 22.4645 19.8473C22.6602 19.6367 22.9176 19.5258 23.1776 19.5258C23.4376 19.5258 23.695 19.6367 23.8906 19.8473C24.0874 20.0591 24.2037 20.3537 24.2037 20.6676ZM16.6264 20.6676V39.5896C16.6264 39.9036 16.5102 40.1982 16.3134 40.41C16.1177 40.6206 15.8604 40.7315 15.6004 40.7315C15.3403 40.7315 15.083 40.6206 14.8873 40.41C14.6905 40.1982 14.5743 39.9036 14.5743 39.5896V20.6676C14.5743 20.3537 14.6905 20.0591 14.8873 19.8473C15.083 19.6367 15.3403 19.5258 15.6004 19.5258C15.8604 19.5258 16.1177 19.6367 16.3134 19.8473C16.5102 20.0591 16.6264 20.3537 16.6264 20.6676ZM52.9971 20.6676V39.5896C52.9971 39.9036 52.8809 40.1982 52.6841 40.41C52.4884 40.6206 52.231 40.7315 51.971 40.7315C51.711 40.7315 51.4536 40.6206 51.2579 40.41C51.0611 40.1982 50.9449 39.9036 50.9449 39.5896V20.6676C50.9449 20.3537 51.0611 20.0591 51.2579 19.8473C51.4536 19.6367 51.711 19.5258 51.971 19.5258C52.231 19.5258 52.4884 19.6367 52.6841 19.8473C52.8809 20.0591 52.9971 20.3537 52.9971 20.6676ZM31.0705 20.6675V39.5895C31.0705 39.9035 30.9543 40.198 30.7575 40.4098C30.5618 40.6205 30.3045 40.7313 30.0444 40.7313C29.7844 40.7313 29.527 40.6205 29.3314 40.4098C29.1346 40.198 29.0183 39.9035 29.0183 39.5895V20.6675C29.0183 20.3535 29.1346 20.059 29.3314 19.8471C29.527 19.6365 29.7844 19.5256 30.0444 19.5256C30.3045 19.5256 30.5618 19.6365 30.7575 19.8471C30.9543 20.059 31.0705 20.3535 31.0705 20.6675Z"
        fill="#77787D" />
</svg>