<svg xmlns="http://www.w3.org/2000/svg" width="60" height="60" viewBox="0 0 60 60" fill="none">
    <path fill-rule="evenodd" clip-rule="evenodd"
        d="M28.9369 40.6566V9.24499L18.0182 20.4862C17.8155 20.6935 17.6117 20.7697 17.3707 20.7606C17.1174 20.751 16.8781 20.6527 16.6352 20.409C16.4549 20.2268 16.3541 19.9962 16.3541 19.6626C16.3541 19.3338 16.4556 19.0871 16.6535 18.8793L28.5168 6.64373C28.7682 6.38448 29.004 6.22808 29.2203 6.14365L29.2234 6.14242C29.4599 6.04874 29.7206 5.99902 30.0118 5.99902C30.303 5.99902 30.5619 6.04876 30.7951 6.14181L30.7992 6.14343C31.0063 6.2245 31.2402 6.3797 31.4962 6.64373L43.4244 18.9498C43.6322 19.1642 43.7282 19.3984 43.7326 19.6838C43.7366 19.9506 43.6476 20.1909 43.4196 20.4309L43.4175 20.4332C43.242 20.6195 43.028 20.7168 42.7207 20.7168C42.4162 20.7168 42.19 20.6188 41.996 20.4187L31.0726 9.24963V40.653C31.0726 40.9971 30.966 41.2518 30.761 41.4633C30.5577 41.673 30.3199 41.7758 30.0013 41.7758V41.7794C29.6812 41.7786 29.4456 41.6752 29.2467 41.4686C29.0433 41.2574 28.9369 41.0022 28.9369 40.6566ZM16.0005 53.9988C15.682 53.9988 15.4462 53.8961 15.2459 53.688C15.0424 53.4767 14.9342 53.2192 14.9326 52.8694C14.9311 52.5243 15.0372 52.2728 15.2409 52.0656C15.4481 51.8548 15.6869 51.7533 16.0005 51.7533H44.0091C44.3276 51.7533 44.5633 51.856 44.7637 52.0641C44.9672 52.2755 45.0753 52.5329 45.0769 52.8828C45.0785 53.2278 44.9723 53.4793 44.7686 53.6865C44.5614 53.8973 44.3226 53.9988 44.0091 53.9988H16.0005Z"
        fill="#77787D" />
</svg>