<svg xmlns="http://www.w3.org/2000/svg" width="60" height="60" viewBox="0 0 60 60" fill="none">
    <path
        d="M7.00133 30.2316C6.86809 17.7301 16.7681 7.46462 29.1248 7.01576C42.0771 6.54545 52.4192 16.6677 52.9753 28.8917C53.5705 41.9681 43.3762 52.4118 31.1036 52.9742C17.8907 53.5806 7.10767 43.0651 7.00133 30.2316ZM50.9986 29.9891C50.9994 18.4867 41.7778 9.16805 30.3332 9.00035C18.5414 8.82761 9.18694 18.213 8.99948 29.6213C8.80362 41.5424 18.3989 51.0102 30.0049 50.998C41.6219 50.9862 51.0024 41.6046 50.9986 29.9891Z"
        fill="#77787D" />
    <path
        d="M15.5 29.9861C15.5227 28.7555 15.674 27.5484 16.1044 26.3884C16.7218 24.7228 17.7659 23.4279 19.3967 22.6563C20.3756 22.1939 21.4142 22.0082 22.4931 22.004C23.628 21.9998 24.7153 22.1939 25.7388 22.6945C26.932 23.2766 27.826 24.1735 28.4586 25.336C29.0651 26.4502 29.3593 27.6526 29.4673 28.9085C29.5707 30.1298 29.5165 31.3407 29.2454 32.5376C28.9373 33.8968 28.3695 35.1262 27.378 36.129C26.4113 37.1045 25.2344 37.6656 23.8852 37.8837C22.7041 38.0745 21.5315 38.0392 20.379 37.7105C18.4569 37.1616 17.122 35.934 16.3095 34.1234C15.8795 33.1676 15.6517 32.1594 15.5702 31.1166C15.5408 30.7405 15.5231 30.3631 15.5 29.9861ZM22.5276 23.9869C22.2666 24.0071 22.0039 24.0188 21.7441 24.0499C19.9465 24.2601 18.7288 25.2301 18.0572 26.8986C17.6642 27.8754 17.5225 28.8984 17.5188 29.9445C17.5145 31.1091 17.6734 32.2447 18.1526 33.3173C18.657 34.4449 19.4526 35.2737 20.6324 35.6944C21.4466 35.9844 22.2889 36.0454 23.145 35.9659C25.0188 35.7911 26.2906 34.816 26.9833 33.0743C27.2981 32.2829 27.4456 31.4558 27.494 30.6094C27.5642 29.3935 27.4553 28.1994 27.0342 27.0487C26.6739 26.0627 26.1019 25.2335 25.1907 24.6736C24.3744 24.1727 23.4695 24.0054 22.5276 23.9869Z"
        fill="#77787D" />
    <path
        d="M43.5397 25.9989H42.5246C42.2304 25.9989 41.8244 25.9921 41.5306 25.9842C41.5306 25.9842 41.5239 25.9446 41.5159 25.9068C41.4028 25.3743 41.0721 25.0003 40.6425 24.7019C40.1217 24.34 39.5253 24.1639 38.9079 24.0962C38.3409 24.0297 37.7696 24.0085 37.1993 24.0328C36.5358 24.0688 35.8954 24.289 35.35 24.6687C34.8178 25.0309 34.5934 25.5634 34.5425 26.1817C34.5185 26.4215 34.5228 26.6633 34.5551 26.9021C34.6115 27.2622 34.8674 27.4959 35.1516 27.6985C35.6858 28.0793 36.2809 28.3399 36.8929 28.5593C37.8836 28.9144 38.8835 29.2439 39.8725 29.6032C40.6774 29.8974 41.4545 30.2522 42.1245 30.799C42.8933 31.4265 43.4191 32.2086 43.5027 33.2173C43.5939 34.3155 43.2968 35.315 42.6091 36.1849C41.8862 37.0995 40.9174 37.6211 39.7952 37.8409C38.0576 38.1817 36.3671 37.9951 34.7687 37.2163C33.6515 36.67 32.8991 35.7991 32.6062 34.5685C32.5641 34.3912 32.5419 34.2096 32.5078 34.015H34.4955C34.5317 34.1479 34.5754 34.2787 34.6262 34.4067C34.8729 34.9501 35.3054 35.3036 35.8371 35.5415C36.6483 35.9046 37.5129 35.9883 38.388 35.995C39.1202 36.0008 39.842 35.8221 40.487 35.4755C41.1368 35.1317 41.4482 34.5803 41.5004 33.865C41.5122 33.6971 41.5155 33.5288 41.51 33.3606C41.4983 32.9903 41.3209 32.7037 41.0431 32.4709C40.5206 32.0329 39.9103 31.7534 39.2778 31.5231C38.3484 31.1839 37.4086 30.8738 36.476 30.543C35.6248 30.2408 34.7888 29.9025 34.0558 29.3603C33.3947 28.8711 32.8874 28.2609 32.6511 27.4589C32.399 26.5982 32.499 25.748 32.8193 24.9318C33.3812 23.4986 34.4723 22.6521 35.9266 22.2331C36.8395 21.9704 37.7672 21.9578 38.7032 22.0578C39.5051 22.1419 40.2857 22.315 41.0212 22.653C42.193 23.1905 43.05 24.0168 43.3968 25.2957C43.4569 25.5151 43.4888 25.7433 43.5397 25.9989Z"
        fill="#77787D" />
</svg>