<svg width="246" height="164" viewBox="0 0 246 164" fill="none" xmlns="http://www.w3.org/2000/svg">
<g clip-path="url(#clip0_4518_6372)">
<path d="M74.7644 76.3879C78.3058 76.3879 79.5936 78.6415 79.7545 79.2853H82.974C82.652 77.9976 81.0423 73.4904 74.7644 73.4904C69.9353 73.4904 66.2329 77.3537 66.2329 82.5048C66.2329 87.6559 69.9353 91.3582 74.9254 91.3582C81.0423 91.3582 82.813 86.851 82.974 85.7242H79.9155C79.5936 86.2071 78.3058 88.4607 74.9254 88.4607C71.706 88.4607 69.4524 85.8852 69.4524 82.5048C69.4524 79.1244 71.706 76.3879 74.7644 76.3879ZM89.7348 86.851V73.9733H86.6763V91.0362H89.7348L99.715 77.9976V91.0362H102.773V73.9733H99.715L89.7348 86.851ZM105.671 76.7098H112.593V91.0362H115.651V76.7098H122.573V73.9733H105.671V76.7098ZM128.529 86.851V73.9733H125.47V91.0362H128.529L138.509 77.9976V91.0362H141.568V73.9733H138.509L128.529 86.851ZM148.167 83.4706C147.684 87.3339 147.202 88.4607 144.948 88.4607H144.465V91.1972H145.431C148.972 91.1972 150.421 88.7826 150.904 83.6316L151.548 76.7098H158.63V91.0362H161.689V73.9733H148.972L148.167 83.4706ZM169.738 86.851V73.9733H166.679V91.0362H169.738L179.718 77.9976V91.0362H182.776V73.9733H179.718L169.738 86.851ZM200.483 80.8951H190.986V73.9733H187.766V91.0362H190.986V83.7925H200.483V91.0362H203.702V73.9733H200.483V80.8951ZM214.97 82.1828L224.951 73.9733H220.604L211.59 81.378V73.9733H208.532V91.0362H211.59V83.1487L221.087 91.0362H225.434L214.97 82.1828ZM48.848 96.3483L30.1754 99.8897C25.3462 100.695 21 96.9922 21 92.163V71.7197C21 66.8906 25.3462 63.1882 30.1754 64.154L48.848 67.5344C51.5846 68.1783 53.6772 70.5929 53.6772 73.3294V90.5533C53.6772 93.4508 51.5846 95.8654 48.848 96.3483Z" fill="#FF5200"/>
<path d="M31.1288 89.1191V75.4366C31.1288 74.7927 31.6117 74.3098 32.2556 74.4707L45.9381 76.4024V73.3439L32.8995 71.4123C30.3239 70.9294 28.0703 73.022 28.0703 75.5975V89.1191C28.0703 91.6947 30.3239 93.6263 32.8995 93.1434L45.9381 91.2117V88.1533L32.2556 90.0849C31.6117 90.2459 31.1288 89.763 31.1288 89.1191Z" fill="white"/>
</g>
<defs>
<clipPath id="clip0_4518_6372">
<rect width="204.434" height="36" fill="white" transform="translate(21 64)"/>
</clipPath>
</defs>
</svg>
