<svg width="246" height="164" viewBox="0 0 246 164" fill="none" xmlns="http://www.w3.org/2000/svg">
<path d="M61.8359 80.8931C61.8359 79.4978 62.0976 78.1134 62.6208 76.7398C63.1441 75.3445 63.9071 74.1018 64.91 73.0116C65.9129 71.9215 67.1339 71.0385 68.5728 70.3627C70.0118 69.6868 71.6469 69.3489 73.4783 69.3489C75.6585 69.3489 77.5444 69.8176 79.136 70.7551C80.7493 71.6926 81.9485 72.9135 82.7333 74.4179L78.6127 77.2958C78.3511 76.6853 78.0132 76.1839 77.5989 75.7914C77.2065 75.3772 76.7704 75.0501 76.2908 74.8103C75.8111 74.5487 75.3206 74.3743 74.8191 74.2871C74.3177 74.1781 73.8271 74.1236 73.3475 74.1236C72.3228 74.1236 71.4289 74.3307 70.6658 74.7449C69.9027 75.1592 69.2705 75.6933 68.769 76.3474C68.2676 77.0014 67.8969 77.7427 67.6571 78.5712C67.4173 79.3997 67.2974 80.2391 67.2974 81.0894C67.2974 82.005 67.4391 82.888 67.7225 83.7383C68.006 84.5886 68.4093 85.3408 68.9325 85.9948C69.4776 86.6489 70.1208 87.1722 70.862 87.5646C71.6251 87.9352 72.4754 88.1206 73.4129 88.1206C73.8925 88.1206 74.3831 88.0661 74.8845 87.957C75.4078 87.8262 75.8983 87.6409 76.3562 87.4011C76.8358 87.1395 77.2719 86.8124 77.6643 86.42C78.0568 86.0057 78.3729 85.5043 78.6127 84.9156L82.995 87.4992C82.6461 88.3495 82.1229 89.1126 81.4252 89.7884C80.7493 90.4643 79.9645 91.0312 79.0706 91.489C78.1767 91.9468 77.2283 92.2957 76.2254 92.5355C75.2225 92.7753 74.2414 92.8952 73.2821 92.8952C71.6033 92.8952 70.0554 92.5573 68.6382 91.8814C67.2429 91.1838 66.0329 90.2681 65.0082 89.1344C64.0053 88.0006 63.2204 86.7143 62.6535 85.2754C62.1085 83.8364 61.8359 82.3757 61.8359 80.8931Z" fill="black"/>
<path d="M96.1349 92.8952C94.4125 92.8952 92.8428 92.5573 91.4256 91.8814C90.0085 91.2056 88.7985 90.3226 87.7956 89.2325C86.7927 88.1206 86.0078 86.856 85.4409 85.4389C84.8959 84.0217 84.6234 82.561 84.6234 81.0567C84.6234 79.5305 84.9068 78.0589 85.4736 76.6417C86.0623 75.2246 86.869 73.9818 87.8937 72.9135C88.9402 71.8234 90.172 70.9622 91.5892 70.33C93.0063 69.6759 94.5542 69.3489 96.233 69.3489C97.9554 69.3489 99.5252 69.6868 100.942 70.3627C102.359 71.0385 103.569 71.9324 104.572 73.0443C105.575 74.1563 106.349 75.4208 106.894 76.8379C107.439 78.2551 107.712 79.694 107.712 81.1548C107.712 82.6809 107.418 84.1526 106.829 85.5697C106.262 86.9868 105.466 88.2405 104.442 89.3306C103.417 90.3989 102.196 91.2601 100.779 91.9141C99.3616 92.5682 97.8137 92.8952 96.1349 92.8952ZM90.0848 81.1221C90.0848 82.0159 90.2156 82.888 90.4772 83.7383C90.7389 84.5668 91.1204 85.3081 91.6219 85.9621C92.1451 86.6162 92.7883 87.1395 93.5513 87.5319C94.3144 87.9243 95.1865 88.1206 96.1676 88.1206C97.1923 88.1206 98.0862 87.9134 98.8493 87.4992C99.6124 87.085 100.245 86.5508 100.746 85.8967C101.248 85.2209 101.618 84.4687 101.858 83.6402C102.12 82.7899 102.25 81.9287 102.25 81.0567C102.25 80.1628 102.12 79.3016 101.858 78.4731C101.596 77.6228 101.204 76.8815 100.681 76.2493C100.157 75.5952 99.5142 75.0829 98.7512 74.7122C98.0099 74.3198 97.1487 74.1236 96.1676 74.1236C95.1429 74.1236 94.249 74.3307 93.4859 74.7449C92.7447 75.1374 92.1124 75.6606 91.5892 76.3147C91.0877 76.9687 90.7062 77.7209 90.4445 78.5712C90.2047 79.3997 90.0848 80.25 90.0848 81.1221Z" fill="black"/>
<path d="M113.653 69.4797L118.722 77.492L123.791 69.4797H129.58L121.535 81.2529L129.318 92.699H123.529L118.722 85.0137L113.915 92.699H108.093L115.877 81.2529L107.832 69.4797H113.653Z" fill="black"/>
<path d="M141.231 92.8952C139.508 92.8952 137.939 92.5573 136.521 91.8814C135.104 91.2056 133.894 90.3226 132.891 89.2325C131.888 88.1206 131.104 86.856 130.537 85.4389C129.992 84.0217 129.719 82.561 129.719 81.0567C129.719 79.5305 130.003 78.0589 130.569 76.6417C131.158 75.2246 131.965 73.9818 132.989 72.9135C134.036 71.8234 135.268 70.9622 136.685 70.33C138.102 69.6759 139.65 69.3489 141.329 69.3489C143.051 69.3489 144.621 69.6868 146.038 70.3627C147.455 71.0385 148.665 71.9324 149.668 73.0443C150.671 74.1563 151.445 75.4208 151.99 76.8379C152.535 78.2551 152.808 79.694 152.808 81.1548C152.808 82.6809 152.513 84.1526 151.925 85.5697C151.358 86.9868 150.562 88.2405 149.537 89.3306C148.513 90.3989 147.292 91.2601 145.875 91.9141C144.457 92.5682 142.909 92.8952 141.231 92.8952ZM135.181 81.1221C135.181 82.0159 135.311 82.888 135.573 83.7383C135.835 84.5668 136.216 85.3081 136.718 85.9621C137.241 86.6162 137.884 87.1395 138.647 87.5319C139.41 87.9243 140.282 88.1206 141.263 88.1206C142.288 88.1206 143.182 87.9134 143.945 87.4992C144.708 87.085 145.34 86.5508 145.842 85.8967C146.343 85.2209 146.714 84.4687 146.954 83.6402C147.215 82.7899 147.346 81.9287 147.346 81.0567C147.346 80.1628 147.215 79.3016 146.954 78.4731C146.692 77.6228 146.3 76.8815 145.776 76.2493C145.253 75.5952 144.61 75.0829 143.847 74.7122C143.106 74.3198 142.244 74.1236 141.263 74.1236C140.239 74.1236 139.345 74.3307 138.582 74.7449C137.84 75.1374 137.208 75.6606 136.685 76.3147C136.183 76.9687 135.802 77.7209 135.54 78.5712C135.3 79.3997 135.181 80.25 135.181 81.1221Z" fill="black"/>
<path d="M167.502 83.4219C166.447 82.6493 164.066 82.9988 163.183 83.4219C162.3 83.8266 161.665 84.4428 161.279 85.2706V94.0178H157.581V82.6493L156.425 82.677V80.0397C156.425 80.0397 157.113 79.6981 157.581 79.5588C158.852 79.1812 160.975 79.5588 160.975 79.5588V82.6493C161.233 82.1526 161.536 81.7111 161.886 81.3248C162.235 80.9201 162.613 80.5706 163.017 80.2762C163.422 79.9819 163.827 79.7612 164.231 79.614C164.654 79.4484 165.059 79.3657 165.445 79.3657C166.107 79.3657 166.355 79.5588 166.447 79.5588C166.558 79.5588 167.855 80.2762 167.502 80.2762V83.4219Z" fill="black"/>
<path d="M174.64 94.3489C173.15 94.3489 172.019 93.8706 171.246 92.914C170.474 91.9574 170.088 90.541 170.088 88.6646V79.614H173.785V87.8644C173.785 90.0903 174.113 91.2155 175.021 91.2155C175.738 91.2155 176.428 91.0039 177.09 90.5808C177.771 90.1393 178.323 89.4771 178.746 88.5941V79.6263H182.444V89.8358C182.444 90.2221 182.508 90.4981 182.637 90.6636C182.784 90.8292 183.014 90.9212 183.326 90.9396V94.0852C182.959 94.1588 182.646 94.2048 182.388 94.2232C182.149 94.2416 181.928 94.2508 181.726 94.2508C181.064 94.2508 180.521 94.1036 180.098 93.8093C179.693 93.4965 179.454 93.0734 179.381 92.54L179.298 91.381C178.654 92.3744 177.826 93.1194 176.814 93.6161C175.803 94.1128 175.855 94.3489 174.64 94.3489Z" fill="black"/>
<path d="M153.788 90.5891C153.788 92.6283 152.135 94.2814 150.096 94.2814C148.057 94.2814 146.403 92.6283 146.403 90.5891C146.403 88.5499 148.057 86.8968 150.096 86.8968C152.135 86.8968 153.788 88.5499 153.788 90.5891Z" fill="#EF7C00"/>
</svg>
