<svg width="246" height="164" viewBox="0 0 246 164" fill="none" xmlns="http://www.w3.org/2000/svg">
<path d="M79 71.0012C84.7711 71 90.5423 71.0025 96.3134 71C98.6816 71.0049 101.043 71.7907 102.925 73.2315C104.903 74.7213 106.352 76.9 106.947 79.3045C107.494 81.4766 107.368 83.8165 106.568 85.9114C105.757 88.0758 104.232 89.9592 102.297 91.2221C100.495 92.4009 98.3373 93.046 96.1818 92.9957C90.4546 92.993 84.7273 92.9957 79 92.9943C79 85.6638 79 78.3331 79 71.0012ZM84.4822 76.5156C84.4822 80.1816 84.4809 83.8475 84.4835 87.5135C88.3868 87.5121 92.2901 87.5108 96.1934 87.5135C96.9751 87.5147 97.7593 87.3626 98.4753 87.0452C100.386 86.2234 101.752 84.2474 101.771 82.1578C101.846 80.4035 100.983 78.6555 99.5781 77.612C98.6816 76.9323 97.571 76.5246 96.4436 76.5143C92.4565 76.5168 88.4694 76.5143 84.4822 76.5156ZM110.35 71.174C111.368 70.7947 112.538 71.1161 113.302 71.8654C119.305 76.2241 125.325 80.5609 131.337 84.9091C131.34 80.2731 131.337 75.6371 131.339 71.0012C133.166 71.0012 134.993 71.0012 136.821 71.0012C136.822 77.2999 136.818 83.5973 136.823 89.896C136.834 90.5436 136.74 91.2246 136.362 91.7688C135.75 92.7286 134.5 93.2059 133.402 92.9157C132.792 92.7971 132.327 92.3726 131.857 91.9999C125.912 87.7006 119.963 83.4064 114.02 79.1044C114.023 83.734 114.02 88.3635 114.021 92.9943C112.194 92.9943 110.367 92.9943 108.539 92.9943C108.539 86.5859 108.539 80.1775 108.539 73.7679C108.515 72.633 109.278 71.5443 110.35 71.174ZM143.606 71.1572C144.467 70.9832 145.352 71 146.228 71.0012C151.518 71.0025 156.807 70.9986 162.097 71.0037C162.833 70.9961 163.581 71.2309 164.119 71.7481C164.81 72.3865 165.117 73.3927 164.927 74.3111C164.701 75.5018 163.59 76.4679 162.371 76.4822C156.691 76.4834 151.01 76.4859 145.328 76.4808C144.755 76.437 144.111 76.6421 143.824 77.1734C143.492 77.6882 143.584 78.4027 144.012 78.8348C144.333 79.2102 144.852 79.3031 145.323 79.2915C150.222 79.2812 155.122 79.3005 160.02 79.28C162.062 79.4012 164.003 80.5079 165.172 82.1822C166.164 83.5832 166.593 85.3697 166.351 87.0671C166.108 88.9479 165.034 90.7047 163.467 91.7715C162.357 92.5507 161.009 92.9801 159.655 92.9943C153.373 92.993 147.092 92.9969 140.812 92.993C139.793 92.984 138.806 92.3429 138.396 91.4078C137.967 90.4998 138.098 89.3644 138.717 88.5752C139.235 87.8889 140.089 87.5006 140.945 87.5121C147.139 87.5135 153.332 87.5108 159.526 87.5135C160.364 87.5651 161.098 86.7007 160.918 85.8818C160.8 85.2368 160.192 84.7247 159.534 84.7403C154.629 84.7376 149.724 84.7388 144.82 84.7403C143.041 84.7194 141.295 83.9328 140.066 82.6505C138.53 81.0857 137.845 78.7523 138.264 76.602C138.734 73.9306 140.942 71.6771 143.606 71.1572Z" fill="#F08B21"/>
</svg>
