<svg width="246" height="164" viewBox="0 0 246 164" fill="none" xmlns="http://www.w3.org/2000/svg">
<path d="M169.875 73.25H165.675V91.1H169.875V83.4H178.625V91.1H182.475V73.25H178.625V79.375H169.875V73.25Z" fill="#FD7723"/>
<path d="M190 73.25H185.8V91.1H190.35L198.575 79.725V91.1H202.425V73.25H198.05L190 84.8V73.25Z" fill="#FD7723"/>
<path d="M209.775 73.25H205.75V91.1H209.775V83.4H211.875L217.65 91.1H222.375L215.55 81.475L222.375 73.25H217.65L212.225 79.375H209.775V73.25Z" fill="#FD7723"/>
<path d="M145.725 77.1V73.25H136.8C132.6 73.25 131.317 76.5167 131.2 78.15C131.142 79.375 131.06 82.735 131.2 86.375C131.34 90.015 134.992 91.0417 136.8 91.1H145.725V87.075H137.15C135.61 87.075 135.225 85.9083 135.225 85.325V83.925H145.725V80.075H135.225V78.85C135.225 77.73 136.508 77.2167 137.15 77.1H145.725Z" fill="#FD7723"/>
<path d="M152.375 73.25H147.475L153.425 81.65L147.125 91.1H152.375L155.875 85.325L159.55 91.1H164.625L158.5 81.475L164.275 73.25H159.55L155.875 78.325L152.375 73.25Z" fill="#FD7723"/>
<path d="M120.525 77.1H100.925V73.25H129.8V77.1H124.55V91.1H120.525V77.1Z" fill="#FD7723"/>
<path fill-rule="evenodd" clip-rule="evenodd" d="M21.825 73.25C24.1 73.25 27.075 75 27.075 79.025V91.1H8V87.075H10.975V79.55C10.975 76.575 12.55 73.25 15.875 73.25H21.825ZM17.45 77.275C16.6917 77.3333 15.175 77.87 15.175 79.55V87.075H22.875V79.55C22.8167 78.7917 22.315 77.275 20.775 77.275H17.45Z" fill="#FD7723"/>
<path fill-rule="evenodd" clip-rule="evenodd" d="M41.6 73.25C44.4995 73.25 46.85 75.6005 46.85 78.5V85.85C46.85 88.7495 44.4995 91.1 41.6 91.1H35.3C32.4005 91.1 30.05 88.7495 30.05 85.85V78.5C30.05 75.6005 32.4005 73.25 35.3 73.25H41.6ZM36.35 77.1C34.9969 77.1 33.9 78.1969 33.9 79.55V84.8C33.9 86.1531 34.9969 87.25 36.35 87.25H40.55C41.9031 87.25 43 86.1531 43 84.8V79.55C43 78.1969 41.9031 77.1 40.55 77.1H36.35Z" fill="#FD7723"/>
<path d="M54.025 79.375V91.1H50V75.525C50.0583 74.9417 50.42 73.67 51.4 73.25C52.38 72.83 53.5583 73.775 54.025 74.3L58.75 79.375C60.325 77.6833 63.58 74.195 64 73.775C64.42 73.355 64.7583 73.25 64.875 73.25C66.975 72.97 67.5 74.5333 67.5 75.35V87.075H84.125L85.35 86.725L87.625 89.875L86.225 91.1H63.65L63.475 79.375C62.6 80.5417 60.64 83.05 59.8 83.75C58.96 84.45 58.1667 84.0417 57.875 83.75L54.025 79.375Z" fill="#FD7723"/>
<path d="M93.75 86.9C93.75 89.6062 91.5562 91.8 88.85 91.8C86.1438 91.8 83.95 89.6062 83.95 86.9C83.95 84.1938 86.1438 82 88.85 82C91.5562 82 93.75 84.1938 93.75 86.9Z" fill="#FD7723"/>
<path d="M103.55 77.1C103.55 79.8062 101.356 82 98.65 82C95.9438 82 93.75 79.8062 93.75 77.1C93.75 74.3938 95.9438 72.2 98.65 72.2C101.356 72.2 103.55 74.3938 103.55 77.1Z" fill="#FD7723"/>
<path d="M110.9 82C110.9 72.7216 103.378 65.2 94.1 65.2C84.8216 65.2 77.3 72.7216 77.3 82C77.3 91.2784 84.8216 98.8 94.1 98.8V103C82.502 103 73.1 93.598 73.1 82C73.1 70.402 82.502 61 94.1 61C105.698 61 115.1 70.402 115.1 82C115.1 93.598 105.698 103 94.1 103V98.8C103.378 98.8 110.9 91.2784 110.9 82Z" fill="#FD7723"/>
<path d="M107.394 82.3955C107.342 84.1413 106.947 85.8597 106.231 87.4527L106.093 87.7497C105.386 89.2245 104.413 90.5572 103.221 91.68C101.95 92.8778 100.455 93.8134 98.8219 94.4335C97.1892 95.0536 95.4503 95.3461 93.7045 95.2942L93.8037 91.9654C95.1123 92.0043 96.4157 91.7853 97.6397 91.3205C98.8636 90.8556 99.9841 90.1542 100.937 89.2563C101.89 88.3585 102.657 87.2817 103.194 86.0875C103.73 84.8934 104.027 83.605 104.065 82.2963L107.394 82.3955Z" fill="#FD7723"/>
<path fill-rule="evenodd" clip-rule="evenodd" d="M232.175 73.25C235.325 73.25 238.475 74.51 238.475 77.45C238.475 80.39 238.592 87.775 238.65 91.1H227.975C225.992 90.9833 222.025 89.98 222.025 86.9V84.625C222.025 82.9917 223.005 79.69 226.925 79.55H234.8V78.5C234.742 77.975 234.31 76.925 233.05 76.925H228.5C227.917 76.9833 226.75 77.38 226.75 78.5H222.725C222.608 76.8667 223.425 73.25 228.5 73.25H232.175ZM228.325 83.4C226.645 83.4 226.108 84.45 226.05 84.975V85.675C226.05 86.795 227.567 87.075 228.325 87.075H234.625V83.4H228.325Z" fill="#FD7723"/>
</svg>
