<svg width="246" height="164" viewBox="0 0 246 164" fill="none" xmlns="http://www.w3.org/2000/svg">
<path d="M204.06 71.0135H198.019C195.603 70.9182 193.541 72.7176 193.316 75.1175L190.687 88.754C190.214 91.2371 190.937 92.8702 193.825 92.8702H199.901C202.342 93.0243 204.449 91.1904 204.628 88.754L207.352 75.1175C207.791 72.7054 207.056 71.0135 204.107 71.0135M202.532 76.0405L200.199 87.904C200.199 88.3179 199.879 88.6485 199.465 88.6607H195.994C195.509 88.6607 195.402 88.4721 195.46 87.9162L197.771 76.0527C197.937 75.5212 198.185 75.2716 198.623 75.2716H201.999C202.437 75.2716 202.662 75.5191 202.567 76.0527M185.654 88.6485L189.101 71.0135H179.661C177.197 70.837 175.054 72.6689 174.841 75.1175L171.027 88.6485H169.05L168.185 92.931H186.19L187.042 88.6485H185.656H185.654ZM183.593 75.2595L180.915 88.6485H175.953L179.375 76.0405C179.375 75.6145 179.73 75.2595 180.156 75.2595H183.591H183.593ZM166.205 92.929L166.786 71.1535H160.426L149.919 93H154.989L156.742 88.9549H161.29L160.959 93L166.207 92.929H166.205ZM162.26 76.8094L161.572 85.3479H158.267L161.998 76.8094H162.258H162.26ZM152.666 75.1175C153.163 72.7054 152.417 71.0135 149.491 71.0135H139.553L135.242 92.929H139.802L141.046 86.5773H146.507C149.42 86.5773 150.629 84.8144 151.175 82.4023L152.668 75.1175H152.666ZM147.915 76.0405L146.801 81.5057C146.659 82.098 146.387 82.2867 145.913 82.2867H141.886L143.342 75.2615H147.394C147.879 75.2615 148.057 75.509 147.986 76.0425M134.532 75.1175C135.007 72.7054 134.27 71.0135 131.335 71.0135H125.365C122.877 70.8248 120.674 72.6344 120.403 75.1175L117.796 88.754C117.358 91.2371 118.068 92.8702 120.946 92.8702H126.988C129.44 93.0365 131.572 91.2026 131.761 88.754L134.532 75.1175ZM129.759 76.0405L127.509 87.904C127.438 88.3544 127.034 88.6607 126.586 88.6485H123.21C122.76 88.6485 122.618 88.4599 122.677 87.904L125.022 76.0405C125.022 75.509 125.33 75.2595 125.864 75.2595H129.193C129.606 75.2595 129.868 75.507 129.726 76.0405M113.387 88.6485L116.824 71.0135H107.407C104.979 70.8837 102.883 72.6932 102.668 75.1175L98.7832 88.6485H96.8296L95.9411 92.931H113.97L114.812 88.6485H113.389H113.387ZM111.363 75.2595L108.709 88.6485H103.747L107.172 76.0405C107.16 75.6267 107.492 75.2716 107.906 75.2595H111.365H111.363ZM95.7991 82.1893C96.2616 79.7063 95.5029 77.9779 92.5776 77.9779H87.1996L88.5852 71.0257H83.9071L79.6064 92.9432H89.6746C92.1272 93.1095 94.2593 91.2756 94.4602 88.8271L95.7991 82.1914V82.1893ZM91.0135 82.7452L90.0418 88.0907C89.9951 88.5755 89.5792 88.9549 89.0822 88.9427H85.1385L86.5241 81.952H90.4921C90.9547 81.952 91.121 82.1772 91.0013 82.733M75.1048 92.929L79.3812 71.1555H69.4429C66.9902 70.9892 64.8581 72.8109 64.6329 75.2595L59.5289 92.9899H64.4909L69.0858 76.0993C69.0858 75.6733 69.4185 75.3305 69.8445 75.3183H73.9302L70.376 92.929H75.1028H75.1048ZM60.2754 75.1175C60.7379 72.7034 60.0279 71.0135 57.1492 71.0135H48.1826L47.3306 75.2595H54.9705C55.433 75.2595 55.5628 75.507 55.504 76.0405L54.5323 81.0797H49.771L50.5054 77.5904L39.5 82.8527H47.6734L46.9634 86.3298L54.2239 82.8872L53.2522 87.8432C53.1934 88.3037 52.7775 88.6364 52.317 88.5877H44.6873L43.8819 92.8702H52.8729C55.2768 93.0365 57.3744 91.227 57.5509 88.825V88.754L60.2754 75.1175Z" fill="#C10230"/>
</svg>
