<svg width="246" height="164" viewBox="0 0 246 164" fill="none" xmlns="http://www.w3.org/2000/svg">
<g clip-path="url(#clip0_4518_6360)">
<path d="M55.3579 91.2021C59.1744 91.2021 61.1814 87.3582 62.9333 82.1556H63.2157C62.5082 86.6508 62.7344 91.2021 66.9472 91.2021C70.7349 91.2021 72.5445 87.3294 74.128 82.1556H74.4103C73.6755 86.5658 73.8729 91.2021 78.198 91.2021C81.9858 91.2021 84.1066 87.4144 84.9264 82.1845H82.2696C81.9584 83.3428 81.421 84.4738 80.4327 84.4738C78.3696 84.4738 79.5006 81.0246 80.4039 76.6995L81.7049 70.4236H75.344C75.344 70.4236 71.9798 84.4738 69.3231 84.4738C67.3723 84.4738 68.3333 80.6299 69.1531 76.6433L70.4252 70.4236H64.0643C62.8771 75.0872 60.3616 84.4738 58.0146 84.4738C57.251 84.4738 57.0536 83.9925 57.0536 83.3716C57.0536 82.9754 57.166 82.5518 57.3087 82.1845H51.4852C51.1739 83.4278 51.0039 84.615 51.0039 85.831C51.0039 88.8839 52.1349 91.2021 55.3579 91.2021ZM88.4317 91.2021C90.1001 91.2021 91.4285 89.9011 91.4285 88.2342C91.4285 86.5673 90.1001 85.2662 88.4317 85.2662C86.7633 85.2662 85.4349 86.5673 85.4349 88.2342C85.4349 89.9011 86.7633 91.2021 88.4317 91.2021ZM105.647 84.4449C105.647 85.8583 104.601 86.4807 103.443 86.4807H99.3728V82.353H103.472C104.773 82.353 105.649 83.1439 105.649 84.4449H105.647ZM99.3713 74.7214H103.103C104.178 74.7214 105.025 75.3149 105.025 76.5583C105.025 77.8016 104.035 78.3952 103.103 78.3952H99.3713V74.7198V74.7214ZM107.259 80.1198C108.787 79.5262 110.312 78.169 110.312 75.5973C110.312 72.3182 107.853 70.4236 104.065 70.4236H94.1717V90.777H104.179C108.023 90.777 110.935 88.9113 110.935 85.1235C110.935 82.4668 109.351 80.7134 107.259 80.0636V80.1198ZM189.634 80.6284C189.634 83.5113 187.769 86.1118 184.376 86.1118C180.983 86.1118 178.976 83.5675 178.976 80.5707C178.976 77.5739 180.841 75.0872 184.233 75.0872C187.624 75.0872 189.633 77.6316 189.633 80.6284H189.634ZM173.691 80.6011C173.691 86.7358 178.327 91.2021 184.319 91.2021C190.311 91.2021 194.92 86.6796 194.92 80.6011C194.92 74.5225 190.284 70 184.292 70C178.3 70 173.691 74.5225 173.691 80.6011ZM146.892 75.3711V85.831H140.73C141.605 83.9364 142.031 80.2898 142.031 75.5973V75.3711H146.893H146.892ZM152.093 85.831V70.4236H137.139V71.9781C137.139 78.96 136.801 84.2461 135.217 85.8295H133.096V93.9985H138.297V90.7755H149.859V93.9985H155.061V85.8295H152.093V85.831ZM162.382 85.831V82.8342H170.92V78.1705H162.382V75.3726H171.711V70.4236H157.181V90.777H172.023V85.8295H162.382V85.831ZM125.973 70.4236L118.539 81.9856V70.4236H113.338V90.777H118.539L125.973 79.215V90.777H131.174V70.4236H125.973Z" fill="#FF0400"/>
</g>
<defs>
<clipPath id="clip0_4518_6360">
<rect width="143.917" height="24" fill="white" transform="translate(51.0039 70)"/>
</clipPath>
</defs>
</svg>
