<svg width="246" height="164" viewBox="0 0 246 164" fill="none" xmlns="http://www.w3.org/2000/svg">
<path d="M134.961 69.5C125.809 69.5 118.393 74.8659 118.393 81.4927C118.393 88.1194 125.809 93.4853 134.961 93.4853C144.112 93.4853 151.529 88.1194 151.529 81.4927C151.529 74.8659 144.112 69.5 134.961 69.5ZM134.961 87.8995C128.643 87.8995 123.915 84.5275 123.915 81.5073C123.915 78.4872 128.643 75.1151 134.961 75.1151C141.279 75.1151 146.006 78.4872 146.006 81.5073C146.006 84.5275 141.293 87.8995 134.961 87.8995Z" fill="#005BFF"/>
<path d="M80.6179 69.5C74.0832 69.5 68.7918 74.8659 68.7773 81.4927C68.7773 88.1194 74.0687 93.4853 80.6035 93.5C87.1382 93.5 92.4296 88.1341 92.444 81.5073C92.444 74.8659 87.1527 69.5 80.6179 69.5ZM86.9213 81.4927C86.9213 85.026 84.1022 87.8848 80.6179 87.8995C77.1337 87.8995 74.3001 85.0406 74.3001 81.5073C74.3001 77.974 77.1192 75.1005 80.6035 75.1005C84.0877 75.1005 86.9213 77.9594 86.9213 81.4927Z" fill="#005BFF"/>
<path d="M114.074 87.3571H104.691L116.662 71.3326C117.052 70.8048 116.691 70.0425 116.026 70.0425H98.8215C97.1155 70.0425 95.6553 71.6259 96.0168 73.4145C96.277 74.734 97.4914 75.6283 98.8215 75.6283H106.527L94.5421 91.6674C94.1518 92.1952 94.5132 92.9429 95.1638 92.9429H113.973C115.303 92.9429 116.517 92.0486 116.778 90.7291C117.139 88.9258 115.78 87.3571 114.074 87.3571Z" fill="#005BFF"/>
<path d="M177.22 72.8427V92.1512C177.22 92.3271 177.162 92.5031 177.047 92.6497C176.772 93.0015 176.266 93.0602 175.919 92.7816L160.999 80.7743V90.1573C160.999 91.7407 159.713 93.0015 158.151 92.9576C156.648 92.9136 155.477 91.6087 155.477 90.084V70.8488C155.477 70.6582 155.534 70.4823 155.65 70.3357C155.925 69.9985 156.431 69.9398 156.763 70.2184L171.683 82.2257V72.916C171.683 71.3913 172.854 70.1011 174.343 70.0425C175.919 69.9838 177.22 71.2593 177.22 72.8427Z" fill="#005BFF"/>
</svg>
