<svg width="246" height="164" viewBox="0 0 246 164" fill="none" xmlns="http://www.w3.org/2000/svg">
<g clip-path="url(#clip0_4518_6366)">
<g clip-path="url(#clip1_4518_6366)">
<path fill-rule="evenodd" clip-rule="evenodd" d="M63.1096 71.1685H51.0848C48.6856 71.1685 46.7349 73.1197 46.7349 75.519V85.0633C46.7349 87.4631 48.6856 89.4138 51.0848 89.4138H63.1096C63.1811 89.4138 63.2498 89.3854 63.3004 89.3349C63.351 89.2844 63.3796 89.2158 63.3797 89.1443V86.2745C63.3797 86.1272 63.2587 86.0062 63.1096 86.0062H50.6698C50.4462 86.0062 50.2586 85.8174 50.2586 85.5943V81.8776H59.9489C60.0981 81.8776 60.2184 81.7572 60.2184 81.6099V78.7395C60.2184 78.5922 60.0981 78.4712 59.9489 78.4712L50.2586 78.4706V74.9885C50.2586 74.7642 50.4462 74.5742 50.6698 74.5742H63.1096C63.2587 74.5742 63.3797 74.4544 63.3797 74.3065V71.4373C63.3797 71.2888 63.2587 71.1685 63.1096 71.1685ZM43.1623 71.1685H25.7677C25.6198 71.1685 25.5 71.2888 25.5 71.4367V74.4122C25.5 74.5595 25.6198 74.6793 25.7677 74.6793H32.5779V89.1211C32.5779 89.2677 32.6983 89.39 32.8456 89.39H36.0838C36.2305 89.39 36.3509 89.2677 36.3509 89.1211V74.6793H43.1623C43.309 74.6793 43.4306 74.5595 43.4306 74.4122V71.4367C43.4306 71.2888 43.309 71.1685 43.1623 71.1685ZM76.7881 82.1554L82.0644 88.9962C82.0644 88.9962 82.3847 89.408 82.8882 89.408H86.1864C86.3343 89.408 86.4559 89.383 86.4559 89.2345C86.4559 89.1318 86.1864 88.7762 86.1864 88.7762L79.7691 80.2872L86.1864 71.8001C86.1864 71.8001 86.4559 71.4469 86.4559 71.3625C86.4559 71.2409 86.4052 71.1682 86.1864 71.1682H82.8882C82.3205 71.1682 82.0498 71.5807 82.0498 71.5807L76.7881 78.4203L71.5264 71.5807C71.5264 71.5807 71.2557 71.1682 70.688 71.1682H67.3898C67.1711 71.1682 67.1203 71.2409 67.1203 71.3625C67.1203 71.4469 67.3898 71.8001 67.3898 71.8001L73.8077 80.2872L67.3904 88.7762C67.3904 88.7762 67.1203 89.1318 67.1203 89.2345C67.1203 89.383 67.2419 89.408 67.3898 89.408H70.688C71.1909 89.408 71.5124 88.9962 71.5124 88.9962L76.7881 82.1554ZM108.312 71.1702H105.219C105.072 71.1702 104.951 71.2906 104.951 71.4391V78.4235H94.5776L94.5714 71.4391C94.5714 71.2906 94.4517 71.1702 94.3038 71.1702H91.2103C91.0637 71.1702 90.9427 71.2906 90.9427 71.4391V89.1424C90.9427 89.2909 91.0637 89.4119 91.2103 89.4119H94.3038C94.4517 89.4119 94.5714 89.2909 94.5714 89.1424L94.5776 81.935H104.951V89.1424C104.951 89.2909 105.072 89.4119 105.219 89.4119H108.312C108.46 89.4119 108.579 89.2909 108.579 89.1424V71.4391C108.579 71.2906 108.46 71.1702 108.312 71.1702ZM151.096 71.1702H141.961C139.572 71.1702 137.626 73.1154 137.626 75.5055V89.1424C137.626 89.2909 137.746 89.4119 137.894 89.4119H140.986C141.134 89.4119 141.254 89.2909 141.254 89.1424V75.093C141.254 74.8699 141.442 74.6811 141.665 74.6811H151.391C151.614 74.6811 151.803 74.8699 151.803 75.093V89.1424C151.803 89.2909 151.923 89.4119 152.07 89.4119H155.162C155.233 89.4119 155.302 89.3835 155.352 89.333C155.403 89.2824 155.431 89.2139 155.431 89.1424V75.5055C155.431 73.1154 153.485 71.1702 151.096 71.1702ZM195.762 80.4485C195.762 80.6716 195.574 80.8586 195.352 80.8586H186.261V74.9767C186.261 74.753 186.45 74.5642 186.671 74.5642H195.352C195.574 74.5642 195.762 74.753 195.762 74.9767V80.4485ZM194.939 71.17H187.084C184.694 71.17 182.749 73.1152 182.749 75.5053V89.1428C182.749 89.2919 182.869 89.4117 183.018 89.4117H185.993C186.14 89.4117 186.261 89.2919 186.261 89.1428V84.2552H195.352C197.742 84.2552 199.274 82.31 199.274 79.9199V75.5053C199.274 73.1152 197.33 71.17 194.939 71.17ZM212.647 79.7739L219.332 71.7726C219.332 71.7726 219.869 71.17 218.898 71.17H216.07C215.575 71.17 215.244 71.5819 215.244 71.5819L209.41 78.6067H206.903L206.902 71.4389C206.902 71.2904 206.781 71.17 206.633 71.17H203.658C203.51 71.17 203.39 71.2904 203.39 71.4389L203.391 89.1422C203.391 89.2913 203.511 89.4117 203.66 89.4117H206.635C206.782 89.4117 206.903 89.2913 206.903 89.1422V82.1169H210.241L215.958 88.9998C215.958 88.9998 216.322 89.4117 216.783 89.4117H219.722C220.694 89.4117 220.156 88.7994 220.156 88.7994L212.647 79.7739Z" fill="#030304"/>
<path fill-rule="evenodd" clip-rule="evenodd" d="M128.924 82.6802C128.924 82.9045 128.734 83.0927 128.511 83.0927H117.812C117.589 83.0927 117.399 82.9045 117.399 82.6802V75.1122C117.399 74.8873 117.589 74.6979 117.812 74.6979H128.511C128.734 74.6979 128.924 74.8873 128.924 75.1122V82.6802ZM128.098 71.1699H118.224C115.824 71.1699 113.87 73.1236 113.87 75.5247V82.2683C113.87 84.6681 115.824 86.6206 118.224 86.6206H128.098C130.5 86.6206 132.452 84.6681 132.452 82.2683V75.5247C132.452 73.1236 130.5 71.1699 128.098 71.1699ZM132.395 92.271V89.4116C132.395 89.2637 132.275 89.1427 132.127 89.1427H114.138C113.99 89.1427 113.869 89.2637 113.869 89.4116V92.271C113.869 92.4183 113.99 92.5386 114.138 92.5386H132.127C132.275 92.5386 132.395 92.4183 132.395 92.271Z" fill="#009DC9"/>
<path fill-rule="evenodd" clip-rule="evenodd" d="M169.19 81.9475H173.232L171.228 75.8461C171.086 75.4104 170.62 74.517 169.19 74.517C167.761 74.517 167.294 75.4104 167.152 75.8461L165.148 81.9475H169.19ZM164.066 85.2603L162.797 89.1451C162.797 89.1451 162.735 89.4116 162.528 89.4116H159.431C159.145 89.4116 159.233 89.1421 159.233 89.1421L164.019 74.652C164.594 72.889 165.903 71.0874 169.19 71.0874C172.477 71.0874 173.786 72.889 174.362 74.652L179.147 89.1421C179.147 89.1421 179.236 89.4116 178.949 89.4116H175.853C175.645 89.4116 175.584 89.1451 175.584 89.1451L174.315 85.2603H164.066Z" fill="#030304"/>
</g>
</g>
<defs>
<clipPath id="clip0_4518_6366">
<rect width="195" height="124" fill="white" transform="translate(25.5 20)"/>
</clipPath>
<clipPath id="clip1_4518_6366">
<rect width="194.944" height="22" fill="white" transform="translate(25.5 71)"/>
</clipPath>
</defs>
</svg>
