<svg width="246" height="164" viewBox="0 0 246 164" fill="none" xmlns="http://www.w3.org/2000/svg">
<g clip-path="url(#clip0_4518_6378)">
<path d="M106.912 75.8338C104.638 75.8338 102.604 76.512 100.888 77.629V67.2168H96.0611V86.4056C96.0611 92.2301 100.928 96.9375 106.872 96.9375C112.816 96.9375 117.763 92.27 117.763 86.3657C117.763 80.4615 112.976 75.8338 106.912 75.8338ZM81.9388 76.153C76.593 76.6716 72.2047 81.1796 72.2047 86.5652C72.2047 92.2301 77.1914 97.0173 83.0159 97.0173C88.8403 97.0173 93.827 92.27 93.827 86.5652C93.827 84.1317 92.9494 81.9375 91.4733 80.1822L80.8217 67.2567H74.5983L81.9388 76.153ZM44.718 87.762L40.2898 76.5918H36.8989L32.5106 87.762L28.0824 76.5918H22.8164L30.5558 96.2992H33.9467L38.6143 84.5705L43.2818 96.2992H46.6728L54.3723 76.5918H49.1462L44.718 87.762ZM130.848 75.8737C124.824 75.8737 119.957 80.4216 119.957 86.2062C119.957 91.9508 124.226 97.0173 130.569 97.0173C134.359 97.0173 137.431 95.2221 139.625 92.1902L135.875 89.1982C134.798 91.1131 132.683 92.2301 130.609 92.2301C127.896 92.2301 125.223 90.3551 125.024 87.6024H140.782V86.1663C140.742 80.1024 136.633 75.8737 130.848 75.8737ZM192.285 75.8737C186.261 75.8737 181.433 80.4216 181.433 86.4455C181.433 92.1104 185.702 96.9774 192.005 96.9774C195.795 96.9774 198.867 95.1822 201.061 92.1503L197.75 89.3977C196.593 91.153 194.479 92.1902 191.925 92.1902C189.412 92.1902 186.66 90.3152 186.46 87.5625H202.138V85.9269C202.138 80.1024 198.069 75.8737 192.285 75.8737ZM209.12 82.3365C209.12 81.0998 210.835 80.1423 213.069 80.1423C215.303 80.1423 217.777 81.2195 219.372 82.9748L222.285 79.504C219.492 77.1104 216.699 75.8737 213.189 75.8737C208.8 75.8737 204.292 77.8285 204.292 82.3365C204.292 87.8817 209.199 88.2806 213.189 88.5998C215.423 88.7594 217.417 88.9189 217.417 90.3551C217.417 91.911 215.144 92.629 213.189 92.629C210.636 92.629 208.202 91.4721 206.566 89.5173L203.455 92.7487C205.928 95.7008 209.519 96.9774 213.029 96.9774C217.417 96.9774 222.245 94.9429 222.245 90.2753C222.245 85.0094 217.298 84.4907 213.508 84.1317C211.074 83.8524 209.12 83.653 209.12 82.3365ZM148.042 81.0599V76.5918H143.215V96.2594H148.042V87.9216C148.681 83.2939 152.471 81.4189 156.859 81.4189V76.5918H156.38C152.67 76.5918 149.957 77.9083 148.042 81.0599ZM163.322 81.0599V76.5918H158.495V96.2594H163.322V87.9216C163.96 82.6955 168.588 81.4189 172.138 81.4189V76.5918H171.62C167.949 76.5918 165.237 77.8684 163.322 81.0599ZM64.9441 96.2594H69.7712V67.2567H64.9441V96.2594ZM83.0159 92.27C79.7047 92.27 76.9919 89.6769 76.9919 86.4455C76.9919 83.2141 79.6648 80.5812 82.976 80.5812C86.2473 80.5812 89.0398 83.1742 89.0398 86.4455C89.0398 89.7168 86.3669 92.27 83.0159 92.27ZM106.912 92.27C103.641 92.27 100.888 89.7168 100.888 86.4056C100.888 83.0945 103.481 80.5812 106.912 80.5812C110.343 80.5812 112.976 83.1742 112.976 86.4056C112.976 89.637 110.223 92.27 106.912 92.27ZM56.6063 96.2594H61.4334V76.5918H56.6063V96.2594ZM174.173 96.2594H179V76.5918H174.173V96.2594ZM58.96 67.0173C57.0052 67.0173 55.3696 68.6131 55.3696 70.6078C55.3696 72.6423 57.085 74.0386 58.96 74.0386C61.0345 74.0386 62.6302 72.3232 62.6302 70.528C62.6302 68.6929 60.9547 67.0173 58.96 67.0173ZM176.566 67.0173C174.612 67.0173 172.936 68.6131 172.936 70.6078C172.936 72.6024 174.532 74.0386 176.646 74.0386C178.761 74.0386 180.197 72.6423 180.197 70.6875C180.197 68.7328 178.561 67.0173 176.566 67.0173ZM187.019 83.653C187.816 81.6982 189.532 80.5812 192.045 80.5812C194.558 80.5812 196.114 81.778 196.753 83.653H187.019ZM125.542 83.653C126.34 81.6982 128.056 80.5812 130.529 80.5812C133.042 80.5812 134.678 81.778 135.316 83.653C135.356 83.653 125.542 83.653 125.542 83.653Z" fill="#E313BF"/>
</g>
<defs>
<clipPath id="clip0_4518_6378">
<rect width="199" height="38" fill="white" transform="translate(23 63)"/>
</clipPath>
</defs>
</svg>
