<svg width="246" height="164" viewBox="0 0 246 164" fill="none" xmlns="http://www.w3.org/2000/svg">
<g clip-path="url(#clip0_4518_6402)">
<mask id="mask0_4518_6402" style="mask-type:luminance" maskUnits="userSpaceOnUse" x="22" y="52" width="202" height="60">
<path d="M22.377 52.1428H223.234V111.857H22.377V52.1428Z" fill="white"/>
</mask>
<g mask="url(#mask0_4518_6402)">
<mask id="mask1_4518_6402" style="mask-type:luminance" maskUnits="userSpaceOnUse" x="22" y="63" width="202" height="38">
<path d="M22.377 63H223.234V101H22.377V63Z" fill="white"/>
</mask>
<g mask="url(#mask1_4518_6402)">
<path d="M160.146 82.5115C160.149 83.1548 159.963 83.7845 159.613 84.3179C159.26 84.854 158.762 85.2706 158.179 85.5176C157.594 85.7641 156.948 85.8289 156.326 85.7035C155.704 85.5781 155.134 85.2684 154.691 84.8146C154.242 84.3588 153.938 83.7804 153.817 83.1521C153.694 82.5221 153.757 81.87 153.999 81.2752C154.243 80.6807 154.654 80.1759 155.182 79.819C155.795 79.403 156.534 79.2154 157.27 79.2891C158.007 79.3628 158.695 79.693 159.213 80.222C159.813 80.83 160.146 81.6538 160.146 82.5115Z" fill="#0069AB"/>
<path d="M50.8672 91.9004L59.8379 101H79.3333L60.6169 82L50.8672 91.9004ZM79.3333 63H59.8379L50.8672 72.0996L60.6169 82L79.3333 63Z" fill="#BABCBE"/>
<path d="M50.8349 72.0996L41.8655 63H22.377L41.0852 82L22.377 101H41.8669L50.8349 91.9004L60.5832 82L50.8349 72.0996Z" fill="#0069AB"/>
<path d="M82.5178 74.9117H87.2135L89.3171 78.4932L90.164 80.2168L91.1479 78.4064L93.1293 74.8873H97.5305L92.9529 82.3421L98.0395 90.2352H93.318L90.7733 86.1557L89.8749 84.4334L88.9072 86.2154L86.5187 90.2352H82.127L87.2135 82.3421L82.5178 74.9117ZM109.381 75.0936L109.144 77.9952C108.781 77.839 108.399 77.7291 108.009 77.6681C107.573 77.6053 107.133 77.5762 106.693 77.5812C106.056 77.5578 105.422 77.6753 104.836 77.9254C104.25 78.1755 103.727 78.552 103.304 79.0279C102.44 80.0273 101.982 81.3147 102.023 82.6352C101.96 83.9517 102.403 85.2437 103.262 86.233C103.665 86.6722 104.159 87.0194 104.708 87.2512C105.258 87.4831 105.851 87.594 106.447 87.5766C107.488 87.576 108.519 87.3742 109.483 86.9822L109.628 89.8837C109.031 90.0669 108.422 90.2094 107.804 90.3044C107.126 90.4171 106.439 90.4741 105.752 90.4768C104.603 90.5457 103.454 90.3411 102.4 89.8797C101.34 89.4162 100.403 88.7095 99.6667 87.8168C98.4615 86.2842 97.8315 84.3778 97.8861 82.4289C97.8417 80.503 98.5294 78.6318 99.8105 77.1931C100.605 76.3419 101.577 75.6748 102.656 75.2388C103.732 74.8045 104.891 74.6135 106.049 74.6797C107.173 74.6797 108.293 74.8181 109.381 75.0936ZM109.906 82.5742C109.857 81.5271 110.014 80.4806 110.37 79.4948C110.725 78.5121 111.271 77.6097 111.977 76.8402C113.558 75.4495 115.591 74.6811 117.696 74.6783C119.8 74.6783 121.829 75.4464 123.419 76.8402C124.759 78.4523 125.491 80.4825 125.489 82.5782C125.491 84.674 124.759 86.7041 123.419 88.3162C121.837 89.7076 119.803 90.4761 117.696 90.4782C115.59 90.4755 113.557 89.7071 111.976 88.3162C111.27 87.5452 110.724 86.6415 110.37 85.6576C110.013 84.6707 109.855 83.6226 109.906 82.5742ZM114.036 82.5742C113.952 83.8906 114.314 85.1975 115.062 86.2751C115.522 86.8869 116.183 87.3183 116.928 87.4943C117.673 87.6703 118.456 87.5799 119.142 87.2387C119.597 87.0111 119.993 86.6813 120.299 86.2751C121.059 85.2084 121.434 83.9055 121.352 82.5918C121.424 81.2882 121.06 79.9977 120.318 78.9234C120.011 78.5154 119.615 78.1834 119.159 77.9531C118.706 77.724 118.205 77.6046 117.698 77.6046C117.19 77.6046 116.689 77.724 116.236 77.9531C115.78 78.1829 115.384 78.515 115.078 78.9234C114.329 79.9879 113.962 81.2745 114.036 82.5742ZM130.905 90.2352H126.948V74.9131H130.7V77.4957C131.098 76.6136 131.756 75.8807 132.583 75.3949C133.445 74.893 134.427 74.6367 135.425 74.6539C136.142 74.6364 136.855 74.7686 137.519 75.042C138.028 75.2686 138.477 75.6104 138.831 76.0405C139.186 76.4706 139.435 76.9771 139.56 77.5202C140.063 76.6331 140.796 75.8984 141.683 75.3938C142.569 74.8893 143.575 74.6336 144.595 74.6539C146.563 74.6539 147.928 75.3514 148.707 76.7547C149.223 77.7577 149.475 78.8787 149.436 80.0092V90.2108H145.468V81.6011C145.502 80.8341 145.425 80.0661 145.24 79.3211C145.117 78.8906 144.849 78.5156 144.482 78.2598C144.117 78.0059 143.674 77.8878 143.231 77.9259C142.814 77.9199 142.4 78.0095 142.023 78.1879C141.643 78.367 141.309 78.6303 141.043 78.9587C140.437 79.7603 140.136 80.7523 140.196 81.7558V90.2271H136.212V81.6201C136.254 80.7992 136.154 79.9773 135.915 79.1908C135.779 78.8029 135.52 78.4702 135.178 78.2435C134.837 78.0184 134.431 77.9134 134.024 77.9449C133.618 77.9337 133.215 78.0125 132.843 78.1757C132.469 78.3385 132.135 78.5828 131.862 78.8909C131.193 79.6982 130.851 80.7275 130.905 81.7748V90.2352Z" fill="black"/>
<path d="M174.599 75.3347L174.244 78.2254C173.69 78.0141 173.124 77.8391 172.547 77.7016C171.992 77.5689 171.422 77.4997 170.851 77.4953C170.077 77.4234 169.304 77.631 168.665 78.0802C168.519 78.2044 168.402 78.3579 168.32 78.5308C168.24 78.7055 168.199 78.8952 168.198 79.0872C168.206 79.4007 168.309 79.7047 168.492 79.9571C168.673 80.2109 168.924 80.4023 169.216 80.5081C169.393 80.5855 169.818 80.7402 170.504 80.9818C171.491 81.246 172.425 81.677 173.267 82.2561C173.818 82.6972 174.252 83.2659 174.541 83.9119C174.829 84.5605 174.96 85.2679 174.924 85.9766C174.887 86.6854 174.685 87.3756 174.332 87.9914C173.98 88.6029 173.487 89.1217 172.895 89.5046C171.726 90.1762 170.394 90.5129 169.046 90.4777C168.192 90.4688 167.341 90.3852 166.501 90.228C165.667 90.0807 164.846 89.8674 164.045 89.5901L164.215 86.4565C164.918 86.7582 165.644 87.0059 166.385 87.1975C167.065 87.3815 167.766 87.48 168.471 87.4906C169.137 87.5436 169.799 87.3712 170.358 87.0007C170.55 86.8704 170.703 86.6954 170.812 86.4918C170.917 86.2882 170.976 86.0602 170.979 85.8281C170.973 85.5427 170.891 85.264 170.742 85.0206C170.593 84.7771 170.382 84.5776 170.13 84.4425C169.546 84.1418 168.94 83.8855 168.317 83.6757C167.041 83.3022 165.886 82.5986 164.969 81.6359C164.481 80.9229 164.237 80.0712 164.273 79.208C164.257 78.6434 164.354 78.0829 164.562 77.5577C164.766 77.0352 165.075 76.5589 165.469 76.1599C166.049 75.6342 166.729 75.232 167.47 74.9777C168.21 74.7233 168.994 74.6223 169.775 74.6806C170.623 74.6765 171.474 74.7308 172.317 74.8434C173.09 74.9404 173.854 75.1048 174.599 75.3347ZM176.49 90.2361V68.0251H180.447V74.9126L180.303 77.2876C180.973 76.3273 181.903 75.5782 182.984 75.1284C183.685 74.8228 184.441 74.6613 185.205 74.6534C185.918 74.6148 186.632 74.7189 187.304 74.9596C187.976 75.2004 188.593 75.5729 189.119 76.0554C189.613 76.5943 189.993 77.2278 190.235 77.9176C190.477 78.6074 190.576 79.3391 190.527 80.0684V90.2104H186.586V81.4025C186.627 80.6238 186.497 79.8454 186.204 79.1225C186.001 78.7276 185.684 78.4024 185.295 78.1888C184.907 77.9772 184.464 77.8886 184.025 77.935C183.593 77.9286 183.165 78.0125 182.768 78.1815C182.371 78.3505 182.014 78.6008 181.719 78.9162C181.278 79.4139 180.94 79.9942 180.726 80.6235C180.51 81.2559 180.421 81.9247 180.465 82.5914V90.2361H176.49ZM191.986 82.5751C191.905 81.515 192.051 80.4499 192.415 79.4509C192.778 78.4563 193.351 77.5515 194.095 76.7977C194.835 76.0487 195.73 75.4706 196.717 75.104C197.699 74.7381 198.75 74.5931 199.795 74.6792C200.842 74.6212 201.89 74.7835 202.871 75.1556C203.857 75.5289 204.755 76.1029 205.507 76.8411C206.846 78.4533 207.578 80.4834 207.577 82.5791C207.578 84.6744 206.846 86.7039 205.507 88.3158C203.924 89.7082 201.889 90.4771 199.781 90.4791C197.673 90.4771 195.638 89.7082 194.055 88.3158C193.347 87.5458 192.8 86.6419 192.446 85.6571C192.092 84.6699 191.935 83.6227 191.986 82.5751ZM196.122 82.5751C196.041 83.8901 196.399 85.1944 197.137 86.276C197.448 86.6831 197.846 87.0129 198.302 87.2396C198.756 87.4671 199.256 87.5856 199.764 87.5856C200.271 87.5856 200.772 87.4671 201.225 87.2396C201.678 87.0129 202.076 86.6831 202.387 86.276C203.145 85.2027 203.516 83.9033 203.439 82.5914C203.509 81.2883 203.145 79.9988 202.405 78.9244C202.098 78.5154 201.701 78.1828 201.244 77.9526C200.558 77.6057 199.771 77.513 199.023 77.6909C198.274 77.8687 197.613 78.3057 197.156 78.9244C196.414 79.9916 196.05 81.2768 196.122 82.5751ZM212.405 96.5726H208.448V74.9126H211.915V77.5808C212.401 76.7319 213.092 76.0188 213.925 75.5071C214.812 74.9435 215.84 74.6445 216.891 74.6453C217.769 74.6046 218.64 74.7674 219.446 75.1203C220.254 75.4759 220.969 76.0116 221.538 76.6864C222.672 78.0463 223.231 80.0006 223.231 82.5398C223.231 85.3056 222.513 87.378 221.071 88.7555C220.493 89.3206 219.808 89.7645 219.057 90.0611C218.309 90.3569 217.509 90.4986 216.705 90.4777C215.733 90.5001 214.775 90.256 213.932 89.772C213.298 89.3601 212.764 88.8132 212.366 88.1706V90.684L212.405 96.5726ZM212.405 82.5751C212.339 83.7981 212.679 85.0088 213.373 86.0181C213.639 86.4117 213.993 86.732 214.41 86.9546C214.824 87.1748 215.285 87.2903 215.754 87.291C216.223 87.2917 216.685 87.1776 217.1 86.9586C217.516 86.7415 217.875 86.4239 218.145 86.0358C218.78 84.9993 219.116 83.8072 219.116 82.5914C219.116 81.3756 218.78 80.1835 218.145 79.1469C217.88 78.7582 217.524 78.44 217.108 78.2201C216.692 78.0002 216.229 77.8852 215.759 77.8852C215.288 77.8852 214.825 78.0002 214.409 78.2201C213.994 78.44 213.638 78.7582 213.373 79.1469C212.683 80.1524 212.343 81.3571 212.405 82.5751Z" fill="#0069AB"/>
</g>
</g>
</g>
<defs>
<clipPath id="clip0_4518_6402">
<rect width="200.857" height="38" fill="white" transform="translate(22.377 63)"/>
</clipPath>
</defs>
</svg>
