<svg xmlns="http://www.w3.org/2000/svg" width="60" height="60" viewBox="0 0 60 60" fill="none">
    <path fill-rule="evenodd" clip-rule="evenodd"
        d="M15.8368 10C15.5756 10 15.3251 10.1038 15.1404 10.2884C14.9558 10.4731 14.852 10.7236 14.852 10.9848V18.852H6.98479C6.7236 18.852 6.47312 18.9558 6.28844 19.1404C6.10375 19.3251 6 19.5756 6 19.8368C6 20.098 6.10375 20.3485 6.28844 20.5331C6.47312 20.7178 6.7236 20.8216 6.98479 20.8216H14.852V48.1632C14.852 48.4244 14.9558 48.6749 15.1404 48.8596C15.3251 49.0442 15.5756 49.148 15.8368 49.148H53.0152C53.2764 49.148 53.5269 49.0442 53.7116 48.8596C53.8962 48.6749 54 48.4244 54 48.1632C54 47.902 53.8962 47.6515 53.7116 47.4669C53.5269 47.2822 53.2764 47.1784 53.0152 47.1784H16.8216V10.9848C16.8216 10.7236 16.7178 10.4731 16.5331 10.2884C16.3485 10.1038 16.098 10 15.8368 10ZM22.9184 18.852C22.6572 18.852 22.4067 18.9558 22.222 19.1404C22.0374 19.3251 21.9336 19.5756 21.9336 19.8368C21.9336 20.098 22.0374 20.3485 22.222 20.5331C22.4067 20.7178 22.6571 20.8215 22.9183 20.8216C28.2898 20.8274 33.4397 22.9638 37.2379 26.7621C41.0362 30.5603 43.1726 35.7102 43.1784 41.0817C43.1785 41.3429 43.2822 41.5933 43.4669 41.778C43.6515 41.9626 43.902 42.0664 44.1632 42.0664C44.4244 42.0664 44.6749 41.9626 44.8596 41.778C45.0442 41.5933 45.148 41.3427 45.148 41.0815C45.1415 35.1879 42.7974 29.5375 38.63 25.37C34.4625 21.2026 28.812 18.8585 22.9184 18.852Z"
        fill="#77787D" />
</svg>