<svg xmlns="http://www.w3.org/2000/svg" width="60" height="60" viewBox="0 0 60 60" fill="none">
    <path fill-rule="evenodd" clip-rule="evenodd"
        d="M20.4899 30.1503L26.6399 36.3003L39.5098 23.4303C39.6616 23.2785 39.8533 23.1804 40.1999 23.1804C40.5465 23.1804 40.7381 23.2785 40.8899 23.4303C41.0417 23.5821 41.1399 23.7738 41.1399 24.1204C41.1399 24.467 41.0417 24.6586 40.8899 24.8104L27.3299 38.3704C27.0948 38.6056 26.8843 38.6804 26.6399 38.6804C26.3955 38.6804 26.185 38.6056 25.9498 38.3704L19.1098 31.5304C18.9581 31.3786 18.8599 31.187 18.8599 30.8404C18.8599 30.4938 18.9581 30.3021 19.1098 30.1503C19.2616 29.9985 19.4533 29.9004 19.7999 29.9004C20.1465 29.9004 20.3382 29.9985 20.4899 30.1503ZM30.0012 52.6004H29.9999C26.8622 52.6004 23.932 52.0057 21.1949 50.8239C18.4302 49.6301 16.0393 48.0184 14.0095 45.9901C11.9801 43.9622 10.3688 41.572 9.17678 38.8063C7.99615 36.067 7.40142 33.1361 7.39991 29.9997C7.39839 26.8642 7.99295 23.9343 9.17626 21.1957C10.3717 18.4291 11.9835 16.0381 14.0102 14.01C16.0364 11.9823 18.4267 10.3708 21.1944 9.17712C23.9351 7.995 26.8656 7.40039 29.9999 7.40039C33.1342 7.40039 36.0647 7.995 38.8054 9.17712C41.5731 10.3708 43.9634 11.9823 45.9896 14.01C48.0164 16.0383 49.6291 18.4294 50.8262 21.1963C52.0107 23.9343 52.6044 26.8635 52.5999 29.9984C52.5953 33.1357 52.0004 36.0675 50.8225 38.8075C49.6339 41.5722 48.023 43.9618 45.991 45.9893C43.9573 48.0185 41.5657 49.6314 38.8038 50.8267C36.071 52.0095 33.1416 52.6034 30.0012 52.6004ZM29.9999 50.6004C35.7233 50.6004 40.6218 48.5984 44.6098 44.6103C48.5979 40.6223 50.5999 35.7238 50.5999 30.0004C50.5999 24.2769 48.5979 19.3785 44.6098 15.3904C40.6218 11.4024 35.7233 9.40039 29.9999 9.40039C24.2764 9.40039 19.378 11.4024 15.3899 15.3904C11.4019 19.3785 9.3999 24.2769 9.3999 30.0004C9.3999 35.7238 11.4019 40.6223 15.3899 44.6103C19.378 48.5984 24.2764 50.6004 29.9999 50.6004Z"
        fill="#77787D" />
</svg>