<svg xmlns="http://www.w3.org/2000/svg" width="60" height="60" viewBox="0 0 60 60" fill="none">
    <mask id="path-1-inside-1_2571_64461" fill="white">
        <path fill-rule="evenodd" clip-rule="evenodd"
            d="M34.6444 20.874C31.5579 20.5316 28.443 20.5316 25.3565 20.874C23.0499 21.1308 21.18 22.9494 20.9077 25.2842C20.5412 28.4174 20.5412 31.5827 20.9077 34.7159C21.18 37.0533 23.0499 38.8667 25.3565 39.1262C28.4182 39.4678 31.5827 39.4678 34.6444 39.1262C35.7751 39.0018 36.8304 38.4981 37.6383 37.6973C38.4461 36.8964 38.9589 35.8455 39.0932 34.7159C39.4605 31.5823 39.4605 28.4178 39.0932 25.2842C38.9589 24.1546 38.4461 23.1037 37.6383 22.3029C36.8304 21.502 35.7751 20.9983 34.6444 20.874ZM25.7829 24.7037C28.5621 24.3955 31.4388 24.3955 34.218 24.7037C34.4828 24.7329 34.7301 24.85 34.9205 25.0362C35.1109 25.2225 35.2334 25.4671 35.2686 25.7311C35.5999 28.5668 35.5999 31.4333 35.2686 34.269C35.2333 34.5334 35.1104 34.7783 34.9195 34.9646C34.7285 35.1509 34.4807 35.2677 34.2155 35.2964C31.4131 35.605 28.5853 35.605 25.7829 35.2964C25.5181 35.2672 25.2708 35.1501 25.0804 34.9639C24.89 34.7777 24.7675 34.533 24.7323 34.269C24.4004 31.4327 24.4004 28.5674 24.7323 25.7311C24.7676 25.4667 24.8905 25.2218 25.0814 25.0355C25.2724 24.8492 25.5202 24.7324 25.7854 24.7037" />
    </mask>
    <path fill-rule="evenodd" clip-rule="evenodd"
        d="M34.6444 20.874C31.5579 20.5316 28.443 20.5316 25.3565 20.874C23.0499 21.1308 21.18 22.9494 20.9077 25.2842C20.5412 28.4174 20.5412 31.5827 20.9077 34.7159C21.18 37.0533 23.0499 38.8667 25.3565 39.1262C28.4182 39.4678 31.5827 39.4678 34.6444 39.1262C35.7751 39.0018 36.8304 38.4981 37.6383 37.6973C38.4461 36.8964 38.9589 35.8455 39.0932 34.7159C39.4605 31.5823 39.4605 28.4178 39.0932 25.2842C38.9589 24.1546 38.4461 23.1037 37.6383 22.3029C36.8304 21.502 35.7751 20.9983 34.6444 20.874ZM25.7829 24.7037C28.5621 24.3955 31.4388 24.3955 34.218 24.7037C34.4828 24.7329 34.7301 24.85 34.9205 25.0362C35.1109 25.2225 35.2334 25.4671 35.2686 25.7311C35.5999 28.5668 35.5999 31.4333 35.2686 34.269C35.2333 34.5334 35.1104 34.7783 34.9195 34.9646C34.7285 35.1509 34.4807 35.2677 34.2155 35.2964C31.4131 35.605 28.5853 35.605 25.7829 35.2964C25.5181 35.2672 25.2708 35.1501 25.0804 34.9639C24.89 34.7777 24.7675 34.533 24.7323 34.269C24.4004 31.4327 24.4004 28.5674 24.7323 25.7311C24.7676 25.4667 24.8905 25.2218 25.0814 25.0355C25.2724 24.8492 25.5202 24.7324 25.7854 24.7037"
        fill="#77787D" />
    <path
        d="M34.6444 20.874L34.5342 21.8679L34.5351 21.868L34.6444 20.874ZM25.3565 20.874L25.2462 19.88L25.2458 19.8801L25.3565 20.874ZM20.9077 25.2842L21.901 25.4004L21.901 25.4L20.9077 25.2842ZM20.9077 34.7159L21.901 34.6002L21.901 34.5997L20.9077 34.7159ZM25.3565 39.1262L25.2447 40.1199L25.2456 40.12L25.3565 39.1262ZM34.6444 39.1262L34.5351 38.1321L34.5335 38.1323L34.6444 39.1262ZM39.0932 34.7159L40.0862 34.8339L40.0864 34.8324L39.0932 34.7159ZM39.0932 25.2842L40.0864 25.1678L40.0862 25.1662L39.0932 25.2842ZM34.218 24.7037L34.1078 25.6976L34.1082 25.6976L34.218 24.7037ZM35.2686 25.7311L36.2618 25.615L36.2609 25.6071L36.2598 25.5992L35.2686 25.7311ZM35.2686 34.269L36.2598 34.4011L36.2609 34.3931L36.2618 34.3851L35.2686 34.269ZM34.2155 35.2964L34.1078 34.3022L34.106 34.3024L34.2155 35.2964ZM25.7829 35.2964L25.6731 36.2904L25.6734 36.2904L25.7829 35.2964ZM24.7323 34.269L23.7391 34.3852L23.74 34.3931L23.7411 34.4009L24.7323 34.269ZM24.7323 25.7311L23.7411 25.599L23.74 25.6069L23.7391 25.6149L24.7323 25.7311ZM34.7547 19.88C31.5949 19.5296 28.406 19.5296 25.2462 19.88L25.4667 21.8679C28.48 21.5336 31.5209 21.5336 34.5342 21.8679L34.7547 19.88ZM25.2458 19.8801C22.4843 20.1876 20.2416 22.3634 19.9145 25.1683L21.901 25.4C22.1185 23.5353 23.6156 22.074 25.4672 21.8678L25.2458 19.8801ZM19.9145 25.168C19.5389 28.3784 19.5389 31.6217 19.9145 34.8321L21.901 34.5997C21.5434 31.5437 21.5434 28.4564 21.901 25.4004L19.9145 25.168ZM19.9145 34.8316C20.2417 37.6406 22.4854 39.8095 25.2447 40.1199L25.4683 38.1324C23.6145 37.9239 22.1184 36.4661 21.901 34.6002L19.9145 34.8316ZM25.2456 40.12C28.381 40.4698 31.6199 40.4698 34.7553 40.12L34.5335 38.1323C31.5455 38.4657 28.4554 38.4657 25.4674 38.1323L25.2456 40.12ZM34.7538 40.1202C36.1091 39.9711 37.374 39.3674 38.3423 38.4074L36.9342 36.9871C36.2869 37.6289 35.4412 38.0325 34.5351 38.1322L34.7538 40.1202ZM38.3423 38.4074C39.3106 37.4475 39.9253 36.1879 40.0862 34.8339L38.1001 34.598C37.9926 35.5032 37.5816 36.3453 36.9342 36.9871L38.3423 38.4074ZM40.0864 34.8324C40.4627 31.6214 40.4627 28.3787 40.0864 25.1678L38.1 25.4006C38.4582 28.4569 38.4582 31.5432 38.1 34.5995L40.0864 34.8324ZM40.0862 25.1662C39.9253 23.8122 39.3106 22.5526 38.3423 21.5927L36.9342 23.013C37.5816 23.6548 37.9926 24.4969 38.1001 25.4022L40.0862 25.1662ZM38.3423 21.5927C37.374 20.6327 36.1091 20.029 34.7538 19.8799L34.5351 21.868C35.4412 21.9676 36.2869 22.3712 36.9342 23.013L38.3423 21.5927ZM25.8931 25.6976C28.599 25.3975 31.4019 25.3975 34.1078 25.6976L34.3283 23.7098C31.4758 23.3934 28.5251 23.3934 25.6726 23.7098L25.8931 25.6976ZM34.1082 25.6976C34.1508 25.7023 34.1906 25.7212 34.2213 25.7512L35.6197 24.3213C35.2695 23.9788 34.8147 23.7635 34.3278 23.7097L34.1082 25.6976ZM34.2213 25.7512C34.2519 25.7811 34.2717 25.8205 34.2773 25.863L36.2598 25.5992C36.1952 25.1137 35.9699 24.6638 35.6197 24.3213L34.2213 25.7512ZM34.2753 25.8472C34.5977 28.6057 34.5977 31.3944 34.2753 34.1529L36.2618 34.3851C36.6022 31.4723 36.6022 28.5278 36.2618 25.615L34.2753 25.8472ZM34.2773 34.1369C34.2717 34.1794 34.2519 34.2189 34.2212 34.2488L35.6178 35.6804C35.9689 35.3378 36.195 34.8874 36.2598 34.4011L34.2773 34.1369ZM34.2212 34.2488C34.1904 34.2788 34.1505 34.2976 34.1078 34.3022L34.3231 36.2906C34.8108 36.2378 35.2667 36.023 35.6178 35.6804L34.2212 34.2488ZM34.106 34.3024C31.3764 34.603 28.622 34.603 25.8923 34.3024L25.6734 36.2904C28.5486 36.607 31.4498 36.607 34.3249 36.2904L34.106 34.3024ZM25.8927 34.3025C25.8501 34.2978 25.8103 34.2789 25.7796 34.249L24.3812 35.6788C24.7314 36.0213 25.1862 36.2366 25.6731 36.2904L25.8927 34.3025ZM25.7796 34.249C25.749 34.219 25.7293 34.1796 25.7236 34.1371L23.7411 34.4009C23.8057 34.8864 24.031 35.3363 24.3812 35.6788L25.7796 34.249ZM25.7256 34.1528C25.4027 31.3937 25.4027 28.6064 25.7256 25.8473L23.7391 25.6149C23.3982 28.5284 23.3982 31.4717 23.7391 34.3852L25.7256 34.1528ZM25.7236 25.8632C25.7292 25.8207 25.749 25.7813 25.7797 25.7513L24.3831 24.3197C24.032 24.6623 23.8059 25.1127 23.7411 25.599L25.7236 25.8632ZM25.7797 25.7513C25.8105 25.7213 25.8504 25.7025 25.8931 25.6979L25.6778 23.7095C25.1901 23.7623 24.7342 23.9771 24.3831 24.3197L25.7797 25.7513Z"
        fill="white" mask="url(#path-1-inside-1_2571_64461)" />
    <path fill-rule="evenodd" clip-rule="evenodd"
        d="M35.7028 14.4074L36.8193 14.4858V6.88343C36.8193 6.64926 36.9123 6.42468 37.0779 6.2591C37.2435 6.09351 37.4681 6.00049 37.7023 6.00049C37.9364 6.00049 38.161 6.09351 38.3266 6.2591C38.4922 6.42468 38.5852 6.64926 38.5852 6.88343V14.6172L39.4417 14.7732C40.8739 15.0342 42.1919 15.7276 43.2181 16.7603C44.2443 17.7929 44.9296 19.1152 45.1816 20.549L45.3333 21.4119H53.1136C53.3478 21.4119 53.5724 21.5049 53.738 21.6705C53.9036 21.8361 53.9966 22.0606 53.9966 22.2948C53.9966 22.529 53.9036 22.7536 53.738 22.9191C53.5724 23.0847 53.3478 23.1777 53.1136 23.1777H45.4774L45.5563 24.2948C45.646 25.5639 45.7078 26.8329 45.7416 28.1019L45.7687 29.1175H50.5451C50.7792 29.1175 51.0038 29.2106 51.1694 29.3762C51.335 29.5417 51.428 29.7663 51.428 30.0005C51.428 30.2347 51.335 30.4592 51.1694 30.6248C51.0038 30.7904 50.7792 30.8834 50.5451 30.8834H45.7673L45.7416 31.9005C45.7094 33.1685 45.6477 34.4366 45.5564 35.7048L45.4759 36.8232H53.1136C53.3478 36.8232 53.5724 36.9163 53.738 37.0818C53.9036 37.2474 53.9966 37.472 53.9966 37.7062C53.9966 37.9404 53.9036 38.1649 53.738 38.3305C53.5724 38.4961 53.3478 38.5891 53.1136 38.5891H45.3333L45.1816 39.452C44.9296 40.8858 44.2443 42.2081 43.2181 43.2407C42.1919 44.2734 40.8739 44.9668 39.4417 45.2278L38.5852 45.3838V53.1175C38.5852 53.3517 38.4922 53.5763 38.3266 53.7419C38.161 53.9075 37.9364 54.0005 37.7023 54.0005C37.4681 54.0005 37.2435 53.9075 37.0779 53.7419C36.9124 53.5763 36.8193 53.3517 36.8193 53.1175V45.5152L35.7028 45.5936C34.4363 45.6825 33.168 45.7417 31.8988 45.7711L30.8795 45.7947V50.549C30.8795 50.7832 30.7865 51.0077 30.6209 51.1733C30.4553 51.3389 30.2308 51.4319 29.9966 51.4319C29.7624 51.4319 29.5378 51.3389 29.3722 51.1733C29.2067 51.0077 29.1136 50.7832 29.1136 50.549V45.7941L28.0937 45.7711C26.8227 45.7424 25.5552 45.6832 24.2911 45.5936L23.1738 45.5145V53.1175C23.1738 53.3517 23.0808 53.5763 22.9152 53.7419C22.7497 53.9075 22.5251 54.0005 22.2909 54.0005C22.0567 54.0005 21.8321 53.9075 21.6666 53.7419C21.501 53.5763 21.408 53.3517 21.408 53.1175V45.3838L20.5515 45.2278C19.1192 44.9668 17.8013 44.2734 16.7751 43.2407C15.7488 42.2081 15.0636 40.8858 14.8115 39.452L14.6599 38.5891H6.87953C6.64535 38.5891 6.42077 38.4961 6.25519 38.3305C6.08961 38.1649 5.99658 37.9403 5.99658 37.7062C5.99658 37.472 6.08961 37.2474 6.25519 37.0818C6.42077 36.9163 6.64535 36.8232 6.87953 36.8232H14.5158L14.4369 35.7062C14.3472 34.4371 14.2854 33.1681 14.2516 31.8991L14.2245 30.8834H9.44809C9.21392 30.8834 8.98934 30.7904 8.82375 30.6248C8.65817 30.4592 8.56514 30.2347 8.56514 30.0005C8.56514 29.7663 8.65817 29.5417 8.82375 29.3762C8.98934 29.2106 9.21392 29.1175 9.44809 29.1175H14.2258L14.2516 28.1005C14.2837 26.8324 14.3454 25.5643 14.4368 24.2962L14.5173 23.1777H6.87953C6.64535 23.1777 6.42077 23.0847 6.25519 22.9191C6.08961 22.7536 5.99658 22.529 5.99658 22.2948C5.99658 22.0606 6.08961 21.8361 6.25519 21.6705C6.42077 21.5049 6.64536 21.4119 6.87953 21.4119H14.6599L14.8115 20.549C15.0636 19.1152 15.7488 17.7929 16.7751 16.7603C17.8013 15.7276 19.1192 15.0342 20.5515 14.7732L21.408 14.6172V6.88343C21.408 6.64926 21.501 6.42468 21.6666 6.2591C21.8321 6.09351 22.0567 6.00049 22.2909 6.00049C22.5251 6.00049 22.7496 6.09351 22.9152 6.2591C23.0808 6.42468 23.1738 6.64926 23.1738 6.88343V14.4858L24.2904 14.4074C25.5568 14.3185 26.8251 14.2593 28.0943 14.2299L29.1136 14.2063V9.45199C29.1136 9.21782 29.2067 8.99324 29.3722 8.82766C29.5378 8.66207 29.7624 8.56905 29.9966 8.56905C30.2308 8.56905 30.4553 8.66207 30.6209 8.82766C30.7865 8.99324 30.8795 9.21782 30.8795 9.45199V14.2063L31.8988 14.2299C33.168 14.2593 34.4363 14.3185 35.7028 14.4074ZM38.7616 16.4547L38.7597 16.4544C32.9354 15.8097 27.0577 15.8097 21.2334 16.4544L21.2337 16.4573C20.0398 16.591 18.9254 17.1221 18.0695 17.9652C17.2133 18.8087 16.6655 19.9154 16.5141 21.1077L16.5129 21.1181C15.8235 27.0196 15.8235 32.9814 16.5128 38.8829L16.5142 38.8932C16.6654 40.085 17.2127 41.1914 18.0682 42.0348C18.9238 42.8782 20.0379 43.4096 21.2317 43.5438L21.2334 43.544C27.0569 44.1885 32.9337 44.1885 38.7572 43.544L38.7583 43.5438C39.9527 43.4103 41.0675 42.8792 41.9237 42.0358C42.7798 41.1923 43.3277 40.0856 43.4791 38.8933L43.4803 38.8829C44.1696 32.9814 44.1696 27.0195 43.4803 21.1179C43.1944 18.6741 41.2221 16.7316 38.7616 16.4547Z"
        fill="#77787D" />
</svg>