<svg xmlns="http://www.w3.org/2000/svg" width="60" height="60" viewBox="0 0 60 60" fill="none">
    <path
        d="M49.7461 34.8827L49.6318 33.7466L49.5975 33.7489L49.5586 33.7558L49.7461 34.8827ZM49.7461 34.8827L49.8604 36.0211L49.8992 36.0166L49.9358 36.0097L49.7461 34.8827ZM40.5114 47.4142L41.236 46.5296L41.2245 46.5227L40.5114 47.4142ZM40.5114 47.4142L39.7868 48.2989L39.7982 48.308L40.5114 47.4142ZM19.4909 47.4142L18.7663 46.5319L18.7503 46.5456L18.732 46.5616L19.4909 47.4142ZM19.4909 47.4142L20.2155 48.3012L20.2338 48.2852L20.2498 48.2715L19.4909 47.4142ZM10.2539 25.1172V23.9743H10.1991L10.1419 23.9789L10.2539 25.1172ZM10.2539 25.1172V26.2602H10.3111L10.3682 26.2534L10.2539 25.1172ZM36.0174 10.1375C35.9835 9.72303 35.9355 9.3098 35.8734 8.89856C35.8221 8.53443 35.7125 8.18093 35.5488 7.8516L33.5167 8.90085C33.5396 8.94657 33.5785 9.038 33.6173 9.27574C33.6607 9.52719 33.6927 9.85408 33.7453 10.3638L36.0174 10.1375ZM36.4655 12.8875C36.438 12.8532 36.3557 12.7138 36.2666 12.2246C36.1597 11.532 36.0797 10.8359 36.022 10.1375L33.7453 10.3638C33.8368 11.2805 33.9122 12.0394 34.0173 12.6292C34.1202 13.2053 34.2802 13.7927 34.6482 14.2751L36.4655 12.8875ZM37.5261 13.3264C37.3263 13.3533 37.1229 13.3269 36.9367 13.2498C36.7504 13.1727 36.5878 13.0477 36.4655 12.8875L34.6459 14.2728C35.013 14.7542 35.501 15.1298 36.0603 15.3615C36.6195 15.5931 37.2302 15.6726 37.8301 15.5918L37.5261 13.3264ZM39.7845 11.6965C39.0416 12.3069 38.5341 12.7206 38.1341 12.9972C37.7249 13.2807 37.5672 13.3196 37.5261 13.3264L37.8301 15.5918C38.429 15.5118 38.957 15.21 39.4393 14.874C39.9308 14.5311 40.5182 14.0511 41.2337 13.4659L39.7845 11.6965ZM41.732 10.4141C41.3663 10.5307 41.0577 10.7159 40.7651 10.9239C40.4816 11.1251 40.1593 11.3902 39.7845 11.6965L41.2337 13.4659C41.6291 13.1413 41.8851 12.9332 42.0909 12.7869C42.1937 12.7056 42.3076 12.6394 42.4292 12.5903L41.732 10.4141ZM44.139 10.533C43.3774 10.2034 42.5223 10.1612 41.732 10.4141L42.4292 12.5903C42.6921 12.5071 42.9762 12.5217 43.2292 12.6315L44.139 10.533ZM45.9493 12.0051C45.6065 11.6623 45.3116 11.3651 45.051 11.1365C44.7812 10.8878 44.4733 10.6841 44.139 10.533L43.2292 12.6315C43.2772 12.6521 43.3641 12.7001 43.5469 12.8601C43.7367 13.0247 43.9698 13.2578 44.3333 13.6213L45.9493 12.0051ZM47.9906 14.0465L45.9493 12.0051L44.3333 13.6213L46.3745 15.6626L47.9906 14.0465ZM49.4626 15.8569C49.3109 15.5224 49.1064 15.2145 48.8569 14.9449C48.6283 14.6843 48.3312 14.3894 47.9906 14.0465L46.3745 15.6626C46.7379 16.0261 46.9688 16.2593 47.138 16.449C47.298 16.6319 47.3437 16.7187 47.3643 16.7667L49.4626 15.8569ZM49.5815 18.264C49.8344 17.4737 49.7922 16.6185 49.4626 15.8569L47.3643 16.7667C47.4733 17.02 47.4871 17.3042 47.4031 17.5668L49.5815 18.264ZM48.2992 20.2116C48.6055 19.8367 48.8706 19.5144 49.0718 19.231C49.2775 18.9384 49.4649 18.6298 49.5815 18.264L47.4031 17.5668C47.3548 17.6883 47.2894 17.8022 47.2088 17.9051C46.9911 18.1976 46.7647 18.4834 46.5299 18.7624L48.2992 20.2116ZM46.6694 22.4701C46.6762 22.429 46.7151 22.2713 46.9985 21.8621C47.2751 21.462 47.6888 20.9546 48.2992 20.2116L46.5299 18.7624C45.9448 19.4779 45.4624 20.0653 45.1219 20.5568C44.7858 21.0369 44.4841 21.5672 44.4041 22.1661L46.6694 22.4701ZM47.1082 23.5308C46.948 23.4084 46.8231 23.2458 46.746 23.0596C46.6689 22.8733 46.6425 22.6699 46.6694 22.4701L44.4041 22.1661C44.3237 22.7657 44.4034 23.3759 44.635 23.9348C44.8667 24.4936 45.242 24.9812 45.723 25.3481L47.1082 23.5308ZM49.8581 23.9766C48.9003 23.8806 48.2512 23.8166 47.7711 23.7297C47.282 23.6405 47.1425 23.5582 47.1082 23.5308L45.723 25.3481C46.2031 25.7139 46.7905 25.8739 47.3688 25.979C47.9563 26.0842 48.7129 26.1619 49.6318 26.2534L49.8581 23.9766ZM52.1439 24.4475C51.8146 24.2838 51.4611 24.1742 51.097 24.1229C50.7541 24.0657 50.3381 24.0246 49.8581 23.9766L49.6295 26.2511C50.1415 26.3036 50.4684 26.3356 50.7198 26.3791C50.8489 26.3947 50.9752 26.4285 51.0947 26.4797L52.1439 24.4475ZM53.76 26.2328C53.4548 25.4619 52.8807 24.8276 52.1439 24.4475L51.0947 26.4797C51.3405 26.606 51.5321 26.8172 51.6342 27.074L53.76 26.2328ZM54 28.553C54 28.0707 54 27.6523 53.9771 27.3049C53.9626 26.9382 53.8893 26.5762 53.76 26.2328L51.6342 27.074C51.6525 27.122 51.6799 27.218 51.6959 27.458C51.713 27.8235 51.7191 28.1894 51.7142 28.5553L54 28.553ZM54 31.4424V28.553H51.7142V31.4424H54ZM53.76 33.7604C53.9017 33.4038 53.9543 33.0471 53.9771 32.6883C54 32.3431 54 31.9248 54 31.4424H51.7142C51.7142 31.9545 51.7142 32.2836 51.6959 32.5374C51.6937 32.6677 51.6729 32.797 51.6342 32.9214L53.76 33.7604ZM52.1439 35.548C52.8811 35.1673 53.4553 34.5321 53.76 33.7604L51.6342 32.9214C51.5321 33.1782 51.3405 33.3894 51.0947 33.5158L52.1439 35.548ZM49.8581 36.0189C50.3381 35.9709 50.7564 35.9274 51.097 35.8703C51.4513 35.8131 51.801 35.724 52.1416 35.5502L51.0947 33.5158C50.9752 33.5669 50.8489 33.6008 50.7198 33.6163C50.4684 33.6598 50.1415 33.6918 49.6318 33.7444L49.8581 36.0189ZM47.1105 36.4646C47.1448 36.4372 47.2842 36.3526 47.7734 36.2657C48.2534 36.1789 48.9026 36.1126 49.8581 36.0189L49.6318 33.7444C48.7152 33.8358 47.9563 33.9089 47.3665 34.0164C46.7905 34.1192 46.2053 34.2793 45.723 34.645L47.1105 36.4646ZM46.6694 37.5253C46.6427 37.3253 46.6695 37.1218 46.747 36.9355C46.8245 36.7492 46.9499 36.5867 47.1105 36.4646L45.723 34.645C45.2417 35.0121 44.8661 35.5001 44.6344 36.0594C44.4028 36.6187 44.3233 37.2294 44.4041 37.8293L46.6694 37.5253ZM48.2992 39.7838C47.8463 39.2491 47.4125 38.6987 46.9985 38.1333C46.7151 37.7264 46.6762 37.5664 46.6694 37.5253L44.4064 37.8316C44.4864 38.4305 44.7881 38.9563 45.1219 39.4386C45.4647 39.9278 45.9448 40.5176 46.5299 41.2308L48.2992 39.7838ZM49.5815 41.7314C49.4646 41.3831 49.2925 41.0558 49.0718 40.7622C48.8242 40.4283 48.5665 40.102 48.2992 39.7838L46.5299 41.2308C46.8545 41.6285 47.0625 41.8823 47.2088 42.0903C47.2892 42.1925 47.3546 42.3057 47.4031 42.4263L49.5815 41.7314ZM49.4626 44.1385C49.7922 43.3769 49.8344 42.5217 49.5815 41.7314L47.4031 42.4263C47.4877 42.6897 47.4739 42.9747 47.3643 43.2287L49.4626 44.1385ZM47.9929 45.9467C48.3334 45.6061 48.6283 45.3112 48.8569 45.0506C49.0946 44.7785 49.3095 44.4928 49.4626 44.1385L47.3643 43.2287C47.3035 43.3442 47.2265 43.4504 47.1357 43.5441C46.8898 43.8138 46.636 44.076 46.3745 44.3305L47.9929 45.9467ZM45.9493 47.9903L47.9929 45.9467L46.3745 44.3305L44.3333 46.3741L45.9493 47.9903ZM44.139 49.4601C44.491 49.307 44.779 49.0944 45.051 48.8567C45.3116 48.6281 45.6065 48.3309 45.9493 47.988L44.3333 46.3741C43.9698 46.7376 43.7367 46.9685 43.5469 47.1353C43.4525 47.2263 43.3455 47.3033 43.2292 47.3639L44.139 49.4601ZM41.732 49.5813C42.5225 49.8335 43.3777 49.7905 44.139 49.4601L43.2292 47.3639C42.9759 47.473 42.6918 47.4868 42.4292 47.4028L41.732 49.5813ZM39.7845 48.2966C40.1593 48.6029 40.4816 48.8681 40.7651 49.0692C41.0577 49.2773 41.3663 49.4647 41.732 49.5813L42.4292 47.4028C42.3077 47.3545 42.1938 47.2891 42.0909 47.2085C41.7984 46.99 41.5125 46.7629 41.2337 46.5273L39.7845 48.2966ZM37.5261 46.669C37.5672 46.6736 37.7272 46.7147 38.1341 46.9982C38.5341 47.2748 39.0416 47.6885 39.7845 48.2966L41.2337 46.5273C40.5182 45.9444 39.9308 45.462 39.4393 45.1192C38.9593 44.7854 38.429 44.4837 37.8301 44.4037L37.5261 46.669ZM36.4655 47.1079C36.5878 46.9477 36.7504 46.8227 36.9367 46.7457C37.1229 46.6686 37.3263 46.6421 37.5261 46.669L37.8301 44.4037C37.2307 44.323 36.6207 44.4023 36.0619 44.6336C35.5031 44.8648 35.0154 45.2398 34.6482 45.7204L36.4655 47.1079ZM36.0197 49.8579C36.1157 48.9001 36.1797 48.2509 36.2666 47.7708C36.3557 47.2816 36.438 47.1422 36.4655 47.1079L34.6482 45.7204C34.2825 46.2004 34.1225 46.7902 34.0173 47.3662C33.9122 47.9537 33.8345 48.7104 33.743 49.6293L36.0197 49.8579ZM35.5488 52.1438C35.7248 51.8009 35.8117 51.4512 35.8711 51.0969C35.9306 50.754 35.9717 50.3379 36.0197 49.8579L33.743 49.6293C33.7113 49.994 33.6709 50.3576 33.6173 50.7197C33.6017 50.8488 33.5679 50.975 33.5167 51.0946L35.5488 52.1438ZM33.7636 53.76C34.5345 53.4548 35.1687 52.8807 35.5488 52.1438L33.5167 51.0946C33.3904 51.3403 33.1792 51.532 32.9224 51.6341L33.7636 53.76ZM31.4435 54C31.9258 54 32.3441 54 32.6916 53.9771C33.0481 53.9543 33.407 53.9017 33.7636 53.76L32.9224 51.6341C32.798 51.6728 32.6687 51.6936 32.5384 51.6958C32.287 51.7141 31.9555 51.7141 31.4412 51.7141L31.4435 54ZM28.5542 54H31.4435L31.4412 51.7141H28.5542V54ZM26.2341 53.76C26.593 53.9017 26.9496 53.9543 27.3084 53.9771C27.6536 54 28.0719 54 28.5542 54V51.7141C28.0422 51.7141 27.713 51.7141 27.4593 51.6958C27.329 51.6936 27.1997 51.6728 27.0753 51.6341L26.2341 53.76ZM24.4489 52.1438C24.829 52.8807 25.4632 53.4548 26.2341 53.76L27.0753 51.6341C26.8185 51.532 26.6073 51.3403 26.481 51.0946L24.4489 52.1438ZM23.978 49.8579C24.0237 50.341 24.0725 50.754 24.1243 51.0969C24.1837 51.4512 24.2729 51.8009 24.4489 52.1438L26.481 51.0946C26.4298 50.975 26.396 50.8488 26.3804 50.7197C26.3269 50.3583 26.2842 49.9955 26.2524 49.6316L23.978 49.8579ZM23.5323 47.1079C23.5597 47.1422 23.642 47.2816 23.7311 47.7708C23.818 48.2509 23.882 48.9024 23.978 49.8579L26.2524 49.6316C26.161 48.7149 26.0855 47.956 25.9804 47.3662C25.8775 46.7902 25.7175 46.2027 25.3495 45.7204L23.5323 47.1079ZM22.4716 46.669C22.6714 46.6421 22.8748 46.6686 23.061 46.7457C23.2473 46.8227 23.4099 46.9477 23.5323 47.1079L25.3495 45.7204C24.9826 45.2393 24.495 44.8662 23.9362 44.6346C23.3774 44.4029 22.7672 44.3233 22.1676 44.4037L22.4716 46.669ZM20.2132 48.2989C20.9561 47.6885 21.4636 47.2748 21.8636 46.9982C22.2728 46.7147 22.4305 46.6736 22.4716 46.669L22.1676 44.4037C21.5687 44.4837 21.0407 44.7854 20.5584 45.1214C20.067 45.462 19.4795 45.9444 18.764 46.5296L20.2132 48.2989ZM18.2657 49.5813C18.6315 49.4647 18.94 49.2795 19.2326 49.0715C19.5161 48.8704 19.8384 48.6052 20.2132 48.2989L18.764 46.5296C18.4851 46.7644 18.1993 46.9908 17.9069 47.2085C17.8039 47.2891 17.69 47.3545 17.5686 47.4028L18.2657 49.5813ZM15.8588 49.4647C16.6203 49.7943 17.4755 49.8342 18.2657 49.5813L17.5686 47.4028C17.3059 47.4868 17.0218 47.473 16.7685 47.3639L15.8588 49.4647ZM14.0484 47.9903C14.3913 48.3332 14.6861 48.6303 14.9467 48.8589C15.2164 49.0944 15.5067 49.3116 15.8588 49.4647L16.7685 47.3639C16.6522 47.3033 16.5452 47.2263 16.4508 47.1353C16.1811 46.8895 15.9189 46.6357 15.6645 46.3741L14.0484 47.9903ZM12.0071 45.9489L14.0484 47.9903L15.6645 46.3741L13.6232 44.3328L12.0071 45.9489ZM10.5351 44.1385C10.6882 44.4905 10.9031 44.7785 11.1408 45.0506C11.3694 45.3112 11.6666 45.6061 12.0071 45.9489L13.6232 44.3328C13.3609 44.0784 13.1063 43.8161 12.8598 43.5464C12.7688 43.452 12.6918 43.345 12.6312 43.2287L10.5351 44.1385ZM10.4162 41.7314C10.1633 42.5217 10.2055 43.3769 10.5351 44.1385L12.6312 43.2287C12.5214 42.9757 12.5091 42.6915 12.5923 42.4286L10.4162 41.7314ZM11.6986 39.7838C11.3923 40.1587 11.1271 40.481 10.9259 40.7645C10.7054 41.0574 10.5333 41.3839 10.4162 41.7314L12.5923 42.4286C12.6413 42.307 12.7075 42.1931 12.7889 42.0903C12.9352 41.8846 13.1432 41.6285 13.4678 41.2331L11.6986 39.7838ZM13.3283 37.5253C13.3215 37.5664 13.2826 37.7242 12.9992 38.1333C12.7203 38.5334 12.3089 39.0409 11.6986 39.7838L13.4678 41.2331C14.053 40.5176 14.5353 39.9301 14.8759 39.4386C15.2119 38.9586 15.5136 38.4282 15.5936 37.8293L13.3283 37.5253ZM12.8895 36.4646C13.0497 36.587 13.1746 36.7496 13.2517 36.9359C13.3288 37.1221 13.3552 37.3255 13.3283 37.5253L15.5936 37.8293C15.674 37.2297 15.5943 36.6195 15.3627 36.0607C15.131 35.5018 14.7557 35.0142 14.2747 34.6473L12.8895 36.4646ZM10.1396 36.0211C11.0974 36.1149 11.7466 36.1789 12.2266 36.2657C12.7157 36.3549 12.8552 36.4372 12.8895 36.4646L14.2747 34.645C13.7947 34.2793 13.2072 34.1192 12.6289 34.0164C12.0414 33.9112 11.2848 33.8335 10.3659 33.7421L10.1396 36.0211ZM7.8538 35.548C8.19668 35.724 8.54641 35.8108 8.90071 35.8703C9.24358 35.9297 9.65732 35.9731 10.1396 36.0211L10.3682 33.7444C10.0036 33.7126 9.63995 33.6699 9.27787 33.6163C9.14878 33.6008 9.02255 33.5669 8.903 33.5158L7.8538 35.548ZM6.23773 33.7604C6.5424 34.5321 7.11658 35.1673 7.8538 35.548L8.903 33.5158C8.65724 33.3894 8.4656 33.1782 8.36354 32.9214L6.23773 33.7604ZM6 31.447C6 31.9293 6 32.3476 6.02286 32.6951C6.03765 33.061 6.11096 33.4222 6.24001 33.7649L8.36583 32.926C8.32712 32.8016 8.30633 32.6722 8.30411 32.542C8.28704 32.1765 8.28094 31.8106 8.28582 31.4447L6 31.447ZM6 28.5576V31.447H8.28582V28.5576H6ZM6.24001 26.2374C6.11049 26.5815 6.03717 26.9443 6.02286 27.3117C6 27.6569 6 28.0752 6 28.5576H8.28582C8.28582 28.0455 8.28582 27.7164 8.30411 27.4626C8.30633 27.3323 8.32712 27.203 8.36583 27.0786L6.24001 26.2374ZM7.85609 24.452C7.11927 24.8322 6.54515 25.4664 6.24001 26.2374L8.36583 27.0786C8.46788 26.8218 8.65953 26.6106 8.90528 26.4842L7.85609 24.452ZM10.1419 23.9789C9.65884 24.0246 9.24587 24.0756 8.903 24.1274C8.53888 24.1788 8.18539 24.2884 7.85609 24.452L8.90528 26.4842C8.951 26.4614 9.04243 26.4225 9.28016 26.3837C9.5316 26.3402 9.85847 26.3082 10.3682 26.2556L10.1419 23.9789ZM12.8918 23.5354C12.8575 23.5628 12.718 23.6451 12.2289 23.7343C11.7488 23.8211 11.0997 23.8828 10.1419 23.9789L10.3682 26.2556C11.2848 26.1642 12.046 26.0888 12.6335 25.9836C13.2118 25.8807 13.7992 25.7207 14.2793 25.3527L12.8918 23.5354ZM13.3306 22.4747C13.3575 22.6745 13.3311 22.8779 13.254 23.0641C13.1769 23.2504 13.0519 23.413 12.8918 23.5354L14.2793 25.3527C14.7598 24.9855 15.1347 24.4978 15.366 23.939C15.5972 23.3801 15.6765 22.7678 15.5959 22.1684L13.3306 22.4747ZM11.7008 20.2139C12.3112 20.9591 12.7249 21.4666 13.0038 21.8667C13.2872 22.2758 13.3238 22.4336 13.3306 22.4747L15.5959 22.1684C15.5159 21.5695 15.2142 21.0437 14.8781 20.5614C14.5375 20.0699 14.0552 19.4824 13.4701 18.7669L11.7008 20.2139ZM10.4185 18.2663C10.5328 18.6321 10.7202 18.9429 10.9282 19.2355C11.1294 19.5167 11.3945 19.8413 11.7008 20.2139L13.4701 18.7669C13.2352 18.4873 13.0088 18.2006 12.7912 17.9074C12.71 17.8053 12.6438 17.6922 12.5946 17.5714L10.4185 18.2663ZM10.5374 15.8615C10.2084 16.6224 10.1661 17.4767 10.4185 18.2663L12.5946 17.5714C12.5113 17.3085 12.526 17.0243 12.6357 16.7713L10.5374 15.8615ZM12.0094 14.0511C11.6666 14.3917 11.3694 14.6865 11.1408 14.9494C10.8922 15.2192 10.6884 15.5272 10.5374 15.8615L12.6357 16.7713C12.6965 16.6558 12.7735 16.5473 12.8643 16.4536C13.109 16.1828 13.3629 15.9206 13.6255 15.6672L12.0094 14.0511ZM14.0507 12.0074L12.0094 14.0511L13.6255 15.6672L15.6667 13.6236L14.0507 12.0074ZM15.861 10.5376C15.5267 10.6886 15.2188 10.8924 14.949 11.1411C14.6884 11.3697 14.3913 11.6645 14.0507 12.0074L15.6667 13.6236C16.0302 13.2624 16.2633 13.0292 16.4531 12.8624C16.6359 12.7024 16.7228 12.6566 16.7708 12.6338L15.861 10.5376ZM18.268 10.4164C17.4775 10.1642 16.6223 10.2072 15.861 10.5376L16.7708 12.6338C17.0238 12.524 17.3079 12.5117 17.5708 12.5949L18.268 10.4164ZM20.2155 11.7011C19.8407 11.3948 19.5184 11.1296 19.2349 10.9285C18.9421 10.7071 18.6156 10.5342 18.268 10.4164L17.5708 12.5949C17.6923 12.6432 17.8062 12.7087 17.9091 12.7892C18.1149 12.9378 18.3709 13.1458 18.7686 13.4704L20.2155 11.7011ZM22.4739 13.331C22.4328 13.3241 22.2751 13.2853 21.8659 13.0018C21.3006 12.5871 20.7501 12.1548 20.2155 11.7011L18.7686 13.4704C19.4818 14.0556 20.0715 14.538 20.5607 14.8786C21.0407 15.2123 21.571 15.514 22.1699 15.5963L22.4739 13.331ZM23.5345 12.8898C23.4124 13.0504 23.25 13.1758 23.0637 13.2533C22.8774 13.3308 22.6739 13.3576 22.4739 13.331L22.1699 15.5963C22.7696 15.6774 23.3801 15.596 23.9394 15.3648C24.4986 15.1335 24.9867 14.7583 25.3541 14.2774L23.5345 12.8898ZM23.9803 10.1421C23.8843 11.0976 23.8203 11.7491 23.7334 12.2269C23.6443 12.7161 23.562 12.8555 23.5345 12.8898L25.3541 14.2774C25.7198 13.7973 25.8798 13.2098 25.9827 12.6315C26.0878 12.044 26.1655 11.2874 26.257 10.3684L23.9803 10.1421ZM24.4512 7.85618C24.2752 8.19907 24.186 8.54881 24.1266 8.90313C24.0694 9.24602 24.0283 9.65978 23.9803 10.1421L26.2547 10.3707C26.2864 10.006 26.3291 9.64241 26.3827 9.28031C26.3983 9.15121 26.4321 9.02498 26.4833 8.90542L24.4512 7.85618ZM26.2387 6.24002C25.4665 6.54527 24.8314 7.11806 24.4512 7.85618L26.4833 8.90542C26.6096 8.65965 26.8208 8.468 27.0776 8.36594L26.2387 6.24002ZM28.5565 6C28.0742 6 27.6559 6 27.3084 6.02286C26.9425 6.03765 26.5814 6.11097 26.2387 6.24002L27.0776 8.36594C27.202 8.32723 27.3313 8.30644 27.4616 8.30422C27.713 8.28593 28.0445 8.28593 28.5588 8.28593L28.5565 6ZM31.4458 6H28.5565V8.28593H31.4458V6ZM33.7659 6.24002C33.4217 6.11049 33.059 6.03717 32.6916 6.02286C32.3464 6 31.9281 6 31.4458 6V8.28593C31.9578 8.28593 32.287 8.28593 32.5407 8.30422C32.671 8.30644 32.8003 8.32723 32.9247 8.36594L33.7659 6.24002ZM35.5511 7.85618C35.1704 7.11892 34.5354 6.54471 33.7636 6.24002L32.9247 8.36594C33.1815 8.468 33.3927 8.65965 33.519 8.90542L35.5511 7.85618ZM38.0015 30C38.0015 32.1219 37.1586 34.157 35.6583 35.6574C34.1579 37.1578 32.123 38.0008 30.0011 38.0008V40.2867C32.7292 40.2867 35.3455 39.2029 37.2746 37.2738C39.2036 35.3447 40.2873 32.7282 40.2873 30H38.0015ZM30.0011 21.9992C32.123 21.9992 34.1579 22.8422 35.6583 24.3426C37.1586 25.843 38.0015 27.8781 38.0015 30H40.2873C40.2873 27.2718 39.2036 24.6553 37.2746 22.7262C35.3455 20.7971 32.7292 19.7133 30.0011 19.7133V21.9992ZM22.0008 30C22.0008 27.8781 22.8437 25.843 24.344 24.3426C25.8444 22.8422 27.8793 21.9992 30.0011 21.9992V19.7133C27.2731 19.7133 24.6567 20.7971 22.7277 22.7262C20.7987 24.6553 19.7149 27.2718 19.7149 30H22.0008ZM30.0011 38.0008C27.8793 38.0008 25.8444 37.1578 24.344 35.6574C22.8437 34.157 22.0008 32.1219 22.0008 30H19.7149C19.7149 32.7282 20.7987 35.3447 22.7277 37.2738C24.6567 39.2029 27.2731 40.2867 30.0011 40.2867V38.0008Z"
        fill="#77787D" />
</svg>