<svg xmlns="http://www.w3.org/2000/svg" width="60" height="60" viewBox="0 0 60 60" fill="none">
    <path
        d="M51.6 15H8.4C7.76372 15.0008 7.15374 15.2645 6.70382 15.7331C6.25391 16.2018 6.00079 16.8372 6 17.5V42.5C6.00079 43.1628 6.25391 43.7982 6.70382 44.2669C7.15374 44.7355 7.76372 44.9992 8.4 45H51.6C52.2363 44.9992 52.8463 44.7355 53.2962 44.2669C53.7461 43.7982 53.9992 43.1628 54 42.5V17.5C53.9992 16.8372 53.7461 16.2018 53.2962 15.7331C52.8463 15.2645 52.2363 15.0008 51.6 15ZM51.8435 42.7381H8.15652V17.2619H51.8435V42.7381Z"
        fill="#77787D" />
    <path fill-rule="evenodd" clip-rule="evenodd"
        d="M18.5627 35.5264H34.5943V37.8221H18.5627V35.5264ZM11.7327 35.5264H14.1042V37.8221H11.7327V35.5264ZM45.8829 35.5264H48.2544V37.8221H45.8829V35.5264ZM39.0528 35.5264H41.4244V37.8221H39.0528V35.5264ZM42.4678 28.8482H44.8394V31.1438H42.4678V28.8482ZM35.6378 28.8482H38.0093V31.1438H35.6378V28.8482ZM28.8078 28.8482H31.1793V31.1438H28.8078V28.8482ZM21.9777 28.8482H24.3493V31.1438H21.9777V28.8482ZM15.1477 28.8482H17.5192V31.1438H15.1477V28.8482ZM39.0528 22.1699H41.4244V24.4656H39.0528V22.1699ZM45.8829 22.1699H48.2544V24.4656H45.8829V22.1699ZM32.2228 22.1699H34.5943V24.4656H32.2228V22.1699ZM25.3927 22.1699H27.7643V24.4656H25.3927V22.1699ZM18.5627 22.1699H20.9342V24.4656H18.5627V22.1699ZM11.7327 22.1699H14.1042V24.4656H11.7327V22.1699Z"
        fill="#77787D" />
</svg>