<svg xmlns="http://www.w3.org/2000/svg" width="60" height="60" viewBox="0 0 60 60" fill="none">
    <path
        d="M50.997 33.3153V33.6576M50.997 33.6576C50.997 31.9293 49.737 30.4551 48.0192 30.1716L45.6504 29.7789V31.5471M50.997 33.6576V38.0319C50.997 41.8749 50.997 43.7964 50.409 45.3252C49.9613 46.4837 49.2751 47.5351 48.3949 48.4113C47.5147 49.2876 46.4602 49.969 45.2997 50.4114C43.7625 50.9994 41.8326 50.9994 37.9707 50.9994C35.9463 50.9994 34.9341 50.9994 33.9933 50.7936C32.5569 50.4792 31.2207 49.814 30.1041 48.8574C29.3733 48.2316 28.7664 47.4252 27.5505 45.8124L22.1976 38.706C21.7981 38.1758 21.5869 37.5274 21.5976 36.8637C21.6082 36.1999 21.84 35.5586 22.2564 35.0415C22.5213 34.7125 22.8524 34.4429 23.2283 34.2501C23.6042 34.0574 24.0164 33.9458 24.4381 33.9226C24.8599 33.8995 25.2819 33.9652 25.6766 34.1157C26.0713 34.2661 26.43 34.4978 26.7294 34.7958L29.4384 37.6686V20.3646C29.4384 18.7266 30.753 17.3994 32.3784 17.3994C33.9996 17.3994 35.3184 18.7266 35.3184 20.3646V26.2404H36.7422C37.2086 26.2385 37.6708 26.3285 38.1024 26.5053C38.534 26.6822 38.9265 26.9423 39.2575 27.271C39.5885 27.5996 39.8514 27.9903 40.0313 28.4206C40.2112 28.8509 40.3045 29.3125 40.3059 29.7789M45.6504 31.5471C45.6487 31.0809 45.5573 30.6195 45.3773 30.1894C45.1973 29.7593 44.9343 29.3689 44.6033 29.0405C44.2724 28.7121 43.88 28.4521 43.4485 28.2754C43.017 28.0987 42.555 28.0088 42.0888 28.0107H40.3059V29.7789M45.6504 31.5471L45.6525 33.3153M40.3059 29.7789V31.5471M35.3163 26.2425V31.5471"
        stroke="#77787D" stroke-width="2" stroke-linecap="round" stroke-linejoin="round" />
    <path
        d="M51 21.621C50.9244 16.4046 50.538 13.4478 48.5577 11.4654C46.0965 9 42.1338 9 34.2105 9H25.8084C17.883 9 13.9224 9 11.4612 11.4654C9 13.9308 9 17.8956 9 25.8294V30.0357C9 33.9564 9 35.9157 9.6405 37.4634C10.062 38.4838 10.6804 39.4112 11.4606 40.1924C12.2407 40.9736 13.1672 41.5933 14.187 42.0162C15.0438 42.3732 16.0266 42.5286 17.4 42.6"
        stroke="#77787D" stroke-width="2" stroke-linecap="round" stroke-linejoin="round" />
</svg>