<svg width="40" height="41" viewBox="0 0 40 41" fill="none" xmlns="http://www.w3.org/2000/svg">
    <path
        d="M19.9796 16.3742C21.8981 16.3742 23.4533 14.819 23.4533 12.9005C23.4533 10.982 21.8981 9.42676 19.9796 9.42676C18.0611 9.42676 16.5059 10.982 16.5059 12.9005C16.5059 14.819 18.0611 16.3742 19.9796 16.3742Z"
        stroke="#77787D" stroke-linecap="round" stroke-linejoin="round" />
    <path
        d="M13.6108 16.374C13.1097 16.3792 12.6239 16.5468 12.2261 16.8516C11.8284 17.1565 11.5403 17.5821 11.405 18.0646L8.51602 28.532C8.42848 28.8708 8.41886 29.225 8.48786 29.5681C8.55687 29.9111 8.70271 30.234 8.91443 30.5126C9.12616 30.7912 9.39826 31.0182 9.71029 31.1765C10.0223 31.3349 10.3662 31.4204 10.716 31.4268H29.2425C29.6 31.4267 29.9525 31.3438 30.2725 31.1847C30.5926 31.0256 30.8715 30.7946 31.0874 30.5098C31.3032 30.2249 31.4503 29.894 31.5169 29.5428C31.5835 29.1917 31.568 28.8299 31.4715 28.4857L28.5478 18.1109C28.4203 17.6169 28.1332 17.1789 27.7312 16.8648C27.3292 16.5508 26.8347 16.3782 26.3246 16.374H13.6108Z"
        stroke="#77787D" stroke-linecap="round" stroke-linejoin="round" />
</svg>