<svg xmlns="http://www.w3.org/2000/svg" width="60" height="60" viewBox="0 0 60 60" fill="none">
    <path
        d="M53.04 13.5862H40.56V2.96552C40.56 2.70945 40.4589 2.46386 40.2788 2.28279C40.0988 2.10172 39.8546 2 39.6 2C39.3454 2 39.1012 2.10172 38.9212 2.28279C38.7411 2.46386 38.64 2.70945 38.64 2.96552V13.5862H21.36V2.96552C21.36 2.70945 21.2589 2.46386 21.0788 2.28279C20.8988 2.10172 20.6546 2 20.4 2C20.1454 2 19.9012 2.10172 19.7212 2.28279C19.5411 2.46386 19.44 2.70945 19.44 2.96552V13.5862H7.092C6.0312 13.5862 6 14.4528 6 14.5517C6 14.8078 6.10114 15.0534 6.28118 15.2344C6.46121 15.4155 6.70539 15.5172 6.96 15.5172H11.76V37.7241C11.76 40.0288 12.6703 42.239 14.2906 43.8687C15.9109 45.4983 18.1085 46.4138 20.4 46.4138H29.04V57.0345C29.04 57.2906 29.1411 57.5361 29.3212 57.7172C29.5012 57.8983 29.7454 58 30 58C30.2546 58 30.4988 57.8983 30.6788 57.7172C30.8589 57.5361 30.96 57.2906 30.96 57.0345V46.4138H39.6C41.8915 46.4138 44.0891 45.4983 45.7094 43.8687C47.3297 42.239 48.24 40.0288 48.24 37.7241V15.5172H53.04C53.2946 15.5172 53.5388 15.4155 53.7188 15.2344C53.8989 15.0534 54 14.8078 54 14.5517C54 14.2957 53.8989 14.0501 53.7188 13.869C53.5388 13.6879 53.2946 13.5862 53.04 13.5862ZM46.32 37.7241C46.32 39.5166 45.612 41.2357 44.3518 42.5032C43.0915 43.7707 41.3823 44.4828 39.6 44.4828H20.4C18.6177 44.4828 16.9085 43.7707 15.6482 42.5032C14.388 41.2357 13.68 39.5166 13.68 37.7241V15.5172H46.32V37.7241ZM25.3704 30.5503C25.2821 30.4222 25.2259 30.2745 25.2067 30.1199C25.1874 29.9652 25.2057 29.8081 25.26 29.6621L28.14 21.9379C28.1841 21.8191 28.2511 21.7101 28.3371 21.6173C28.4231 21.5244 28.5264 21.4495 28.6412 21.3969C28.756 21.3442 28.8799 21.3148 29.006 21.3103C29.1321 21.3058 29.2578 21.3263 29.376 21.3707C29.4942 21.4151 29.6025 21.4824 29.6948 21.5689C29.7871 21.6554 29.8616 21.7593 29.914 21.8748C29.9664 21.9902 29.9956 22.1149 30.0001 22.2417C30.0045 22.3685 29.9841 22.4949 29.94 22.6138L27.54 29.0345H33.84C33.9951 29.0344 34.1479 29.072 34.2853 29.1443C34.4228 29.2165 34.5408 29.3212 34.6292 29.4493C34.7177 29.5774 34.774 29.7251 34.7933 29.8799C34.8126 30.0347 34.7943 30.1918 34.74 30.3379L31.86 38.0621C31.8159 38.1809 31.7489 38.2899 31.6629 38.3827C31.5769 38.4756 31.4736 38.5505 31.3588 38.6031C31.244 38.6558 31.1201 38.6852 30.994 38.6897C30.8679 38.6942 30.7422 38.6737 30.624 38.6293C30.5058 38.5849 30.3975 38.5176 30.3052 38.4311C30.2129 38.3446 30.1384 38.2407 30.086 38.1252C30.0336 38.0098 30.0044 37.8851 29.9999 37.7583C29.9955 37.6315 30.0159 37.5051 30.06 37.3862L32.46 30.9655H26.16C26.0048 30.9657 25.8519 30.9279 25.7144 30.8556C25.5769 30.7833 25.4589 30.6786 25.3704 30.5503Z"
        fill="#77787D" />
</svg>