<svg xmlns="http://www.w3.org/2000/svg" width="60" height="60" viewBox="0 0 60 60" fill="none">
    <path
        d="M47 25.4004C47 23.1125 46.5592 20.847 45.7031 18.7344C44.8471 16.6217 43.5924 14.7036 42.0127 13.0889C40.4331 11.4741 38.559 10.1939 36.498 9.32129C34.4372 8.44876 32.2293 8 30 8C25.4985 8 21.1772 9.8281 17.9873 13.0889C14.7967 16.3504 13 20.7786 13 25.4004C13.0001 30.022 14.7968 34.4505 17.9873 37.7119C21.1772 40.9724 25.4987 42.7998 30 42.7998C32.2293 42.7998 34.4372 42.3511 36.498 41.4785C38.5588 40.6059 40.4332 39.3264 42.0127 37.7119C43.5924 36.0971 44.8471 34.1781 45.7031 32.0654C46.5591 29.953 46.9999 27.6881 47 25.4004ZM35.75 25.4004C35.75 23.8288 35.1392 22.3255 34.0586 21.2207C32.9785 20.1166 31.5178 19.5 30 19.5C28.4822 19.5 27.0215 20.1166 25.9414 21.2207C24.8608 22.3255 24.25 23.8288 24.25 25.4004C24.2501 26.972 24.8607 28.4753 25.9414 29.5801C27.0215 30.6842 28.4822 31.2998 30 31.2998C31.5178 31.2998 32.9785 30.6842 34.0586 29.5801C35.1393 28.4753 35.7499 26.972 35.75 25.4004ZM37.75 25.4004C37.7499 27.4884 36.939 29.4955 35.4883 30.9785C34.0367 32.4624 32.0626 33.2998 30 33.2998C27.9374 33.2998 25.9633 32.4624 24.5117 30.9785C23.061 29.4955 22.2501 27.4884 22.25 25.4004C22.25 23.3122 23.0608 21.3044 24.5117 19.8213C25.9633 18.3374 27.9374 17.5 30 17.5C32.0626 17.5 34.0367 18.3374 35.4883 19.8213C36.9392 21.3044 37.75 23.3122 37.75 25.4004ZM49 25.4004C48.9999 27.9449 48.5097 30.4654 47.5566 32.8174C46.6035 35.1693 45.2055 37.308 43.4424 39.1104C41.6792 40.9126 39.5849 42.3437 37.2783 43.3203C35.2799 44.1665 33.1563 44.6554 31 44.7715V52H41.25C41.8023 52 42.25 52.4477 42.25 53C42.25 53.5523 41.8023 54 41.25 54H18.75C18.1977 54 17.75 53.5523 17.75 53C17.75 52.4477 18.1977 52 18.75 52H29V44.7725C24.3187 44.5208 19.883 42.5095 16.5576 39.1104C12.997 35.4706 11.0001 30.5384 11 25.4004C11 20.2622 12.997 15.3302 16.5576 11.6904C20.119 8.04987 24.9537 6 30 6C32.4982 6 34.9715 6.50275 37.2783 7.47949C39.5849 8.45613 41.6792 9.88719 43.4424 11.6895C45.2056 13.4919 46.6035 15.6313 47.5566 17.9834C48.5096 20.3354 49 22.8559 49 25.4004Z"
        fill="#77787D" />
</svg>