<svg xmlns="http://www.w3.org/2000/svg" width="60" height="60" viewBox="0 0 60 60" fill="none">
    <path
        d="M45 29.5C45 28.8142 44.4852 28 43.8519 28H15.1481C14.5148 28 14 28.8142 14 29.5C14 30.1858 14.5148 31 15.1481 31H43.8519C44.4852 31 45 30.1858 45 29.5Z"
        fill="black" />
    <path
        d="M43.8291 19.75C49.0321 19.75 53.25 24.1321 53.25 29.5C53.25 34.8679 49.0321 39.25 43.8291 39.25H15.1709C9.9679 39.25 5.75 34.8679 5.75 29.5C5.75 24.1321 9.9679 19.75 15.1709 19.75H43.8291ZM15.1709 21.4375C10.8929 21.4375 7.39648 25.0465 7.39648 29.5C7.39648 33.9535 10.8929 37.5625 15.1709 37.5625H43.8291C48.1071 37.5625 51.6035 33.9535 51.6035 29.5C51.6035 25.0465 48.1071 21.4375 43.8291 21.4375H15.1709Z"
        fill="black" stroke="black" stroke-width="0.5" />
</svg>